<svg viewBox="0 0 32 32" fill="none" xmlns="http://www.w3.org/2000/svg">
    <path d="M14.4993 22.5012C14.4984 21.1221 14.9201 19.7759 15.7077 18.6438C16.4953 17.5117 17.6109 16.6482 18.9043 16.1695C20.1976 15.6908 21.6066 15.62 22.9414 15.9666C24.2763 16.3132 25.4728 17.0605 26.37 18.1079C26.4364 18.1856 26.5251 18.2411 26.6241 18.2668C26.723 18.2926 26.8275 18.2874 26.9234 18.2519C27.0193 18.2165 27.102 18.1524 27.1604 18.0685C27.2188 17.9846 27.2501 17.8848 27.25 17.7826V15.9972C27.25 15.7066 27.2233 15.2319 27.1913 14.9439L26.302 6.94389C26.2712 6.6855 26.1472 6.44722 25.9533 6.27369C25.7594 6.10016 25.5089 6.00328 25.2486 6.00122H17.75C17.4983 6.00678 17.2548 6.0918 17.0544 6.24411C16.8539 6.39642 16.7068 6.60822 16.634 6.84922L14.3713 15.0026H6.74864C6.49637 15.0084 6.2528 15.0959 6.05448 15.252C5.85615 15.408 5.71375 15.6241 5.64864 15.8679L4.73931 19.5412C4.71717 19.6313 4.72051 19.7257 4.74896 19.814C4.7774 19.9022 4.82983 19.9808 4.90038 20.041C4.97093 20.1012 5.05683 20.1405 5.14847 20.1547C5.24011 20.1689 5.33388 20.1573 5.41931 20.1212C6.14124 19.8192 6.92658 19.7002 7.70556 19.7749C8.48454 19.8495 9.23303 20.1153 9.88451 20.5489C10.536 20.9824 11.0703 21.5702 11.4399 22.2599C11.8096 22.9496 12.0031 23.72 12.0033 24.5026C12.0033 24.7786 12.2273 25.0026 12.5033 25.0026H14.2846C14.362 25.0024 14.4382 24.9844 14.5074 24.9498C14.5765 24.9153 14.6368 24.8651 14.6833 24.8034C14.7298 24.7416 14.7613 24.6699 14.7755 24.5939C14.7896 24.5178 14.7859 24.4396 14.7646 24.3652C14.5889 23.7594 14.4991 23.132 14.498 22.5012H14.4993ZM23.3393 11.7652C23.3393 11.865 23.3095 11.9625 23.2537 12.0452C23.1978 12.1279 23.1185 12.192 23.026 12.2292L17.4353 14.4652C17.3473 14.5002 17.2512 14.5095 17.1582 14.492C17.0652 14.4746 16.979 14.431 16.9097 14.3665C16.8404 14.302 16.7909 14.2191 16.7669 14.1275C16.7428 14.036 16.7453 13.9394 16.774 13.8492L18.5313 8.34922C18.5635 8.24825 18.627 8.16014 18.7126 8.09759C18.7981 8.03504 18.9013 8.00129 19.0073 8.00122H22.8393C23.1153 8.00122 23.3393 8.22522 23.3393 8.50122V11.7652Z" fill="currentColor"/>
    <path d="M26.4993 22.5013C26.5104 21.8049 26.3828 21.1131 26.124 20.4664C25.8651 19.8198 25.4802 19.231 24.9916 18.7346C24.503 18.2381 23.9205 17.8439 23.278 17.5747C22.6355 17.3056 21.9459 17.167 21.2493 17.167C20.5528 17.167 19.8632 17.3056 19.2207 17.5747C18.5782 17.8439 17.9957 18.2381 17.5071 18.7346C17.0185 19.231 16.6335 19.8198 16.3747 20.4664C16.1158 21.1131 15.9882 21.8049 15.9993 22.5013C16.0213 23.8792 16.5841 25.1933 17.5663 26.1599C18.5484 27.1266 19.8713 27.6683 21.2493 27.6683C22.6274 27.6683 23.9502 27.1266 24.9324 26.1599C25.9146 25.1933 26.4774 23.8792 26.4993 22.5013ZM21.25 25.0013C20.587 25.0013 19.9511 24.7379 19.4822 24.2691C19.0134 23.8003 18.75 23.1644 18.75 22.5013C18.75 21.8383 19.0134 21.2024 19.4822 20.7336C19.9511 20.2647 20.587 20.0013 21.25 20.0013C21.913 20.0013 22.5489 20.2647 23.0178 20.7336C23.4866 21.2024 23.75 21.8383 23.75 22.5013C23.75 23.1644 23.4866 23.8003 23.0178 24.2691C22.5489 24.7379 21.913 25.0013 21.25 25.0013ZM7.25 21.2507C6.38805 21.2507 5.5614 21.5931 4.9519 22.2026C4.34241 22.8121 4 23.6387 4 24.5007C4 25.3626 4.34241 26.1893 4.9519 26.7988C5.5614 27.4083 6.38805 27.7507 7.25 27.7507C8.11195 27.7507 8.9386 27.4083 9.5481 26.7988C10.1576 26.1893 10.5 25.3626 10.5 24.5007C10.5 23.6387 10.1576 22.8121 9.5481 22.2026C8.9386 21.5931 8.11195 21.2507 7.25 21.2507ZM7.25 25.7507C7.08585 25.7508 6.92327 25.7187 6.77154 25.656C6.61982 25.5934 6.48192 25.5014 6.36573 25.3855C6.13106 25.1513 5.99902 24.8335 5.99867 24.502C5.99831 24.1705 6.12967 23.8524 6.36384 23.6177C6.59801 23.3831 6.91581 23.251 7.24733 23.2507C7.57885 23.2503 7.89694 23.3817 8.13161 23.6158C8.36628 23.85 8.49831 24.1678 8.49867 24.4993C8.49902 24.8309 8.36766 25.1489 8.13349 25.3836C7.89932 25.6183 7.58152 25.7503 7.25 25.7507ZM9.25 6.00133H9.75V9.08667C9.15 9.3 8.75 9.86533 8.75 10.5V13.0013C8.75 13.2773 8.974 13.5013 9.25 13.5013H12.25C12.3826 13.5013 12.5098 13.4487 12.6036 13.3549C12.6973 13.2611 12.75 13.1339 12.75 13.0013V10.5013C12.75 9.86533 12.35 9.29867 11.75 9.088V5C11.75 4.73478 11.6446 4.48043 11.4571 4.29289C11.2696 4.10536 11.0152 4 10.75 4H9.25C8.98478 4 8.73043 4.10536 8.54289 4.29289C8.35536 4.48043 8.25 4.73478 8.25 5C8.25 5.26522 8.35536 5.51957 8.54289 5.70711C8.73043 5.89464 8.98478 6.00133 9.25 6.00133Z" fill="currentColor"/>
</svg>
