<svg viewBox="0 0 24 24" fill="none" xmlns="http://www.w3.org/2000/svg">
<path d="M10.4993 18.5012C10.4984 17.1221 10.9201 15.7759 11.7077 14.6438C12.4953 13.5117 13.6109 12.6482 14.9043 12.1695C16.1976 11.6908 17.6066 11.62 18.9414 11.9666C20.2763 12.3132 21.4728 13.0605 22.37 14.1079C22.4364 14.1856 22.5251 14.2411 22.6241 14.2668C22.723 14.2926 22.8275 14.2874 22.9234 14.2519C23.0193 14.2165 23.102 14.1524 23.1604 14.0685C23.2188 13.9846 23.2501 13.8848 23.25 13.7826V11.9972C23.25 11.7066 23.2233 11.2319 23.1913 10.9439L22.302 2.94389C22.2712 2.6855 22.1472 2.44722 21.9533 2.27369C21.7594 2.10016 21.5089 2.00328 21.2486 2.00122H13.75C13.4983 2.00678 13.2548 2.0918 13.0544 2.24411C12.8539 2.39642 12.7068 2.60822 12.634 2.84922L10.3713 11.0026H2.74864C2.49637 11.0084 2.2528 11.0959 2.05448 11.252C1.85615 11.408 1.71375 11.6241 1.64864 11.8679L0.73931 15.5412C0.717173 15.6313 0.720514 15.7257 0.748958 15.814C0.777402 15.9022 0.829829 15.9808 0.90038 16.041C0.970931 16.1012 1.05683 16.1405 1.14847 16.1547C1.24011 16.1689 1.33388 16.1573 1.41931 16.1212C2.14124 15.8192 2.92658 15.7002 3.70556 15.7749C4.48454 15.8495 5.23303 16.1153 5.88451 16.5489C6.53599 16.9824 7.07029 17.5702 7.43993 18.2599C7.80956 18.9496 8.00309 19.72 8.00331 20.5026C8.00331 20.7786 8.22731 21.0026 8.50331 21.0026H10.2846C10.362 21.0024 10.4382 20.9844 10.5074 20.9498C10.5765 20.9153 10.6368 20.8651 10.6833 20.8034C10.7298 20.7416 10.7613 20.6699 10.7755 20.5939C10.7896 20.5178 10.7859 20.4396 10.7646 20.3652C10.5889 19.7594 10.4991 19.132 10.498 18.5012H10.4993ZM19.3393 7.76522C19.3393 7.865 19.3095 7.9625 19.2537 8.04519C19.1978 8.12788 19.1185 8.19197 19.026 8.22922L13.4353 10.4652C13.3473 10.5002 13.2512 10.5095 13.1582 10.492C13.0652 10.4746 12.979 10.431 12.9097 10.3665C12.8404 10.302 12.7909 10.2191 12.7669 10.1275C12.7428 10.036 12.7453 9.93945 12.774 9.84922L14.5313 4.34922C14.5635 4.24825 14.627 4.16014 14.7126 4.09759C14.7981 4.03504 14.9013 4.00129 15.0073 4.00122H18.8393C19.1153 4.00122 19.3393 4.22522 19.3393 4.50122V7.76522Z" fill="currentColor"/>
<path d="M22.4993 18.5013C22.5104 17.8049 22.3828 17.1131 22.124 16.4664C21.8651 15.8198 21.4802 15.231 20.9916 14.7346C20.503 14.2381 19.9205 13.8439 19.278 13.5747C18.6355 13.3056 17.9459 13.167 17.2493 13.167C16.5528 13.167 15.8632 13.3056 15.2207 13.5747C14.5782 13.8439 13.9957 14.2381 13.5071 14.7346C13.0185 15.231 12.6335 15.8198 12.3747 16.4664C12.1158 17.1131 11.9882 17.8049 11.9993 18.5013C12.0213 19.8792 12.5841 21.1933 13.5663 22.1599C14.5484 23.1266 15.8713 23.6683 17.2493 23.6683C18.6274 23.6683 19.9502 23.1266 20.9324 22.1599C21.9146 21.1933 22.4774 19.8792 22.4993 18.5013ZM17.25 21.0013C16.587 21.0013 15.9511 20.7379 15.4822 20.2691C15.0134 19.8003 14.75 19.1644 14.75 18.5013C14.75 17.8383 15.0134 17.2024 15.4822 16.7336C15.9511 16.2647 16.587 16.0013 17.25 16.0013C17.913 16.0013 18.5489 16.2647 19.0178 16.7336C19.4866 17.2024 19.75 17.8383 19.75 18.5013C19.75 19.1644 19.4866 19.8003 19.0178 20.2691C18.5489 20.7379 17.913 21.0013 17.25 21.0013ZM3.25 17.2507C2.38805 17.2507 1.5614 17.5931 0.951903 18.2026C0.34241 18.8121 0 19.6387 0 20.5007C0 21.3626 0.34241 22.1893 0.951903 22.7988C1.5614 23.4083 2.38805 23.7507 3.25 23.7507C4.11195 23.7507 4.9386 23.4083 5.5481 22.7988C6.15759 22.1893 6.5 21.3626 6.5 20.5007C6.5 19.6387 6.15759 18.8121 5.5481 18.2026C4.9386 17.5931 4.11195 17.2507 3.25 17.2507ZM3.25 21.7507C3.08585 21.7508 2.92327 21.7187 2.77154 21.656C2.61982 21.5934 2.48192 21.5014 2.36573 21.3855C2.13106 21.1513 1.99902 20.8335 1.99867 20.502C1.99831 20.1705 2.12967 19.8524 2.36384 19.6177C2.59801 19.3831 2.91581 19.251 3.24733 19.2507C3.57885 19.2503 3.89694 19.3817 4.13161 19.6158C4.36628 19.85 4.49831 20.1678 4.49867 20.4993C4.49902 20.8309 4.36766 21.1489 4.13349 21.3836C3.89932 21.6183 3.58152 21.7503 3.25 21.7507ZM5.25 2.00133H5.75V5.08667C5.15 5.3 4.75 5.86533 4.75 6.5V9.00133C4.75 9.27733 4.974 9.50133 5.25 9.50133H8.25C8.38261 9.50133 8.50979 9.44866 8.60355 9.35489C8.69732 9.26112 8.75 9.13394 8.75 9.00133V6.50133C8.75 5.86533 8.35 5.29867 7.75 5.088V1C7.75 0.734784 7.64464 0.48043 7.45711 0.292893C7.26957 0.105357 7.01522 0 6.75 0H5.25C4.98478 3.95203e-09 4.73043 0.105357 4.54289 0.292893C4.35536 0.48043 4.25 0.734784 4.25 1C4.25 1.26522 4.35536 1.51957 4.54289 1.70711C4.73043 1.89464 4.98478 2.00133 5.25 2.00133Z" fill="currentColor"/>
</svg>
