<svg viewBox="0 0 24 24" fill="none" xmlns="http://www.w3.org/2000/svg">
<path d="M23.8838 23.1797L21.3838 20.1797C21.3369 20.1234 21.2782 20.0781 21.2118 20.047C21.1455 20.0159 21.0731 19.9997 20.9998 19.9997H2.99981C2.92653 19.9997 2.85414 20.0159 2.78778 20.047C2.72143 20.0781 2.66272 20.1234 2.61581 20.1797L0.115813 23.1797C0.0550083 23.2527 0.0162609 23.3415 0.00410786 23.4357C-0.00804517 23.53 0.0068993 23.6257 0.0471913 23.7117C0.0874832 23.7978 0.151455 23.8706 0.231615 23.9216C0.311775 23.9726 0.404806 23.9997 0.499813 23.9997H23.4998C23.5948 23.9997 23.6879 23.9726 23.768 23.9216C23.8482 23.8706 23.9121 23.7978 23.9524 23.7117C23.9927 23.6257 24.0077 23.53 23.9955 23.4357C23.9834 23.3415 23.9446 23.2527 23.8838 23.1797Z" fill="currentColor"/>
<path d="M6.33309 10.4997H3.66642C3.29823 10.4997 2.99976 10.7982 2.99976 11.1664V18.333C2.99976 18.7012 3.29823 18.9997 3.66642 18.9997H6.33309C6.70128 18.9997 6.99976 18.7012 6.99976 18.333V11.1664C6.99976 10.7982 6.70128 10.4997 6.33309 10.4997Z" fill="currentColor"/>
<path d="M13.3331 10.4997H10.6664C10.2982 10.4997 9.99976 10.7982 9.99976 11.1664V18.333C9.99976 18.7012 10.2982 18.9997 10.6664 18.9997H13.3331C13.7013 18.9997 13.9998 18.7012 13.9998 18.333V11.1664C13.9998 10.7982 13.7013 10.4997 13.3331 10.4997Z" fill="currentColor"/>
<path d="M20.3331 10.4997H17.6664C17.2982 10.4997 16.9998 10.7982 16.9998 11.1664V18.333C16.9998 18.7012 17.2982 18.9997 17.6664 18.9997H20.3331C20.7013 18.9997 20.9998 18.7012 20.9998 18.333V11.1664C20.9998 10.7982 20.7013 10.4997 20.3331 10.4997Z" fill="currentColor"/>
<path d="M2.08393 9.27706C2.17726 9.41572 2.33326 9.49972 2.49993 9.49972H21.4999C21.5822 9.49972 21.6633 9.47939 21.7358 9.44055C21.8084 9.4017 21.8703 9.34555 21.9159 9.27706L22.9159 7.77706C22.9661 7.70176 22.9949 7.61425 22.9993 7.52386C23.0037 7.43347 22.9834 7.34359 22.9407 7.2638C22.898 7.18401 22.8345 7.11731 22.7568 7.0708C22.6792 7.0243 22.5904 6.99973 22.4999 6.99972H1.49993C1.40943 6.99973 1.32063 7.0243 1.243 7.0708C1.16537 7.11731 1.10182 7.18401 1.05912 7.2638C1.01642 7.34359 0.996177 7.43347 1.00055 7.52386C1.00491 7.61425 1.03373 7.70176 1.08393 7.77706L2.08393 9.27706ZM1.49993 5.99972H22.4999C22.6136 5.99993 22.7239 5.96141 22.8127 5.89051C22.9016 5.81962 22.9636 5.72057 22.9886 5.60971C23.0136 5.49884 23.0001 5.38276 22.9503 5.28061C22.9005 5.17845 22.8173 5.09631 22.7146 5.04772L12.2146 0.047723C12.1474 0.0162913 12.0741 0 11.9999 0C11.9257 0 11.8525 0.0162913 11.7853 0.047723L1.28526 5.04772C1.18252 5.09631 1.0994 5.17845 1.04959 5.28061C0.999788 5.38276 0.986271 5.49884 1.01127 5.60971C1.03627 5.72057 1.09829 5.81962 1.18712 5.89051C1.27595 5.96141 1.38628 5.99993 1.49993 5.99972Z" fill="currentColor"/>
</svg>
