<svg viewBox="0 0 32 32" fill="none" xmlns="http://www.w3.org/2000/svg">
    <path d="M27.8838 27.1797L25.3838 24.1797C25.3369 24.1234 25.2782 24.0781 25.2118 24.047C25.1455 24.0159 25.0731 23.9997 24.9998 23.9997H6.99981C6.92653 23.9997 6.85414 24.0159 6.78778 24.047C6.72143 24.0781 6.66272 24.1234 6.61581 24.1797L4.11581 27.1797C4.05501 27.2527 4.01626 27.3415 4.00411 27.4357C3.99195 27.53 4.0069 27.6257 4.04719 27.7117C4.08748 27.7978 4.15145 27.8706 4.23162 27.9216C4.31178 27.9726 4.40481 27.9997 4.49981 27.9997H27.4998C27.5948 27.9997 27.6879 27.9726 27.768 27.9216C27.8482 27.8706 27.9121 27.7978 27.9524 27.7117C27.9927 27.6257 28.0077 27.53 27.9955 27.4357C27.9834 27.3415 27.9446 27.2527 27.8838 27.1797Z" fill="currentColor"/>
    <path d="M10.3331 14.4997H7.66642C7.29823 14.4997 6.99976 14.7982 6.99976 15.1664V22.333C6.99976 22.7012 7.29823 22.9997 7.66642 22.9997H10.3331C10.7013 22.9997 10.9998 22.7012 10.9998 22.333V15.1664C10.9998 14.7982 10.7013 14.4997 10.3331 14.4997Z" fill="currentColor"/>
    <path d="M17.3331 14.4997H14.6664C14.2982 14.4997 13.9998 14.7982 13.9998 15.1664V22.333C13.9998 22.7012 14.2982 22.9997 14.6664 22.9997H17.3331C17.7013 22.9997 17.9998 22.7012 17.9998 22.333V15.1664C17.9998 14.7982 17.7013 14.4997 17.3331 14.4997Z" fill="currentColor"/>
    <path d="M24.3331 14.4997H21.6664C21.2982 14.4997 20.9998 14.7982 20.9998 15.1664V22.333C20.9998 22.7012 21.2982 22.9997 21.6664 22.9997H24.3331C24.7013 22.9997 24.9998 22.7012 24.9998 22.333V15.1664C24.9998 14.7982 24.7013 14.4997 24.3331 14.4997Z" fill="currentColor"/>
    <path d="M6.08393 13.2771C6.17726 13.4157 6.33326 13.4997 6.49993 13.4997H25.4999C25.5822 13.4997 25.6633 13.4794 25.7358 13.4405C25.8084 13.4017 25.8703 13.3455 25.9159 13.2771L26.9159 11.7771C26.9661 11.7018 26.9949 11.6142 26.9993 11.5239C27.0037 11.4335 26.9834 11.3436 26.9407 11.2638C26.898 11.184 26.8345 11.1173 26.7568 11.0708C26.6792 11.0243 26.5904 10.9997 26.4999 10.9997H5.49993C5.40943 10.9997 5.32063 11.0243 5.243 11.0708C5.16537 11.1173 5.10182 11.184 5.05912 11.2638C5.01642 11.3436 4.99618 11.4335 5.00055 11.5239C5.00491 11.6142 5.03373 11.7018 5.08393 11.7771L6.08393 13.2771ZM5.49993 9.99972H26.4999C26.6136 9.99993 26.7239 9.96141 26.8127 9.89051C26.9016 9.81962 26.9636 9.72057 26.9886 9.60971C27.0136 9.49884 27.0001 9.38276 26.9503 9.28061C26.9005 9.17845 26.8173 9.09631 26.7146 9.04772L16.2146 4.04772C16.1474 4.01629 16.0741 4 15.9999 4C15.9257 4 15.8525 4.01629 15.7853 4.04772L5.28526 9.04772C5.18252 9.09631 5.0994 9.17845 5.04959 9.28061C4.99979 9.38276 4.98627 9.49884 5.01127 9.60971C5.03627 9.72057 5.09829 9.81962 5.18712 9.89051C5.27595 9.96141 5.38628 9.99993 5.49993 9.99972Z" fill="currentColor"/>
</svg>
