<svg viewBox="0 0 32 32" fill="none" xmlns="http://www.w3.org/2000/svg">
    <path d="M15.2573 25.4493L16.3827 19.4493C16.4806 18.9284 16.7148 18.4428 17.0615 18.0419C17.4081 17.6409 17.8548 17.3389 18.356 17.1667C18.4006 17.1509 18.4399 17.123 18.4694 17.0859C18.4989 17.0489 18.5173 17.0044 18.5227 16.9573C18.5788 16.4894 18.7299 16.0379 18.9667 15.6305C19.2036 15.2231 19.5212 14.8683 19.9 14.588C19.931 14.5647 19.9562 14.5345 19.9735 14.4998C19.9909 14.4651 19.9999 14.4268 20 14.388V13.0707C19.9881 12.6437 19.8077 12.2388 19.4981 11.9444C19.1885 11.6501 18.775 11.4903 18.348 11.5H17.748C17.7151 11.4998 17.6826 11.5061 17.6522 11.5186C17.6218 11.531 17.5941 11.5494 17.5708 11.5726C17.5475 11.5957 17.5291 11.6233 17.5164 11.6536C17.5038 11.6839 17.4973 11.7165 17.4973 11.7493V13C17.4892 13.1934 17.4066 13.3762 17.2668 13.5102C17.1271 13.6442 16.9409 13.719 16.7473 13.719C16.5537 13.719 16.3676 13.6442 16.2278 13.5102C16.0881 13.3762 16.0055 13.1934 15.9973 13V9C15.9973 7.93913 15.5759 6.92172 14.8258 6.17157C14.0756 5.42143 13.0582 5 11.9973 5C10.9365 5 9.91905 5.42143 9.16891 6.17157C8.41876 6.92172 7.99733 7.93913 7.99733 9V13C7.98918 13.1934 7.90659 13.3762 7.76683 13.5102C7.62707 13.6442 7.44095 13.719 7.24733 13.719C7.05372 13.719 6.86759 13.6442 6.72784 13.5102C6.58808 13.3762 6.50549 13.1934 6.49733 13V11.7493C6.49733 11.6831 6.47111 11.6195 6.42439 11.5726C6.37767 11.5256 6.31425 11.499 6.248 11.4987H5.648C5.22119 11.4901 4.80832 11.6507 4.49955 11.9455C4.19077 12.2403 4.01118 12.6453 4 13.072V25.9293C4.01187 26.357 4.19287 26.7626 4.5033 27.057C4.81374 27.3514 5.22827 27.5108 5.656 27.5H15.2053C15.2466 27.5003 15.2872 27.4904 15.3236 27.4712C15.3601 27.4519 15.3912 27.4239 15.4142 27.3897C15.4372 27.3555 15.4513 27.3161 15.4554 27.2751C15.4594 27.2341 15.4532 27.1927 15.4373 27.1547C15.2124 26.6164 15.1499 26.0241 15.2573 25.4507V25.4493ZM10 8.99867C10 8.46823 10.2107 7.95953 10.5858 7.58445C10.9609 7.20938 11.4696 6.99867 12 6.99867C12.5304 6.99867 13.0391 7.20938 13.4142 7.58445C13.7893 7.95953 14 8.46823 14 8.99867V11.2493C14 11.3158 13.9736 11.3796 13.9266 11.4266C13.8796 11.4736 13.8158 11.5 13.7493 11.5H10.252C10.1855 11.5 10.1218 11.4736 10.0748 11.4266C10.0277 11.3796 10.0013 11.3158 10.0013 11.2493V8.99867H10Z" fill="currentColor"/>
    <path d="M26.6467 19.7226C26.5823 19.3786 26.3996 19.068 26.1303 18.8444C25.861 18.6209 25.522 18.4986 25.172 18.4986H25C24.9672 18.4988 24.9346 18.4925 24.9042 18.4801C24.8738 18.4676 24.8462 18.4493 24.8229 18.4261C24.7996 18.4029 24.7811 18.3754 24.7685 18.345C24.7559 18.3147 24.7494 18.2822 24.7494 18.2493V17.324C24.7155 16.6933 24.4338 16.1015 23.9655 15.6776C23.4972 15.2538 22.8803 15.0323 22.2494 15.0613C21.6184 15.0323 21.0015 15.2538 20.5332 15.6776C20.0649 16.1015 19.7832 16.6933 19.7494 17.324V18.2493C19.7495 18.2822 19.7432 18.3147 19.7308 18.3451C19.7183 18.3755 19.7 18.4032 19.6768 18.4265C19.6536 18.4498 19.6261 18.4683 19.5958 18.4809C19.5654 18.4935 19.5329 18.5 19.5 18.5H19.3307C18.608 18.5 17.9894 19.0133 17.856 19.7226L16.7307 25.7226C16.6899 25.9394 16.6974 26.1624 16.7527 26.3759C16.808 26.5894 16.9096 26.7881 17.0504 26.9578C17.1913 27.1275 17.3678 27.2641 17.5674 27.3578C17.767 27.4515 17.9848 27.5001 18.2054 27.5H26.3C26.5204 27.5 26.7381 27.4515 26.9376 27.3579C27.1371 27.2642 27.3135 27.1278 27.4543 26.9582C27.5951 26.7887 27.6968 26.5902 27.7522 26.3768C27.8076 26.1635 27.8152 25.9406 27.7747 25.724L26.6467 19.724V19.7226ZM22.252 16.5613C22.7947 16.5613 23.252 16.9106 23.252 17.324V18.2493C23.2522 18.2823 23.2458 18.315 23.2333 18.3454C23.2208 18.3759 23.2023 18.4036 23.179 18.427C23.1557 18.4503 23.128 18.4687 23.0975 18.4813C23.067 18.4938 23.0343 18.5002 23.0014 18.5H21.5C21.4671 18.5002 21.4344 18.4938 21.4039 18.4813C21.3734 18.4687 21.3457 18.4503 21.3224 18.427C21.2991 18.4036 21.2806 18.3759 21.2681 18.3454C21.2555 18.315 21.2492 18.2823 21.2494 18.2493V17.324C21.252 16.9106 21.7094 16.5613 22.252 16.5613Z" fill="currentColor"/>
</svg>
