<svg viewBox="0 0 24 23" fill="none" xmlns="http://www.w3.org/2000/svg">
<path d="M11.2573 20.4493L12.3827 14.4493C12.4806 13.9284 12.7148 13.4428 13.0615 13.0419C13.4081 12.6409 13.8548 12.3389 14.356 12.1667C14.4006 12.1509 14.4399 12.123 14.4694 12.0859C14.4989 12.0489 14.5173 12.0044 14.5227 11.9573C14.5788 11.4894 14.7299 11.0379 14.9667 10.6305C15.2036 10.2231 15.5212 9.86831 15.9 9.588C15.931 9.56468 15.9562 9.53447 15.9735 9.49977C15.9909 9.46506 15.9999 9.4268 16 9.388V8.07067C15.9881 7.64368 15.8077 7.23876 15.4981 6.94443C15.1885 6.65011 14.775 6.49032 14.348 6.5H13.748C13.7151 6.49982 13.6826 6.50614 13.6522 6.51859C13.6218 6.53105 13.5941 6.54939 13.5708 6.57256C13.5475 6.59573 13.5291 6.62327 13.5164 6.65361C13.5038 6.68395 13.4973 6.71648 13.4973 6.74933V8C13.4892 8.19344 13.4066 8.37625 13.2668 8.51024C13.1271 8.64423 12.9409 8.71904 12.7473 8.71904C12.5537 8.71904 12.3676 8.64423 12.2278 8.51024C12.0881 8.37625 12.0055 8.19344 11.9973 8V4C11.9973 2.93913 11.5759 1.92172 10.8258 1.17157C10.0756 0.421427 9.0582 0 7.99733 0C6.93647 0 5.91905 0.421427 5.16891 1.17157C4.41876 1.92172 3.99733 2.93913 3.99733 4V8C3.98918 8.19344 3.90659 8.37625 3.76683 8.51024C3.62707 8.64423 3.44095 8.71904 3.24733 8.71904C3.05372 8.71904 2.86759 8.64423 2.72784 8.51024C2.58808 8.37625 2.50549 8.19344 2.49733 8V6.74933C2.49733 6.68308 2.47111 6.61953 2.42439 6.57256C2.37767 6.52558 2.31425 6.49902 2.248 6.49867H1.648C1.22119 6.49007 0.80832 6.6507 0.499547 6.94548C0.190773 7.24027 0.0111845 7.64525 0 8.072V20.9293C0.0118675 21.357 0.192866 21.7626 0.503302 22.057C0.813739 22.3514 1.22827 22.5108 1.656 22.5H11.2053C11.2466 22.5003 11.2872 22.4904 11.3236 22.4712C11.3601 22.4519 11.3912 22.4239 11.4142 22.3897C11.4372 22.3555 11.4513 22.3161 11.4554 22.2751C11.4594 22.2341 11.4532 22.1927 11.4373 22.1547C11.2124 21.6164 11.1499 21.0241 11.2573 20.4507V20.4493ZM6 3.99867C6 3.46823 6.21071 2.95953 6.58579 2.58445C6.96086 2.20938 7.46957 1.99867 8 1.99867C8.53043 1.99867 9.03914 2.20938 9.41421 2.58445C9.78929 2.95953 10 3.46823 10 3.99867V6.24933C10 6.31581 9.97359 6.37957 9.92658 6.42658C9.87957 6.47359 9.81581 6.5 9.74933 6.5H6.252C6.18552 6.5 6.12176 6.47359 6.07475 6.42658C6.02774 6.37957 6.00133 6.31581 6.00133 6.24933V3.99867H6Z" fill="currentColor"/>
<path d="M22.6467 14.7226C22.5823 14.3786 22.3996 14.068 22.1303 13.8444C21.861 13.6209 21.522 13.4986 21.172 13.4986H21C20.9672 13.4988 20.9346 13.4925 20.9042 13.4801C20.8738 13.4676 20.8462 13.4493 20.8229 13.4261C20.7996 13.4029 20.7811 13.3754 20.7685 13.345C20.7559 13.3147 20.7494 13.2822 20.7494 13.2493V12.324C20.7155 11.6933 20.4338 11.1015 19.9655 10.6776C19.4972 10.2538 18.8803 10.0323 18.2494 10.0613C17.6184 10.0323 17.0015 10.2538 16.5332 10.6776C16.0649 11.1015 15.7832 11.6933 15.7494 12.324V13.2493C15.7495 13.2822 15.7432 13.3147 15.7308 13.3451C15.7183 13.3755 15.7 13.4032 15.6768 13.4265C15.6536 13.4498 15.6261 13.4683 15.5958 13.4809C15.5654 13.4935 15.5329 13.5 15.5 13.5H15.3307C14.608 13.5 13.9894 14.0133 13.856 14.7226L12.7307 20.7226C12.6899 20.9394 12.6974 21.1624 12.7527 21.3759C12.808 21.5894 12.9096 21.7881 13.0504 21.9578C13.1913 22.1275 13.3678 22.2641 13.5674 22.3578C13.767 22.4515 13.9848 22.5001 14.2054 22.5H22.3C22.5204 22.5 22.7381 22.4515 22.9376 22.3579C23.1371 22.2642 23.3135 22.1278 23.4543 21.9582C23.5951 21.7887 23.6968 21.5902 23.7522 21.3768C23.8076 21.1635 23.8152 20.9406 23.7747 20.724L22.6467 14.724V14.7226ZM18.252 11.5613C18.7947 11.5613 19.252 11.9106 19.252 12.324V13.2493C19.2522 13.2823 19.2458 13.315 19.2333 13.3454C19.2208 13.3759 19.2023 13.4036 19.179 13.427C19.1557 13.4503 19.128 13.4687 19.0975 13.4813C19.067 13.4938 19.0343 13.5002 19.0014 13.5H17.5C17.4671 13.5002 17.4344 13.4938 17.4039 13.4813C17.3734 13.4687 17.3457 13.4503 17.3224 13.427C17.2991 13.4036 17.2806 13.3759 17.2681 13.3454C17.2555 13.315 17.2492 13.2823 17.2494 13.2493V12.324C17.252 11.9106 17.7094 11.5613 18.252 11.5613Z" fill="currentColor"/>
</svg>
