<svg width="24" height="24" viewBox="0 0 24 24" fill="none" xmlns="http://www.w3.org/2000/svg">
<g clip-path="url(#clip0_4590_161830)">
<path d="M14.64 0.419647C14.27 0.639647 7.46002 6.70965 7.33002 6.93965C7.26002 7.05965 7.21002 7.30965 7.20002 7.50965C7.20002 7.83965 7.35002 8.04965 8.78002 9.65965L10.37 11.4496L8.41002 11.5096C7.33002 11.5396 6.44002 11.5696 6.42002 11.5796C6.41002 11.5896 6.31002 11.7496 6.20002 11.9196C5.93002 12.3696 5.94002 12.8196 6.24002 13.1696L6.48002 13.4496L11.82 13.4796C14.75 13.4896 17.25 13.4796 17.38 13.4496C17.84 13.3396 18.15 12.4696 17.9 11.9996C17.69 11.6096 17.41 11.5496 15.41 11.4996L13.47 11.4496L16.33 8.91965C17.91 7.51965 19.31 6.24965 19.45 6.07965C19.82 5.63965 19.79 5.10965 19.38 4.62965C18.59 3.70965 15.82 0.639647 15.67 0.519648C15.45 0.329647 14.88 0.279648 14.64 0.419647Z" fill="currentColor"/>
<path d="M3.52 8.76989C3.29 8.97989 2.84 9.96989 1.61 12.9199L0 16.7899V20.0499C0 22.0999 0.04 23.3799 0.1 23.5099C0.38 24.0199 -0.07 23.9999 12.05 23.9999C19.58 23.9999 23.38 23.9699 23.51 23.8999C23.97 23.6499 24 23.4199 24 19.8799V16.5499L22.39 12.7999C21.47 10.6299 20.69 8.94989 20.55 8.79989C20.34 8.59989 20.18 8.54989 19.6 8.51989C18.58 8.45989 18.23 8.54989 18 8.92989C17.55 9.64989 17.89 10.3799 18.72 10.4699L19.18 10.5199L20.33 13.2599L21.47 15.9999H11.99H2.5L2.59 15.7699C2.64 15.6499 3.16 14.4199 3.73 13.0499L4.79 10.5499L5.32 10.5199C5.92 10.4799 6.23 10.2699 6.4 9.74989C6.52 9.36989 6.43 9.03989 6.1 8.74989C5.92 8.57989 5.71 8.53989 4.85 8.51989C3.84 8.47989 3.82 8.48989 3.52 8.76989Z" fill="currentColor"/>
</g>
<defs>
<clipPath id="clip0_4590_161830">
<rect width="24" height="24" fill="white"/>
</clipPath>
</defs>
</svg>
