<svg viewBox="0 0 24 24" fill="none" xmlns="http://www.w3.org/2000/svg">
<path d="M9.69864 6.16801C9.62489 6.27684 9.59697 6.41034 9.62093 6.53961C9.64489 6.66887 9.71879 6.7835 9.82664 6.85868C10.1013 7.04934 10.3746 7.24668 10.648 7.45334C10.8253 7.58668 11.0706 7.58668 11.248 7.45334C13.8265 5.51649 16.8107 4.18945 19.976 3.57201C20.0217 3.56336 20.064 3.5421 20.0983 3.51063C20.1325 3.47917 20.1573 3.43875 20.1698 3.39396C20.1822 3.34916 20.182 3.30176 20.1689 3.25712C20.1559 3.21248 20.1306 3.17238 20.096 3.14134C17.8876 1.11724 14.9996 -0.0038566 12.004 9.96833e-06C11.904 9.96833e-06 11.812 9.9695e-06 11.716 0.00800997C11.5835 0.014567 11.4591 0.0734538 11.3701 0.171719C11.2811 0.269985 11.2348 0.399582 11.2413 0.53201C11.3534 2.52861 10.8127 4.50731 9.69864 6.16801ZM12.4573 8.71334C12.4518 8.78731 12.4628 8.86158 12.4896 8.93077C12.5163 8.99995 12.5581 9.06232 12.612 9.11334C13.1466 9.61734 13.656 10.148 14.1373 10.704C14.2121 10.7898 14.3139 10.8475 14.4259 10.8676C14.5379 10.8878 14.6534 10.8691 14.7533 10.8147C16.104 10.0629 17.6297 9.68201 19.1752 9.71058C20.7208 9.73915 22.2313 10.1762 23.5533 10.9773C23.5933 11.0001 23.6387 11.0114 23.6846 11.01C23.7306 11.0086 23.7753 10.9947 23.8138 10.9696C23.8523 10.9446 23.8833 10.9094 23.9032 10.868C23.9231 10.8265 23.9312 10.7804 23.9266 10.7347C23.7135 8.69733 22.9787 6.74933 21.7933 5.07868C21.7387 5.00318 21.6641 4.94444 21.5778 4.9091C21.4916 4.87376 21.3972 4.86323 21.3053 4.87868C18.1965 5.34702 15.2394 6.53251 12.668 8.34134C12.6075 8.38392 12.5573 8.43937 12.5209 8.50369C12.4844 8.56802 12.4627 8.63962 12.4573 8.71334ZM12.8026 12.2133C12.8994 12.1249 12.9575 12.0019 12.9645 11.871C12.9715 11.7401 12.9268 11.6116 12.84 11.5133C12.3645 10.9771 11.8616 10.4657 11.3333 9.98134C11.241 9.89636 11.1201 9.84918 10.9946 9.84918C10.8692 9.84918 10.7483 9.89636 10.656 9.98134C7.60383 12.9184 5.35854 16.5912 4.13597 20.6467C4.07731 20.8387 4.13864 21.0467 4.29064 21.1747C6.11637 22.7151 8.3628 23.6716 10.7386 23.92C10.7846 23.9253 10.8312 23.9177 10.8731 23.8981C10.915 23.8784 10.9507 23.8475 10.976 23.8087C11.0013 23.77 11.0154 23.7249 11.0165 23.6786C11.0177 23.6324 11.006 23.5867 10.9826 23.5467C9.90364 21.7455 9.4946 19.6214 9.82751 17.5484C10.1604 15.4753 11.2139 13.5861 12.8026 12.2133Z" fill="currentColor"/>
<path d="M14.416 13.54C14.3751 13.4798 14.3216 13.4292 14.2592 13.3918C14.1968 13.3544 14.127 13.3311 14.0546 13.3235C13.9822 13.3158 13.9091 13.3241 13.8402 13.3477C13.7714 13.3713 13.7085 13.4096 13.656 13.46C12.2446 14.7491 11.3765 16.5268 11.2279 18.4325C11.0794 20.3382 11.6614 22.2291 12.856 23.7213C12.9613 23.8653 13.136 23.9413 13.312 23.9213C14.7461 23.7691 16.1407 23.358 17.428 22.708C17.5211 22.6609 17.5972 22.5858 17.6455 22.4932C17.6938 22.4007 17.7119 22.2953 17.6973 22.192C17.2822 19.0939 16.1594 16.1343 14.416 13.54ZM1.09867 8.69999C2.97577 8.92333 4.86908 8.44359 6.41333 7.35332C6.48357 7.30419 6.54001 7.23783 6.57721 7.16061C6.61442 7.08339 6.63114 6.9979 6.62579 6.91235C6.62043 6.8268 6.59318 6.74407 6.54663 6.67209C6.50009 6.60011 6.43582 6.5413 6.36 6.50132C5.2029 5.89018 4.00231 5.36521 2.768 4.93065C2.66528 4.89501 2.55374 4.89381 2.45028 4.92726C2.34682 4.9607 2.25708 5.02696 2.19467 5.11599C1.55902 6.01489 1.05107 6.99757 0.685333 8.03599C0.660178 8.10681 0.651311 8.18239 0.659393 8.25711C0.667476 8.33183 0.692299 8.40377 0.732017 8.46758C0.771734 8.53138 0.825325 8.58541 0.888803 8.62565C0.952282 8.66588 1.02401 8.69129 1.09867 8.69999ZM4.19067 3.86932C5.41187 4.34603 6.59831 4.90739 7.74133 5.54932C7.85025 5.6105 7.97812 5.62869 8.09978 5.60031C8.22143 5.57193 8.32806 5.49904 8.39867 5.39599C9.31072 4.05287 9.77547 2.4561 9.72667 0.83332C9.72452 0.758553 9.70563 0.68522 9.67138 0.618724C9.63714 0.552228 9.58841 0.494262 9.52878 0.449098C9.46916 0.403933 9.40017 0.372721 9.32688 0.35776C9.2536 0.342799 9.17789 0.344471 9.10533 0.362653C7.22659 0.8288 5.48921 1.74439 4.04267 3.03065C3.97852 3.08733 3.92999 3.15952 3.90174 3.24032C3.87348 3.32112 3.86645 3.40782 3.8813 3.49212C3.89615 3.57642 3.9324 3.6555 3.98657 3.72178C4.04073 3.78805 4.11101 3.83798 4.19067 3.86932ZM23.728 12.8627C22.6358 11.981 21.3168 11.4259 19.9229 11.2613C18.5289 11.0966 17.1169 11.3291 15.8493 11.932C15.7836 11.9628 15.7254 12.0075 15.6787 12.063C15.632 12.1186 15.5979 12.1836 15.5789 12.2537C15.5599 12.3237 15.5563 12.397 15.5685 12.4686C15.5806 12.5401 15.6082 12.6082 15.6493 12.668C17.394 15.2407 18.5616 18.1603 19.072 21.2267C19.0794 21.2692 19.0977 21.3091 19.1251 21.3425C19.1525 21.3758 19.1881 21.4015 19.2284 21.417C19.2688 21.4324 19.3124 21.4371 19.3551 21.4307C19.3978 21.4242 19.4381 21.4067 19.472 21.38C20.7099 20.3968 21.7407 19.1781 22.5048 17.7942C23.269 16.4103 23.7513 14.8887 23.924 13.3173C23.9338 13.2312 23.9209 13.1439 23.8868 13.0642C23.8527 12.9845 23.7971 12.9151 23.728 12.8627ZM9.34133 9.07865C9.39493 9.0275 9.43649 8.96508 9.46301 8.89591C9.48953 8.82673 9.50034 8.75252 9.49467 8.67865C9.48986 8.60537 9.46897 8.53405 9.43348 8.46976C9.39799 8.40546 9.34878 8.34978 9.28933 8.30665L8.71867 7.90665C8.62722 7.84522 8.51804 7.8157 8.4081 7.82269C8.29815 7.82968 8.19359 7.87279 8.11067 7.94532C7.10787 8.83386 5.92196 9.49104 4.63694 9.8703C3.35192 10.2496 1.99922 10.3416 0.674667 10.14C0.608343 10.1306 0.540818 10.1345 0.475998 10.1514C0.411177 10.1682 0.350349 10.1978 0.297031 10.2384C0.243713 10.2789 0.198964 10.3296 0.165373 10.3876C0.131782 10.4455 0.110016 10.5096 0.101333 10.576C0.0372075 11.0498 0.00336105 11.5272 0 12.0053C0 14.6787 0.897333 17.2747 2.54667 19.3787C2.57465 19.4139 2.61157 19.4409 2.65359 19.4569C2.6956 19.4729 2.74115 19.4773 2.78545 19.4697C2.82976 19.4621 2.8712 19.4426 2.90543 19.4135C2.93966 19.3843 2.96541 19.3465 2.98 19.304C4.26376 15.4416 6.44311 11.9377 9.34 9.07865H9.34133Z" fill="currentColor"/>
</svg>
