<svg viewBox="0 0 32 32" fill="none" xmlns="http://www.w3.org/2000/svg">
    <path d="M13.6986 10.168C13.6249 10.2768 13.597 10.4103 13.6209 10.5396C13.6449 10.6689 13.7188 10.7835 13.8266 10.8587C14.1013 11.0493 14.3746 11.2467 14.648 11.4533C14.8253 11.5867 15.0706 11.5867 15.248 11.4533C17.8265 9.51649 20.8107 8.18945 23.976 7.57201C24.0217 7.56336 24.064 7.5421 24.0983 7.51063C24.1325 7.47917 24.1573 7.43875 24.1698 7.39396C24.1822 7.34916 24.182 7.30176 24.1689 7.25712C24.1559 7.21248 24.1306 7.17238 24.096 7.14134C21.8876 5.11724 18.9996 3.99614 16.004 4.00001C15.904 4.00001 15.812 4.00001 15.716 4.00801C15.5835 4.01457 15.4591 4.07345 15.3701 4.17172C15.2811 4.26998 15.2348 4.39958 15.2413 4.53201C15.3534 6.52861 14.8127 8.50731 13.6986 10.168ZM16.4573 12.7133C16.4518 12.7873 16.4628 12.8616 16.4896 12.9308C16.5163 13 16.5581 13.0623 16.612 13.1133C17.1466 13.6173 17.656 14.148 18.1373 14.704C18.2121 14.7898 18.3139 14.8475 18.4259 14.8676C18.5379 14.8878 18.6534 14.8691 18.7533 14.8147C20.104 14.0629 21.6297 13.682 23.1752 13.7106C24.7208 13.7391 26.2313 14.1762 27.5533 14.9773C27.5933 15.0001 27.6387 15.0114 27.6846 15.01C27.7306 15.0086 27.7753 14.9947 27.8138 14.9696C27.8523 14.9446 27.8833 14.9094 27.9032 14.868C27.9231 14.8265 27.9312 14.7804 27.9266 14.7347C27.7135 12.6973 26.9787 10.7493 25.7933 9.07868C25.7387 9.00318 25.6641 8.94444 25.5778 8.9091C25.4916 8.87376 25.3972 8.86323 25.3053 8.87868C22.1965 9.34702 19.2394 10.5325 16.668 12.3413C16.6075 12.3839 16.5573 12.4394 16.5209 12.5037C16.4844 12.568 16.4627 12.6396 16.4573 12.7133ZM16.8026 16.2133C16.8994 16.1249 16.9575 16.0019 16.9645 15.871C16.9715 15.7401 16.9268 15.6116 16.84 15.5133C16.3645 14.9771 15.8616 14.4657 15.3333 13.9813C15.241 13.8964 15.1201 13.8492 14.9946 13.8492C14.8692 13.8492 14.7483 13.8964 14.656 13.9813C11.6038 16.9184 9.35854 20.5912 8.13597 24.6467C8.07731 24.8387 8.13864 25.0467 8.29064 25.1747C10.1164 26.7151 12.3628 27.6716 14.7386 27.92C14.7846 27.9253 14.8312 27.9177 14.8731 27.8981C14.915 27.8784 14.9507 27.8475 14.976 27.8087C15.0013 27.77 15.0154 27.7249 15.0165 27.6786C15.0177 27.6324 15.006 27.5867 14.9826 27.5467C13.9036 25.7455 13.4946 23.6214 13.8275 21.5484C14.1604 19.4753 15.2139 17.5861 16.8026 16.2133Z" fill="currentColor"/>
    <path d="M18.416 17.54C18.3751 17.4798 18.3216 17.4292 18.2592 17.3918C18.1968 17.3544 18.127 17.3311 18.0546 17.3235C17.9822 17.3158 17.9091 17.3241 17.8402 17.3477C17.7714 17.3713 17.7085 17.4096 17.656 17.46C16.2446 18.7491 15.3765 20.5268 15.2279 22.4325C15.0794 24.3382 15.6614 26.2291 16.856 27.7213C16.9613 27.8653 17.136 27.9413 17.312 27.9213C18.7461 27.7691 20.1407 27.358 21.428 26.708C21.5211 26.6609 21.5972 26.5858 21.6455 26.4932C21.6938 26.4007 21.7119 26.2953 21.6973 26.192C21.2822 23.0939 20.1594 20.1343 18.416 17.54ZM5.09867 12.7C6.97577 12.9233 8.86908 12.4436 10.4133 11.3533C10.4836 11.3042 10.54 11.2378 10.5772 11.1606C10.6144 11.0834 10.6311 10.9979 10.6258 10.9124C10.6204 10.8268 10.5932 10.7441 10.5466 10.6721C10.5001 10.6001 10.4358 10.5413 10.36 10.5013C9.2029 9.89018 8.00231 9.36521 6.768 8.93065C6.66528 8.89501 6.55374 8.89381 6.45028 8.92726C6.34682 8.9607 6.25708 9.02696 6.19467 9.11599C5.55902 10.0149 5.05107 10.9976 4.68533 12.036C4.66018 12.1068 4.65131 12.1824 4.65939 12.2571C4.66748 12.3318 4.6923 12.4038 4.73202 12.4676C4.77173 12.5314 4.82533 12.5854 4.8888 12.6256C4.95228 12.6659 5.02401 12.6913 5.09867 12.7ZM8.19067 7.86932C9.41187 8.34603 10.5983 8.90739 11.7413 9.54932C11.8502 9.6105 11.9781 9.62869 12.0998 9.60031C12.2214 9.57193 12.3281 9.49904 12.3987 9.39599C13.3107 8.05287 13.7755 6.4561 13.7267 4.83332C13.7245 4.75855 13.7056 4.68522 13.6714 4.61872C13.6371 4.55223 13.5884 4.49426 13.5288 4.4491C13.4692 4.40393 13.4002 4.37272 13.3269 4.35776C13.2536 4.3428 13.1779 4.34447 13.1053 4.36265C11.2266 4.8288 9.48921 5.74439 8.04267 7.03065C7.97852 7.08733 7.92999 7.15952 7.90174 7.24032C7.87348 7.32112 7.86645 7.40782 7.8813 7.49212C7.89615 7.57642 7.9324 7.6555 7.98657 7.72178C8.04073 7.78805 8.11101 7.83798 8.19067 7.86932ZM27.728 16.8627C26.6358 15.981 25.3168 15.4259 23.9229 15.2613C22.5289 15.0966 21.1169 15.3291 19.8493 15.932C19.7836 15.9628 19.7254 16.0075 19.6787 16.063C19.632 16.1186 19.5979 16.1836 19.5789 16.2537C19.5599 16.3237 19.5563 16.397 19.5685 16.4686C19.5806 16.5401 19.6082 16.6082 19.6493 16.668C21.394 19.2407 22.5616 22.1603 23.072 25.2267C23.0794 25.2692 23.0977 25.3091 23.1251 25.3425C23.1525 25.3758 23.1881 25.4015 23.2284 25.417C23.2688 25.4324 23.3124 25.4371 23.3551 25.4307C23.3978 25.4242 23.4381 25.4067 23.472 25.38C24.7099 24.3968 25.7407 23.1781 26.5048 21.7942C27.269 20.4103 27.7513 18.8887 27.924 17.3173C27.9338 17.2312 27.9209 17.1439 27.8868 17.0642C27.8527 16.9845 27.7971 16.9151 27.728 16.8627ZM13.3413 13.0787C13.3949 13.0275 13.4365 12.9651 13.463 12.8959C13.4895 12.8267 13.5003 12.7525 13.4947 12.6787C13.4899 12.6054 13.469 12.534 13.4335 12.4698C13.398 12.4055 13.3488 12.3498 13.2893 12.3067L12.7187 11.9067C12.6272 11.8452 12.518 11.8157 12.4081 11.8227C12.2982 11.8297 12.1936 11.8728 12.1107 11.9453C11.1079 12.8339 9.92196 13.491 8.63694 13.8703C7.35192 14.2496 5.99922 14.3416 4.67467 14.14C4.60834 14.1306 4.54082 14.1345 4.476 14.1514C4.41118 14.1682 4.35035 14.1978 4.29703 14.2384C4.24371 14.2789 4.19896 14.3296 4.16537 14.3876C4.13178 14.4455 4.11002 14.5096 4.10133 14.576C4.03721 15.0498 4.00336 15.5272 4 16.0053C4 18.6787 4.89733 21.2747 6.54667 23.3787C6.57465 23.4139 6.61157 23.4409 6.65359 23.4569C6.6956 23.4729 6.74115 23.4773 6.78545 23.4697C6.82976 23.4621 6.8712 23.4426 6.90543 23.4135C6.93966 23.3843 6.96541 23.3465 6.98 23.304C8.26376 19.4416 10.4431 15.9377 13.34 13.0787H13.3413Z" fill="currentColor"/>
</svg>
