<svg viewBox="0 0 32 32" fill="none" xmlns="http://www.w3.org/2000/svg">
    <path d="M15.868 22.9333C15.9363 22.873 15.9868 22.7952 16.014 22.7082C16.0413 22.6213 16.0443 22.5285 16.0227 22.44C15.8978 21.9479 15.868 21.4366 15.9347 20.9333C16.11 19.7834 16.7212 18.745 17.6413 18.0333C17.7541 17.9391 17.8446 17.8212 17.9066 17.688C17.9686 17.5548 18.0005 17.4096 18 17.2627V9.5C18 8.11867 16.88 7 15.5 7H14.5C14.3674 7 14.2402 6.94732 14.1464 6.85355C14.0527 6.75979 14 6.63261 14 6.5V5.5C14 5.10218 13.842 4.72064 13.5607 4.43934C13.2794 4.15804 12.8978 4 12.5 4H9.5C8.672 4 8 4.672 8 5.5V6.5C8 6.63261 7.94732 6.75979 7.85355 6.85355C7.75979 6.94732 7.63261 7 7.5 7H6.5C5.11867 7 4 8.12 4 9.5V25.5C4 26.163 4.26339 26.7989 4.73223 27.2678C5.20107 27.7366 5.83696 28 6.5 28H12.3067C12.3567 28.0003 12.4063 27.9896 12.4518 27.9688C12.4973 27.9479 12.5378 27.9174 12.5703 27.8793C12.6028 27.8412 12.6266 27.7965 12.64 27.7482C12.6534 27.7 12.6562 27.6494 12.648 27.6C12.6015 27.3077 12.6134 27.0091 12.6829 26.7214C12.7525 26.4338 12.8784 26.1627 13.0533 25.924C13.8893 24.836 14.8318 23.8342 15.8667 22.9333H15.868ZM10.8947 21.108C10.8306 21.1903 10.7425 21.2505 10.6425 21.2803C10.5426 21.31 10.4358 21.3077 10.3372 21.2738C10.2386 21.2398 10.1531 21.1759 10.0927 21.091C10.0322 21.006 9.99979 20.9043 10 20.8V18.2507C10.0002 18.1849 9.98737 18.1197 9.96232 18.0589C9.93727 17.9981 9.90047 17.9428 9.85403 17.8963C9.80758 17.8497 9.7524 17.8127 9.69165 17.7875C9.6309 17.7623 9.56577 17.7493 9.5 17.7493H8C7.90645 17.7493 7.81479 17.723 7.73544 17.6735C7.65609 17.6239 7.59223 17.5531 7.55112 17.4691C7.51001 17.385 7.49329 17.2912 7.50288 17.1981C7.51246 17.1051 7.54796 17.0166 7.60533 16.9427L11.1067 12.44C11.1708 12.3582 11.2589 12.2985 11.3586 12.2691C11.4583 12.2397 11.5647 12.2421 11.663 12.276C11.7612 12.3099 11.8465 12.3735 11.9069 12.4581C11.9673 12.5427 11.9999 12.6441 12 12.748V15.248C12 15.5253 12.224 15.7493 12.5 15.7493H14.06C14.1535 15.7494 14.2452 15.7757 14.3246 15.8252C14.4039 15.8748 14.4678 15.9456 14.5089 16.0296C14.55 16.1136 14.5667 16.2075 14.5571 16.3006C14.5475 16.3936 14.512 16.4821 14.4547 16.556L10.8947 21.1067V21.108ZM27.96 18.0707C27.9504 17.9966 27.9243 17.9256 27.8837 17.863C27.8431 17.8003 27.789 17.7475 27.7253 17.7085C27.6616 17.6695 27.59 17.6452 27.5157 17.6375C27.4414 17.6298 27.3663 17.6389 27.296 17.664C26.087 18.0283 24.8143 18.1306 23.5627 17.964C22.2348 17.7355 20.8688 17.9155 19.6453 18.48C19.0911 18.7144 18.6005 19.077 18.2139 19.5381C17.8272 19.9992 17.5556 20.5454 17.4213 21.132C17.3563 21.7068 17.4709 22.2876 17.7493 22.7947C17.8021 22.8961 17.8183 23.0126 17.7952 23.1245C17.7721 23.2365 17.7112 23.337 17.6227 23.4093C16.3745 24.4076 15.2477 25.5487 14.2653 26.8093C14.1574 26.9704 14.116 27.167 14.1498 27.358C14.1836 27.5489 14.29 27.7193 14.4467 27.8336C14.6033 27.9478 14.7981 27.997 14.9902 27.9709C15.1823 27.9448 15.3569 27.8453 15.4773 27.6933C17.4336 25.3302 19.8202 23.3594 22.5107 21.8853C22.5972 21.8322 22.6936 21.7971 22.7941 21.7823C22.8945 21.7675 22.997 21.7732 23.0951 21.7992C23.1933 21.8251 23.2852 21.8706 23.3653 21.9331C23.4454 21.9956 23.5119 22.0736 23.561 22.1626C23.61 22.2515 23.6405 22.3495 23.6505 22.4505C23.6606 22.5515 23.6501 22.6536 23.6196 22.7505C23.5891 22.8473 23.5392 22.937 23.4731 23.014C23.4069 23.0911 23.3258 23.1539 23.2347 23.1987C21.9547 23.9053 20.7453 24.732 19.62 25.6653C19.5677 25.7086 19.5247 25.7621 19.4937 25.8225C19.4627 25.8829 19.4443 25.949 19.4397 26.0167C19.4351 26.0845 19.4443 26.1525 19.4668 26.2165C19.4894 26.2806 19.5247 26.3394 19.5707 26.3893C19.7395 26.574 19.9377 26.7294 20.1573 26.8493C20.508 27.036 20.8987 27.1373 21.2973 27.1427C22.259 27.1226 23.1979 26.8465 24.0173 26.3427C26.0547 25.2107 28.332 21 27.96 18.0707Z" fill="currentColor"/>
</svg>
