<svg viewBox="0 0 24 24" fill="none" xmlns="http://www.w3.org/2000/svg">
<path d="M11.868 18.9333C11.9363 18.873 11.9868 18.7952 12.014 18.7082C12.0413 18.6213 12.0443 18.5285 12.0227 18.44C11.8978 17.9479 11.868 17.4366 11.9347 16.9333C12.11 15.7834 12.7212 14.745 13.6413 14.0333C13.7541 13.9391 13.8446 13.8212 13.9066 13.688C13.9686 13.5548 14.0005 13.4096 14 13.2627V5.5C14 4.11867 12.88 3 11.5 3H10.5C10.3674 3 10.2402 2.94732 10.1464 2.85355C10.0527 2.75979 10 2.63261 10 2.5V1.5C10 1.10218 9.84196 0.720644 9.56066 0.43934C9.27936 0.158035 8.89783 0 8.5 0L5.5 0C4.672 0 4 0.672 4 1.5V2.5C4 2.63261 3.94732 2.75979 3.85355 2.85355C3.75979 2.94732 3.63261 3 3.5 3H2.5C1.11867 3 0 4.12 0 5.5V21.5C0 22.163 0.263392 22.7989 0.732233 23.2678C1.20107 23.7366 1.83696 24 2.5 24H8.30667C8.35674 24.0003 8.40627 23.9896 8.4518 23.9688C8.49733 23.9479 8.53776 23.9174 8.57027 23.8793C8.60277 23.8412 8.62657 23.7965 8.63999 23.7482C8.65342 23.7 8.65615 23.6494 8.648 23.6C8.60149 23.3077 8.61336 23.0091 8.68294 22.7214C8.75251 22.4338 8.8784 22.1627 9.05333 21.924C9.88934 20.836 10.8318 19.8342 11.8667 18.9333H11.868ZM6.89467 17.108C6.83064 17.1903 6.74249 17.2505 6.64254 17.2803C6.54259 17.31 6.43584 17.3077 6.33724 17.2738C6.23864 17.2398 6.15312 17.1759 6.09265 17.091C6.03218 17.006 5.99979 16.9043 6 16.8V14.2507C6.00018 14.1849 5.98737 14.1197 5.96232 14.0589C5.93727 13.9981 5.90047 13.9428 5.85403 13.8963C5.80758 13.8497 5.7524 13.8127 5.69165 13.7875C5.6309 13.7623 5.56577 13.7493 5.5 13.7493H4C3.90645 13.7493 3.81479 13.723 3.73544 13.6735C3.65609 13.6239 3.59223 13.5531 3.55112 13.4691C3.51001 13.385 3.49329 13.2912 3.50288 13.1981C3.51246 13.1051 3.54796 13.0166 3.60533 12.9427L7.10667 8.44C7.17084 8.35823 7.25891 8.29849 7.35861 8.2691C7.45832 8.2397 7.5647 8.24211 7.66297 8.276C7.76124 8.30988 7.84651 8.37354 7.90692 8.45814C7.96732 8.54273 7.99986 8.64405 8 8.748V11.248C8 11.5253 8.224 11.7493 8.5 11.7493H10.06C10.1535 11.7494 10.2452 11.7757 10.3246 11.8252C10.4039 11.8748 10.4678 11.9456 10.5089 12.0296C10.55 12.1136 10.5667 12.2075 10.5571 12.3006C10.5475 12.3936 10.512 12.4821 10.4547 12.556L6.89467 17.1067V17.108ZM23.96 14.0707C23.9504 13.9966 23.9243 13.9256 23.8837 13.863C23.8431 13.8003 23.789 13.7475 23.7253 13.7085C23.6616 13.6695 23.59 13.6452 23.5157 13.6375C23.4414 13.6298 23.3663 13.6389 23.296 13.664C22.087 14.0283 20.8143 14.1306 19.5627 13.964C18.2348 13.7355 16.8688 13.9155 15.6453 14.48C15.0911 14.7144 14.6005 15.077 14.2139 15.5381C13.8272 15.9992 13.5556 16.5454 13.4213 17.132C13.3563 17.7068 13.4709 18.2876 13.7493 18.7947C13.8021 18.8961 13.8183 19.0126 13.7952 19.1245C13.7721 19.2365 13.7112 19.337 13.6227 19.4093C12.3745 20.4076 11.2477 21.5487 10.2653 22.8093C10.1574 22.9704 10.116 23.167 10.1498 23.358C10.1836 23.5489 10.29 23.7193 10.4467 23.8336C10.6033 23.9478 10.7981 23.997 10.9902 23.9709C11.1823 23.9448 11.3569 23.8453 11.4773 23.6933C13.4336 21.3302 15.8202 19.3594 18.5107 17.8853C18.5972 17.8322 18.6936 17.7971 18.7941 17.7823C18.8945 17.7675 18.997 17.7732 19.0951 17.7992C19.1933 17.8251 19.2852 17.8706 19.3653 17.9331C19.4454 17.9956 19.5119 18.0736 19.561 18.1626C19.61 18.2515 19.6405 18.3495 19.6505 18.4505C19.6606 18.5515 19.6501 18.6536 19.6196 18.7505C19.5891 18.8473 19.5392 18.937 19.4731 19.014C19.4069 19.0911 19.3258 19.1539 19.2347 19.1987C17.9547 19.9053 16.7453 20.732 15.62 21.6653C15.5677 21.7086 15.5247 21.7621 15.4937 21.8225C15.4627 21.8829 15.4443 21.949 15.4397 22.0167C15.4351 22.0845 15.4443 22.1525 15.4668 22.2165C15.4894 22.2806 15.5247 22.3394 15.5707 22.3893C15.7395 22.574 15.9377 22.7294 16.1573 22.8493C16.508 23.036 16.8987 23.1373 17.2973 23.1427C18.259 23.1226 19.1979 22.8465 20.0173 22.3427C22.0547 21.2107 24.332 17 23.96 14.0707Z" fill="currentColor"/>
</svg>
