<svg viewBox="0 0 24 24" fill="none" xmlns="http://www.w3.org/2000/svg">
<path d="M23.7747 15.2392L22.7013 13.3112C22.5616 13.1249 22.3804 12.9737 22.1722 12.8695C21.9639 12.7654 21.7342 12.7112 21.5013 12.7112H21.2507C21.1181 12.7112 20.9909 12.6585 20.8971 12.5647C20.8033 12.471 20.7507 12.3438 20.7507 12.2112V11.2112C20.7507 10.9352 20.9747 10.7112 21.2507 10.7112H21.5013C21.6985 10.7112 21.8938 10.6723 22.076 10.5967C22.2581 10.5212 22.4236 10.4105 22.5629 10.2709C22.7023 10.1313 22.8127 9.96564 22.8879 9.78335C22.9631 9.60105 23.0017 9.40571 23.0013 9.2085V3.70984C23.0013 2.88317 22.3293 2.21117 21.5013 2.21117H20.7507C20.6181 2.21117 20.4909 2.15849 20.3971 2.06472C20.3033 1.97096 20.2507 1.84378 20.2507 1.71117V1.20984C20.2401 0.885382 20.1037 0.57776 19.8705 0.351992C19.6372 0.126224 19.3253 0 19.0007 0C18.676 0 18.3641 0.126224 18.1309 0.351992C17.8976 0.57776 17.7613 0.885382 17.7507 1.20984V1.70984C17.7507 1.84244 17.698 1.96962 17.6042 2.06339C17.5105 2.15716 17.3833 2.20984 17.2507 2.20984H6.75067C6.61806 2.20984 6.49088 2.15716 6.39712 2.06339C6.30335 1.96962 6.25067 1.84244 6.25067 1.70984V1.20984C6.24007 0.885382 6.10373 0.57776 5.87047 0.351992C5.63721 0.126224 5.3253 0 5.00067 0C4.67604 0 4.36413 0.126224 4.13087 0.351992C3.89761 0.57776 3.76127 0.885382 3.75067 1.20984V1.70984C3.75067 1.84244 3.69799 1.96962 3.60422 2.06339C3.51045 2.15716 3.38328 2.20984 3.25067 2.20984H2.50134C1.67334 2.20984 1.00134 2.87917 1.00134 3.70984V9.2085C1.00134 10.0378 1.67334 10.7085 2.50134 10.7085H2.75067C3.028 10.7085 3.25067 10.9325 3.25067 11.2098V12.2098C3.25032 12.3422 3.19748 12.469 3.10375 12.5625C3.01002 12.656 2.88305 12.7085 2.75067 12.7085H2.50134C2.25748 12.7115 2.01788 12.7728 1.80261 12.8874C1.58733 13.002 1.40264 13.1665 1.264 13.3672L0.250669 15.2098C0.111125 15.3955 0.0260891 15.6163 0.00510887 15.8476C-0.0158714 16.0789 0.0280341 16.3115 0.131896 16.5192C0.235758 16.7269 0.395466 16.9016 0.593088 17.0236C0.790711 17.1456 1.01843 17.2101 1.25067 17.2098H2.268C2.348 17.2098 2.42134 17.2458 2.468 17.3085C2.49177 17.3385 2.50833 17.3736 2.51642 17.4111C2.52451 17.4485 2.52391 17.4873 2.51467 17.5245L1.28934 22.4058C1.21888 22.7238 1.27527 23.0568 1.44651 23.3339C1.61775 23.611 1.89033 23.8103 2.20628 23.8895C2.52222 23.9687 2.8566 23.9215 3.1383 23.758C3.41999 23.5945 3.62678 23.3275 3.71467 23.0138L5.07067 17.5872C5.09774 17.479 5.16021 17.3829 5.24815 17.3143C5.3361 17.2457 5.44446 17.2084 5.556 17.2085H18.4493C18.6787 17.2085 18.8787 17.3658 18.9333 17.5885L20.2893 23.0138C20.3703 23.3345 20.5749 23.6101 20.8585 23.7803C21.1421 23.9505 21.4816 24.0014 21.8027 23.9218C22.1242 23.8412 22.4006 23.6363 22.5711 23.352C22.7416 23.0678 22.7923 22.7274 22.712 22.4058L21.4907 17.5205C21.4812 17.4834 21.4804 17.4447 21.4883 17.4072C21.4961 17.3698 21.5125 17.3347 21.536 17.3045C21.5592 17.2733 21.5894 17.2481 21.6241 17.2307C21.6588 17.2133 21.6972 17.2043 21.736 17.2045H22.752C23.0824 17.2038 23.3992 17.0725 23.6332 16.8392C23.8673 16.6059 23.9996 16.2896 24.0013 15.9592C24.0007 15.7017 23.9216 15.4506 23.7747 15.2392ZM5.75067 11.2098C5.75067 10.9338 5.97467 10.7112 6.25067 10.7112H17.7507C18.028 10.7112 18.2507 10.9338 18.2507 11.2098V12.2098C18.2508 12.2756 18.238 12.3408 18.213 12.4016C18.1879 12.4624 18.1511 12.5177 18.1047 12.5643C18.0582 12.6108 18.0031 12.6478 17.9423 12.673C17.8816 12.6982 17.8164 12.7112 17.7507 12.7112H6.25067C6.1849 12.7112 6.11977 12.6982 6.05902 12.673C5.99827 12.6478 5.94309 12.6108 5.89664 12.5643C5.8502 12.5177 5.81339 12.4624 5.78835 12.4016C5.7633 12.3408 5.75049 12.2756 5.75067 12.2098V11.2098Z" fill="currentColor"/>
</svg>
