<svg viewBox="0 0 32 32" fill="none" xmlns="http://www.w3.org/2000/svg">
    <path d="M27.7747 19.2392L26.7013 17.3112C26.5616 17.1249 26.3804 16.9737 26.1722 16.8695C25.9639 16.7654 25.7342 16.7112 25.5013 16.7112H25.2507C25.1181 16.7112 24.9909 16.6585 24.8971 16.5647C24.8033 16.471 24.7507 16.3438 24.7507 16.2112V15.2112C24.7507 14.9352 24.9747 14.7112 25.2507 14.7112H25.5013C25.6985 14.7112 25.8938 14.6723 26.076 14.5967C26.2581 14.5212 26.4236 14.4105 26.5629 14.2709C26.7023 14.1313 26.8127 13.9656 26.8879 13.7833C26.9631 13.6011 27.0017 13.4057 27.0013 13.2085V7.70984C27.0013 6.88317 26.3293 6.21117 25.5013 6.21117H24.7507C24.6181 6.21117 24.4909 6.15849 24.3971 6.06472C24.3033 5.97096 24.2507 5.84378 24.2507 5.71117V5.20984C24.2401 4.88538 24.1037 4.57776 23.8705 4.35199C23.6372 4.12622 23.3253 4 23.0007 4C22.676 4 22.3641 4.12622 22.1309 4.35199C21.8976 4.57776 21.7613 4.88538 21.7507 5.20984V5.70984C21.7507 5.84244 21.698 5.96962 21.6042 6.06339C21.5105 6.15716 21.3833 6.20984 21.2507 6.20984H10.7507C10.6181 6.20984 10.4909 6.15716 10.3971 6.06339C10.3033 5.96962 10.2507 5.84244 10.2507 5.70984V5.20984C10.2401 4.88538 10.1037 4.57776 9.87047 4.35199C9.63721 4.12622 9.3253 4 9.00067 4C8.67604 4 8.36413 4.12622 8.13087 4.35199C7.89761 4.57776 7.76127 4.88538 7.75067 5.20984V5.70984C7.75067 5.84244 7.69799 5.96962 7.60422 6.06339C7.51045 6.15716 7.38328 6.20984 7.25067 6.20984H6.50134C5.67334 6.20984 5.00134 6.87917 5.00134 7.70984V13.2085C5.00134 14.0378 5.67334 14.7085 6.50134 14.7085H6.75067C7.028 14.7085 7.25067 14.9325 7.25067 15.2098V16.2098C7.25032 16.3422 7.19748 16.469 7.10375 16.5625C7.01002 16.656 6.88305 16.7085 6.75067 16.7085H6.50134C6.25748 16.7115 6.01788 16.7728 5.80261 16.8874C5.58733 17.002 5.40264 17.1665 5.264 17.3672L4.25067 19.2098C4.11112 19.3955 4.02609 19.6163 4.00511 19.8476C3.98413 20.0789 4.02803 20.3115 4.1319 20.5192C4.23576 20.7269 4.39547 20.9016 4.59309 21.0236C4.79071 21.1456 5.01843 21.2101 5.25067 21.2098H6.268C6.348 21.2098 6.42134 21.2458 6.468 21.3085C6.49177 21.3385 6.50833 21.3736 6.51642 21.4111C6.52451 21.4485 6.52391 21.4873 6.51467 21.5245L5.28934 26.4058C5.21888 26.7238 5.27527 27.0568 5.44651 27.3339C5.61775 27.611 5.89033 27.8103 6.20628 27.8895C6.52222 27.9687 6.8566 27.9215 7.1383 27.758C7.41999 27.5945 7.62678 27.3275 7.71467 27.0138L9.07067 21.5872C9.09774 21.479 9.16021 21.3829 9.24815 21.3143C9.3361 21.2457 9.44446 21.2084 9.556 21.2085H22.4493C22.6787 21.2085 22.8787 21.3658 22.9333 21.5885L24.2893 27.0138C24.3703 27.3345 24.5749 27.6101 24.8585 27.7803C25.1421 27.9505 25.4816 28.0014 25.8027 27.9218C26.1242 27.8412 26.4006 27.6363 26.5711 27.352C26.7416 27.0678 26.7923 26.7274 26.712 26.4058L25.4907 21.5205C25.4812 21.4834 25.4804 21.4447 25.4883 21.4072C25.4961 21.3698 25.5125 21.3347 25.536 21.3045C25.5592 21.2733 25.5894 21.2481 25.6241 21.2307C25.6588 21.2133 25.6972 21.2043 25.736 21.2045H26.752C27.0824 21.2038 27.3992 21.0725 27.6332 20.8392C27.8673 20.6059 27.9996 20.2896 28.0013 19.9592C28.0007 19.7017 27.9216 19.4506 27.7747 19.2392ZM9.75067 15.2098C9.75067 14.9338 9.97467 14.7112 10.2507 14.7112H21.7507C22.028 14.7112 22.2507 14.9338 22.2507 15.2098V16.2098C22.2508 16.2756 22.238 16.3408 22.213 16.4016C22.1879 16.4624 22.1511 16.5177 22.1047 16.5643C22.0582 16.6108 22.0031 16.6478 21.9423 16.673C21.8816 16.6982 21.8164 16.7112 21.7507 16.7112H10.2507C10.1849 16.7112 10.1198 16.6982 10.059 16.673C9.99827 16.6478 9.94309 16.6108 9.89664 16.5643C9.8502 16.5177 9.81339 16.4624 9.78835 16.4016C9.7633 16.3408 9.75049 16.2756 9.75067 16.2098V15.2098Z" fill="currentColor"/>
</svg>
