<svg viewBox="0 0 32 32" fill="none" xmlns="http://www.w3.org/2000/svg">
    <path fill-rule="evenodd" clip-rule="evenodd" d="M23.028 7.80198C23.1132 8.08523 23.0835 8.39065 22.9453 8.65215C22.807 8.91366 22.5714 9.11022 22.2893 9.19931L20.0987 9.86198C20.0479 9.87708 20.0009 9.90269 19.9607 9.93715C19.9205 9.97161 19.888 10.0141 19.8653 10.062C19.8441 10.1108 19.8332 10.1634 19.8332 10.2166C19.8332 10.2699 19.8441 10.3225 19.8653 10.3713L22.1747 15.726C22.2069 15.8012 22.263 15.8638 22.3344 15.904C22.4057 15.9443 22.4882 15.9599 22.5693 15.9486C22.752 15.9246 22.9387 15.9113 23.124 15.91C24.417 15.91 25.6571 16.4236 26.5714 17.3379C27.4857 18.2522 27.9993 19.4923 27.9993 20.7853C27.9993 22.0783 27.4857 23.3184 26.5714 24.2327C25.6571 25.147 24.417 25.6606 23.124 25.6606C22.1232 25.6641 21.1458 25.3585 20.3253 24.7855C19.5048 24.2126 18.8812 23.4002 18.5398 22.4595C18.1984 21.5187 18.1558 20.4955 18.4179 19.5297C18.68 18.5638 19.2339 17.7025 20.004 17.0633C20.0658 17.0114 20.1092 16.9409 20.1277 16.8623C20.1462 16.7838 20.1388 16.7013 20.1067 16.6273L19.2573 14.654C19.2225 14.5715 19.1591 14.5043 19.0788 14.4647C18.9985 14.425 18.9067 14.4156 18.82 14.438L12.6987 15.998C12.6469 16.0113 12.5985 16.0356 12.5569 16.0692C12.5153 16.1028 12.4813 16.1449 12.4573 16.1926L12.1347 16.8286C12.0984 16.9004 12.0863 16.982 12.1 17.0612C12.1136 17.1404 12.1525 17.2132 12.2107 17.2686C12.6939 17.7183 13.0798 18.2624 13.3445 18.8671C13.6091 19.4719 13.7469 20.1245 13.7493 20.7846C13.7493 21.7486 13.4635 22.691 12.928 23.4926C12.3925 24.2942 11.6313 24.919 10.7407 25.288C9.85017 25.657 8.87017 25.7537 7.92465 25.5658C6.97913 25.378 6.11054 24.914 5.4287 24.2325C4.74686 23.551 4.28238 22.6827 4.09399 21.7373C3.9056 20.7919 4.00176 19.8118 4.3703 18.921C4.73884 18.0303 5.36323 17.2688 6.16451 16.7328C6.96579 16.1968 7.908 15.9105 8.872 15.91C9.16078 15.9114 9.44875 15.9404 9.732 15.9966C9.81183 16.0122 9.89455 16.0014 9.96767 15.9658C10.0408 15.9302 10.1003 15.8717 10.1373 15.7993L10.4373 15.1993C10.462 15.1499 10.4758 15.0957 10.4776 15.0405C10.4795 14.9853 10.4694 14.9303 10.448 14.8793L9.35867 12.386C9.32989 12.3186 9.28193 12.2612 9.22076 12.2209C9.1596 12.1806 9.08792 12.1592 9.01467 12.1593H8.12134C7.97038 12.1645 7.81993 12.1393 7.67894 12.0851C7.53795 12.0309 7.40931 11.9489 7.30069 11.844C7.19206 11.739 7.10568 11.6133 7.04668 11.4742C6.98768 11.3352 6.95727 11.1857 6.95727 11.0346C6.95727 10.8836 6.98768 10.7341 7.04668 10.5951C7.10568 10.456 7.19206 10.3303 7.30069 10.2253C7.40931 10.1204 7.53795 10.0384 7.67894 9.9842C7.81993 9.93002 7.97038 9.90478 8.12134 9.90998H12.6253C12.7731 9.90998 12.9195 9.93909 13.056 9.99564C13.1925 10.0522 13.3166 10.1351 13.4211 10.2396C13.5256 10.3441 13.6085 10.4681 13.665 10.6047C13.7216 10.7412 13.7507 10.8875 13.7507 11.0353C13.7507 11.1831 13.7216 11.3294 13.665 11.466C13.6085 11.6025 13.5256 11.7265 13.4211 11.831C13.3166 11.9355 13.1925 12.0184 13.056 12.075C12.9195 12.1315 12.7731 12.1606 12.6253 12.1606H12.292C12.2299 12.1608 12.1689 12.1764 12.1143 12.206C12.0597 12.2356 12.0134 12.2783 11.9794 12.3303C11.9454 12.3822 11.9249 12.4418 11.9196 12.5037C11.9144 12.5655 11.9246 12.6277 11.9493 12.6846L12.2867 13.458C12.3222 13.5395 12.3856 13.6057 12.4655 13.6448C12.5453 13.6839 12.6365 13.6933 12.7227 13.6713L17.7987 12.3766C17.8511 12.363 17.8999 12.3382 17.9418 12.3039C17.9837 12.2696 18.0176 12.2267 18.0413 12.178C18.064 12.1286 18.0757 12.075 18.0757 12.0206C18.0757 11.9663 18.064 11.9127 18.0413 11.8633L17.7987 11.2606C17.6527 10.921 17.5801 10.5544 17.5855 10.1848C17.5909 9.8152 17.6742 9.45088 17.83 9.11566C17.9858 8.78043 18.2105 8.48184 18.4896 8.2394C18.7686 7.99695 19.0956 7.81609 19.4493 7.70865L21.6387 7.04331C21.9229 6.96208 22.2278 6.99598 22.4873 7.1377C22.7467 7.27942 22.94 7.51756 23.0253 7.80065L23.028 7.80198ZM23.124 18.1606C22.7743 18.1528 22.4266 18.2148 22.1013 18.3432C21.776 18.4715 21.4796 18.6636 21.2295 18.9081C20.9794 19.1526 20.7807 19.4446 20.6451 19.767C20.5094 20.0894 20.4395 20.4356 20.4395 20.7853C20.4395 21.1351 20.5094 21.4813 20.6451 21.8036C20.7807 22.126 20.9794 22.418 21.2295 22.6625C21.4796 22.907 21.776 23.0991 22.1013 23.2274C22.4266 23.3558 22.7743 23.4179 23.124 23.41C23.8203 23.41 24.488 23.1334 24.9804 22.641C25.4727 22.1487 25.7493 21.4809 25.7493 20.7846C25.7493 20.0884 25.4727 19.4206 24.9804 18.9283C24.488 18.4359 23.8203 18.1606 23.124 18.1606ZM8.87334 18.1606C8.52368 18.1528 8.17598 18.2148 7.85064 18.3432C7.52531 18.4715 7.2289 18.6636 6.97882 18.9081C6.72874 19.1526 6.53004 19.4446 6.39438 19.767C6.25872 20.0894 6.18884 20.4356 6.18884 20.7853C6.18884 21.1351 6.25872 21.4813 6.39438 21.8036C6.53004 22.126 6.72874 22.418 6.97882 22.6625C7.2289 22.907 7.52531 23.0991 7.85064 23.2274C8.17598 23.3558 8.52368 23.4179 8.87334 23.41C9.56962 23.41 10.2374 23.1334 10.7297 22.641C11.2221 22.1487 11.4987 21.4809 11.4987 20.7846C11.4987 20.0884 11.2221 19.4206 10.7297 18.9283C10.2374 18.4359 9.56962 18.1606 8.87334 18.1606Z" fill="currentColor"/>
</svg>
