<svg viewBox="0 0 24 19" fill="none" xmlns="http://www.w3.org/2000/svg">
<path fill-rule="evenodd" clip-rule="evenodd" d="M19.028 0.801978C19.1132 1.08523 19.0835 1.39065 18.9453 1.65215C18.807 1.91366 18.5714 2.11022 18.2893 2.19931L16.0987 2.86198C16.0479 2.87708 16.0009 2.90269 15.9607 2.93715C15.9205 2.97161 15.888 3.01414 15.8653 3.06198C15.8441 3.11078 15.8332 3.16343 15.8332 3.21665C15.8332 3.26986 15.8441 3.32251 15.8653 3.37131L18.1747 8.72598C18.2069 8.80124 18.263 8.8638 18.3344 8.90404C18.4057 8.94427 18.4882 8.95995 18.5693 8.94864C18.752 8.92464 18.9387 8.91131 19.124 8.90998C20.417 8.90998 21.6571 9.42363 22.5714 10.3379C23.4857 11.2522 23.9993 12.4923 23.9993 13.7853C23.9993 15.0783 23.4857 16.3184 22.5714 17.2327C21.6571 18.147 20.417 18.6606 19.124 18.6606C18.1232 18.6641 17.1458 18.3585 16.3253 17.7855C15.5048 17.2126 14.8812 16.4002 14.5398 15.4595C14.1984 14.5187 14.1558 13.4955 14.4179 12.5297C14.68 11.5638 15.2339 10.7025 16.004 10.0633C16.0658 10.0114 16.1092 9.9409 16.1277 9.86234C16.1462 9.78378 16.1388 9.70135 16.1067 9.62731L15.2573 7.65398C15.2225 7.57152 15.1591 7.50433 15.0788 7.46468C14.9985 7.42503 14.9067 7.41556 14.82 7.43798L8.69867 8.99798C8.64688 9.01132 8.59855 9.0356 8.55692 9.06918C8.51529 9.10275 8.48134 9.14485 8.45734 9.19265L8.13467 9.82865C8.09844 9.90043 8.08628 9.98197 8.09996 10.0612C8.11365 10.1404 8.15246 10.2132 8.21067 10.2686C8.69394 10.7183 9.07984 11.2624 9.34449 11.8671C9.60915 12.4719 9.74694 13.1245 9.74934 13.7846C9.74934 14.7486 9.46351 15.691 8.92799 16.4926C8.39247 17.2942 7.63131 17.919 6.74074 18.288C5.85017 18.657 4.87017 18.7537 3.92465 18.5658C2.97913 18.378 2.11054 17.914 1.4287 17.2325C0.746861 16.551 0.282384 15.6827 0.0939929 14.7373C-0.0943982 13.7919 0.00175607 12.8118 0.370299 11.921C0.738842 11.0303 1.36323 10.2688 2.16451 9.7328C2.96579 9.19685 3.908 8.91051 4.872 8.90998C5.16078 8.91141 5.44875 8.94043 5.732 8.99664C5.81183 9.0122 5.89455 9.00136 5.96767 8.96576C6.04079 8.93016 6.10034 8.87174 6.13734 8.79931L6.43734 8.19931C6.46203 8.14988 6.47577 8.0957 6.47761 8.04048C6.47945 7.98525 6.46935 7.93028 6.448 7.87931L5.35867 5.38598C5.32989 5.31861 5.28193 5.26121 5.22076 5.2209C5.1596 5.1806 5.08792 5.15918 5.01467 5.15931H4.12134C3.97038 5.16451 3.81993 5.13927 3.67894 5.08509C3.53795 5.03091 3.40931 4.9489 3.30069 4.84395C3.19206 4.73901 3.10568 4.61326 3.04668 4.47422C2.98768 4.33518 2.95727 4.18569 2.95727 4.03465C2.95727 3.8836 2.98768 3.73411 3.04668 3.59507C3.10568 3.45603 3.19206 3.33029 3.30069 3.22534C3.40931 3.12039 3.53795 3.03838 3.67894 2.9842C3.81993 2.93002 3.97038 2.90478 4.12134 2.90998H8.62534C8.77312 2.90998 8.91945 2.93909 9.05598 2.99564C9.19251 3.05219 9.31657 3.13508 9.42107 3.23958C9.52556 3.34408 9.60845 3.46813 9.66501 3.60467C9.72156 3.7412 9.75067 3.88753 9.75067 4.03531C9.75067 4.18309 9.72156 4.32943 9.66501 4.46596C9.60845 4.60249 9.52556 4.72655 9.42107 4.83104C9.31657 4.93554 9.19251 5.01843 9.05598 5.07498C8.91945 5.13154 8.77312 5.16065 8.62534 5.16065H8.292C8.22992 5.1608 8.16885 5.17638 8.11429 5.20599C8.05972 5.2356 8.01336 5.2783 7.97938 5.33025C7.94541 5.38221 7.92487 5.4418 7.91963 5.50366C7.91438 5.56552 7.92459 5.62771 7.94934 5.68464L8.28667 6.45798C8.3222 6.53949 8.38558 6.60571 8.46545 6.6448C8.54533 6.68388 8.6365 6.69328 8.72267 6.67131L13.7987 5.37665C13.8511 5.36303 13.8999 5.33822 13.9418 5.30392C13.9837 5.26963 14.0176 5.22666 14.0413 5.17798C14.064 5.12862 14.0757 5.07495 14.0757 5.02065C14.0757 4.96634 14.064 4.91267 14.0413 4.86331L13.7987 4.26065C13.6527 3.92102 13.5801 3.55442 13.5855 3.18481C13.5909 2.8152 13.6742 2.45088 13.83 2.11566C13.9858 1.78043 14.2105 1.48184 14.4896 1.2394C14.7686 0.996947 15.0956 0.816092 15.4493 0.708645L17.6387 0.0433117C17.9229 -0.0379225 18.2278 -0.0040162 18.4873 0.137701C18.7467 0.279418 18.94 0.51756 19.0253 0.800645L19.028 0.801978ZM19.124 11.1606C18.7743 11.1528 18.4266 11.2148 18.1013 11.3432C17.776 11.4715 17.4796 11.6636 17.2295 11.9081C16.9794 12.1526 16.7807 12.4446 16.6451 12.767C16.5094 13.0894 16.4395 13.4356 16.4395 13.7853C16.4395 14.1351 16.5094 14.4813 16.6451 14.8036C16.7807 15.126 16.9794 15.418 17.2295 15.6625C17.4796 15.907 17.776 16.0991 18.1013 16.2274C18.4266 16.3558 18.7743 16.4179 19.124 16.41C19.8203 16.41 20.488 16.1334 20.9804 15.641C21.4727 15.1487 21.7493 14.4809 21.7493 13.7846C21.7493 13.0884 21.4727 12.4206 20.9804 11.9283C20.488 11.4359 19.8203 11.1606 19.124 11.1606ZM4.87334 11.1606C4.52368 11.1528 4.17598 11.2148 3.85064 11.3432C3.52531 11.4715 3.2289 11.6636 2.97882 11.9081C2.72874 12.1526 2.53004 12.4446 2.39438 12.767C2.25872 13.0894 2.18884 13.4356 2.18884 13.7853C2.18884 14.1351 2.25872 14.4813 2.39438 14.8036C2.53004 15.126 2.72874 15.418 2.97882 15.6625C3.2289 15.907 3.52531 16.0991 3.85064 16.2274C4.17598 16.3558 4.52368 16.4179 4.87334 16.41C5.56962 16.41 6.23738 16.1334 6.72973 15.641C7.22207 15.1487 7.49867 14.4809 7.49867 13.7846C7.49867 13.0884 7.22207 12.4206 6.72973 11.9283C6.23738 11.4359 5.56962 11.1606 4.87334 11.1606Z" fill="currentColor"/>
</svg>
