<svg viewBox="0 0 24 24" fill="none" xmlns="http://www.w3.org/2000/svg">
<g clip-path="url(#clip0_9458_378784)">
<path d="M5.8293 8.69335C5.88663 8.74135 5.96263 8.76002 6.03463 8.74669L12.1146 7.58802C12.3626 7.54002 12.616 7.54002 12.864 7.58802L18.9413 8.74802C18.9778 8.75559 19.0155 8.75489 19.0517 8.74598C19.0878 8.73706 19.1216 8.72015 19.1503 8.69648C19.1791 8.67282 19.2022 8.64301 19.218 8.60924C19.2337 8.57547 19.2417 8.53861 19.2413 8.50135V7.02135C19.2406 6.29205 18.9506 5.59281 18.4349 5.07712C17.9192 4.56142 17.2199 4.27139 16.4906 4.27069H14.7413C14.7084 4.27086 14.6759 4.26454 14.6455 4.25209C14.6151 4.23964 14.5874 4.2213 14.5641 4.19813C14.5408 4.17496 14.5224 4.14742 14.5097 4.11708C14.4971 4.08674 14.4906 4.05421 14.4906 4.02135V0.52002C14.4906 0.387411 14.438 0.260234 14.3442 0.166466C14.2504 0.0726979 14.1232 0.0200195 13.9906 0.0200195H10.9906C10.858 0.0200195 10.7308 0.0726979 10.6371 0.166466C10.5433 0.260234 10.4906 0.387411 10.4906 0.52002V4.02002C10.4903 4.08604 10.4639 4.14925 10.4172 4.19594C10.3705 4.24262 10.3073 4.269 10.2413 4.26935H8.48797C7.75877 4.27041 7.05974 4.56055 6.54412 5.07617C6.0285 5.59179 5.73836 6.29082 5.7373 7.02002V8.49869C5.7373 8.57335 5.77063 8.64535 5.8293 8.69335ZM13.34 9.30002C13.3116 9.32364 13.2888 9.3532 13.2731 9.38661C13.2575 9.42002 13.2493 9.45646 13.2493 9.49335V18.3614C13.2493 18.4654 13.3133 18.5574 13.4093 18.5947C14 18.8227 14.4826 19.268 14.756 19.84C14.9786 20.216 15.376 20.4534 15.8133 20.4707C16.11 20.4572 16.3991 20.373 16.6568 20.2253C16.9144 20.0776 17.1331 19.8706 17.2946 19.6214C17.7346 18.86 18.5546 18.3974 19.4333 18.4147C19.76 18.4147 20.0826 18.4787 20.3853 18.6027C20.4185 18.6159 20.4542 18.622 20.4899 18.6204C20.5256 18.6188 20.5606 18.6096 20.5925 18.5935C20.6244 18.5774 20.6525 18.5546 20.6749 18.5268C20.6974 18.4989 20.7136 18.4666 20.7226 18.432L22.464 11.4867C22.4806 11.4207 22.4836 11.3519 22.4728 11.2847C22.4619 11.2175 22.4374 11.1532 22.4009 11.0958C22.3643 11.0384 22.3164 10.989 22.26 10.9508C22.2037 10.9125 22.1402 10.8862 22.0733 10.8734L13.5453 9.24402C13.5091 9.23772 13.4719 9.23947 13.4364 9.24915C13.4009 9.25882 13.368 9.27619 13.34 9.30002ZM4.2173 18.2747C4.23284 18.3374 4.2721 18.3916 4.32682 18.4259C4.38153 18.4602 4.44743 18.472 4.51063 18.4587C4.6573 18.4294 4.80397 18.4134 4.95463 18.412C5.3799 18.4115 5.79826 18.5195 6.17016 18.7257C6.54206 18.932 6.8552 19.2297 7.07997 19.5907C7.43063 20.0814 7.9733 20.4014 8.5733 20.468C8.94183 20.4312 9.29948 20.3221 9.62575 20.1468C9.95202 19.9716 10.2405 19.7336 10.4746 19.4467C10.756 19.06 11.1453 18.7667 11.5933 18.5974C11.6405 18.5793 11.681 18.5472 11.7096 18.5056C11.7382 18.4639 11.7534 18.4145 11.7533 18.364V9.48535C11.7532 9.44866 11.745 9.41245 11.7293 9.37928C11.7136 9.3461 11.6909 9.31677 11.6626 9.29335C11.6343 9.27023 11.6012 9.25349 11.5658 9.24429C11.5303 9.23508 11.4933 9.23363 11.4573 9.24002L2.90663 10.8707C2.83965 10.8833 2.77595 10.9096 2.71948 10.9478C2.663 10.9859 2.61492 11.0353 2.57821 11.0927C2.5415 11.1502 2.51692 11.2145 2.50598 11.2818C2.49505 11.3491 2.49799 11.4179 2.51463 11.484L4.2173 18.2747Z" fill="currentColor"/>
<path d="M23.9907 22.7787C23.9733 22.6485 23.9304 22.523 23.8645 22.4094C23.7986 22.2958 23.711 22.1962 23.6066 22.1165C23.5022 22.0368 23.3832 21.9784 23.2562 21.9446C23.1293 21.9109 22.9969 21.9026 22.8667 21.92C21.2481 22.1373 20.1294 20.42 20.1201 20.4067C20.0219 20.2691 19.8917 20.1575 19.7408 20.0814C19.5898 20.0054 19.4227 19.9671 19.2537 19.97C19.0847 19.9729 18.9189 20.0168 18.7707 20.098C18.6225 20.1792 18.4962 20.2952 18.4027 20.436C18.1148 20.8876 17.7202 21.2614 17.2538 21.5246C16.7874 21.7878 16.2635 21.9323 15.7281 21.9453C15.2459 21.9335 14.7756 21.7939 14.3649 21.541C13.9543 21.288 13.6182 20.9306 13.3907 20.5053C13.3082 20.3569 13.1906 20.2309 13.0483 20.1383C12.9059 20.0457 12.7431 19.9892 12.574 19.9738C12.4048 19.9585 12.2345 19.9846 12.0778 20.0501C11.9211 20.1155 11.7827 20.2182 11.6747 20.3493C11.311 20.8135 10.8537 21.1958 10.3324 21.4715C9.81118 21.7471 9.23773 21.91 8.64939 21.9493C8.11303 21.9185 7.59119 21.7633 7.12513 21.496C6.65908 21.2287 6.26158 20.8567 5.96406 20.4093C5.87341 20.28 5.75457 20.173 5.61651 20.0963C5.47846 20.0197 5.32479 19.9754 5.1671 19.9668C5.00942 19.9582 4.85184 19.9855 4.70627 20.0467C4.56069 20.1079 4.43091 20.2013 4.32673 20.32C4.31073 20.3387 2.79339 22.18 1.12673 21.9653C0.865675 21.9345 0.602989 22.0078 0.395512 22.1692C0.188034 22.3306 0.0524512 22.5672 0.0181005 22.8278C-0.0162503 23.0884 0.053394 23.352 0.211963 23.5617C0.370533 23.7713 0.605274 23.9101 0.865394 23.948C1.04539 23.972 1.22673 23.9827 1.40806 23.9827C2.69734 23.9236 3.92666 23.4211 4.88806 22.56C4.93446 22.5212 4.99326 22.5004 5.05372 22.5014C5.11418 22.5024 5.17227 22.5251 5.21739 22.5653C6.14815 23.4398 7.37367 23.9324 8.65073 23.9453C9.95232 23.9247 11.2075 23.4583 12.2067 22.624C12.2543 22.5858 12.3142 22.5663 12.3751 22.5692C12.436 22.5722 12.4938 22.5973 12.5374 22.64C12.9568 23.057 13.4547 23.3867 14.0024 23.6098C14.5501 23.833 15.1367 23.9452 15.7281 23.94C16.9771 23.9414 18.1819 23.478 19.1081 22.64C19.1538 22.5989 19.2132 22.5761 19.2747 22.5761C19.3363 22.5761 19.3956 22.5989 19.4414 22.64C19.9251 23.1103 20.5072 23.4673 21.1457 23.6852C21.7842 23.9031 22.4631 23.9764 23.1334 23.9C23.3953 23.8645 23.6325 23.7268 23.7932 23.5169C23.9538 23.307 24.0248 23.0408 23.9907 22.7787Z" fill="currentColor"/>
</g>
</svg>
