<svg viewBox="0 0 32 32" fill="none" xmlns="http://www.w3.org/2000/svg">
    <g clip-path="url(#clip0_9458_316373)">
        <path d="M9.8293 12.6934C9.88663 12.7414 9.96263 12.76 10.0346 12.7467L16.1146 11.588C16.3626 11.54 16.616 11.54 16.864 11.588L22.9413 12.748C22.9778 12.7556 23.0155 12.7549 23.0517 12.746C23.0878 12.7371 23.1216 12.7201 23.1503 12.6965C23.1791 12.6728 23.2022 12.643 23.218 12.6092C23.2337 12.5755 23.2417 12.5386 23.2413 12.5014V11.0214C23.2406 10.292 22.9506 9.59281 22.4349 9.07712C21.9192 8.56142 21.2199 8.27139 20.4906 8.27069H18.7413C18.7084 8.27086 18.6759 8.26454 18.6455 8.25209C18.6151 8.23964 18.5874 8.2213 18.5641 8.19813C18.5408 8.17496 18.5224 8.14742 18.5097 8.11708C18.4971 8.08674 18.4906 8.05421 18.4906 8.02135V4.52002C18.4906 4.38741 18.438 4.26023 18.3442 4.16647C18.2504 4.0727 18.1232 4.02002 17.9906 4.02002H14.9906C14.858 4.02002 14.7308 4.0727 14.6371 4.16647C14.5433 4.26023 14.4906 4.38741 14.4906 4.52002V8.02002C14.4903 8.08604 14.4639 8.14925 14.4172 8.19594C14.3705 8.24262 14.3073 8.269 14.2413 8.26935H12.488C11.7588 8.27041 11.0597 8.56055 10.5441 9.07617C10.0285 9.59179 9.73836 10.2908 9.7373 11.02V12.4987C9.7373 12.5734 9.77063 12.6454 9.8293 12.6934ZM17.34 13.3C17.3116 13.3236 17.2888 13.3532 17.2731 13.3866C17.2575 13.42 17.2493 13.4565 17.2493 13.4934V22.3614C17.2493 22.4654 17.3133 22.5574 17.4093 22.5947C18 22.8227 18.4826 23.268 18.756 23.84C18.9786 24.216 19.376 24.4534 19.8133 24.4707C20.11 24.4572 20.3991 24.373 20.6568 24.2253C20.9144 24.0776 21.1331 23.8706 21.2946 23.6214C21.7346 22.86 22.5546 22.3974 23.4333 22.4147C23.76 22.4147 24.0826 22.4787 24.3853 22.6027C24.4185 22.6159 24.4542 22.622 24.4899 22.6204C24.5256 22.6188 24.5606 22.6096 24.5925 22.5935C24.6244 22.5774 24.6525 22.5546 24.6749 22.5268C24.6974 22.4989 24.7136 22.4666 24.7226 22.432L26.464 15.4867C26.4806 15.4207 26.4836 15.3519 26.4728 15.2847C26.4619 15.2175 26.4374 15.1532 26.4009 15.0958C26.3643 15.0384 26.3164 14.989 26.26 14.9508C26.2037 14.9125 26.1402 14.8862 26.0733 14.8734L17.5453 13.244C17.5091 13.2377 17.4719 13.2395 17.4364 13.2491C17.4009 13.2588 17.368 13.2762 17.34 13.3ZM8.2173 22.2747C8.23284 22.3374 8.2721 22.3916 8.32682 22.4259C8.38153 22.4602 8.44743 22.472 8.51063 22.4587C8.6573 22.4294 8.80397 22.4134 8.95463 22.412C9.3799 22.4115 9.79826 22.5195 10.1702 22.7257C10.5421 22.932 10.8552 23.2297 11.08 23.5907C11.4306 24.0814 11.9733 24.4014 12.5733 24.468C12.9418 24.4312 13.2995 24.3221 13.6258 24.1468C13.952 23.9716 14.2405 23.7336 14.4746 23.4467C14.756 23.06 15.1453 22.7667 15.5933 22.5974C15.6405 22.5793 15.681 22.5472 15.7096 22.5056C15.7382 22.4639 15.7534 22.4145 15.7533 22.364V13.4854C15.7532 13.4487 15.745 13.4125 15.7293 13.3793C15.7136 13.3461 15.6909 13.3168 15.6626 13.2934C15.6343 13.2702 15.6012 13.2535 15.5658 13.2443C15.5303 13.2351 15.4933 13.2336 15.4573 13.24L6.90663 14.8707C6.83965 14.8833 6.77595 14.9096 6.71948 14.9478C6.663 14.9859 6.61492 15.0353 6.57821 15.0927C6.5415 15.1502 6.51692 15.2145 6.50598 15.2818C6.49505 15.3491 6.49799 15.4179 6.51463 15.484L8.2173 22.2747Z" fill="currentColor"/>
        <path d="M27.9907 26.7787C27.9733 26.6485 27.9304 26.523 27.8645 26.4094C27.7986 26.2958 27.711 26.1962 27.6066 26.1165C27.5022 26.0368 27.3832 25.9784 27.2562 25.9446C27.1293 25.9109 26.9969 25.9026 26.8667 25.92C25.2481 26.1373 24.1294 24.42 24.1201 24.4067C24.0219 24.2691 23.8917 24.1575 23.7408 24.0814C23.5898 24.0054 23.4227 23.9671 23.2537 23.97C23.0847 23.9729 22.9189 24.0168 22.7707 24.098C22.6225 24.1792 22.4962 24.2952 22.4027 24.436C22.1148 24.8876 21.7202 25.2614 21.2538 25.5246C20.7874 25.7878 20.2635 25.9323 19.7281 25.9453C19.2459 25.9335 18.7756 25.7939 18.3649 25.541C17.9543 25.288 17.6182 24.9306 17.3907 24.5053C17.3082 24.3569 17.1906 24.2309 17.0483 24.1383C16.9059 24.0457 16.7431 23.9892 16.574 23.9738C16.4048 23.9585 16.2345 23.9846 16.0778 24.0501C15.9211 24.1155 15.7827 24.2182 15.6747 24.3493C15.311 24.8135 14.8537 25.1958 14.3324 25.4715C13.8112 25.7471 13.2377 25.91 12.6494 25.9493C12.113 25.9185 11.5912 25.7633 11.1251 25.496C10.6591 25.2287 10.2616 24.8567 9.96406 24.4093C9.87341 24.28 9.75457 24.173 9.61651 24.0963C9.47846 24.0197 9.32479 23.9754 9.1671 23.9668C9.00942 23.9582 8.85184 23.9855 8.70627 24.0467C8.56069 24.1079 8.43091 24.2013 8.32673 24.32C8.31073 24.3387 6.79339 26.18 5.12673 25.9653C4.86567 25.9345 4.60299 26.0078 4.39551 26.1692C4.18803 26.3306 4.05245 26.5672 4.0181 26.8278C3.98375 27.0884 4.05339 27.352 4.21196 27.5617C4.37053 27.7713 4.60527 27.9101 4.86539 27.948C5.04539 27.972 5.22673 27.9827 5.40806 27.9827C6.69734 27.9236 7.92666 27.4211 8.88806 26.56C8.93446 26.5212 8.99326 26.5004 9.05372 26.5014C9.11418 26.5024 9.17227 26.5251 9.21739 26.5653C10.1482 27.4398 11.3737 27.9324 12.6507 27.9453C13.9523 27.9247 15.2075 27.4583 16.2067 26.624C16.2543 26.5858 16.3142 26.5663 16.3751 26.5692C16.436 26.5722 16.4938 26.5973 16.5374 26.64C16.9568 27.057 17.4547 27.3867 18.0024 27.6098C18.5501 27.833 19.1367 27.9452 19.7281 27.94C20.9771 27.9414 22.1819 27.478 23.1081 26.64C23.1538 26.5989 23.2132 26.5761 23.2747 26.5761C23.3363 26.5761 23.3956 26.5989 23.4414 26.64C23.9251 27.1103 24.5072 27.4673 25.1457 27.6852C25.7842 27.9031 26.4631 27.9764 27.1334 27.9C27.3953 27.8645 27.6325 27.7268 27.7932 27.5169C27.9538 27.307 28.0248 27.0408 27.9907 26.7787Z" fill="currentColor"/>
    </g>
    <defs>
        <clipPath id="clip0_9458_316373">
            <rect width="24" height="24" fill="white" transform="translate(4 4)"/>
        </clipPath>
    </defs>
</svg>
