<svg viewBox="0 0 24 23" fill="none" xmlns="http://www.w3.org/2000/svg">
<path d="M11.2133 5.07371C11.2204 5.02125 11.212 4.96786 11.1893 4.92005C11.1666 4.87224 11.1305 4.83206 11.0853 4.80438C9.70933 3.94705 6.58133 2.59371 0.552 2.51371C0.479763 2.51301 0.408103 2.52663 0.341161 2.55378C0.27422 2.58094 0.213325 2.6211 0.161996 2.67193C0.110667 2.72276 0.0699222 2.78326 0.0421168 2.84994C0.0143113 2.91661 -3.43743e-06 2.98814 6.19155e-10 3.06038L6.19155e-10 20.2577C6.19155e-10 20.5564 0.24 20.799 0.537333 20.8044C6.15733 20.875 9.25733 22.0577 10.776 22.911C10.8172 22.9351 10.864 22.9479 10.9117 22.9479C10.9594 22.948 11.0063 22.9353 11.0475 22.9113C11.0888 22.8873 11.1229 22.8528 11.1464 22.8113C11.1699 22.7698 11.182 22.7228 11.1813 22.675V5.41505C11.1853 5.30038 11.1947 5.18838 11.212 5.07505L11.2133 5.07371ZM19.9093 17.415C19.909 17.6079 19.8406 17.7944 19.7162 17.9417C19.5918 18.089 19.4194 18.1877 19.2293 18.2204C17.4605 18.5645 15.832 19.4214 14.5467 20.6844C14.116 21.1617 13.7413 21.6844 13.4267 22.2444C13.3997 22.295 13.3893 22.3529 13.397 22.4098C13.4048 22.4666 13.4302 22.5196 13.4697 22.5612C13.5093 22.6028 13.5609 22.6309 13.6173 22.6416C13.6737 22.6522 13.732 22.6448 13.784 22.6204C16.8403 21.3199 20.1428 20.6998 23.4627 20.803C23.6058 20.8006 23.7423 20.7421 23.8427 20.6401C23.9432 20.5382 23.9997 20.4009 24 20.2577V3.05905C23.9998 2.9868 23.9853 2.91531 23.9574 2.8487C23.9294 2.7821 23.8885 2.72169 23.8371 2.67098C23.7856 2.62027 23.7246 2.58027 23.6576 2.55327C23.5906 2.52628 23.5189 2.51283 23.4467 2.51371C22.232 2.52971 21.14 2.60038 20.1533 2.70571C20.0863 2.71295 20.0242 2.74473 19.9792 2.79495C19.9342 2.84516 19.9093 2.91026 19.9093 2.97771V17.415Z" fill="currentColor"/>
<path d="M18.0746 16.8204C18.132 16.8041 18.1825 16.7695 18.2183 16.7218C18.2542 16.6742 18.2735 16.6161 18.2733 16.5564V0.273762C18.2733 0.229798 18.2628 0.186467 18.2426 0.147443C18.2223 0.10842 18.1929 0.0748568 18.157 0.0496013C18.121 0.0243457 18.0794 0.00814321 18.0358 0.00236836C17.9923 -0.00340649 17.9479 0.00141675 17.9066 0.0164289C16.6319 0.443096 15.4799 1.17243 14.5466 2.1391C13.6345 3.02265 13.029 4.17479 12.8186 5.4271V19.4471C12.819 19.5023 12.8361 19.5561 12.8677 19.6015C12.8992 19.6468 12.9438 19.6814 12.9955 19.7009C13.0472 19.7204 13.1035 19.7238 13.1572 19.7106C13.2108 19.6974 13.2592 19.6683 13.2959 19.6271L13.3213 19.5991C14.6197 18.2524 16.2645 17.29 18.0746 16.8178V16.8204Z" fill="currentColor"/>
</svg>
