<svg viewBox="0 0 32 32" fill="none" xmlns="http://www.w3.org/2000/svg">
    <path d="M15.2133 10.0737C15.2204 10.0212 15.212 9.96786 15.1893 9.92005C15.1666 9.87224 15.1305 9.83206 15.0853 9.80438C13.7093 8.94705 10.5813 7.59371 4.552 7.51371C4.47976 7.51301 4.4081 7.52663 4.34116 7.55378C4.27422 7.58094 4.21332 7.6211 4.162 7.67193C4.11067 7.72276 4.06992 7.78326 4.04212 7.84994C4.01431 7.91661 4 7.98814 4 8.06038V25.2577C4 25.5564 4.24 25.799 4.53733 25.8044C10.1573 25.875 13.2573 27.0577 14.776 27.911C14.8172 27.9351 14.864 27.9479 14.9117 27.9479C14.9594 27.948 15.0063 27.9353 15.0475 27.9113C15.0888 27.8873 15.1229 27.8528 15.1464 27.8113C15.1699 27.7698 15.182 27.7228 15.1813 27.675V10.415C15.1853 10.3004 15.1947 10.1884 15.212 10.075L15.2133 10.0737ZM23.9093 22.415C23.909 22.6079 23.8406 22.7944 23.7162 22.9417C23.5918 23.089 23.4194 23.1877 23.2293 23.2204C21.4605 23.5645 19.832 24.4214 18.5467 25.6844C18.116 26.1617 17.7413 26.6844 17.4267 27.2444C17.3997 27.295 17.3893 27.3529 17.397 27.4098C17.4048 27.4666 17.4302 27.5196 17.4697 27.5612C17.5093 27.6028 17.5609 27.6309 17.6173 27.6416C17.6737 27.6522 17.732 27.6448 17.784 27.6204C20.8403 26.3199 24.1428 25.6998 27.4627 25.803C27.6058 25.8006 27.7423 25.7421 27.8427 25.6401C27.9432 25.5382 27.9997 25.4009 28 25.2577V8.05905C27.9998 7.9868 27.9853 7.91531 27.9574 7.8487C27.9294 7.7821 27.8885 7.72169 27.8371 7.67098C27.7856 7.62027 27.7246 7.58027 27.6576 7.55327C27.5906 7.52628 27.5189 7.51283 27.4467 7.51371C26.232 7.52971 25.14 7.60038 24.1533 7.70571C24.0863 7.71295 24.0242 7.74473 23.9792 7.79495C23.9342 7.84516 23.9093 7.91026 23.9093 7.97771V22.415Z" fill="currentColor"/>
    <path d="M22.0746 21.8204C22.132 21.8041 22.1825 21.7695 22.2183 21.7218C22.2542 21.6742 22.2735 21.6161 22.2733 21.5564V5.27376C22.2733 5.2298 22.2628 5.18647 22.2426 5.14744C22.2223 5.10842 22.1929 5.07486 22.157 5.0496C22.121 5.02435 22.0794 5.00814 22.0358 5.00237C21.9923 4.99659 21.9479 5.00142 21.9066 5.01643C20.6319 5.4431 19.4799 6.17243 18.5466 7.1391C17.6345 8.02265 17.029 9.17479 16.8186 10.4271V24.4471C16.819 24.5023 16.8361 24.5561 16.8677 24.6015C16.8992 24.6468 16.9438 24.6814 16.9955 24.7009C17.0472 24.7204 17.1035 24.7238 17.1572 24.7106C17.2108 24.6974 17.2592 24.6683 17.2959 24.6271L17.3213 24.5991C18.6197 23.2524 20.2645 22.29 22.0746 21.8178V21.8204Z" fill="currentColor"/>
</svg>
