<svg viewBox="0 0 24 24" fill="none" xmlns="http://www.w3.org/2000/svg">
<path d="M6.87188 6.9334C10.1488 6.9334 12.8053 5.60516 12.8053 3.9667C12.8053 2.32824 10.1488 1 6.87188 1C3.59495 1 0.938477 2.32824 0.938477 3.9667C0.938477 5.60516 3.59495 6.9334 6.87188 6.9334Z" stroke="currentColor" stroke-width="1.3" stroke-linecap="round" stroke-linejoin="round"/>
<path d="M12.8057 7.9224V3.9668" stroke="currentColor" stroke-width="1.3" stroke-linecap="round" stroke-linejoin="round"/>
<path d="M0.938477 3.9668V18.8003C0.938477 20.4419 3.59862 21.767 6.87188 21.767C7.43113 21.769 7.98975 21.7293 8.54312 21.6483" stroke="currentColor" stroke-width="1.3" stroke-linecap="round" stroke-linejoin="round"/>
<path d="M0.938477 15.0918C0.938477 16.7334 3.59862 18.0585 6.87188 18.0585C7.4445 18.057 8.01625 18.014 8.58267 17.9299" stroke="currentColor" stroke-width="1.3" stroke-linecap="round" stroke-linejoin="round"/>
<path d="M0.938477 11.3828C0.938477 13.0244 3.59862 14.3495 6.87188 14.3495C7.43113 14.3515 7.98975 14.3118 8.54312 14.2308" stroke="currentColor" stroke-width="1.3" stroke-linecap="round" stroke-linejoin="round"/>
<path d="M0.938477 7.6748C0.938477 9.31638 3.59862 10.6415 6.87188 10.6415C7.4445 10.64 8.01625 10.597 8.58267 10.5129" stroke="currentColor" stroke-width="1.3" stroke-linecap="round" stroke-linejoin="round"/>
<path d="M17.2576 16.0799C20.5345 16.0799 23.191 14.7516 23.191 13.1132C23.191 11.4747 20.5345 10.1465 17.2576 10.1465C13.9807 10.1465 11.3242 11.4747 11.3242 13.1132C11.3242 14.7516 13.9807 16.0799 17.2576 16.0799Z" stroke="currentColor" stroke-width="1.3" stroke-linecap="round" stroke-linejoin="round"/>
<path d="M11.3242 13.1133V20.2828C11.3242 21.9244 13.9844 23.2495 17.2576 23.2495C20.5309 23.2495 23.191 21.9244 23.191 20.2828V13.1133" stroke="currentColor" stroke-width="1.3" stroke-linecap="round" stroke-linejoin="round"/>
<path d="M23.191 16.5742C23.191 18.2158 20.5309 19.5409 17.2576 19.5409C13.9844 19.5409 11.3242 18.2158 11.3242 16.5742" stroke="currentColor" stroke-width="1.3" stroke-linecap="round" stroke-linejoin="round"/>
</svg>
