<svg viewBox="0 0 32 32" fill="none" xmlns="http://www.w3.org/2000/svg">
    <path d="M25.2973 4H15.7293V27.352H15.0813V7.432L6 11.7453V28H25.2973V4ZM21.1907 5.94667H23.9107V9.59467H21.1907V5.94533V5.94667ZM21.1907 11.216H23.9107V14.8667H21.1907V11.216ZM21.1907 16.4867H23.9107V20.1333H21.1907V16.4867ZM21.1907 21.7573H23.9107V25.4053H21.1907V21.7573ZM17.116 5.94533H19.836V9.59467H17.116V5.94533ZM17.116 11.216H19.836V14.8667H17.116V11.216ZM17.116 16.4867H19.836V20.1333H17.116V16.4867ZM17.116 21.7573H19.836V25.4053H17.116V21.7573ZM11.836 11.54H12.4853V24.5533H11.836V11.54ZM8.59467 13.324H9.24267V24.5547H8.59467V13.324Z" fill="currentColor"/>
</svg>
