<svg viewBox="0 0 20 24" fill="none" xmlns="http://www.w3.org/2000/svg">
<path d="M19.2973 0H9.72933V23.352H9.08133V3.432L0 7.74533V24H19.2973V0ZM15.1907 1.94667H17.9107V5.59467H15.1907V1.94533V1.94667ZM15.1907 7.216H17.9107V10.8667H15.1907V7.216ZM15.1907 12.4867H17.9107V16.1333H15.1907V12.4867ZM15.1907 17.7573H17.9107V21.4053H15.1907V17.7573ZM11.116 1.94533H13.836V5.59467H11.116V1.94533ZM11.116 7.216H13.836V10.8667H11.116V7.216ZM11.116 12.4867H13.836V16.1333H11.116V12.4867ZM11.116 17.7573H13.836V21.4053H11.116V17.7573ZM5.836 7.54H6.48533V20.5533H5.836V7.54ZM2.59467 9.324H3.24267V20.5547H2.59467V9.324Z" fill="currentColor"/>
</svg>
