<svg viewBox="0 0 32 32" fill="none" xmlns="http://www.w3.org/2000/svg">
    <path d="M15.9533 8.50015C13.9493 8.42549 12.076 9.24949 10.828 10.8002C10.1794 11.6247 9.76569 12.6092 9.63067 13.6495C9.536 14.4154 9.60034 15.1925 9.81966 15.9324C10.039 16.6723 10.4086 17.3589 10.9053 17.9495C11.6347 18.8495 12.128 19.7002 12.44 20.5748L12.5453 20.9002C12.5973 21.0748 12.7787 21.2002 12.9867 21.2002H14.964V16.3002L12.6227 13.9002C12.5594 13.8348 12.5098 13.7575 12.4768 13.6727C12.4438 13.588 12.4281 13.4975 12.4306 13.4065C12.4331 13.3156 12.4537 13.2261 12.4913 13.1433C12.5288 13.0604 12.5826 12.9859 12.6493 12.9242C12.7912 12.8014 12.9737 12.7362 13.1612 12.7411C13.3486 12.746 13.5275 12.8208 13.6627 12.9508L15.6933 15.0242L17.72 12.9495C17.8524 12.8137 18.0326 12.735 18.2222 12.7303C18.4118 12.7256 18.5957 12.7951 18.7347 12.9242C18.8041 12.9842 18.8603 13.0581 18.8997 13.1412C18.939 13.2242 18.9606 13.3145 18.9631 13.4063C18.9656 13.4981 18.949 13.5894 18.9142 13.6745C18.8795 13.7595 18.8274 13.8364 18.7613 13.9002L16.42 16.3002V21.2002H18.3973C18.4924 21.1998 18.5852 21.171 18.6638 21.1176C18.7425 21.0641 18.8033 20.9884 18.8387 20.9002L18.944 20.5748C19.2293 19.7242 19.724 18.8748 20.4267 18.0255C20.9733 17.3495 21.3893 16.5748 21.6227 15.7495C22.508 12.0495 19.62 8.64949 15.952 8.50015H15.9533ZM18.3987 22.2495H12.9333C12.859 22.2488 12.7875 22.2773 12.7341 22.329C12.6807 22.3806 12.6497 22.4512 12.648 22.5255V23.3495C12.648 23.5002 12.7773 23.6255 12.9333 23.6255H18.4227C18.4972 23.6266 18.5691 23.5982 18.6228 23.5465C18.6765 23.4948 18.7076 23.424 18.7093 23.3495V22.5255C18.7093 22.3748 18.58 22.2495 18.3987 22.2495ZM18.3987 24.6495H12.9333C12.859 24.6488 12.7875 24.6773 12.7341 24.729C12.6807 24.7806 12.6497 24.8512 12.648 24.9255V25.7495C12.648 25.9002 12.7773 26.0255 12.9333 26.0255H13.5587C13.74 26.9988 14.5987 27.7495 15.6653 27.7495C16.732 27.7495 17.616 27.0002 17.772 26.0255H18.3973C18.4716 26.0262 18.5432 25.9977 18.5966 25.946C18.65 25.8944 18.6809 25.8238 18.6827 25.7495V24.9255C18.7093 24.7748 18.58 24.6495 18.3987 24.6495ZM15.6667 7.07482C15.7605 7.07677 15.8537 7.06019 15.9411 7.02605C16.0285 6.9919 16.1083 6.94086 16.1759 6.87583C16.2435 6.81081 16.2976 6.73309 16.3352 6.64712C16.3727 6.56115 16.3929 6.46862 16.3947 6.37482V4.70015C16.3929 4.60636 16.3727 4.51383 16.3352 4.42785C16.2976 4.34188 16.2435 4.26416 16.1759 4.19914C16.1083 4.13412 16.0285 4.08307 15.9411 4.04893C15.8537 4.01478 15.7605 3.99821 15.6667 4.00015C15.2507 4.00015 14.9387 4.30015 14.9387 4.70015V6.37482C14.9387 6.77482 15.276 7.07482 15.6667 7.07482ZM10.9573 7.77482C11.0208 7.88373 11.1123 7.97369 11.2222 8.03534C11.3322 8.097 11.4566 8.12813 11.5827 8.12549C11.7112 8.12729 11.8376 8.09212 11.9467 8.02415C12.284 7.82415 12.4147 7.42415 12.2067 7.07482L11.32 5.62549C11.2195 5.46462 11.0608 5.34876 10.877 5.30206C10.6932 5.25536 10.4984 5.28142 10.3333 5.37482C9.99467 5.57482 9.86533 5.97482 10.0733 6.32415L10.9573 7.77482ZM8.95467 9.72549L7.42 8.87482C7.25429 8.78227 7.05944 8.75667 6.87545 8.80329C6.69147 8.84991 6.53231 8.9652 6.43067 9.12549C6.22267 9.44949 6.35333 9.87482 6.69067 10.0748L8.22667 10.9242C8.33451 10.9948 8.46185 11.0298 8.59067 11.0242C8.71635 11.0267 8.84043 10.9957 8.95012 10.9342C9.05981 10.8728 9.15113 10.7833 9.21467 10.6748C9.2633 10.5963 9.29521 10.5086 9.30843 10.4172C9.32164 10.3258 9.31587 10.2326 9.29148 10.1435C9.26708 10.0544 9.22458 9.97133 9.16663 9.89941C9.10868 9.82748 9.03652 9.76828 8.95467 9.72549ZM8.22667 14.2255C8.22511 14.1315 8.20498 14.0387 8.16743 13.9525C8.12988 13.8662 8.07565 13.7883 8.00787 13.7231C7.94009 13.6579 7.86008 13.6068 7.77247 13.5727C7.68485 13.5385 7.59135 13.522 7.49733 13.5242H5.728C5.6341 13.5222 5.54074 13.5388 5.45327 13.5731C5.36581 13.6073 5.28597 13.6584 5.21833 13.7236C5.15069 13.7888 5.09658 13.8667 5.05912 13.9528C5.02165 14.0389 5.00156 14.1316 5 14.2255C5 14.6255 5.312 14.9242 5.728 14.9242H7.49733C7.888 14.9242 8.22667 14.6015 8.22667 14.2255ZM8.22667 17.5495L6.69067 18.4002C6.35333 18.6002 6.224 19.0002 6.43067 19.3495C6.49404 19.4582 6.58528 19.548 6.69498 19.6097C6.80468 19.6713 6.92885 19.7026 7.05467 19.7002C7.18352 19.7026 7.31036 19.6679 7.42 19.6002L8.95333 18.7495C9.29333 18.5495 9.42267 18.1495 9.21467 17.8002C9.00667 17.4748 8.59067 17.3748 8.22667 17.5495ZM24.616 18.4002L23.0813 17.5495C22.9158 17.4573 22.7212 17.432 22.5375 17.4786C22.3539 17.5252 22.195 17.6402 22.0933 17.8002C21.884 18.1242 22.0147 18.5495 22.3533 18.7495L23.8867 19.6002C23.9949 19.6711 24.1227 19.7061 24.252 19.7002C24.3778 19.7026 24.502 19.6713 24.6117 19.6097C24.7214 19.548 24.8126 19.4582 24.876 19.3495C25.084 19.0255 24.9547 18.6002 24.616 18.4002ZM25.6053 13.5495H23.836C23.7421 13.5474 23.6487 13.5638 23.5612 13.5979C23.4736 13.6319 23.3937 13.683 23.3259 13.748C23.2582 13.813 23.2039 13.8908 23.1663 13.9769C23.1287 14.0629 23.1084 14.1556 23.1067 14.2495C23.1067 14.6495 23.42 14.9495 23.836 14.9495H25.6053C25.6991 14.9514 25.7924 14.9349 25.8798 14.9007C25.9671 14.8666 26.0469 14.8155 26.1145 14.7505C26.1822 14.6855 26.2363 14.6078 26.2738 14.5218C26.3114 14.4358 26.3316 14.3433 26.3333 14.2495C26.3333 13.8495 25.9947 13.5495 25.6053 13.5495ZM22.7427 11.0002C22.8711 11.0024 22.9974 10.9676 23.1067 10.9002L24.6427 10.0495C24.98 9.84949 25.1093 9.44949 24.9027 9.10015C24.8021 8.93858 24.643 8.82222 24.4585 8.77549C24.274 8.72875 24.0787 8.75527 23.9133 8.84949L22.38 9.70015C22.04 9.90015 21.9107 10.3002 22.1187 10.6495C22.182 10.7582 22.2733 10.848 22.383 10.9097C22.4927 10.9713 22.6169 11.0026 22.7427 11.0002ZM19.3867 8.02415C19.4945 8.09484 19.6218 8.12983 19.7507 8.12415C19.8766 8.12693 20.0009 8.09601 20.1109 8.03459C20.2208 7.97317 20.3124 7.88349 20.376 7.77482L21.26 6.30015C21.468 5.97482 21.3387 5.54949 21 5.34949C20.8344 5.25734 20.6399 5.23196 20.4562 5.27857C20.2725 5.32517 20.1136 5.44021 20.012 5.60015L19.1267 7.07482C19.078 7.15335 19.0461 7.24106 19.0329 7.33247C19.0197 7.42389 19.0255 7.51704 19.0499 7.60613C19.0743 7.69521 19.1168 7.77831 19.1747 7.85023C19.2327 7.92216 19.3048 7.98136 19.3867 8.02415Z" fill="currentColor"/>
</svg>
