<svg viewBox="0 0 22 24" fill="none" xmlns="http://www.w3.org/2000/svg">
<path d="M10.9533 4.50015C8.94933 4.42549 7.076 5.24949 5.828 6.80015C5.17939 7.62466 4.76569 8.60916 4.63067 9.64949C4.536 10.4154 4.60034 11.1925 4.81966 11.9324C5.03898 12.6723 5.40858 13.3589 5.90533 13.9495C6.63467 14.8495 7.128 15.7002 7.44 16.5748L7.54533 16.9002C7.59733 17.0748 7.77867 17.2002 7.98667 17.2002H9.964V12.3002L7.62267 9.90015C7.55938 9.83482 7.50979 9.7575 7.47681 9.67273C7.44383 9.58797 7.42812 9.49746 7.4306 9.40654C7.43309 9.31562 7.45372 9.22611 7.49128 9.14327C7.52884 9.06043 7.58258 8.98593 7.64933 8.92415C7.79115 8.80145 7.9737 8.73615 8.16117 8.74109C8.34864 8.74602 8.5275 8.82082 8.66267 8.95082L10.6933 11.0242L12.72 8.94949C12.8524 8.8137 13.0326 8.73504 13.2222 8.73031C13.4118 8.72558 13.5957 8.79514 13.7347 8.92415C13.8041 8.98424 13.8603 9.05815 13.8997 9.14116C13.939 9.22416 13.9606 9.31446 13.9631 9.40628C13.9656 9.4981 13.949 9.58943 13.9142 9.67447C13.8795 9.7595 13.8274 9.83636 13.7613 9.90015L11.42 12.3002V17.2002H13.3973C13.4924 17.1998 13.5852 17.171 13.6638 17.1176C13.7425 17.0641 13.8033 16.9884 13.8387 16.9002L13.944 16.5748C14.2293 15.7242 14.724 14.8748 15.4267 14.0255C15.9733 13.3495 16.3893 12.5748 16.6227 11.7495C17.508 8.04949 14.62 4.64949 10.952 4.50015H10.9533ZM13.3987 18.2495H7.93333C7.85905 18.2488 7.78746 18.2773 7.73406 18.329C7.68067 18.3806 7.64975 18.4512 7.648 18.5255V19.3495C7.648 19.5002 7.77733 19.6255 7.93333 19.6255H13.4227C13.4972 19.6266 13.5691 19.5982 13.6228 19.5465C13.6765 19.4948 13.7076 19.424 13.7093 19.3495V18.5255C13.7093 18.3748 13.58 18.2495 13.3987 18.2495ZM13.3987 20.6495H7.93333C7.85905 20.6488 7.78746 20.6773 7.73406 20.729C7.68067 20.7806 7.64975 20.8512 7.648 20.9255V21.7495C7.648 21.9002 7.77733 22.0255 7.93333 22.0255H8.55867C8.74 22.9988 9.59867 23.7495 10.6653 23.7495C11.732 23.7495 12.616 23.0002 12.772 22.0255H13.3973C13.4716 22.0262 13.5432 21.9977 13.5966 21.946C13.65 21.8944 13.6809 21.8238 13.6827 21.7495V20.9255C13.7093 20.7748 13.58 20.6495 13.3987 20.6495ZM10.6667 3.07482C10.7605 3.07677 10.8537 3.06019 10.9411 3.02605C11.0285 2.9919 11.1083 2.94086 11.1759 2.87583C11.2435 2.81081 11.2976 2.73309 11.3352 2.64712C11.3727 2.56115 11.3929 2.46862 11.3947 2.37482V0.700153C11.3929 0.606358 11.3727 0.513825 11.3352 0.427854C11.2976 0.341882 11.2435 0.264161 11.1759 0.199139C11.1083 0.134117 11.0285 0.0830728 10.9411 0.0489279C10.8537 0.014783 10.7605 -0.00179153 10.6667 0.00015332C10.2507 0.00015332 9.93867 0.300153 9.93867 0.700153V2.37482C9.93867 2.77482 10.276 3.07482 10.6667 3.07482ZM5.95733 3.77482C6.02081 3.88373 6.11227 3.97369 6.22223 4.03534C6.33218 4.097 6.45663 4.12813 6.58267 4.12549C6.7112 4.12729 6.83755 4.09212 6.94667 4.02415C7.284 3.82415 7.41467 3.42415 7.20667 3.07482L6.32 1.62549C6.21952 1.46462 6.06082 1.34876 5.87699 1.30206C5.69317 1.25536 5.49841 1.28142 5.33333 1.37482C4.99467 1.57482 4.86533 1.97482 5.07333 2.32415L5.95733 3.77482ZM3.95467 5.72549L2.42 4.87482C2.25429 4.78227 2.05944 4.75667 1.87545 4.80329C1.69147 4.84991 1.53231 4.9652 1.43067 5.12549C1.22267 5.44949 1.35333 5.87482 1.69067 6.07482L3.22667 6.92415C3.33451 6.99484 3.46185 7.02983 3.59067 7.02415C3.71635 7.02669 3.84043 6.99565 3.95012 6.93425C4.05981 6.87284 4.15113 6.78329 4.21467 6.67482C4.2633 6.59629 4.29521 6.50858 4.30843 6.41717C4.32164 6.32576 4.31587 6.2326 4.29148 6.14351C4.26708 6.05443 4.22458 5.97133 4.16663 5.89941C4.10868 5.82748 4.03652 5.76828 3.95467 5.72549ZM3.22667 10.2255C3.22511 10.1315 3.20498 10.0387 3.16743 9.95246C3.12988 9.86625 3.07565 9.78831 3.00787 9.72313C2.94009 9.65795 2.86008 9.60681 2.77247 9.57267C2.68485 9.53852 2.59135 9.52203 2.49733 9.52415H0.728C0.634098 9.52221 0.540737 9.53883 0.453274 9.57306C0.365811 9.60728 0.285969 9.65845 0.218329 9.72361C0.150689 9.78877 0.0965828 9.86665 0.0591162 9.95278C0.0216496 10.0389 0.00155987 10.1316 0 10.2255C0 10.6255 0.312 10.9242 0.728 10.9242H2.49733C2.888 10.9242 3.22667 10.6015 3.22667 10.2255ZM3.22667 13.5495L1.69067 14.4002C1.35333 14.6002 1.224 15.0002 1.43067 15.3495C1.49404 15.4582 1.58528 15.548 1.69498 15.6097C1.80468 15.6713 1.92885 15.7026 2.05467 15.7002C2.18352 15.7026 2.31036 15.6679 2.42 15.6002L3.95333 14.7495C4.29333 14.5495 4.42267 14.1495 4.21467 13.8002C4.00667 13.4748 3.59067 13.3748 3.22667 13.5495ZM19.616 14.4002L18.0813 13.5495C17.9158 13.4573 17.7212 13.432 17.5375 13.4786C17.3539 13.5252 17.195 13.6402 17.0933 13.8002C16.884 14.1242 17.0147 14.5495 17.3533 14.7495L18.8867 15.6002C18.9949 15.6711 19.1227 15.7061 19.252 15.7002C19.3778 15.7026 19.502 15.6713 19.6117 15.6097C19.7214 15.548 19.8126 15.4582 19.876 15.3495C20.084 15.0255 19.9547 14.6002 19.616 14.4002ZM20.6053 9.54949H18.836C18.7421 9.54736 18.6487 9.56381 18.5612 9.59787C18.4736 9.63194 18.3937 9.68295 18.3259 9.74799C18.2582 9.81303 18.2039 9.89081 18.1663 9.97687C18.1287 10.0629 18.1084 10.1556 18.1067 10.2495C18.1067 10.6495 18.42 10.9495 18.836 10.9495H20.6053C20.6991 10.9514 20.7924 10.9349 20.8798 10.9007C20.9671 10.8666 21.0469 10.8155 21.1145 10.7505C21.1822 10.6855 21.2363 10.6078 21.2738 10.5218C21.3114 10.4358 21.3316 10.3433 21.3333 10.2495C21.3333 9.84949 20.9947 9.54949 20.6053 9.54949ZM17.7427 7.00015C17.8711 7.00236 17.9974 6.96765 18.1067 6.90015L19.6427 6.04949C19.98 5.84949 20.1093 5.44949 19.9027 5.10015C19.8021 4.93858 19.643 4.82222 19.4585 4.77549C19.274 4.72875 19.0787 4.75527 18.9133 4.84949L17.38 5.70015C17.04 5.90015 16.9107 6.30015 17.1187 6.64949C17.182 6.7582 17.2733 6.84802 17.383 6.90967C17.4927 6.97132 17.6169 7.00255 17.7427 7.00015ZM14.3867 4.02415C14.4945 4.09484 14.6218 4.12983 14.7507 4.12415C14.8766 4.12693 15.0009 4.09601 15.1109 4.03459C15.2208 3.97317 15.3124 3.88349 15.376 3.77482L16.26 2.30015C16.468 1.97482 16.3387 1.54949 16 1.34949C15.8344 1.25734 15.6399 1.23196 15.4562 1.27857C15.2725 1.32517 15.1136 1.44021 15.012 1.60015L14.1267 3.07482C14.078 3.15335 14.0461 3.24106 14.0329 3.33247C14.0197 3.42389 14.0255 3.51704 14.0499 3.60613C14.0743 3.69521 14.1168 3.77831 14.1747 3.85023C14.2327 3.92216 14.3048 3.98136 14.3867 4.02415Z" fill="currentColor"/>
</svg>
