<svg viewBox="0 0 24 20" fill="none" xmlns="http://www.w3.org/2000/svg">
<path d="M16.4894 4.26635C16.437 4.25242 16.3907 4.22165 16.3575 4.1788C16.3244 4.13594 16.3062 4.08337 16.3059 4.02918V2.96471C16.3059 2.17842 15.9935 1.42433 15.4375 0.868342C14.8815 0.312352 14.1275 0 13.3412 0H4.44706C3.66077 0 2.90669 0.312352 2.3507 0.868342C1.79471 1.42433 1.48235 2.17842 1.48235 2.96471V4.02918C1.48235 4.14212 1.40612 4.24094 1.296 4.26918C0.926143 4.36342 0.598109 4.57794 0.3635 4.879C0.128891 5.18006 0.00101906 5.55056 0 5.93224L0 7.90871C0.000796393 8.29118 0.128877 8.66251 0.364047 8.96414C0.599216 9.26577 0.928094 9.48054 1.29882 9.57459C1.40612 9.60282 1.48235 9.70165 1.48235 9.81459V13.8339C1.48367 14.3295 1.60983 14.8168 1.84916 15.2508C2.0885 15.6848 2.43331 16.0516 2.85176 16.3172C2.92235 16.3624 2.96471 16.44 2.96471 16.5247V17.7911C2.96471 18.2497 3.14691 18.6896 3.47124 19.0139C3.79557 19.3383 4.23545 19.5205 4.69412 19.5205C5.15279 19.5205 5.59267 19.3383 5.917 19.0139C6.24132 18.6896 6.42353 18.2497 6.42353 17.7911V17.0456C6.42353 16.9087 6.53365 16.7986 6.67059 16.7986H11.1176C11.2546 16.7986 11.3647 16.9087 11.3647 17.0456V17.7911C11.3647 18.2497 11.5469 18.6896 11.8712 19.0139C12.1956 19.3383 12.6354 19.5205 13.0941 19.5205C13.5528 19.5205 13.9927 19.3383 14.317 19.0139C14.6413 18.6896 14.8235 18.2497 14.8235 17.7911V16.5247C14.8235 16.44 14.8659 16.3624 14.9365 16.3172C15.3549 16.0516 15.6997 15.6848 15.9391 15.2508C16.1784 14.8168 16.3046 14.3295 16.3059 13.8339V9.81741C16.3059 9.70447 16.3821 9.60565 16.4894 9.57741C16.8601 9.48336 17.189 9.26859 17.4242 8.96696C17.6594 8.66533 17.7874 8.294 17.7882 7.91153V5.93506C17.7873 5.55247 17.6591 5.18106 17.424 4.87924C17.1889 4.57742 16.8601 4.3609 16.4894 4.26635ZM5.43529 14.0866H4.44706C4.25049 14.0866 4.06197 14.0085 3.92297 13.8695C3.78397 13.7305 3.70588 13.542 3.70588 13.3454C3.70588 13.1488 3.78397 12.9603 3.92297 12.8213C4.06197 12.6823 4.25049 12.6042 4.44706 12.6042H5.43529C5.63187 12.6042 5.82039 12.6823 5.95938 12.8213C6.09838 12.9603 6.17647 13.1488 6.17647 13.3454C6.17647 13.542 6.09838 13.7305 5.95938 13.8695C5.82039 14.0085 5.63187 14.0866 5.43529 14.0866ZM13.3412 14.0866H12.3529C12.1564 14.0866 11.9678 14.0085 11.8289 13.8695C11.6899 13.7305 11.6118 13.542 11.6118 13.3454C11.6118 13.1488 11.6899 12.9603 11.8289 12.8213C11.9678 12.6823 12.1564 12.6042 12.3529 12.6042H13.3412C13.5377 12.6042 13.7263 12.6823 13.8653 12.8213C14.0043 12.9603 14.0824 13.1488 14.0824 13.3454C14.0824 13.542 14.0043 13.7305 13.8653 13.8695C13.7263 14.0085 13.5377 14.0866 13.3412 14.0866ZM14.3294 10.3765C14.3294 10.442 14.3034 10.5048 14.257 10.5512C14.2107 10.5975 14.1479 10.6235 14.0824 10.6235H3.70588C3.64036 10.6235 3.57752 10.5975 3.53119 10.5512C3.48485 10.5048 3.45882 10.442 3.45882 10.3765V2.96471C3.45882 2.70261 3.56294 2.45125 3.74827 2.26592C3.9336 2.08059 4.18496 1.97647 4.44706 1.97647H13.3412C13.6033 1.97647 13.8546 2.08059 14.04 2.26592C14.2253 2.45125 14.3294 2.70261 14.3294 2.96471V10.3765ZM21 5.93365C20.3799 5.93174 19.7779 6.14227 19.2942 6.53019C18.8104 6.91811 18.4741 7.46001 18.3413 8.06569C18.2084 8.67137 18.287 9.30428 18.564 9.85906C18.841 10.4138 19.2996 10.857 19.8635 11.1148C19.9511 11.1558 20.0075 11.2419 20.0075 11.3393V18.5336C20.0075 18.7957 20.1116 19.0471 20.297 19.2324C20.4823 19.4178 20.7337 19.5219 20.9958 19.5219C21.2579 19.5219 21.5092 19.4178 21.6946 19.2324C21.8799 19.0471 21.984 18.7957 21.984 18.5336V11.3421C21.984 11.2461 22.0405 11.1586 22.128 11.1176C22.6929 10.8611 23.1529 10.4187 23.4312 9.86413C23.7095 9.30959 23.7893 8.67641 23.6574 8.07013C23.5255 7.46386 23.1898 6.9211 22.7062 6.53233C22.2227 6.14356 21.6205 5.93226 21 5.93365Z" fill="currentColor"/>
</svg>
