<svg viewBox="0 0 32 32" fill="none" xmlns="http://www.w3.org/2000/svg">
    <path d="M20.4894 10.2664C20.437 10.2524 20.3907 10.2217 20.3575 10.1788C20.3244 10.1359 20.3062 10.0834 20.3059 10.0292V8.96471C20.3059 8.17842 19.9935 7.42433 19.4375 6.86834C18.8815 6.31235 18.1275 6 17.3412 6H8.44706C7.66077 6 6.90669 6.31235 6.3507 6.86834C5.79471 7.42433 5.48235 8.17842 5.48235 8.96471V10.0292C5.48235 10.1421 5.40612 10.2409 5.296 10.2692C4.92614 10.3634 4.59811 10.5779 4.3635 10.879C4.12889 11.1801 4.00102 11.5506 4 11.9322V13.9087C4.0008 14.2912 4.12888 14.6625 4.36405 14.9641C4.59922 15.2658 4.92809 15.4805 5.29882 15.5746C5.40612 15.6028 5.48235 15.7016 5.48235 15.8146V19.8339C5.48367 20.3295 5.60983 20.8168 5.84916 21.2508C6.0885 21.6848 6.43331 22.0516 6.85176 22.3172C6.92235 22.3624 6.96471 22.44 6.96471 22.5247V23.7911C6.96471 24.2497 7.14691 24.6896 7.47124 25.0139C7.79557 25.3383 8.23545 25.5205 8.69412 25.5205C9.15279 25.5205 9.59267 25.3383 9.917 25.0139C10.2413 24.6896 10.4235 24.2497 10.4235 23.7911V23.0456C10.4235 22.9087 10.5336 22.7986 10.6706 22.7986H15.1176C15.2546 22.7986 15.3647 22.9087 15.3647 23.0456V23.7911C15.3647 24.2497 15.5469 24.6896 15.8712 25.0139C16.1956 25.3383 16.6354 25.5205 17.0941 25.5205C17.5528 25.5205 17.9927 25.3383 18.317 25.0139C18.6413 24.6896 18.8235 24.2497 18.8235 23.7911V22.5247C18.8235 22.44 18.8659 22.3624 18.9365 22.3172C19.3549 22.0516 19.6997 21.6848 19.9391 21.2508C20.1784 20.8168 20.3046 20.3295 20.3059 19.8339V15.8174C20.3059 15.7045 20.3821 15.6056 20.4894 15.5774C20.8601 15.4834 21.189 15.2686 21.4242 14.967C21.6594 14.6653 21.7874 14.294 21.7882 13.9115V11.9351C21.7873 11.5525 21.6591 11.1811 21.424 10.8792C21.1889 10.5774 20.8601 10.3609 20.4894 10.2664ZM9.43529 20.0866H8.44706C8.25049 20.0866 8.06197 20.0085 7.92297 19.8695C7.78397 19.7305 7.70588 19.542 7.70588 19.3454C7.70588 19.1488 7.78397 18.9603 7.92297 18.8213C8.06197 18.6823 8.25049 18.6042 8.44706 18.6042H9.43529C9.63187 18.6042 9.82039 18.6823 9.95938 18.8213C10.0984 18.9603 10.1765 19.1488 10.1765 19.3454C10.1765 19.542 10.0984 19.7305 9.95938 19.8695C9.82039 20.0085 9.63187 20.0866 9.43529 20.0866ZM17.3412 20.0866H16.3529C16.1564 20.0866 15.9678 20.0085 15.8289 19.8695C15.6899 19.7305 15.6118 19.542 15.6118 19.3454C15.6118 19.1488 15.6899 18.9603 15.8289 18.8213C15.9678 18.6823 16.1564 18.6042 16.3529 18.6042H17.3412C17.5377 18.6042 17.7263 18.6823 17.8653 18.8213C18.0043 18.9603 18.0824 19.1488 18.0824 19.3454C18.0824 19.542 18.0043 19.7305 17.8653 19.8695C17.7263 20.0085 17.5377 20.0866 17.3412 20.0866ZM18.3294 16.3765C18.3294 16.442 18.3034 16.5048 18.257 16.5512C18.2107 16.5975 18.1479 16.6235 18.0824 16.6235H7.70588C7.64036 16.6235 7.57752 16.5975 7.53119 16.5512C7.48485 16.5048 7.45882 16.442 7.45882 16.3765V8.96471C7.45882 8.70261 7.56294 8.45125 7.74827 8.26592C7.9336 8.08059 8.18496 7.97647 8.44706 7.97647H17.3412C17.6033 7.97647 17.8546 8.08059 18.04 8.26592C18.2253 8.45125 18.3294 8.70261 18.3294 8.96471V16.3765ZM25 11.9336C24.3799 11.9317 23.7779 12.1423 23.2942 12.5302C22.8104 12.9181 22.4741 13.46 22.3413 14.0657C22.2084 14.6714 22.287 15.3043 22.564 15.8591C22.841 16.4138 23.2996 16.857 23.8635 17.1148C23.9511 17.1558 24.0075 17.2419 24.0075 17.3393V24.5336C24.0075 24.7957 24.1116 25.0471 24.297 25.2324C24.4823 25.4178 24.7337 25.5219 24.9958 25.5219C25.2579 25.5219 25.5092 25.4178 25.6946 25.2324C25.8799 25.0471 25.984 24.7957 25.984 24.5336V17.3421C25.984 17.2461 26.0405 17.1586 26.128 17.1176C26.6929 16.8611 27.1529 16.4187 27.4312 15.8641C27.7095 15.3096 27.7893 14.6764 27.6574 14.0701C27.5255 13.4639 27.1898 12.9211 26.7062 12.5323C26.2227 12.1436 25.6205 11.9323 25 11.9336Z" fill="currentColor"/>
</svg>
