<svg viewBox="0 0 32 32" fill="none" xmlns="http://www.w3.org/2000/svg">
    <path d="M22.9334 14.8931V14.8865L22.9294 14.8931H22.9334Z" fill="currentColor"/>
    <path d="M24.1067 11.9773L21.084 15.58L24.6467 16.876L27.6707 13.272L24.1067 11.9773ZM4 19.7506H6.44933V26.608H4V19.7506ZM10.368 14.3626H12.3267V22.6893H10.368V14.3626Z" fill="currentColor"/>
    <path d="M4.48925 22.2H12.3266V24.1587H4.48925V22.2ZM6.88125 5L4.15991 12.4813L17.8319 17.4573L23.2759 10.968L6.88125 5ZM12.7052 13.9333C12.4174 13.9333 12.1413 13.819 11.9378 13.6154C11.7343 13.4119 11.6199 13.1358 11.6199 12.848C11.6199 12.5602 11.7343 12.2841 11.9378 12.0806C12.1413 11.877 12.4174 11.7627 12.7052 11.7627C12.9863 11.7725 13.2526 11.8911 13.448 12.0935C13.6434 12.2958 13.7525 12.5661 13.7525 12.8473C13.7525 13.1286 13.6434 13.3989 13.448 13.6012C13.2526 13.8036 12.9863 13.9235 12.7052 13.9333Z" fill="currentColor"/>
</svg>
