<svg viewBox="0 0 24 22" fill="none" xmlns="http://www.w3.org/2000/svg">
<path d="M18.9334 9.89314V9.88647L18.9294 9.89314H18.9334Z" fill="currentColor"/>
<path d="M20.1067 6.97729L17.084 10.58L20.6467 11.876L23.6707 8.27196L20.1067 6.97729ZM0 14.7506H2.44933V21.608H0V14.7506ZM6.368 9.36263H8.32667V17.6893H6.368V9.36263Z" fill="currentColor"/>
<path d="M0.489245 17.2H8.32658V19.1587H0.489245V17.2ZM2.88125 0L0.159912 7.48133L13.8319 12.4573L19.2759 5.968L2.88125 0ZM8.70525 8.93333C8.4174 8.93333 8.14134 8.81899 7.9378 8.61545C7.73426 8.41191 7.61991 8.13585 7.61991 7.848C7.61991 7.56015 7.73426 7.28409 7.9378 7.08055C8.14134 6.87701 8.4174 6.76267 8.70525 6.76267C8.98634 6.77252 9.25262 6.89112 9.44799 7.09345C9.64336 7.29579 9.75254 7.56607 9.75254 7.84733C9.75254 8.1286 9.64336 8.39888 9.44799 8.60121C9.25262 8.80355 8.98634 8.92348 8.70525 8.93333Z" fill="currentColor"/>
</svg>
