<svg viewBox="0 0 24 20" fill="none" xmlns="http://www.w3.org/2000/svg">
<path d="M22.9093 8.18133C23.1986 8.18133 23.476 8.06642 23.6806 7.86188C23.8851 7.65734 24 7.37993 24 7.09067V6C24 5.71074 23.8851 5.43332 23.6806 5.22878C23.476 5.02424 23.1986 4.90933 22.9093 4.90933H20.6187C20.5614 4.90921 20.5057 4.89114 20.4593 4.85765C20.4129 4.82416 20.3781 4.77694 20.36 4.72267L19.16 1.12267C19.052 0.795961 18.8438 0.511612 18.5649 0.310059C18.2861 0.108506 17.9508 9.50791e-06 17.6067 0H6.39333C5.688 0 5.064 0.450667 4.84 1.11867L3.64 4.71867C3.62185 4.77294 3.58713 4.82016 3.54072 4.85365C3.49431 4.88714 3.43856 4.90522 3.38133 4.90533H1.09067C0.801635 4.90533 0.524421 5.02006 0.31992 5.22431C0.115418 5.42856 0.00035334 5.70564 0 5.99467L0 7.08533C0 7.688 0.488 8.176 1.09067 8.176H1.84267C1.89674 8.17598 1.94961 8.192 1.99458 8.22203C2.03955 8.25206 2.0746 8.29476 2.0953 8.34472C2.116 8.39468 2.12141 8.44965 2.11086 8.50269C2.1003 8.55573 2.07425 8.60444 2.036 8.64267L0.32 10.3627C0.116253 10.5676 0.00130643 10.8444 0 11.1333L0 14.7253C0 15.1547 0.258667 15.5413 0.653333 15.708C0.702143 15.729 0.743777 15.7638 0.77314 15.808C0.802504 15.8523 0.818324 15.9042 0.818667 15.9573V18.5467C0.82 19.2987 1.43067 19.9067 2.18133 19.9067H4.364C5.116 19.9067 5.72667 19.2973 5.72667 18.544V16.0907C5.72667 15.9387 5.84933 15.8173 6 15.8173H18C18.1507 15.8173 18.2733 15.9387 18.2733 16.0893V18.544C18.2733 19.2973 18.884 19.9067 19.636 19.908H21.8187C22.5707 19.908 23.1813 19.2973 23.1813 18.544V15.9533C23.1813 15.8453 23.2467 15.7467 23.3453 15.7027C23.5388 15.6215 23.704 15.4851 23.8204 15.3106C23.9369 15.1361 23.9993 14.9311 24 14.7213V11.1347C23.9994 10.8448 23.8844 10.5669 23.68 10.3613L21.964 8.64533C21.9258 8.60711 21.8997 8.55839 21.8891 8.50536C21.8786 8.45232 21.884 8.39734 21.9047 8.34738C21.9254 8.29743 21.9604 8.25473 22.0054 8.2247C22.0504 8.19466 22.1033 8.17864 22.1573 8.17867L22.9093 8.18133ZM17.0187 2.18133C17.136 2.18133 17.24 2.25733 17.2773 2.368L18.5453 6.18667C18.5588 6.22775 18.5624 6.27144 18.5557 6.31416C18.5491 6.35688 18.5323 6.39742 18.507 6.43242C18.4816 6.46743 18.4483 6.49592 18.4097 6.51555C18.3712 6.53518 18.3286 6.54539 18.2853 6.54533H5.712C5.66883 6.54503 5.62634 6.53451 5.58802 6.51463C5.5497 6.49475 5.51663 6.46608 5.49153 6.43096C5.46642 6.39583 5.45 6.35527 5.44359 6.31257C5.43718 6.26988 5.44098 6.22628 5.45467 6.18533L6.728 2.368C6.74585 2.31457 6.77976 2.26797 6.82511 2.23455C6.87046 2.20114 6.92502 2.18255 6.98133 2.18133H17.0187ZM5.45333 13.0907H2.18133C2.03681 13.0903 1.89831 13.0327 1.79611 12.9306C1.69392 12.8284 1.63635 12.6899 1.636 12.5453V11.4547C1.636 11.3097 1.6936 11.1706 1.79611 11.0681C1.89863 10.9656 2.03768 10.908 2.18267 10.908H5.45333C5.59809 10.9084 5.73679 10.9661 5.83902 11.0686C5.94126 11.1711 5.99867 11.3099 5.99867 11.4547V12.5453C5.99867 12.6171 5.98453 12.6882 5.95705 12.7545C5.92958 12.8209 5.88931 12.8811 5.83855 12.9319C5.78779 12.9826 5.72753 13.0229 5.6612 13.0504C5.59488 13.0779 5.52379 13.092 5.452 13.092L5.45333 13.0907ZM18 11.4547C18 11.3097 18.0576 11.1706 18.1601 11.0681C18.2626 10.9656 18.4017 10.908 18.5467 10.908H21.8187C21.9634 10.9084 22.1021 10.9661 22.2044 11.0686C22.3066 11.1711 22.364 11.3099 22.364 11.4547V12.5453C22.364 12.6903 22.3064 12.8294 22.2039 12.9319C22.1014 13.0344 21.9623 13.092 21.8173 13.092H18.5467C18.4019 13.0916 18.2632 13.0339 18.161 12.9314C18.0587 12.8289 18.0013 12.6901 18.0013 12.5453V11.4547H18Z" fill="currentColor"/>
</svg>
