<svg viewBox="0 0 32 32" fill="none" xmlns="http://www.w3.org/2000/svg">
    <path d="M26.9093 14.1813C27.1986 14.1813 27.476 14.0664 27.6806 13.8619C27.8851 13.6573 28 13.3799 28 13.0907V12C28 11.7107 27.8851 11.4333 27.6806 11.2288C27.476 11.0242 27.1986 10.9093 26.9093 10.9093H24.6187C24.5614 10.9092 24.5057 10.8911 24.4593 10.8576C24.4129 10.8242 24.3781 10.7769 24.36 10.7227L23.16 7.12267C23.052 6.79596 22.8438 6.51161 22.5649 6.31006C22.2861 6.10851 21.9508 6.00001 21.6067 6H10.3933C9.688 6 9.064 6.45067 8.84 7.11867L7.64 10.7187C7.62185 10.7729 7.58713 10.8202 7.54072 10.8536C7.49431 10.8871 7.43856 10.9052 7.38133 10.9053H5.09067C4.80163 10.9053 4.52442 11.0201 4.31992 11.2243C4.11542 11.4286 4.00035 11.7056 4 11.9947V13.0853C4 13.688 4.488 14.176 5.09067 14.176H5.84267C5.89674 14.176 5.94961 14.192 5.99458 14.222C6.03955 14.2521 6.0746 14.2948 6.0953 14.3447C6.116 14.3947 6.12141 14.4497 6.11086 14.5027C6.1003 14.5557 6.07425 14.6044 6.036 14.6427L4.32 16.3627C4.11625 16.5676 4.00131 16.8444 4 17.1333V20.7253C4 21.1547 4.25867 21.5413 4.65333 21.708C4.70214 21.729 4.74378 21.7638 4.77314 21.808C4.8025 21.8523 4.81832 21.9042 4.81867 21.9573V24.5467C4.82 25.2987 5.43067 25.9067 6.18133 25.9067H8.364C9.116 25.9067 9.72667 25.2973 9.72667 24.544V22.0907C9.72667 21.9387 9.84933 21.8173 10 21.8173H22C22.1507 21.8173 22.2733 21.9387 22.2733 22.0893V24.544C22.2733 25.2973 22.884 25.9067 23.636 25.908H25.8187C26.5707 25.908 27.1813 25.2973 27.1813 24.544V21.9533C27.1813 21.8453 27.2467 21.7467 27.3453 21.7027C27.5388 21.6215 27.704 21.4851 27.8204 21.3106C27.9369 21.1361 27.9993 20.9311 28 20.7213V17.1347C27.9994 16.8448 27.8844 16.5669 27.68 16.3613L25.964 14.6453C25.9258 14.6071 25.8997 14.5584 25.8891 14.5054C25.8786 14.4523 25.884 14.3973 25.9047 14.3474C25.9254 14.2974 25.9604 14.2547 26.0054 14.2247C26.0504 14.1947 26.1033 14.1786 26.1573 14.1787L26.9093 14.1813ZM21.0187 8.18133C21.136 8.18133 21.24 8.25733 21.2773 8.368L22.5453 12.1867C22.5588 12.2277 22.5624 12.2714 22.5557 12.3142C22.5491 12.3569 22.5323 12.3974 22.507 12.4324C22.4816 12.4674 22.4483 12.4959 22.4097 12.5156C22.3712 12.5352 22.3286 12.5454 22.2853 12.5453H9.712C9.66883 12.545 9.62634 12.5345 9.58802 12.5146C9.5497 12.4948 9.51663 12.4661 9.49153 12.431C9.46642 12.3958 9.45 12.3553 9.44359 12.3126C9.43718 12.2699 9.44098 12.2263 9.45467 12.1853L10.728 8.368C10.7458 8.31457 10.7798 8.26797 10.8251 8.23455C10.8705 8.20114 10.925 8.18255 10.9813 8.18133H21.0187ZM9.45333 19.0907H6.18133C6.03681 19.0903 5.89831 19.0327 5.79611 18.9306C5.69392 18.8284 5.63635 18.6899 5.636 18.5453V17.4547C5.636 17.3097 5.6936 17.1706 5.79611 17.0681C5.89863 16.9656 6.03768 16.908 6.18267 16.908H9.45333C9.59809 16.9084 9.73679 16.9661 9.83902 17.0686C9.94126 17.1711 9.99867 17.3099 9.99867 17.4547V18.5453C9.99867 18.6171 9.98453 18.6882 9.95705 18.7545C9.92958 18.8209 9.88931 18.8811 9.83855 18.9319C9.78779 18.9826 9.72753 19.0229 9.6612 19.0504C9.59488 19.0779 9.52379 19.092 9.452 19.092L9.45333 19.0907ZM22 17.4547C22 17.3097 22.0576 17.1706 22.1601 17.0681C22.2626 16.9656 22.4017 16.908 22.5467 16.908H25.8187C25.9634 16.9084 26.1021 16.9661 26.2044 17.0686C26.3066 17.1711 26.364 17.3099 26.364 17.4547V18.5453C26.364 18.6903 26.3064 18.8294 26.2039 18.9319C26.1014 19.0344 25.9623 19.092 25.8173 19.092H22.5467C22.4019 19.0916 22.2632 19.0339 22.161 18.9314C22.0587 18.8289 22.0013 18.6901 22.0013 18.5453V17.4547H22Z" fill="currentColor"/>
</svg>
