<svg xmlns="http://www.w3.org/2000/svg" fill="none" viewBox="0 0 14 14"><path fill="currentColor" fill-rule="evenodd" d="M.175 11.703 5.69.826c.126-.248.315-.457.545-.603a1.43 1.43 0 0 1 1.53 0c.23.146.419.355.545.603l5.515 10.877a1.629 1.629 0 0 1-.034 1.535 1.523 1.523 0 0 1-.541.558 1.428 1.428 0 0 1-.735.204M.175 11.703Zm0 0a1.629 1.629 0 0 0 .034 1.535c.131.231.317.424.541.558.224.133.477.204.735.204h11.03M1.127 12.23a.463.463 0 0 0 .01.436.423.423 0 0 0 .149.154c.06.037.13.056.199.056h11.03c.07 0 .138-.019.2-.056a.423.423 0 0 0 .149-.154.461.461 0 0 0 .01-.437L7.357 1.352a.426.426 0 0 0-.151-.167.387.387 0 0 0-.414 0 .425.425 0 0 0-.15.167L1.126 12.23Z" clip-rule="evenodd"/></svg>