
<svg xmlns="http://www.w3.org/2000/svg" fill="none" viewBox="0 0 14 14"><path fill="currentColor" fill-rule="evenodd" d="M13.825 2.297 8.31 13.174a1.532 1.532 0 0 1-.545.603 1.43 1.43 0 0 1-1.53 0 1.532 1.532 0 0 1-.545-.603L.175 2.297A1.629 1.629 0 0 1 .209.762C.34.531.526.338.75.205.974.07 1.227 0 1.485 0m12.34 2.297Zm0 0a1.628 1.628 0 0 0-.034-1.535 1.523 1.523 0 0 0-.541-.557A1.428 1.428 0 0 0 12.515 0H1.485m11.388 1.77a.463.463 0 0 0-.01-.436.422.422 0 0 0-.149-.154.386.386 0 0 0-.199-.056H1.486a.386.386 0 0 0-.2.056.422.422 0 0 0-.149.154.461.461 0 0 0-.01.437l5.516 10.877c.036.07.088.127.151.167a.387.387 0 0 0 .414 0 .425.425 0 0 0 .15-.167L12.874 1.77Z" clip-rule="evenodd"/></svg>