<svg viewBox="0 0 22 24" fill="none" xmlns="http://www.w3.org/2000/svg">
<path d="M5.43182 4.57468H5.65582C5.52806 5.14963 5.46103 5.7364 5.45582 6.32535V9.34935C5.45582 9.70002 5.73182 9.97468 6.08249 9.97468H7.13182C7.21419 9.97558 7.29591 9.96001 7.37218 9.9289C7.44845 9.89779 7.51774 9.85176 7.57599 9.79352C7.63423 9.73527 7.68026 9.66598 7.71137 9.58971C7.74248 9.51343 7.75805 9.43172 7.75715 9.34935V8.37468H14.0572V9.34935C14.0572 9.70002 14.3318 9.97468 14.6812 9.97468H15.7318C15.8142 9.97558 15.8959 9.96001 15.9722 9.9289C16.0485 9.89779 16.1177 9.85176 16.176 9.79352C16.2342 9.73527 16.2803 9.66598 16.3114 9.58971C16.3425 9.51343 16.358 9.43172 16.3572 9.34935V6.34935C16.3572 5.74935 16.2812 5.17468 16.1572 4.60002H16.3812C16.4635 4.60091 16.5452 4.58534 16.6215 4.55423C16.6978 4.52312 16.7671 4.4771 16.8253 4.41885C16.8836 4.3606 16.9296 4.29131 16.9607 4.21504C16.9918 4.13877 17.0074 4.05705 17.0065 3.97468V3.62402C17.0072 3.54176 16.9915 3.46019 16.9603 3.38407C16.9291 3.30795 16.8831 3.23882 16.8248 3.18072C16.7666 3.12261 16.6974 3.0767 16.6212 3.04568C16.545 3.01465 16.4634 2.99913 16.3812 3.00002H15.5812L15.0572 1.37468C14.9269 0.973817 14.6727 0.624673 14.3313 0.377607C13.9898 0.13054 13.5786 -0.00167957 13.1572 1.61082e-05H8.63049C7.75582 1.61082e-05 7.00515 0.549349 6.73049 1.37468L6.20515 2.97468H5.40515C5.32279 2.97379 5.24107 2.98936 5.1648 3.02047C5.08853 3.05158 5.01923 3.0976 4.96099 3.15585C4.90274 3.2141 4.85671 3.28339 4.8256 3.35966C4.79449 3.43593 4.77893 3.51765 4.77982 3.60002V3.94935C4.78798 4.11693 4.85992 4.27505 4.98089 4.39132C5.10186 4.50758 5.26405 4.57318 5.43182 4.57468ZM14.8065 5.70002V6.30002C14.8065 6.50002 14.6318 6.67468 14.4318 6.67468H13.1558C13.0977 6.67446 13.0405 6.66111 12.9883 6.63563C12.9361 6.61016 12.8903 6.57322 12.8544 6.52757C12.8185 6.48192 12.7934 6.42875 12.781 6.37203C12.7685 6.31531 12.769 6.25651 12.7825 6.20002L12.8572 5.80002C12.8722 5.72205 12.9118 5.65093 12.97 5.59698C13.0283 5.54303 13.1023 5.50906 13.1812 5.50002L14.3572 5.30002C14.4134 5.29428 14.4703 5.30031 14.5241 5.31772C14.5779 5.33514 14.6276 5.36355 14.6698 5.40117C14.7121 5.43879 14.746 5.48478 14.7696 5.53622C14.7931 5.58767 14.8057 5.64345 14.8065 5.70002ZM7.93182 1.74935C7.98025 1.60245 8.07421 1.4748 8.20007 1.3849C8.32593 1.295 8.47716 1.24752 8.63182 1.24935H13.1812C13.5065 1.24935 13.7812 1.44935 13.8812 1.74935L14.4812 3.62535C14.5065 3.70002 14.4572 3.79868 14.3572 3.79868H7.45715C7.35716 3.79868 7.30649 3.72535 7.33182 3.62535L7.93182 1.74935ZM7.00649 5.70135C7.00649 5.47602 7.20649 5.27602 7.45582 5.32668L8.63182 5.52668C8.70762 5.54325 8.77766 5.57962 8.83482 5.63209C8.89197 5.68456 8.93418 5.75124 8.95716 5.82535L9.03182 6.22535C9.08115 6.47602 8.90649 6.70135 8.65582 6.70135H7.38115C7.28253 6.69898 7.18861 6.65875 7.11885 6.58899C7.04909 6.51923 7.00886 6.42531 7.00649 6.32668V5.70135Z" fill="currentColor"/>
<path d="M4.10631 16.6237C5.58349 16.6237 6.78097 15.4263 6.78097 13.9491C6.78097 12.4719 5.58349 11.2744 4.10631 11.2744C2.62913 11.2744 1.43164 12.4719 1.43164 13.9491C1.43164 15.4263 2.62913 16.6237 4.10631 16.6237Z" fill="currentColor"/>
<path d="M6.88098 17.9998C6.38098 17.6252 5.78098 17.3745 5.10631 17.3745H3.10631C2.4071 17.3738 1.7322 17.6311 1.21088 18.0971C0.689554 18.563 0.358451 19.2049 0.280979 19.8998L0.00631267 22.2238C-0.0153122 22.3691 0.019075 22.5171 0.102507 22.6379C0.18594 22.7587 0.312178 22.8433 0.455646 22.8745C1.60631 23.1252 2.83165 23.2492 4.10631 23.2492C4.60631 23.2492 5.10631 23.2252 5.60631 23.1998C5.55565 22.9998 5.55565 22.7998 5.58098 22.5998L5.85698 20.2745C5.9462 19.4263 6.30511 18.629 6.88098 17.9998Z" fill="currentColor"/>
<path d="M17.7064 16.6237C19.1836 16.6237 20.3811 15.4263 20.3811 13.9491C20.3811 12.4719 19.1836 11.2744 17.7064 11.2744C16.2292 11.2744 15.0317 12.4719 15.0317 13.9491C15.0317 15.4263 16.2292 16.6237 17.7064 16.6237Z" fill="currentColor"/>
<path d="M21.5318 19.8999C21.458 19.2035 21.128 18.5593 20.6059 18.0927C20.0837 17.626 19.4067 17.37 18.7064 17.3746H16.7064C16.0318 17.3746 15.4318 17.5999 14.9318 17.9999C15.4811 18.5999 15.8571 19.3999 15.9558 20.2492L16.2318 22.5746C16.2558 22.7746 16.2558 22.9999 16.2064 23.1746C16.7064 23.2239 17.1811 23.2239 17.7064 23.2239C18.9811 23.2239 20.2064 23.0999 21.3558 22.8506C21.4995 22.8196 21.626 22.7352 21.7097 22.6143C21.7934 22.4935 21.828 22.3453 21.8064 22.1999L21.5318 19.8999ZM11.9064 17.8746H9.90642C9.2072 17.8739 8.53231 18.1312 8.01098 18.5971C7.48966 19.0631 7.15856 19.705 7.08109 20.3999L6.80642 22.7239C6.78978 22.8686 6.82633 23.0144 6.90925 23.1341C6.99217 23.2538 7.1158 23.3393 7.25709 23.3746C8.40642 23.6252 9.63042 23.7492 10.9064 23.7492C12.1811 23.7492 13.4064 23.6252 14.5571 23.3746C14.7006 23.3434 14.8268 23.2588 14.9102 23.138C14.9937 23.0171 15.028 22.8691 15.0064 22.7239L14.7318 20.3999C14.6537 19.7052 14.3224 19.0637 13.8012 18.5978C13.28 18.1319 12.6055 17.8745 11.9064 17.8746Z" fill="currentColor"/>
<path d="M10.9064 17.1491C12.3835 17.1491 13.581 15.9516 13.581 14.4745C13.581 12.9973 12.3835 11.7998 10.9064 11.7998C9.42918 11.7998 8.23169 12.9973 8.23169 14.4745C8.23169 15.9516 9.42918 17.1491 10.9064 17.1491Z" fill="currentColor"/>
</svg>
