<svg viewBox="0 0 32 32" fill="none" xmlns="http://www.w3.org/2000/svg">
    <path d="M10.4318 8.57468H10.6558C10.5281 9.14963 10.461 9.7364 10.4558 10.3253V13.3493C10.4558 13.7 10.7318 13.9747 11.0825 13.9747H12.1318C12.2142 13.9756 12.2959 13.96 12.3722 13.9289C12.4485 13.8978 12.5177 13.8518 12.576 13.7935C12.6342 13.7353 12.6803 13.666 12.7114 13.5897C12.7425 13.5134 12.758 13.4317 12.7572 13.3493V12.3747H19.0572V13.3493C19.0572 13.7 19.3318 13.9747 19.6812 13.9747H20.7318C20.8142 13.9756 20.8959 13.96 20.9722 13.9289C21.0485 13.8978 21.1177 13.8518 21.176 13.7935C21.2342 13.7353 21.2803 13.666 21.3114 13.5897C21.3425 13.5134 21.358 13.4317 21.3572 13.3493V10.3493C21.3572 9.74935 21.2812 9.17468 21.1572 8.60002H21.3812C21.4635 8.60091 21.5452 8.58534 21.6215 8.55423C21.6978 8.52312 21.7671 8.4771 21.8253 8.41885C21.8836 8.3606 21.9296 8.29131 21.9607 8.21504C21.9918 8.13877 22.0074 8.05705 22.0065 7.97468V7.62402C22.0072 7.54176 21.9915 7.46019 21.9603 7.38407C21.9291 7.30795 21.8831 7.23882 21.8248 7.18072C21.7666 7.12261 21.6974 7.0767 21.6212 7.04568C21.545 7.01465 21.4634 6.99913 21.3812 7.00002H20.5812L20.0572 5.37468C19.9269 4.97382 19.6727 4.62467 19.3313 4.37761C18.9898 4.13054 18.5786 3.99832 18.1572 4.00002H13.6305C12.7558 4.00002 12.0052 4.54935 11.7305 5.37468L11.2052 6.97468H10.4052C10.3228 6.97379 10.2411 6.98936 10.1648 7.02047C10.0885 7.05158 10.0192 7.0976 9.96099 7.15585C9.90274 7.2141 9.85671 7.28339 9.8256 7.35966C9.79449 7.43593 9.77893 7.51765 9.77982 7.60002V7.94935C9.78798 8.11693 9.85992 8.27505 9.98089 8.39132C10.1019 8.50758 10.264 8.57318 10.4318 8.57468ZM19.8065 9.70002V10.3C19.8065 10.5 19.6318 10.6747 19.4318 10.6747H18.1558C18.0977 10.6745 18.0405 10.6611 17.9883 10.6356C17.9361 10.6102 17.8903 10.5732 17.8544 10.5276C17.8185 10.4819 17.7934 10.4288 17.781 10.372C17.7685 10.3153 17.769 10.2565 17.7825 10.2L17.8572 9.80002C17.8722 9.72205 17.9118 9.65093 17.97 9.59698C18.0283 9.54303 18.1023 9.50906 18.1812 9.50002L19.3572 9.30002C19.4134 9.29428 19.4703 9.30031 19.5241 9.31772C19.5779 9.33514 19.6276 9.36355 19.6698 9.40117C19.7121 9.43879 19.746 9.48478 19.7696 9.53622C19.7931 9.58767 19.8057 9.64345 19.8065 9.70002ZM12.9318 5.74935C12.9803 5.60245 13.0742 5.4748 13.2001 5.3849C13.3259 5.295 13.4772 5.24752 13.6318 5.24935H18.1812C18.5065 5.24935 18.7812 5.44935 18.8812 5.74935L19.4812 7.62535C19.5065 7.70002 19.4572 7.79868 19.3572 7.79868H12.4572C12.3572 7.79868 12.3065 7.72535 12.3318 7.62535L12.9318 5.74935ZM12.0065 9.70135C12.0065 9.47602 12.2065 9.27602 12.4558 9.32668L13.6318 9.52668C13.7076 9.54325 13.7777 9.57962 13.8348 9.63209C13.892 9.68456 13.9342 9.75124 13.9572 9.82535L14.0318 10.2253C14.0812 10.476 13.9065 10.7013 13.6558 10.7013H12.3812C12.2825 10.699 12.1886 10.6587 12.1188 10.589C12.0491 10.5192 12.0089 10.4253 12.0065 10.3267V9.70135Z" fill="currentColor"/>
    <path d="M9.10631 20.6237C10.5835 20.6237 11.781 19.4263 11.781 17.9491C11.781 16.4719 10.5835 15.2744 9.10631 15.2744C7.62913 15.2744 6.43164 16.4719 6.43164 17.9491C6.43164 19.4263 7.62913 20.6237 9.10631 20.6237Z" fill="currentColor"/>
    <path d="M11.881 21.9998C11.381 21.6252 10.781 21.3745 10.1063 21.3745H8.10631C7.4071 21.3738 6.7322 21.6311 6.21088 22.0971C5.68955 22.563 5.35845 23.2049 5.28098 23.8998L5.00631 26.2238C4.98469 26.3691 5.01907 26.5171 5.10251 26.6379C5.18594 26.7587 5.31218 26.8433 5.45565 26.8745C6.60631 27.1252 7.83165 27.2492 9.10631 27.2492C9.60631 27.2492 10.1063 27.2252 10.6063 27.1998C10.5556 26.9998 10.5556 26.7998 10.581 26.5998L10.857 24.2745C10.9462 23.4263 11.3051 22.629 11.881 21.9998Z" fill="currentColor"/>
    <path d="M22.7064 20.6237C24.1836 20.6237 25.3811 19.4263 25.3811 17.9491C25.3811 16.4719 24.1836 15.2744 22.7064 15.2744C21.2292 15.2744 20.0317 16.4719 20.0317 17.9491C20.0317 19.4263 21.2292 20.6237 22.7064 20.6237Z" fill="currentColor"/>
    <path d="M26.5318 23.8999C26.458 23.2035 26.128 22.5593 25.6059 22.0927C25.0837 21.626 24.4067 21.37 23.7064 21.3746H21.7064C21.0318 21.3746 20.4318 21.5999 19.9318 21.9999C20.4811 22.5999 20.8571 23.3999 20.9558 24.2492L21.2318 26.5746C21.2558 26.7746 21.2558 26.9999 21.2064 27.1746C21.7064 27.2239 22.1811 27.2239 22.7064 27.2239C23.9811 27.2239 25.2064 27.0999 26.3558 26.8506C26.4995 26.8196 26.626 26.7352 26.7097 26.6143C26.7934 26.4935 26.828 26.3453 26.8064 26.1999L26.5318 23.8999ZM16.9064 21.8746H14.9064C14.2072 21.8739 13.5323 22.1312 13.011 22.5971C12.4897 23.0631 12.1586 23.705 12.0811 24.3999L11.8064 26.7239C11.7898 26.8686 11.8263 27.0144 11.9092 27.1341C11.9922 27.2538 12.1158 27.3393 12.2571 27.3746C13.4064 27.6252 14.6304 27.7492 15.9064 27.7492C17.1811 27.7492 18.4064 27.6252 19.5571 27.3746C19.7006 27.3434 19.8268 27.2588 19.9102 27.138C19.9937 27.0171 20.028 26.8691 20.0064 26.7239L19.7318 24.3999C19.6537 23.7052 19.3224 23.0637 18.8012 22.5978C18.28 22.1319 17.6055 21.8745 16.9064 21.8746Z" fill="currentColor"/>
    <path d="M15.9064 21.1491C17.3835 21.1491 18.581 19.9516 18.581 18.4745C18.581 16.9973 17.3835 15.7998 15.9064 15.7998C14.4292 15.7998 13.2317 16.9973 13.2317 18.4745C13.2317 19.9516 14.4292 21.1491 15.9064 21.1491Z" fill="currentColor"/>
</svg>
