<svg viewBox="0 0 32 32" fill="none" xmlns="http://www.w3.org/2000/svg">
    <path d="M27.362 10.7627C27.4023 10.6145 27.408 10.4591 27.3786 10.3084C27.3492 10.1577 27.2854 10.0158 27.1924 9.8937C27.0993 9.7716 26.9793 9.67258 26.8418 9.60431C26.7043 9.53603 26.5529 9.50034 26.3993 9.5H9.246C9.18805 9.50053 9.13172 9.48085 9.08671 9.44435C9.04169 9.40785 9.0108 9.35681 8.99933 9.3L8.42733 6.58C8.27134 5.85209 7.8712 5.19938 7.29329 4.73012C6.71539 4.26085 5.99443 4.00324 5.25 4C4.91848 4 4.60054 4.1317 4.36612 4.36612C4.1317 4.60054 4 4.91848 4 5.25C4 5.58152 4.1317 5.89946 4.36612 6.13388C4.60054 6.3683 4.91848 6.5 5.25 6.5C5.42251 6.50072 5.58953 6.56074 5.72305 6.66998C5.85657 6.77922 5.94847 6.93105 5.98333 7.1L9.15 22.1693C9.314 22.9427 9.75267 23.628 10.386 24.1C10.416 24.1223 10.4406 24.1512 10.458 24.1843C10.4753 24.2174 10.485 24.2541 10.4863 24.2915C10.4876 24.3289 10.4804 24.3661 10.4654 24.4003C10.4503 24.4346 10.4277 24.465 10.3993 24.4893C10.1165 24.7341 9.90791 25.0534 9.79739 25.4108C9.68686 25.7681 9.67879 26.1494 9.77408 26.5111C9.86937 26.8729 10.0642 27.2007 10.3365 27.4572C10.6087 27.7138 10.9475 27.8888 11.3142 27.9625C11.681 28.0362 12.0611 28.0055 12.4113 27.874C12.7615 27.7424 13.0678 27.5153 13.2954 27.2184C13.523 26.9215 13.6627 26.5667 13.6988 26.1944C13.7348 25.822 13.6657 25.447 13.4993 25.112C13.4802 25.074 13.4711 25.0318 13.4729 24.9893C13.4748 24.9468 13.4876 24.9055 13.51 24.8693C13.5326 24.8331 13.564 24.8032 13.6013 24.7824C13.6387 24.7617 13.6806 24.7508 13.7233 24.7507H19.694C19.7367 24.7505 19.7786 24.7612 19.816 24.7818C19.8533 24.8025 19.8847 24.8324 19.9072 24.8686C19.9296 24.9049 19.9424 24.9463 19.9443 24.9889C19.9462 25.0315 19.9372 25.0739 19.918 25.112C19.7656 25.4174 19.694 25.7568 19.7098 26.0977C19.7257 26.4387 19.8286 26.7699 20.0086 27.0599C20.1887 27.3498 20.44 27.5889 20.7386 27.7543C21.0371 27.9197 21.3731 28.0059 21.7144 28.0048C22.0557 28.0036 22.3911 27.9151 22.6885 27.7477C22.986 27.5803 23.2357 27.3396 23.4138 27.0484C23.5919 26.7573 23.6925 26.4254 23.7061 26.0843C23.7197 25.7433 23.6457 25.4044 23.4913 25.1C23.4725 25.0632 23.4635 25.0222 23.4652 24.981C23.4668 24.9397 23.4791 24.8996 23.5008 24.8644C23.5226 24.8293 23.553 24.8004 23.5892 24.7805C23.6253 24.7605 23.666 24.7503 23.7073 24.7507C24.039 24.7507 24.3571 24.6189 24.5917 24.3844C24.8262 24.1498 24.958 23.8317 24.958 23.5C24.958 23.1683 24.8262 22.8502 24.5917 22.6156C24.3571 22.3811 24.039 22.2493 23.7073 22.2493H12.33C12.1583 22.2486 11.992 22.1893 11.8586 22.0811C11.7253 21.973 11.6328 21.8225 11.5967 21.6547L11.4167 20.8C11.4091 20.7636 11.4098 20.726 11.4186 20.69C11.4275 20.6539 11.4443 20.6202 11.4678 20.5915C11.4913 20.5627 11.5209 20.5396 11.5545 20.5238C11.5881 20.5079 11.6249 20.4998 11.662 20.5H22.4167C23.0746 20.4998 23.7143 20.2833 24.2371 19.8838C24.7599 19.4844 25.1369 18.9241 25.31 18.2893L27.362 10.7627Z" fill="currentColor"/>
</svg>
