<svg viewBox="0 0 24 24" fill="none" xmlns="http://www.w3.org/2000/svg">
<path d="M23.362 6.76267C23.4023 6.61452 23.408 6.45908 23.3786 6.30839C23.3492 6.15769 23.2854 6.0158 23.1924 5.8937C23.0993 5.7716 22.9793 5.67258 22.8418 5.60431C22.7043 5.53603 22.5529 5.50034 22.3993 5.5H5.246C5.18805 5.50053 5.13172 5.48085 5.08671 5.44435C5.04169 5.40785 5.0108 5.35681 4.99933 5.3L4.42733 2.58C4.27134 1.85209 3.8712 1.19938 3.29329 0.730115C2.71539 0.260853 1.99443 0.00323856 1.25 0C0.918479 0 0.600537 0.131696 0.366117 0.366117C0.131696 0.600537 0 0.918479 0 1.25C0 1.58152 0.131696 1.89946 0.366117 2.13388C0.600537 2.3683 0.918479 2.5 1.25 2.5C1.42251 2.50072 1.58953 2.56074 1.72305 2.66998C1.85657 2.77922 1.94847 2.93105 1.98333 3.1L5.15 18.1693C5.314 18.9427 5.75267 19.628 6.386 20.1C6.41601 20.1223 6.44061 20.1512 6.45797 20.1843C6.47533 20.2174 6.48501 20.2541 6.48629 20.2915C6.48757 20.3289 6.48042 20.3661 6.46537 20.4003C6.45032 20.4346 6.42775 20.465 6.39933 20.4893C6.11646 20.7341 5.90791 21.0534 5.79739 21.4108C5.68686 21.7681 5.67879 22.1494 5.77408 22.5111C5.86937 22.8729 6.06422 23.2007 6.33647 23.4572C6.60873 23.7138 6.94748 23.8888 7.31425 23.9625C7.68102 24.0362 8.06109 24.0055 8.4113 23.874C8.76151 23.7424 9.0678 23.5153 9.29539 23.2184C9.52298 22.9215 9.66274 22.5667 9.69879 22.1944C9.73484 21.822 9.66574 21.447 9.49933 21.112C9.48015 21.074 9.47106 21.0318 9.47292 20.9893C9.47479 20.9468 9.48756 20.9055 9.51 20.8693C9.53259 20.8331 9.56402 20.8032 9.60134 20.7824C9.63865 20.7617 9.68063 20.7508 9.72333 20.7507H15.694C15.7367 20.7505 15.7786 20.7612 15.816 20.7818C15.8533 20.8025 15.8847 20.8324 15.9072 20.8686C15.9296 20.9049 15.9424 20.9463 15.9443 20.9889C15.9462 21.0315 15.9372 21.0739 15.918 21.112C15.7656 21.4174 15.694 21.7568 15.7098 22.0977C15.7257 22.4387 15.8286 22.7699 16.0086 23.0599C16.1887 23.3498 16.44 23.5889 16.7386 23.7543C17.0371 23.9197 17.3731 24.0059 17.7144 24.0048C18.0557 24.0036 18.3911 23.9151 18.6885 23.7477C18.986 23.5803 19.2357 23.3396 19.4138 23.0484C19.5919 22.7573 19.6925 22.4254 19.7061 22.0843C19.7197 21.7433 19.6457 21.4044 19.4913 21.1C19.4725 21.0632 19.4635 21.0222 19.4652 20.981C19.4668 20.9397 19.4791 20.8996 19.5008 20.8644C19.5226 20.8293 19.553 20.8004 19.5892 20.7805C19.6253 20.7605 19.666 20.7503 19.7073 20.7507C20.039 20.7507 20.3571 20.6189 20.5917 20.3844C20.8262 20.1498 20.958 19.8317 20.958 19.5C20.958 19.1683 20.8262 18.8502 20.5917 18.6156C20.3571 18.3811 20.039 18.2493 19.7073 18.2493H8.33C8.1583 18.2486 7.99198 18.1893 7.85862 18.0811C7.72525 17.973 7.63283 17.8225 7.59667 17.6547L7.41667 16.8C7.40912 16.7636 7.40979 16.726 7.41864 16.69C7.42748 16.6539 7.44427 16.6202 7.46779 16.5915C7.4913 16.5627 7.52094 16.5396 7.55454 16.5238C7.58814 16.5079 7.62486 16.4998 7.662 16.5H18.4167C19.0746 16.4998 19.7143 16.2833 20.2371 15.8838C20.7599 15.4844 21.1369 14.9241 21.31 14.2893L23.362 6.76267Z" fill="currentColor"/>
</svg>
