<svg viewBox="0 0 32 32" fill="none" xmlns="http://www.w3.org/2000/svg">
    <path d="M4.89937 4.07743C5.23712 3.95793 5.60823 3.97736 5.93177 4.1315C6.25532 4.28564 6.50506 4.56197 6.62654 4.90026L7.86265 8.37473C7.8872 8.44303 7.89502 8.51626 7.88543 8.58824C7.87585 8.66022 7.84915 8.72882 7.80759 8.78824C7.76603 8.84767 7.71083 8.89617 7.64666 8.92965C7.58249 8.96312 7.51123 8.98059 7.43892 8.98058H5.52233C5.4293 8.9806 5.33856 8.95159 5.26265 8.89758C5.18674 8.84357 5.12942 8.76721 5.0986 8.67906L4.07997 5.81326C4.02007 5.64527 3.99375 5.46706 4.00253 5.28884C4.0113 5.11063 4.05499 4.9359 4.1311 4.77466C4.20722 4.61342 4.31425 4.46884 4.44608 4.3492C4.57791 4.22956 4.73195 4.13721 4.89937 4.07743ZM14.1498 19.5787C13.9558 19.6284 13.7838 19.7415 13.6609 19.9002C13.5379 20.0588 13.471 20.254 13.4707 20.4551V24.3776C13.4707 24.8778 13.8748 25.2835 14.3729 25.2835H16.1772C16.5359 25.2835 16.88 25.4266 17.1336 25.6814C17.3873 25.9361 17.5298 26.2815 17.5298 26.6418C17.5298 27.002 17.3873 27.3475 17.1336 27.6022C16.88 27.8569 16.5359 28 16.1772 28H8.05908C7.70036 28 7.35633 27.8569 7.10267 27.6022C6.84902 27.3475 6.70652 27.002 6.70652 26.6418C6.70652 26.2815 6.84902 25.9361 7.10267 25.6814C7.35633 25.4266 7.70036 25.2835 8.05908 25.2835H9.86342C10.1027 25.2835 10.3322 25.1881 10.5014 25.0182C10.6705 24.8483 10.7656 24.6179 10.7656 24.3776V20.4551C10.7656 20.0422 10.485 19.6801 10.0865 19.5787C8.34621 19.127 6.80442 18.108 5.70291 16.6816C4.60139 15.2552 4.00245 13.5021 4 11.697C4 11.1969 4.40408 10.7911 4.90217 10.7911H19.3341C19.8322 10.7911 20.2363 11.1969 20.2363 11.697C20.2339 13.5021 19.6349 15.2552 18.5334 16.6816C17.4319 18.108 15.8901 19.127 14.1498 19.5787ZM21.5889 16.2254C21.5213 16.2258 21.4547 16.2094 21.395 16.1777C21.3352 16.146 21.2842 16.0999 21.2465 16.0436C21.2101 15.9863 21.1881 15.921 21.1825 15.8532C21.1769 15.7855 21.1878 15.7174 21.2142 15.6548C21.7593 14.4067 22.0402 13.0585 22.0392 11.6956C22.0389 10.9753 21.7538 10.2846 21.2465 9.77521C20.7393 9.26586 20.0515 8.97954 19.3341 8.97917H17.1945C17.1171 8.97948 17.041 8.95972 16.9735 8.92182C16.906 8.88391 16.8494 8.82914 16.8092 8.76281C16.769 8.69648 16.7465 8.62084 16.7439 8.54322C16.7414 8.4656 16.7588 8.38863 16.7946 8.31978C17.2336 7.46276 17.892 6.73865 18.7021 6.22196C19.5123 5.70527 20.4449 5.41465 21.404 5.38C22.3631 5.34535 23.3141 5.56792 24.1591 6.02481C25.0041 6.4817 25.7126 7.15642 26.2118 7.97955C26.711 8.80268 26.9828 9.74449 26.9992 10.7081C27.0156 11.6717 26.7761 12.6223 26.3053 13.4621C25.8345 14.3019 25.1493 15.0006 24.3204 15.4863C23.4914 15.9719 22.5486 16.2271 21.5889 16.2254Z" fill="currentColor"/>
</svg>
