<svg viewBox="0 0 23 24" fill="none" xmlns="http://www.w3.org/2000/svg">
<path d="M0.899367 0.0774285C1.23712 -0.042073 1.60823 -0.0226366 1.93177 0.1315C2.25532 0.285636 2.50506 0.561972 2.62654 0.900256L3.86265 4.37473C3.8872 4.44303 3.89502 4.51626 3.88543 4.58824C3.87585 4.66022 3.84915 4.72882 3.80759 4.78824C3.76603 4.84767 3.71083 4.89617 3.64666 4.92965C3.58249 4.96312 3.51123 4.98059 3.43892 4.98058H1.52233C1.4293 4.9806 1.33856 4.95159 1.26265 4.89758C1.18674 4.84357 1.12942 4.76721 1.0986 4.67906L0.0799749 1.81326C0.0200712 1.64527 -0.0062474 1.46706 0.00252619 1.28884C0.0112998 1.11063 0.0549933 0.935897 0.131105 0.77466C0.207216 0.613423 0.314251 0.468845 0.44608 0.349203C0.57791 0.229562 0.731945 0.137208 0.899367 0.0774285ZM10.1498 15.5787C9.95582 15.6284 9.78381 15.7415 9.66087 15.9002C9.53793 16.0588 9.47103 16.254 9.47071 16.4551V20.3776C9.47071 20.8778 9.87479 21.2835 10.3729 21.2835H12.1772C12.5359 21.2835 12.88 21.4266 13.1336 21.6814C13.3873 21.9361 13.5298 22.2815 13.5298 22.6418C13.5298 23.002 13.3873 23.3475 13.1336 23.6022C12.88 23.8569 12.5359 24 12.1772 24H4.05908C3.70036 24 3.35633 23.8569 3.10267 23.6022C2.84902 23.3475 2.70652 23.002 2.70652 22.6418C2.70652 22.2815 2.84902 21.9361 3.10267 21.6814C3.35633 21.4266 3.70036 21.2835 4.05908 21.2835H5.86342C6.10269 21.2835 6.33216 21.1881 6.50135 21.0182C6.67054 20.8483 6.76559 20.6179 6.76559 20.3776V16.4551C6.76559 16.0422 6.48498 15.6801 6.08651 15.5787C4.34621 15.127 2.80442 14.108 1.70291 12.6816C0.601392 11.2552 0.00244935 9.50206 0 7.69703C0 7.19686 0.404084 6.79108 0.902173 6.79108H15.3341C15.8322 6.79108 16.2363 7.19686 16.2363 7.69703C16.2339 9.50206 15.6349 11.2552 14.5334 12.6816C13.4319 14.108 11.8901 15.127 10.1498 15.5787ZM17.5889 12.2254C17.5213 12.2258 17.4547 12.2094 17.395 12.1777C17.3352 12.146 17.2842 12.0999 17.2465 12.0436C17.2101 11.9863 17.1881 11.921 17.1825 11.8532C17.1769 11.7855 17.1878 11.7174 17.2142 11.6548C17.7593 10.4067 18.0402 9.05847 18.0392 7.69562C18.0389 6.97529 17.7538 6.28457 17.2465 5.77521C16.7393 5.26586 16.0515 4.97954 15.3341 4.97917H13.1945C13.1171 4.97948 13.041 4.95972 12.9735 4.92182C12.906 4.88391 12.8494 4.82914 12.8092 4.76281C12.769 4.69648 12.7465 4.62084 12.7439 4.54322C12.7414 4.4656 12.7588 4.38863 12.7946 4.31978C13.2336 3.46276 13.892 2.73865 14.7021 2.22196C15.5123 1.70527 16.4449 1.41465 17.404 1.38C18.3631 1.34535 19.3141 1.56792 20.1591 2.02481C21.0041 2.4817 21.7126 3.15642 22.2118 3.97955C22.711 4.80268 22.9828 5.74449 22.9992 6.7081C23.0156 7.67171 22.7761 8.62231 22.3053 9.46211C21.8345 10.3019 21.1493 11.0006 20.3204 11.4863C19.4914 11.9719 18.5486 12.2271 17.5889 12.2254Z" fill="currentColor"/>
</svg>
