<svg viewBox="0 0 14 14" fill="none" xmlns="http://www.w3.org/2000/svg">
<path d="M4.20012 4.20012C5.9675 4.20012 7.40024 3.48375 7.40024 2.60006C7.40024 1.71637 5.9675 1 4.20012 1C2.43274 1 1 1.71637 1 2.60006C1 3.48375 2.43274 4.20012 4.20012 4.20012Z" stroke="currentColor" stroke-linecap="round" stroke-linejoin="round"/>
<path d="M7.40039 4.73333V2.59991" stroke="currentColor" stroke-linecap="round" stroke-linejoin="round"/>
<path d="M1 2.59991V10.6002C1 11.4856 2.43472 12.2003 4.20012 12.2003C4.50175 12.2013 4.80303 12.1799 5.10148 12.1363" stroke="currentColor" stroke-linecap="round" stroke-linejoin="round"/>
<path d="M1 8.60013C1 9.48549 2.43472 10.2002 4.20012 10.2002C4.50896 10.1994 4.81733 10.1762 5.12282 10.1309" stroke="currentColor" stroke-linecap="round" stroke-linejoin="round"/>
<path d="M1 6.60004C1 7.4854 2.43472 8.2001 4.20012 8.2001C4.50175 8.20117 4.80303 8.17978 5.10148 8.13609" stroke="currentColor" stroke-linecap="round" stroke-linejoin="round"/>
<path d="M1 4.59998C1 5.48534 2.43472 6.20003 4.20012 6.20003C4.50896 6.19922 4.81733 6.17604 5.12282 6.1307" stroke="currentColor" stroke-linecap="round" stroke-linejoin="round"/>
<path d="M9.80168 9.13335C11.5691 9.13335 13.0018 8.41698 13.0018 7.53329C13.0018 6.6496 11.5691 5.93323 9.80168 5.93323C8.0343 5.93323 6.60156 6.6496 6.60156 7.53329C6.60156 8.41698 8.0343 9.13335 9.80168 9.13335Z" stroke="currentColor" stroke-linecap="round" stroke-linejoin="round"/>
<path d="M6.60156 7.53314V11.4C6.60156 12.2853 8.03628 13 9.80168 13C11.5671 13 13.0018 12.2853 13.0018 11.4V7.53314" stroke="currentColor" stroke-linecap="round" stroke-linejoin="round"/>
<path d="M13.0018 9.40015C13.0018 10.2855 11.5671 11.0002 9.80168 11.0002C8.03628 11.0002 6.60156 10.2855 6.60156 9.40015" stroke="currentColor" stroke-linecap="round" stroke-linejoin="round"/>
</svg>
