<svg viewBox="0 0 19 18" fill="none" xmlns="http://www.w3.org/2000/svg">
<path d="M9.07469 13.5C8.78449 13.5 8.50617 13.3946 8.30096 13.2071C8.09575 13.0196 7.98047 12.7652 7.98047 12.5V7.5C7.98047 7.23478 8.09575 6.98043 8.30096 6.79289C8.50617 6.60536 8.78449 6.5 9.07469 6.5H16.7343C17.0245 6.5 17.3028 6.60536 17.508 6.79289C17.7132 6.98043 17.8285 7.23478 17.8285 7.5V12.5C17.8285 12.7652 17.7132 13.0196 17.508 13.2071C17.3028 13.3946 17.0245 13.5 16.7343 13.5H15.64V16.5L12.3574 13.5H9.07469Z" stroke="currentColor" stroke-width="1.5" stroke-linecap="round" stroke-linejoin="round"/>
<path d="M5.79096 9.5L3.60251 11.5V8.5H2.50829C2.21808 8.5 1.93976 8.39464 1.73455 8.20711C1.52935 8.01957 1.41406 7.76522 1.41406 7.5V2.5C1.41406 2.23478 1.52935 1.98043 1.73455 1.79289C1.93976 1.60536 2.21808 1.5 2.50829 1.5H10.1679C10.4581 1.5 10.7364 1.60536 10.9416 1.79289C11.1468 1.98043 11.2621 2.23478 11.2621 2.5V4.5" stroke="currentColor" stroke-width="1.5" stroke-linecap="round" stroke-linejoin="round"/>
</svg>
