<svg viewBox="0 0 32 32" fill="none" xmlns="http://www.w3.org/2000/svg">
    <path d="M13.9949 20.2076C14.5072 19.7459 15.1298 19.4239 15.8027 19.2725C14.9041 18.3706 14.4 17.149 14.4008 15.8759C14.4008 13.7245 15.8027 11.9168 17.7351 11.2629V4.90458C17.7351 4.66491 17.64 4.43503 17.4707 4.26543C17.3013 4.09583 17.0716 4.00037 16.8319 4H7.4814C7.24173 4 7.01186 4.09511 6.84225 4.26445C6.67265 4.4338 6.57719 4.66352 6.57682 4.90319V20.6439C6.49416 20.6439 6.41488 20.6768 6.35643 20.7352C6.29797 20.7937 6.26514 20.873 6.26514 20.9556V21.953C6.26514 22.1095 6.38981 22.2647 6.57682 22.2647H12.7177C12.938 21.471 13.3813 20.7571 13.9949 20.2076ZM14.4313 6.14993C14.4313 5.99478 14.5559 5.83824 14.7429 5.83824H15.6461C15.8027 5.83824 15.9592 5.96292 15.9592 6.14993V7.0545C15.9592 7.20965 15.8345 7.36619 15.6461 7.36619H14.7429C14.6603 7.36619 14.581 7.33335 14.5226 7.2749C14.4641 7.21645 14.4313 7.13717 14.4313 7.0545V6.14993ZM14.4313 9.11162C14.4313 8.95508 14.5559 8.79994 14.7429 8.79994H15.6461C15.8027 8.79994 15.9592 8.92461 15.9592 9.11162V10.0148C15.9592 10.1713 15.8345 10.3279 15.6461 10.3279H14.7429C14.6603 10.3279 14.581 10.295 14.5226 10.2366C14.4641 10.1781 14.4313 10.0989 14.4313 10.0162V9.11162ZM11.4391 6.14993C11.4391 5.99478 11.5638 5.83824 11.7508 5.83824H12.6235C12.78 5.83824 12.9352 5.96292 12.9352 6.14993V7.0545C12.9352 7.20965 12.8105 7.36619 12.6235 7.36619H11.7203C11.6793 7.36637 11.6386 7.35844 11.6006 7.34286C11.5626 7.32728 11.5281 7.30435 11.499 7.27539C11.4699 7.24643 11.4468 7.21201 11.4311 7.1741C11.4153 7.1362 11.4072 7.09555 11.4072 7.0545V6.14993H11.4391ZM11.4391 9.11162C11.4391 8.95508 11.5638 8.79994 11.7508 8.79994H12.6235C12.78 8.79994 12.9352 8.92461 12.9352 9.11162V10.0148C12.9352 10.1713 12.8105 10.3279 12.6235 10.3279H11.7203C11.6793 10.3281 11.6386 10.3201 11.6006 10.3046C11.5626 10.289 11.5281 10.266 11.499 10.2371C11.4699 10.2081 11.4468 10.1737 11.4311 10.1358C11.4153 10.0979 11.4072 10.0572 11.4072 10.0162V9.11162H11.4391ZM11.4391 12.1038C11.4391 11.9486 11.5638 11.7921 11.7508 11.7921H12.6235C12.78 11.7921 12.9352 11.9168 12.9352 12.1038V13.0084C12.9352 13.1635 12.8105 13.3187 12.6235 13.3187H11.7203C11.6794 13.3188 11.6388 13.311 11.6009 13.2955C11.563 13.28 11.5286 13.2572 11.4995 13.2284C11.4704 13.1995 11.4473 13.1653 11.4315 13.1275C11.4157 13.0898 11.4074 13.0493 11.4072 13.0084V12.1038H11.4391ZM11.4391 15.0655C11.4391 14.9089 11.5638 14.7524 11.7508 14.7524H12.6235C12.78 14.7524 12.9352 14.8771 12.9352 15.0655V15.9687C12.9352 16.1252 12.8105 16.2804 12.6235 16.2804H11.7203C11.6793 16.2805 11.6386 16.2726 11.6006 16.257C11.5626 16.2414 11.5281 16.2185 11.499 16.1896C11.4699 16.1606 11.4468 16.1262 11.4311 16.0883C11.4153 16.0504 11.4072 16.0097 11.4072 15.9687V15.0655H11.4391ZM9.97348 18.9608C9.97348 19.1174 9.84881 19.2725 9.66319 19.2725H8.75861C8.67595 19.2725 8.59667 19.2397 8.53822 19.1812C8.47976 19.1228 8.44693 19.0435 8.44693 18.9608V18.0576C8.44693 17.9011 8.5716 17.7446 8.75861 17.7446H9.6618C9.81834 17.7446 9.97348 17.8693 9.97348 18.0576V18.9608ZM9.97348 15.9687C9.97348 16.1252 9.84881 16.2804 9.66319 16.2804H8.75861C8.67595 16.2804 8.59667 16.2475 8.53822 16.1891C8.47976 16.1306 8.44693 16.0513 8.44693 15.9687V15.0655C8.44693 14.9089 8.5716 14.7524 8.75861 14.7524H9.6618C9.81834 14.7524 9.97348 14.8771 9.97348 15.0655V15.9687ZM9.97348 12.9765C9.97348 13.133 9.84881 13.2882 9.66319 13.2882H8.75861C8.67595 13.2882 8.59667 13.2553 8.53822 13.1969C8.47976 13.1384 8.44693 13.0592 8.44693 12.9765V12.0733C8.44693 11.9168 8.5716 11.7602 8.75861 11.7602H9.6618C9.81834 11.7602 9.97348 11.8849 9.97348 12.0719V12.9765ZM9.97348 10.0162C9.97348 10.1713 9.84881 10.3265 9.66319 10.3265H8.75861C8.67619 10.3265 8.59712 10.2938 8.5387 10.2357C8.48029 10.1775 8.44729 10.0986 8.44693 10.0162V9.11162C8.44693 8.95508 8.5716 8.79994 8.75861 8.79994H9.6618C9.81834 8.79994 9.97348 8.92461 9.97348 9.11162V10.0162ZM9.97348 7.0545C9.97348 7.20965 9.84881 7.36619 9.66319 7.36619H8.75861C8.67595 7.36619 8.59667 7.33335 8.53822 7.2749C8.47976 7.21645 8.44693 7.13717 8.44693 7.0545V6.14993C8.44693 5.99478 8.5716 5.83824 8.75861 5.83824H9.6618C9.81834 5.83824 9.97348 5.96292 9.97348 6.14993V7.0545ZM11.7508 19.2407C11.6684 19.2407 11.5893 19.208 11.5309 19.1499C11.4725 19.0917 11.4395 19.0128 11.4391 18.9304V18.0258C11.4391 17.8706 11.5638 17.7141 11.7508 17.7141H12.6235C12.78 17.7141 12.9352 17.8388 12.9352 18.0258V18.9304C12.9352 19.0855 12.8105 19.242 12.6235 19.242H11.7508V19.2407ZM25.8389 26.4717L25.0285 22.8881C24.6545 21.205 23.3773 20.051 21.6942 20.0829C21.5377 20.0829 21.413 20.1757 21.3506 20.3322L20.1039 24.042L19.6676 21.8283H19.7299C19.885 21.8283 20.0097 21.7037 20.0097 21.5471V20.7991C20.0097 20.7249 19.9802 20.6537 19.9278 20.6012C19.8753 20.5487 19.8041 20.5193 19.7299 20.5193H18.7644C18.7274 20.5191 18.6907 20.5262 18.6565 20.5403C18.6223 20.5544 18.5913 20.5751 18.5651 20.6012C18.539 20.6274 18.5183 20.6584 18.5042 20.6926C18.4901 20.7268 18.483 20.7635 18.4832 20.8005V21.5485C18.4832 21.7037 18.6078 21.8283 18.7644 21.8283H18.8267L18.389 24.042L17.1422 20.3322C17.0799 20.1757 16.9552 20.0829 16.8001 20.0829C15.117 20.051 13.8384 21.2354 13.4643 22.8881L12.654 26.4413C12.6112 26.6283 12.6112 26.8226 12.6541 27.0096C12.6969 27.1966 12.7813 27.3716 12.9012 27.5214C13.021 27.6712 13.1732 27.792 13.3462 27.8748C13.5193 27.9577 13.7088 28.0003 13.9007 27.9997H24.5922C24.7822 28.004 24.9707 27.9649 25.1433 27.8854C25.3159 27.8059 25.4681 27.6881 25.5883 27.5409C25.7086 27.3937 25.7936 27.221 25.837 27.036C25.8804 26.8509 25.8811 26.6584 25.8389 26.4731V26.4717Z" fill="currentColor"/>
    <path d="M19.2309 19.803C21.3999 19.803 23.1582 18.0448 23.1582 15.8758C23.1582 13.7069 21.3999 11.9486 19.2309 11.9486C17.062 11.9486 15.3037 13.7069 15.3037 15.8758C15.3037 18.0448 17.062 19.803 19.2309 19.803Z" fill="currentColor"/>
</svg>
