<svg viewBox="0 0 20 24" fill="none" xmlns="http://www.w3.org/2000/svg">
<path d="M7.9949 16.2076C8.50724 15.7459 9.12981 15.4239 9.80267 15.2725C8.90411 14.3706 8.39995 13.149 8.40078 11.8759C8.40078 9.72454 9.80267 7.91678 11.7351 7.26293V0.904576C11.7351 0.664908 11.64 0.435035 11.4707 0.265434C11.3013 0.0958323 11.0716 0.000367027 10.8319 0H1.4814C1.24173 -2.81031e-07 1.01186 0.0951128 0.842254 0.264454C0.672653 0.433796 0.577188 0.663523 0.576821 0.903191V16.6439C0.494157 16.6439 0.414879 16.6768 0.356427 16.7352C0.297975 16.7937 0.265137 16.873 0.265137 16.9556V17.953C0.265137 18.1095 0.38981 18.2647 0.576821 18.2647H6.71769C6.93801 17.471 7.38126 16.7571 7.9949 16.2076ZM8.43126 2.14993C8.43126 1.99478 8.55593 1.83824 8.74294 1.83824H9.64614C9.80267 1.83824 9.9592 1.96292 9.9592 2.14993V3.0545C9.9592 3.20965 9.83453 3.36619 9.64614 3.36619H8.74294C8.66028 3.36619 8.581 3.33335 8.52255 3.2749C8.4641 3.21645 8.43126 3.13717 8.43126 3.0545V2.14993ZM8.43126 5.11162C8.43126 4.95508 8.55593 4.79994 8.74294 4.79994H9.64614C9.80267 4.79994 9.9592 4.92461 9.9592 5.11162V6.01481C9.9592 6.17135 9.83453 6.32788 9.64614 6.32788H8.74294C8.66028 6.32788 8.581 6.29504 8.52255 6.23659C8.4641 6.17814 8.43126 6.09886 8.43126 6.0162V5.11162ZM5.43909 2.14993C5.43909 1.99478 5.56377 1.83824 5.75078 1.83824H6.62349C6.78003 1.83824 6.93518 1.96292 6.93518 2.14993V3.0545C6.93518 3.20965 6.8105 3.36619 6.62349 3.36619H5.7203C5.67925 3.36637 5.63858 3.35844 5.6006 3.34286C5.56262 3.32728 5.5281 3.30435 5.49901 3.27539C5.46992 3.24643 5.44684 3.21201 5.43109 3.1741C5.41534 3.1362 5.40723 3.09555 5.40723 3.0545V2.14993H5.43909ZM5.43909 5.11162C5.43909 4.95508 5.56377 4.79994 5.75078 4.79994H6.62349C6.78003 4.79994 6.93518 4.92461 6.93518 5.11162V6.01481C6.93518 6.17135 6.8105 6.32788 6.62349 6.32788H5.7203C5.67925 6.32806 5.63858 6.32014 5.6006 6.30455C5.56262 6.28897 5.5281 6.26604 5.49901 6.23708C5.46992 6.20812 5.44684 6.1737 5.43109 6.13579C5.41534 6.09789 5.40723 6.05724 5.40723 6.0162V5.11162H5.43909ZM5.43909 8.10379C5.43909 7.94864 5.56377 7.7921 5.75078 7.7921H6.62349C6.78003 7.7921 6.93518 7.91678 6.93518 8.10379V9.00836C6.93518 9.16351 6.8105 9.31866 6.62349 9.31866H5.7203C5.67937 9.31884 5.6388 9.31096 5.60092 9.29547C5.56303 9.27997 5.52857 9.25717 5.4995 9.22835C5.47043 9.19954 5.44732 9.16528 5.43149 9.12753C5.41566 9.08979 5.40741 9.04929 5.40723 9.00836V8.10379H5.43909ZM5.43909 11.0655C5.43909 10.9089 5.56377 10.7524 5.75078 10.7524H6.62349C6.78003 10.7524 6.93518 10.8771 6.93518 11.0655V11.9687C6.93518 12.1252 6.8105 12.2804 6.62349 12.2804H5.7203C5.67925 12.2805 5.63858 12.2726 5.6006 12.257C5.56262 12.2414 5.5281 12.2185 5.49901 12.1896C5.46992 12.1606 5.44684 12.1262 5.43109 12.0883C5.41534 12.0504 5.40723 12.0097 5.40723 11.9687V11.0655H5.43909ZM3.97348 14.9608C3.97348 15.1174 3.84881 15.2725 3.66319 15.2725H2.75861C2.67595 15.2725 2.59667 15.2397 2.53822 15.1812C2.47976 15.1228 2.44693 15.0435 2.44693 14.9608V14.0576C2.44693 13.9011 2.5716 13.7446 2.75861 13.7446H3.6618C3.81834 13.7446 3.97348 13.8693 3.97348 14.0576V14.9608ZM3.97348 11.9687C3.97348 12.1252 3.84881 12.2804 3.66319 12.2804H2.75861C2.67595 12.2804 2.59667 12.2475 2.53822 12.1891C2.47976 12.1306 2.44693 12.0513 2.44693 11.9687V11.0655C2.44693 10.9089 2.5716 10.7524 2.75861 10.7524H3.6618C3.81834 10.7524 3.97348 10.8771 3.97348 11.0655V11.9687ZM3.97348 8.9765C3.97348 9.13304 3.84881 9.28819 3.66319 9.28819H2.75861C2.67595 9.28819 2.59667 9.25535 2.53822 9.1969C2.47976 9.13844 2.44693 9.05917 2.44693 8.9765V8.07331C2.44693 7.91678 2.5716 7.76024 2.75861 7.76024H3.6618C3.81834 7.76024 3.97348 7.88492 3.97348 8.07193V8.9765ZM3.97348 6.0162C3.97348 6.17135 3.84881 6.32649 3.66319 6.32649H2.75861C2.67619 6.3265 2.59712 6.29385 2.5387 6.23569C2.48029 6.17754 2.44729 6.09862 2.44693 6.0162V5.11162C2.44693 4.95508 2.5716 4.79994 2.75861 4.79994H3.6618C3.81834 4.79994 3.97348 4.92461 3.97348 5.11162V6.0162ZM3.97348 3.0545C3.97348 3.20965 3.84881 3.36619 3.66319 3.36619H2.75861C2.67595 3.36619 2.59667 3.33335 2.53822 3.2749C2.47976 3.21645 2.44693 3.13717 2.44693 3.0545V2.14993C2.44693 1.99478 2.5716 1.83824 2.75861 1.83824H3.6618C3.81834 1.83824 3.97348 1.96292 3.97348 2.14993V3.0545ZM5.75078 15.2407C5.66835 15.2407 5.58928 15.208 5.53087 15.1499C5.47246 15.0917 5.43946 15.0128 5.43909 14.9304V14.0258C5.43909 13.8706 5.56377 13.7141 5.75078 13.7141H6.62349C6.78003 13.7141 6.93518 13.8388 6.93518 14.0258V14.9304C6.93518 15.0855 6.8105 15.242 6.62349 15.242H5.75078V15.2407ZM19.8389 22.4717L19.0285 18.8881C18.6545 17.205 17.3773 16.051 15.6942 16.0829C15.5377 16.0829 15.413 16.1757 15.3506 16.3322L14.1039 20.042L13.6676 17.8283H13.7299C13.885 17.8283 14.0097 17.7037 14.0097 17.5471V16.7991C14.0097 16.7249 13.9802 16.6537 13.9278 16.6012C13.8753 16.5487 13.8041 16.5193 13.7299 16.5193H12.7644C12.7274 16.5191 12.6907 16.5262 12.6565 16.5403C12.6223 16.5544 12.5913 16.5751 12.5651 16.6012C12.539 16.6274 12.5183 16.6584 12.5042 16.6926C12.4901 16.7268 12.483 16.7635 12.4832 16.8005V17.5485C12.4832 17.7037 12.6078 17.8283 12.7644 17.8283H12.8267L12.389 20.042L11.1422 16.3322C11.0799 16.1757 10.9552 16.0829 10.8001 16.0829C9.11697 16.051 7.83837 17.2354 7.46435 18.8881L6.65397 22.4413C6.61122 22.6283 6.61124 22.8226 6.65405 23.0096C6.69686 23.1966 6.78134 23.3716 6.90119 23.5214C7.02105 23.6712 7.17318 23.792 7.34625 23.8748C7.51931 23.9577 7.70884 24.0003 7.9007 23.9997H18.5922C18.7822 24.004 18.9707 23.9649 19.1433 23.8854C19.3159 23.8059 19.4681 23.6881 19.5883 23.5409C19.7086 23.3937 19.7936 23.221 19.837 23.036C19.8804 22.8509 19.8811 22.6584 19.8389 22.4731V22.4717Z" fill="currentColor"/>
<path d="M13.2309 15.803C15.3999 15.803 17.1582 14.0448 17.1582 11.8758C17.1582 9.70688 15.3999 7.94861 13.2309 7.94861C11.062 7.94861 9.30371 9.70688 9.30371 11.8758C9.30371 14.0448 11.062 15.803 13.2309 15.803Z" fill="currentColor"/>
</svg>
