<svg viewBox="0 0 32 32" fill="none" xmlns="http://www.w3.org/2000/svg">
    <path d="M20.0107 13.364C19.9811 13.2594 19.9183 13.1673 19.8316 13.1016C19.745 13.0359 19.6394 13.0002 19.5307 13H12.4573C12.3482 12.9997 12.2419 13.0351 12.1548 13.1008C12.0676 13.1665 12.0044 13.259 11.9747 13.364L10.5627 18.364C10.5416 18.4384 10.5381 18.5166 10.5525 18.5926C10.5668 18.6685 10.5985 18.7401 10.6451 18.8017C10.6918 18.8634 10.7521 18.9133 10.8213 18.9477C10.8905 18.9821 10.9667 19 11.044 19H20.944C21.0212 18.9998 21.0973 18.9818 21.1663 18.9473C21.2353 18.9128 21.2955 18.8628 21.3419 18.8012C21.3884 18.7396 21.42 18.6681 21.4343 18.5922C21.4485 18.5164 21.445 18.4383 21.424 18.364L20.0107 13.364ZM27 26H23.972C23.8633 25.9998 23.7576 25.9641 23.671 25.8984C23.5844 25.8327 23.5216 25.7406 23.492 25.636L22.5627 22.364C22.5331 22.2594 22.4703 22.1673 22.3836 22.1016C22.297 22.0359 22.1914 22.0002 22.0827 22H9.912C9.80307 22 9.69711 22.0355 9.61023 22.1012C9.52334 22.1669 9.4603 22.2592 9.43067 22.364L8.50533 25.636C8.47577 25.7406 8.41292 25.8327 8.3263 25.8984C8.23969 25.9641 8.13403 25.9998 8.02533 26H5C4.73478 26 4.48043 26.1054 4.29289 26.2929C4.10536 26.4804 4 26.7348 4 27C4 27.2652 4.10536 27.5196 4.29289 27.7071C4.48043 27.8946 4.73478 28 5 28H27C27.2652 28 27.5196 27.8946 27.7071 27.7071C27.8946 27.5196 28 27.2652 28 27C28 26.7348 27.8946 26.4804 27.7071 26.2929C27.5196 26.1054 27.2652 26 27 26ZM18.4 10C18.4772 9.99982 18.5533 9.98178 18.6223 9.9473C18.6913 9.91281 18.7515 9.8628 18.7979 9.8012C18.8444 9.73961 18.876 9.66808 18.8903 9.59223C18.9045 9.51638 18.901 9.43826 18.88 9.364L17.7267 5.30533C17.6194 4.92993 17.3929 4.59959 17.0815 4.36413C16.77 4.12868 16.3904 4.00087 16 4C15.6034 4.00099 15.2179 4.13095 14.9016 4.37026C14.5853 4.60958 14.3554 4.94526 14.2467 5.32667L13.1067 9.36267C13.0857 9.43693 13.0822 9.51505 13.0964 9.5909C13.1106 9.66675 13.1422 9.73827 13.1887 9.79987C13.2352 9.86147 13.2953 9.91147 13.3644 9.94596C13.4334 9.98045 13.5095 9.99849 13.5867 9.99867L18.4 10Z" fill="currentColor"/>
</svg>
