<svg viewBox="0 0 24 24" fill="none" xmlns="http://www.w3.org/2000/svg">
<path d="M16.0107 9.364C15.9811 9.2594 15.9183 9.16728 15.8316 9.1016C15.745 9.03592 15.6394 9.00025 15.5307 9H8.45733C8.34818 8.99967 8.24191 9.03507 8.15476 9.10079C8.06761 9.16652 8.00436 9.25896 7.97467 9.364L6.56267 14.364C6.54164 14.4384 6.53815 14.5166 6.55246 14.5926C6.56676 14.6685 6.59848 14.7401 6.64512 14.8017C6.69176 14.8634 6.75206 14.9133 6.82126 14.9477C6.89047 14.9821 6.96671 15 7.044 15H16.944C17.0212 14.9998 17.0973 14.9818 17.1663 14.9473C17.2353 14.9128 17.2955 14.8628 17.3419 14.8012C17.3884 14.7396 17.42 14.6681 17.4343 14.5922C17.4485 14.5164 17.445 14.4383 17.424 14.364L16.0107 9.364ZM23 22H19.972C19.8633 21.9998 19.7576 21.9641 19.671 21.8984C19.5844 21.8327 19.5216 21.7406 19.492 21.636L18.5627 18.364C18.5331 18.2594 18.4703 18.1673 18.3836 18.1016C18.297 18.0359 18.1914 18.0002 18.0827 18H5.912C5.80307 18 5.69711 18.0355 5.61023 18.1012C5.52334 18.1669 5.4603 18.2592 5.43067 18.364L4.50533 21.636C4.47577 21.7406 4.41292 21.8327 4.3263 21.8984C4.23969 21.9641 4.13403 21.9998 4.02533 22H1C0.734784 22 0.48043 22.1054 0.292893 22.2929C0.105357 22.4804 0 22.7348 0 23C0 23.2652 0.105357 23.5196 0.292893 23.7071C0.48043 23.8946 0.734784 24 1 24H23C23.2652 24 23.5196 23.8946 23.7071 23.7071C23.8946 23.5196 24 23.2652 24 23C24 22.7348 23.8946 22.4804 23.7071 22.2929C23.5196 22.1054 23.2652 22 23 22ZM14.4 6C14.4772 5.99982 14.5533 5.98178 14.6223 5.9473C14.6913 5.91281 14.7515 5.8628 14.7979 5.8012C14.8444 5.73961 14.876 5.66808 14.8903 5.59223C14.9045 5.51638 14.901 5.43826 14.88 5.364L13.7267 1.30533C13.6194 0.929926 13.3929 0.599586 13.0815 0.364131C12.77 0.128676 12.3904 0.000874051 12 0C11.6034 0.000993416 11.2179 0.130951 10.9016 0.370263C10.5853 0.609576 10.3554 0.94526 10.2467 1.32667L9.10667 5.36267C9.08568 5.43693 9.08216 5.51505 9.0964 5.5909C9.11063 5.66675 9.14223 5.73827 9.18872 5.79987C9.23521 5.86147 9.29533 5.91147 9.36437 5.94596C9.43341 5.98045 9.50949 5.99849 9.58667 5.99867L14.4 6Z" fill="currentColor"/>
</svg>
