<svg viewBox="0 0 32 32" fill="none" xmlns="http://www.w3.org/2000/svg">
    <path d="M17.524 20.7561L22.324 12.8307C22.448 12.6307 22.5987 12.4067 22.7733 12.2307V4.85741C22.7769 4.73661 22.7515 4.61672 22.6993 4.50771C22.6471 4.39871 22.5696 4.30375 22.4733 4.23074C22.3837 4.1561 22.2802 4.09998 22.1687 4.06565C22.0573 4.03132 21.9401 4.01945 21.824 4.03074L21.624 4.05741C16.4758 4.68251 11.2709 4.68251 6.12267 4.05741L5.97467 4.00541C5.85456 3.99225 5.73304 4.00316 5.6172 4.0375C5.50136 4.07184 5.39353 4.12892 5.3 4.20541C5.20976 4.2886 5.13681 4.38877 5.08533 4.50019C5.03385 4.61162 5.00485 4.7321 5 4.85474V12.9294C5 14.4801 5.3 16.0054 5.87467 17.4547C6.51726 19.0573 7.6252 20.4307 9.05563 21.3977C10.4861 22.3647 12.1734 22.881 13.9 22.8801C14.3493 22.8801 14.7747 22.8547 15.2253 22.7801C15.3253 22.5801 15.4253 22.4054 15.524 22.2294C16.0253 21.5054 16.724 21.0054 17.524 20.7547V20.7561ZM17.248 8.75607C18.9227 8.75607 19.524 10.1307 19.5733 10.8814C19.5855 10.9532 19.5805 11.0269 19.5587 11.0965C19.5369 11.166 19.499 11.2294 19.448 11.2814C19.4004 11.334 19.3427 11.3766 19.2783 11.4066C19.214 11.4366 19.1443 11.4534 19.0733 11.4561H15.448C15.3761 11.4591 15.3046 11.4448 15.2394 11.4144C15.1742 11.384 15.1172 11.3384 15.0733 11.2814C15.0223 11.2294 14.9844 11.166 14.9626 11.0965C14.9408 11.0269 14.9358 10.9532 14.948 10.8814C14.9987 10.1307 15.5733 8.75607 17.248 8.75607ZM8.348 11.2561C8.29724 11.2039 8.25955 11.1405 8.238 11.071C8.21645 11.0014 8.21165 10.9278 8.224 10.8561C8.29867 10.1321 8.848 8.73207 10.548 8.73207C12.1987 8.73207 12.7987 10.1054 12.8733 10.8561C12.8855 10.9279 12.8805 11.0016 12.8587 11.0711C12.8369 11.1407 12.799 11.204 12.748 11.2561C12.6419 11.3633 12.4988 11.4259 12.348 11.4307H8.724C8.65239 11.4316 8.5815 11.4164 8.51647 11.3864C8.45144 11.3565 8.39389 11.311 8.348 11.2561ZM13.8987 18.1321C13.1717 18.1361 12.4569 17.9455 11.8284 17.5803C11.1999 17.215 10.6805 16.6883 10.324 16.0547C10.0973 15.6547 10.224 15.1294 10.6227 14.9054C11.0227 14.6801 11.548 14.8054 11.7733 15.2054C12.224 15.9547 13.024 16.4294 13.8987 16.4294C14.7733 16.4294 15.5733 15.9801 15.9733 15.2294C16.0264 15.1314 16.0986 15.045 16.1857 14.9754C16.2728 14.9059 16.3729 14.8544 16.4802 14.8242C16.5875 14.794 16.6997 14.7856 16.8103 14.7996C16.9209 14.8135 17.0276 14.8495 17.124 14.9054C17.3176 15.0165 17.46 15.1991 17.5205 15.414C17.5811 15.6288 17.5551 15.8589 17.448 16.0547C16.748 17.3547 15.3987 18.1294 13.8987 18.1294V18.1321ZM26.3987 12.9561C26.1776 12.8012 25.9266 12.6941 25.6618 12.6417C25.397 12.5892 25.1242 12.5925 24.8608 12.6513C24.5973 12.7102 24.349 12.8233 24.1317 12.9834C23.9144 13.1435 23.7329 13.3472 23.5987 13.5814L19.2987 20.6814C19.7987 20.7561 20.2733 20.9561 20.6987 21.2561C21.124 21.5561 21.4733 21.9067 21.748 22.3307L26.848 15.7814C27.5227 14.8814 27.3227 13.5814 26.3987 12.9561ZM19.8733 22.4561C19.3779 22.1186 18.7695 21.9899 18.1798 22.0977C17.5902 22.2055 17.0667 22.5412 16.7227 23.0321C15.9733 24.1321 16.7227 25.6321 15.3987 27.0814C15.3434 27.1363 15.3056 27.2063 15.2901 27.2826C15.2745 27.3589 15.2819 27.4381 15.3113 27.5102C15.3406 27.5824 15.3907 27.6442 15.4551 27.6879C15.5195 27.7317 15.5955 27.7554 15.6733 27.7561C18.148 27.8067 19.6987 26.6561 20.424 25.5814C20.5964 25.3412 20.719 25.069 20.7847 24.7807C20.8504 24.4925 20.8578 24.194 20.8065 23.9028C20.7552 23.6117 20.6462 23.3337 20.486 23.0853C20.3257 22.8368 20.1174 22.6229 19.8733 22.4561Z" fill="currentColor"/>
</svg>
