<svg viewBox="0 0 23 24" fill="none" xmlns="http://www.w3.org/2000/svg">
<path d="M12.524 16.7561L17.324 8.83074C17.448 8.63074 17.5987 8.40674 17.7733 8.23074V0.857407C17.7769 0.736609 17.7515 0.616717 17.6993 0.507714C17.6471 0.398711 17.5696 0.303751 17.4733 0.23074C17.3837 0.156097 17.2802 0.099984 17.1687 0.0656525C17.0573 0.031321 16.9401 0.0194543 16.824 0.0307402L16.624 0.0574069C11.4758 0.682512 6.27087 0.682512 1.12267 0.0574069L0.974667 0.0054069C0.854563 -0.00774911 0.733042 0.00316143 0.617203 0.0375011C0.501364 0.0718407 0.39353 0.128921 0.3 0.205407C0.209755 0.288598 0.136806 0.388772 0.0853274 0.500194C0.0338492 0.611616 0.00485333 0.732097 0 0.85474V8.92941C0 10.4801 0.3 12.0054 0.874667 13.4547C1.51726 15.0573 2.6252 16.4307 4.05563 17.3977C5.48606 18.3647 7.17338 18.881 8.9 18.8801C9.34933 18.8801 9.77467 18.8547 10.2253 18.7801C10.3253 18.5801 10.4253 18.4054 10.524 18.2294C11.0253 17.5054 11.724 17.0054 12.524 16.7547V16.7561ZM12.248 4.75607C13.9227 4.75607 14.524 6.13074 14.5733 6.88141C14.5855 6.95324 14.5805 7.02694 14.5587 7.09646C14.5369 7.16599 14.499 7.22937 14.448 7.28141C14.4004 7.33405 14.3427 7.37662 14.2783 7.40662C14.214 7.43662 14.1443 7.45343 14.0733 7.45607H10.448C10.3761 7.45908 10.3046 7.44478 10.2394 7.41438C10.1742 7.38399 10.1172 7.33839 10.0733 7.28141C10.0223 7.22937 9.9844 7.16599 9.96261 7.09646C9.94083 7.02694 9.93582 6.95324 9.948 6.88141C9.99867 6.13074 10.5733 4.75607 12.248 4.75607ZM3.348 7.25607C3.29724 7.20391 3.25955 7.14047 3.238 7.07095C3.21645 7.00143 3.21165 6.9278 3.224 6.85607C3.29867 6.13207 3.848 4.73207 5.548 4.73207C7.19867 4.73207 7.79867 6.10541 7.87333 6.85607C7.88551 6.92791 7.88051 7.0016 7.85872 7.07113C7.83694 7.14066 7.79899 7.20403 7.748 7.25607C7.64194 7.36334 7.49877 7.42586 7.348 7.43074H3.724C3.65239 7.43155 3.5815 7.41642 3.51647 7.38644C3.45144 7.35646 3.39389 7.31105 3.348 7.25607ZM8.89867 14.1321C8.17172 14.1361 7.45694 13.9455 6.8284 13.5803C6.19987 13.215 5.68045 12.6883 5.324 12.0547C5.09733 11.6547 5.224 11.1294 5.62267 10.9054C6.02267 10.6801 6.548 10.8054 6.77333 11.2054C7.224 11.9547 8.024 12.4294 8.89867 12.4294C9.77333 12.4294 10.5733 11.9801 10.9733 11.2294C11.0264 11.1314 11.0986 11.045 11.1857 10.9754C11.2728 10.9059 11.3729 10.8544 11.4802 10.8242C11.5875 10.794 11.6997 10.7856 11.8103 10.7996C11.9209 10.8135 12.0276 10.8495 12.124 10.9054C12.3176 11.0165 12.46 11.1991 12.5205 11.414C12.5811 11.6288 12.5551 11.8589 12.448 12.0547C11.748 13.3547 10.3987 14.1294 8.89867 14.1294V14.1321ZM21.3987 8.95607C21.1776 8.80122 20.9266 8.69414 20.6618 8.64167C20.397 8.5892 20.1242 8.59248 19.8608 8.65132C19.5973 8.71016 19.349 8.82325 19.1317 8.98339C18.9144 9.14353 18.7329 9.3472 18.5987 9.58141L14.2987 16.6814C14.7987 16.7561 15.2733 16.9561 15.6987 17.2561C16.124 17.5561 16.4733 17.9067 16.748 18.3307L21.848 11.7814C22.5227 10.8814 22.3227 9.58141 21.3987 8.95607ZM14.8733 18.4561C14.3779 18.1186 13.7695 17.9899 13.1798 18.0977C12.5902 18.2055 12.0667 18.5412 11.7227 19.0321C10.9733 20.1321 11.7227 21.6321 10.3987 23.0814C10.3434 23.1363 10.3056 23.2063 10.2901 23.2826C10.2745 23.3589 10.2819 23.4381 10.3113 23.5102C10.3406 23.5824 10.3907 23.6442 10.4551 23.6879C10.5195 23.7317 10.5955 23.7554 10.6733 23.7561C13.148 23.8067 14.6987 22.6561 15.424 21.5814C15.5964 21.3412 15.719 21.069 15.7847 20.7807C15.8504 20.4925 15.8578 20.194 15.8065 19.9028C15.7552 19.6117 15.6462 19.3337 15.486 19.0853C15.3257 18.8368 15.1174 18.6229 14.8733 18.4561Z" fill="currentColor"/>
</svg>
