<svg viewBox="0 0 21 24" fill="none" xmlns="http://www.w3.org/2000/svg">
<path d="M12.3669 16.5043C12.0579 16.4284 11.7314 16.4778 11.4586 16.6416C11.1859 16.8055 10.989 17.0705 10.9109 17.379C10.7479 18.0304 10.4354 18.6349 9.99805 19.1445C9.5607 19.654 9.01059 20.0546 8.39138 20.3144C7.77217 20.5742 7.10093 20.6861 6.43092 20.6412C5.76092 20.5963 5.11062 20.3958 4.53164 20.0556C3.95266 19.7155 3.46095 19.245 3.09554 18.6817C2.73013 18.1183 2.50109 17.4775 2.4266 16.8101C2.3521 16.1428 2.43421 15.4672 2.6664 14.8371C2.89859 14.207 3.27447 13.6398 3.76419 13.1803C3.99652 12.9627 4.13287 12.6616 4.14325 12.3434C4.15363 12.0253 4.03718 11.716 3.81953 11.4837C3.60187 11.2513 3.30084 11.115 2.98265 11.1046C2.66447 11.0942 2.35519 11.2107 2.12286 11.4283C1.36081 12.143 0.775913 13.0256 0.414613 14.0059C0.0533125 14.9862 -0.0744359 16.0373 0.0415134 17.0756C0.157463 18.1139 0.513916 19.1109 1.08256 19.9874C1.65121 20.8638 2.41639 21.5956 3.31732 22.1247C4.21826 22.6537 5.23013 22.9653 6.27259 23.0349C7.31504 23.1045 8.35936 22.93 9.32259 22.5254C10.2858 22.1207 11.1415 21.4971 11.8215 20.704C12.5016 19.9108 12.9873 18.97 13.2402 17.9563C13.3164 17.648 13.2673 17.322 13.1036 17.0498C12.9399 16.7777 12.675 16.5815 12.3669 16.5043Z" fill="currentColor"/>
<path d="M19.4816 17.787L18.079 18.0203C17.9629 18.0397 17.8438 18.0157 17.7443 17.9531C17.6447 17.8904 17.5717 17.7933 17.539 17.6803L16.1656 12.8803C16.0851 12.5969 15.903 12.3532 15.6541 12.1955C15.4052 12.0379 15.1069 11.9774 14.8163 12.0257C14.6243 12.0577 10.6803 12.707 8.3923 13.1283C8.3273 13.1403 8.26053 13.1386 8.19618 13.1236C8.13183 13.1085 8.07129 13.0803 8.01834 13.0408C7.96539 13.0012 7.92118 12.9511 7.88848 12.8937C7.85578 12.8363 7.8353 12.7727 7.8283 12.707L7.68164 11.3203C7.66901 11.1994 7.70273 11.0782 7.77598 10.9812C7.84923 10.8842 7.95656 10.8186 8.0763 10.7977L12.443 10.0417C12.6037 10.0212 12.7587 9.96838 12.8985 9.88639C13.0383 9.8044 13.1601 9.69494 13.2564 9.56462C13.3527 9.43429 13.4217 9.2858 13.4591 9.12811C13.4965 8.97041 13.5015 8.80677 13.4739 8.64706C13.4464 8.48736 13.3867 8.3349 13.2986 8.19887C13.2105 8.06284 13.0957 7.94608 12.9613 7.85561C12.8268 7.76515 12.6754 7.70286 12.5162 7.6725C12.357 7.64215 12.1933 7.64436 12.035 7.67899L7.88564 8.39633C7.82083 8.40765 7.75438 8.40553 7.69042 8.3901C7.62646 8.37467 7.56636 8.34625 7.51384 8.30662C7.46133 8.26698 7.41752 8.21697 7.38515 8.15969C7.35277 8.10242 7.33251 8.03909 7.32564 7.97366L7.12697 6.09899C7.11817 6.0143 7.13205 5.92879 7.1672 5.85124C7.20234 5.77368 7.25749 5.70687 7.32697 5.65766C7.89437 5.2541 8.31032 4.67221 8.50853 4.00474C8.70673 3.33727 8.67578 2.62267 8.4206 1.97484C8.16541 1.32702 7.7007 0.78327 7.10053 0.430289C6.50036 0.0773073 5.7993 -0.0645873 5.10911 0.0272259C4.41891 0.119039 3.77933 0.439274 3.29231 0.936879C2.80529 1.43448 2.49888 2.08081 2.42193 2.77282C2.34498 3.46482 2.50192 4.16267 2.86772 4.75511C3.23353 5.34755 3.78714 5.80047 4.4403 6.04166C4.52423 6.07274 4.59779 6.12667 4.65269 6.19735C4.70758 6.26803 4.74163 6.35265 4.75097 6.44166L5.5283 13.7857C5.56602 14.0789 5.66353 14.3613 5.81481 14.6153C5.96609 14.8694 6.16791 15.0896 6.40777 15.2625C6.64764 15.4354 6.92044 15.5572 7.20928 15.6203C7.49812 15.6835 7.79685 15.6866 8.08697 15.6297C9.38964 15.3737 12.055 14.9217 13.7296 14.6403C13.8461 14.6207 13.9656 14.6446 14.0655 14.7076C14.1654 14.7706 14.2385 14.8682 14.271 14.9817L15.6443 19.7817C15.7161 20.0321 15.8675 20.2524 16.0755 20.4093C16.2836 20.5661 16.5371 20.6509 16.7976 20.651C16.9656 20.651 19.7083 20.183 19.875 20.155C20.189 20.1028 20.4694 19.9281 20.6546 19.6691C20.8397 19.4102 20.9145 19.0883 20.8623 18.7743C20.8101 18.4603 20.6354 18.1799 20.3765 17.9947C20.1175 17.8096 19.7957 17.7348 19.4816 17.787Z" fill="currentColor"/>
</svg>
