<svg viewBox="0 0 32 32" fill="none" xmlns="http://www.w3.org/2000/svg">
    <path d="M18.3669 20.5043C18.0579 20.4284 17.7314 20.4778 17.4586 20.6416C17.1859 20.8055 16.989 21.0705 16.9109 21.379C16.7479 22.0304 16.4354 22.6349 15.9981 23.1445C15.5607 23.654 15.0106 24.0546 14.3914 24.3144C13.7722 24.5742 13.1009 24.6861 12.4309 24.6412C11.7609 24.5963 11.1106 24.3958 10.5316 24.0556C9.95266 23.7155 9.46095 23.245 9.09554 22.6817C8.73013 22.1183 8.50109 21.4775 8.4266 20.8101C8.3521 20.1428 8.43421 19.4672 8.6664 18.8371C8.89859 18.207 9.27447 17.6398 9.76419 17.1803C9.99652 16.9627 10.1329 16.6616 10.1433 16.3434C10.1536 16.0253 10.0372 15.716 9.81953 15.4837C9.60187 15.2513 9.30084 15.115 8.98265 15.1046C8.66447 15.0942 8.35519 15.2107 8.12286 15.4283C7.36081 16.143 6.77591 17.0256 6.41461 18.0059C6.05331 18.9862 5.92556 20.0373 6.04151 21.0756C6.15746 22.1139 6.51392 23.1109 7.08256 23.9874C7.65121 24.8638 8.41639 25.5956 9.31732 26.1247C10.2183 26.6537 11.2301 26.9653 12.2726 27.0349C13.315 27.1045 14.3594 26.93 15.3226 26.5254C16.2858 26.1207 17.1415 25.4971 17.8215 24.704C18.5016 23.9108 18.9873 22.97 19.2402 21.9563C19.3164 21.648 19.2673 21.322 19.1036 21.0498C18.9399 20.7777 18.675 20.5815 18.3669 20.5043Z" fill="currentColor"/>
    <path d="M25.4816 21.787L24.079 22.0203C23.9629 22.0397 23.8438 22.0157 23.7443 21.9531C23.6447 21.8904 23.5717 21.7933 23.539 21.6803L22.1656 16.8803C22.0851 16.5969 21.903 16.3532 21.6541 16.1955C21.4052 16.0379 21.1069 15.9774 20.8163 16.0257C20.6243 16.0577 16.6803 16.707 14.3923 17.1283C14.3273 17.1403 14.2605 17.1386 14.1962 17.1236C14.1318 17.1085 14.0713 17.0803 14.0183 17.0408C13.9654 17.0012 13.9212 16.9511 13.8885 16.8937C13.8558 16.8363 13.8353 16.7727 13.8283 16.707L13.6816 15.3203C13.669 15.1994 13.7027 15.0782 13.776 14.9812C13.8492 14.8842 13.9566 14.8186 14.0763 14.7977L18.443 14.0417C18.6037 14.0212 18.7587 13.9684 18.8985 13.8864C19.0383 13.8044 19.1601 13.6949 19.2564 13.5646C19.3527 13.4343 19.4217 13.2858 19.4591 13.1281C19.4965 12.9704 19.5015 12.8068 19.4739 12.6471C19.4464 12.4874 19.3867 12.3349 19.2986 12.1989C19.2105 12.0628 19.0957 11.9461 18.9613 11.8556C18.8268 11.7651 18.6754 11.7029 18.5162 11.6725C18.357 11.6421 18.1933 11.6444 18.035 11.679L13.8856 12.3963C13.8208 12.4077 13.7544 12.4055 13.6904 12.3901C13.6265 12.3747 13.5664 12.3463 13.5138 12.3066C13.4613 12.267 13.4175 12.217 13.3851 12.1597C13.3528 12.1024 13.3325 12.0391 13.3256 11.9737L13.127 10.099C13.1182 10.0143 13.1321 9.92879 13.1672 9.85124C13.2023 9.77368 13.2575 9.70687 13.327 9.65766C13.8944 9.2541 14.3103 8.67221 14.5085 8.00474C14.7067 7.33727 14.6758 6.62267 14.4206 5.97484C14.1654 5.32702 13.7007 4.78327 13.1005 4.43029C12.5004 4.07731 11.7993 3.93541 11.1091 4.02723C10.4189 4.11904 9.77933 4.43927 9.29231 4.93688C8.80529 5.43448 8.49888 6.08081 8.42193 6.77282C8.34498 7.46482 8.50192 8.16267 8.86772 8.75511C9.23353 9.34755 9.78714 9.80047 10.4403 10.0417C10.5242 10.0727 10.5978 10.1267 10.6527 10.1974C10.7076 10.268 10.7416 10.3527 10.751 10.4417L11.5283 17.7857C11.566 18.0789 11.6635 18.3613 11.8148 18.6153C11.9661 18.8694 12.1679 19.0896 12.4078 19.2625C12.6476 19.4354 12.9204 19.5572 13.2093 19.6203C13.4981 19.6835 13.7968 19.6866 14.087 19.6297C15.3896 19.3737 18.055 18.9217 19.7296 18.6403C19.8461 18.6207 19.9656 18.6446 20.0655 18.7076C20.1654 18.7706 20.2385 18.8682 20.271 18.9817L21.6443 23.7817C21.7161 24.0321 21.8675 24.2524 22.0755 24.4093C22.2836 24.5661 22.5371 24.6509 22.7976 24.651C22.9656 24.651 25.7083 24.183 25.875 24.155C26.189 24.1028 26.4694 23.9281 26.6546 23.6691C26.8397 23.4102 26.9145 23.0883 26.8623 22.7743C26.8101 22.4603 26.6354 22.1799 26.3765 21.9947C26.1175 21.8096 25.7957 21.7348 25.4816 21.787Z" fill="currentColor"/>
</svg>
