<svg viewBox="0 0 24 24" fill="none" xmlns="http://www.w3.org/2000/svg">
<path d="M21.4588 7.93052C21.2647 7.93107 21.0743 7.87712 20.9093 7.77483C20.7443 7.67253 20.6113 7.52598 20.5255 7.35186C20.3126 6.9239 19.9843 6.564 19.5776 6.31284C19.1709 6.06167 18.7021 5.92925 18.2241 5.93052C17.4238 5.93011 16.6441 6.1837 15.9971 6.65477C15.3502 7.12585 14.8694 7.7901 14.6241 8.55186L6.66412 0.285191C6.47824 0.10333 6.22881 0.0010367 5.96876 7.83658e-06C5.70871 -0.00102103 5.45848 0.0992956 5.27116 0.27968C5.08384 0.460064 4.97416 0.706326 4.96537 0.966231C4.95659 1.22614 5.04941 1.47924 5.22412 1.67186L17.8241 14.6399C17.8535 14.6702 17.8901 14.6926 17.9305 14.7049C17.971 14.7172 18.0138 14.7191 18.0551 14.7103C18.0965 14.7015 18.1349 14.6823 18.1668 14.6546C18.1987 14.6269 18.223 14.5915 18.2375 14.5519C18.4084 14.0753 18.723 13.6634 19.1378 13.3731C19.5525 13.0827 20.0471 12.9281 20.5535 12.9305C21.3369 12.9298 22.088 12.6183 22.6419 12.0643C23.1959 11.5104 23.5074 10.7593 23.5081 9.97586C23.5079 9.70697 23.4548 9.44076 23.3517 9.19243C23.2486 8.94409 23.0976 8.71851 22.9073 8.52856C22.7169 8.33862 22.4911 8.18804 22.2425 8.08542C21.994 7.98281 21.7277 7.93017 21.4588 7.93052ZM19.0041 8.73052C19.0038 8.92914 18.9246 9.1195 18.7839 9.25976C18.6433 9.40001 18.4527 9.4787 18.2541 9.47852C18.0555 9.47835 17.8651 9.39932 17.7247 9.25881C17.5843 9.11831 17.5055 8.92781 17.5055 8.72919C17.5055 8.53057 17.5843 8.34008 17.7247 8.19957C17.8651 8.05906 18.0555 7.98003 18.2541 7.97986C18.4527 7.97968 18.6433 8.05837 18.7839 8.19863C18.9246 8.33888 19.0038 8.52924 19.0041 8.72786V8.73052ZM12.1708 10.9345C12.1418 10.9045 12.1057 10.8822 12.0659 10.8696C12.0261 10.857 11.9838 10.8546 11.9428 10.8625C11.7295 10.9065 11.5135 10.9292 11.2948 10.9305H6.00412C4.55879 10.9305 3.56012 10.5305 3.19612 9.80386C2.82279 9.05986 3.10812 7.95986 3.98279 6.78786C4.1137 6.61267 4.18356 6.3994 4.18169 6.18071C4.17981 5.96203 4.1063 5.74999 3.97242 5.57707C3.83853 5.40415 3.65165 5.27989 3.4404 5.22332C3.22915 5.16675 3.00517 5.18099 2.80279 5.26386C2.03632 5.57599 1.37077 6.09344 0.879329 6.75931C0.387886 7.42519 0.0895866 8.21369 0.0172329 9.03811C-0.0551208 9.86252 0.101274 10.6909 0.469219 11.4322C0.837164 12.1735 1.40241 12.799 2.10279 13.2399C1.21753 16.0608 0.680215 18.9793 0.502791 21.9305C0.502791 22.461 0.713504 22.9697 1.08858 23.3447C1.46365 23.7198 1.97236 23.9305 2.50279 23.9305C3.03322 23.9305 3.54193 23.7198 3.917 23.3447C4.29208 22.9697 4.50279 22.461 4.50279 21.9305V21.2999C4.49006 20.8439 4.57246 20.3902 4.74474 19.9679C4.91703 19.5455 5.17542 19.1636 5.50345 18.8467C5.83147 18.5297 6.22194 18.2845 6.64996 18.1268C7.07799 17.969 7.53418 17.9022 7.98946 17.9305C8.13212 17.9359 9.50412 17.9305 9.50279 17.9305C12.0081 17.9305 13.5028 19.2105 13.5028 21.3532V21.9305C13.5028 22.461 13.7135 22.9697 14.0886 23.3447C14.4637 23.7198 14.9724 23.9305 15.5028 23.9305C16.0332 23.9305 16.5419 23.7198 16.917 23.3447C17.2921 22.9697 17.5028 22.461 17.5028 21.9305C17.5028 21.3305 17.5028 20.8599 17.4961 20.4839C17.4521 19.3492 17.5468 18.2132 17.7815 17.1025L17.8095 16.9319C17.8154 16.8936 17.8125 16.8544 17.8009 16.8174C17.7894 16.7805 17.7695 16.7466 17.7428 16.7185L12.1708 10.9345Z" fill="currentColor"/>
</svg>
