<svg viewBox="0 0 32 32" fill="none" xmlns="http://www.w3.org/2000/svg">
    <path d="M25.4588 11.9305C25.2647 11.9311 25.0743 11.8771 24.9093 11.7748C24.7443 11.6725 24.6113 11.526 24.5255 11.3519C24.3126 10.9239 23.9843 10.564 23.5776 10.3128C23.1709 10.0617 22.7021 9.92925 22.2241 9.93052C21.4238 9.93011 20.6441 10.1837 19.9971 10.6548C19.3502 11.1258 18.8694 11.7901 18.6241 12.5519L10.6641 4.28519C10.4782 4.10333 10.2288 4.00104 9.96876 4.00001C9.70871 3.99898 9.45848 4.0993 9.27116 4.27968C9.08384 4.46006 8.97416 4.70633 8.96537 4.96623C8.95659 5.22614 9.04941 5.47924 9.22412 5.67186L21.8241 18.6399C21.8535 18.6702 21.8901 18.6926 21.9305 18.7049C21.971 18.7172 22.0138 18.7191 22.0551 18.7103C22.0965 18.7015 22.1349 18.6823 22.1668 18.6546C22.1987 18.6269 22.223 18.5915 22.2375 18.5519C22.4084 18.0753 22.723 17.6634 23.1378 17.3731C23.5525 17.0827 24.0471 16.9281 24.5535 16.9305C25.3369 16.9298 26.088 16.6183 26.6419 16.0643C27.1959 15.5104 27.5074 14.7593 27.5081 13.9759C27.5079 13.707 27.4548 13.4408 27.3517 13.1924C27.2486 12.9441 27.0976 12.7185 26.9073 12.5286C26.7169 12.3386 26.4911 12.188 26.2425 12.0854C25.994 11.9828 25.7277 11.9302 25.4588 11.9305ZM23.0041 12.7305C23.0038 12.9291 22.9246 13.1195 22.7839 13.2598C22.6433 13.4 22.4527 13.4787 22.2541 13.4785C22.0555 13.4783 21.8651 13.3993 21.7247 13.2588C21.5843 13.1183 21.5055 12.9278 21.5055 12.7292C21.5055 12.5306 21.5843 12.3401 21.7247 12.1996C21.8651 12.0591 22.0555 11.98 22.2541 11.9799C22.4527 11.9797 22.6433 12.0584 22.7839 12.1986C22.9246 12.3389 23.0038 12.5292 23.0041 12.7279V12.7305ZM16.1708 14.9345C16.1418 14.9045 16.1057 14.8822 16.0659 14.8696C16.0261 14.857 15.9838 14.8546 15.9428 14.8625C15.7295 14.9065 15.5135 14.9292 15.2948 14.9305H10.0041C8.55879 14.9305 7.56012 14.5305 7.19612 13.8039C6.82279 13.0599 7.10812 11.9599 7.98279 10.7879C8.1137 10.6127 8.18356 10.3994 8.18169 10.1807C8.17981 9.96203 8.1063 9.74999 7.97242 9.57707C7.83853 9.40415 7.65165 9.27989 7.4404 9.22332C7.22915 9.16675 7.00517 9.18099 6.80279 9.26386C6.03632 9.57599 5.37077 10.0934 4.87933 10.7593C4.38789 11.4252 4.08959 12.2137 4.01723 13.0381C3.94488 13.8625 4.10127 14.6909 4.46922 15.4322C4.83716 16.1735 5.40241 16.799 6.10279 17.2399C5.21753 20.0608 4.68021 22.9793 4.50279 25.9305C4.50279 26.461 4.7135 26.9697 5.08858 27.3447C5.46365 27.7198 5.97236 27.9305 6.50279 27.9305C7.03322 27.9305 7.54193 27.7198 7.917 27.3447C8.29208 26.9697 8.50279 26.461 8.50279 25.9305V25.2999C8.49006 24.8439 8.57246 24.3902 8.74474 23.9679C8.91703 23.5455 9.17542 23.1636 9.50345 22.8467C9.83147 22.5297 10.2219 22.2845 10.65 22.1268C11.078 21.969 11.5342 21.9022 11.9895 21.9305C12.1321 21.9359 13.5041 21.9305 13.5028 21.9305C16.0081 21.9305 17.5028 23.2105 17.5028 25.3532V25.9305C17.5028 26.461 17.7135 26.9697 18.0886 27.3447C18.4637 27.7198 18.9724 27.9305 19.5028 27.9305C20.0332 27.9305 20.5419 27.7198 20.917 27.3447C21.2921 26.9697 21.5028 26.461 21.5028 25.9305C21.5028 25.3305 21.5028 24.8599 21.4961 24.4839C21.4521 23.3492 21.5468 22.2132 21.7815 21.1025L21.8095 20.9319C21.8154 20.8936 21.8125 20.8544 21.8009 20.8174C21.7894 20.7805 21.7695 20.7466 21.7428 20.7185L16.1708 14.9345Z" fill="currentColor"/>
</svg>
