<svg height="9" viewBox="0 0 24 9" fill="none" xmlns="http://www.w3.org/2000/svg">
<path d="M0 0H3.26533V6.91067H0V0ZM22.6373 2.66533C22.5825 2.66503 22.5278 2.67175 22.4747 2.68533H22.448L22.348 2.72133H22.316L22.2387 2.74933L16.1187 4.78267C15.8722 4.95447 15.5791 5.0466 15.2787 5.04667H8.80933C8.71562 5.04667 8.62575 5.00944 8.55949 4.94318C8.49323 4.87691 8.456 4.78704 8.456 4.69333C8.456 4.59962 8.49323 4.50975 8.55949 4.44349C8.62575 4.37723 8.71562 4.34 8.80933 4.34H15.2787C15.4463 4.342 15.6096 4.28647 15.7413 4.18267L15.804 4.13333C15.9148 4.02802 15.9915 3.89195 16.0242 3.74265C16.057 3.59336 16.0443 3.43768 15.9878 3.29567C15.9312 3.15365 15.8335 3.03182 15.7071 2.94585C15.5807 2.85989 15.4315 2.81373 15.2787 2.81333H11.496C11.4302 2.81364 11.3657 2.79558 11.3096 2.76118C11.2536 2.72679 11.2082 2.67743 11.1787 2.61867C10.9424 2.15472 10.5826 1.7651 10.1388 1.49286C9.69502 1.22062 9.18462 1.07635 8.664 1.076H3.984V6.19467L11.4387 8.43467C11.9068 8.60633 12.4084 8.66701 12.904 8.61195C13.3996 8.55688 13.8756 8.38757 14.2947 8.11733C14.2947 8.11733 22.9267 4.14667 22.952 4.14C23.1147 4.06916 23.2479 3.94425 23.3291 3.78645C23.4102 3.62864 23.4343 3.44763 23.3973 3.27408C23.3602 3.10054 23.2644 2.94513 23.1259 2.83419C22.9874 2.72325 22.8148 2.66359 22.6373 2.66533Z" fill="currentColor"/>
</svg>
