<svg viewBox="0 0 32 32" fill="none" xmlns="http://www.w3.org/2000/svg">
    <path d="M4 12H7.26533V18.9107H4V12ZM26.6373 14.6653C26.5825 14.665 26.5278 14.6718 26.4747 14.6853H26.448L26.348 14.7213H26.316L26.2387 14.7493L20.1187 16.7827C19.8722 16.9545 19.5791 17.0466 19.2787 17.0467H12.8093C12.7156 17.0467 12.6258 17.0094 12.5595 16.9432C12.4932 16.8769 12.456 16.787 12.456 16.6933C12.456 16.5996 12.4932 16.5098 12.5595 16.4435C12.6258 16.3772 12.7156 16.34 12.8093 16.34H19.2787C19.4463 16.342 19.6096 16.2865 19.7413 16.1827L19.804 16.1333C19.9148 16.028 19.9915 15.892 20.0242 15.7427C20.057 15.5934 20.0443 15.4377 19.9878 15.2957C19.9312 15.1537 19.8335 15.0318 19.7071 14.9459C19.5807 14.8599 19.4315 14.8137 19.2787 14.8133H15.496C15.4302 14.8136 15.3657 14.7956 15.3096 14.7612C15.2536 14.7268 15.2082 14.6774 15.1787 14.6187C14.9424 14.1547 14.5826 13.7651 14.1388 13.4929C13.695 13.2206 13.1846 13.0764 12.664 13.076H7.984V18.1947L15.4387 20.4347C15.9068 20.6063 16.4084 20.667 16.904 20.6119C17.3996 20.5569 17.8756 20.3876 18.2947 20.1173C18.2947 20.1173 26.9267 16.1467 26.952 16.14C27.1147 16.0692 27.2479 15.9443 27.3291 15.7864C27.4102 15.6286 27.4343 15.4476 27.3973 15.2741C27.3602 15.1005 27.2644 14.9451 27.1259 14.8342C26.9874 14.7232 26.8148 14.6636 26.6373 14.6653Z" fill="currentColor"/>
</svg>
