<svg viewBox="0 0 12 12" fill="none" xmlns="http://www.w3.org/2000/svg">
    <path d="M5.92277 11.1543L1.08526 6.31634C1.05382 6.28494 1.02888 6.24766 1.01186 6.20662C0.994843 6.16558 0.986084 6.12158 0.986084 6.07715C0.986084 6.03272 0.994843 5.98872 1.01186 5.94768C1.02888 5.90664 1.05382 5.86935 1.08526 5.83796L5.92277 1" stroke="currentColor" stroke-width="0.8" stroke-linecap="round" stroke-linejoin="round"/>
    <path d="M10.9999 11.1543L6.16241 6.31634C6.13097 6.28494 6.10603 6.24766 6.08901 6.20662C6.07199 6.16558 6.06323 6.12158 6.06323 6.07715C6.06323 6.03272 6.07199 5.98872 6.08901 5.94768C6.10603 5.90664 6.13097 5.86935 6.16241 5.83796L10.9999 1" stroke="currentColor" stroke-width="0.8" stroke-linecap="round" stroke-linejoin="round"/>
</svg>
