<svg viewBox="0 0 12 12" fill="none" xmlns="http://www.w3.org/2000/svg">
    <path d="M6.07031 1L10.9011 5.83128C10.9325 5.86263 10.9574 5.89986 10.9744 5.94085C10.9914 5.98183 11.0002 6.02577 11.0002 6.07014C11.0002 6.11451 10.9914 6.15844 10.9744 6.19943C10.9574 6.24041 10.9325 6.27764 10.9011 6.309L6.07031 11.1403" stroke="currentColor" stroke-width="0.8" stroke-linecap="round" stroke-linejoin="round"/>
    <path d="M1 1L5.83082 5.83128C5.86222 5.86263 5.88713 5.89986 5.90412 5.94085C5.92112 5.98183 5.92986 6.02577 5.92986 6.07014C5.92986 6.11451 5.92112 6.15844 5.90412 6.19943C5.88713 6.24041 5.86222 6.27764 5.83082 6.309L1 11.1403" stroke="currentColor" stroke-width="0.8" stroke-linecap="round" stroke-linejoin="round"/>
</svg>
