<svg viewBox="0 0 16 16" fill="none" xmlns="http://www.w3.org/2000/svg">
    <path d="M5.41528 4.83081C6.19699 4.83081 6.83068 4.19711 6.83068 3.4154C6.83068 2.6337 6.19699 2 5.41528 2C4.63358 2 3.99988 2.6337 3.99988 3.4154C3.99988 4.19711 4.63358 4.83081 5.41528 4.83081Z" fill="currentColor"/>
    <path d="M10.6996 4.83081C11.4813 4.83081 12.115 4.19711 12.115 3.4154C12.115 2.6337 11.4813 2 10.6996 2C9.91788 2 9.28418 2.6337 9.28418 3.4154C9.28418 4.19711 9.91788 4.83081 10.6996 4.83081Z" fill="currentColor"/>
    <path d="M5.41528 9.41543C6.19699 9.41543 6.83068 8.78173 6.83068 8.00003C6.83068 7.21832 6.19699 6.58463 5.41528 6.58463C4.63358 6.58463 3.99988 7.21832 3.99988 8.00003C3.99988 8.78173 4.63358 9.41543 5.41528 9.41543Z" fill="currentColor"/>
    <path d="M10.6996 9.41543C11.4813 9.41543 12.115 8.78173 12.115 8.00003C12.115 7.21832 11.4813 6.58463 10.6996 6.58463C9.91788 6.58463 9.28418 7.21832 9.28418 8.00003C9.28418 8.78173 9.91788 9.41543 10.6996 9.41543Z" fill="currentColor"/>
    <path d="M5.41528 14.0001C6.19699 14.0001 6.83068 13.3664 6.83068 12.5847C6.83068 11.8029 6.19699 11.1693 5.41528 11.1693C4.63358 11.1693 3.99988 11.8029 3.99988 12.5847C3.99988 13.3664 4.63358 14.0001 5.41528 14.0001Z" fill="currentColor"/>
    <path d="M10.6996 14.0001C11.4813 14.0001 12.115 13.3664 12.115 12.5847C12.115 11.8029 11.4813 11.1693 10.6996 11.1693C9.91788 11.1693 9.28418 11.8029 9.28418 12.5847C9.28418 13.3664 9.91788 14.0001 10.6996 14.0001Z" fill="currentColor"/>
</svg>
