<svg viewBox="0 0 24 24" fill="none" xmlns="http://www.w3.org/2000/svg">
<path d="M24 12C24 9.62663 23.2962 7.30655 21.9776 5.33316C20.6591 3.35977 18.7849 1.8217 16.5922 0.913451C14.3995 0.00519943 11.9867 -0.232441 9.65892 0.230582C7.33115 0.693605 5.19295 1.83649 3.51472 3.51472C1.83649 5.19295 0.693605 7.33115 0.230582 9.65892C-0.232441 11.9867 0.00519943 14.3995 0.913451 16.5922C1.8217 18.7849 3.35977 20.6591 5.33316 21.9776C7.30655 23.2962 9.62663 24 12 24H12.1253C15.2736 23.9965 18.2919 22.7443 20.5181 20.5181C22.7443 18.2919 23.9965 15.2736 24 12.1253V12ZM22 12C22 12.8893 21.88 13.776 21.64 14.6333C21.6209 14.7022 21.5873 14.7661 21.5414 14.8208C21.4955 14.8756 21.4384 14.9198 21.374 14.9507C21.3096 14.9815 21.2393 14.9982 21.1679 14.9995C21.0965 15.0009 21.0256 14.987 20.96 14.9587C20.3427 14.692 19.816 14.252 19.4427 13.692L17.2267 10.3613C16.9984 10.0189 16.6891 9.7381 16.3263 9.54389C15.9634 9.34967 15.5582 9.24804 15.1467 9.248H14.7133C13.984 9.248 13.2845 8.95827 12.7688 8.44255C12.2531 7.92682 11.9633 7.22735 11.9633 6.498C11.9633 5.76866 12.2531 5.06919 12.7688 4.55346C13.2845 4.03774 13.984 3.74801 14.7133 3.74801H17.4853C17.5893 3.74801 17.6893 3.78134 17.7747 3.84134C19.0802 4.76411 20.1453 5.98664 20.8806 7.40629C21.6158 8.82594 21.9997 10.4013 22 12ZM2.17867 10.1547C2.22667 9.92134 2.43201 9.75467 2.67067 9.75467H7.00667C7.46669 9.75331 7.9224 9.84323 8.34741 10.0192C8.77243 10.1952 9.1583 10.4538 9.48267 10.78L10.6 11.9C11.231 12.5314 11.597 13.38 11.623 14.2722C11.649 15.1645 11.3332 16.0329 10.74 16.7L9.38 18.2293C8.97342 18.6872 8.74901 19.2783 8.74934 19.8907V20.7173C8.74941 20.8004 8.72878 20.8822 8.68933 20.9552C8.64988 21.0283 8.59284 21.0904 8.52337 21.136C8.4539 21.1815 8.37418 21.209 8.29142 21.216C8.20866 21.223 8.12546 21.2092 8.04934 21.176C6.25509 20.4044 4.72607 19.1242 3.65105 17.4936C2.57603 15.8629 2.00206 13.9531 2.00001 12C2.00001 11.3813 2.06134 10.7627 2.17867 10.1547Z" fill="currentColor"/>
</svg>
