<svg viewBox="0 0 32 32" fill="none" xmlns="http://www.w3.org/2000/svg">
    <path d="M28 16C28 13.6266 27.2962 11.3066 25.9776 9.33316C24.6591 7.35977 22.7849 5.8217 20.5922 4.91345C18.3995 4.0052 15.9867 3.76756 13.6589 4.23058C11.3311 4.6936 9.19295 5.83649 7.51472 7.51472C5.83649 9.19295 4.6936 11.3311 4.23058 13.6589C3.76756 15.9867 4.0052 18.3995 4.91345 20.5922C5.8217 22.7849 7.35977 24.6591 9.33316 25.9776C11.3066 27.2962 13.6266 28 16 28H16.1253C19.2736 27.9965 22.2919 26.7443 24.5181 24.5181C26.7443 22.2919 27.9965 19.2736 28 16.1253V16ZM26 16C26 16.8893 25.88 17.776 25.64 18.6333C25.6209 18.7022 25.5873 18.7661 25.5414 18.8208C25.4955 18.8756 25.4384 18.9198 25.374 18.9507C25.3096 18.9815 25.2393 18.9982 25.1679 18.9995C25.0965 19.0009 25.0256 18.987 24.96 18.9587C24.3427 18.692 23.816 18.252 23.4427 17.692L21.2267 14.3613C20.9984 14.0189 20.6891 13.7381 20.3263 13.5439C19.9634 13.3497 19.5582 13.248 19.1467 13.248H18.7133C17.984 13.248 17.2845 12.9583 16.7688 12.4425C16.2531 11.9268 15.9633 11.2274 15.9633 10.498C15.9633 9.76866 16.2531 9.06919 16.7688 8.55346C17.2845 8.03774 17.984 7.74801 18.7133 7.74801H21.4853C21.5893 7.74801 21.6893 7.78134 21.7747 7.84134C23.0802 8.76411 24.1453 9.98664 24.8806 11.4063C25.6158 12.8259 25.9997 14.4013 26 16ZM6.17867 14.1547C6.22667 13.9213 6.43201 13.7547 6.67067 13.7547H11.0067C11.4667 13.7533 11.9224 13.8432 12.3474 14.0192C12.7724 14.1952 13.1583 14.4538 13.4827 14.78L14.6 15.9C15.231 16.5314 15.597 17.38 15.623 18.2722C15.649 19.1645 15.3332 20.0329 14.74 20.7L13.38 22.2293C12.9734 22.6872 12.749 23.2783 12.7493 23.8907V24.7173C12.7494 24.8004 12.7288 24.8822 12.6893 24.9552C12.6499 25.0283 12.5928 25.0904 12.5234 25.136C12.4539 25.1815 12.3742 25.209 12.2914 25.216C12.2087 25.223 12.1255 25.2092 12.0493 25.176C10.2551 24.4044 8.72607 23.1242 7.65105 21.4936C6.57603 19.8629 6.00206 17.9531 6.00001 16C6.00001 15.3813 6.06134 14.7627 6.17867 14.1547Z" fill="currentColor"/>
</svg>
