<svg viewBox="0 0 32 32" fill="none" xmlns="http://www.w3.org/2000/svg">
    <path d="M27.7377 6.84016C27.7098 6.67358 27.6404 6.51669 27.5359 6.38397C27.4315 6.25125 27.2953 6.14695 27.1399 6.08068C26.9846 6.01442 26.815 5.98832 26.6469 6.0048C26.4788 6.02127 26.3176 6.07979 26.178 6.17495C23.878 7.57813 21.2091 8.25719 18.5181 8.12392C12.3393 8.12392 9.76113 10.6434 9.71181 10.7008C8.26653 11.7659 7.21855 13.2834 6.7343 15.0122C6.25005 16.741 6.35728 18.582 7.03898 20.2429C7.07541 20.332 7.08535 20.4297 7.06762 20.5243C7.04988 20.6189 7.00522 20.7063 6.939 20.7762L4.27284 23.665C4.09825 23.8508 4.00074 24.0961 4 24.3511C3.99927 24.6061 4.09537 24.8519 4.26889 25.0388C4.44241 25.2257 4.6804 25.3397 4.93477 25.3579C5.18915 25.3761 5.44093 25.297 5.63925 25.1367C7.35492 23.577 10.1531 18.8779 18.0209 15.5892C18.2673 15.4861 18.5446 15.4852 18.7917 15.5865C19.0388 15.6879 19.2356 15.8833 19.3386 16.1297C19.4417 16.3762 19.4427 16.6534 19.3413 16.9006C19.2399 17.1477 19.0445 17.3444 18.7981 17.4475C15.6567 18.7329 12.794 20.6143 10.3677 22.9878L10.3597 22.9971L10.1277 23.249C10.0769 23.3029 10.0386 23.3675 10.0158 23.438C9.99291 23.5085 9.98602 23.5832 9.99559 23.6567C10.0052 23.7302 10.0309 23.8006 10.0711 23.8629C10.1112 23.9252 10.1647 23.9778 10.2277 24.0169C11.5048 24.8167 12.9819 25.242 14.4882 25.2407C16.5171 25.2051 18.505 24.6644 20.2725 23.6676C29.0388 18.8445 28.2016 9.56897 27.7377 6.84016Z" fill="currentColor"/>
</svg>
