<svg viewBox="0 0 24 20" fill="none" xmlns="http://www.w3.org/2000/svg">
<path d="M23.7377 0.84016C23.7098 0.673575 23.6404 0.516694 23.5359 0.38397C23.4315 0.251246 23.2953 0.146947 23.1399 0.0806844C22.9846 0.0144214 22.815 -0.0116752 22.6469 0.00479896C22.4788 0.0212731 22.3176 0.079788 22.178 0.174953C19.878 1.57813 17.2091 2.25719 14.5181 2.12392C8.33931 2.12392 5.76113 4.64344 5.71181 4.70076C4.26653 5.76588 3.21855 7.28335 2.7343 9.01217C2.25005 10.741 2.35728 12.582 3.03898 14.2429C3.07541 14.332 3.08535 14.4297 3.06762 14.5243C3.04988 14.6189 3.00522 14.7063 2.939 14.7762L0.272841 17.665C0.0982522 17.8508 0.000737783 18.0961 4.16938e-06 18.3511C-0.000729444 18.6061 0.0953725 18.8519 0.268889 19.0388C0.442406 19.2257 0.680398 19.3397 0.934772 19.3579C1.18915 19.3761 1.44093 19.297 1.63925 19.1367C3.35492 17.577 6.15306 12.8779 14.0209 9.58916C14.2673 9.4861 14.5446 9.48515 14.7917 9.58653C15.0388 9.68791 15.2356 9.8833 15.3386 10.1297C15.4417 10.3762 15.4427 10.6534 15.3413 10.9006C15.2399 11.1477 15.0445 11.3444 14.7981 11.4475C11.6567 12.7329 8.79395 14.6143 6.36768 16.9878L6.35968 16.9971L6.12773 17.249C6.07686 17.3029 6.03862 17.3675 6.01576 17.438C5.99291 17.5085 5.98602 17.5832 5.99559 17.6567C6.00516 17.7302 6.03095 17.8006 6.07109 17.8629C6.11124 17.9252 6.16474 17.9778 6.22771 18.0169C7.5048 18.8167 8.98185 19.242 10.4882 19.2407C12.5171 19.2051 14.505 18.6644 16.2725 17.6676C25.0388 12.8445 24.2016 3.56897 23.7377 0.84016Z" fill="currentColor"/>
</svg>
