<svg viewBox="0 0 32 32" fill="none" xmlns="http://www.w3.org/2000/svg">
    <path d="M26.7455 12.1445L16.4602 8.05921C16.256 7.98026 16.0297 7.98026 15.8255 8.05921L5.54017 12.1445C5.3781 12.2091 5.23958 12.3215 5.14309 12.4668C5.0466 12.6122 4.99674 12.7835 5.00017 12.9579V18.7512C5.00017 19.0921 5.13558 19.419 5.37663 19.6601C5.61768 19.9011 5.94461 20.0365 6.2855 20.0365C6.62639 20.0365 6.95332 19.9011 7.19437 19.6601C7.43541 19.419 7.57083 19.0921 7.57083 18.7512V14.4552L15.8588 17.3792C16.0427 17.4437 16.243 17.4437 16.4268 17.3792L26.7135 13.7485C26.8777 13.6903 27.0203 13.5834 27.1222 13.4421C27.2242 13.3008 27.2807 13.1318 27.2841 12.9576C27.2876 12.7834 27.2379 12.6123 27.1417 12.467C27.0455 12.3218 26.9073 12.2093 26.7455 12.1445Z" fill="currentColor"/>
    <path d="M21.7361 16.8032L16.1427 18.7792L10.5494 16.8032C10.42 16.7575 10.2816 16.7436 10.1457 16.7625C10.0098 16.7815 9.88049 16.8327 9.76854 16.912C9.65659 16.9913 9.5653 17.0963 9.50234 17.2182C9.43938 17.3401 9.4066 17.4753 9.40674 17.6125V21.2899C9.40674 21.6539 9.63607 21.9779 9.98007 22.0992L14.3934 23.6552C15.5254 24.0552 16.7601 24.0552 17.8934 23.6552L22.3067 22.0992C22.4741 22.0401 22.6191 21.9305 22.7215 21.7856C22.824 21.6406 22.8789 21.4674 22.8787 21.2899V17.6112C22.8789 17.474 22.8461 17.3388 22.7831 17.2169C22.7202 17.095 22.6289 16.99 22.5169 16.9107C22.405 16.8314 22.2756 16.7801 22.1398 16.7612C22.0039 16.7423 21.8654 16.7575 21.7361 16.8032Z" fill="currentColor"/>
</svg>
