<svg viewBox="0 0 23 16" fill="none" xmlns="http://www.w3.org/2000/svg">
<path d="M21.7455 4.14454L11.4602 0.059208C11.256 -0.019736 11.0297 -0.019736 10.8255 0.059208L0.540165 4.14454C0.3781 4.20908 0.239577 4.32151 0.14309 4.46684C0.046602 4.61216 -0.00325828 4.78347 0.000165189 4.95788V10.7512C0.000165194 11.0921 0.135584 11.419 0.376631 11.6601C0.617677 11.9011 0.944607 12.0365 1.2855 12.0365C1.62639 12.0365 1.95332 11.9011 2.19437 11.6601C2.43541 11.419 2.57083 11.0921 2.57083 10.7512V6.45521L10.8588 9.37921C11.0427 9.44375 11.243 9.44375 11.4268 9.37921L21.7135 5.74854C21.8777 5.69031 22.0203 5.58342 22.1222 5.44212C22.2242 5.30082 22.2807 5.13181 22.2841 4.95761C22.2876 4.7834 22.2379 4.61228 22.1417 4.46702C22.0455 4.32176 21.9073 4.20928 21.7455 4.14454Z" fill="currentColor"/>
<path d="M16.7361 8.8032L11.1427 10.7792L5.54941 8.8032C5.42004 8.75754 5.2816 8.74359 5.14572 8.76253C5.00984 8.78147 4.88049 8.83274 4.76854 8.91204C4.65659 8.99133 4.5653 9.09634 4.50234 9.21823C4.43938 9.34012 4.4066 9.47534 4.40674 9.61253V13.2899C4.40674 13.6539 4.63607 13.9779 4.98007 14.0992L9.39341 15.6552C10.5254 16.0552 11.7601 16.0552 12.8934 15.6552L17.3067 14.0992C17.4741 14.0401 17.6191 13.9305 17.7215 13.7856C17.824 13.6406 17.8789 13.4674 17.8787 13.2899V9.6112C17.8789 9.47401 17.8461 9.33879 17.7831 9.21689C17.7202 9.095 17.6289 8.99 17.5169 8.9107C17.405 8.83141 17.2756 8.78014 17.1398 8.7612C17.0039 8.74226 16.8654 8.75754 16.7361 8.8032Z" fill="currentColor"/>
</svg>
