<svg viewBox="0 0 16 24" fill="none" xmlns="http://www.w3.org/2000/svg">
<path d="M11.636 1.16533C11.636 -7.94729e-08 10.5827 0 10.5827 0C9.52667 0 9.52667 1.164 9.52667 1.164V6.03733H11.636V1.164V1.16533ZM6.29067 1.16533C6.29067 -7.94729e-08 5.23733 0 5.23733 0C4.18133 0 4.18133 1.164 4.18133 1.164V6.03733H6.29067V1.164V1.16533ZM14.364 6.94533H1.45333C0 6.94533 0 8.4 0 8.4V8.65467C0 10.1093 1.45333 10.1093 1.45333 10.1093H2.72667C2.69067 10.4 2.69067 10.5827 2.69067 10.5827V12.8C2.69067 16.4733 6.364 16.4733 6.364 16.4733H6.69067V16.692C6.69067 16.8373 6.65467 17.4187 6.43733 17.7827C6.18133 18.1453 6 18.436 4.98133 18.4733C3.05467 18.4373 1.78133 19.6 1.30933 20.6187C0.8 21.6373 0.8 22.5453 0.8 22.6547C0.8 23.2733 1.30933 23.8187 1.964 23.8187C2.27183 23.8162 2.56634 23.6928 2.7839 23.475C3.00145 23.2572 3.12458 22.9625 3.12667 22.6547V22.6187C3.12667 22.4373 3.236 21.892 3.49067 21.492C3.78133 21.128 4.03733 20.8 5.01867 20.8C6.72667 20.8373 7.964 19.892 8.472 18.9093C8.98133 17.928 9.01867 17.056 9.01867 16.692V16.4733H9.52667C13.2 16.472 13.2 12.8 13.2 12.8V10.5827C13.2 10.4 13.2 10.2547 13.164 10.1093H14.4C15.8533 10.1093 15.8533 8.656 15.8533 8.656V8.4C15.8533 6.94667 14.364 6.94667 14.364 6.94667V6.94533Z" fill="currentColor"/>
</svg>
