<svg viewBox="0 0 32 32" fill="none" xmlns="http://www.w3.org/2000/svg">
    <path d="M19.636 5.16533C19.636 4 18.5827 4 18.5827 4C17.5267 4 17.5267 5.164 17.5267 5.164V10.0373H19.636V5.164V5.16533ZM14.2907 5.16533C14.2907 4 13.2373 4 13.2373 4C12.1813 4 12.1813 5.164 12.1813 5.164V10.0373H14.2907V5.164V5.16533ZM22.364 10.9453H9.45333C8 10.9453 8 12.4 8 12.4V12.6547C8 14.1093 9.45333 14.1093 9.45333 14.1093H10.7267C10.6907 14.4 10.6907 14.5827 10.6907 14.5827V16.8C10.6907 20.4733 14.364 20.4733 14.364 20.4733H14.6907V20.692C14.6907 20.8373 14.6547 21.4187 14.4373 21.7827C14.1813 22.1453 14 22.436 12.9813 22.4733C11.0547 22.4373 9.78133 23.6 9.30933 24.6187C8.8 25.6373 8.8 26.5453 8.8 26.6547C8.8 27.2733 9.30933 27.8187 9.964 27.8187C10.2718 27.8162 10.5663 27.6928 10.7839 27.475C11.0015 27.2572 11.1246 26.9625 11.1267 26.6547V26.6187C11.1267 26.4373 11.236 25.892 11.4907 25.492C11.7813 25.128 12.0373 24.8 13.0187 24.8C14.7267 24.8373 15.964 23.892 16.472 22.9093C16.9813 21.928 17.0187 21.056 17.0187 20.692V20.4733H17.5267C21.2 20.472 21.2 16.8 21.2 16.8V14.5827C21.2 14.4 21.2 14.2547 21.164 14.1093H22.4C23.8533 14.1093 23.8533 12.656 23.8533 12.656V12.4C23.8533 10.9467 22.364 10.9467 22.364 10.9467V10.9453Z" fill="currentColor"/>
</svg>
