<svg xmlns="http://www.w3.org/2000/svg" fill="none" viewBox="0 0 14 14"><path fill="currentColor" fill-rule="evenodd" d="M9.494.02a.478.478 0 0 0-.301.259.382.382 0 0 0-.037.188c0 .188.097.34.27.422l.083.039 1.45.004 1.449.004-2.241 2.24c-2.496 2.497-2.316 2.3-2.317 2.518 0 .193.098.343.28.426.07.032.096.036.201.03a.455.455 0 0 0 .189-.04c.048-.025.69-.657 2.308-2.273l2.242-2.24.004 1.45.004 1.449.039.081a.53.53 0 0 0 .214.228c.05.027.084.032.208.032.135 0 .155-.003.216-.04a.546.546 0 0 0 .217-.243c.027-.07.028-.143.028-2.14V.349l-.033-.07a.546.546 0 0 0-.265-.248C13.62 0 13.61-.001 11.586 0c-1.489.002-2.049.007-2.092.02ZM5.618 7.847a.558.558 0 0 0-.134.044c-.047.023-.696.662-2.307 2.272L.935 12.403l-.004-1.457L.927 9.49.89 9.418a.462.462 0 0 0-.425-.266.454.454 0 0 0-.42.271l-.04.082-.004 2.036c-.003 1.425 0 2.057.012 2.104.021.089.104.207.185.266.135.097.008.091 2.257.087l2.042-.004.074-.034a.57.57 0 0 0 .23-.212.504.504 0 0 0 .001-.43.539.539 0 0 0-.22-.211l-.07-.034-1.457-.005-1.458-.004 2.247-2.248c2.525-2.526 2.318-2.3 2.309-2.529a.406.406 0 0 0-.04-.187.465.465 0 0 0-.495-.252Z" clip-rule="evenodd"/></svg>