<svg viewBox="0 0 12 13" fill="none" xmlns="http://www.w3.org/2000/svg">
    <path d="M11.3854 8.55347C11.2231 8.55347 11.0674 8.61795 10.9527 8.73274C10.8379 8.84752 10.7734 9.00319 10.7734 9.16552V10.1023C10.7731 10.3125 10.6894 10.5141 10.5407 10.6628C10.392 10.8114 10.1903 10.895 9.98005 10.8951H2.01742C1.80715 10.895 1.60551 10.8114 1.45678 10.6628C1.30804 10.5141 1.22436 10.3125 1.22409 10.1023V9.16552C1.22409 9.00319 1.1596 8.84752 1.04482 8.73274C0.930044 8.61795 0.774368 8.55347 0.612044 8.55347C0.44972 8.55347 0.294044 8.61795 0.179264 8.73274C0.064483 8.84752 0 9.00319 0 9.16552V10.1023C-4.18192e-07 10.6376 0.212468 11.151 0.590736 11.5297C0.969003 11.9084 1.48214 12.1215 2.01742 12.1222H9.98005C10.5158 12.1222 11.0296 11.9094 11.4084 11.5306C11.7872 11.1518 12 10.638 12 10.1023V9.16552C12 9.08493 11.9841 9.00513 11.9532 8.93071C11.9223 8.85629 11.8769 8.78871 11.8198 8.73184C11.7627 8.67497 11.695 8.62994 11.6204 8.59933C11.5459 8.56872 11.466 8.55314 11.3854 8.55347Z" fill="currentColor"/>
    <path d="M5.99873 0C5.73903 0 5.48998 0.103162 5.30635 0.286792C5.12272 0.470422 5.01956 0.719477 5.01956 0.979169V5.55738C5.01956 5.59086 5.00626 5.62297 4.98258 5.64665C4.9589 5.67033 4.92679 5.68363 4.89331 5.68363H3.55055C3.45662 5.68366 3.36468 5.71071 3.28569 5.76154C3.2067 5.81237 3.14399 5.88484 3.10503 5.97031C3.06607 6.05578 3.05251 6.15065 3.06596 6.24361C3.07941 6.33658 3.11931 6.42371 3.1809 6.49463L5.62908 9.31044C5.67501 9.3634 5.73179 9.40587 5.79556 9.43497C5.85934 9.46408 5.92862 9.47914 5.99873 9.47914C6.06883 9.47914 6.13811 9.46408 6.20189 9.43497C6.26567 9.40587 6.32244 9.3634 6.36838 9.31044L8.81655 6.49463C8.87814 6.42371 8.91804 6.33658 8.93149 6.24361C8.94494 6.15065 8.93138 6.05578 8.89242 5.97031C8.85347 5.88484 8.79076 5.81237 8.71176 5.76154C8.63277 5.71071 8.54083 5.68366 8.4469 5.68363H7.10414C7.07066 5.68363 7.03855 5.67033 7.01487 5.64665C6.9912 5.62297 6.9779 5.59086 6.9779 5.55738V0.979169C6.9779 0.719477 6.87473 0.470422 6.6911 0.286792C6.50747 0.103162 6.25842 0 5.99873 0Z" fill="currentColor"/>
</svg>
