<svg viewBox="0 0 12 8" fill="none" xmlns="http://www.w3.org/2000/svg">
    <path d="M5.99949 1.00054C4.20785 0.970313 2.35489 2.22237 1.18995 3.50464C1.06767 3.6404 1 3.81663 1 3.99933C1 4.18204 1.06767 4.35827 1.18995 4.49402C2.32955 5.74918 4.17719 7.03013 5.99949 6.99946C7.82179 7.03013 9.66987 5.74918 10.8104 4.49402C10.9326 4.35827 11.0003 4.18204 11.0003 3.99933C11.0003 3.81663 10.9326 3.6404 10.8104 3.50464C9.64409 2.22237 7.79112 0.970313 5.99949 1.00054Z" stroke="currentColor" stroke-width="0.8" stroke-linecap="round" stroke-linejoin="round"/>
    <path d="M7.66624 4.00019C7.66615 4.32982 7.56833 4.65202 7.38513 4.92606C7.20193 5.20009 6.94159 5.41366 6.63703 5.53974C6.33246 5.66582 5.99735 5.69877 5.67407 5.6344C5.35078 5.57004 5.05384 5.41127 4.82078 5.17815C4.58773 4.94504 4.42903 4.64805 4.36476 4.32475C4.30048 4.00144 4.33352 3.66634 4.45968 3.36181C4.58584 3.05728 4.79947 2.797 5.07356 2.61387C5.34764 2.43075 5.66987 2.33301 5.9995 2.33301C6.21844 2.33295 6.43523 2.37604 6.63751 2.4598C6.83978 2.54357 7.02356 2.66638 7.17835 2.82121C7.33314 2.97604 7.4559 3.15986 7.53961 3.36215C7.62333 3.56445 7.66636 3.78126 7.66624 4.00019Z" stroke="currentColor" stroke-width="0.8" stroke-linecap="round" stroke-linejoin="round"/>
</svg>
