<svg viewBox="0 0 12 10" fill="none" xmlns="http://www.w3.org/2000/svg">
    <path d="M1.90271 9L10.236 1" stroke="currentColor" stroke-width="0.8" stroke-linecap="round" stroke-linejoin="round"/>
    <path d="M4.65002 8.13373C5.08683 8.26938 5.54198 8.3367 5.99936 8.33328C7.82158 8.36395 9.66958 7.08306 10.81 5.82795C10.9323 5.6922 11 5.51598 11 5.33328C11 5.15059 10.9323 4.97436 10.81 4.83862C10.3969 4.38538 9.93916 3.97486 9.4438 3.61328" stroke="currentColor" stroke-width="0.8" stroke-linecap="round" stroke-linejoin="round"/>
    <path d="M7.07172 2.45862C6.72103 2.37135 6.36063 2.32923 5.99927 2.33328C4.20772 2.30351 2.35483 3.5564 1.18994 4.83773C1.06767 4.97348 1 5.1497 1 5.3324C1 5.51509 1.06767 5.69132 1.18994 5.82706C1.54413 6.2148 1.93071 6.57164 2.3455 6.89373" stroke="currentColor" stroke-width="0.8" stroke-linecap="round" stroke-linejoin="round"/>
    <path d="M4.33264 5.33329C4.33258 5.11441 4.37565 4.89765 4.45939 4.69542C4.54313 4.49318 4.66589 4.30943 4.82067 4.15465C4.97544 3.99988 5.1592 3.87711 5.36143 3.79337C5.56367 3.70964 5.78042 3.66657 5.99931 3.66663" stroke="currentColor" stroke-width="0.8" stroke-linecap="round" stroke-linejoin="round"/>
    <path d="M7.66594 5.33276C7.66599 5.55167 7.62293 5.76845 7.5392 5.97071C7.45546 6.17297 7.33271 6.35675 7.17794 6.51156C7.02317 6.66637 6.83941 6.78918 6.63718 6.87297C6.43494 6.95675 6.21817 6.99988 5.99927 6.99988" stroke="currentColor" stroke-width="0.8" stroke-linecap="round" stroke-linejoin="round"/>
</svg>
