<svg viewBox="0 0 10 6" fill="none" xmlns="http://www.w3.org/2000/svg">
    <path fill-rule="evenodd" clip-rule="evenodd" d="M0.189947 2.50464C1.35489 1.22237 3.20785 -0.0296872 4.99949 0.000536348C6.79112 -0.0296872 8.64409 1.22237 9.81036 2.50464C9.93264 2.6404 10.0003 2.81663 10.0003 2.99933C10.0003 3.18204 9.93264 3.35827 9.81036 3.49402C8.66987 4.74918 6.82179 6.03013 4.99949 5.99946C3.17719 6.03013 1.32955 4.74918 0.189947 3.49402C0.0676679 3.35827 0 3.18204 0 2.99933C0 2.81663 0.0676679 2.6404 0.189947 2.50464ZM6.38513 3.92606C6.56833 3.65202 6.66615 3.32982 6.66624 3.00019C6.66636 2.78126 6.62333 2.56445 6.53961 2.36215C6.4559 2.15986 6.33314 1.97604 6.17835 1.82121C6.02356 1.66638 5.83978 1.54357 5.63751 1.4598C5.43523 1.37604 5.21844 1.33295 4.9995 1.33301C4.66987 1.33301 4.34764 1.43075 4.07356 1.61387C3.79947 1.797 3.58584 2.05728 3.45968 2.36181C3.33352 2.66634 3.30048 3.00144 3.36476 3.32475C3.42903 3.64805 3.58773 3.94504 3.82078 4.17815C4.05384 4.41127 4.35078 4.57004 4.67407 4.6344C4.99735 4.69877 5.33246 4.66582 5.63703 4.53974C5.94159 4.41366 6.20193 4.20009 6.38513 3.92606Z" fill="currentColor"/>
</svg>
