<svg viewBox="0 0 24 24" fill="none" xmlns="http://www.w3.org/2000/svg">
    <g clip-path="url(#clip0_2913:34185)">
        <path d="M12.0167 24C5.38912 24 0 18.6444 0 12.0167C0 5.38912 5.38912 0 12.0167 0C18.6444 0 24.0335 5.38912 24.0335 12.0167C24 18.6444 18.6444 24 12.0167 24Z" fill="#3E5C9A"/>
        <path d="M10.1758 19.2469H13.088V11.9498H15.1298L15.3306 9.50631H13.088C13.088 9.50631 13.088 8.60255 13.088 8.10045C13.088 7.53142 13.1884 7.29711 13.7574 7.29711C14.1926 7.29711 15.3306 7.29711 15.3306 7.29711V4.75317C15.3306 4.75317 13.657 4.75317 13.3223 4.75317C11.1465 4.75317 10.1758 5.72389 10.1758 7.53142C10.1758 9.13811 10.1758 9.47284 10.1758 9.47284H8.66956V11.9498H10.1758V19.2469Z" fill="white"/>
    </g>
    <defs>
        <clipPath id="clip0_2913:34185">
            <rect width="24" height="24" fill="white"/>
        </clipPath>
    </defs>
</svg>
