<svg viewBox="0 0 24 18" fill="none" xmlns="http://www.w3.org/2000/svg">
<path d="M5.56934 14.4507C5.16966 14.3183 4.82172 14.0637 4.57477 13.7227C4.32782 13.3817 4.19438 12.9717 4.19334 12.5507V10.788C4.19334 9.63333 4.64667 8.52533 5.45734 7.704C5.53401 7.62617 5.58308 7.52538 5.59704 7.41702C5.61101 7.30867 5.5891 7.19873 5.53467 7.104C5.31592 6.7211 5.17118 6.30044 5.108 5.864C5.0927 5.75981 5.04489 5.6631 4.97138 5.58768C4.89788 5.51226 4.80244 5.46198 4.69867 5.444C4.12275 5.34184 3.53144 5.36722 2.9664 5.51836C2.40136 5.6695 1.87633 5.94272 1.42833 6.31877C0.980331 6.69481 0.620251 7.16454 0.373467 7.69483C0.126683 8.22513 -0.000799043 8.80309 3.76828e-06 9.388V11.556C3.76828e-06 11.832 0.224004 12.056 0.500004 12.056H1.34534C1.60267 12.056 1.82 12.2507 1.84534 12.5067L2.33867 17.44C2.36534 17.696 2.58134 17.8907 2.83867 17.8893H5.16667C5.29116 17.8899 5.4114 17.8441 5.50387 17.7607C5.59634 17.6774 5.65439 17.5625 5.66667 17.4387L5.91334 14.9773C5.92497 14.8634 5.89715 14.749 5.83454 14.6531C5.77193 14.5573 5.67831 14.4858 5.56934 14.4507ZM4 4.888C4.31334 4.888 4.624 4.828 4.91467 4.71067C4.98505 4.68226 5.04804 4.6382 5.09886 4.58183C5.14968 4.52547 5.18701 4.45827 5.208 4.38533C5.39467 3.73733 5.764 3.15733 6.27067 2.712C6.32716 2.66235 6.37172 2.6006 6.40104 2.53135C6.43036 2.46209 6.44368 2.38712 6.44 2.312C6.4142 1.83492 6.24913 1.37587 5.9652 0.991615C5.68128 0.607357 5.29095 0.314744 4.8425 0.149962C4.39404 -0.0148202 3.90712 -0.0445445 3.44195 0.0644649C2.97677 0.173474 2.55375 0.416436 2.2252 0.763305C1.89664 1.11017 1.67696 1.54574 1.59332 2.01613C1.50967 2.48653 1.56574 2.97112 1.75458 3.40999C1.94342 3.84886 2.25675 4.22276 2.65583 4.48545C3.05491 4.74813 3.52223 4.88809 4 4.888ZM10.624 5.36133C10.624 4.82383 10.4105 4.30834 10.0304 3.92826C9.65033 3.54819 9.13484 3.33467 8.59734 3.33467C8.05983 3.33467 7.54434 3.54819 7.16427 3.92826C6.78419 4.30834 6.57067 4.82383 6.57067 5.36133C6.57067 5.89884 6.78419 6.41433 7.16427 6.7944C7.54434 7.17448 8.05983 7.388 8.59734 7.388C9.13484 7.388 9.65033 7.17448 10.0304 6.7944C10.4105 6.41433 10.624 5.89884 10.624 5.36133Z" fill="currentColor"/>
<path d="M8.59995 7.88813C7.83082 7.88813 7.0932 8.19367 6.54934 8.73752C6.00549 9.28138 5.69995 10.019 5.69995 10.7881V12.5481C5.69995 12.8228 5.92395 13.0468 6.19995 13.0468H6.69995C6.82444 13.0462 6.94468 13.092 7.03715 13.1754C7.12962 13.2587 7.18767 13.3736 7.19995 13.4975L7.59328 17.4348C7.61995 17.6921 7.83595 17.8868 8.09328 17.8855H9.12395C9.24844 17.8861 9.36868 17.8402 9.46115 17.7569C9.55362 17.6735 9.61167 17.5587 9.62395 17.4348L9.99995 13.5015C10.0122 13.3776 10.0703 13.2627 10.1628 13.1794C10.2552 13.096 10.3755 13.0502 10.5 13.0508H11C11.1326 13.0508 11.2597 12.9981 11.3535 12.9044C11.4473 12.8106 11.5 12.6834 11.5 12.5508V10.7881C11.5 10.4073 11.4249 10.0302 11.2792 9.67835C11.1335 9.32651 10.9199 9.00681 10.6506 8.73752C10.3813 8.46823 10.0616 8.25462 9.70973 8.10888C9.35789 7.96314 8.98078 7.88813 8.59995 7.88813ZM20 5.38813C19.7653 5.38813 19.5306 5.40813 19.3 5.44947C19.1962 5.46778 19.101 5.51837 19.0277 5.59403C18.9544 5.66969 18.9069 5.76655 18.892 5.8708C18.8286 6.30678 18.6839 6.72697 18.4653 7.10947C18.4107 7.20405 18.3886 7.31391 18.4023 7.42226C18.416 7.53061 18.4648 7.63148 18.5413 7.70947C19.352 8.52947 19.8053 9.63613 19.808 10.7881V12.5481C19.8065 12.9691 19.6728 13.3789 19.4256 13.7197C19.1784 14.0604 18.8303 14.3148 18.4306 14.4468C18.3226 14.4826 18.2301 14.5542 18.1683 14.6497C18.1065 14.7452 18.0791 14.859 18.0906 14.9721L18.336 17.4335C18.3626 17.6908 18.5786 17.8855 18.836 17.8841H21.1693C21.294 17.8851 21.4146 17.8394 21.5073 17.756C21.6001 17.6726 21.6583 17.5576 21.6706 17.4335L22.164 12.5015C22.1762 12.3776 22.2343 12.2627 22.3268 12.1794C22.4192 12.096 22.5395 12.0502 22.664 12.0508H23.5C23.6326 12.0508 23.7597 11.9981 23.8535 11.9044C23.9473 11.8106 24 11.6834 24 11.5508V9.38813C24 8.32727 23.5785 7.30985 22.8284 6.55971C22.0782 5.80956 21.0608 5.38813 20 5.38813ZM18.7933 4.38813C18.836 4.5348 18.944 4.6548 19.0866 4.71347C19.5667 4.90698 20.0959 4.94307 20.5978 4.81653C21.0997 4.68999 21.5485 4.40735 21.8795 4.00935C22.2104 3.61136 22.4065 3.11855 22.4394 2.60196C22.4723 2.08538 22.3403 1.57169 22.0625 1.13493C21.7846 0.698177 21.3753 0.360909 20.8935 0.171739C20.4117 -0.0174318 19.8822 -0.0487357 19.3814 0.0823388C18.8807 0.213413 18.4345 0.500097 18.1071 0.901071C17.7798 1.30205 17.5882 1.7966 17.56 2.31347C17.5563 2.38858 17.5696 2.46356 17.5989 2.53281C17.6282 2.60207 17.6728 2.66382 17.7293 2.71347C18.236 3.1588 18.6053 3.74013 18.7933 4.38813ZM15.4 3.33347C14.8623 3.33347 14.3466 3.54706 13.9664 3.92726C13.5862 4.30746 13.3726 4.82312 13.3726 5.3608C13.3726 5.89848 13.5862 6.41414 13.9664 6.79434C14.3466 7.17454 14.8623 7.38813 15.4 7.38813C15.9375 7.38813 16.4529 7.17461 16.833 6.79454C17.2131 6.41446 17.4266 5.89897 17.4266 5.36147C17.4266 4.82396 17.2131 4.30847 16.833 3.9284C16.4529 3.54832 15.9375 3.33347 15.4 3.33347Z" fill="currentColor"/>
<path d="M18.3067 12.5494V10.7881C18.3067 10.0181 18.0008 9.27961 17.4563 8.73513C16.9118 8.19065 16.1733 7.88477 15.4033 7.88477C14.6333 7.88477 13.8948 8.19065 13.3504 8.73513C12.8059 9.27961 12.5 10.0181 12.5 10.7881V12.5481C12.5 12.8228 12.724 13.0468 13 13.0468H13.5C13.6245 13.0462 13.7447 13.092 13.8372 13.1754C13.9297 13.2587 13.9877 13.3736 14 13.4974L14.3947 17.4348C14.4067 17.5588 14.4646 17.6738 14.5572 17.7572C14.6497 17.8406 14.7701 17.8863 14.8947 17.8854H15.9253C16.0498 17.886 16.1701 17.8402 16.2625 17.7568C16.355 17.6735 16.4131 17.5586 16.4253 17.4348L16.8187 13.4974C16.8309 13.3736 16.889 13.2587 16.9815 13.1754C17.0739 13.092 17.1942 13.0462 17.3187 13.0468H17.8187C17.9513 13.0468 18.0785 12.9941 18.1722 12.9003C18.266 12.8066 18.3187 12.6794 18.3187 12.5468L18.3067 12.5494Z" fill="currentColor"/>
</svg>
