<svg viewBox="0 0 32 32" fill="none" xmlns="http://www.w3.org/2000/svg">
    <path d="M9.56934 21.4507C9.16966 21.3183 8.82172 21.0637 8.57477 20.7227C8.32782 20.3817 8.19438 19.9717 8.19334 19.5507V17.788C8.19334 16.6333 8.64667 15.5253 9.45734 14.704C9.53401 14.6262 9.58308 14.5254 9.59704 14.417C9.61101 14.3087 9.5891 14.1987 9.53467 14.104C9.31592 13.7211 9.17118 13.3004 9.108 12.864C9.0927 12.7598 9.04489 12.6631 8.97138 12.5877C8.89788 12.5123 8.80244 12.462 8.69867 12.444C8.12275 12.3418 7.53144 12.3672 6.9664 12.5184C6.40136 12.6695 5.87633 12.9427 5.42833 13.3188C4.98033 13.6948 4.62025 14.1645 4.37347 14.6948C4.12668 15.2251 3.9992 15.8031 4 16.388V18.556C4 18.832 4.224 19.056 4.5 19.056H5.34534C5.60267 19.056 5.82 19.2507 5.84534 19.5067L6.33867 24.44C6.36534 24.696 6.58134 24.8907 6.83867 24.8893H9.16667C9.29116 24.8899 9.4114 24.8441 9.50387 24.7607C9.59634 24.6774 9.65439 24.5625 9.66667 24.4387L9.91334 21.9773C9.92497 21.8634 9.89715 21.749 9.83454 21.6531C9.77193 21.5573 9.67831 21.4858 9.56934 21.4507ZM8 11.888C8.31334 11.888 8.624 11.828 8.91467 11.7107C8.98505 11.6823 9.04804 11.6382 9.09886 11.5818C9.14968 11.5255 9.18701 11.4583 9.208 11.3853C9.39467 10.7373 9.764 10.1573 10.2707 9.712C10.3272 9.66235 10.3717 9.6006 10.401 9.53135C10.4304 9.46209 10.4437 9.38712 10.44 9.312C10.4142 8.83492 10.2491 8.37587 9.9652 7.99161C9.68128 7.60736 9.29095 7.31474 8.8425 7.14996C8.39404 6.98518 7.90712 6.95546 7.44195 7.06446C6.97677 7.17347 6.55375 7.41644 6.2252 7.76331C5.89664 8.11017 5.67696 8.54574 5.59332 9.01613C5.50967 9.48653 5.56574 9.97112 5.75458 10.41C5.94342 10.8489 6.25675 11.2228 6.65583 11.4854C7.05491 11.7481 7.52223 11.8881 8 11.888ZM14.624 12.3613C14.624 11.8238 14.4105 11.3083 14.0304 10.9283C13.6503 10.5482 13.1348 10.3347 12.5973 10.3347C12.0598 10.3347 11.5443 10.5482 11.1643 10.9283C10.7842 11.3083 10.5707 11.8238 10.5707 12.3613C10.5707 12.8988 10.7842 13.4143 11.1643 13.7944C11.5443 14.1745 12.0598 14.388 12.5973 14.388C13.1348 14.388 13.6503 14.1745 14.0304 13.7944C14.4105 13.4143 14.624 12.8988 14.624 12.3613Z" fill="currentColor"/>
    <path d="M12.6 14.8881C11.8308 14.8881 11.0932 15.1937 10.5493 15.7375C10.0055 16.2814 9.69995 17.019 9.69995 17.7881V19.5481C9.69995 19.8228 9.92395 20.0468 10.2 20.0468H10.7C10.8244 20.0462 10.9447 20.092 11.0371 20.1754C11.1296 20.2587 11.1877 20.3736 11.2 20.4975L11.5933 24.4348C11.62 24.6921 11.836 24.8868 12.0933 24.8855H13.124C13.2484 24.8861 13.3687 24.8402 13.4611 24.7569C13.5536 24.6735 13.6117 24.5587 13.624 24.4348L14 20.5015C14.0122 20.3776 14.0703 20.2627 14.1628 20.1794C14.2552 20.096 14.3755 20.0502 14.5 20.0508H15C15.1326 20.0508 15.2597 19.9981 15.3535 19.9044C15.4473 19.8106 15.5 19.6834 15.5 19.5508V17.7881C15.5 17.4073 15.4249 17.0302 15.2792 16.6784C15.1335 16.3265 14.9199 16.0068 14.6506 15.7375C14.3813 15.4682 14.0616 15.2546 13.7097 15.1089C13.3579 14.9631 12.9808 14.8881 12.6 14.8881ZM24 12.3881C23.7653 12.3881 23.5306 12.4081 23.3 12.4495C23.1962 12.4678 23.101 12.5184 23.0277 12.594C22.9544 12.6697 22.9069 12.7665 22.892 12.8708C22.8286 13.3068 22.6839 13.727 22.4653 14.1095C22.4107 14.2041 22.3886 14.3139 22.4023 14.4223C22.416 14.5306 22.4648 14.6315 22.5413 14.7095C23.352 15.5295 23.8053 16.6361 23.808 17.7881V19.5481C23.8065 19.9691 23.6728 20.3789 23.4256 20.7197C23.1784 21.0604 22.8303 21.3148 22.4306 21.4468C22.3226 21.4826 22.2301 21.5542 22.1683 21.6497C22.1065 21.7452 22.0791 21.859 22.0906 21.9721L22.336 24.4335C22.3626 24.6908 22.5786 24.8855 22.836 24.8841H25.1693C25.294 24.8851 25.4146 24.8394 25.5073 24.756C25.6001 24.6726 25.6583 24.5576 25.6706 24.4335L26.164 19.5015C26.1762 19.3776 26.2343 19.2627 26.3268 19.1794C26.4192 19.096 26.5395 19.0502 26.664 19.0508H27.5C27.6326 19.0508 27.7597 18.9981 27.8535 18.9044C27.9473 18.8106 28 18.6834 28 18.5508V16.3881C28 15.3273 27.5785 14.3099 26.8284 13.5597C26.0782 12.8096 25.0608 12.3881 24 12.3881ZM22.7933 11.3881C22.836 11.5348 22.944 11.6548 23.0866 11.7135C23.5667 11.907 24.0959 11.9431 24.5978 11.8165C25.0997 11.69 25.5485 11.4074 25.8795 11.0094C26.2104 10.6114 26.4065 10.1186 26.4394 9.60196C26.4723 9.08538 26.3403 8.57169 26.0625 8.13493C25.7846 7.69818 25.3753 7.36091 24.8935 7.17174C24.4117 6.98257 23.8822 6.95126 23.3814 7.08234C22.8807 7.21341 22.4345 7.5001 22.1071 7.90107C21.7798 8.30205 21.5882 8.7966 21.56 9.31347C21.5563 9.38858 21.5696 9.46356 21.5989 9.53281C21.6282 9.60207 21.6728 9.66382 21.7293 9.71347C22.236 10.1588 22.6053 10.7401 22.7933 11.3881ZM19.4 10.3335C18.8623 10.3335 18.3466 10.5471 17.9664 10.9273C17.5862 11.3075 17.3726 11.8231 17.3726 12.3608C17.3726 12.8985 17.5862 13.4141 17.9664 13.7943C18.3466 14.1745 18.8623 14.3881 19.4 14.3881C19.9375 14.3881 20.4529 14.1746 20.833 13.7945C21.2131 13.4145 21.4266 12.899 21.4266 12.3615C21.4266 11.824 21.2131 11.3085 20.833 10.9284C20.4529 10.5483 19.9375 10.3335 19.4 10.3335Z" fill="currentColor"/>
    <path d="M22.3067 19.5494V17.7881C22.3067 17.0181 22.0008 16.2796 21.4563 15.7351C20.9118 15.1907 20.1733 14.8848 19.4033 14.8848C18.6333 14.8848 17.8948 15.1907 17.3504 15.7351C16.8059 16.2796 16.5 17.0181 16.5 17.7881V19.5481C16.5 19.8228 16.724 20.0468 17 20.0468H17.5C17.6245 20.0462 17.7447 20.092 17.8372 20.1754C17.9297 20.2587 17.9877 20.3736 18 20.4974L18.3947 24.4348C18.4067 24.5588 18.4646 24.6738 18.5572 24.7572C18.6497 24.8406 18.7701 24.8863 18.8947 24.8854H19.9253C20.0498 24.886 20.1701 24.8402 20.2625 24.7568C20.355 24.6735 20.4131 24.5586 20.4253 24.4348L20.8187 20.4974C20.8309 20.3736 20.889 20.2587 20.9815 20.1754C21.0739 20.092 21.1942 20.0462 21.3187 20.0468H21.8187C21.9513 20.0468 22.0785 19.9941 22.1722 19.9003C22.266 19.8066 22.3187 19.6794 22.3187 19.5468L22.3067 19.5494Z" fill="currentColor"/>
</svg>
