<svg viewBox="0 0 14 14" fill="none" xmlns="http://www.w3.org/2000/svg">
    <path fill-rule="evenodd" clip-rule="evenodd" d="M11.6103 0.00793513C10.9627 0.0743543 10.3664 0.435844 10.0134 0.975985C9.92868 1.10562 9.80979 1.3589 9.76964 1.49525L9.73353 1.61784L4.14328 1.62206L0.382641 1.62626L0.302975 1.66219C0.208523 1.70478 0.0977081 1.80585 0.0536211 1.88959C-0.081205 2.14573 0.0485223 2.46986 0.327511 2.57388C0.404261 2.60251 1.51605 2.60348 4.1567 2.60348H9.73613L9.75602 2.68556C9.78474 2.80411 9.8874 3.04414 9.96434 3.1727C10.073 3.35415 10.1744 3.47943 10.3398 3.6366C10.5767 3.86166 10.8333 4.01706 11.1335 4.11723C11.3891 4.20257 11.5178 4.22174 11.8345 4.22174C12.1513 4.22174 12.2799 4.20257 12.5356 4.11723C13.2191 3.88908 13.7588 3.31137 13.9276 2.62693C14.0511 2.1262 13.999 1.64549 13.7716 1.18847C13.4722 0.586883 12.9265 0.171779 12.2629 0.0409415C12.076 0.00408887 11.7892 -0.0104208 11.6103 0.00793513ZM11.6252 0.993404C11.1765 1.07288 10.8034 1.42949 10.703 1.87482C10.6663 2.03746 10.6771 2.29788 10.727 2.45494C10.8616 2.87807 11.2703 3.20639 11.7066 3.24193C12.049 3.26981 12.3371 3.1853 12.572 2.98809C12.7541 2.83519 12.8777 2.65714 12.942 2.45494C12.9919 2.29788 13.0027 2.03746 12.9661 1.87482C12.8766 1.47804 12.5758 1.15289 12.185 1.03048C12.042 0.985649 11.7704 0.967668 11.6252 0.993404ZM3.64097 4.90859C2.9796 5.02498 2.44702 5.38566 2.11336 5.9431C2.03642 6.07166 1.93376 6.31169 1.90503 6.43024L1.88515 6.51233H1.14601C0.459405 6.51233 0.401234 6.51444 0.327511 6.54193C0.0485221 6.64595 -0.0812051 6.97007 0.0536211 7.22621C0.0977081 7.30995 0.208523 7.41102 0.302974 7.45361C0.381955 7.48923 0.389093 7.48959 1.13279 7.4944L1.88294 7.49928L1.91885 7.62121C1.95882 7.75699 2.07785 8.0104 2.16242 8.13982C2.41681 8.52906 2.8286 8.85034 3.26209 8.99772C3.50953 9.08185 3.69971 9.11198 3.98353 9.11198C4.18425 9.11198 4.27364 9.10472 4.40396 9.07789C4.96541 8.96224 5.40213 8.6833 5.74983 8.21828C5.8492 8.08537 5.98271 7.82059 6.04016 7.64244L6.08667 7.49828L10.8556 7.4939L13.6193 7.48954L13.699 7.45361C13.8542 7.38363 13.968 7.24113 13.9934 7.08516C14.0317 6.84933 13.9008 6.62629 13.6745 6.54193C13.5984 6.51355 12.5047 6.51233 10.8411 6.51233H6.08191L6.06202 6.43024C6.03329 6.31169 5.93064 6.07166 5.8537 5.9431C5.74508 5.76166 5.64368 5.63637 5.47825 5.4792C5.1805 5.19636 4.83221 5.01371 4.42169 4.92511C4.25906 4.89003 3.80148 4.88033 3.64097 4.90859ZM3.85552 5.87389C3.41768 5.90953 3.0111 6.23622 2.87605 6.66086C2.82611 6.81792 2.81529 7.07834 2.85197 7.24098C2.94128 7.63704 3.23797 7.95837 3.633 8.08686C3.74652 8.12378 3.78486 8.12831 3.98353 8.12831C4.1822 8.12831 4.22053 8.12378 4.33406 8.08686C4.72909 7.95837 5.02578 7.63704 5.11508 7.24098C5.15176 7.07834 5.14094 6.81792 5.09101 6.66086C4.98346 6.32272 4.69117 6.0323 4.34376 5.91846C4.21908 5.87761 4.02613 5.85999 3.85552 5.87389Z" fill="currentColor"/>
    <path fill-rule="evenodd" clip-rule="evenodd" d="M11.4894 9.7862C10.8418 9.85261 10.2455 10.2141 9.89248 10.7542C9.80776 10.8839 9.68887 11.1372 9.64872 11.2735L9.61261 11.3961L3.3545 11.4003L0.437313 11.4045L0.357647 11.4405C0.263195 11.483 0.152381 11.5841 0.108294 11.6679C-0.0265325 11.924 0.103195 12.2481 0.382184 12.3521C0.458934 12.3808 0.727274 12.3817 3.36792 12.3817H9.61521L9.63509 12.4638C9.66382 12.5824 9.76648 12.8224 9.84342 12.951C9.95204 13.1324 10.0534 13.2577 10.2189 13.4149C10.4558 13.6399 10.7124 13.7953 11.0125 13.8955C11.2682 13.9808 11.3968 14 11.7136 14C12.0303 14 12.159 13.9808 12.4147 13.8955C13.0982 13.6673 13.6378 13.0896 13.8067 12.4052C13.9302 11.9045 13.878 11.4238 13.6506 10.9667C13.3513 10.3651 12.8056 9.95004 12.142 9.8192C11.9551 9.78235 11.6683 9.76784 11.4894 9.7862ZM11.5043 10.7717C11.0556 10.8511 10.6825 11.2078 10.582 11.6531C10.5454 11.8157 10.5562 12.0761 10.6061 12.2332C10.7407 12.6563 11.1493 12.9847 11.5857 13.0202C11.9281 13.0481 12.2162 12.9636 12.4511 12.7664C12.6332 12.6135 12.7568 12.4354 12.8211 12.2332C12.871 12.0761 12.8818 11.8157 12.8451 11.6531C12.7557 11.2563 12.4549 10.9311 12.0641 10.8087C11.921 10.7639 11.6495 10.7459 11.5043 10.7717Z" fill="currentColor"/>
</svg>
