<svg viewBox="0 0 10 12" fill="none" xmlns="http://www.w3.org/2000/svg">
    <path d="M3.04854 0.00210973C2.06383 0.0295893 1.08742 0.3182 0.196251 0.883088C0.0771633 0.957774 0.000488463 1.09578 0 1.23635C0 4.68467 0 8.13299 0 11.5813C0 11.8125 0.187458 12 0.418683 12C0.649921 12 0.837366 11.8125 0.837366 11.5813V6.51351C1.35766 6.21084 3.07355 5.38061 5.13759 6.27363C6.37029 6.80696 7.30865 6.9155 7.95498 6.87986C8.6013 6.8442 8.99733 6.63563 8.99733 6.63563C9.12532 6.56375 9.20994 6.42042 9.21102 6.27363V1.23199C9.21242 1.08698 9.13179 0.94404 9.00738 0.869562C8.88294 0.795082 8.71902 0.791814 8.59172 0.861282C8.59172 0.861282 8.42403 0.967101 7.91573 0.99212C7.40741 1.01714 6.60228 0.936327 5.46468 0.460044C4.8201 0.190164 4.14717 0.0385296 3.47158 0.00647101C3.33083 -0.000213964 3.18921 -0.00181738 3.04854 0.00211824V0.00210973ZM3.10088 0.830753C3.21158 0.828143 3.32143 0.829643 3.43233 0.835114C4.00675 0.8638 4.58306 0.997992 5.14196 1.23199C6.37887 1.74987 7.31678 1.86111 7.95933 1.82949C8.13481 1.82085 8.23844 1.78598 8.37366 1.75971V5.97706C8.2673 6.00459 8.13375 6.03458 7.91136 6.04684C7.40381 6.07484 6.59893 5.99489 5.46905 5.50605C3.48122 4.646 1.73977 5.17691 0.837366 5.58891V5.1615V1.48058C1.5577 1.06671 2.32592 0.849031 3.10088 0.830753Z" fill="currentColor"/>
</svg>
