<svg viewBox="0 0 14 14" fill="none" xmlns="http://www.w3.org/2000/svg">
    <path d="M10.2083 5.54167C10.8412 5.542 11.4672 5.67245 12.0476 5.92492C12.0693 5.93503 12.0932 5.9395 12.1171 5.9379C12.1411 5.93631 12.1642 5.9287 12.1844 5.91578C12.2046 5.90287 12.2212 5.88506 12.2326 5.86402C12.2441 5.84298 12.2501 5.81938 12.25 5.79542V2.625C12.25 2.39294 12.1578 2.17038 11.9937 2.00628C11.8296 1.84219 11.6071 1.75 11.375 1.75H5.6105C5.55638 1.75 5.50333 1.73494 5.45728 1.70651C5.41123 1.67807 5.374 1.63739 5.34975 1.589L4.79733 0.484167C4.72462 0.338526 4.61273 0.216055 4.47423 0.130523C4.33573 0.0449906 4.17612 -0.000210737 4.01333 7.38654e-07H0.875C0.642935 7.38654e-07 0.420376 0.0921879 0.256282 0.256282C0.0921872 0.420377 0 0.642936 0 0.875001L0 9.625C0 9.85706 0.0921872 10.0796 0.256282 10.2437C0.420376 10.4078 0.642935 10.5 0.875 10.5H5.28675C5.32326 10.4994 5.35925 10.4912 5.39239 10.4759C5.42552 10.4605 5.45506 10.4384 5.47909 10.4109C5.50312 10.3834 5.52111 10.3511 5.53189 10.3162C5.54267 10.2814 5.546 10.2446 5.54167 10.2083C5.54306 8.97108 6.03517 7.7849 6.91004 6.91004C7.7849 6.03517 8.97108 5.54306 10.2083 5.54167Z" fill="currentColor"/>
    <path d="M10.2084 14C10.9583 14 11.6914 13.7776 12.315 13.361C12.9385 12.9444 13.4245 12.3522 13.7115 11.6594C13.9984 10.9665 14.0735 10.2041 13.9272 9.46864C13.7809 8.73313 13.4198 8.05752 12.8895 7.52724C12.3593 6.99697 11.6836 6.63585 10.9481 6.48954C10.2126 6.34324 9.45024 6.41833 8.75741 6.70531C8.06457 6.99229 7.47239 7.47828 7.05576 8.10182C6.63913 8.72536 6.41675 9.45844 6.41675 10.2084C6.41798 11.2136 6.81786 12.1773 7.52867 12.8881C8.23947 13.5989 9.20318 13.9988 10.2084 14ZM8.81367 10.682C8.77939 10.6391 8.75793 10.5874 8.75176 10.5328C8.74559 10.4782 8.75496 10.423 8.77879 10.3735C8.80263 10.324 8.83995 10.2822 8.88647 10.253C8.93299 10.2238 8.98682 10.2083 9.04175 10.2084H9.47925C9.51793 10.2084 9.55502 10.193 9.58237 10.1656C9.60972 10.1383 9.62508 10.1012 9.62508 10.0625V8.45836C9.62508 8.30365 9.68654 8.15527 9.79594 8.04588C9.90533 7.93648 10.0537 7.87502 10.2084 7.87502C10.3631 7.87502 10.5115 7.93648 10.6209 8.04588C10.7303 8.15527 10.7917 8.30365 10.7917 8.45836V10.0625C10.7917 10.1012 10.8071 10.1383 10.8345 10.1656C10.8618 10.193 10.8989 10.2084 10.9376 10.2084H11.3751C11.4301 10.2082 11.4841 10.2237 11.5307 10.2529C11.5773 10.2822 11.6147 10.324 11.6386 10.3736C11.6624 10.4232 11.6718 10.4785 11.6655 10.5332C11.6592 10.5879 11.6376 10.6397 11.6032 10.6826L10.4365 12.1409C10.4081 12.1736 10.3731 12.1998 10.3337 12.2177C10.2944 12.2356 10.2517 12.2449 10.2084 12.2449C10.1652 12.2449 10.1224 12.2356 10.0831 12.2177C10.0437 12.1998 10.0087 12.1736 9.98033 12.1409L8.81367 10.682Z" fill="currentColor"/>
</svg>
