<svg viewBox="0 0 32 32" fill="none" xmlns="http://www.w3.org/2000/svg">
    <path d="M5.72561 16.1092C5.75506 16.1565 5.76846 16.2121 5.76379 16.2677C5.75913 16.3232 5.73665 16.3758 5.69973 16.4174C5.67168 16.4495 5.65342 16.489 5.64717 16.5312C5.64091 16.5735 5.64691 16.6167 5.66446 16.6556C5.682 16.6945 5.71034 16.7274 5.74607 16.7505C5.7818 16.7736 5.8234 16.7859 5.86587 16.7858H10.176C10.2508 16.7858 10.3247 16.7693 10.3924 16.7374C10.4602 16.7055 10.5201 16.6591 10.5681 16.6013C10.616 16.5436 10.6508 16.476 10.6698 16.4032C10.6889 16.3305 10.6919 16.2545 10.6785 16.1805C10.548 15.4486 10.2699 14.7514 9.86143 14.1317C9.74875 13.9617 9.70782 13.7537 9.74766 13.5533C9.7875 13.353 9.90485 13.1768 10.0739 13.0635C10.2429 12.9502 10.4498 12.909 10.649 12.9491C10.8482 12.9891 11.0234 13.1072 11.1361 13.2771C11.745 14.1927 12.13 15.2401 12.2596 16.3338C12.2909 16.594 12.5102 16.7871 12.7703 16.7858H13.3831C13.5455 16.7859 13.7055 16.747 13.85 16.6725C13.9945 16.5979 14.1192 16.4898 14.2138 16.3571L15.8439 14.0454C15.8672 14.0125 15.8826 13.9746 15.8888 13.9346C15.8949 13.8947 15.8917 13.8538 15.8793 13.8153C15.8671 13.7768 15.8459 13.7418 15.8174 13.7132C15.789 13.6846 15.7542 13.6633 15.7159 13.651C15.6359 13.624 15.5551 13.5998 15.4735 13.5784C15.4183 13.5638 15.3696 13.531 15.3351 13.4854C15.3005 13.4397 15.2821 13.3838 15.2828 13.3264C15.2923 12.6124 15.0382 11.9202 14.5695 11.3836C14.1009 10.8471 13.4511 10.5044 12.7458 10.4217C12.6946 10.4186 12.6456 10.4 12.6051 10.3685C12.5645 10.337 12.5343 10.294 12.5183 10.2451C12.3039 9.39043 11.7643 8.65465 11.0157 8.19615C10.2671 7.73766 9.36946 7.59313 8.51596 7.79369C7.68721 8.08087 7.00369 8.68375 6.61249 9.47261C6.22129 10.2615 6.15368 11.1732 6.42422 12.0117C6.43755 12.0617 6.43559 12.1146 6.41858 12.1635C6.40157 12.2123 6.37032 12.2549 6.32889 12.2856C5.87995 12.6409 5.54956 13.1255 5.38189 13.6746C5.21422 14.2238 5.21726 14.8114 5.3906 15.3588C5.46822 15.6231 5.58125 15.8751 5.72424 16.1092H5.72561ZM23.7737 18.3237H5.01882C4.85807 18.3241 4.69968 18.3627 4.55654 18.4362C4.4134 18.5098 4.28955 18.6163 4.19506 18.7471C4.10057 18.8779 4.03811 19.0293 4.01277 19.1889C3.98743 19.3485 3.99991 19.5119 4.04921 19.6658C4.54387 21.2172 5.51637 22.5702 6.82609 23.5291C8.13581 24.488 9.71486 25.0031 11.3349 25H17.4631C19.0832 25.0035 20.6624 24.4887 21.9724 23.53C23.2824 22.5714 24.2552 21.2185 24.7501 19.6672C24.7998 19.513 24.8124 19.3492 24.7871 19.1892C24.7617 19.0292 24.6991 18.8774 24.6042 18.7464C24.5094 18.6154 24.3851 18.5088 24.2415 18.4353C24.0978 18.3619 23.9389 18.3236 23.7778 18.3237H23.7751H23.7737ZM27.1783 10.5861L26.0643 10.6655C26.0125 10.6697 25.9606 10.6577 25.9158 10.6313C25.871 10.6048 25.8353 10.5651 25.8137 10.5176C25.7922 10.4697 25.7858 10.4164 25.7953 10.3648C25.8047 10.3131 25.8297 10.2656 25.8668 10.2286L26.7411 9.34806C26.8751 9.20174 26.9476 9.00902 26.9436 8.81018C26.9395 8.61133 26.8593 8.42175 26.7195 8.28103C26.5797 8.14031 26.3913 8.05934 26.1936 8.05504C25.9959 8.05074 25.8041 8.12344 25.6585 8.25795L24.7828 9.1399C24.7456 9.17723 24.6979 9.20214 24.6461 9.21123C24.5943 9.22033 24.541 9.21317 24.4934 9.19073C24.4458 9.16829 24.4062 9.13166 24.38 9.08581C24.3538 9.03997 24.3423 8.98713 24.347 8.93448L24.4274 7.81423C24.4383 7.61193 24.3697 7.41341 24.2365 7.26146C24.1032 7.10952 23.9159 7.01632 23.7149 7.00195C23.514 6.98758 23.3154 7.05319 23.1621 7.18464C23.0088 7.31609 22.913 7.50285 22.8953 7.70467L22.7401 9.86847C22.737 9.91176 22.723 9.95355 22.6995 9.98996C22.676 10.0264 22.6437 10.0562 22.6057 10.0767C22.5676 10.0972 22.525 10.1077 22.4819 10.1072C22.4387 10.1067 22.3964 10.0953 22.3588 10.0739C22.0271 9.85288 21.6229 9.77032 21.2317 9.84368C20.8406 9.91703 20.4932 10.1406 20.263 10.4669L20.0029 10.8326C19.9677 10.8822 19.9511 10.9426 19.9561 11.0033C19.9611 11.064 19.9873 11.1209 20.0301 11.164L21.3919 12.5335C21.4394 12.5812 21.4771 12.6378 21.5028 12.7001C21.5285 12.7624 21.5418 12.8292 21.5419 12.8966C21.5419 12.9641 21.5288 13.0309 21.5032 13.0932C21.4776 13.1556 21.44 13.2123 21.3926 13.26C21.3452 13.3078 21.2889 13.3457 21.227 13.3715C21.165 13.3974 21.0986 13.4108 21.0315 13.4108C20.9644 13.4109 20.898 13.3977 20.836 13.3719C20.774 13.3461 20.7176 13.3084 20.6701 13.2607L19.4908 12.0747C19.4647 12.0482 19.4332 12.0278 19.3984 12.0149C19.3636 12.0019 19.3264 11.9968 19.2895 11.9998C19.2525 12.0028 19.2166 12.0138 19.1844 12.0322C19.1521 12.0506 19.1242 12.0759 19.1027 12.1062L18.3033 13.2361C18.2679 13.2855 18.2512 13.3461 18.2562 13.4068C18.2612 13.4676 18.2875 13.5245 18.3306 13.5675L19.3519 14.5946C19.4476 14.691 19.5013 14.8217 19.5012 14.958C19.5011 15.0942 19.4471 15.2248 19.3512 15.3211C19.2553 15.4174 19.1254 15.4714 18.9899 15.4712C18.8544 15.4711 18.7245 15.4168 18.6288 15.3204L17.7845 14.4713C17.7583 14.4453 17.7268 14.4253 17.6922 14.4126C17.6575 14.3999 17.6206 14.3949 17.5839 14.3979C17.5472 14.4009 17.5115 14.4118 17.4794 14.4299C17.4473 14.448 17.4194 14.4729 17.3977 14.5028L16.0631 16.379C16.0344 16.4171 16.0169 16.4625 16.0125 16.5101C16.0081 16.5577 16.017 16.6056 16.0383 16.6483C16.0595 16.6911 16.0922 16.727 16.1327 16.752C16.1732 16.777 16.2199 16.7901 16.2674 16.7899H21.6152C21.8398 16.7897 22.0581 16.7151 22.2362 16.5776L24.6017 14.7562C25.2404 14.2563 25.3861 13.3456 24.9367 12.6691C24.9148 12.6313 24.9028 12.5885 24.902 12.5448C24.9011 12.5011 24.9114 12.4579 24.9319 12.4193C24.9524 12.3807 24.9824 12.348 25.019 12.3244C25.0556 12.3007 25.0976 12.2869 25.141 12.2843L27.2858 12.1295C27.4892 12.115 27.6785 12.0198 27.812 11.8649C27.9456 11.7101 28.0125 11.5082 27.9981 11.3037C27.9836 11.0992 27.889 10.9089 27.735 10.7745C27.581 10.6402 27.3802 10.5729 27.1769 10.5875L27.1783 10.5861Z" fill="currentColor"/>
</svg>
