<svg viewBox="0 0 24 18" fill="none" xmlns="http://www.w3.org/2000/svg">
<path d="M1.72561 9.10924C1.75506 9.15649 1.76846 9.21208 1.76379 9.26765C1.75913 9.32322 1.73665 9.37576 1.69973 9.41738C1.67168 9.44945 1.65342 9.48899 1.64717 9.53123C1.64091 9.57348 1.64691 9.61665 1.66446 9.65555C1.682 9.69445 1.71034 9.72743 1.74607 9.75053C1.7818 9.77363 1.8234 9.78587 1.86587 9.78577H6.17601C6.25081 9.78578 6.32469 9.76926 6.39244 9.73739C6.46019 9.70552 6.52015 9.65908 6.56808 9.60134C6.61602 9.5436 6.65075 9.47597 6.66984 9.40325C6.68892 9.33052 6.69188 9.25446 6.67852 9.18046C6.54796 8.44864 6.2699 7.75143 5.86143 7.1317C5.74875 6.96171 5.70782 6.75368 5.74766 6.55335C5.7875 6.35302 5.90485 6.17682 6.07388 6.06349C6.24291 5.95017 6.44978 5.90902 6.64898 5.94908C6.84819 5.98915 7.0234 6.10715 7.13609 6.27713C7.74503 7.19269 8.13 8.2401 8.25959 9.33384C8.29091 9.59404 8.51016 9.78714 8.77027 9.78577H9.38308C9.54546 9.78587 9.70552 9.74704 9.84999 9.67249C9.99446 9.59795 10.1192 9.48983 10.2138 9.35712L11.8439 7.04542C11.8672 7.01252 11.8826 6.97457 11.8888 6.93461C11.8949 6.89466 11.8917 6.85381 11.8793 6.81535C11.8671 6.77683 11.8459 6.74181 11.8174 6.71322C11.789 6.68463 11.7542 6.6633 11.7159 6.65101C11.6359 6.62399 11.5551 6.59979 11.4735 6.57842C11.4183 6.56378 11.3696 6.53104 11.3351 6.48539C11.3005 6.43974 11.2821 6.3838 11.2828 6.32644C11.2923 5.61239 11.0382 4.92016 10.5695 4.38363C10.1009 3.8471 9.45109 3.50438 8.74576 3.42174C8.69462 3.41856 8.64561 3.40002 8.60507 3.36853C8.56453 3.33703 8.53431 3.29403 8.51833 3.24508C8.3039 2.39043 7.7643 1.65465 7.01573 1.19615C6.26715 0.73766 5.36946 0.593133 4.51596 0.793691C3.68721 1.08087 3.00369 1.68375 2.61249 2.47261C2.22129 3.26147 2.15368 4.17324 2.42422 5.01172C2.43755 5.06172 2.43559 5.11461 2.41858 5.16347C2.40157 5.21233 2.37032 5.2549 2.32889 5.28562C1.87995 5.64087 1.54956 6.12547 1.38189 6.67464C1.21422 7.22382 1.21726 7.81138 1.3906 8.35876C1.46822 8.62307 1.58125 8.87506 1.72424 9.10924H1.72561ZM19.7737 11.3237H1.01882C0.858071 11.3241 0.699682 11.3627 0.55654 11.4362C0.413398 11.5098 0.289546 11.6163 0.195058 11.7471C0.10057 11.8779 0.0381147 12.0293 0.012772 12.1889C-0.0125707 12.3485 -8.50767e-05 12.5119 0.0492133 12.6658C0.543866 14.2172 1.51637 15.5702 2.82609 16.5291C4.13581 17.488 5.71486 18.0031 7.33492 18H13.4631C15.0832 18.0035 16.6624 17.4887 17.9724 16.53C19.2824 15.5714 20.2552 14.2185 20.7501 12.6672C20.7998 12.513 20.8124 12.3492 20.7871 12.1892C20.7617 12.0292 20.6991 11.8774 20.6042 11.7464C20.5094 11.6154 20.3851 11.5088 20.2415 11.4353C20.0978 11.3619 19.9389 11.3236 19.7778 11.3237H19.7751H19.7737ZM23.1783 3.58608L22.0643 3.66551C22.0125 3.66969 21.9606 3.65774 21.9158 3.63128C21.871 3.60482 21.8353 3.56514 21.8137 3.51761C21.7922 3.46975 21.7858 3.41641 21.7953 3.36476C21.8047 3.31311 21.8297 3.26561 21.8668 3.22865L22.7411 2.34806C22.8751 2.20174 22.9476 2.00902 22.9436 1.81018C22.9395 1.61133 22.8593 1.42175 22.7195 1.28103C22.5797 1.14031 22.3913 1.05934 22.1936 1.05504C21.9959 1.05074 21.8041 1.12344 21.6585 1.25795L20.7828 2.1399C20.7456 2.17723 20.6979 2.20214 20.6461 2.21123C20.5943 2.22033 20.541 2.21317 20.4934 2.19073C20.4458 2.16829 20.4062 2.13166 20.38 2.08581C20.3538 2.03997 20.3423 1.98713 20.347 1.93448L20.4274 0.814233C20.4383 0.611926 20.3697 0.413407 20.2365 0.261463C20.1032 0.10952 19.9159 0.0163182 19.7149 0.00194705C19.514 -0.0124241 19.3154 0.0531859 19.1621 0.184636C19.0088 0.316086 18.913 0.50285 18.8953 0.704674L18.7401 2.86847C18.737 2.91176 18.723 2.95355 18.6995 2.98996C18.676 3.02636 18.6437 3.0562 18.6057 3.0767C18.5676 3.09719 18.525 3.10769 18.4819 3.1072C18.4387 3.10671 18.3964 3.09525 18.3588 3.07389C18.0271 2.85288 17.6229 2.77032 17.2317 2.84368C16.8406 2.91703 16.4932 3.14055 16.263 3.46694L16.0029 3.83259C15.9677 3.88215 15.9511 3.94264 15.9561 4.00332C15.9611 4.06399 15.9873 4.12092 16.0301 4.16401L17.3919 5.5335C17.4394 5.58116 17.4771 5.63776 17.5028 5.70006C17.5285 5.76236 17.5418 5.82915 17.5419 5.89662C17.5419 5.96408 17.5288 6.0309 17.5032 6.09325C17.4776 6.1556 17.44 6.21227 17.3926 6.26002C17.3452 6.30777 17.2889 6.34566 17.227 6.37153C17.165 6.39741 17.0986 6.41076 17.0315 6.41082C16.9644 6.41089 16.898 6.39766 16.836 6.37191C16.774 6.34615 16.7176 6.30836 16.6701 6.2607L15.4908 5.07472C15.4647 5.04824 15.4332 5.02781 15.3984 5.01486C15.3636 5.00191 15.3264 4.99675 15.2895 4.99975C15.2525 5.00275 15.2166 5.01383 15.1844 5.03222C15.1521 5.05061 15.1242 5.07587 15.1027 5.10622L14.3033 6.23605C14.2679 6.28551 14.2512 6.34606 14.2562 6.40681C14.2612 6.46756 14.2875 6.52452 14.3306 6.56747L15.3519 7.59459C15.4476 7.69102 15.5013 7.82174 15.5012 7.95799C15.5011 8.09423 15.4471 8.22485 15.3512 8.3211C15.2553 8.41735 15.1254 8.47135 14.9899 8.47123C14.8544 8.4711 14.7245 8.41685 14.6288 8.32042L13.7845 7.47133C13.7583 7.4453 13.7268 7.42527 13.6922 7.4126C13.6575 7.39993 13.6206 7.39491 13.5839 7.3979C13.5472 7.40089 13.5115 7.41182 13.4794 7.42992C13.4473 7.44803 13.4194 7.4729 13.3977 7.50283L12.0631 9.37903C12.0344 9.41711 12.0169 9.46252 12.0125 9.51011C12.0081 9.55769 12.017 9.60557 12.0383 9.64832C12.0595 9.69107 12.0922 9.72698 12.1327 9.752C12.1732 9.77702 12.2199 9.79014 12.2674 9.78988H17.6152C17.8398 9.7897 18.0581 9.7151 18.2362 9.57761L20.6017 7.75619C21.2404 7.25632 21.3861 6.34561 20.9367 5.66908C20.9148 5.63132 20.9028 5.58853 20.902 5.5448C20.9011 5.50107 20.9114 5.45785 20.9319 5.41927C20.9524 5.38068 20.9824 5.34802 21.019 5.32438C21.0556 5.30075 21.0976 5.28693 21.141 5.28425L23.2858 5.1295C23.4892 5.11497 23.6785 5.01981 23.812 4.86494C23.9456 4.71007 24.0125 4.50819 23.9981 4.3037C23.9836 4.09921 23.889 3.90887 23.735 3.77455C23.581 3.64022 23.3802 3.57292 23.1769 3.58745L23.1783 3.58608Z" fill="currentColor"/>
</svg>
