<svg viewBox="0 0 32 32" fill="none" xmlns="http://www.w3.org/2000/svg">
    <path d="M26.8999 12.7562C26.8072 12.6693 26.6982 12.6014 26.5792 12.5566C26.4603 12.5118 26.3336 12.4909 26.2066 12.4951C26.0795 12.4993 25.9546 12.5285 25.8388 12.5811C25.7231 12.6336 25.6188 12.7085 25.532 12.8013C23.7541 14.7017 22.8555 16.0619 22.8555 16.8458V24.0979C22.8555 24.3543 22.7536 24.6003 22.5723 24.7816C22.3909 24.9629 22.145 25.0648 21.8885 25.0648C21.6321 25.0648 21.3861 24.9629 21.2048 24.7816C21.0235 24.6003 20.9216 24.3543 20.9216 24.0979V11.0441C20.9216 9.70968 19.8386 8.6267 18.5042 8.6267H18.2644C18.2326 8.62687 18.2012 8.62076 18.1718 8.60872C18.1424 8.59668 18.1156 8.57895 18.0931 8.55654C18.0706 8.53414 18.0527 8.5075 18.0405 8.47817C18.0283 8.44883 18.022 8.41738 18.022 8.38561V6.69151C18.022 5.75809 17.2652 5.00129 16.3305 5H5.69409C5.24534 5.00034 4.81503 5.17858 4.49747 5.49565C4.17992 5.81273 4.00102 6.24276 4 6.69151V25.0635C4.00068 25.5123 4.17925 25.9425 4.49656 26.2598C4.81388 26.5771 5.24405 26.7556 5.6928 26.7563H16.3292C16.7779 26.7556 17.2079 26.577 17.525 26.2597C17.8421 25.9423 18.0204 25.5122 18.0207 25.0635V10.8043C18.0207 10.6702 18.129 10.5619 18.2631 10.5619H18.5042C18.7711 10.5619 18.9877 10.7785 18.9877 11.0454V24.0992C18.9877 24.8685 19.2933 25.6063 19.8373 26.1504C20.3813 26.6944 21.1192 27 21.8885 27C22.6579 27 23.3957 26.6944 23.9397 26.1504C24.4838 25.6063 24.7894 24.8685 24.7894 24.0992V21.9461C24.7894 21.8545 24.841 21.7707 24.9235 21.7295L25.9214 21.2293C26.4139 20.9843 26.7246 20.4815 26.7233 19.9335V18.7809C26.7233 17.9803 26.0735 17.3305 25.2729 17.3305H25.0215C24.9576 17.3305 24.8963 17.3053 24.851 17.2604C24.8056 17.2155 24.7797 17.1546 24.7791 17.0907V16.9399C25.373 15.9094 26.1014 14.9625 26.945 14.1241C27.1203 13.9369 27.2139 13.6878 27.2055 13.4315C27.197 13.1752 27.0871 12.9315 26.8999 12.7562ZM14.394 19.5055C14.394 19.6337 14.3431 19.7567 14.2524 19.8474C14.1618 19.938 14.0388 19.989 13.9106 19.989H12.9436C12.8154 19.989 12.6924 19.938 12.6018 19.8474C12.5111 19.7567 12.4601 19.6337 12.4601 19.5055V16.6047C12.4601 16.3378 12.6767 16.1212 12.9436 16.1212H13.9106C14.1774 16.1212 14.394 16.3378 14.394 16.6047V19.5055ZM15.361 11.0441C15.361 11.1723 15.3101 11.2953 15.2194 11.3859C15.1287 11.4766 15.0057 11.5275 14.8775 11.5275H7.14194C7.01371 11.5275 6.89074 11.4766 6.80007 11.3859C6.7094 11.2953 6.65846 11.1723 6.65846 11.0441V8.14323C6.65846 7.87635 6.87506 7.65975 7.14194 7.65975H14.8775C15.1444 7.65975 15.361 7.87635 15.361 8.14323V11.0441Z" fill="currentColor"/>
</svg>
