<svg viewBox="0 0 24 22" fill="none" xmlns="http://www.w3.org/2000/svg">
<path d="M22.8999 7.75621C22.8072 7.66926 22.6982 7.60144 22.5792 7.55664C22.4603 7.51184 22.3336 7.49093 22.2066 7.49512C22.0795 7.49932 21.9546 7.52852 21.8388 7.58106C21.7231 7.63361 21.6188 7.70846 21.532 7.80134C19.7541 9.70171 18.8555 11.0619 18.8555 11.8458V19.0979C18.8555 19.3543 18.7536 19.6003 18.5723 19.7816C18.3909 19.9629 18.145 20.0648 17.8885 20.0648C17.6321 20.0648 17.3861 19.9629 17.2048 19.7816C17.0235 19.6003 16.9216 19.3543 16.9216 19.0979V6.04407C16.9216 4.70968 15.8386 3.6267 14.5042 3.6267H14.2644C14.2326 3.62687 14.2012 3.62076 14.1718 3.60872C14.1424 3.59668 14.1156 3.57895 14.0931 3.55654C14.0706 3.53414 14.0527 3.5075 14.0405 3.47817C14.0283 3.44883 14.022 3.41738 14.022 3.38561V1.69151C14.022 0.758087 13.2652 0.00128926 12.3305 0H1.69409C1.24534 0.000340088 0.815031 0.17858 0.497475 0.495653C0.179919 0.812726 0.00102364 1.24276 0 1.69151L0 20.0635C0.000681992 20.5123 0.179249 20.9425 0.496564 21.2598C0.813878 21.5771 1.24405 21.7556 1.6928 21.7563H12.3292C12.7779 21.7556 13.2079 21.577 13.525 21.2597C13.8421 20.9423 14.0204 20.5122 14.0207 20.0635V5.80427C14.0207 5.67018 14.129 5.56188 14.2631 5.56188H14.5042C14.7711 5.56188 14.9877 5.77848 14.9877 6.04536V19.0992C14.9877 19.8685 15.2933 20.6063 15.8373 21.1504C16.3813 21.6944 17.1192 22 17.8885 22C18.6579 22 19.3957 21.6944 19.9397 21.1504C20.4838 20.6063 20.7894 19.8685 20.7894 19.0992V16.9461C20.7894 16.8545 20.841 16.7707 20.9235 16.7295L21.9214 16.2293C22.4139 15.9843 22.7246 15.4815 22.7233 14.9335V13.7809C22.7233 12.9803 22.0735 12.3305 21.2729 12.3305H21.0215C20.9576 12.3305 20.8963 12.3053 20.851 12.2604C20.8056 12.2155 20.7797 12.1546 20.7791 12.0907V11.9399C21.373 10.9094 22.1014 9.96249 22.945 9.12412C23.1203 8.9369 23.2139 8.68775 23.2055 8.43147C23.197 8.17518 23.0871 7.93146 22.8999 7.75621ZM10.394 14.5055C10.394 14.6337 10.3431 14.7567 10.2524 14.8474C10.1618 14.938 10.0388 14.989 9.91057 14.989H8.94362C8.8154 14.989 8.69243 14.938 8.60176 14.8474C8.51109 14.7567 8.46015 14.6337 8.46015 14.5055V11.6047C8.46015 11.3378 8.67675 11.1212 8.94362 11.1212H9.91057C10.1774 11.1212 10.394 11.3378 10.394 11.6047V14.5055ZM11.361 6.04407C11.361 6.1723 11.3101 6.29527 11.2194 6.38594C11.1287 6.47661 11.0057 6.52754 10.8775 6.52754H3.14194C3.01371 6.52754 2.89074 6.47661 2.80007 6.38594C2.7094 6.29527 2.65846 6.1723 2.65846 6.04407V3.14323C2.65846 2.87635 2.87506 2.65975 3.14194 2.65975H10.8775C11.1444 2.65975 11.361 2.87635 11.361 3.14323V6.04407Z" fill="currentColor"/>
</svg>
