<svg viewBox="0 0 32 32" fill="none" xmlns="http://www.w3.org/2000/svg">
    <path d="M17.1773 9.90933C17.1541 9.9328 17.1265 9.95142 17.0961 9.96414C17.0656 9.97685 17.033 9.9834 17 9.9834C16.967 9.9834 16.9344 9.97685 16.9039 9.96414C16.8735 9.95142 16.8459 9.9328 16.8227 9.90933L14.9133 8C14.5383 7.62547 14.03 7.41509 13.5 7.41509C12.97 7.41509 12.4617 7.62547 12.0867 8L8.29333 11.7933C8.19508 11.8849 8.11628 11.9953 8.06163 12.1179C8.00697 12.2406 7.97758 12.373 7.97521 12.5073C7.97284 12.6416 7.99754 12.7749 8.04784 12.8995C8.09813 13.024 8.17299 13.1371 8.26795 13.2321C8.36291 13.327 8.47602 13.4019 8.60054 13.4522C8.72505 13.5025 8.85843 13.5272 8.9927 13.5248C9.12697 13.5224 9.25939 13.493 9.38205 13.4384C9.50472 13.3837 9.61512 13.3049 9.70667 13.2067L13.3227 9.59067C13.3459 9.5672 13.3735 9.54858 13.4039 9.53586C13.4344 9.52315 13.467 9.5166 13.5 9.5166C13.533 9.5166 13.5656 9.52315 13.5961 9.53586C13.6265 9.54858 13.6541 9.5672 13.6773 9.59067L15.5867 11.5C15.9617 11.8745 16.47 12.0849 17 12.0849C17.53 12.0849 18.0383 11.8745 18.4133 11.5L22.4267 7.48667C22.4736 7.44001 22.5371 7.41383 22.6033 7.41383C22.6695 7.41383 22.733 7.44001 22.78 7.48667L24.1453 8.85333C24.2152 8.92363 24.3044 8.97158 24.4015 8.9911C24.4987 9.01062 24.5994 9.00083 24.691 8.96297C24.7826 8.92511 24.8609 8.86088 24.9159 8.77845C24.9709 8.69602 25.0002 8.5991 25 8.5V4.5C25 4.36739 24.9473 4.24021 24.8536 4.14645C24.7598 4.05268 24.6326 4 24.5 4H20.5C20.4012 4.00009 20.3046 4.02946 20.2224 4.08441C20.1403 4.13935 20.0763 4.21741 20.0385 4.30872C20.0007 4.40003 19.9908 4.50049 20.01 4.59742C20.0293 4.69436 20.0768 4.78341 20.1467 4.85333L21.0133 5.72C21.06 5.76696 21.0862 5.83047 21.0862 5.89667C21.0862 5.96286 21.06 6.02637 21.0133 6.07333L17.1773 9.90933ZM7.16667 15.5C6.79867 15.5 6.5 15.724 6.5 16V24C6.5 24.276 6.724 24.5 7 24.5H10C10.1326 24.5 10.2598 24.4473 10.3536 24.3536C10.4473 24.2598 10.5 24.1326 10.5 24V16C10.5 15.724 10.2 15.5 9.83333 15.5H7.16667ZM17.8333 18.5H15.1667C14.7973 18.5 14.5 18.724 14.5 19V24C14.5 24.276 14.724 24.5 15 24.5H18C18.1326 24.5 18.2598 24.4473 18.3536 24.3536C18.4473 24.2598 18.5 24.1326 18.5 24V19C18.5 18.724 18.2 18.5 17.8333 18.5ZM22 11.9653V24.036C22.0107 24.3027 22.2333 24.5093 22.5 24.5H25.5C25.7667 24.5093 25.9893 24.3027 26 24.036V11.9653C26 11.708 25.7 11.5 25.3333 11.5H22.6667C22.3 11.5 22 11.708 22 11.9653ZM27 26H5C4.73478 26 4.48043 26.1054 4.29289 26.2929C4.10536 26.4804 4 26.7348 4 27C4 27.2652 4.10536 27.5196 4.29289 27.7071C4.48043 27.8946 4.73478 28 5 28H27C27.2652 28 27.5196 27.8946 27.7071 27.7071C27.8946 27.5196 28 27.2652 28 27C28 26.7348 27.8946 26.4804 27.7071 26.2929C27.5196 26.1054 27.2652 26 27 26Z" fill="currentColor"/>
</svg>
