<svg viewBox="0 0 24 24" fill="none" xmlns="http://www.w3.org/2000/svg">
<path d="M13.1773 5.90933C13.1541 5.9328 13.1265 5.95142 13.0961 5.96414C13.0656 5.97685 13.033 5.9834 13 5.9834C12.967 5.9834 12.9344 5.97685 12.9039 5.96414C12.8735 5.95142 12.8459 5.9328 12.8227 5.90933L10.9133 4C10.5383 3.62547 10.03 3.41509 9.5 3.41509C8.97 3.41509 8.46167 3.62547 8.08667 4L4.29333 7.79333C4.19508 7.88488 4.11628 7.99528 4.06163 8.11795C4.00697 8.24061 3.97758 8.37303 3.97521 8.5073C3.97284 8.64157 3.99754 8.77495 4.04784 8.89946C4.09813 9.02398 4.17299 9.13709 4.26795 9.23205C4.36291 9.32701 4.47602 9.40187 4.60054 9.45216C4.72505 9.50246 4.85843 9.52716 4.9927 9.52479C5.12697 9.52242 5.25939 9.49303 5.38205 9.43838C5.50472 9.38372 5.61512 9.30492 5.70667 9.20667L9.32267 5.59067C9.34586 5.5672 9.37347 5.54858 9.40391 5.53586C9.43435 5.52315 9.46701 5.5166 9.5 5.5166C9.53299 5.5166 9.56565 5.52315 9.59609 5.53586C9.62653 5.54858 9.65414 5.5672 9.67733 5.59067L11.5867 7.5C11.9617 7.87453 12.47 8.08491 13 8.08491C13.53 8.08491 14.0383 7.87453 14.4133 7.5L18.4267 3.48667C18.4736 3.44001 18.5371 3.41383 18.6033 3.41383C18.6695 3.41383 18.733 3.44001 18.78 3.48667L20.1453 4.85333C20.2152 4.92363 20.3044 4.97158 20.4015 4.9911C20.4987 5.01062 20.5994 5.00083 20.691 4.96297C20.7826 4.92511 20.8609 4.86088 20.9159 4.77845C20.9709 4.69602 21.0002 4.5991 21 4.5V0.5C21 0.367392 20.9473 0.240215 20.8536 0.146447C20.7598 0.0526784 20.6326 0 20.5 0L16.5 0C16.4012 8.69249e-05 16.3046 0.0294585 16.2224 0.0844051C16.1403 0.139352 16.0763 0.217409 16.0385 0.308718C16.0007 0.400027 15.9908 0.500492 16.01 0.597424C16.0293 0.694357 16.0768 0.783409 16.1467 0.853333L17.0133 1.72C17.06 1.76696 17.0862 1.83047 17.0862 1.89667C17.0862 1.96286 17.06 2.02637 17.0133 2.07333L13.1773 5.90933ZM3.16667 11.5C2.79867 11.5 2.5 11.724 2.5 12V20C2.5 20.276 2.724 20.5 3 20.5H6C6.13261 20.5 6.25979 20.4473 6.35355 20.3536C6.44732 20.2598 6.5 20.1326 6.5 20V12C6.5 11.724 6.2 11.5 5.83333 11.5H3.16667ZM13.8333 14.5H11.1667C10.7973 14.5 10.5 14.724 10.5 15V20C10.5 20.276 10.724 20.5 11 20.5H14C14.1326 20.5 14.2598 20.4473 14.3536 20.3536C14.4473 20.2598 14.5 20.1326 14.5 20V15C14.5 14.724 14.2 14.5 13.8333 14.5ZM18 7.96533V20.036C18.0107 20.3027 18.2333 20.5093 18.5 20.5H21.5C21.7667 20.5093 21.9893 20.3027 22 20.036V7.96533C22 7.708 21.7 7.5 21.3333 7.5H18.6667C18.3 7.5 18 7.708 18 7.96533ZM23 22H1C0.734784 22 0.48043 22.1054 0.292893 22.2929C0.105357 22.4804 0 22.7348 0 23C0 23.2652 0.105357 23.5196 0.292893 23.7071C0.48043 23.8946 0.734784 24 1 24H23C23.2652 24 23.5196 23.8946 23.7071 23.7071C23.8946 23.5196 24 23.2652 24 23C24 22.7348 23.8946 22.4804 23.7071 22.2929C23.5196 22.1054 23.2652 22 23 22Z" fill="currentColor"/>
</svg>
