<svg viewBox="0 0 14 14" fill="none" xmlns="http://www.w3.org/2000/svg">
    <path d="M1.27273 0H5.09091C5.09091 0 6.36364 0 6.36364 1.27273V5.09091C6.36364 5.09091 6.36364 6.36364 5.09091 6.36364H1.27273C1.27273 6.36364 0 6.36364 0 5.09091V1.27273C0 1.27273 0 0 1.27273 0Z" fill="currentColor"/>
    <path d="M1.27273 7.63636H5.09091C5.09091 7.63636 6.36364 7.63636 6.36364 8.90909V12.7273C6.36364 12.7273 6.36364 14 5.09091 14H1.27273C1.27273 14 0 14 0 12.7273V8.90909C0 8.90909 0 7.63636 1.27273 7.63636Z" fill="currentColor"/>
    <path d="M8.90909 0H12.7273C12.7273 0 14 0 14 1.27273V5.09091C14 5.09091 14 6.36364 12.7273 6.36364H8.90909C8.90909 6.36364 7.63636 6.36364 7.63636 5.09091V1.27273C7.63636 1.27273 7.63636 0 8.90909 0Z" fill="currentColor"/>
    <path d="M8.90909 7.63636H12.7273C12.7273 7.63636 14 7.63636 14 8.90909V12.7273C14 12.7273 14 14 12.7273 14H8.90909C8.90909 14 7.63636 14 7.63636 12.7273V8.90909C7.63636 8.90909 7.63636 7.63636 8.90909 7.63636Z" fill="currentColor"/>
</svg>
