<svg width="24" height="24" viewBox="0 0 24 24" fill="none" xmlns="http://www.w3.org/2000/svg">
<g clip-path="url(#clip0_4590_161854)">
<path d="M23.85 21.8102L22.07 18.9002C22.0223 18.822 21.9981 18.7317 22 18.6402V14.5102C22 12.7302 20.29 11.4402 18.48 10.0602C18.4235 10.0174 18.3765 9.96324 18.3421 9.90125C18.3076 9.83926 18.2865 9.77078 18.28 9.70017C18.2746 9.62745 18.2842 9.55439 18.3083 9.48556C18.3324 9.41674 18.3704 9.35362 18.42 9.30017C19.2176 8.57247 19.7543 7.60304 19.9476 6.54079C20.1409 5.47854 19.9801 4.3822 19.49 3.42017C19.1249 2.71243 18.5986 2.10043 17.9535 1.63356C17.3084 1.16669 16.5625 0.858025 15.7761 0.732477C14.9897 0.606928 14.1849 0.668013 13.4264 0.910802C12.668 1.15359 11.9773 1.57128 11.41 2.13017L10.35 3.13017C10.2604 3.21752 10.1402 3.2664 10.015 3.2664C9.88985 3.2664 9.76964 3.21752 9.68 3.13017L8.62 2.13017C8.05177 1.57128 7.36023 1.15365 6.60108 0.910897C5.84193 0.668147 5.03638 0.607064 4.2493 0.732568C3.46222 0.858073 2.71562 1.16666 2.06961 1.63347C1.4236 2.10028 0.896242 2.71227 0.530004 3.42017C0.071263 4.36378 -0.0790117 5.4278 0.100459 6.46155C0.27993 7.4953 0.78005 8.4464 1.53 9.18017L9.29 17.1802C9.39005 17.2828 9.50987 17.3641 9.64222 17.4191C9.77456 17.4741 9.91669 17.5017 10.06 17.5002C10.2048 17.5019 10.3485 17.4744 10.4825 17.4194C10.6165 17.3644 10.7381 17.2831 10.84 17.1802C10.9225 17.0941 10.9793 16.9867 11.004 16.8701C11.0288 16.7535 11.0204 16.6323 10.98 16.5202C10.8286 16.0765 10.7607 15.6086 10.78 15.1402C10.8094 14.5639 10.9715 14.0021 11.2535 13.4987C11.5355 12.9952 11.9299 12.5636 12.406 12.2375C12.8821 11.9114 13.427 11.6996 13.9983 11.6186C14.5697 11.5375 15.152 11.5894 15.7 11.7702C15.7886 11.7993 15.8836 11.8025 15.9739 11.7795C16.0643 11.7564 16.1462 11.7081 16.21 11.6402L16.36 11.4902C16.445 11.4028 16.559 11.3495 16.6805 11.3403C16.8021 11.3311 16.9228 11.3666 17.02 11.4402L17.32 11.6702C18.54 12.5902 20.05 13.7402 20.05 14.5202V19.0702C20.0494 19.2574 20.1014 19.441 20.2 19.6002L22.2 22.8602C22.2519 22.9959 22.3328 23.1188 22.437 23.2201C22.5412 23.3214 22.6663 23.3988 22.8034 23.4469C22.9406 23.4949 23.0866 23.5125 23.2313 23.4984C23.376 23.4842 23.5158 23.4387 23.6411 23.365C23.7664 23.2913 23.8741 23.1912 23.9567 23.0716C24.0394 22.9521 24.095 22.8159 24.1196 22.6727C24.1443 22.5294 24.1374 22.3825 24.0994 22.2422C24.0615 22.1019 23.9935 21.9715 23.9 21.8602L23.85 21.8102Z" fill="currentColor"/>
<path d="M16.09 13.5799C15.6537 13.1829 15.0849 12.9629 14.495 12.9629C13.9051 12.9629 13.3364 13.1829 12.9 13.5799C12.6632 13.7892 12.4705 14.0435 12.333 14.328C12.1955 14.6126 12.1161 14.9216 12.0993 15.2372C12.0826 15.5528 12.1288 15.8685 12.2354 16.166C12.342 16.4635 12.5067 16.7368 12.72 16.9699L14.35 18.7399C14.4307 18.8352 14.4765 18.9551 14.48 19.0799V20.0799C14.48 21.3799 16 22.6699 16.48 23.0299C16.6349 23.1497 16.8243 23.2163 17.02 23.2199C17.2022 23.2187 17.3795 23.1609 17.5275 23.0545C17.6755 22.9481 17.7868 22.7985 17.846 22.6262C17.9053 22.4539 17.9096 22.2674 17.8584 22.0925C17.8071 21.9177 17.7029 21.763 17.56 21.6499C16.9912 21.2528 16.5389 20.7107 16.25 20.0799V18.5099C16.2512 18.2912 16.1689 18.0802 16.02 17.9199L14.02 15.7399C13.9611 15.6814 13.9155 15.611 13.8862 15.5334C13.8568 15.4558 13.8445 15.3727 13.85 15.2899C13.8613 15.1218 13.9364 14.9644 14.06 14.8499C14.1771 14.7459 14.3284 14.6884 14.485 14.6884C14.6417 14.6884 14.7929 14.7459 14.91 14.8499L16.91 16.7099C17.0797 16.8677 17.3052 16.9516 17.5368 16.9432C17.7684 16.9348 17.9872 16.8347 18.145 16.6649C18.3028 16.4952 18.3867 16.2697 18.3783 16.0381C18.3698 15.8065 18.2697 15.5877 18.1 15.4299L16.09 13.5799Z" fill="currentColor"/>
</g>
<defs>
<clipPath id="clip0_4590_161854">
<rect width="24" height="24" fill="white"/>
</clipPath>
</defs>
</svg>
