<svg width="24" height="24" viewBox="0 0 24 24" fill="none" xmlns="http://www.w3.org/2000/svg">
<path d="M12.65 0.140135C12.19 0.350134 9.58998 2.96014 9.00998 3.80014C8.38998 4.68014 7.82998 5.77014 7.46998 6.77014C6.68998 8.93014 6.65998 11.9101 7.39998 14.0601L7.59998 14.6401L6.00998 16.2401C4.41998 17.8501 4.20998 18.1401 4.34998 18.6201C4.38998 18.7501 5.11998 19.5601 5.97998 20.4301L7.54998 22.0001H4.62998H1.69998C1.69998 22.0001 1.50425 22.1519 1.39998 22.2701C1.21027 22.4852 1.06998 22.6801 1.03998 22.9101C1.03998 23.2876 1.12297 23.3675 1.27998 23.6101C1.37618 23.7588 1.57998 23.9501 1.57998 23.9501L10.87 23.9801C15.97 23.9901 20.3 23.9801 20.49 23.9501C21.17 23.8201 21.48 23.1501 21.16 22.5101C20.91 22.0301 20.72 22.0001 17.57 22.0001H14.65L18.83 17.8201L23 13.6401V13.2001L23.01 12.7501L20.36 10.1501C17.74 7.56013 17.72 7.54013 17.57 6.95013L17.42 6.35013L17.99 5.75014C18.31 5.42014 18.6 5.02013 18.64 4.86013C18.78 4.28013 18.3 3.70013 17.67 3.70013C17.35 3.70013 16.8 4.12013 15.93 5.03014C15.1 5.89013 15.08 5.96013 15.45 6.94013C15.62 7.39013 15.7 7.81013 15.7 8.23013C15.7 9.11014 14.92 12.9501 14.68 13.2501C14.43 13.5801 13.91 13.6601 13.51 13.4501C13.11 13.2501 13.05 13.1001 12.85 11.6901C12.71 10.6601 12.66 10.5201 12.39 10.2701C11.74 9.67014 10.83 10.1001 10.73 11.0501C10.68 11.5101 10.62 11.6101 9.96998 12.2701C9.57998 12.6701 9.22998 12.9701 9.19998 12.9501C9.01998 12.8401 8.87998 11.3401 8.92998 10.1301C8.98998 8.75014 9.12998 8.10014 9.63998 6.83014C10.16 5.58014 10.8 4.70013 12.47 2.99014C13.88 1.54013 14 1.39013 14 1.05013C14 0.560135 13.85 0.310135 13.45 0.140135C13.04 -0.0298653 13.03 -0.0298653 12.65 0.140135Z" fill="currentColor"/>
</svg>
