<svg viewBox="0 0 24 24" fill="none" xmlns="http://www.w3.org/2000/svg">
<path d="M8.32766 7.70002C8.45724 7.68814 8.57709 7.62619 8.66174 7.52735C8.74639 7.42851 8.78917 7.30057 8.78099 7.17069C8.68701 5.68098 8.60168 4.19073 8.52499 2.70002C8.5203 2.60702 8.48973 2.51718 8.43672 2.44062C8.38372 2.36406 8.31039 2.30382 8.22499 2.26669C5.69966 1.16002 2.54632 3.90002 0.371656 4.53869C0.289832 4.56231 0.215063 4.60567 0.153919 4.66496C0.0927747 4.72424 0.0471277 4.79764 0.0209891 4.87869C-0.00375451 4.95983 -0.00667629 5.04606 0.0125182 5.12869C0.0317126 5.21132 0.0723453 5.28743 0.130322 5.34936C1.45032 6.81202 4.78366 8.02936 8.32766 7.70002ZM23.9783 4.88002C23.9525 4.79887 23.9071 4.72531 23.8462 4.66579C23.7853 4.60628 23.7107 4.56263 23.629 4.53869C21.4517 3.90002 18.2997 1.16002 15.773 2.26669C15.6878 2.30372 15.6146 2.36375 15.5616 2.44006C15.5086 2.51636 15.4779 2.60592 15.473 2.69869C15.429 3.59869 15.3383 5.23736 15.2183 7.17336C15.2101 7.30323 15.2529 7.43118 15.3376 7.53002C15.4222 7.62886 15.5421 7.6908 15.6717 7.70269C19.2143 8.02936 22.5477 6.81202 23.8717 5.34936C23.9292 5.28717 23.9693 5.21093 23.988 5.12831C24.0068 5.04569 24.0034 4.9596 23.9783 4.87869V4.88002Z" fill="currentColor"/>
<path d="M16.4998 10C16.2345 10 15.9802 10.1054 15.7927 10.2929C15.6051 10.4804 15.4998 10.7348 15.4998 11C15.4998 11.2652 15.6051 11.5196 15.7927 11.7071C15.9802 11.8946 16.2345 12 16.4998 12C17.3278 12 17.9998 12.672 17.9998 13.5C17.9998 14.7453 15.7384 15.3573 13.4398 15.8453C13.4018 15.8535 13.3625 15.8528 13.3249 15.8431C13.2873 15.8334 13.2525 15.8151 13.2232 15.7896C13.1939 15.7641 13.171 15.7321 13.1563 15.6962C13.1416 15.6602 13.1355 15.6214 13.1384 15.5827L13.2944 13.5053C13.6784 8.364 13.9998 2.44267 13.9998 2C13.9998 1.46957 13.789 0.960859 13.414 0.585786C13.0389 0.210714 12.5302 0 11.9998 0C11.4693 0 10.9606 0.210714 10.5855 0.585786C10.2105 0.960859 9.99976 1.46957 9.99976 2C9.99976 2.44133 10.3198 8.364 10.7064 13.5067L10.8624 15.5813C10.8653 15.6201 10.8592 15.659 10.8444 15.6949C10.8297 15.7309 10.8069 15.7629 10.7776 15.7885C10.7484 15.8141 10.7136 15.8326 10.6761 15.8424C10.6385 15.8523 10.5991 15.8533 10.5611 15.8453C8.25976 15.3573 5.99976 14.7453 5.99976 13.5C5.99976 12.672 6.67176 12 7.49976 12C7.76497 12 8.01933 11.8946 8.20686 11.7071C8.3944 11.5196 8.49976 11.2652 8.49976 11C8.49976 10.7348 8.3944 10.4804 8.20686 10.2929C8.01933 10.1054 7.76497 10 7.49976 10C6.5715 10 5.68126 10.3687 5.02488 11.0251C4.3685 11.6815 3.99976 12.5717 3.99976 13.5C3.99976 15.432 5.51442 16.4493 7.47176 17.108C7.51707 17.123 7.55712 17.1508 7.58713 17.1879C7.61714 17.2251 7.63585 17.27 7.64105 17.3175C7.64624 17.365 7.6377 17.4129 7.61644 17.4557C7.59517 17.4984 7.56208 17.5342 7.52109 17.5587C7.067 17.7857 6.68455 18.1339 6.41606 18.5647C6.14756 18.9956 6.00348 19.4923 5.99976 20C5.99976 20.7957 6.31583 21.5587 6.87844 22.1213C7.44105 22.6839 8.20411 23 8.99976 23C9.26497 23 9.51933 22.8946 9.70686 22.7071C9.8944 22.5196 9.99976 22.2652 9.99976 22C9.99976 21.7348 9.8944 21.4804 9.70686 21.2929C9.51933 21.1054 9.26497 21 8.99976 21C8.73454 21 8.48019 20.8946 8.29265 20.7071C8.10511 20.5196 7.99976 20.2652 7.99976 20C7.99976 19.312 9.28242 18.836 10.7904 18.4613C10.8255 18.4525 10.8621 18.4514 10.8977 18.4582C10.9332 18.4649 10.9669 18.4793 10.9964 18.5004C11.0258 18.5214 11.0503 18.5486 11.0681 18.5801C11.086 18.6116 11.0968 18.6466 11.0998 18.6827C11.2411 20.4213 11.3798 21.9147 11.4998 23.54C11.5162 23.6597 11.5755 23.7693 11.6665 23.8487C11.7576 23.9281 11.8743 23.9718 11.9951 23.9718C12.1159 23.9718 12.2326 23.9281 12.3237 23.8487C12.4147 23.7693 12.474 23.6597 12.4904 23.54C12.6158 21.9147 12.7531 20.4213 12.8904 18.6827C12.8934 18.6465 12.9042 18.6113 12.9221 18.5797C12.94 18.5481 12.9647 18.5208 12.9943 18.4997C13.0239 18.4786 13.0577 18.4643 13.0934 18.4577C13.1292 18.451 13.1659 18.4523 13.2011 18.4613C14.7184 18.836 15.9998 19.312 15.9998 20C15.9998 20.2652 15.8944 20.5196 15.7069 20.7071C15.5193 20.8946 15.265 21 14.9998 21C14.7345 21 14.4802 21.1054 14.2927 21.2929C14.1051 21.4804 13.9998 21.7348 13.9998 22C13.9998 22.2652 14.1051 22.5196 14.2927 22.7071C14.4802 22.8946 14.7345 23 14.9998 23C15.7954 23 16.5585 22.6839 17.1211 22.1213C17.6837 21.5587 17.9998 20.7957 17.9998 20C17.9957 19.4924 17.8513 18.9959 17.5825 18.5653C17.3138 18.1346 16.9312 17.7867 16.4771 17.56C16.4362 17.5352 16.4033 17.4992 16.3822 17.4563C16.3611 17.4134 16.3528 17.3653 16.3581 17.3178C16.3634 17.2703 16.3822 17.2253 16.4123 17.1881C16.4423 17.151 16.4824 17.1232 16.5278 17.108C18.4851 16.4493 19.9998 15.432 19.9998 13.5C19.9998 12.5717 19.631 11.6815 18.9746 11.0251C18.3183 10.3687 17.428 10 16.4998 10Z" fill="currentColor"/>
</svg>
