<svg viewBox="0 0 32 32" fill="none" xmlns="http://www.w3.org/2000/svg">
    <path d="M12.3277 11.7C12.4572 11.6881 12.5771 11.6262 12.6617 11.5274C12.7464 11.4285 12.7892 11.3006 12.781 11.1707C12.687 9.68098 12.6017 8.19073 12.525 6.70002C12.5203 6.60702 12.4897 6.51718 12.4367 6.44062C12.3837 6.36406 12.3104 6.30382 12.225 6.26669C9.69966 5.16002 6.54632 7.90002 4.37166 8.53869C4.28983 8.56231 4.21506 8.60567 4.15392 8.66496C4.09277 8.72424 4.04713 8.79764 4.02099 8.87869C3.99625 8.95983 3.99332 9.04606 4.01252 9.12869C4.03171 9.21132 4.07235 9.28743 4.13032 9.34936C5.45032 10.812 8.78366 12.0294 12.3277 11.7ZM27.9783 8.88002C27.9525 8.79887 27.9071 8.72531 27.8462 8.66579C27.7853 8.60628 27.7107 8.56263 27.629 8.53869C25.4517 7.90002 22.2997 5.16002 19.773 6.26669C19.6878 6.30372 19.6146 6.36375 19.5616 6.44006C19.5086 6.51636 19.4779 6.60592 19.473 6.69869C19.429 7.59869 19.3383 9.23736 19.2183 11.1734C19.2101 11.3032 19.2529 11.4312 19.3376 11.53C19.4222 11.6289 19.5421 11.6908 19.6717 11.7027C23.2143 12.0294 26.5477 10.812 27.8717 9.34936C27.9292 9.28717 27.9693 9.21093 27.988 9.12831C28.0068 9.04569 28.0034 8.9596 27.9783 8.87869V8.88002Z" fill="currentColor"/>
    <path d="M20.4998 14C20.2345 14 19.9802 14.1054 19.7927 14.2929C19.6051 14.4804 19.4998 14.7348 19.4998 15C19.4998 15.2652 19.6051 15.5196 19.7927 15.7071C19.9802 15.8946 20.2345 16 20.4998 16C21.3278 16 21.9998 16.672 21.9998 17.5C21.9998 18.7453 19.7384 19.3573 17.4398 19.8453C17.4018 19.8535 17.3625 19.8528 17.3249 19.8431C17.2873 19.8334 17.2525 19.8151 17.2232 19.7896C17.1939 19.7641 17.171 19.7321 17.1563 19.6962C17.1416 19.6602 17.1355 19.6214 17.1384 19.5827L17.2944 17.5053C17.6784 12.364 17.9998 6.44267 17.9998 6C17.9998 5.46957 17.789 4.96086 17.414 4.58579C17.0389 4.21071 16.5302 4 15.9998 4C15.4693 4 14.9606 4.21071 14.5855 4.58579C14.2105 4.96086 13.9998 5.46957 13.9998 6C13.9998 6.44133 14.3198 12.364 14.7064 17.5067L14.8624 19.5813C14.8653 19.6201 14.8592 19.659 14.8444 19.6949C14.8297 19.7309 14.8069 19.7629 14.7776 19.7885C14.7484 19.8141 14.7136 19.8326 14.6761 19.8424C14.6385 19.8523 14.5991 19.8533 14.5611 19.8453C12.2598 19.3573 9.99976 18.7453 9.99976 17.5C9.99976 16.672 10.6718 16 11.4998 16C11.765 16 12.0193 15.8946 12.2069 15.7071C12.3944 15.5196 12.4998 15.2652 12.4998 15C12.4998 14.7348 12.3944 14.4804 12.2069 14.2929C12.0193 14.1054 11.765 14 11.4998 14C10.5715 14 9.68126 14.3687 9.02488 15.0251C8.3685 15.6815 7.99976 16.5717 7.99976 17.5C7.99976 19.432 9.51442 20.4493 11.4718 21.108C11.5171 21.123 11.5571 21.1508 11.5871 21.1879C11.6171 21.2251 11.6359 21.27 11.641 21.3175C11.6462 21.365 11.6377 21.4129 11.6164 21.4557C11.5952 21.4984 11.5621 21.5342 11.5211 21.5587C11.067 21.7857 10.6846 22.1339 10.4161 22.5647C10.1476 22.9956 10.0035 23.4923 9.99976 24C9.99976 24.7957 10.3158 25.5587 10.8784 26.1213C11.441 26.6839 12.2041 27 12.9998 27C13.265 27 13.5193 26.8946 13.7069 26.7071C13.8944 26.5196 13.9998 26.2652 13.9998 26C13.9998 25.7348 13.8944 25.4804 13.7069 25.2929C13.5193 25.1054 13.265 25 12.9998 25C12.7345 25 12.4802 24.8946 12.2926 24.7071C12.1051 24.5196 11.9998 24.2652 11.9998 24C11.9998 23.312 13.2824 22.836 14.7904 22.4613C14.8255 22.4525 14.8621 22.4514 14.8977 22.4582C14.9332 22.4649 14.9669 22.4793 14.9964 22.5004C15.0258 22.5214 15.0503 22.5486 15.0681 22.5801C15.086 22.6116 15.0968 22.6466 15.0998 22.6827C15.2411 24.4213 15.3798 25.9147 15.4998 27.54C15.5162 27.6597 15.5755 27.7693 15.6665 27.8487C15.7576 27.9281 15.8743 27.9718 15.9951 27.9718C16.1159 27.9718 16.2326 27.9281 16.3237 27.8487C16.4147 27.7693 16.474 27.6597 16.4904 27.54C16.6158 25.9147 16.7531 24.4213 16.8904 22.6827C16.8934 22.6465 16.9042 22.6113 16.9221 22.5797C16.94 22.5481 16.9647 22.5208 16.9943 22.4997C17.0239 22.4786 17.0577 22.4643 17.0934 22.4577C17.1292 22.451 17.1659 22.4523 17.2011 22.4613C18.7184 22.836 19.9998 23.312 19.9998 24C19.9998 24.2652 19.8944 24.5196 19.7069 24.7071C19.5193 24.8946 19.265 25 18.9998 25C18.7345 25 18.4802 25.1054 18.2927 25.2929C18.1051 25.4804 17.9998 25.7348 17.9998 26C17.9998 26.2652 18.1051 26.5196 18.2927 26.7071C18.4802 26.8946 18.7345 27 18.9998 27C19.7954 27 20.5585 26.6839 21.1211 26.1213C21.6837 25.5587 21.9998 24.7957 21.9998 24C21.9957 23.4924 21.8513 22.9959 21.5825 22.5653C21.3138 22.1346 20.9312 21.7867 20.4771 21.56C20.4362 21.5352 20.4033 21.4992 20.3822 21.4563C20.3611 21.4134 20.3528 21.3653 20.3581 21.3178C20.3634 21.2703 20.3822 21.2253 20.4123 21.1881C20.4423 21.151 20.4824 21.1232 20.5278 21.108C22.4851 20.4493 23.9998 19.432 23.9998 17.5C23.9998 16.5717 23.631 15.6815 22.9746 15.0251C22.3183 14.3687 21.428 14 20.4998 14Z" fill="currentColor"/>
</svg>
