<svg viewBox="0 0 32 29" fill="none" xmlns="http://www.w3.org/2000/svg">
<path d="M31.0671 4.94485C30.4423 3.67952 29.539 2.58391 28.4302 1.74636C27.3213 0.908816 26.0378 0.352772 24.6833 0.123068C23.3288 -0.106635 21.941 -0.0035689 20.632 0.423956C19.323 0.851481 18.1294 1.5915 17.1473 2.58434L16.0007 3.66106L14.894 2.61195C13.9112 1.60339 12.7103 0.8519 11.391 0.419783C10.0716 -0.0123348 8.67179 -0.112634 7.30752 0.1272C5.95093 0.34525 4.66446 0.896387 3.5557 1.73453C2.44693 2.57267 1.54808 3.67345 0.934315 4.94485C0.108436 6.61536 -0.18046 8.51532 0.109745 10.3677C0.39995 12.2201 1.25408 13.9282 2.54762 15.2427L15.0407 28.5776C15.1651 28.7112 15.3142 28.8174 15.4791 28.89C15.6441 28.9626 15.8215 29 16.0007 29C16.1799 29 16.3573 28.9626 16.5222 28.89C16.6872 28.8174 16.8363 28.7112 16.9607 28.5776L29.4404 15.2704C30.7384 13.953 31.5961 12.241 31.8887 10.3837C32.1813 8.52641 31.8934 6.62093 31.0671 4.94485Z" fill="currentColor"/>
</svg>
