<svg viewBox="0 0 19 16" fill="none" xmlns="http://www.w3.org/2000/svg">
<path d="M9.20998 15.0951C6.04162 12.5827 -0.552403 6.47268 1.33308 3.02441C1.63033 2.48107 2.06462 2.01008 2.60014 1.65024C3.13567 1.2904 3.7571 1.05202 4.41322 0.954743C5.06934 0.857469 5.74136 0.904085 6.37389 1.09075C7.00643 1.27742 7.58137 1.59879 8.05133 2.02837L9.20924 3.0859L10.3671 2.02837C10.837 1.5992 11.4118 1.27819 12.044 1.09177C12.6763 0.905345 13.3479 0.858851 14.0037 0.956114C14.6594 1.05338 15.2805 1.29161 15.8158 1.6512C16.351 2.01079 16.7852 2.48145 17.0824 3.02441C18.959 6.45106 12.3828 12.6117 9.20998 15.0951Z" stroke="currentColor" stroke-width="1.5" stroke-linecap="round" stroke-linejoin="round"/>
</svg>
