<svg viewBox="0 0 12 12" fill="none" xmlns="http://www.w3.org/2000/svg">
    <path d="M1.19551 5.29538L5.69526 1.55559C5.73859 1.51893 5.7935 1.49882 5.85025 1.49882C5.907 1.49882 5.96192 1.51893 6.00524 1.55559L10.505 5.29538C10.5794 5.35673 10.6654 5.40261 10.7578 5.43033C10.8502 5.45806 10.9472 5.46706 11.0431 5.45681C11.139 5.44657 11.2319 5.41729 11.3164 5.37068C11.4008 5.32407 11.4751 5.26107 11.5349 5.18538C11.6583 5.03052 11.7164 4.83361 11.6968 4.63658C11.6772 4.43955 11.5814 4.25795 11.4299 4.13044L6.93019 0.385651C6.62554 0.136263 6.24396 0 5.85025 0C5.45654 0 5.07497 0.136263 4.77031 0.385651L0.270566 4.13044C0.119083 4.25795 0.023348 4.43955 0.00373828 4.63658C-0.0158715 4.83361 0.0421928 5.03052 0.165572 5.18538C0.225374 5.26107 0.299681 5.32407 0.384139 5.37068C0.468598 5.41729 0.561508 5.44657 0.657428 5.45681C0.753348 5.46706 0.850348 5.45806 0.942744 5.43033C1.03514 5.40261 1.12108 5.35673 1.19551 5.29538Z" fill="currentColor"/>
    <path d="M11.015 11V7.50024C11.0112 7.34992 10.9769 7.20194 10.9141 7.06529C10.8514 6.92863 10.7615 6.80615 10.65 6.70528L6.50027 3.20548C6.32537 3.05811 6.10402 2.97729 5.87531 2.97729C5.6466 2.97729 5.42525 3.05811 5.25034 3.20548L1.10058 6.70528C0.989064 6.80615 0.899211 6.92863 0.836471 7.06529C0.773731 7.20194 0.739412 7.34992 0.735596 7.50024V11C0.735596 11.2652 0.840947 11.5196 1.02847 11.7071C1.216 11.8946 1.47034 12 1.73554 12H4.40539C4.53799 12 4.66516 11.9473 4.75892 11.8535C4.85269 11.7598 4.90536 11.6326 4.90536 11.5V8.75016C4.90536 8.61756 4.95804 8.49039 5.0518 8.39663C5.14556 8.30287 5.27273 8.25019 5.40533 8.25019H6.40528C6.53788 8.25019 6.66505 8.30287 6.75881 8.39663C6.85257 8.49039 6.90525 8.61756 6.90525 8.75016V11.5C6.90525 11.6326 6.95792 11.7598 7.05169 11.8535C7.14545 11.9473 7.27262 12 7.40522 12H10.0951C10.3462 11.9798 10.5804 11.8656 10.751 11.6803C10.9215 11.4949 11.0158 11.2519 11.015 11Z" fill="currentColor"/>
</svg>
