<svg viewBox="0 0 32 32" fill="none" xmlns="http://www.w3.org/2000/svg">
    <path d="M16.3177 8.59288C16.2247 8.50404 16.101 8.45447 15.9724 8.45447C15.8438 8.45447 15.7201 8.50404 15.6271 8.59288L7.62708 16.2302C7.57839 16.2767 7.53959 16.3326 7.51301 16.3944C7.48644 16.4563 7.47263 16.5229 7.47241 16.5902V26.4982C7.47241 27.0515 7.92041 27.4982 8.47241 27.4982H23.4724C23.7376 27.4982 23.992 27.3929 24.1795 27.2053C24.3671 27.0178 24.4724 26.7634 24.4724 26.4982V16.5915C24.4724 16.4542 24.4164 16.3249 24.3177 16.2302L16.3177 8.59288ZM20.9724 20.6102C20.9724 20.9169 20.7231 21.1662 20.4164 21.1662H18.1391C18.0065 21.1662 17.8793 21.2189 17.7855 21.3127C17.6918 21.4064 17.6391 21.5336 17.6391 21.6662V23.9489C17.6391 24.0218 17.6247 24.0941 17.5967 24.1615C17.5688 24.2288 17.5278 24.29 17.4761 24.3416C17.4245 24.3931 17.3632 24.4339 17.2957 24.4617C17.2283 24.4895 17.156 24.5037 17.0831 24.5035H14.8617C14.7888 24.5037 14.7165 24.4895 14.6491 24.4617C14.5816 24.4339 14.5203 24.3931 14.4687 24.3416C14.417 24.29 14.3761 24.2288 14.3481 24.1615C14.3201 24.0941 14.3057 24.0218 14.3057 23.9489V21.6662C14.3057 21.5336 14.2531 21.4064 14.1593 21.3127C14.0655 21.2189 13.9384 21.1662 13.8057 21.1662H11.5284C11.381 21.1662 11.2395 21.1076 11.1353 21.0034C11.031 20.8991 10.9724 20.7577 10.9724 20.6102V18.3875C10.9724 18.3146 10.9868 18.2424 11.0148 18.175C11.0427 18.1076 11.0837 18.0464 11.1353 17.9949C11.187 17.9433 11.2483 17.9025 11.3157 17.8747C11.3832 17.8469 11.4555 17.8327 11.5284 17.8329H13.8057C13.9384 17.8329 14.0655 17.7802 14.1593 17.6864C14.2531 17.5927 14.3057 17.4655 14.3057 17.3329V15.0542C14.3057 14.7475 14.5537 14.4995 14.8617 14.4995H17.0831C17.2303 14.4995 17.3715 14.5579 17.4758 14.6619C17.58 14.7659 17.6387 14.907 17.6391 15.0542V17.3329C17.6391 17.6089 17.8631 17.8329 18.1391 17.8329H20.4164C20.4894 17.8327 20.5616 17.8469 20.6291 17.8747C20.6965 17.9025 20.7578 17.9433 20.8095 17.9949C20.8611 18.0464 20.9021 18.1076 20.9301 18.175C20.958 18.2424 20.9724 18.3146 20.9724 18.3875V20.6102Z" fill="currentColor"/>
    <path d="M27.6616 14.7756L16.6616 4.27556C16.4757 4.09866 16.2289 4 15.9723 4C15.7157 4 15.4689 4.09866 15.283 4.27556L4.28163 14.7756C4.10196 14.9611 4.00104 15.2089 4.00001 15.4672C3.99897 15.7255 4.0979 15.9741 4.27608 16.1611C4.45426 16.3481 4.69787 16.4589 4.95589 16.4702C5.21391 16.4816 5.46634 16.3928 5.6603 16.2222L15.6256 6.71156C15.7187 6.62272 15.8423 6.57314 15.971 6.57314C16.0996 6.57314 16.2233 6.62272 16.3163 6.71156L26.2816 16.2222C26.4756 16.3928 26.728 16.4816 26.986 16.4702C27.2441 16.4589 27.4877 16.3481 27.6659 16.1611C27.844 15.9741 27.943 15.7255 27.9419 15.4672C27.9409 15.2089 27.8413 14.9611 27.6616 14.7756Z" fill="currentColor"/>
</svg>
