<svg viewBox="0 0 24 24" fill="none" xmlns="http://www.w3.org/2000/svg">
<path d="M12.3177 4.59288C12.2247 4.50404 12.101 4.45447 11.9724 4.45447C11.8438 4.45447 11.7201 4.50404 11.6271 4.59288L3.62708 12.2302C3.57839 12.2767 3.53959 12.3326 3.51301 12.3944C3.48644 12.4563 3.47263 12.5229 3.47241 12.5902V22.4982C3.47241 23.0515 3.92041 23.4982 4.47241 23.4982H19.4724C19.7376 23.4982 19.992 23.3929 20.1795 23.2053C20.3671 23.0178 20.4724 22.7634 20.4724 22.4982V12.5915C20.4724 12.4542 20.4164 12.3249 20.3177 12.2302L12.3177 4.59288ZM16.9724 16.6102C16.9724 16.9169 16.7231 17.1662 16.4164 17.1662H14.1391C14.0065 17.1662 13.8793 17.2189 13.7855 17.3127C13.6918 17.4064 13.6391 17.5336 13.6391 17.6662V19.9489C13.6391 20.0218 13.6247 20.0941 13.5967 20.1615C13.5688 20.2288 13.5278 20.29 13.4761 20.3416C13.4245 20.3931 13.3632 20.4339 13.2957 20.4617C13.2283 20.4895 13.156 20.5037 13.0831 20.5035H10.8617C10.7888 20.5037 10.7165 20.4895 10.6491 20.4617C10.5816 20.4339 10.5203 20.3931 10.4687 20.3416C10.417 20.29 10.3761 20.2288 10.3481 20.1615C10.3201 20.0941 10.3057 20.0218 10.3057 19.9489V17.6662C10.3057 17.5336 10.2531 17.4064 10.1593 17.3127C10.0655 17.2189 9.93835 17.1662 9.80575 17.1662H7.52841C7.38095 17.1662 7.23953 17.1076 7.13526 17.0034C7.03099 16.8991 6.97241 16.7577 6.97241 16.6102V14.3875C6.97241 14.3146 6.9868 14.2424 7.01476 14.175C7.04272 14.1076 7.08369 14.0464 7.13534 13.9949C7.18699 13.9433 7.24829 13.9025 7.31574 13.8747C7.38319 13.8469 7.45546 13.8327 7.52841 13.8329H9.80575C9.93835 13.8329 10.0655 13.7802 10.1593 13.6864C10.2531 13.5927 10.3057 13.4655 10.3057 13.3329V11.0542C10.3057 10.7475 10.5537 10.4995 10.8617 10.4995H13.0831C13.2303 10.4995 13.3715 10.5579 13.4758 10.6619C13.58 10.7659 13.6387 10.907 13.6391 11.0542V13.3329C13.6391 13.6089 13.8631 13.8329 14.1391 13.8329H16.4164C16.4894 13.8327 16.5616 13.8469 16.6291 13.8747C16.6965 13.9025 16.7578 13.9433 16.8095 13.9949C16.8611 14.0464 16.9021 14.1076 16.9301 14.175C16.958 14.2424 16.9724 14.3146 16.9724 14.3875V16.6102Z" fill="currentColor"/>
<path d="M23.6616 10.7756L12.6616 0.275556C12.4757 0.098657 12.2289 0 11.9723 0C11.7157 0 11.4689 0.098657 11.283 0.275556L0.281634 10.7756C0.101962 10.9611 0.00104247 11.2089 8.03108e-06 11.4672C-0.00102641 11.7255 0.0979048 11.9741 0.276084 12.1611C0.454264 12.3481 0.697871 12.4589 0.955893 12.4702C1.21391 12.4816 1.46634 12.3928 1.6603 12.2222L11.6256 2.71156C11.7187 2.62272 11.8423 2.57314 11.971 2.57314C12.0996 2.57314 12.2233 2.62272 12.3163 2.71156L22.2816 12.2222C22.4756 12.3928 22.728 12.4816 22.986 12.4702C23.2441 12.4589 23.4877 12.3481 23.6659 12.1611C23.844 11.9741 23.943 11.7255 23.9419 11.4672C23.9409 11.2089 23.8413 10.9611 23.6616 10.7756Z" fill="currentColor"/>
</svg>
