<svg viewBox="0 0 12 12" fill="none" xmlns="http://www.w3.org/2000/svg">
<path d="M10.4737 11H9.94737V9.25C9.94675 8.59094 9.76354 7.94365 9.41617 7.37316C9.0688 6.80267 8.56949 6.32909 7.96842 6C8.57021 5.67169 9.0701 5.19828 9.41758 4.62762C9.76507 4.05695 9.94782 3.40926 9.94737 2.75V1H10.4737C10.6133 1 10.7471 0.947322 10.8458 0.853553C10.9445 0.759785 11 0.632608 11 0.5C11 0.367392 10.9445 0.240215 10.8458 0.146447C10.7471 0.0526784 10.6133 0 10.4737 0H1.52632C1.38673 0 1.25286 0.0526784 1.15415 0.146447C1.05545 0.240215 1 0.367392 1 0.5C1 0.632608 1.05545 0.759785 1.15415 0.853553C1.25286 0.947322 1.38673 1 1.52632 1H2.05263V2.75C2.05218 3.40926 2.23494 4.05695 2.58242 4.62762C2.9299 5.19828 3.42979 5.67169 4.03158 6C3.43051 6.32909 2.9312 6.80267 2.58383 7.37316C2.23646 7.94365 2.05325 8.59094 2.05263 9.25V11H1.52632C1.38673 11 1.25286 11.0527 1.15415 11.1464C1.05545 11.2402 1 11.3674 1 11.5C1 11.6326 1.05545 11.7598 1.15415 11.8536C1.25286 11.9473 1.38673 12 1.52632 12H10.4737C10.6133 12 10.7471 11.9473 10.8458 11.8536C10.9445 11.7598 11 11.6326 11 11.5C11 11.3674 10.9445 11.2402 10.8458 11.1464C10.7471 11.0527 10.6133 11 10.4737 11ZM3.10526 9.25C3.10405 8.86474 3.1879 8.48353 3.3514 8.13097C3.51491 7.77841 3.75443 7.46235 4.0545 7.2032C4.35457 6.94405 4.70852 6.74757 5.09349 6.62644C5.47846 6.50532 5.88589 6.46224 6.28947 6.5C7.01813 6.58852 7.68682 6.92924 8.16752 7.45694C8.64822 7.98464 8.90715 8.66224 8.89474 9.36V10.75C8.89474 10.8163 8.86701 10.8799 8.81766 10.9268C8.76831 10.9737 8.70137 11 8.63158 11H3.36842C3.29863 11 3.23169 10.9737 3.18234 10.9268C3.13299 10.8799 3.10526 10.8163 3.10526 10.75V9.25ZM3.36842 1H8.63158C8.70137 1 8.76831 1.02634 8.81766 1.07322C8.86701 1.12011 8.89474 1.1837 8.89474 1.25V2.63C8.91213 3.33005 8.65522 4.01129 8.17384 4.54159C7.69246 5.07189 7.02092 5.41344 6.28947 5.5C5.88573 5.53855 5.47796 5.49604 5.09263 5.37521C4.70729 5.25438 4.35301 5.05793 4.05275 4.79862C3.7525 4.53931 3.51299 4.22293 3.34976 3.87C3.18653 3.51707 3.10323 3.13549 3.10526 2.75V1.25C3.10526 1.1837 3.13299 1.12011 3.18234 1.07322C3.23169 1.02634 3.29863 1 3.36842 1Z" fill="currentColor"/>
<path d="M6 4.815C6.37543 4.80359 6.74082 4.69696 7.05825 4.50618C7.37568 4.3154 7.63361 4.0474 7.80526 3.73C7.82836 3.692 7.84052 3.64888 7.84052 3.605C7.84052 3.56112 7.82836 3.518 7.80526 3.48C7.7823 3.44222 7.74933 3.4108 7.70963 3.38887C7.66992 3.36694 7.62487 3.35526 7.57895 3.355H4.42105C4.37298 3.3572 4.32646 3.37188 4.28656 3.39744C4.24665 3.42301 4.2149 3.45848 4.19474 3.5C4.17164 3.538 4.15948 3.58112 4.15948 3.625C4.15948 3.66888 4.17164 3.712 4.19474 3.75C4.36918 4.06367 4.62831 4.32761 4.94554 4.51476C5.26278 4.70191 5.62671 4.80553 6 4.815Z" fill="currentColor"/>
<path d="M6.39474 7.795C6.34535 7.7418 6.2846 7.69919 6.21655 7.67C6.14849 7.64081 6.07467 7.62572 6 7.62572C5.92533 7.62572 5.85151 7.64081 5.78345 7.67C5.7154 7.69919 5.65465 7.7418 5.60526 7.795L3.85263 9.67C3.78588 9.74219 3.74243 9.83112 3.72749 9.92616C3.71255 10.0212 3.72676 10.1183 3.7684 10.2059C3.81005 10.2934 3.87737 10.3677 3.96231 10.4199C4.04726 10.4721 4.14622 10.4999 4.24737 10.5H7.75263C7.85378 10.4999 7.95274 10.4721 8.03769 10.4199C8.12263 10.3677 8.18996 10.2934 8.2316 10.2059C8.27325 10.1183 8.28745 10.0212 8.27251 9.92616C8.25757 9.83112 8.21413 9.74219 8.14737 9.67L6.39474 7.795Z" fill="currentColor"/>
</svg>
