<svg viewBox="0 0 14 14" fill="none" xmlns="http://www.w3.org/2000/svg">
<path fill-rule="evenodd" clip-rule="evenodd" d="M7.00001 6.10352e-05C5.09892 6.10352e-05 4.86052 0.00812502 4.11391 0.0421871C3.36882 0.0761722 2.85999 0.194515 2.41471 0.367569C1.95442 0.546433 1.56403 0.785785 1.17488 1.17494C0.785696 1.56412 0.546365 1.95449 0.36748 2.41477C0.194425 2.86006 0.0761041 3.36888 0.042098 4.11398C0.00802894 4.8606 0 5.09896 0 7.00005C0 8.90118 0.00802894 9.13953 0.042098 9.88615C0.0761041 10.6312 0.194425 11.1401 0.36748 11.5853C0.546365 12.0457 0.785696 12.436 1.17488 12.8252C1.56403 13.2144 1.95442 13.4537 2.41471 13.6326C2.85999 13.8057 3.36882 13.924 4.11391 13.958C4.86052 13.992 5.09892 14.0001 7.00001 14.0001C8.90108 14.0001 9.13943 13.992 9.88605 13.958C10.6312 13.924 11.14 13.8057 11.5853 13.6326C12.0456 13.4537 12.4359 13.2144 12.8251 12.8252C13.2143 12.436 13.4536 12.0457 13.6325 11.5853C13.8056 11.1401 13.9239 10.6312 13.9579 9.88615C13.992 9.13953 14 8.90118 14 7.00005C14 5.09899 13.992 4.8606 13.9579 4.11398C13.9239 3.36888 13.8056 2.86006 13.6325 2.41477C13.4536 1.95449 13.2143 1.56412 12.8251 1.17494C12.4359 0.785785 12.0456 0.546433 11.5853 0.367569C11.14 0.194515 10.6312 0.0761722 9.88605 0.0421871C9.13943 0.00812502 8.90108 6.10352e-05 7.00001 6.10352e-05ZM7.00043 1.26106C8.86951 1.26106 9.09092 1.26817 9.829 1.30185C10.5115 1.333 10.8822 1.44703 11.1288 1.54289C11.4556 1.66988 11.6888 1.82156 11.9337 2.06651C12.1787 2.31147 12.3303 2.54466 12.4574 2.8714C12.5532 3.11806 12.6672 3.48871 12.6984 4.1712C12.732 4.90933 12.7392 5.13073 12.7392 6.99977C12.7392 8.86891 12.732 9.09032 12.6984 9.8284C12.6672 10.5109 12.5532 10.8816 12.4574 11.1282C12.3303 11.4549 12.1787 11.6882 11.9337 11.9331C11.6888 12.178 11.4556 12.3297 11.1288 12.4567C10.8822 12.5525 10.5115 12.6666 9.829 12.6977C9.09099 12.7314 8.86965 12.7386 7.00043 12.7386C5.1312 12.7386 4.90985 12.7314 4.17184 12.6977C3.48935 12.6666 3.11867 12.5525 2.87201 12.4567C2.5453 12.3297 2.31208 12.178 2.06715 11.9331C1.82221 11.6882 1.67049 11.4549 1.54351 11.1282C1.44767 10.8816 1.33364 10.5109 1.30249 9.8284C1.26881 9.09032 1.2617 8.86891 1.2617 6.99977C1.2617 5.13073 1.26881 4.90933 1.30249 4.1712C1.33364 3.48871 1.44767 3.11806 1.54351 2.8714C1.67049 2.54466 1.82221 2.31147 2.06715 2.06654C2.31208 1.82156 2.5453 1.66988 2.87201 1.54289C3.11867 1.44703 3.48935 1.333 4.17181 1.30185C4.90996 1.26817 5.13134 1.26106 7.00043 1.26106Z" fill="currentColor"/>
<path fill-rule="evenodd" clip-rule="evenodd" d="M6.99826 9.33028C5.71005 9.33028 4.66566 8.28588 4.66566 6.99767C4.66566 5.70938 5.71005 4.66506 6.99826 4.66506C8.28655 4.66506 9.33088 5.70938 9.33088 6.99767C9.33088 8.28588 8.28655 9.33028 6.99826 9.33028ZM6.99742 3.40407C5.01283 3.40407 3.40396 5.0129 3.40396 6.99753C3.40396 8.98217 5.01283 10.591 6.99742 10.591C8.98207 10.591 10.5909 8.98217 10.5909 6.99753C10.5909 5.0129 8.98207 3.40407 6.99742 3.40407Z" fill="currentColor"/>
<path fill-rule="evenodd" clip-rule="evenodd" d="M11.5726 3.26228C11.5726 3.72606 11.1967 4.102 10.7329 4.102C10.2692 4.102 9.89319 3.72606 9.89319 3.26228C9.89319 2.7985 10.2692 2.42256 10.7329 2.42256C11.1967 2.42256 11.5726 2.7985 11.5726 3.26228Z" fill="currentColor"/>
</svg>
