<svg viewBox="0 0 24 24" fill="none" xmlns="http://www.w3.org/2000/svg">
    <g clip-path="url(#clip0_2913:34192)">
        <path d="M12.0167 24C5.38912 24 0 18.6444 0 12.0167C0 5.38912 5.38912 0 12.0167 0C18.6444 0 24.0335 5.38912 24.0335 12.0167C24 18.6444 18.6444 24 12.0167 24Z" fill="url(#paint0_radial_2913:34192)"/>
        <path d="M12.0167 6.59416C13.7908 6.59416 13.9916 6.59416 14.6611 6.62763C15.2971 6.6611 15.6653 6.76152 15.8996 6.86194C16.2008 6.99583 16.4352 7.12972 16.6695 7.36403C16.9038 7.59834 17.0377 7.79918 17.1716 8.1339C17.272 8.36821 17.3724 8.70294 17.4059 9.3724C17.4059 10.0419 17.4059 10.2427 17.4059 12.0167C17.4059 13.7908 17.4059 13.9916 17.3724 14.6611C17.3389 15.2971 17.2385 15.6653 17.1381 15.8996C17.0042 16.2008 16.8703 16.4352 16.636 16.6695C16.4017 16.9038 16.2009 17.0377 15.8661 17.1716C15.6318 17.272 15.2971 17.3724 14.6276 17.4059C13.9582 17.4059 13.7573 17.4059 12.0167 17.4059C10.2427 17.4059 10.0419 17.4059 9.3724 17.3724C8.73641 17.3389 8.36821 17.2385 8.1339 17.1381C7.83265 17.0042 7.59834 16.8703 7.36403 16.636C7.12972 16.4017 6.99583 16.2009 6.86194 15.8661C6.76152 15.6318 6.6611 15.2971 6.62763 14.6276C6.59416 13.9247 6.59416 13.7239 6.59416 11.9833C6.59416 10.2092 6.59416 10.0084 6.62763 9.33893C6.6611 8.70294 6.76152 8.33474 6.86194 8.10043C6.99583 7.79918 7.12972 7.56487 7.36403 7.33056C7.59834 7.09625 7.79918 6.96236 8.1339 6.82846C8.36821 6.72805 8.70294 6.62763 9.3724 6.59416C10.0419 6.62763 10.2427 6.59416 12.0167 6.59416ZM12.0167 5.42261C10.2427 5.42261 10.0084 5.42261 9.30545 5.45608C8.60252 5.48955 8.1339 5.58997 7.69876 5.75734C7.26361 5.9247 6.89541 6.15901 6.52721 6.52721C6.15901 6.89541 5.9247 7.26361 5.75734 7.69876C5.58997 8.1339 5.48955 8.60252 5.45608 9.30545C5.42261 10.0084 5.42261 10.2427 5.42261 12.0167C5.42261 13.7908 5.42261 14.0251 5.45608 14.728C5.48955 15.431 5.58997 15.8996 5.75734 16.3347C5.9247 16.7699 6.15901 17.1381 6.52721 17.5063C6.89541 17.8745 7.26361 18.1088 7.69876 18.2762C8.1339 18.4435 8.60252 18.5439 9.30545 18.5774C10.0084 18.6109 10.2427 18.6109 12.0167 18.6109C13.7908 18.6109 14.0251 18.6109 14.728 18.5774C15.431 18.5439 15.8996 18.4435 16.3347 18.2762C16.7699 18.1088 17.1381 17.8745 17.5063 17.5063C17.8745 17.1381 18.1088 16.7699 18.2762 16.3347C18.4435 15.8996 18.5439 15.431 18.5774 14.728C18.6109 14.0251 18.6109 13.7908 18.6109 12.0167C18.6109 10.2427 18.6109 10.0084 18.5774 9.30545C18.5439 8.60252 18.4435 8.1339 18.2762 7.69876C18.1088 7.26361 17.8745 6.89541 17.5063 6.52721C17.1381 6.15901 16.7699 5.9247 16.3347 5.75734C15.8996 5.58997 15.431 5.48955 14.728 5.45608C14.0251 5.42261 13.7908 5.42261 12.0167 5.42261Z" fill="white"/>
        <path d="M12.0167 8.63599C10.1423 8.63599 8.63599 10.1423 8.63599 12.0167C8.63599 13.8912 10.1423 15.3975 12.0167 15.3975C13.8577 15.3975 15.3975 13.8577 15.3975 12.0167C15.3975 10.1423 13.8577 8.63599 12.0167 8.63599ZM12.0167 14.1925C10.8117 14.1925 9.80753 13.2218 9.80753 11.9833C9.80753 10.7782 10.7782 9.77406 12.0167 9.77406C13.2218 9.77406 14.2259 10.7448 14.2259 11.9833C14.1925 13.2218 13.2218 14.1925 12.0167 14.1925Z" fill="white"/>
        <path d="M16.3013 8.50208C16.3013 8.93722 15.9331 9.30542 15.4979 9.30542C15.0628 9.30542 14.6946 8.93722 14.6946 8.50208C14.6946 8.06693 15.0628 7.69873 15.4979 7.69873C15.9665 7.69873 16.3013 8.06693 16.3013 8.50208Z" fill="white"/>
    </g>
    <defs>
        <radialGradient id="paint0_radial_2913:34192" cx="0" cy="0" r="1" gradientUnits="userSpaceOnUse" gradientTransform="translate(-0.600737 24.0886) scale(44.3901)">
            <stop stop-color="#F5EC53"/>
            <stop offset="0.2412" stop-color="#E48244"/>
            <stop offset="0.3974" stop-color="#D15767"/>
            <stop offset="0.4888" stop-color="#C84278"/>
            <stop offset="1" stop-color="#192CFA"/>
        </radialGradient>
        <clipPath id="clip0_2913:34192">
            <rect width="24" height="24" fill="white"/>
        </clipPath>
    </defs>
</svg>
