<svg viewBox="0 0 12 12" fill="none" xmlns="http://www.w3.org/2000/svg">
    <path d="M3.66602 8.33277L8.33088 3.66791" stroke="currentColor" stroke-width="0.8" stroke-linecap="round" stroke-linejoin="round"/>
    <path d="M4.10326 6.00994C3.82381 5.99384 3.54412 6.03697 3.2825 6.1365C3.02089 6.23603 2.78326 6.38972 2.58518 6.5875L1.58556 7.58711C1.21063 7.96204 1 8.47056 1 9.00079C1 9.26333 1.05171 9.52331 1.15218 9.76586C1.25265 10.0084 1.39992 10.2288 1.58556 10.4145C1.77121 10.6001 1.99161 10.7474 2.23416 10.8478C2.47672 10.9483 2.7367 11 2.99924 11C3.52947 11 4.03799 10.7894 4.41292 10.4145L5.41253 9.41485C5.61031 9.21677 5.764 8.97914 5.86353 8.71753C5.96306 8.45591 6.00619 8.17622 5.99009 7.89677" stroke="currentColor" stroke-width="0.8" stroke-linecap="round" stroke-linejoin="round"/>
    <path d="M7.89238 5.99009C8.17182 6.00616 8.45151 5.96302 8.71312 5.86349C8.97473 5.76396 9.21237 5.61028 9.41046 5.41253L10.4101 4.41292C10.785 4.03799 10.9956 3.52947 10.9956 2.99924C10.9956 2.46901 10.785 1.96049 10.4101 1.58556C10.0351 1.21063 9.52663 1 8.9964 1C8.46617 1 7.95765 1.21063 7.58272 1.58556L6.58311 2.58518C6.3858 2.7835 6.23257 3.02122 6.13343 3.28282C6.03429 3.54441 5.99147 3.82398 6.00777 4.10326" stroke="currentColor" stroke-width="0.8" stroke-linecap="round" stroke-linejoin="round"/>
</svg>
