<svg viewBox="0 0 24 24" fill="none" xmlns="http://www.w3.org/2000/svg">
    <g clip-path="url(#clip0_2913:34216)">
        <path d="M12.0167 24C5.38912 24 0 18.6444 0 12.0167C0 5.38912 5.38912 0 12.0167 0C18.6444 0 24.0335 5.38912 24.0335 12.0167C24 18.6444 18.6444 24 12.0167 24Z" fill="#117BB8"/>
        <path d="M9.03778 9.33887H6.56079V17.3723H9.03778V9.33887Z" fill="white"/>
        <path d="M7.79922 8.26787C8.60257 8.26787 9.27202 7.59842 9.27202 6.79507C9.27202 5.99172 8.60257 5.32227 7.79922 5.32227C6.99587 5.32227 6.32642 5.99172 6.32642 6.79507C6.32642 7.59842 6.99587 8.26787 7.79922 8.26787Z" fill="white"/>
        <path d="M13.021 13.1549C13.021 12.0169 13.5565 11.3474 14.5273 11.3474C15.431 11.3474 15.8662 11.9834 15.8662 13.1549C15.8662 14.3265 15.8662 17.3725 15.8662 17.3725H18.3432C18.3432 17.3725 18.3432 14.4269 18.3432 12.2847C18.3432 10.1424 17.1381 9.10474 15.431 9.10474C13.7239 9.10474 13.021 10.4436 13.021 10.4436V9.37252H10.6444V17.406H13.021C13.021 17.339 13.021 14.3934 13.021 13.1549Z" fill="white"/>
    </g>
    <defs>
        <clipPath id="clip0_2913:34216">
            <rect width="24" height="24" fill="white"/>
        </clipPath>
    </defs>
</svg>
