<svg viewBox="0 0 15 14" fill="none" xmlns="http://www.w3.org/2000/svg">
<path fill-rule="evenodd" clip-rule="evenodd" d="M8.12999 11.3753C8.04249 11.3928 7.97266 11.3928 7.88516 11.4103C7.76249 11.4278 7.65749 11.4278 7.53516 11.4278C7.41249 11.4278 7.28999 11.4278 7.16749 11.4103C7.06249 11.3928 6.95749 11.3928 6.85249 11.3753C4.92749 11.0778 3.42266 9.57282 3.12499 7.64782C3.10749 7.54282 3.08999 7.43782 3.08999 7.33282C3.07266 7.21032 3.07266 7.08782 3.07266 6.96532C3.07266 6.84282 3.07266 6.73782 3.08999 6.61532C3.08999 6.52782 3.10749 6.45782 3.12499 6.37032C3.38749 4.41032 4.91016 2.87032 6.85249 2.57282C6.95749 2.55532 7.06249 2.53782 7.16749 2.53782C7.28999 2.52032 7.41249 2.52032 7.53516 2.52032C7.65749 2.52032 7.76249 2.52032 7.88516 2.53782C7.97266 2.53782 8.04249 2.55532 8.12999 2.57282C10.125 2.81782 11.6827 4.37532 11.9452 6.37032C11.9625 6.45782 11.9625 6.52782 11.98 6.61532C11.9977 6.73782 11.9977 6.84282 11.9977 6.96532C11.9977 7.08782 11.9977 7.21032 11.98 7.33282C11.9625 7.43782 11.9625 7.54282 11.9452 7.64782C11.6477 9.57282 10.09 11.1128 8.12999 11.3753ZM14.5 6.37H13.24C12.9602 3.675 10.825 1.54 8.13 1.26V0H6.8525V1.2775C4.21017 1.5925 2.11018 3.71 1.83 6.37H0.5V7.6475H1.84768C2.1625 10.2725 4.245 12.3375 6.8525 12.6525V14H8.13V12.6525C10.79 12.3725 12.9077 10.2725 13.2227 7.63H14.5V6.37Z" fill="currentColor"/>
<path d="M2.14844 12.6465L13.1484 1.64648" stroke="#DD3C4C" stroke-linecap="round"/>
</svg>
