<svg viewBox="0 0 10 12" fill="none" xmlns="http://www.w3.org/2000/svg">
    <path d="M7.89885 4.70875H2.88612V3.49354C2.88585 3.06024 3.02811 2.63888 3.29096 2.29442C3.55381 1.94995 3.92267 1.7015 4.34066 1.58736C4.75866 1.47322 5.2026 1.49973 5.60404 1.66281C6.00548 1.82589 6.34214 2.11648 6.56212 2.48978C6.66461 2.66334 6.83185 2.78907 7.02704 2.83932C7.22223 2.88957 7.42939 2.86023 7.60295 2.75774C7.7765 2.65525 7.90224 2.48801 7.95249 2.29282C8.00274 2.09763 7.97339 1.89047 7.8709 1.71691C7.4811 1.05727 6.88532 0.544005 6.17526 0.256104C5.4652 -0.031797 4.68021 -0.0783787 3.94108 0.123528C3.20196 0.325434 2.54966 0.764638 2.08458 1.37355C1.6195 1.98246 1.36741 2.72734 1.36711 3.49354V4.77316C0.976911 4.8739 0.631099 5.10112 0.383745 5.41927C0.136392 5.73742 0.00144305 6.12857 0 6.53156V10.1772C0 10.6606 0.192046 11.1243 0.533889 11.4661C0.875733 11.808 1.33937 12 1.82281 12H7.89885C8.38229 12 8.84593 11.808 9.18777 11.4661C9.52962 11.1243 9.72166 10.6606 9.72166 10.1772V6.53156C9.72166 6.04812 9.52962 5.58449 9.18777 5.24264C8.84593 4.9008 8.38229 4.70875 7.89885 4.70875ZM4.86083 9.56958C4.62049 9.56958 4.38554 9.49831 4.1857 9.36478C3.98586 9.23126 3.8301 9.04147 3.73813 8.81942C3.64615 8.59737 3.62208 8.35303 3.66897 8.1173C3.71586 7.88157 3.8316 7.66504 4.00155 7.49509C4.1715 7.32514 4.38803 7.20941 4.62376 7.16252C4.85948 7.11563 5.10382 7.13969 5.32587 7.23167C5.54792 7.32365 5.73771 7.4794 5.87124 7.67924C6.00477 7.87908 6.07604 8.11403 6.07604 8.35438C6.07604 8.67667 5.94801 8.98576 5.72011 9.21366C5.49222 9.44155 5.18313 9.56958 4.86083 9.56958Z" fill="currentColor"/>
</svg>
