<svg viewBox="0 0 12 12" fill="none" xmlns="http://www.w3.org/2000/svg">
    <path d="M8.75008 9.24999C8.61747 9.24999 8.4903 9.30267 8.39653 9.39644C8.30276 9.49021 8.25008 9.61738 8.25008 9.74999V10C8.25008 10.0663 8.22374 10.1299 8.17686 10.1768C8.12997 10.2237 8.06638 10.25 8.00008 10.25H5.25005C5.18375 10.25 5.12016 10.2237 5.07327 10.1768C5.02639 10.1299 5.00005 10.0663 5.00005 10V1.99992C5.00005 1.93362 5.02639 1.87003 5.07327 1.82314C5.12016 1.77626 5.18375 1.74992 5.25005 1.74992H8.00008C8.06638 1.74992 8.12997 1.77626 8.17686 1.82314C8.22374 1.87003 8.25008 1.93362 8.25008 1.99992V2.49993C8.25008 2.63253 8.30276 2.75971 8.39653 2.85348C8.4903 2.94725 8.61747 2.99993 8.75008 2.99993C8.88269 2.99993 9.00987 2.94725 9.10364 2.85348C9.19741 2.75971 9.25009 2.63253 9.25009 2.49993V1.24991C9.25009 1.1173 9.19741 0.990126 9.10364 0.896357C9.00987 0.802588 8.88269 0.749909 8.75008 0.749909H5.00005V0.249904C5.00003 0.212495 4.99162 0.175567 4.97544 0.14184C4.95925 0.108114 4.93571 0.0784497 4.90653 0.0550338C4.87736 0.031618 4.8433 0.0150478 4.80687 0.00654441C4.77044 -0.00195894 4.73257 -0.00217856 4.69604 0.00590172L0.196002 1.00591C0.14044 1.0182 0.0907332 1.04908 0.0550957 1.09345C0.0194583 1.13781 2.27085e-05 1.19301 3.22806e-07 1.24991V10.75C-9.12258e-05 10.807 0.0192923 10.8623 0.0549391 10.9068C0.0905858 10.9512 0.140356 10.9822 0.196002 10.9945L4.69604 11.9945C4.73265 12.0023 4.77051 12.0018 4.80691 11.9932C4.84331 11.9845 4.87734 11.9679 4.90655 11.9445C4.93574 11.9211 4.95929 11.8914 4.97547 11.8576C4.99166 11.8239 5.00005 11.7869 5.00005 11.7495V11.2495H8.75008C8.88269 11.2495 9.00987 11.1968 9.10364 11.1031C9.19741 11.0093 9.25009 10.8821 9.25009 10.7495V9.74949C9.24996 9.61697 9.19722 9.48992 9.10346 9.39626C9.00971 9.3026 8.88261 9.24999 8.75008 9.24999Z" fill="currentColor"/>
    <path d="M11.7688 5.83364L9.33123 4.20862C9.25594 4.15852 9.16846 4.12977 9.07812 4.12545C8.98778 4.12113 8.89796 4.14139 8.81823 4.18408C8.73849 4.22677 8.67183 4.29029 8.62534 4.36787C8.57885 4.44545 8.55427 4.53418 8.55423 4.62462V5.49963H6.49171C6.29279 5.49963 6.10203 5.57865 5.96137 5.71931C5.82072 5.85996 5.7417 6.05073 5.7417 6.24964C5.7417 6.44855 5.82072 6.63932 5.96137 6.77998C6.10203 6.92063 6.29279 6.99965 6.49171 6.99965H8.55423V7.87466C8.55427 7.9651 8.57885 8.05384 8.62534 8.13142C8.67183 8.209 8.73849 8.27251 8.81823 8.3152C8.89796 8.35789 8.98778 8.37815 9.07812 8.37383C9.16846 8.36951 9.25594 8.34077 9.33123 8.29066L11.7688 6.66564C11.8372 6.61998 11.8934 6.55812 11.9322 6.48555C11.9711 6.41298 11.9914 6.33195 11.9914 6.24964C11.9914 6.16733 11.9711 6.0863 11.9322 6.01373C11.8934 5.94116 11.8372 5.8793 11.7688 5.83364Z" fill="currentColor"/>
</svg>
