<svg viewBox="0 0 20 20" fill="none" xmlns="http://www.w3.org/2000/svg">
<path d="M18.9996 7.60006V4.12013C18.9997 3.88026 18.9278 3.64588 18.7933 3.44724C18.6589 3.24861 18.4679 3.09483 18.2452 3.00576L13.4453 1.0858C13.1593 0.9714 12.8402 0.9714 12.5542 1.0858L7.44547 3.12975C7.15942 3.24415 6.84033 3.24415 6.55429 3.12975L1.82319 1.237C1.73191 1.20041 1.63303 1.18682 1.53526 1.19743C1.43749 1.20804 1.34383 1.24252 1.26252 1.29784C1.1812 1.35315 1.11474 1.4276 1.06896 1.51464C1.02318 1.60168 0.999506 1.69864 1.00001 1.79698V13.2951C0.999968 13.535 1.07182 13.7694 1.20629 13.968C1.34076 14.1667 1.53167 14.3204 1.75439 14.4095L6.55429 16.3295C6.84033 16.4439 7.15942 16.4439 7.44547 16.3295L9.75022 15.4071" stroke="currentColor" stroke-width="1.3" stroke-linecap="round" stroke-linejoin="round"/>
<path d="M7 3.21582V16.4155" stroke="currentColor" stroke-width="1.3" stroke-linecap="round" stroke-linejoin="round"/>
<path d="M13 1V6.99987" stroke="currentColor" stroke-width="1.3" stroke-linecap="round" stroke-linejoin="round"/>
<path d="M15.4004 12.7598C15.48 12.7598 15.5563 12.7914 15.6125 12.8476C15.6688 12.9039 15.7004 12.9802 15.7004 13.0598" stroke="currentColor" stroke-width="1.3" stroke-linecap="round" stroke-linejoin="round"/>
<path d="M15.0996 13.0598C15.0996 12.9802 15.1312 12.9039 15.1875 12.8476C15.2437 12.7914 15.32 12.7598 15.3996 12.7598" stroke="currentColor" stroke-width="1.3" stroke-linecap="round" stroke-linejoin="round"/>
<path d="M15.3996 13.3605C15.32 13.3605 15.2437 13.3289 15.1875 13.2727C15.1312 13.2164 15.0996 13.1401 15.0996 13.0605" stroke="currentColor" stroke-width="1.3" stroke-linecap="round" stroke-linejoin="round"/>
<path d="M15.7004 13.0586C15.7004 13.1382 15.6688 13.2145 15.6125 13.2707C15.5563 13.327 15.48 13.3586 15.4004 13.3586" stroke="currentColor" stroke-width="1.3" stroke-linecap="round" stroke-linejoin="round"/>
<path d="M15.4007 9.45898C16.3555 9.45898 17.2711 9.83826 17.9462 10.5134C18.6213 11.1885 19.0006 12.1041 19.0006 13.0589C19.0006 14.5957 16.8503 17.5196 15.8735 18.7692C15.8174 18.841 15.7456 18.8991 15.6637 18.939C15.5818 18.979 15.4918 18.9998 15.4007 18.9998C15.3096 18.9998 15.2196 18.979 15.1377 18.939C15.0558 18.8991 14.984 18.841 14.9279 18.7692C13.9511 17.5204 11.8008 14.5957 11.8008 13.0589C11.8008 12.1041 12.1801 11.1885 12.8552 10.5134C13.5303 9.83826 14.4459 9.45898 15.4007 9.45898Z" stroke="currentColor" stroke-width="1.3" stroke-linecap="round" stroke-linejoin="round"/>
</svg>
