<svg width="24" height="24" viewBox="0 0 24 24" fill="none" xmlns="http://www.w3.org/2000/svg">
<path d="M23.44 19L13.71 2.93003C13.5317 2.63614 13.2807 2.39315 12.9812 2.22451C12.6817 2.05588 12.3437 1.96729 12 1.96729C11.6563 1.96729 11.3183 2.05588 11.0188 2.22451C10.7193 2.39315 10.4683 2.63614 10.29 2.93003L0.560011 19C0.385379 19.3025 0.292978 19.6453 0.292 19.9945C0.291022 20.3438 0.381502 20.6872 0.554438 20.9906C0.727373 21.294 0.976737 21.5468 1.27772 21.7239C1.5787 21.901 1.92081 21.9962 2.27001 22H21.73C22.0792 21.9962 22.4213 21.901 22.7223 21.7239C23.0233 21.5468 23.2726 21.294 23.4456 20.9906C23.6185 20.6872 23.709 20.3438 23.708 19.9945C23.707 19.6453 23.6146 19.3025 23.44 19Z" fill="currentColor"/>
</svg>
