<svg viewBox="0 0 11 12" fill="none" xmlns="http://www.w3.org/2000/svg">
    <path d="M1 1.73212V10.2679C0.999989 10.3944 1.03129 10.5189 1.09086 10.629C1.15043 10.7391 1.23622 10.8311 1.33987 10.8961C1.44352 10.9611 1.56148 10.9968 1.68223 10.9998C1.80299 11.0028 1.92242 10.9729 2.02886 10.9131L9.63146 6.64518C9.74284 6.58262 9.83593 6.48958 9.90083 6.37596C9.96573 6.26234 10 6.13241 10 6C10 5.86759 9.96573 5.73766 9.90083 5.62404C9.83593 5.51042 9.74284 5.41738 9.63146 5.35482L2.02886 1.08694C1.92242 1.02711 1.80299 0.99723 1.68223 1.0002C1.56148 1.00317 1.44352 1.0389 1.33987 1.1039C1.23622 1.16889 1.15043 1.26093 1.09086 1.37104C1.03129 1.48115 0.999989 1.60555 1 1.73212V1.73212Z" stroke="currentColor" stroke-width="0.8" stroke-linecap="round" stroke-linejoin="round"/>
</svg>
