<svg width="24" height="24" viewBox="0 0 24 24" fill="none" xmlns="http://www.w3.org/2000/svg">
<g clip-path="url(#clip0_4590_161849)">
<path d="M20.48 12.2501C20.2148 12.2501 19.9604 12.3554 19.7729 12.543C19.5854 12.7305 19.48 12.9849 19.48 13.2501C19.476 13.8283 19.2506 14.383 18.85 14.8001C18.8054 14.8422 18.75 14.871 18.69 14.8834C18.6299 14.8958 18.5676 14.8911 18.51 14.8701C18.4565 14.8454 18.4111 14.8059 18.3792 14.7563C18.3474 14.7067 18.3303 14.649 18.33 14.5901C18.3271 14.1867 18.2836 13.7847 18.2 13.3901C18.1758 13.2682 18.1071 13.1598 18.0072 13.0858C17.9074 13.0119 17.7836 12.9778 17.66 12.9901H17.5C17.2306 12.989 16.9642 12.9336 16.7167 12.8271C16.4693 12.7205 16.2459 12.5651 16.06 12.3701L11.72 7.86008C11.5605 7.69398 11.3486 7.58801 11.12 7.56008C10.2418 7.45683 9.35366 7.47365 8.48001 7.61008C8.39211 7.62961 8.30049 7.62403 8.21561 7.59397C8.13073 7.56391 8.05602 7.51058 8.00001 7.44008C7.58896 6.96277 7.05338 6.60904 6.45303 6.41834C5.85268 6.22764 5.21116 6.20747 4.60001 6.36008C4.45417 6.40755 4.3227 6.49111 4.2178 6.603C4.1129 6.71489 4.03799 6.85148 4.00001 7.00008C3.95729 7.15716 3.95799 7.3229 4.00201 7.47963C4.04603 7.63635 4.13174 7.77821 4.25001 7.89008C4.46096 8.08293 4.63394 8.31357 4.76001 8.57008C4.81009 8.67581 4.82151 8.79576 4.79228 8.90905C4.76304 9.02233 4.69501 9.12178 4.60001 9.19007C3.34718 10.0749 2.41965 11.3468 1.96001 12.8101C1.92169 12.9342 1.84478 13.0428 1.74046 13.1201C1.63615 13.1974 1.50987 13.2395 1.38001 13.2401C1.1995 13.2333 1.01948 13.2633 0.850956 13.3283C0.682428 13.3934 0.528917 13.4921 0.399786 13.6184C0.270655 13.7447 0.168612 13.896 0.0998795 14.0631C0.0311473 14.2301 -0.00283262 14.4095 1.23802e-05 14.5901V16.2401C7.38162e-06 16.4143 0.0344787 16.5867 0.101439 16.7475C0.1684 16.9083 0.266526 17.0543 0.39016 17.177C0.513795 17.2997 0.660493 17.3967 0.821799 17.4625C0.983105 17.5282 1.15583 17.5614 1.33001 17.5601H2.13001C2.21687 17.5625 2.30173 17.5867 2.37684 17.6303C2.45196 17.674 2.51493 17.7358 2.56001 17.8101C3.15043 18.7725 3.95026 19.5894 4.90001 20.2001C4.99274 20.2589 5.06354 20.3465 5.1015 20.4495C5.13945 20.5525 5.14244 20.6652 5.11001 20.7701L4.50001 22.7001C4.45337 22.8279 4.43331 22.9639 4.44104 23.0997C4.44877 23.2356 4.48415 23.3684 4.545 23.4901C4.60584 23.6118 4.69088 23.7198 4.79491 23.8075C4.89895 23.8952 5.01978 23.9607 5.15001 24.0001C5.24583 24.036 5.34772 24.053 5.45001 24.0501C5.67059 24.0602 5.88831 23.997 6.06921 23.8704C6.2501 23.7437 6.384 23.5608 6.45001 23.3501L6.97001 21.7401C7.00713 21.6176 7.09068 21.5145 7.2028 21.4529C7.31492 21.3912 7.44672 21.3758 7.57001 21.4101C9.18729 21.85 10.8927 21.85 12.51 21.4101C12.6332 21.3784 12.7639 21.3949 12.8754 21.4562C12.9868 21.5176 13.0708 21.6191 13.11 21.7401L13.62 23.3501C13.6836 23.5524 13.81 23.7293 13.9808 23.8551C14.1515 23.981 14.3579 24.0492 14.57 24.0501C14.6756 24.053 14.7807 24.0361 14.88 24.0001C15.1314 23.9197 15.3408 23.7431 15.4625 23.509C15.5843 23.2748 15.6085 23.002 15.53 22.7501L14.92 20.8201C14.8856 20.7178 14.8866 20.607 14.9229 20.5054C14.9591 20.4038 15.0286 20.3174 15.12 20.2601C16.0496 19.6547 16.8348 18.8525 17.42 17.9101C17.4781 17.7909 17.5592 17.6844 17.6588 17.5968C17.7584 17.5093 17.8744 17.4424 18 17.4001C18.9675 17.2166 19.841 16.7021 20.4705 15.9448C21.1 15.1876 21.4464 14.2348 21.45 13.2501C21.4501 12.99 21.3489 12.7401 21.1678 12.5534C20.9867 12.3667 20.74 12.2579 20.48 12.2501ZM5.00001 14.2601C4.82492 14.2427 4.65863 14.1749 4.52128 14.0649C4.38392 13.9549 4.2814 13.8075 4.22611 13.6405C4.17082 13.4734 4.16515 13.2939 4.20978 13.1237C4.25441 12.9535 4.34742 12.7999 4.47756 12.6815C4.60769 12.5631 4.76937 12.4849 4.94301 12.4565C5.11666 12.4281 5.29481 12.4506 5.45592 12.5213C5.61702 12.5921 5.75416 12.708 5.85073 12.8551C5.94729 13.0022 5.99915 13.1741 6.00001 13.3501C5.99911 13.4771 5.97192 13.6025 5.92016 13.7185C5.86839 13.8345 5.79317 13.9385 5.69923 14.024C5.60529 14.1095 5.49467 14.1746 5.37433 14.2152C5.25399 14.2559 5.12654 14.2711 5.00001 14.2601Z" fill="currentColor"/>
<path d="M23.63 1.99987C23.3852 1.49928 23.0257 1.06356 22.5806 0.728154C22.1356 0.392751 21.6177 0.167145 21.0691 0.0696909C20.5204 -0.0277631 19.9565 0.00568843 19.4232 0.167324C18.8899 0.328959 18.4023 0.614212 18 0.999873C17.9372 1.07034 17.8601 1.12672 17.774 1.16533C17.6878 1.20393 17.5944 1.22389 17.5 1.22389C17.4056 1.22389 17.3122 1.20393 17.2261 1.16533C17.1399 1.12672 17.0629 1.07034 17 0.999873C16.5978 0.614212 16.1102 0.328959 15.5769 0.167324C15.0436 0.00568843 14.4797 -0.0277631 13.931 0.0696909C13.3823 0.167145 12.8644 0.392751 12.4194 0.728154C11.9744 1.06356 11.6148 1.49928 11.37 1.99987C11.0505 2.65036 10.9395 3.38362 11.0523 4.09953C11.165 4.81544 11.496 5.4791 12 5.99987L17.12 11.3399C17.2156 11.4351 17.3451 11.4886 17.48 11.4886C17.615 11.4886 17.7444 11.4351 17.84 11.3399L23 5.99987C23.5028 5.47834 23.8329 4.81476 23.9456 4.09919C24.0583 3.38361 23.9481 2.65069 23.63 1.99987Z" fill="currentColor"/>
</g>
<defs>
<clipPath id="clip0_4590_161849">
<rect width="24" height="24" fill="white"/>
</clipPath>
</defs>
</svg>
