<svg width="24" height="24" viewBox="0 0 24 24" fill="none" xmlns="http://www.w3.org/2000/svg">
<path d="M9 8H15C15.2652 8 15.5196 7.89464 15.7071 7.70711C15.8946 7.51957 16 7.26522 16 7C16 6.73478 15.8946 6.48043 15.7071 6.29289C15.5196 6.10536 15.2652 6 15 6H9C8.73478 6 8.48043 6.10536 8.29289 6.29289C8.10536 6.48043 8 6.73478 8 7C8 7.26522 8.10536 7.51957 8.29289 7.70711C8.48043 7.89464 8.73478 8 9 8Z" fill="currentColor"/>
<path d="M9.46997 4.4999C9.48471 4.62186 9.54383 4.73412 9.63605 4.81527C9.72827 4.89642 9.84713 4.94079 9.96997 4.9399H14C14.1222 4.93866 14.2399 4.89355 14.3317 4.81279C14.4235 4.73203 14.4832 4.62099 14.5 4.4999C14.7193 3.43676 15.1256 2.42099 15.7 1.4999C15.753 1.41052 15.7748 1.3061 15.7622 1.20297C15.7495 1.09984 15.703 1.00381 15.63 0.9299C15.5697 0.850455 15.487 0.790864 15.3925 0.758787C15.2981 0.726711 15.1962 0.723616 15.1 0.7499L13.24 1.5499C13.2088 1.56496 13.1746 1.57278 13.14 1.57278C13.1053 1.57278 13.0712 1.56496 13.04 1.5499C12.9779 1.52681 12.9276 1.48006 12.9 1.4199L12.46 0.3099C12.4215 0.219705 12.3575 0.142796 12.2757 0.0887385C12.1939 0.0346806 12.098 0.00585938 12 0.00585938C11.9019 0.00585937 11.8061 0.0346806 11.7243 0.0887385C11.6425 0.142796 11.5784 0.219705 11.54 0.3099L11.1 1.4199C11.0724 1.48006 11.022 1.52681 10.96 1.5499C10.9288 1.56496 10.8946 1.57278 10.86 1.57278C10.8253 1.57278 10.7912 1.56496 10.76 1.5499L8.89997 0.7499C8.80459 0.711321 8.69964 0.703104 8.59942 0.726369C8.4992 0.749634 8.4086 0.803249 8.33997 0.8799C8.26694 0.953809 8.22046 1.04984 8.20779 1.15297C8.19512 1.2561 8.21699 1.36052 8.26997 1.4499C8.84989 2.38625 9.25638 3.41942 9.46997 4.4999Z" fill="currentColor"/>
<path d="M15.44 9.12004C15.3368 9.0408 15.21 8.99854 15.08 9.00004H8.91997C8.78991 8.99854 8.66312 9.0408 8.55997 9.12004C6.00997 11.12 3.15997 14.52 3.15997 17.52C3.15997 21.75 5.51997 24 12 24C18.48 24 20.84 21.75 20.84 17.52C20.84 14.52 18 11.07 15.44 9.12004ZM13 15.75C13.1989 15.75 13.3897 15.8291 13.5303 15.9697C13.671 16.1104 13.75 16.3011 13.75 16.5C13.75 16.699 13.671 16.8897 13.5303 17.0304C13.3897 17.171 13.1989 17.25 13 17.25H11.21C11.172 17.2489 11.1342 17.2563 11.0996 17.2719C11.0649 17.2875 11.0343 17.3108 11.01 17.34C10.9959 17.3733 10.9887 17.409 10.9887 17.445C10.9887 17.4811 10.9959 17.5168 11.01 17.55C11.33 19.01 12.39 19.75 14.16 19.75C14.3589 19.75 14.5497 19.8291 14.6903 19.9697C14.831 20.1104 14.91 20.3011 14.91 20.5C14.91 20.699 14.831 20.8897 14.6903 21.0304C14.5497 21.171 14.3589 21.25 14.16 21.25C11.52 21.25 9.84997 19.85 9.48997 17.46C9.48263 17.4017 9.45413 17.3481 9.4099 17.3094C9.36566 17.2707 9.30875 17.2496 9.24997 17.25H8.38997C8.19106 17.25 8.0003 17.171 7.85964 17.0304C7.71899 16.8897 7.63997 16.699 7.63997 16.5C7.63997 16.3011 7.71899 16.1104 7.85964 15.9697C8.0003 15.8291 8.19106 15.75 8.38997 15.75H9.19997C9.25875 15.7505 9.31566 15.7294 9.3599 15.6907C9.40413 15.652 9.43263 15.5984 9.43997 15.54C9.79997 13.15 11.44 11.75 14.11 11.75C14.3089 11.75 14.4997 11.8291 14.6403 11.9697C14.781 12.1104 14.86 12.3011 14.86 12.5C14.86 12.699 14.781 12.8897 14.6403 13.0304C14.4997 13.171 14.3089 13.25 14.11 13.25C12.34 13.25 11.28 13.99 10.96 15.45C10.9459 15.4833 10.9387 15.519 10.9387 15.555C10.9387 15.5911 10.9459 15.6268 10.96 15.66C10.9843 15.6893 11.0149 15.7125 11.0496 15.7281C11.0842 15.7437 11.122 15.7512 11.16 15.75H13Z" fill="currentColor"/>
</svg>
