<svg viewBox="0 0 24 24" fill="none" xmlns="http://www.w3.org/2000/svg">
<path d="M6.69326 16.0091C6.69326 17.1558 5.76393 18.7251 4.61726 18.7251C3.47059 18.7251 2.54126 17.1558 2.54126 16.0091C2.54126 15.4585 2.75998 14.9305 3.14931 14.5412C3.53863 14.1518 4.06667 13.9331 4.61726 13.9331C5.16785 13.9331 5.69589 14.1518 6.08521 14.5412C6.47454 14.9305 6.69326 15.4585 6.69326 16.0091Z" fill="currentColor"/>
<path d="M6.23583 16.0087C6.23583 16.0847 6.25183 16.2233 6.21716 16.294C6.25716 16.2153 6.22783 16.2367 6.21716 16.286L6.2025 16.366C6.17072 16.5228 6.12886 16.6773 6.07716 16.8287C6.0585 16.8847 6.0345 16.9393 6.0145 16.994C6.0545 16.8913 5.98783 17.046 5.9745 17.0793C5.87563 17.2805 5.75965 17.4727 5.62783 17.654C5.69316 17.5633 5.5985 17.6887 5.57983 17.7087L5.4785 17.8247C5.4025 17.9047 5.3185 17.978 5.23316 18.0487C5.3265 17.9727 5.2065 18.0647 5.17983 18.0807C5.14116 18.1073 5.09983 18.13 5.0585 18.1527C5.03716 18.1633 4.91183 18.2327 4.97183 18.198C5.03716 18.1607 4.95316 18.206 4.94116 18.2087C4.91267 18.2192 4.88376 18.2285 4.8545 18.2367L4.73716 18.266C4.63983 18.2887 4.81716 18.266 4.75316 18.266C4.7265 18.266 4.7025 18.2713 4.67716 18.2713C4.63098 18.274 4.58468 18.274 4.5385 18.2713C4.5305 18.2713 4.46516 18.2607 4.4625 18.2633C4.4705 18.25 4.57716 18.2833 4.46516 18.2607C4.42543 18.2524 4.38624 18.2418 4.34783 18.2287C4.32383 18.2207 4.30116 18.2127 4.2745 18.206C4.20116 18.182 4.24783 18.2207 4.28516 18.2113C4.26116 18.2153 4.19583 18.166 4.17316 18.1553C4.12191 18.1276 4.07207 18.0974 4.02383 18.0647L3.9585 18.018C4.0425 18.0713 3.99583 18.046 3.9745 18.0273C3.93316 17.9913 3.8905 17.958 3.84916 17.918C3.7492 17.8243 3.65649 17.7231 3.57183 17.6153C3.5825 17.626 3.62916 17.6913 3.57983 17.626L3.48916 17.4953C3.4237 17.3962 3.36318 17.2938 3.30783 17.1887C3.28516 17.142 3.2585 17.0953 3.2385 17.046L3.20916 16.9807C3.15983 16.8767 3.23316 17.0433 3.2065 16.9753C3.11355 16.7481 3.0469 16.511 3.00783 16.2687C2.99983 16.2207 2.98116 16.234 3.0105 16.2913C2.98916 16.2513 2.99983 16.174 2.99716 16.1313C2.99111 16.0296 2.9929 15.9275 3.0025 15.826C3.0025 15.8207 3.0185 15.706 3.00783 15.7793C3.01901 15.7073 3.0346 15.6361 3.0545 15.566C3.0705 15.51 3.09183 15.4553 3.1105 15.4007C3.11716 15.3793 3.14383 15.3207 3.1025 15.414C3.11316 15.3927 3.11983 15.3713 3.1305 15.3513C3.18007 15.2486 3.23712 15.1497 3.30116 15.0553L3.33983 15.002C3.27983 15.0847 3.32383 15.022 3.3425 15.002C3.40989 14.9188 3.48488 14.842 3.5665 14.7727L3.61983 14.7273C3.70516 14.654 3.53983 14.7793 3.6345 14.7167C3.72116 14.6593 3.80516 14.6047 3.89583 14.5567L3.9585 14.526C3.96383 14.5233 4.06783 14.482 3.9985 14.5073C3.92783 14.534 4.0345 14.494 4.0385 14.4913C4.07316 14.482 4.10516 14.4687 4.1385 14.4607C4.18848 14.4449 4.23921 14.4315 4.2905 14.4207C4.32116 14.414 4.48116 14.3927 4.36116 14.406C4.48116 14.3927 4.60116 14.3873 4.72116 14.3927C4.76116 14.3953 4.9305 14.422 4.81316 14.398C4.87583 14.4113 4.94116 14.422 5.00383 14.438C5.0665 14.4527 5.1265 14.4713 5.1865 14.4913C5.2065 14.4993 5.22783 14.51 5.25183 14.5153C5.14516 14.482 5.2465 14.5127 5.26916 14.5233C5.37983 14.5767 5.4785 14.638 5.57716 14.7033C5.60116 14.7193 5.66116 14.7687 5.57983 14.7033C5.65163 14.7588 5.71895 14.8199 5.78116 14.886C5.8265 14.93 5.8625 14.9833 5.90383 15.0273C5.95183 15.0767 5.84383 14.938 5.90383 15.03C5.9225 15.058 5.94383 15.0847 5.96116 15.114C6.02383 15.21 6.07716 15.3087 6.12383 15.414C6.08116 15.3167 6.11316 15.39 6.12116 15.4167L6.1545 15.5153C6.17316 15.5753 6.18916 15.638 6.2025 15.702C6.20783 15.7247 6.20916 15.7473 6.21583 15.7713C6.2385 15.8753 6.20916 15.6927 6.21716 15.79C6.2305 15.866 6.23583 15.9367 6.23583 16.0087C6.2385 16.2487 6.44516 16.4767 6.69316 16.466C6.9385 16.4553 7.15316 16.266 7.1505 16.0087C7.13983 14.8673 6.35316 13.826 5.23316 13.5513C4.1185 13.2807 2.89983 13.802 2.37316 14.8313C1.8585 15.8313 2.09716 17.0313 2.6945 17.942C2.9825 18.3807 3.36516 18.7927 3.8545 19.0073C4.37583 19.2393 4.92116 19.226 5.43983 18.9807C5.96916 18.73 6.3905 18.234 6.66916 17.7273C6.95983 17.2047 7.14916 16.6073 7.15316 16.0073C7.1545 15.7673 6.93983 15.5393 6.69583 15.55C6.4425 15.5633 6.23583 15.7527 6.23583 16.0087ZM8.7865 21.8593V23.5193H0.458496V21.8593C0.458496 20.6807 1.4105 19.7327 2.58916 19.7327H3.08783L4.6265 21.5727L6.1505 19.7327H6.6505C7.2156 19.732 7.7579 19.9555 8.15836 20.3542C8.55882 20.7529 8.78473 21.2942 8.7865 21.8593Z" fill="currentColor"/>
<path d="M8.32267 21.8598V23.5198L8.78 23.0638H0.457333L0.913333 23.5198V21.8598C0.913333 21.8224 0.913333 21.7838 0.916 21.7478C0.918667 21.7158 0.918667 21.6864 0.924 21.6558C0.934667 21.5331 0.908 21.7104 0.929333 21.6158C0.953333 21.5011 0.978667 21.3864 1.016 21.2771C1.02667 21.2504 1.03867 21.2224 1.04667 21.1971C1.06533 21.1304 1 21.2931 1.04933 21.1931C1.08133 21.1304 1.10933 21.0704 1.14667 21.0104C1.17536 20.9615 1.20559 20.9135 1.23733 20.8664L1.27733 20.8131C1.20933 20.9064 1.27733 20.8144 1.29067 20.7998C1.37211 20.7046 1.4613 20.6163 1.55733 20.5358C1.57467 20.5198 1.624 20.4878 1.544 20.5438C1.61787 20.4893 1.69441 20.4386 1.77333 20.3918C1.82267 20.3624 1.87467 20.3384 1.92667 20.3131C2 20.2771 1.92667 20.3131 1.91333 20.3184C1.95867 20.3024 2 20.2851 2.044 20.2718C2.13303 20.2423 2.22389 20.2187 2.316 20.2011C2.36533 20.1904 2.416 20.1878 2.33733 20.1958C2.43333 20.1851 2.53333 20.1798 2.63067 20.1798H3.08933L2.76533 20.0464L4.112 21.6558C4.17867 21.7318 4.24133 21.8104 4.30667 21.8851C4.45467 22.0638 4.80533 22.0638 4.95067 21.8851L6.28533 20.2771L6.476 20.0464C6.36933 20.0918 6.26267 20.1358 6.152 20.1798C6.33067 20.1798 6.51067 20.1771 6.688 20.1798C6.73733 20.1798 6.784 20.1824 6.83467 20.1878C6.85467 20.1904 6.972 20.2118 6.85467 20.1878C6.948 20.2064 7.04133 20.2224 7.132 20.2478L7.23067 20.2798C7.25467 20.2878 7.396 20.3464 7.284 20.2971C7.36133 20.3344 7.43733 20.3704 7.51333 20.4158C7.54667 20.4358 7.58 20.4558 7.61467 20.4811C7.636 20.4944 7.75333 20.5878 7.66 20.5091C7.72267 20.5584 7.78267 20.6118 7.83733 20.6691L7.93067 20.7678C7.94667 20.7864 8.03733 20.9064 7.968 20.8078C8.01467 20.8718 8.05867 20.9371 8.10133 21.0051C8.14133 21.0758 8.176 21.1464 8.21067 21.2184C8.15733 21.1078 8.22133 21.2478 8.22933 21.2718C8.244 21.3158 8.25733 21.3611 8.26933 21.4051C8.292 21.4851 8.30667 21.5651 8.32267 21.6478C8.30133 21.5224 8.32533 21.6798 8.32533 21.7051C8.32267 21.7624 8.32267 21.8104 8.32267 21.8598C8.32533 22.0998 8.532 22.3264 8.78 22.3171C8.90054 22.3147 9.01549 22.2658 9.10074 22.1805C9.186 22.0953 9.23495 21.9803 9.23733 21.8598C9.2358 21.5084 9.16345 21.161 9.02462 20.8382C8.8858 20.5154 8.68334 20.2239 8.42933 19.9811C7.93976 19.5227 7.29336 19.2689 6.62267 19.2718C6.42267 19.2718 6.16267 19.2318 5.97467 19.3118C5.84667 19.3651 5.78133 19.4624 5.69467 19.5651L4.91733 20.5038C4.71333 20.7518 4.50667 20.9971 4.304 21.2451H4.948C4.67467 20.9198 4.40267 20.5918 4.128 20.2664C3.95067 20.0544 3.77333 19.8398 3.59467 19.6291C3.444 19.4491 3.34 19.2824 3.07067 19.2718C2.76653 19.2564 2.46162 19.2698 2.16 19.3118C1.69238 19.3896 1.25513 19.5943 0.896 19.9038C0.282667 20.4184 0 21.1851 0 21.9691V23.5198C0 23.7691 0.208 23.9771 0.457333 23.9771H8.78C8.90086 23.9757 9.01638 23.9271 9.10185 23.8416C9.18732 23.7562 9.23595 23.6406 9.23733 23.5198V21.8598C9.23733 21.6198 9.028 21.3931 8.78 21.4024C8.65924 21.4042 8.54392 21.4529 8.45852 21.5383C8.37313 21.6237 8.32439 21.739 8.32267 21.8598ZM21.2213 16.0091C21.2213 17.1558 20.292 18.7251 19.1453 18.7251C17.9987 18.7251 17.0693 17.1558 17.0693 16.0091C17.0693 15.4585 17.2881 14.9305 17.6774 14.5412C18.0667 14.1518 18.5947 13.9331 19.1453 13.9331C19.6959 13.9331 20.224 14.1518 20.6133 14.5412C21.0026 14.9305 21.2213 15.4585 21.2213 16.0091Z" fill="currentColor"/>
<path d="M20.764 16.0087C20.764 16.0847 20.78 16.2233 20.7453 16.294C20.7853 16.2153 20.756 16.2367 20.7453 16.286L20.7306 16.366C20.6992 16.5228 20.6574 16.6774 20.6053 16.8287C20.5866 16.8847 20.5626 16.9393 20.5426 16.994C20.5826 16.8913 20.516 17.046 20.5026 17.0793C20.4038 17.2805 20.2878 17.4727 20.156 17.654C20.2213 17.5633 20.1266 17.6887 20.108 17.7087L20.0066 17.8247C19.9306 17.9047 19.8466 17.978 19.7613 18.0487C19.8546 17.9727 19.7346 18.0647 19.708 18.0807C19.6693 18.1073 19.628 18.13 19.5866 18.1527C19.5653 18.1633 19.44 18.2327 19.5 18.198C19.5653 18.1607 19.4813 18.206 19.4693 18.2087C19.4408 18.2192 19.4119 18.2285 19.3826 18.2367L19.2653 18.266C19.168 18.2887 19.3453 18.266 19.2813 18.266C19.2546 18.266 19.2306 18.2713 19.2053 18.2713C19.1591 18.274 19.1128 18.274 19.0666 18.2713C19.0586 18.2713 18.9933 18.2607 18.9906 18.2633C18.9986 18.25 19.1053 18.2833 18.9933 18.2607C18.9536 18.2524 18.9144 18.2418 18.876 18.2287C18.852 18.2207 18.8293 18.2127 18.8026 18.206C18.7293 18.182 18.776 18.2207 18.8133 18.2113C18.7893 18.2153 18.724 18.166 18.7013 18.1553C18.65 18.1276 18.6002 18.0974 18.552 18.0647L18.4866 18.018C18.5706 18.0713 18.524 18.046 18.5026 18.0273C18.46 17.9913 18.4186 17.958 18.3773 17.918C18.2773 17.8243 18.1846 17.7231 18.1 17.6153C18.1106 17.626 18.1573 17.6913 18.108 17.626L18.0173 17.4953C17.9518 17.3962 17.8913 17.2938 17.836 17.1887C17.8133 17.142 17.7866 17.0953 17.7653 17.046C17.756 17.0247 17.748 17.002 17.7373 16.9807C17.688 16.8767 17.7613 17.0433 17.7346 16.9753C17.6417 16.7481 17.575 16.511 17.536 16.2687C17.528 16.2207 17.5093 16.234 17.5386 16.2913C17.5173 16.2513 17.528 16.174 17.5253 16.1313C17.5192 16.0296 17.521 15.9275 17.5306 15.826C17.5306 15.8207 17.5466 15.706 17.536 15.7793C17.5471 15.7073 17.5627 15.6361 17.5826 15.566C17.5986 15.51 17.62 15.4553 17.6386 15.4007C17.6453 15.3793 17.672 15.3207 17.6306 15.414C17.64 15.3927 17.648 15.3713 17.6586 15.3513C17.7082 15.2486 17.7652 15.1497 17.8293 15.0553L17.868 15.002C17.808 15.0847 17.852 15.022 17.8706 15.002C17.938 14.9188 18.013 14.842 18.0946 14.7727L18.148 14.7273C18.2333 14.654 18.068 14.7793 18.1626 14.7167C18.2493 14.6593 18.3333 14.6047 18.424 14.5567L18.4866 14.526C18.492 14.5233 18.596 14.482 18.5266 14.5073C18.456 14.534 18.5626 14.494 18.5666 14.4913C18.6013 14.482 18.6333 14.4687 18.6666 14.4607C18.7166 14.4449 18.7673 14.4315 18.8186 14.4207C18.8493 14.414 19.0093 14.3927 18.8893 14.406C19.0093 14.3927 19.1293 14.3873 19.2493 14.3927C19.2893 14.3953 19.4586 14.422 19.3413 14.398C19.404 14.4113 19.4693 14.422 19.532 14.438C19.5946 14.4527 19.6546 14.4713 19.7146 14.4913C19.7346 14.4993 19.756 14.51 19.78 14.5153C19.6733 14.482 19.7746 14.5127 19.7973 14.5233C19.908 14.5767 20.0066 14.638 20.1053 14.7033C20.1293 14.7193 20.1893 14.7687 20.108 14.7033C20.1798 14.7588 20.2471 14.8199 20.3093 14.886C20.3546 14.93 20.3893 14.9833 20.432 15.0273C20.48 15.0767 20.372 14.938 20.432 15.03C20.4506 15.058 20.472 15.0847 20.4893 15.114C20.552 15.21 20.6053 15.3087 20.652 15.414C20.6093 15.3167 20.6413 15.39 20.6493 15.4167L20.6826 15.5153C20.7013 15.5753 20.7173 15.638 20.7306 15.702C20.7346 15.7247 20.7373 15.7473 20.744 15.7713C20.7666 15.8753 20.7373 15.6927 20.7453 15.79C20.7586 15.866 20.764 15.9367 20.764 16.0087C20.7666 16.2487 20.9733 16.4767 21.2213 16.466C21.4666 16.4553 21.6813 16.266 21.6786 16.0087C21.668 14.8673 20.8813 13.826 19.7613 13.5513C18.6466 13.2807 17.428 13.802 16.9013 14.8313C16.3866 15.8313 16.6253 17.0313 17.2226 17.942C17.5106 18.3807 17.8933 18.7927 18.3826 19.0073C18.904 19.2393 19.4493 19.226 19.968 18.9807C20.4973 18.73 20.9186 18.234 21.1973 17.7273C21.488 17.2047 21.6773 16.6073 21.6813 16.0073C21.6826 15.7673 21.468 15.5393 21.224 15.55C21.103 15.5527 20.9878 15.6019 20.9022 15.6873C20.8165 15.7727 20.767 15.8878 20.764 16.0087ZM23.3066 21.8593V23.5193H14.9773V21.8593C14.9791 21.2938 15.2053 20.752 15.6064 20.3533C16.0074 19.9545 16.5504 19.7312 17.116 19.7327H17.6146L19.1533 21.5727L20.6773 19.7327H21.176C22.3546 19.7327 23.3066 20.6807 23.3066 21.8593Z" fill="currentColor"/>
<path d="M22.8533 21.8598V23.5198L23.3106 23.0638H14.9866L15.444 23.5198V21.8598C15.444 21.8225 15.444 21.7838 15.4466 21.7478C15.4493 21.7158 15.4493 21.6865 15.4546 21.6558C15.4653 21.5331 15.4386 21.7105 15.46 21.6158C15.484 21.5011 15.5093 21.3865 15.5466 21.2771C15.556 21.2505 15.5693 21.2225 15.5773 21.1971C15.596 21.1305 15.5306 21.2931 15.58 21.1931C15.612 21.1305 15.64 21.0705 15.6773 21.0105C15.706 20.9615 15.7362 20.9135 15.768 20.8665L15.808 20.8131C15.74 20.9065 15.808 20.8145 15.8213 20.7998C15.9027 20.7046 15.9919 20.6163 16.088 20.5358C16.1053 20.5198 16.1546 20.4878 16.0746 20.5438C16.1485 20.4893 16.225 20.4386 16.304 20.3918C16.3533 20.3625 16.4053 20.3385 16.4573 20.3131C16.5306 20.2771 16.4573 20.3131 16.444 20.3185C16.4893 20.3025 16.5306 20.2851 16.5746 20.2718C16.6636 20.2419 16.7544 20.2183 16.8466 20.2011C16.896 20.1905 16.9453 20.1878 16.868 20.1958C16.964 20.1851 17.064 20.1798 17.1613 20.1798H17.62L17.296 20.0465L18.6426 21.6558C18.7093 21.7318 18.772 21.8105 18.8373 21.8851C18.9853 22.0638 19.336 22.0638 19.4813 21.8851L20.816 20.2771L21.0066 20.0465C20.9 20.0918 20.7933 20.1358 20.6826 20.1798C20.86 20.1798 21.0413 20.1771 21.2186 20.1798C21.268 20.1798 21.3146 20.1825 21.3653 20.1878C21.3853 20.1905 21.5026 20.2118 21.3853 20.1878C21.4786 20.2065 21.572 20.2225 21.6626 20.2478L21.7613 20.2798C21.7853 20.2878 21.9266 20.3465 21.8146 20.2971C21.892 20.3345 21.968 20.3705 22.044 20.4158C22.0773 20.4358 22.1106 20.4558 22.1453 20.4811C22.1666 20.4945 22.284 20.5878 22.1893 20.5091C22.252 20.5585 22.3133 20.6118 22.368 20.6691L22.4613 20.7678C22.4773 20.7865 22.568 20.9065 22.4986 20.8078C22.5453 20.8718 22.5893 20.9371 22.632 21.0051C22.672 21.0758 22.7066 21.1465 22.7413 21.2185C22.688 21.1078 22.752 21.2478 22.7586 21.2718C22.7746 21.3158 22.788 21.3611 22.8013 21.4051C22.8213 21.4851 22.8373 21.5651 22.8533 21.6478C22.832 21.5225 22.856 21.6798 22.856 21.7051C22.8506 21.7625 22.8533 21.8105 22.8533 21.8598C22.856 22.0998 23.0626 22.3265 23.3106 22.3171C23.556 22.3065 23.7693 22.1158 23.7666 21.8598C23.7653 21.5085 23.6931 21.1611 23.5545 20.8383C23.4159 20.5156 23.2137 20.224 22.96 19.9811C22.4704 19.5227 21.824 19.2689 21.1533 19.2718C20.952 19.2718 20.6933 19.2318 20.5053 19.3118C20.3773 19.3651 20.312 19.4625 20.2253 19.5651L19.448 20.5038C19.244 20.7518 19.0373 20.9971 18.8346 21.2451H19.4786C19.2053 20.9198 18.9333 20.5918 18.6586 20.2665C18.4813 20.0545 18.304 19.8398 18.1253 19.6291C17.9746 19.4491 17.8706 19.2825 17.6013 19.2718C17.2972 19.2564 16.9923 19.2698 16.6906 19.3118C16.223 19.3896 15.7858 19.5944 15.4266 19.9038C14.8133 20.4185 14.5306 21.1851 14.5306 21.9691V23.5198C14.5306 23.7691 14.7386 23.9771 14.9866 23.9771H23.3106C23.4313 23.9754 23.5465 23.9266 23.6316 23.8412C23.7168 23.7558 23.7653 23.6404 23.7666 23.5198V21.8598C23.7666 21.6198 23.5586 21.3931 23.3106 21.4025C23.1899 21.4042 23.0746 21.4529 22.9892 21.5383C22.9038 21.6237 22.855 21.739 22.8533 21.8598ZM13.9586 2.52913C13.9586 3.67579 13.0293 5.24512 11.8826 5.24512C10.736 5.24512 9.80664 3.67579 9.80664 2.52913C9.80664 1.97854 10.0254 1.4505 10.4147 1.06117C10.804 0.671846 11.3321 0.453125 11.8826 0.453125C12.4332 0.453125 12.9613 0.671846 13.3506 1.06117C13.7399 1.4505 13.9586 1.97854 13.9586 2.52913Z" fill="currentColor"/>
<path d="M13.5013 2.52867C13.5013 2.60467 13.5173 2.74201 13.4826 2.81267C13.5226 2.73534 13.4933 2.75534 13.4826 2.80467L13.468 2.88601C13.4573 2.94067 13.444 2.99534 13.4306 3.05134C13.404 3.15267 13.376 3.25134 13.3426 3.34867C13.324 3.40334 13.3 3.45801 13.28 3.51267C13.32 3.41134 13.2533 3.56601 13.24 3.59934C13.141 3.80002 13.025 3.99184 12.8933 4.17267C12.9586 4.08201 12.864 4.20734 12.8453 4.22867C12.812 4.26867 12.7786 4.30467 12.744 4.34334C12.668 4.42334 12.584 4.49801 12.4986 4.56867C12.592 4.49267 12.472 4.58334 12.4453 4.59934C12.4066 4.62601 12.3653 4.64867 12.324 4.67267C12.3026 4.68334 12.1773 4.75134 12.2373 4.71667C12.3026 4.68067 12.2186 4.72467 12.2066 4.72734C12.1781 4.73831 12.1492 4.74809 12.12 4.75667C12.08 4.76601 12.0413 4.77401 12.0026 4.78467C11.9053 4.80867 12.0826 4.78467 12.0186 4.78467C11.992 4.78467 11.968 4.79001 11.9426 4.79001C11.8964 4.79263 11.8501 4.79263 11.804 4.79001C11.796 4.79001 11.7306 4.77934 11.728 4.78201C11.736 4.76867 11.8426 4.80334 11.7306 4.77934C11.6909 4.77156 11.6517 4.76132 11.6133 4.74867L11.54 4.72467C11.4666 4.70067 11.5133 4.74067 11.5506 4.73001C11.5266 4.73534 11.4613 4.68601 11.4386 4.67534C11.3873 4.64719 11.3375 4.61649 11.2893 4.58334L11.224 4.53667C11.308 4.59134 11.26 4.56601 11.24 4.54734C11.1973 4.51001 11.156 4.47667 11.1146 4.43801C11.0146 4.34385 10.9219 4.24222 10.8373 4.13401C10.848 4.14467 10.8946 4.21001 10.8453 4.14467C10.8146 4.10334 10.7853 4.05934 10.7546 4.01401C10.6892 3.91527 10.6287 3.81337 10.5733 3.70867C10.5506 3.66201 10.524 3.61534 10.5026 3.56467C10.4933 3.54467 10.4853 3.52067 10.4746 3.49934C10.4253 3.39534 10.4986 3.56201 10.472 3.49534C10.432 3.39001 10.3933 3.28867 10.3626 3.18067C10.3247 3.05156 10.2948 2.92019 10.2733 2.78734C10.2653 2.73934 10.2466 2.75267 10.276 2.81001C10.2546 2.77134 10.2653 2.69267 10.2626 2.65001C10.2566 2.54869 10.2584 2.44706 10.268 2.34601C10.268 2.34067 10.284 2.22601 10.2733 2.29801C10.2845 2.22601 10.3001 2.15476 10.32 2.08467C10.336 2.03001 10.3573 1.97534 10.376 1.91934C10.3826 1.89934 10.4093 1.83934 10.368 1.93267L10.396 1.87001C10.4453 1.76867 10.5026 1.67001 10.5653 1.57534L10.6053 1.52067C10.5453 1.60334 10.5893 1.54067 10.608 1.52067C10.6753 1.43745 10.7503 1.36067 10.832 1.29134L10.8853 1.24601C10.9706 1.17267 10.8053 1.29934 10.9 1.23534C10.9866 1.17801 11.0706 1.12334 11.1613 1.07534L11.224 1.04467C11.2293 1.04201 11.3333 1.00067 11.264 1.02734C11.1933 1.05401 11.3 1.01401 11.304 1.01134C11.3386 1.00067 11.3706 0.987341 11.404 0.979341C11.4539 0.963546 11.5047 0.950197 11.556 0.939341C11.5866 0.932674 11.7466 0.912674 11.6266 0.926007C11.7466 0.912674 11.8666 0.906007 11.9866 0.912674C12.0266 0.914007 12.196 0.939341 12.0786 0.916674C12.1413 0.930007 12.2066 0.940674 12.2693 0.956674C12.332 0.971341 12.392 0.990007 12.452 1.01001C12.472 1.01934 12.4933 1.03001 12.5173 1.03401C12.4106 1.00067 12.512 1.03267 12.5346 1.04201C12.6453 1.09534 12.744 1.15801 12.8426 1.22201C12.8666 1.23801 12.9266 1.28867 12.8453 1.22201C12.9171 1.27794 12.9845 1.33947 13.0466 1.40601C13.092 1.45001 13.1266 1.50201 13.1693 1.54601C13.2173 1.59667 13.1093 1.45801 13.1693 1.54867C13.188 1.57801 13.2093 1.60334 13.2266 1.63267C13.2893 1.72867 13.3426 1.82867 13.3893 1.93267C13.3466 1.83667 13.3786 1.91001 13.3866 1.93534L13.42 2.03534C13.4386 2.09534 13.4546 2.15801 13.468 2.22067C13.472 2.24334 13.4746 2.26734 13.4813 2.29134C13.504 2.39534 13.4746 2.21134 13.4826 2.30867C13.4933 2.38201 13.4986 2.45534 13.5013 2.52867C13.504 2.76867 13.7106 2.99534 13.9586 2.98601C14.204 2.97534 14.4186 2.78467 14.416 2.52867C14.4053 1.38734 13.6186 0.344674 12.4986 0.0713408C11.384 -0.200659 10.1653 0.322007 9.63862 1.35134C9.12395 2.35134 9.36262 3.55001 9.95995 4.46067C10.248 4.90067 10.6306 5.31267 11.12 5.52734C11.6413 5.75934 12.1866 5.74601 12.7053 5.50067C13.2346 5.25001 13.656 4.75401 13.9346 4.24734C14.2253 3.72467 14.4146 3.12734 14.4186 2.52601C14.42 2.28601 14.2053 2.05934 13.9613 2.06867C13.708 2.08201 13.5013 2.27267 13.5013 2.52867ZM16.048 8.37801V10.0447H7.71729V8.37667C7.71729 7.19934 8.67462 6.25667 9.85329 6.25667H10.352L11.8906 8.09667L13.4133 6.25667H13.912C15.088 6.25667 16.0453 7.20067 16.0453 8.37801H16.048Z" fill="currentColor"/>
<path d="M15.5878 8.37827V10.0396L16.0451 9.58227H7.72247L8.17847 10.0396V8.37827C8.17847 8.34227 8.17847 8.30227 8.18114 8.26627C8.1838 8.23427 8.1838 8.20627 8.18914 8.17427C8.1998 8.05161 8.17314 8.23027 8.19447 8.13561C8.21847 8.02094 8.2438 7.90627 8.28114 7.79561C8.2918 7.76894 8.3038 7.74227 8.3118 7.71561C8.33047 7.64894 8.26514 7.81161 8.31447 7.71294C8.34647 7.65027 8.37447 7.59027 8.4118 7.53027C8.45236 7.4617 8.49596 7.39496 8.54247 7.33027C8.47447 7.42494 8.54247 7.33427 8.5558 7.31827C8.63793 7.2237 8.72708 7.13545 8.82247 7.05427C8.8398 7.03827 8.88914 7.00761 8.80914 7.06227C8.883 7.00782 8.95954 6.95709 9.03847 6.91027C9.0878 6.88227 9.1398 6.85827 9.1918 6.83294C9.26514 6.79561 9.1918 6.83294 9.17847 6.83827C9.2238 6.82227 9.26514 6.80361 9.30914 6.79027C9.39817 6.76083 9.48903 6.73723 9.58114 6.71961C9.63047 6.71027 9.68114 6.70627 9.60247 6.71561C9.69847 6.70494 9.79847 6.69961 9.8958 6.69961H10.3545C10.2478 6.65427 10.1411 6.61027 10.0305 6.56627L11.3771 8.17427C11.4438 8.25027 11.5065 8.32894 11.5718 8.40494C11.7198 8.58227 12.0705 8.58227 12.2158 8.40494L13.5505 6.79561L13.7411 6.56627L13.4171 6.69961C13.5958 6.69961 13.7758 6.69694 13.9531 6.69961C14.0025 6.69961 14.0491 6.70227 14.0998 6.70761C14.1198 6.71027 14.2371 6.73027 14.1198 6.70761C14.2131 6.72494 14.3065 6.74094 14.3971 6.76761L14.4958 6.79827C14.5198 6.80627 14.6611 6.86627 14.5491 6.81694C14.6648 6.86825 14.7759 6.92936 14.8811 6.99961C14.9011 7.01294 15.0185 7.10627 14.9238 7.02894C14.9865 7.07827 15.0478 7.13027 15.1025 7.18761L15.1958 7.28627C15.2118 7.30494 15.3025 7.42494 15.2331 7.32627C15.2798 7.39161 15.3238 7.45694 15.3665 7.52494C15.4065 7.59561 15.4411 7.66494 15.4758 7.73827C15.4225 7.62627 15.4865 7.76761 15.4931 7.79161C15.5091 7.83561 15.5225 7.87961 15.5358 7.92494C15.5558 8.00494 15.5718 8.08361 15.5878 8.16761C15.5665 8.04227 15.5905 8.19827 15.5905 8.22494C15.5851 8.27827 15.5878 8.32894 15.5878 8.37827C15.5905 8.61827 15.7971 8.84494 16.0451 8.83561C16.1658 8.83355 16.2809 8.78471 16.3662 8.69938C16.4516 8.61406 16.5004 8.49892 16.5025 8.37827C16.5008 8.02713 16.4283 7.67993 16.2895 7.35739C16.1507 7.03485 15.9483 6.74357 15.6945 6.50094C15.2051 6.04202 14.5587 5.78775 13.8878 5.79027C13.6878 5.79027 13.4278 5.75027 13.2398 5.83027C13.1118 5.88361 13.0465 5.98094 12.9598 6.08361C12.7025 6.39694 12.4398 6.71027 12.1825 7.02361C11.9785 7.27161 11.7718 7.51694 11.5691 7.76494H12.2131L11.3931 6.78494L10.8598 6.14761C10.7091 5.96761 10.6051 5.80094 10.3358 5.79027C10.0317 5.7749 9.72675 5.78829 9.42514 5.83027C8.95752 5.90806 8.52026 6.11284 8.16114 6.42227C7.5478 6.93694 7.26514 7.70494 7.26514 8.48894V10.0396C7.26514 10.2876 7.47314 10.4969 7.72247 10.4969H16.0451C16.166 10.4956 16.2815 10.4469 16.367 10.3615C16.4525 10.276 16.5011 10.1605 16.5025 10.0396V8.37827C16.5025 8.13827 16.2931 7.91027 16.0451 7.91961C15.9244 7.92133 15.8091 7.97007 15.7237 8.05546C15.6383 8.14086 15.5895 8.25752 15.5878 8.37827ZM15.4891 16.8636L12.5865 15.3023C12.4611 15.2343 12.3358 15.1636 12.2105 15.0983C12.1039 15.0423 11.9848 15.0147 11.8645 15.0182C11.7442 15.0218 11.6269 15.0562 11.5238 15.1183C11.4588 15.1524 11.3944 15.1875 11.3305 15.2236L9.63714 16.1343C9.1838 16.3783 8.73314 16.6209 8.27714 16.8636C7.9838 17.0236 7.86514 17.4556 8.0478 17.7383C8.24114 18.0383 8.6078 18.1383 8.9238 17.9676C9.8838 17.4516 10.8451 16.9343 11.8065 16.4196C11.9398 16.3463 12.0758 16.2756 12.2078 16.2023H11.5638L14.4411 17.7516C14.5745 17.8249 14.7105 17.8956 14.8438 17.9676C15.1385 18.1276 15.5545 18.0516 15.7185 17.7383C15.8745 17.4409 15.8025 17.0316 15.4891 16.8636Z" fill="currentColor"/>
<path d="M11.2427 11.9037V15.6503C11.2427 15.9837 11.5373 16.3037 11.8827 16.289C12.0516 16.2863 12.2128 16.2179 12.3322 16.0985C12.4516 15.9791 12.5199 15.8179 12.5227 15.649V11.9037C12.5227 11.5703 12.2267 11.249 11.8827 11.2637C11.7138 11.2664 11.5526 11.3347 11.4332 11.4542C11.3137 11.5736 11.2454 11.7348 11.2427 11.9037Z" fill="currentColor"/>
</svg>
