<svg viewBox="0 0 32 32" fill="none" xmlns="http://www.w3.org/2000/svg">
    <path d="M10.6933 20.0091C10.6933 21.1558 9.76393 22.7251 8.61726 22.7251C7.47059 22.7251 6.54126 21.1558 6.54126 20.0091C6.54126 19.4585 6.75998 18.9305 7.14931 18.5412C7.53863 18.1518 8.06667 17.9331 8.61726 17.9331C9.16785 17.9331 9.69589 18.1518 10.0852 18.5412C10.4745 18.9305 10.6933 19.4585 10.6933 20.0091Z" fill="currentColor"/>
    <path d="M10.2358 20.0087C10.2358 20.0847 10.2518 20.2233 10.2172 20.294C10.2572 20.2153 10.2278 20.2367 10.2172 20.286L10.2025 20.366C10.1707 20.5228 10.1289 20.6773 10.0772 20.8287C10.0585 20.8847 10.0345 20.9393 10.0145 20.994C10.0545 20.8913 9.98783 21.046 9.9745 21.0793C9.87563 21.2805 9.75965 21.4727 9.62783 21.654C9.69316 21.5633 9.5985 21.6887 9.57983 21.7087L9.4785 21.8247C9.4025 21.9047 9.3185 21.978 9.23316 22.0487C9.3265 21.9727 9.2065 22.0647 9.17983 22.0807C9.14116 22.1073 9.09983 22.13 9.0585 22.1527C9.03716 22.1633 8.91183 22.2327 8.97183 22.198C9.03716 22.1607 8.95316 22.206 8.94116 22.2087C8.91267 22.2192 8.88376 22.2285 8.8545 22.2367L8.73716 22.266C8.63983 22.2887 8.81716 22.266 8.75316 22.266C8.7265 22.266 8.7025 22.2713 8.67716 22.2713C8.63098 22.274 8.58468 22.274 8.5385 22.2713C8.5305 22.2713 8.46516 22.2607 8.4625 22.2633C8.4705 22.25 8.57716 22.2833 8.46516 22.2607C8.42543 22.2524 8.38624 22.2418 8.34783 22.2287C8.32383 22.2207 8.30116 22.2127 8.2745 22.206C8.20116 22.182 8.24783 22.2207 8.28516 22.2113C8.26116 22.2153 8.19583 22.166 8.17316 22.1553C8.12191 22.1276 8.07207 22.0974 8.02383 22.0647L7.9585 22.018C8.0425 22.0713 7.99583 22.046 7.9745 22.0273C7.93316 21.9913 7.8905 21.958 7.84916 21.918C7.7492 21.8243 7.65649 21.7231 7.57183 21.6153C7.5825 21.626 7.62916 21.6913 7.57983 21.626L7.48916 21.4953C7.4237 21.3962 7.36318 21.2938 7.30783 21.1887C7.28516 21.142 7.2585 21.0953 7.2385 21.046L7.20916 20.9807C7.15983 20.8767 7.23316 21.0433 7.2065 20.9753C7.11355 20.7481 7.0469 20.511 7.00783 20.2687C6.99983 20.2207 6.98116 20.234 7.0105 20.2913C6.98916 20.2513 6.99983 20.174 6.99716 20.1313C6.99111 20.0296 6.9929 19.9275 7.0025 19.826C7.0025 19.8207 7.0185 19.706 7.00783 19.7793C7.01901 19.7073 7.0346 19.6361 7.0545 19.566C7.0705 19.51 7.09183 19.4553 7.1105 19.4007C7.11716 19.3793 7.14383 19.3207 7.1025 19.414C7.11316 19.3927 7.11983 19.3713 7.1305 19.3513C7.18007 19.2486 7.23712 19.1497 7.30116 19.0553L7.33983 19.002C7.27983 19.0847 7.32383 19.022 7.3425 19.002C7.40989 18.9188 7.48488 18.842 7.5665 18.7727L7.61983 18.7273C7.70516 18.654 7.53983 18.7793 7.6345 18.7167C7.72116 18.6593 7.80516 18.6047 7.89583 18.5567L7.9585 18.526C7.96383 18.5233 8.06783 18.482 7.9985 18.5073C7.92783 18.534 8.0345 18.494 8.0385 18.4913C8.07316 18.482 8.10516 18.4687 8.1385 18.4607C8.18848 18.4449 8.23921 18.4315 8.2905 18.4207C8.32116 18.414 8.48116 18.3927 8.36116 18.406C8.48116 18.3927 8.60116 18.3873 8.72116 18.3927C8.76116 18.3953 8.9305 18.422 8.81316 18.398C8.87583 18.4113 8.94116 18.422 9.00383 18.438C9.0665 18.4527 9.1265 18.4713 9.1865 18.4913C9.2065 18.4993 9.22783 18.51 9.25183 18.5153C9.14516 18.482 9.2465 18.5127 9.26916 18.5233C9.37983 18.5767 9.4785 18.638 9.57716 18.7033C9.60116 18.7193 9.66116 18.7687 9.57983 18.7033C9.65163 18.7588 9.71895 18.8199 9.78116 18.886C9.8265 18.93 9.8625 18.9833 9.90383 19.0273C9.95183 19.0767 9.84383 18.938 9.90383 19.03C9.9225 19.058 9.94383 19.0847 9.96116 19.114C10.0238 19.21 10.0772 19.3087 10.1238 19.414C10.0812 19.3167 10.1132 19.39 10.1212 19.4167L10.1545 19.5153C10.1732 19.5753 10.1892 19.638 10.2025 19.702C10.2078 19.7247 10.2092 19.7473 10.2158 19.7713C10.2385 19.8753 10.2092 19.6927 10.2172 19.79C10.2305 19.866 10.2358 19.9367 10.2358 20.0087C10.2385 20.2487 10.4452 20.4767 10.6932 20.466C10.9385 20.4553 11.1532 20.266 11.1505 20.0087C11.1398 18.8673 10.3532 17.826 9.23316 17.5513C8.1185 17.2807 6.89983 17.802 6.37316 18.8313C5.8585 19.8313 6.09716 21.0313 6.6945 21.942C6.9825 22.3807 7.36516 22.7927 7.8545 23.0073C8.37583 23.2393 8.92116 23.226 9.43983 22.9807C9.96916 22.73 10.3905 22.234 10.6692 21.7273C10.9598 21.2047 11.1492 20.6073 11.1532 20.0073C11.1545 19.7673 10.9398 19.5393 10.6958 19.55C10.4425 19.5633 10.2358 19.7527 10.2358 20.0087ZM12.7865 25.8593V27.5193H4.4585V25.8593C4.4585 24.6807 5.4105 23.7327 6.58916 23.7327H7.08783L8.6265 25.5727L10.1505 23.7327H10.6505C11.2156 23.732 11.7579 23.9555 12.1584 24.3542C12.5588 24.7529 12.7847 25.2942 12.7865 25.8593Z" fill="currentColor"/>
    <path d="M12.3227 25.8598V27.5198L12.78 27.0638H4.45733L4.91333 27.5198V25.8598C4.91333 25.8224 4.91333 25.7838 4.916 25.7478C4.91867 25.7158 4.91867 25.6864 4.924 25.6558C4.93467 25.5331 4.908 25.7104 4.92933 25.6158C4.95333 25.5011 4.97867 25.3864 5.016 25.2771C5.02667 25.2504 5.03867 25.2224 5.04667 25.1971C5.06533 25.1304 5 25.2931 5.04933 25.1931C5.08133 25.1304 5.10933 25.0704 5.14667 25.0104C5.17536 24.9615 5.20559 24.9135 5.23733 24.8664L5.27733 24.8131C5.20933 24.9064 5.27733 24.8144 5.29067 24.7998C5.37211 24.7046 5.4613 24.6163 5.55733 24.5358C5.57467 24.5198 5.624 24.4878 5.544 24.5438C5.61787 24.4893 5.69441 24.4386 5.77333 24.3918C5.82267 24.3624 5.87467 24.3384 5.92667 24.3131C6 24.2771 5.92667 24.3131 5.91333 24.3184C5.95867 24.3024 6 24.2851 6.044 24.2718C6.13303 24.2423 6.22389 24.2187 6.316 24.2011C6.36533 24.1904 6.416 24.1878 6.33733 24.1958C6.43333 24.1851 6.53333 24.1798 6.63067 24.1798H7.08933L6.76533 24.0464L8.112 25.6558C8.17867 25.7318 8.24133 25.8104 8.30667 25.8851C8.45467 26.0638 8.80533 26.0638 8.95067 25.8851L10.2853 24.2771L10.476 24.0464C10.3693 24.0918 10.2627 24.1358 10.152 24.1798C10.3307 24.1798 10.5107 24.1771 10.688 24.1798C10.7373 24.1798 10.784 24.1824 10.8347 24.1878C10.8547 24.1904 10.972 24.2118 10.8547 24.1878C10.948 24.2064 11.0413 24.2224 11.132 24.2478L11.2307 24.2798C11.2547 24.2878 11.396 24.3464 11.284 24.2971C11.3613 24.3344 11.4373 24.3704 11.5133 24.4158C11.5467 24.4358 11.58 24.4558 11.6147 24.4811C11.636 24.4944 11.7533 24.5878 11.66 24.5091C11.7227 24.5584 11.7827 24.6118 11.8373 24.6691L11.9307 24.7678C11.9467 24.7864 12.0373 24.9064 11.968 24.8078C12.0147 24.8718 12.0587 24.9371 12.1013 25.0051C12.1413 25.0758 12.176 25.1464 12.2107 25.2184C12.1573 25.1078 12.2213 25.2478 12.2293 25.2718C12.244 25.3158 12.2573 25.3611 12.2693 25.4051C12.292 25.4851 12.3067 25.5651 12.3227 25.6478C12.3013 25.5224 12.3253 25.6798 12.3253 25.7051C12.3227 25.7624 12.3227 25.8104 12.3227 25.8598C12.3253 26.0998 12.532 26.3264 12.78 26.3171C12.9005 26.3147 13.0155 26.2658 13.1007 26.1805C13.186 26.0953 13.2349 25.9803 13.2373 25.8598C13.2358 25.5084 13.1635 25.161 13.0246 24.8382C12.8858 24.5154 12.6833 24.2239 12.4293 23.9811C11.9398 23.5227 11.2934 23.2689 10.6227 23.2718C10.4227 23.2718 10.1627 23.2318 9.97467 23.3118C9.84667 23.3651 9.78133 23.4624 9.69467 23.5651L8.91733 24.5038C8.71333 24.7518 8.50667 24.9971 8.304 25.2451H8.948C8.67467 24.9198 8.40267 24.5918 8.128 24.2664C7.95067 24.0544 7.77333 23.8398 7.59467 23.6291C7.444 23.4491 7.34 23.2824 7.07067 23.2718C6.76653 23.2564 6.46162 23.2698 6.16 23.3118C5.69238 23.3896 5.25513 23.5943 4.896 23.9038C4.28267 24.4184 4 25.1851 4 25.9691V27.5198C4 27.7691 4.208 27.9771 4.45733 27.9771H12.78C12.9009 27.9757 13.0164 27.9271 13.1019 27.8416C13.1873 27.7562 13.2359 27.6406 13.2373 27.5198V25.8598C13.2373 25.6198 13.028 25.3931 12.78 25.4024C12.6592 25.4042 12.5439 25.4529 12.4585 25.5383C12.3731 25.6237 12.3244 25.739 12.3227 25.8598ZM25.2213 20.0091C25.2213 21.1558 24.292 22.7251 23.1453 22.7251C21.9987 22.7251 21.0693 21.1558 21.0693 20.0091C21.0693 19.4585 21.2881 18.9305 21.6774 18.5412C22.0667 18.1518 22.5947 17.9331 23.1453 17.9331C23.6959 17.9331 24.224 18.1518 24.6133 18.5412C25.0026 18.9305 25.2213 19.4585 25.2213 20.0091Z" fill="currentColor"/>
    <path d="M24.764 20.0087C24.764 20.0847 24.78 20.2233 24.7453 20.294C24.7853 20.2153 24.756 20.2367 24.7453 20.286L24.7306 20.366C24.6992 20.5228 24.6574 20.6774 24.6053 20.8287C24.5866 20.8847 24.5626 20.9393 24.5426 20.994C24.5826 20.8913 24.516 21.046 24.5026 21.0793C24.4038 21.2805 24.2878 21.4727 24.156 21.654C24.2213 21.5633 24.1266 21.6887 24.108 21.7087L24.0066 21.8247C23.9306 21.9047 23.8466 21.978 23.7613 22.0487C23.8546 21.9727 23.7346 22.0647 23.708 22.0807C23.6693 22.1073 23.628 22.13 23.5866 22.1527C23.5653 22.1633 23.44 22.2327 23.5 22.198C23.5653 22.1607 23.4813 22.206 23.4693 22.2087C23.4408 22.2192 23.4119 22.2285 23.3826 22.2367L23.2653 22.266C23.168 22.2887 23.3453 22.266 23.2813 22.266C23.2546 22.266 23.2306 22.2713 23.2053 22.2713C23.1591 22.274 23.1128 22.274 23.0666 22.2713C23.0586 22.2713 22.9933 22.2607 22.9906 22.2633C22.9986 22.25 23.1053 22.2833 22.9933 22.2607C22.9536 22.2524 22.9144 22.2418 22.876 22.2287C22.852 22.2207 22.8293 22.2127 22.8026 22.206C22.7293 22.182 22.776 22.2207 22.8133 22.2113C22.7893 22.2153 22.724 22.166 22.7013 22.1553C22.65 22.1276 22.6002 22.0974 22.552 22.0647L22.4866 22.018C22.5706 22.0713 22.524 22.046 22.5026 22.0273C22.46 21.9913 22.4186 21.958 22.3773 21.918C22.2773 21.8243 22.1846 21.7231 22.1 21.6153C22.1106 21.626 22.1573 21.6913 22.108 21.626L22.0173 21.4953C21.9518 21.3962 21.8913 21.2938 21.836 21.1887C21.8133 21.142 21.7866 21.0953 21.7653 21.046C21.756 21.0247 21.748 21.002 21.7373 20.9807C21.688 20.8767 21.7613 21.0433 21.7346 20.9753C21.6417 20.7481 21.575 20.511 21.536 20.2687C21.528 20.2207 21.5093 20.234 21.5386 20.2913C21.5173 20.2513 21.528 20.174 21.5253 20.1313C21.5192 20.0296 21.521 19.9275 21.5306 19.826C21.5306 19.8207 21.5466 19.706 21.536 19.7793C21.5471 19.7073 21.5627 19.6361 21.5826 19.566C21.5986 19.51 21.62 19.4553 21.6386 19.4007C21.6453 19.3793 21.672 19.3207 21.6306 19.414C21.64 19.3927 21.648 19.3713 21.6586 19.3513C21.7082 19.2486 21.7652 19.1497 21.8293 19.0553L21.868 19.002C21.808 19.0847 21.852 19.022 21.8706 19.002C21.938 18.9188 22.013 18.842 22.0946 18.7727L22.148 18.7273C22.2333 18.654 22.068 18.7793 22.1626 18.7167C22.2493 18.6593 22.3333 18.6047 22.424 18.5567L22.4866 18.526C22.492 18.5233 22.596 18.482 22.5266 18.5073C22.456 18.534 22.5626 18.494 22.5666 18.4913C22.6013 18.482 22.6333 18.4687 22.6666 18.4607C22.7166 18.4449 22.7673 18.4315 22.8186 18.4207C22.8493 18.414 23.0093 18.3927 22.8893 18.406C23.0093 18.3927 23.1293 18.3873 23.2493 18.3927C23.2893 18.3953 23.4586 18.422 23.3413 18.398C23.404 18.4113 23.4693 18.422 23.532 18.438C23.5946 18.4527 23.6546 18.4713 23.7146 18.4913C23.7346 18.4993 23.756 18.51 23.78 18.5153C23.6733 18.482 23.7746 18.5127 23.7973 18.5233C23.908 18.5767 24.0066 18.638 24.1053 18.7033C24.1293 18.7193 24.1893 18.7687 24.108 18.7033C24.1798 18.7588 24.2471 18.8199 24.3093 18.886C24.3546 18.93 24.3893 18.9833 24.432 19.0273C24.48 19.0767 24.372 18.938 24.432 19.03C24.4506 19.058 24.472 19.0847 24.4893 19.114C24.552 19.21 24.6053 19.3087 24.652 19.414C24.6093 19.3167 24.6413 19.39 24.6493 19.4167L24.6826 19.5153C24.7013 19.5753 24.7173 19.638 24.7306 19.702C24.7346 19.7247 24.7373 19.7473 24.744 19.7713C24.7666 19.8753 24.7373 19.6927 24.7453 19.79C24.7586 19.866 24.764 19.9367 24.764 20.0087C24.7666 20.2487 24.9733 20.4767 25.2213 20.466C25.4666 20.4553 25.6813 20.266 25.6786 20.0087C25.668 18.8673 24.8813 17.826 23.7613 17.5513C22.6466 17.2807 21.428 17.802 20.9013 18.8313C20.3866 19.8313 20.6253 21.0313 21.2226 21.942C21.5106 22.3807 21.8933 22.7927 22.3826 23.0073C22.904 23.2393 23.4493 23.226 23.968 22.9807C24.4973 22.73 24.9186 22.234 25.1973 21.7273C25.488 21.2047 25.6773 20.6073 25.6813 20.0073C25.6826 19.7673 25.468 19.5393 25.224 19.55C25.103 19.5527 24.9878 19.6019 24.9022 19.6873C24.8165 19.7727 24.767 19.8878 24.764 20.0087ZM27.3066 25.8593V27.5193H18.9773V25.8593C18.9791 25.2938 19.2053 24.752 19.6064 24.3533C20.0074 23.9545 20.5504 23.7312 21.116 23.7327H21.6146L23.1533 25.5727L24.6773 23.7327H25.176C26.3546 23.7327 27.3066 24.6807 27.3066 25.8593Z" fill="currentColor"/>
    <path d="M26.8533 25.8598V27.5198L27.3106 27.0638H18.9866L19.444 27.5198V25.8598C19.444 25.8225 19.444 25.7838 19.4466 25.7478C19.4493 25.7158 19.4493 25.6865 19.4546 25.6558C19.4653 25.5331 19.4386 25.7105 19.46 25.6158C19.484 25.5011 19.5093 25.3865 19.5466 25.2771C19.556 25.2505 19.5693 25.2225 19.5773 25.1971C19.596 25.1305 19.5306 25.2931 19.58 25.1931C19.612 25.1305 19.64 25.0705 19.6773 25.0105C19.706 24.9615 19.7362 24.9135 19.768 24.8665L19.808 24.8131C19.74 24.9065 19.808 24.8145 19.8213 24.7998C19.9027 24.7046 19.9919 24.6163 20.088 24.5358C20.1053 24.5198 20.1546 24.4878 20.0746 24.5438C20.1485 24.4893 20.225 24.4386 20.304 24.3918C20.3533 24.3625 20.4053 24.3385 20.4573 24.3131C20.5306 24.2771 20.4573 24.3131 20.444 24.3185C20.4893 24.3025 20.5306 24.2851 20.5746 24.2718C20.6636 24.2419 20.7544 24.2183 20.8466 24.2011C20.896 24.1905 20.9453 24.1878 20.868 24.1958C20.964 24.1851 21.064 24.1798 21.1613 24.1798H21.62L21.296 24.0465L22.6426 25.6558C22.7093 25.7318 22.772 25.8105 22.8373 25.8851C22.9853 26.0638 23.336 26.0638 23.4813 25.8851L24.816 24.2771L25.0066 24.0465C24.9 24.0918 24.7933 24.1358 24.6826 24.1798C24.86 24.1798 25.0413 24.1771 25.2186 24.1798C25.268 24.1798 25.3146 24.1825 25.3653 24.1878C25.3853 24.1905 25.5026 24.2118 25.3853 24.1878C25.4786 24.2065 25.572 24.2225 25.6626 24.2478L25.7613 24.2798C25.7853 24.2878 25.9266 24.3465 25.8146 24.2971C25.892 24.3345 25.968 24.3705 26.044 24.4158C26.0773 24.4358 26.1106 24.4558 26.1453 24.4811C26.1666 24.4945 26.284 24.5878 26.1893 24.5091C26.252 24.5585 26.3133 24.6118 26.368 24.6691L26.4613 24.7678C26.4773 24.7865 26.568 24.9065 26.4986 24.8078C26.5453 24.8718 26.5893 24.9371 26.632 25.0051C26.672 25.0758 26.7066 25.1465 26.7413 25.2185C26.688 25.1078 26.752 25.2478 26.7586 25.2718C26.7746 25.3158 26.788 25.3611 26.8013 25.4051C26.8213 25.4851 26.8373 25.5651 26.8533 25.6478C26.832 25.5225 26.856 25.6798 26.856 25.7051C26.8506 25.7625 26.8533 25.8105 26.8533 25.8598C26.856 26.0998 27.0626 26.3265 27.3106 26.3171C27.556 26.3065 27.7693 26.1158 27.7666 25.8598C27.7653 25.5085 27.6931 25.1611 27.5545 24.8383C27.4159 24.5156 27.2137 24.224 26.96 23.9811C26.4704 23.5227 25.824 23.2689 25.1533 23.2718C24.952 23.2718 24.6933 23.2318 24.5053 23.3118C24.3773 23.3651 24.312 23.4625 24.2253 23.5651L23.448 24.5038C23.244 24.7518 23.0373 24.9971 22.8346 25.2451H23.4786C23.2053 24.9198 22.9333 24.5918 22.6586 24.2665C22.4813 24.0545 22.304 23.8398 22.1253 23.6291C21.9746 23.4491 21.8706 23.2825 21.6013 23.2718C21.2972 23.2564 20.9923 23.2698 20.6906 23.3118C20.223 23.3896 19.7858 23.5944 19.4266 23.9038C18.8133 24.4185 18.5306 25.1851 18.5306 25.9691V27.5198C18.5306 27.7691 18.7386 27.9771 18.9866 27.9771H27.3106C27.4313 27.9754 27.5465 27.9266 27.6316 27.8412C27.7168 27.7558 27.7653 27.6404 27.7666 27.5198V25.8598C27.7666 25.6198 27.5586 25.3931 27.3106 25.4025C27.1899 25.4042 27.0746 25.4529 26.9892 25.5383C26.9038 25.6237 26.855 25.739 26.8533 25.8598ZM17.9586 6.52913C17.9586 7.67579 17.0293 9.24512 15.8826 9.24512C14.736 9.24512 13.8066 7.67579 13.8066 6.52913C13.8066 5.97854 14.0254 5.4505 14.4147 5.06117C14.804 4.67185 15.3321 4.45313 15.8826 4.45312C16.4332 4.45312 16.9613 4.67185 17.3506 5.06117C17.7399 5.4505 17.9586 5.97854 17.9586 6.52913Z" fill="currentColor"/>
    <path d="M17.5013 6.52867C17.5013 6.60467 17.5173 6.74201 17.4826 6.81267C17.5226 6.73534 17.4933 6.75534 17.4826 6.80467L17.468 6.88601C17.4573 6.94067 17.444 6.99534 17.4306 7.05134C17.404 7.15267 17.376 7.25134 17.3426 7.34867C17.324 7.40334 17.3 7.45801 17.28 7.51267C17.32 7.41134 17.2533 7.56601 17.24 7.59934C17.141 7.80002 17.025 7.99184 16.8933 8.17267C16.9586 8.08201 16.864 8.20734 16.8453 8.22867C16.812 8.26867 16.7786 8.30467 16.744 8.34334C16.668 8.42334 16.584 8.49801 16.4986 8.56867C16.592 8.49267 16.472 8.58334 16.4453 8.59934C16.4066 8.62601 16.3653 8.64867 16.324 8.67267C16.3026 8.68334 16.1773 8.75134 16.2373 8.71667C16.3026 8.68067 16.2186 8.72467 16.2066 8.72734C16.1781 8.73831 16.1492 8.74809 16.12 8.75667C16.08 8.76601 16.0413 8.77401 16.0026 8.78467C15.9053 8.80867 16.0826 8.78467 16.0186 8.78467C15.992 8.78467 15.968 8.79001 15.9426 8.79001C15.8964 8.79263 15.8501 8.79263 15.804 8.79001C15.796 8.79001 15.7306 8.77934 15.728 8.78201C15.736 8.76867 15.8426 8.80334 15.7306 8.77934C15.6909 8.77156 15.6517 8.76132 15.6133 8.74867L15.54 8.72467C15.4666 8.70067 15.5133 8.74067 15.5506 8.73001C15.5266 8.73534 15.4613 8.68601 15.4386 8.67534C15.3873 8.64719 15.3375 8.61649 15.2893 8.58334L15.224 8.53667C15.308 8.59134 15.26 8.56601 15.24 8.54734C15.1973 8.51001 15.156 8.47667 15.1146 8.43801C15.0146 8.34385 14.9219 8.24222 14.8373 8.13401C14.848 8.14467 14.8946 8.21001 14.8453 8.14467C14.8146 8.10334 14.7853 8.05934 14.7546 8.01401C14.6892 7.91527 14.6287 7.81337 14.5733 7.70867C14.5506 7.66201 14.524 7.61534 14.5026 7.56467C14.4933 7.54467 14.4853 7.52067 14.4746 7.49934C14.4253 7.39534 14.4986 7.56201 14.472 7.49534C14.432 7.39001 14.3933 7.28867 14.3626 7.18067C14.3247 7.05156 14.2948 6.92019 14.2733 6.78734C14.2653 6.73934 14.2466 6.75267 14.276 6.81001C14.2546 6.77134 14.2653 6.69267 14.2626 6.65001C14.2566 6.54869 14.2584 6.44706 14.268 6.34601C14.268 6.34067 14.284 6.22601 14.2733 6.29801C14.2845 6.22601 14.3001 6.15476 14.32 6.08467C14.336 6.03001 14.3573 5.97534 14.376 5.91934C14.3826 5.89934 14.4093 5.83934 14.368 5.93267L14.396 5.87001C14.4453 5.76867 14.5026 5.67001 14.5653 5.57534L14.6053 5.52067C14.5453 5.60334 14.5893 5.54067 14.608 5.52067C14.6753 5.43745 14.7503 5.36067 14.832 5.29134L14.8853 5.24601C14.9706 5.17267 14.8053 5.29934 14.9 5.23534C14.9866 5.17801 15.0706 5.12334 15.1613 5.07534L15.224 5.04467C15.2293 5.04201 15.3333 5.00067 15.264 5.02734C15.1933 5.05401 15.3 5.01401 15.304 5.01134C15.3386 5.00067 15.3706 4.98734 15.404 4.97934C15.4539 4.96355 15.5047 4.9502 15.556 4.93934C15.5866 4.93267 15.7466 4.91267 15.6266 4.92601C15.7466 4.91267 15.8666 4.90601 15.9866 4.91267C16.0266 4.91401 16.196 4.93934 16.0786 4.91667C16.1413 4.93001 16.2066 4.94067 16.2693 4.95667C16.332 4.97134 16.392 4.99001 16.452 5.01001C16.472 5.01934 16.4933 5.03001 16.5173 5.03401C16.4106 5.00067 16.512 5.03267 16.5346 5.04201C16.6453 5.09534 16.744 5.15801 16.8426 5.22201C16.8666 5.23801 16.9266 5.28867 16.8453 5.22201C16.9171 5.27794 16.9845 5.33947 17.0466 5.40601C17.092 5.45001 17.1266 5.50201 17.1693 5.54601C17.2173 5.59667 17.1093 5.45801 17.1693 5.54867C17.188 5.57801 17.2093 5.60334 17.2266 5.63267C17.2893 5.72867 17.3426 5.82867 17.3893 5.93267C17.3466 5.83667 17.3786 5.91001 17.3866 5.93534L17.42 6.03534C17.4386 6.09534 17.4546 6.15801 17.468 6.22067C17.472 6.24334 17.4746 6.26734 17.4813 6.29134C17.504 6.39534 17.4746 6.21134 17.4826 6.30867C17.4933 6.38201 17.4986 6.45534 17.5013 6.52867C17.504 6.76867 17.7106 6.99534 17.9586 6.98601C18.204 6.97534 18.4186 6.78467 18.416 6.52867C18.4053 5.38734 17.6186 4.34467 16.4986 4.07134C15.384 3.79934 14.1653 4.32201 13.6386 5.35134C13.124 6.35134 13.3626 7.55001 13.96 8.46067C14.248 8.90067 14.6306 9.31267 15.12 9.52734C15.6413 9.75934 16.1866 9.74601 16.7053 9.50067C17.2346 9.25001 17.656 8.75401 17.9346 8.24734C18.2253 7.72467 18.4146 7.12734 18.4186 6.52601C18.42 6.28601 18.2053 6.05934 17.9613 6.06867C17.708 6.08201 17.5013 6.27267 17.5013 6.52867ZM20.048 12.378V14.0447H11.7173V12.3767C11.7173 11.1993 12.6746 10.2567 13.8533 10.2567H14.352L15.8906 12.0967L17.4133 10.2567H17.912C19.088 10.2567 20.0453 11.2007 20.0453 12.378H20.048Z" fill="currentColor"/>
    <path d="M19.5878 12.3783V14.0396L20.0451 13.5823H11.7225L12.1785 14.0396V12.3783C12.1785 12.3423 12.1785 12.3023 12.1811 12.2663C12.1838 12.2343 12.1838 12.2063 12.1891 12.1743C12.1998 12.0516 12.1731 12.2303 12.1945 12.1356C12.2185 12.0209 12.2438 11.9063 12.2811 11.7956C12.2918 11.7689 12.3038 11.7423 12.3118 11.7156C12.3305 11.6489 12.2651 11.8116 12.3145 11.7129C12.3465 11.6503 12.3745 11.5903 12.4118 11.5303C12.4524 11.4617 12.496 11.395 12.5425 11.3303C12.4745 11.4249 12.5425 11.3343 12.5558 11.3183C12.6379 11.2237 12.7271 11.1355 12.8225 11.0543C12.8398 11.0383 12.8891 11.0076 12.8091 11.0623C12.883 11.0078 12.9595 10.9571 13.0385 10.9103C13.0878 10.8823 13.1398 10.8583 13.1918 10.8329C13.2651 10.7956 13.1918 10.8329 13.1785 10.8383C13.2238 10.8223 13.2651 10.8036 13.3091 10.7903C13.3982 10.7608 13.489 10.7372 13.5811 10.7196C13.6305 10.7103 13.6811 10.7063 13.6025 10.7156C13.6985 10.7049 13.7985 10.6996 13.8958 10.6996H14.3545C14.2478 10.6543 14.1411 10.6103 14.0305 10.5663L15.3771 12.1743C15.4438 12.2503 15.5065 12.3289 15.5718 12.4049C15.7198 12.5823 16.0705 12.5823 16.2158 12.4049L17.5505 10.7956L17.7411 10.5663L17.4171 10.6996C17.5958 10.6996 17.7758 10.6969 17.9531 10.6996C18.0025 10.6996 18.0491 10.7023 18.0998 10.7076C18.1198 10.7103 18.2371 10.7303 18.1198 10.7076C18.2131 10.7249 18.3065 10.7409 18.3971 10.7676L18.4958 10.7983C18.5198 10.8063 18.6611 10.8663 18.5491 10.8169C18.6648 10.8682 18.7759 10.9294 18.8811 10.9996C18.9011 11.0129 19.0185 11.1063 18.9238 11.0289C18.9865 11.0783 19.0478 11.1303 19.1025 11.1876L19.1958 11.2863C19.2118 11.3049 19.3025 11.4249 19.2331 11.3263C19.2798 11.3916 19.3238 11.4569 19.3665 11.5249C19.4065 11.5956 19.4411 11.6649 19.4758 11.7383C19.4225 11.6263 19.4865 11.7676 19.4931 11.7916C19.5091 11.8356 19.5225 11.8796 19.5358 11.9249C19.5558 12.0049 19.5718 12.0836 19.5878 12.1676C19.5665 12.0423 19.5905 12.1983 19.5905 12.2249C19.5851 12.2783 19.5878 12.3289 19.5878 12.3783C19.5905 12.6183 19.7971 12.8449 20.0451 12.8356C20.1658 12.8335 20.2809 12.7847 20.3662 12.6994C20.4516 12.6141 20.5004 12.4989 20.5025 12.3783C20.5008 12.0271 20.4283 11.6799 20.2895 11.3574C20.1507 11.0348 19.9483 10.7436 19.6945 10.5009C19.2051 10.042 18.5587 9.78775 17.8878 9.79027C17.6878 9.79027 17.4278 9.75027 17.2398 9.83027C17.1118 9.88361 17.0465 9.98094 16.9598 10.0836C16.7025 10.3969 16.4398 10.7103 16.1825 11.0236C15.9785 11.2716 15.7718 11.5169 15.5691 11.7649H16.2131L15.3931 10.7849L14.8598 10.1476C14.7091 9.96761 14.6051 9.80094 14.3358 9.79027C14.0317 9.7749 13.7268 9.78829 13.4251 9.83027C12.9575 9.90806 12.5203 10.1128 12.1611 10.4223C11.5478 10.9369 11.2651 11.7049 11.2651 12.4889V14.0396C11.2651 14.2876 11.4731 14.4969 11.7225 14.4969H20.0451C20.166 14.4956 20.2815 14.4469 20.367 14.3615C20.4525 14.276 20.5011 14.1605 20.5025 14.0396V12.3783C20.5025 12.1383 20.2931 11.9103 20.0451 11.9196C19.9244 11.9213 19.8091 11.9701 19.7237 12.0555C19.6383 12.1409 19.5895 12.2575 19.5878 12.3783ZM19.4891 20.8636L16.5865 19.3023C16.4611 19.2343 16.3358 19.1636 16.2105 19.0983C16.1039 19.0423 15.9848 19.0147 15.8645 19.0182C15.7442 19.0218 15.6269 19.0562 15.5238 19.1183C15.4588 19.1524 15.3944 19.1875 15.3305 19.2236L13.6371 20.1343C13.1838 20.3783 12.7331 20.6209 12.2771 20.8636C11.9838 21.0236 11.8651 21.4556 12.0478 21.7383C12.2411 22.0383 12.6078 22.1383 12.9238 21.9676C13.8838 21.4516 14.8451 20.9343 15.8065 20.4196C15.9398 20.3463 16.0758 20.2756 16.2078 20.2023H15.5638L18.4411 21.7516C18.5745 21.8249 18.7105 21.8956 18.8438 21.9676C19.1385 22.1276 19.5545 22.0516 19.7185 21.7383C19.8745 21.4409 19.8025 21.0316 19.4891 20.8636Z" fill="currentColor"/>
    <path d="M15.2427 15.9037V19.6503C15.2427 19.9837 15.5373 20.3037 15.8827 20.289C16.0516 20.2863 16.2128 20.2179 16.3322 20.0985C16.4516 19.9791 16.5199 19.8179 16.5227 19.649V15.9037C16.5227 15.5703 16.2267 15.249 15.8827 15.2637C15.7138 15.2664 15.5526 15.3347 15.4332 15.4542C15.3137 15.5736 15.2454 15.7348 15.2427 15.9037Z" fill="currentColor"/>
</svg>
