<svg viewBox="0 0 32 32" fill="none" xmlns="http://www.w3.org/2000/svg">
    <path d="M17.2313 16.7317H17.106V26.1824C17.106 26.4077 17.282 26.6077 17.5326 26.6077C17.7566 26.6077 17.9566 26.4077 17.9566 26.1811V16.5811L17.706 16.6571C17.5521 16.7043 17.3923 16.7294 17.2313 16.7317Z" fill="currentColor"/>
    <path d="M27.0314 15.6571C26.5567 14.4571 25.4074 12.6571 24.9061 11.8571L24.0821 10.2571C24.0567 10.1824 24.0074 10.1318 23.9567 10.0571C23.7892 9.85092 23.5803 9.68211 23.3435 9.56154C23.1068 9.44098 22.8474 9.37134 22.5821 9.35711C22.1811 9.34101 21.7847 9.44715 21.4453 9.66145C21.106 9.87575 20.8398 10.1881 20.6821 10.5571L19.2301 13.4824L16.9554 14.1318C16.7035 14.2049 16.4909 14.375 16.3644 14.6048C16.2379 14.8345 16.2078 15.1052 16.2807 15.3571C16.3417 15.563 16.4665 15.7442 16.6371 15.8746C16.8078 16.0049 17.0154 16.0777 17.2301 16.0824C17.3301 16.0824 17.4047 16.0571 17.5061 16.0318L20.2047 15.2571C20.3401 15.2183 20.4659 15.1514 20.5738 15.0609C20.6818 14.9704 20.7695 14.8583 20.8314 14.7318L21.4807 13.4318C22.5061 15.5064 22.2301 16.1064 21.1061 18.3571C21.0765 18.4119 21.0596 18.4726 21.0565 18.5347C21.0533 18.5969 21.0641 18.659 21.088 18.7164C21.1119 18.7739 21.1483 18.8253 21.1945 18.867C21.2408 18.9086 21.2957 18.9394 21.3554 18.9571C21.7301 19.0824 22.1061 19.1571 22.5061 19.2318L22.3554 19.5571C22.2807 19.7318 22.2554 19.9064 22.2807 20.0824L22.6047 25.4571C22.6241 25.7556 22.7565 26.0356 22.9749 26.24C23.1934 26.4443 23.4816 26.5577 23.7807 26.5571H23.8567C24.0111 26.5476 24.1621 26.5077 24.301 26.4397C24.4399 26.3717 24.564 26.277 24.6662 26.1609C24.7684 26.0448 24.8467 25.9097 24.8966 25.7633C24.9464 25.6169 24.9669 25.4621 24.9567 25.3078L24.6567 20.2078L25.0074 19.3811C25.8024 19.3559 26.5951 19.2811 27.3807 19.1571C27.6074 19.1318 27.7567 18.9064 27.7314 18.6824C27.6567 18.0571 27.4821 16.7571 27.0314 15.6571ZM19.6074 9.65711C20.7567 9.65711 21.6821 8.73178 21.6821 7.58244C21.6866 7.30585 21.6268 7.03199 21.5074 6.78244C21.6857 6.78031 21.856 6.70853 21.9821 6.58244C22.0474 6.51906 22.0993 6.4432 22.1348 6.35938C22.1702 6.27555 22.1885 6.18546 22.1885 6.09444C22.1885 6.00343 22.1702 5.91333 22.1348 5.82951C22.0993 5.74568 22.0474 5.66983 21.9821 5.60644L21.5821 5.20644C21.5187 5.14112 21.4428 5.0892 21.359 5.05373C21.2752 5.01827 21.1851 5 21.0941 5C21.0031 5 20.913 5.01827 20.8291 5.05373C20.7453 5.0892 20.6695 5.14112 20.6061 5.20644C20.4797 5.33281 20.4079 5.50371 20.4061 5.68244C20.1529 5.57397 19.8814 5.51426 19.6061 5.50644C18.4567 5.50644 17.5314 6.43178 17.5314 7.58244C17.5314 8.73178 18.4581 9.65711 19.6074 9.65711ZM12.9061 16.7824L12.6567 16.7064V26.2318C12.6567 26.4571 12.8567 26.6571 13.0821 26.6571C13.3074 26.6571 13.5074 26.4571 13.5074 26.2318V16.8318H13.3821C13.2314 16.8318 13.0567 16.8078 12.9061 16.7824Z" fill="currentColor"/>
    <path d="M13.6567 14.157L11.4061 13.5076L9.95672 10.5823C9.83336 10.3406 9.68211 10.1142 9.50606 9.90765C9.10606 9.50765 8.58206 9.30765 8.03139 9.35698C7.75962 9.37018 7.49389 9.44181 7.25229 9.56698C7.0107 9.69214 6.79892 9.86791 6.63139 10.0823C6.58206 10.157 6.53139 10.2076 6.50739 10.2823L4.13139 14.9063C4.04491 15.0858 4 15.2824 4 15.4816C4 15.6809 4.04491 15.8775 4.13139 16.057L6.35672 20.3076L5.58206 25.257C5.53369 25.5877 5.61629 25.9241 5.81227 26.1948C6.00825 26.4655 6.30215 26.649 6.63139 26.7063C6.70739 26.7063 6.75672 26.733 6.83139 26.733C7.43139 26.733 7.98206 26.2823 8.08206 25.657L8.93139 20.2823C8.9803 20.0169 8.93602 19.7428 8.80606 19.5063L7.43272 16.9063L9.13139 13.6063L9.75672 14.857C9.88206 15.1316 10.1314 15.3076 10.4061 15.4063L13.1074 16.1823C13.2074 16.2063 13.3074 16.2316 13.4061 16.2316C13.6313 16.2315 13.8505 16.1585 14.0307 16.0234C14.211 15.8883 14.3427 15.6985 14.4061 15.4823C14.4822 15.2072 14.4461 14.9131 14.3056 14.6646C14.1651 14.4161 13.9317 14.2335 13.6567 14.157Z" fill="currentColor"/>
    <path d="M11.0061 9.73185C12.1519 9.73185 13.0807 8.80299 13.0807 7.65719C13.0807 6.51138 12.1519 5.58252 11.0061 5.58252C9.86026 5.58252 8.9314 6.51138 8.9314 7.65719C8.9314 8.80299 9.86026 9.73185 11.0061 9.73185Z" fill="currentColor"/>
</svg>
