<svg viewBox="0 0 24 22" fill="none" xmlns="http://www.w3.org/2000/svg">
<path d="M13.2313 11.7317H13.106V21.1824C13.106 21.4077 13.282 21.6077 13.5326 21.6077C13.7566 21.6077 13.9566 21.4077 13.9566 21.1811V11.5811L13.706 11.6571C13.5521 11.7043 13.3923 11.7294 13.2313 11.7317Z" fill="currentColor"/>
<path d="M23.0314 10.6571C22.5567 9.45711 21.4074 7.65711 20.9061 6.85711L20.0821 5.25711C20.0567 5.18244 20.0074 5.13178 19.9567 5.05711C19.7892 4.85092 19.5803 4.68211 19.3435 4.56154C19.1068 4.44098 18.8474 4.37134 18.5821 4.35711C18.1811 4.34101 17.7847 4.44715 17.4453 4.66145C17.106 4.87575 16.8398 5.1881 16.6821 5.55711L15.2301 8.48244L12.9554 9.13178C12.7035 9.20485 12.4909 9.37498 12.3644 9.60476C12.2379 9.83454 12.2078 10.1052 12.2807 10.3571C12.3417 10.563 12.4665 10.7442 12.6371 10.8746C12.8078 11.0049 13.0154 11.0777 13.2301 11.0824C13.3301 11.0824 13.4047 11.0571 13.5061 11.0318L16.2047 10.2571C16.3401 10.2183 16.4659 10.1514 16.5738 10.0609C16.6818 9.97045 16.7695 9.85831 16.8314 9.73178L17.4807 8.43178C18.5061 10.5064 18.2301 11.1064 17.1061 13.3571C17.0765 13.4119 17.0596 13.4726 17.0565 13.5347C17.0533 13.5969 17.0641 13.659 17.088 13.7164C17.1119 13.7739 17.1483 13.8253 17.1945 13.867C17.2408 13.9086 17.2957 13.9394 17.3554 13.9571C17.7301 14.0824 18.1061 14.1571 18.5061 14.2318L18.3554 14.5571C18.2807 14.7318 18.2554 14.9064 18.2807 15.0824L18.6047 20.4571C18.6241 20.7556 18.7565 21.0356 18.9749 21.24C19.1934 21.4443 19.4816 21.5577 19.7807 21.5571H19.8567C20.0111 21.5476 20.1621 21.5077 20.301 21.4397C20.4399 21.3717 20.564 21.277 20.6662 21.1609C20.7684 21.0448 20.8467 20.9097 20.8966 20.7633C20.9464 20.6169 20.9669 20.4621 20.9567 20.3078L20.6567 15.2078L21.0074 14.3811C21.8024 14.3559 22.5951 14.2811 23.3807 14.1571C23.6074 14.1318 23.7567 13.9064 23.7314 13.6824C23.6567 13.0571 23.4821 11.7571 23.0314 10.6571ZM15.6074 4.65711C16.7567 4.65711 17.6821 3.73178 17.6821 2.58244C17.6866 2.30585 17.6268 2.03199 17.5074 1.78244C17.6857 1.78031 17.856 1.70853 17.9821 1.58244C18.0474 1.51906 18.0993 1.4432 18.1348 1.35938C18.1702 1.27555 18.1885 1.18546 18.1885 1.09444C18.1885 1.00343 18.1702 0.913334 18.1348 0.829508C18.0993 0.745682 18.0474 0.669829 17.9821 0.606443L17.5821 0.206443C17.5187 0.141124 17.4428 0.0891954 17.359 0.0537339C17.2752 0.0182723 17.1851 0 17.0941 0C17.0031 0 16.913 0.0182723 16.8291 0.0537339C16.7453 0.0891954 16.6695 0.141124 16.6061 0.206443C16.4797 0.332809 16.4079 0.503712 16.4061 0.682443C16.1529 0.573969 15.8814 0.514257 15.6061 0.506443C14.4567 0.506443 13.5314 1.43178 13.5314 2.58244C13.5314 3.73178 14.4581 4.65711 15.6074 4.65711ZM8.90607 11.7824L8.65674 11.7064V21.2318C8.65674 21.4571 8.85674 21.6571 9.08207 21.6571C9.30741 21.6571 9.5074 21.4571 9.5074 21.2318V11.8318H9.38207C9.23141 11.8318 9.05674 11.8078 8.90607 11.7824Z" fill="currentColor"/>
<path d="M9.65672 9.15698L7.40606 8.50765L5.95672 5.58231C5.83336 5.3406 5.68211 5.11416 5.50606 4.90765C5.10606 4.50765 4.58206 4.30765 4.03139 4.35698C3.75962 4.37018 3.49389 4.44181 3.25229 4.56698C3.0107 4.69214 2.79892 4.86791 2.63139 5.08231C2.58206 5.15698 2.53139 5.20765 2.50739 5.28231L0.13139 9.90631C0.04491 10.0858 0 10.2824 0 10.4816C0 10.6809 0.04491 10.8775 0.13139 11.057L2.35672 15.3076L1.58206 20.257C1.53369 20.5877 1.61629 20.9241 1.81227 21.1948C2.00825 21.4655 2.30215 21.649 2.63139 21.7063C2.70739 21.7063 2.75672 21.733 2.83139 21.733C3.43139 21.733 3.98206 21.2823 4.08206 20.657L4.93139 15.2823C4.9803 15.0169 4.93602 14.7428 4.80606 14.5063L3.43272 11.9063L5.13139 8.60631L5.75672 9.85698C5.88206 10.1316 6.13139 10.3076 6.40606 10.4063L9.10739 11.1823C9.20739 11.2063 9.30739 11.2316 9.40606 11.2316C9.63132 11.2315 9.85048 11.1585 10.0307 11.0234C10.211 10.8883 10.3427 10.6985 10.4061 10.4823C10.4822 10.2072 10.4461 9.9131 10.3056 9.66461C10.1651 9.41611 9.93173 9.23354 9.65672 9.15698Z" fill="currentColor"/>
<path d="M7.00606 4.73185C8.15187 4.73185 9.08073 3.80299 9.08073 2.65719C9.08073 1.51138 8.15187 0.58252 7.00606 0.58252C5.86026 0.58252 4.9314 1.51138 4.9314 2.65719C4.9314 3.80299 5.86026 4.73185 7.00606 4.73185Z" fill="currentColor"/>
</svg>
