<svg viewBox="0 0 32 32" fill="none" xmlns="http://www.w3.org/2000/svg">
<path d="M16.85 10.375C16.85 9.90556 16.4694 9.525 16 9.525C15.5306 9.525 15.15 9.90556 15.15 10.375H16.85ZM15.15 16C15.15 16.4694 15.5306 16.85 16 16.85C16.4694 16.85 16.85 16.4694 16.85 16H15.15ZM9.4375 16.85H22.5625V15.15H9.4375V16.85ZM26.3125 19.75C25.4625 19.75 25.4625 19.75 25.4625 19.75C25.4625 19.75 25.4625 19.75 25.4625 19.75C25.4625 19.75 25.4625 19.7501 25.4625 19.7501C25.4625 19.7501 25.4625 19.7501 25.4625 19.7501C25.4625 19.7502 25.4625 19.7502 25.4625 19.7502C25.4625 19.7503 25.4625 19.7503 25.4625 19.7503C25.4625 19.7504 25.4625 19.7504 25.4625 19.7504C25.4625 19.7505 25.4625 19.7505 25.4625 19.7506C25.4625 19.7506 25.4625 19.7507 25.4625 19.7507C25.4625 19.7508 25.4625 19.7508 25.4625 19.7509C25.4625 19.7509 25.4625 19.751 25.4625 19.7511C25.4625 19.7511 25.4625 19.7512 25.4625 19.7513C25.4625 19.7513 25.4625 19.7514 25.4625 19.7515C25.4625 19.7516 25.4625 19.7516 25.4625 19.7517C25.4625 19.7518 25.4625 19.7519 25.4625 19.752C25.4625 19.7521 25.4625 19.7522 25.4625 19.7523C25.4625 19.7524 25.4625 19.7525 25.4625 19.7526C25.4625 19.7527 25.4625 19.7528 25.4625 19.7529C25.4625 19.753 25.4625 19.7531 25.4625 19.7532C25.4625 19.7533 25.4625 19.7534 25.4625 19.7535C25.4625 19.7536 25.4625 19.7538 25.4625 19.7539C25.4625 19.754 25.4625 19.7541 25.4625 19.7543C25.4625 19.7544 25.4625 19.7545 25.4625 19.7547C25.4625 19.7548 25.4625 19.7549 25.4625 19.7551C25.4625 19.7552 25.4625 19.7554 25.4625 19.7555C25.4625 19.7556 25.4625 19.7558 25.4625 19.7559C25.4625 19.7561 25.4625 19.7563 25.4625 19.7564C25.4625 19.7566 25.4625 19.7567 25.4625 19.7569C25.4625 19.7571 25.4625 19.7572 25.4625 19.7574C25.4625 19.7576 25.4625 19.7577 25.4625 19.7579C25.4625 19.7581 25.4625 19.7583 25.4625 19.7584C25.4625 19.7586 25.4625 19.7588 25.4625 19.759C25.4625 19.7592 25.4625 19.7594 25.4625 19.7596C25.4625 19.7597 25.4625 19.7599 25.4625 19.7601C25.4625 19.7603 25.4625 19.7605 25.4625 19.7607C25.4625 19.7609 25.4625 19.7612 25.4625 19.7614C25.4625 19.7616 25.4625 19.7618 25.4625 19.762C25.4625 19.7622 25.4625 19.7624 25.4625 19.7626C25.4625 19.7629 25.4625 19.7631 25.4625 19.7633C25.4625 19.7635 25.4625 19.7638 25.4625 19.764C25.4625 19.7642 25.4625 19.7645 25.4625 19.7647C25.4625 19.7649 25.4625 19.7652 25.4625 19.7654C25.4625 19.7657 25.4625 19.7659 25.4625 19.7662C25.4625 19.7664 25.4625 19.7667 25.4625 19.7669C25.4625 19.7672 25.4625 19.7674 25.4625 19.7677C25.4625 19.768 25.4625 19.7682 25.4625 19.7685C25.4625 19.7687 25.4625 19.769 25.4625 19.7693C25.4625 19.7696 25.4625 19.7698 25.4625 19.7701C25.4625 19.7704 25.4625 19.7707 25.4625 19.7709C25.4625 19.7712 25.4625 19.7715 25.4625 19.7718C25.4625 19.7721 25.4625 19.7724 25.4625 19.7727C25.4625 19.773 25.4625 19.7733 25.4625 19.7736C25.4625 19.7739 25.4625 19.7742 25.4625 19.7745C25.4625 19.7748 25.4625 19.7751 25.4625 19.7754C25.4625 19.7757 25.4625 19.776 25.4625 19.7763C25.4625 19.7766 25.4625 19.777 25.4625 19.7773C25.4625 19.7776 25.4625 19.7779 25.4625 19.7782C25.4625 19.7786 25.4625 19.7789 25.4625 19.7792C25.4625 19.7796 25.4625 19.7799 25.4625 19.7802C25.4625 19.7806 25.4625 19.7809 25.4625 19.7813C25.4625 19.7816 25.4625 19.782 25.4625 19.7823C25.4625 19.7827 25.4625 19.783 25.4625 19.7834C25.4625 19.7837 25.4625 19.7841 25.4625 19.7844C25.4625 19.7848 25.4625 19.7852 25.4625 19.7855C25.4625 19.7859 25.4625 19.7863 25.4625 19.7866C25.4625 19.787 25.4625 19.7874 25.4625 19.7877C25.4625 19.7881 25.4625 19.7885 25.4625 19.7889C25.4625 19.7893 25.4625 19.7896 25.4625 19.79C25.4625 19.7904 25.4625 19.7908 25.4625 19.7912C25.4625 19.7916 25.4625 19.792 25.4625 19.7924C25.4625 19.7928 25.4625 19.7932 25.4625 19.7936C25.4625 19.794 25.4625 19.7944 25.4625 19.7948C25.4625 19.7952 25.4625 19.7956 25.4625 19.796C25.4625 19.7965 25.4625 19.7969 25.4625 19.7973C25.4625 19.7977 25.4625 19.7981 25.4625 19.7986C25.4625 19.799 25.4625 19.7994 25.4625 19.7998C25.4625 19.8003 25.4625 19.8007 25.4625 19.8011C25.4625 19.8016 25.4625 19.802 25.4625 19.8025C25.4625 19.8029 25.4625 19.8034 25.4625 19.8038C25.4625 19.8042 25.4625 19.8047 25.4625 19.8051C25.4625 19.8056 25.4625 19.8061 25.4625 19.8065C25.4625 19.807 25.4625 19.8074 25.4625 19.8079C25.4625 19.8084 25.4625 19.8088 25.4625 19.8093C25.4625 19.8098 25.4625 19.8102 25.4625 19.8107C25.4625 19.8112 25.4625 19.8117 25.4625 19.8121C25.4625 19.8126 25.4625 19.8131 25.4625 19.8136C25.4625 19.8141 25.4625 19.8146 25.4625 19.815C25.4625 19.8155 25.4625 19.816 25.4625 19.8165C25.4625 19.817 25.4625 19.8175 25.4625 19.818C25.4625 19.8185 25.4625 19.819 25.4625 19.8195C25.4625 19.82 25.4625 19.8205 25.4625 19.821C25.4625 19.8216 25.4625 19.8221 25.4625 19.8226C25.4625 19.8231 25.4625 19.8236 25.4625 19.8241C25.4625 19.8247 25.4625 19.8252 25.4625 19.8257C25.4625 19.8262 25.4625 19.8268 25.4625 19.8273C25.4625 19.8278 25.4625 19.8284 25.4625 19.8289C25.4625 19.8295 25.4625 19.83 25.4625 19.8305C25.4625 19.8311 25.4625 19.8316 25.4625 19.8322C25.4625 19.8327 25.4625 19.8333 25.4625 19.8338C25.4625 19.8344 25.4625 19.8349 25.4625 19.8355C25.4625 19.8361 25.4625 19.8366 25.4625 19.8372C25.4625 19.8377 25.4625 19.8383 25.4625 19.8389C25.4625 19.8394 25.4625 19.84 25.4625 19.8406C25.4625 19.8412 25.4625 19.8417 25.4625 19.8423C25.4625 19.8429 25.4625 19.8435 25.4625 19.8441C25.4625 19.8447 25.4625 19.8452 25.4625 19.8458C25.4625 19.8464 25.4625 19.847 25.4625 19.8476C25.4625 19.8482 25.4625 19.8488 25.4625 19.8494C25.4625 19.85 25.4625 19.8506 25.4625 19.8512C25.4625 19.8518 25.4625 19.8524 25.4625 19.853C25.4625 19.8536 25.4625 19.8543 25.4625 19.8549C25.4625 19.8555 25.4625 19.8561 25.4625 19.8567C25.4625 19.8574 25.4625 19.858 25.4625 19.8586C25.4625 19.8592 25.4625 19.8599 25.4625 19.8605C25.4625 19.8611 25.4625 19.8618 25.4625 19.8624C25.4625 19.863 25.4625 19.8637 25.4625 19.8643C25.4625 19.8649 25.4625 19.8656 25.4625 19.8662C25.4625 19.8669 25.4625 19.8675 25.4625 19.8682C25.4625 19.8688 25.4625 19.8695 25.4625 19.8702C25.4625 19.8708 25.4625 19.8715 25.4625 19.8721C25.4625 19.8728 25.4625 19.8735 25.4625 19.8741C25.4625 19.8748 25.4625 19.8755 25.4625 19.8761C25.4625 19.8768 25.4625 19.8775 25.4625 19.8782C25.4625 19.8788 25.4625 19.8795 25.4625 19.8802C25.4625 19.8809 25.4625 19.8816 25.4625 19.8823C25.4625 19.8829 25.4625 19.8836 25.4625 19.8843C25.4625 19.885 25.4625 19.8857 25.4625 19.8864C25.4625 19.8871 25.4625 19.8878 25.4625 19.8885C25.4625 19.8892 25.4625 19.8899 25.4625 19.8906C25.4625 19.8913 25.4625 19.892 25.4625 19.8928C25.4625 19.8935 25.4625 19.8942 25.4625 19.8949C25.4625 19.8956 25.4625 19.8963 25.4625 19.8971C25.4625 19.8978 25.4625 19.8985 25.4625 19.8992C25.4625 19.9 25.4625 19.9007 25.4625 19.9014C25.4625 19.9022 25.4625 19.9029 25.4625 19.9036C25.4625 19.9044 25.4625 19.9051 25.4625 19.9059C25.4625 19.9066 25.4625 19.9074 25.4625 19.9081C25.4625 19.9089 25.4625 19.9096 25.4625 19.9104C25.4625 19.9111 25.4625 19.9119 25.4625 19.9126C25.4625 19.9134 25.4625 19.9141 25.4625 19.9149C25.4625 19.9157 25.4625 19.9164 25.4625 19.9172C25.4625 19.918 25.4625 19.9187 25.4625 19.9195C25.4625 19.9203 25.4625 19.9211 25.4625 19.9218C25.4625 19.9226 25.4625 19.9234 25.4625 19.9242C25.4625 19.925 25.4625 19.9257 25.4625 19.9265C25.4625 19.9273 25.4625 19.9281 25.4625 19.9289C25.4625 19.9297 25.4625 19.9305 25.4625 19.9313C25.4625 19.9321 25.4625 19.9329 25.4625 19.9337C25.4625 19.9345 25.4625 19.9353 25.4625 19.9361C25.4625 19.9369 25.4625 19.9377 25.4625 19.9385C25.4625 19.9394 25.4625 19.9402 25.4625 19.941C25.4625 19.9418 25.4625 19.9426 25.4625 19.9434C25.4625 19.9443 25.4625 19.9451 25.4625 19.9459C25.4625 19.9467 25.4625 19.9476 25.4625 19.9484C25.4625 19.9492 25.4625 19.9501 25.4625 19.9509C25.4625 19.9517 25.4625 19.9526 25.4625 19.9534C25.4625 19.9543 25.4625 19.9551 25.4625 19.956C25.4625 19.9568 25.4625 19.9577 25.4625 19.9585C25.4625 19.9594 25.4625 19.9602 25.4625 19.9611C25.4625 19.9619 25.4625 19.9628 25.4625 19.9636C25.4625 19.9645 25.4625 19.9654 25.4625 19.9662C25.4625 19.9671 25.4625 19.968 25.4625 19.9688C25.4625 19.9697 25.4625 19.9706 25.4625 19.9715C25.4625 19.9723 25.4625 19.9732 25.4625 19.9741C25.4625 19.975 25.4625 19.9759 25.4625 19.9768C25.4625 19.9776 25.4625 19.9785 25.4625 19.9794C25.4625 19.9803 25.4625 19.9812 25.4625 19.9821C25.4625 19.983 25.4625 19.9839 25.4625 19.9848C25.4625 19.9857 25.4625 19.9866 25.4625 19.9875C25.4625 19.9884 25.4625 19.9893 25.4625 19.9902C25.4625 19.9911 25.4625 19.992 25.4625 19.9929C25.4625 19.9939 25.4625 19.9948 25.4625 19.9957C25.4625 19.9966 25.4625 19.9975 25.4625 19.9985C25.4625 19.9994 25.4625 20.0003 25.4625 20.0012C25.4625 20.0022 25.4625 20.0031 25.4625 20.004C25.4625 20.005 25.4625 20.0059 25.4625 20.0068C25.4625 20.0078 25.4625 20.0087 25.4625 20.0097C25.4625 20.0106 25.4625 20.0115 25.4625 20.0125C25.4625 20.0134 25.4625 20.0144 25.4625 20.0153C25.4625 20.0163 25.4625 20.0172 25.4625 20.0182C25.4625 20.0192 25.4625 20.0201 25.4625 20.0211C25.4625 20.022 25.4625 20.023 25.4625 20.024C25.4625 20.0249 25.4625 20.0259 25.4625 20.0269C25.4625 20.0278 25.4625 20.0288 25.4625 20.0298C25.4625 20.0308 25.4625 20.0318 25.4625 20.0327C25.4625 20.0337 25.4625 20.0347 25.4625 20.0357C25.4625 20.0367 25.4625 20.0377 25.4625 20.0386C25.4625 20.0396 25.4625 20.0406 25.4625 20.0416C25.4625 20.0426 25.4625 20.0436 25.4625 20.0446C25.4625 20.0456 25.4625 20.0466 25.4625 20.0476C25.4625 20.0486 25.4625 20.0496 25.4625 20.0506C25.4625 20.0516 25.4625 20.0526 25.4625 20.0537C25.4625 20.0547 25.4625 20.0557 25.4625 20.0567C25.4625 20.0577 25.4625 20.0587 25.4625 20.0598C25.4625 20.0608 25.4625 20.0618 25.4625 20.0628C25.4625 20.0639 25.4625 20.0649 25.4625 20.0659C25.4625 20.067 25.4625 20.068 25.4625 20.069C25.4625 20.0701 25.4625 20.0711 25.4625 20.0721C25.4625 20.0732 25.4625 20.0742 25.4625 20.0753C25.4625 20.0763 25.4625 20.0774 25.4625 20.0784C25.4625 20.0795 25.4625 20.0805 25.4625 20.0816C25.4625 20.0826 25.4625 20.0837 25.4625 20.0847C25.4625 20.0858 25.4625 20.0868 25.4625 20.0879C25.4625 20.089 25.4625 20.09 25.4625 20.0911C25.4625 20.0922 25.4625 20.0932 25.4625 20.0943C25.4625 20.0954 25.4625 20.0965 25.4625 20.0975C25.4625 20.0986 25.4625 20.0997 25.4625 20.1008C25.4625 20.1019 25.4625 20.1029 25.4625 20.104C25.4625 20.1051 25.4625 20.1062 25.4625 20.1073C25.4625 20.1084 25.4625 20.1095 25.4625 20.1106C25.4625 20.1117 25.4625 20.1128 25.4625 20.1139C25.4625 20.115 25.4625 20.1161 25.4625 20.1172C25.4625 20.1183 25.4625 20.1194 25.4625 20.1205C25.4625 20.1216 25.4625 20.1227 25.4625 20.1238C25.4625 20.1249 25.4625 20.126 25.4625 20.1272C25.4625 20.1283 25.4625 20.1294 25.4625 20.1305C25.4625 20.1316 25.4625 20.1328 25.4625 20.1339C25.4625 20.135 25.4625 20.1361 25.4625 20.1373C25.4625 20.1384 25.4625 20.1395 25.4625 20.1407C25.4625 20.1418 25.4625 20.143 25.4625 20.1441C25.4625 20.1452 25.4625 20.1464 25.4625 20.1475C25.4625 20.1487 25.4625 20.1498 25.4625 20.151C25.4625 20.1521 25.4625 20.1533 25.4625 20.1544C25.4625 20.1556 25.4625 20.1567 25.4625 20.1579C25.4625 20.159 25.4625 20.1602 25.4625 20.1613C25.4625 20.1625 25.4625 20.1637 25.4625 20.1648C25.4625 20.166 25.4625 20.1672 25.4625 20.1683C25.4625 20.1695 25.4625 20.1707 25.4625 20.1719C25.4625 20.173 25.4625 20.1742 25.4625 20.1754C25.4625 20.1766 25.4625 20.1778 25.4625 20.1789C25.4625 20.1801 25.4625 20.1813 25.4625 20.1825C25.4625 20.1837 25.4625 20.1849 25.4625 20.1861C25.4625 20.1873 25.4625 20.1884 25.4625 20.1896C25.4625 20.1908 25.4625 20.192 25.4625 20.1932C25.4625 20.1944 25.4625 20.1956 25.4625 20.1969C25.4625 20.1981 25.4625 20.1993 25.4625 20.2005C25.4625 20.2017 25.4625 20.2029 25.4625 20.2041C25.4625 20.2053 25.4625 20.2065 25.4625 20.2078C25.4625 20.209 25.4625 20.2102 25.4625 20.2114C25.4625 20.2126 25.4625 20.2139 25.4625 20.2151C25.4625 20.2163 25.4625 20.2176 25.4625 20.2188C25.4625 20.22 25.4625 20.2212 25.4625 20.2225C25.4625 20.2237 25.4625 20.225 25.4625 20.2262C25.4625 20.2274 25.4625 20.2287 25.4625 20.2299C25.4625 20.2312 25.4625 20.2324 25.4625 20.2337C25.4625 20.2349 25.4625 20.2362 25.4625 20.2374C25.4625 20.2387 25.4625 20.2399 25.4625 20.2412C25.4625 20.2424 25.4625 20.2437 25.4625 20.2449C25.4625 20.2462 25.4625 20.2475 25.4625 20.2487C25.4625 20.25 25.4625 20.2513 25.4625 20.2525C25.4625 20.2538 25.4625 20.2551 25.4625 20.2564C25.4625 20.2576 25.4625 20.2589 25.4625 20.2602C25.4625 20.2615 25.4625 20.2627 25.4625 20.264C25.4625 20.2653 25.4625 20.2666 25.4625 20.2679C25.4625 20.2692 25.4625 20.2705 25.4625 20.2717C25.4625 20.273 25.4625 20.2743 25.4625 20.2756C25.4625 20.2769 25.4625 20.2782 25.4625 20.2795C25.4625 20.2808 25.4625 20.2821 25.4625 20.2834C25.4625 20.2847 25.4625 20.286 25.4625 20.2873C25.4625 20.2886 25.4625 20.2899 25.4625 20.2913C25.4625 20.2926 25.4625 20.2939 25.4625 20.2952C25.4625 20.2965 25.4625 20.2978 25.4625 20.2992C25.4625 20.3005 25.4625 20.3018 25.4625 20.3031C25.4625 20.3044 25.4625 20.3058 25.4625 20.3071C25.4625 20.3084 25.4625 20.3098 25.4625 20.3111C25.4625 20.3124 25.4625 20.3137 25.4625 20.3151C25.4625 20.3164 25.4625 20.3178 25.4625 20.3191C25.4625 20.3204 25.4625 20.3218 25.4625 20.3231C25.4625 20.3245 25.4625 20.3258 25.4625 20.3272C25.4625 20.3285 25.4625 20.3299 25.4625 20.3312C25.4625 20.3326 25.4625 20.3339 25.4625 20.3353C25.4625 20.3366 25.4625 20.338 25.4625 20.3394C25.4625 20.3407 25.4625 20.3421 25.4625 20.3435C25.4625 20.3448 25.4625 20.3462 25.4625 20.3476C25.4625 20.3489 25.4625 20.3503 25.4625 20.3517C25.4625 20.353 25.4625 20.3544 25.4625 20.3558C25.4625 20.3572 25.4625 20.3585 25.4625 20.3599C25.4625 20.3613 25.4625 20.3627 25.4625 20.3641C25.4625 20.3655 25.4625 20.3668 25.4625 20.3682C25.4625 20.3696 25.4625 20.371 25.4625 20.3724C25.4625 20.3738 25.4625 20.3752 25.4625 20.3766C25.4625 20.378 25.4625 20.3794 25.4625 20.3808C25.4625 20.3822 25.4625 20.3836 25.4625 20.385C25.4625 20.3864 25.4625 20.3878 25.4625 20.3892C25.4625 20.3906 25.4625 20.3921 25.4625 20.3935C25.4625 20.3949 25.4625 20.3963 25.4625 20.3977C25.4625 20.3991 25.4625 20.4005 25.4625 20.402C25.4625 20.4034 25.4625 20.4048 25.4625 20.4062C25.4625 20.4077 25.4625 20.4091 25.4625 20.4105C25.4625 20.412 25.4625 20.4134 25.4625 20.4148C25.4625 20.4162 25.4625 20.4177 25.4625 20.4191C25.4625 20.4206 25.4625 20.422 25.4625 20.4234C25.4625 20.4249 25.4625 20.4263 25.4625 20.4278C25.4625 20.4292 25.4625 20.4307 25.4625 20.4321C25.4625 20.4336 25.4625 20.435 25.4625 20.4365C25.4625 20.4379 25.4625 20.4394 25.4625 20.4408C25.4625 20.4423 25.4625 20.4437 25.4625 20.4452C25.4625 20.4467 25.4625 20.4481 25.4625 20.4496C25.4625 20.4511 25.4625 20.4525 25.4625 20.454C25.4625 20.4555 25.4625 20.4569 25.4625 20.4584C25.4625 20.4599 25.4625 20.4614 25.4625 20.4628C25.4625 20.4643 25.4625 20.4658 25.4625 20.4673C25.4625 20.4687 25.4625 20.4702 25.4625 20.4717C25.4625 20.4732 25.4625 20.4747 25.4625 20.4762C25.4625 20.4777 25.4625 20.4791 25.4625 20.4806C25.4625 20.4821 25.4625 20.4836 25.4625 20.4851C25.4625 20.4866 25.4625 20.4881 25.4625 20.4896C25.4625 20.4911 25.4625 20.4926 25.4625 20.4941C25.4625 20.4956 25.4625 20.4971 25.4625 20.4986C25.4625 20.5001 25.4625 20.5016 25.4625 20.5032C25.4625 20.5047 25.4625 20.5062 25.4625 20.5077C25.4625 20.5092 25.4625 20.5107 25.4625 20.5123C25.4625 20.5138 25.4625 20.5153 25.4625 20.5168C25.4625 20.5183 25.4625 20.5199 25.4625 20.5214C25.4625 20.5229 25.4625 20.5244 25.4625 20.526C25.4625 20.5275 25.4625 20.529 25.4625 20.5306C25.4625 20.5321 25.4625 20.5336 25.4625 20.5352C25.4625 20.5367 25.4625 20.5383 25.4625 20.5398C25.4625 20.5413 25.4625 20.5429 25.4625 20.5444C25.4625 20.546 25.4625 20.5475 25.4625 20.5491C25.4625 20.5506 25.4625 20.5522 25.4625 20.5537C25.4625 20.5553 25.4625 20.5568 25.4625 20.5584C25.4625 20.5599 25.4625 20.5615 25.4625 20.5631C25.4625 20.5646 25.4625 20.5662 25.4625 20.5677C25.4625 20.5693 25.4625 20.5709 25.4625 20.5724C25.4625 20.574 25.4625 20.5756 25.4625 20.5772C25.4625 20.5787 25.4625 20.5803 25.4625 20.5819C25.4625 20.5834 25.4625 20.585 25.4625 20.5866C25.4625 20.5882 25.4625 20.5898 25.4625 20.5913C25.4625 20.5929 25.4625 20.5945 25.4625 20.5961C25.4625 20.5977 25.4625 20.5993 25.4625 20.6009C25.4625 20.6024 25.4625 20.604 25.4625 20.6056C25.4625 20.6072 25.4625 20.6088 25.4625 20.6104C25.4625 20.612 25.4625 20.6136 25.4625 20.6152C25.4625 20.6168 25.4625 20.6184 25.4625 20.62C25.4625 20.6216 25.4625 20.6232 25.4625 20.6248C25.4625 20.6265 25.4625 20.6281 25.4625 20.6297C25.4625 20.6313 25.4625 20.6329 25.4625 20.6345C25.4625 20.6361 25.4625 20.6378 25.4625 20.6394C25.4625 20.641 25.4625 20.6426 25.4625 20.6442C25.4625 20.6459 25.4625 20.6475 25.4625 20.6491C25.4625 20.6507 25.4625 20.6524 25.4625 20.654C25.4625 20.6556 25.4625 20.6573 25.4625 20.6589C25.4625 20.6605 25.4625 20.6622 25.4625 20.6638C25.4625 20.6654 25.4625 20.6671 25.4625 20.6687C25.4625 20.6704 25.4625 20.672 25.4625 20.6736C25.4625 20.6753 25.4625 20.6769 25.4625 20.6786C25.4625 20.6802 25.4625 20.6819 25.4625 20.6835C25.4625 20.6852 25.4625 20.6868 25.4625 20.6885C25.4625 20.6901 25.4625 20.6918 25.4625 20.6935C25.4625 20.6951 25.4625 20.6968 25.4625 20.6984C25.4625 20.7001 25.4625 20.7018 25.4625 20.7034C25.4625 20.7051 25.4625 20.7068 25.4625 20.7084C25.4625 20.7101 25.4625 20.7118 25.4625 20.7134C25.4625 20.7151 25.4625 20.7168 25.4625 20.7185C25.4625 20.7201 25.4625 20.7218 25.4625 20.7235C25.4625 20.7252 25.4625 20.7269 25.4625 20.7285C25.4625 20.7302 25.4625 20.7319 25.4625 20.7336C25.4625 20.7353 25.4625 20.737 25.4625 20.7387C25.4625 20.7404 25.4625 20.7421 25.4625 20.7437C25.4625 20.7454 25.4625 20.7471 25.4625 20.7488C25.4625 20.7505 25.4625 20.7522 25.4625 20.7539C25.4625 20.7556 25.4625 20.7573 25.4625 20.759C25.4625 20.7607 25.4625 20.7624 25.4625 20.7642C25.4625 20.7659 25.4625 20.7676 25.4625 20.7693C25.4625 20.771 25.4625 20.7727 25.4625 20.7744C25.4625 20.7761 25.4625 20.7779 25.4625 20.7796C25.4625 20.7813 25.4625 20.783 25.4625 20.7847C25.4625 20.7865 25.4625 20.7882 25.4625 20.7899C25.4625 20.7916 25.4625 20.7934 25.4625 20.7951C25.4625 20.7968 25.4625 20.7985 25.4625 20.8003C25.4625 20.802 25.4625 20.8037 25.4625 20.8055C25.4625 20.8072 25.4625 20.8089 25.4625 20.8107C25.4625 20.8124 25.4625 20.8142 25.4625 20.8159C25.4625 20.8176 25.4625 20.8194 25.4625 20.8211C25.4625 20.8229 25.4625 20.8246 25.4625 20.8264C25.4625 20.8281 25.4625 20.8299 25.4625 20.8316C25.4625 20.8334 25.4625 20.8351 25.4625 20.8369C25.4625 20.8386 25.4625 20.8404 25.4625 20.8422C25.4625 20.8439 25.4625 20.8457 25.4625 20.8474C25.4625 20.8492 25.4625 20.851 25.4625 20.8527C25.4625 20.8545 25.4625 20.8563 25.4625 20.858C25.4625 20.8598 25.4625 20.8616 25.4625 20.8633C25.4625 20.8651 25.4625 20.8669 25.4625 20.8687C25.4625 20.8704 25.4625 20.8722 25.4625 20.874C25.4625 20.8758 25.4625 20.8776 25.4625 20.8793C25.4625 20.8811 25.4625 20.8829 25.4625 20.8847C25.4625 20.8865 25.4625 20.8883 25.4625 20.8901C25.4625 20.8918 25.4625 20.8936 25.4625 20.8954C25.4625 20.8972 25.4625 20.899 25.4625 20.9008C25.4625 20.9026 25.4625 20.9044 25.4625 20.9062C25.4625 20.908 25.4625 20.9098 25.4625 20.9116C25.4625 20.9134 25.4625 20.9152 25.4625 20.917C25.4625 20.9188 25.4625 20.9206 25.4625 20.9224C25.4625 20.9242 25.4625 20.926 25.4625 20.9279C25.4625 20.9297 25.4625 20.9315 25.4625 20.9333C25.4625 20.9351 25.4625 20.9369 25.4625 20.9387C25.4625 20.9406 25.4625 20.9424 25.4625 20.9442C25.4625 20.946 25.4625 20.9478 25.4625 20.9497C25.4625 20.9515 25.4625 20.9533 25.4625 20.9552C25.4625 20.957 25.4625 20.9588 25.4625 20.9606C25.4625 20.9625 25.4625 20.9643 25.4625 20.9661C25.4625 20.968 25.4625 20.9698 25.4625 20.9716C25.4625 20.9735 25.4625 20.9753 25.4625 20.9772C25.4625 20.979 25.4625 20.9808 25.4625 20.9827C25.4625 20.9845 25.4625 20.9864 25.4625 20.9882C25.4625 20.9901 25.4625 20.9919 25.4625 20.9938C25.4625 20.9956 25.4625 20.9975 25.4625 20.9993C25.4625 21.0012 25.4625 21.003 25.4625 21.0049C25.4625 21.0067 25.4625 21.0086 25.4625 21.0105C25.4625 21.0123 25.4625 21.0142 25.4625 21.016C25.4625 21.0179 25.4625 21.0198 25.4625 21.0216C25.4625 21.0235 25.4625 21.0254 25.4625 21.0272C25.4625 21.0291 25.4625 21.031 25.4625 21.0329C25.4625 21.0347 25.4625 21.0366 25.4625 21.0385C25.4625 21.0404 25.4625 21.0422 25.4625 21.0441C25.4625 21.046 25.4625 21.0479 25.4625 21.0497C25.4625 21.0516 25.4625 21.0535 25.4625 21.0554C25.4625 21.0573 25.4625 21.0592 25.4625 21.0611C25.4625 21.0629 25.4625 21.0648 25.4625 21.0667C25.4625 21.0686 25.4625 21.0705 25.4625 21.0724C25.4625 21.0743 25.4625 21.0762 25.4625 21.0781C25.4625 21.08 25.4625 21.0819 25.4625 21.0838C25.4625 21.0857 25.4625 21.0876 25.4625 21.0895C25.4625 21.0914 25.4625 21.0933 25.4625 21.0952C25.4625 21.0971 25.4625 21.099 25.4625 21.1009C25.4625 21.1028 25.4625 21.1047 25.4625 21.1067C25.4625 21.1086 25.4625 21.1105 25.4625 21.1124C25.4625 21.1143 25.4625 21.1162 25.4625 21.1181C25.4625 21.1201 25.4625 21.122 25.4625 21.1239C25.4625 21.1258 25.4625 21.1277 25.4625 21.1297C25.4625 21.1316 25.4625 21.1335 25.4625 21.1354C25.4625 21.1374 25.4625 21.1393 25.4625 21.1412C25.4625 21.1432 25.4625 21.1451 25.4625 21.147C25.4625 21.149 25.4625 21.1509 25.4625 21.1528C25.4625 21.1548 25.4625 21.1567 25.4625 21.1586C25.4625 21.1606 25.4625 21.1625 25.4625 21.1645C25.4625 21.1664 25.4625 21.1684 25.4625 21.1703C25.4625 21.1722 25.4625 21.1742 25.4625 21.1761C25.4625 21.1781 25.4625 21.18 25.4625 21.182C25.4625 21.1839 25.4625 21.1859 25.4625 21.1878C25.4625 21.1898 25.4625 21.1917 25.4625 21.1937C25.4625 21.1957 25.4625 21.1976 25.4625 21.1996C25.4625 21.2015 25.4625 21.2035 25.4625 21.2055C25.4625 21.2074 25.4625 21.2094 25.4625 21.2114C25.4625 21.2133 25.4625 21.2153 25.4625 21.2173C25.4625 21.2192 25.4625 21.2212 25.4625 21.2232C25.4625 21.2251 25.4625 21.2271 25.4625 21.2291C25.4625 21.2311 25.4625 21.233 25.4625 21.235C25.4625 21.237 25.4625 21.239 25.4625 21.2409C25.4625 21.2429 25.4625 21.2449 25.4625 21.2469C25.4625 21.2489 25.4625 21.2509 25.4625 21.2528C25.4625 21.2548 25.4625 21.2568 25.4625 21.2588C25.4625 21.2608 25.4625 21.2628 25.4625 21.2648C25.4625 21.2668 25.4625 21.2688 25.4625 21.2708C25.4625 21.2728 25.4625 21.2747 25.4625 21.2767C25.4625 21.2787 25.4625 21.2807 25.4625 21.2827C25.4625 21.2847 25.4625 21.2867 25.4625 21.2887C25.4625 21.2907 25.4625 21.2928 25.4625 21.2948C25.4625 21.2968 25.4625 21.2988 25.4625 21.3008C25.4625 21.3028 25.4625 21.3048 25.4625 21.3068C25.4625 21.3088 25.4625 21.3108 25.4625 21.3128C25.4625 21.3149 25.4625 21.3169 25.4625 21.3189C25.4625 21.3209 25.4625 21.3229 25.4625 21.3249C25.4625 21.327 25.4625 21.329 25.4625 21.331C25.4625 21.333 25.4625 21.3351 25.4625 21.3371C25.4625 21.3391 25.4625 21.3411 25.4625 21.3432C25.4625 21.3452 25.4625 21.3472 25.4625 21.3492C25.4625 21.3513 25.4625 21.3533 25.4625 21.3553C25.4625 21.3574 25.4625 21.3594 25.4625 21.3614C25.4625 21.3635 25.4625 21.3655 25.4625 21.3676C25.4625 21.3696 25.4625 21.3716 25.4625 21.3737C25.4625 21.3757 25.4625 21.3778 25.4625 21.3798C25.4625 21.3819 25.4625 21.3839 25.4625 21.3859C25.4625 21.388 25.4625 21.39 25.4625 21.3921C25.4625 21.3941 25.4625 21.3962 25.4625 21.3982C25.4625 21.4003 25.4625 21.4024 25.4625 21.4044C25.4625 21.4065 25.4625 21.4085 25.4625 21.4106C25.4625 21.4126 25.4625 21.4147 25.4625 21.4168C25.4625 21.4188 25.4625 21.4209 25.4625 21.4229C25.4625 21.425 25.4625 21.4271 25.4625 21.4291C25.4625 21.4312 25.4625 21.4333 25.4625 21.4353C25.4625 21.4374 25.4625 21.4395 25.4625 21.4415C25.4625 21.4436 25.4625 21.4457 25.4625 21.4478C25.4625 21.4498 25.4625 21.4519 25.4625 21.454C25.4625 21.4561 25.4625 21.4581 25.4625 21.4602C25.4625 21.4623 25.4625 21.4644 25.4625 21.4665C25.4625 21.4685 25.4625 21.4706 25.4625 21.4727C25.4625 21.4748 25.4625 21.4769 25.4625 21.479C25.4625 21.4811 25.4625 21.4831 25.4625 21.4852C25.4625 21.4873 25.4625 21.4894 25.4625 21.4915C25.4625 21.4936 25.4625 21.4957 25.4625 21.4978C25.4625 21.4999 25.4625 21.502 25.4625 21.5041C25.4625 21.5062 25.4625 21.5083 25.4625 21.5104C25.4625 21.5125 25.4625 21.5146 25.4625 21.5167C25.4625 21.5188 25.4625 21.5209 25.4625 21.523C25.4625 21.5251 25.4625 21.5272 25.4625 21.5293C25.4625 21.5314 25.4625 21.5335 25.4625 21.5356C25.4625 21.5377 25.4625 21.5399 25.4625 21.542C25.4625 21.5441 25.4625 21.5462 25.4625 21.5483C25.4625 21.5504 25.4625 21.5525 25.4625 21.5547C25.4625 21.5568 25.4625 21.5589 25.4625 21.561C25.4625 21.5631 25.4625 21.5653 25.4625 21.5674C25.4625 21.5695 25.4625 21.5716 25.4625 21.5738C25.4625 21.5759 25.4625 21.578 25.4625 21.5801C25.4625 21.5823 25.4625 21.5844 25.4625 21.5865C25.4625 21.5886 25.4625 21.5908 25.4625 21.5929C25.4625 21.595 25.4625 21.5972 25.4625 21.5993C25.4625 21.6015 25.4625 21.6036 25.4625 21.6057C25.4625 21.6079 25.4625 21.61 25.4625 21.6121C25.4625 21.6143 25.4625 21.6164 25.4625 21.6186C25.4625 21.6207 25.4625 21.6229 25.4625 21.625H27.1625C27.1625 21.6229 27.1625 21.6207 27.1625 21.6186C27.1625 21.6164 27.1625 21.6143 27.1625 21.6121C27.1625 21.61 27.1625 21.6079 27.1625 21.6057C27.1625 21.6036 27.1625 21.6015 27.1625 21.5993C27.1625 21.5972 27.1625 21.595 27.1625 21.5929C27.1625 21.5908 27.1625 21.5886 27.1625 21.5865C27.1625 21.5844 27.1625 21.5823 27.1625 21.5801C27.1625 21.578 27.1625 21.5759 27.1625 21.5738C27.1625 21.5716 27.1625 21.5695 27.1625 21.5674C27.1625 21.5653 27.1625 21.5631 27.1625 21.561C27.1625 21.5589 27.1625 21.5568 27.1625 21.5547C27.1625 21.5525 27.1625 21.5504 27.1625 21.5483C27.1625 21.5462 27.1625 21.5441 27.1625 21.542C27.1625 21.5399 27.1625 21.5377 27.1625 21.5356C27.1625 21.5335 27.1625 21.5314 27.1625 21.5293C27.1625 21.5272 27.1625 21.5251 27.1625 21.523C27.1625 21.5209 27.1625 21.5188 27.1625 21.5167C27.1625 21.5146 27.1625 21.5125 27.1625 21.5104C27.1625 21.5083 27.1625 21.5062 27.1625 21.5041C27.1625 21.502 27.1625 21.4999 27.1625 21.4978C27.1625 21.4957 27.1625 21.4936 27.1625 21.4915C27.1625 21.4894 27.1625 21.4873 27.1625 21.4852C27.1625 21.4831 27.1625 21.4811 27.1625 21.479C27.1625 21.4769 27.1625 21.4748 27.1625 21.4727C27.1625 21.4706 27.1625 21.4685 27.1625 21.4665C27.1625 21.4644 27.1625 21.4623 27.1625 21.4602C27.1625 21.4581 27.1625 21.4561 27.1625 21.454C27.1625 21.4519 27.1625 21.4498 27.1625 21.4478C27.1625 21.4457 27.1625 21.4436 27.1625 21.4415C27.1625 21.4395 27.1625 21.4374 27.1625 21.4353C27.1625 21.4333 27.1625 21.4312 27.1625 21.4291C27.1625 21.4271 27.1625 21.425 27.1625 21.4229C27.1625 21.4209 27.1625 21.4188 27.1625 21.4168C27.1625 21.4147 27.1625 21.4126 27.1625 21.4106C27.1625 21.4085 27.1625 21.4065 27.1625 21.4044C27.1625 21.4024 27.1625 21.4003 27.1625 21.3982C27.1625 21.3962 27.1625 21.3941 27.1625 21.3921C27.1625 21.39 27.1625 21.388 27.1625 21.3859C27.1625 21.3839 27.1625 21.3819 27.1625 21.3798C27.1625 21.3778 27.1625 21.3757 27.1625 21.3737C27.1625 21.3716 27.1625 21.3696 27.1625 21.3676C27.1625 21.3655 27.1625 21.3635 27.1625 21.3614C27.1625 21.3594 27.1625 21.3574 27.1625 21.3553C27.1625 21.3533 27.1625 21.3513 27.1625 21.3492C27.1625 21.3472 27.1625 21.3452 27.1625 21.3432C27.1625 21.3411 27.1625 21.3391 27.1625 21.3371C27.1625 21.3351 27.1625 21.333 27.1625 21.331C27.1625 21.329 27.1625 21.327 27.1625 21.3249C27.1625 21.3229 27.1625 21.3209 27.1625 21.3189C27.1625 21.3169 27.1625 21.3149 27.1625 21.3128C27.1625 21.3108 27.1625 21.3088 27.1625 21.3068C27.1625 21.3048 27.1625 21.3028 27.1625 21.3008C27.1625 21.2988 27.1625 21.2968 27.1625 21.2948C27.1625 21.2928 27.1625 21.2907 27.1625 21.2887C27.1625 21.2867 27.1625 21.2847 27.1625 21.2827C27.1625 21.2807 27.1625 21.2787 27.1625 21.2767C27.1625 21.2747 27.1625 21.2728 27.1625 21.2708C27.1625 21.2688 27.1625 21.2668 27.1625 21.2648C27.1625 21.2628 27.1625 21.2608 27.1625 21.2588C27.1625 21.2568 27.1625 21.2548 27.1625 21.2528C27.1625 21.2509 27.1625 21.2489 27.1625 21.2469C27.1625 21.2449 27.1625 21.2429 27.1625 21.2409C27.1625 21.239 27.1625 21.237 27.1625 21.235C27.1625 21.233 27.1625 21.2311 27.1625 21.2291C27.1625 21.2271 27.1625 21.2251 27.1625 21.2232C27.1625 21.2212 27.1625 21.2192 27.1625 21.2173C27.1625 21.2153 27.1625 21.2133 27.1625 21.2114C27.1625 21.2094 27.1625 21.2074 27.1625 21.2055C27.1625 21.2035 27.1625 21.2015 27.1625 21.1996C27.1625 21.1976 27.1625 21.1957 27.1625 21.1937C27.1625 21.1917 27.1625 21.1898 27.1625 21.1878C27.1625 21.1859 27.1625 21.1839 27.1625 21.182C27.1625 21.18 27.1625 21.1781 27.1625 21.1761C27.1625 21.1742 27.1625 21.1722 27.1625 21.1703C27.1625 21.1684 27.1625 21.1664 27.1625 21.1645C27.1625 21.1625 27.1625 21.1606 27.1625 21.1586C27.1625 21.1567 27.1625 21.1548 27.1625 21.1528C27.1625 21.1509 27.1625 21.149 27.1625 21.147C27.1625 21.1451 27.1625 21.1432 27.1625 21.1412C27.1625 21.1393 27.1625 21.1374 27.1625 21.1354C27.1625 21.1335 27.1625 21.1316 27.1625 21.1297C27.1625 21.1277 27.1625 21.1258 27.1625 21.1239C27.1625 21.122 27.1625 21.1201 27.1625 21.1181C27.1625 21.1162 27.1625 21.1143 27.1625 21.1124C27.1625 21.1105 27.1625 21.1086 27.1625 21.1067C27.1625 21.1047 27.1625 21.1028 27.1625 21.1009C27.1625 21.099 27.1625 21.0971 27.1625 21.0952C27.1625 21.0933 27.1625 21.0914 27.1625 21.0895C27.1625 21.0876 27.1625 21.0857 27.1625 21.0838C27.1625 21.0819 27.1625 21.08 27.1625 21.0781C27.1625 21.0762 27.1625 21.0743 27.1625 21.0724C27.1625 21.0705 27.1625 21.0686 27.1625 21.0667C27.1625 21.0648 27.1625 21.0629 27.1625 21.0611C27.1625 21.0592 27.1625 21.0573 27.1625 21.0554C27.1625 21.0535 27.1625 21.0516 27.1625 21.0497C27.1625 21.0479 27.1625 21.046 27.1625 21.0441C27.1625 21.0422 27.1625 21.0404 27.1625 21.0385C27.1625 21.0366 27.1625 21.0347 27.1625 21.0329C27.1625 21.031 27.1625 21.0291 27.1625 21.0272C27.1625 21.0254 27.1625 21.0235 27.1625 21.0216C27.1625 21.0198 27.1625 21.0179 27.1625 21.016C27.1625 21.0142 27.1625 21.0123 27.1625 21.0105C27.1625 21.0086 27.1625 21.0067 27.1625 21.0049C27.1625 21.003 27.1625 21.0012 27.1625 20.9993C27.1625 20.9975 27.1625 20.9956 27.1625 20.9938C27.1625 20.9919 27.1625 20.9901 27.1625 20.9882C27.1625 20.9864 27.1625 20.9845 27.1625 20.9827C27.1625 20.9808 27.1625 20.979 27.1625 20.9772C27.1625 20.9753 27.1625 20.9735 27.1625 20.9716C27.1625 20.9698 27.1625 20.968 27.1625 20.9661C27.1625 20.9643 27.1625 20.9625 27.1625 20.9606C27.1625 20.9588 27.1625 20.957 27.1625 20.9552C27.1625 20.9533 27.1625 20.9515 27.1625 20.9497C27.1625 20.9478 27.1625 20.946 27.1625 20.9442C27.1625 20.9424 27.1625 20.9406 27.1625 20.9387C27.1625 20.9369 27.1625 20.9351 27.1625 20.9333C27.1625 20.9315 27.1625 20.9297 27.1625 20.9279C27.1625 20.926 27.1625 20.9242 27.1625 20.9224C27.1625 20.9206 27.1625 20.9188 27.1625 20.917C27.1625 20.9152 27.1625 20.9134 27.1625 20.9116C27.1625 20.9098 27.1625 20.908 27.1625 20.9062C27.1625 20.9044 27.1625 20.9026 27.1625 20.9008C27.1625 20.899 27.1625 20.8972 27.1625 20.8954C27.1625 20.8936 27.1625 20.8918 27.1625 20.8901C27.1625 20.8883 27.1625 20.8865 27.1625 20.8847C27.1625 20.8829 27.1625 20.8811 27.1625 20.8793C27.1625 20.8776 27.1625 20.8758 27.1625 20.874C27.1625 20.8722 27.1625 20.8704 27.1625 20.8687C27.1625 20.8669 27.1625 20.8651 27.1625 20.8633C27.1625 20.8616 27.1625 20.8598 27.1625 20.858C27.1625 20.8563 27.1625 20.8545 27.1625 20.8527C27.1625 20.851 27.1625 20.8492 27.1625 20.8474C27.1625 20.8457 27.1625 20.8439 27.1625 20.8422C27.1625 20.8404 27.1625 20.8386 27.1625 20.8369C27.1625 20.8351 27.1625 20.8334 27.1625 20.8316C27.1625 20.8299 27.1625 20.8281 27.1625 20.8264C27.1625 20.8246 27.1625 20.8229 27.1625 20.8211C27.1625 20.8194 27.1625 20.8176 27.1625 20.8159C27.1625 20.8142 27.1625 20.8124 27.1625 20.8107C27.1625 20.8089 27.1625 20.8072 27.1625 20.8055C27.1625 20.8037 27.1625 20.802 27.1625 20.8003C27.1625 20.7985 27.1625 20.7968 27.1625 20.7951C27.1625 20.7934 27.1625 20.7916 27.1625 20.7899C27.1625 20.7882 27.1625 20.7865 27.1625 20.7847C27.1625 20.783 27.1625 20.7813 27.1625 20.7796C27.1625 20.7779 27.1625 20.7761 27.1625 20.7744C27.1625 20.7727 27.1625 20.771 27.1625 20.7693C27.1625 20.7676 27.1625 20.7659 27.1625 20.7642C27.1625 20.7624 27.1625 20.7607 27.1625 20.759C27.1625 20.7573 27.1625 20.7556 27.1625 20.7539C27.1625 20.7522 27.1625 20.7505 27.1625 20.7488C27.1625 20.7471 27.1625 20.7454 27.1625 20.7437C27.1625 20.7421 27.1625 20.7404 27.1625 20.7387C27.1625 20.737 27.1625 20.7353 27.1625 20.7336C27.1625 20.7319 27.1625 20.7302 27.1625 20.7285C27.1625 20.7269 27.1625 20.7252 27.1625 20.7235C27.1625 20.7218 27.1625 20.7201 27.1625 20.7185C27.1625 20.7168 27.1625 20.7151 27.1625 20.7134C27.1625 20.7118 27.1625 20.7101 27.1625 20.7084C27.1625 20.7068 27.1625 20.7051 27.1625 20.7034C27.1625 20.7018 27.1625 20.7001 27.1625 20.6984C27.1625 20.6968 27.1625 20.6951 27.1625 20.6935C27.1625 20.6918 27.1625 20.6901 27.1625 20.6885C27.1625 20.6868 27.1625 20.6852 27.1625 20.6835C27.1625 20.6819 27.1625 20.6802 27.1625 20.6786C27.1625 20.6769 27.1625 20.6753 27.1625 20.6736C27.1625 20.672 27.1625 20.6704 27.1625 20.6687C27.1625 20.6671 27.1625 20.6654 27.1625 20.6638C27.1625 20.6622 27.1625 20.6605 27.1625 20.6589C27.1625 20.6573 27.1625 20.6556 27.1625 20.654C27.1625 20.6524 27.1625 20.6507 27.1625 20.6491C27.1625 20.6475 27.1625 20.6459 27.1625 20.6442C27.1625 20.6426 27.1625 20.641 27.1625 20.6394C27.1625 20.6378 27.1625 20.6361 27.1625 20.6345C27.1625 20.6329 27.1625 20.6313 27.1625 20.6297C27.1625 20.6281 27.1625 20.6265 27.1625 20.6248C27.1625 20.6232 27.1625 20.6216 27.1625 20.62C27.1625 20.6184 27.1625 20.6168 27.1625 20.6152C27.1625 20.6136 27.1625 20.612 27.1625 20.6104C27.1625 20.6088 27.1625 20.6072 27.1625 20.6056C27.1625 20.604 27.1625 20.6024 27.1625 20.6009C27.1625 20.5993 27.1625 20.5977 27.1625 20.5961C27.1625 20.5945 27.1625 20.5929 27.1625 20.5913C27.1625 20.5898 27.1625 20.5882 27.1625 20.5866C27.1625 20.585 27.1625 20.5834 27.1625 20.5819C27.1625 20.5803 27.1625 20.5787 27.1625 20.5772C27.1625 20.5756 27.1625 20.574 27.1625 20.5724C27.1625 20.5709 27.1625 20.5693 27.1625 20.5677C27.1625 20.5662 27.1625 20.5646 27.1625 20.5631C27.1625 20.5615 27.1625 20.5599 27.1625 20.5584C27.1625 20.5568 27.1625 20.5553 27.1625 20.5537C27.1625 20.5522 27.1625 20.5506 27.1625 20.5491C27.1625 20.5475 27.1625 20.546 27.1625 20.5444C27.1625 20.5429 27.1625 20.5413 27.1625 20.5398C27.1625 20.5383 27.1625 20.5367 27.1625 20.5352C27.1625 20.5336 27.1625 20.5321 27.1625 20.5306C27.1625 20.529 27.1625 20.5275 27.1625 20.526C27.1625 20.5244 27.1625 20.5229 27.1625 20.5214C27.1625 20.5199 27.1625 20.5183 27.1625 20.5168C27.1625 20.5153 27.1625 20.5138 27.1625 20.5123C27.1625 20.5107 27.1625 20.5092 27.1625 20.5077C27.1625 20.5062 27.1625 20.5047 27.1625 20.5032C27.1625 20.5016 27.1625 20.5001 27.1625 20.4986C27.1625 20.4971 27.1625 20.4956 27.1625 20.4941C27.1625 20.4926 27.1625 20.4911 27.1625 20.4896C27.1625 20.4881 27.1625 20.4866 27.1625 20.4851C27.1625 20.4836 27.1625 20.4821 27.1625 20.4806C27.1625 20.4791 27.1625 20.4777 27.1625 20.4762C27.1625 20.4747 27.1625 20.4732 27.1625 20.4717C27.1625 20.4702 27.1625 20.4687 27.1625 20.4673C27.1625 20.4658 27.1625 20.4643 27.1625 20.4628C27.1625 20.4614 27.1625 20.4599 27.1625 20.4584C27.1625 20.4569 27.1625 20.4555 27.1625 20.454C27.1625 20.4525 27.1625 20.4511 27.1625 20.4496C27.1625 20.4481 27.1625 20.4467 27.1625 20.4452C27.1625 20.4437 27.1625 20.4423 27.1625 20.4408C27.1625 20.4394 27.1625 20.4379 27.1625 20.4365C27.1625 20.435 27.1625 20.4336 27.1625 20.4321C27.1625 20.4307 27.1625 20.4292 27.1625 20.4278C27.1625 20.4263 27.1625 20.4249 27.1625 20.4234C27.1625 20.422 27.1625 20.4206 27.1625 20.4191C27.1625 20.4177 27.1625 20.4162 27.1625 20.4148C27.1625 20.4134 27.1625 20.412 27.1625 20.4105C27.1625 20.4091 27.1625 20.4077 27.1625 20.4062C27.1625 20.4048 27.1625 20.4034 27.1625 20.402C27.1625 20.4005 27.1625 20.3991 27.1625 20.3977C27.1625 20.3963 27.1625 20.3949 27.1625 20.3935C27.1625 20.3921 27.1625 20.3906 27.1625 20.3892C27.1625 20.3878 27.1625 20.3864 27.1625 20.385C27.1625 20.3836 27.1625 20.3822 27.1625 20.3808C27.1625 20.3794 27.1625 20.378 27.1625 20.3766C27.1625 20.3752 27.1625 20.3738 27.1625 20.3724C27.1625 20.371 27.1625 20.3696 27.1625 20.3682C27.1625 20.3668 27.1625 20.3655 27.1625 20.3641C27.1625 20.3627 27.1625 20.3613 27.1625 20.3599C27.1625 20.3585 27.1625 20.3572 27.1625 20.3558C27.1625 20.3544 27.1625 20.353 27.1625 20.3517C27.1625 20.3503 27.1625 20.3489 27.1625 20.3476C27.1625 20.3462 27.1625 20.3448 27.1625 20.3435C27.1625 20.3421 27.1625 20.3407 27.1625 20.3394C27.1625 20.338 27.1625 20.3366 27.1625 20.3353C27.1625 20.3339 27.1625 20.3326 27.1625 20.3312C27.1625 20.3299 27.1625 20.3285 27.1625 20.3272C27.1625 20.3258 27.1625 20.3245 27.1625 20.3231C27.1625 20.3218 27.1625 20.3204 27.1625 20.3191C27.1625 20.3178 27.1625 20.3164 27.1625 20.3151C27.1625 20.3137 27.1625 20.3124 27.1625 20.3111C27.1625 20.3098 27.1625 20.3084 27.1625 20.3071C27.1625 20.3058 27.1625 20.3044 27.1625 20.3031C27.1625 20.3018 27.1625 20.3005 27.1625 20.2992C27.1625 20.2978 27.1625 20.2965 27.1625 20.2952C27.1625 20.2939 27.1625 20.2926 27.1625 20.2913C27.1625 20.2899 27.1625 20.2886 27.1625 20.2873C27.1625 20.286 27.1625 20.2847 27.1625 20.2834C27.1625 20.2821 27.1625 20.2808 27.1625 20.2795C27.1625 20.2782 27.1625 20.2769 27.1625 20.2756C27.1625 20.2743 27.1625 20.273 27.1625 20.2717C27.1625 20.2705 27.1625 20.2692 27.1625 20.2679C27.1625 20.2666 27.1625 20.2653 27.1625 20.264C27.1625 20.2627 27.1625 20.2615 27.1625 20.2602C27.1625 20.2589 27.1625 20.2576 27.1625 20.2564C27.1625 20.2551 27.1625 20.2538 27.1625 20.2525C27.1625 20.2513 27.1625 20.25 27.1625 20.2487C27.1625 20.2475 27.1625 20.2462 27.1625 20.2449C27.1625 20.2437 27.1625 20.2424 27.1625 20.2412C27.1625 20.2399 27.1625 20.2387 27.1625 20.2374C27.1625 20.2362 27.1625 20.2349 27.1625 20.2337C27.1625 20.2324 27.1625 20.2312 27.1625 20.2299C27.1625 20.2287 27.1625 20.2274 27.1625 20.2262C27.1625 20.225 27.1625 20.2237 27.1625 20.2225C27.1625 20.2212 27.1625 20.22 27.1625 20.2188C27.1625 20.2176 27.1625 20.2163 27.1625 20.2151C27.1625 20.2139 27.1625 20.2126 27.1625 20.2114C27.1625 20.2102 27.1625 20.209 27.1625 20.2078C27.1625 20.2065 27.1625 20.2053 27.1625 20.2041C27.1625 20.2029 27.1625 20.2017 27.1625 20.2005C27.1625 20.1993 27.1625 20.1981 27.1625 20.1969C27.1625 20.1956 27.1625 20.1944 27.1625 20.1932C27.1625 20.192 27.1625 20.1908 27.1625 20.1896C27.1625 20.1884 27.1625 20.1873 27.1625 20.1861C27.1625 20.1849 27.1625 20.1837 27.1625 20.1825C27.1625 20.1813 27.1625 20.1801 27.1625 20.1789C27.1625 20.1778 27.1625 20.1766 27.1625 20.1754C27.1625 20.1742 27.1625 20.173 27.1625 20.1719C27.1625 20.1707 27.1625 20.1695 27.1625 20.1683C27.1625 20.1672 27.1625 20.166 27.1625 20.1648C27.1625 20.1637 27.1625 20.1625 27.1625 20.1613C27.1625 20.1602 27.1625 20.159 27.1625 20.1579C27.1625 20.1567 27.1625 20.1556 27.1625 20.1544C27.1625 20.1533 27.1625 20.1521 27.1625 20.151C27.1625 20.1498 27.1625 20.1487 27.1625 20.1475C27.1625 20.1464 27.1625 20.1452 27.1625 20.1441C27.1625 20.143 27.1625 20.1418 27.1625 20.1407C27.1625 20.1395 27.1625 20.1384 27.1625 20.1373C27.1625 20.1361 27.1625 20.135 27.1625 20.1339C27.1625 20.1328 27.1625 20.1316 27.1625 20.1305C27.1625 20.1294 27.1625 20.1283 27.1625 20.1272C27.1625 20.126 27.1625 20.1249 27.1625 20.1238C27.1625 20.1227 27.1625 20.1216 27.1625 20.1205C27.1625 20.1194 27.1625 20.1183 27.1625 20.1172C27.1625 20.1161 27.1625 20.115 27.1625 20.1139C27.1625 20.1128 27.1625 20.1117 27.1625 20.1106C27.1625 20.1095 27.1625 20.1084 27.1625 20.1073C27.1625 20.1062 27.1625 20.1051 27.1625 20.104C27.1625 20.1029 27.1625 20.1019 27.1625 20.1008C27.1625 20.0997 27.1625 20.0986 27.1625 20.0975C27.1625 20.0965 27.1625 20.0954 27.1625 20.0943C27.1625 20.0932 27.1625 20.0922 27.1625 20.0911C27.1625 20.09 27.1625 20.089 27.1625 20.0879C27.1625 20.0868 27.1625 20.0858 27.1625 20.0847C27.1625 20.0837 27.1625 20.0826 27.1625 20.0816C27.1625 20.0805 27.1625 20.0795 27.1625 20.0784C27.1625 20.0774 27.1625 20.0763 27.1625 20.0753C27.1625 20.0742 27.1625 20.0732 27.1625 20.0721C27.1625 20.0711 27.1625 20.0701 27.1625 20.069C27.1625 20.068 27.1625 20.067 27.1625 20.0659C27.1625 20.0649 27.1625 20.0639 27.1625 20.0628C27.1625 20.0618 27.1625 20.0608 27.1625 20.0598C27.1625 20.0587 27.1625 20.0577 27.1625 20.0567C27.1625 20.0557 27.1625 20.0547 27.1625 20.0537C27.1625 20.0526 27.1625 20.0516 27.1625 20.0506C27.1625 20.0496 27.1625 20.0486 27.1625 20.0476C27.1625 20.0466 27.1625 20.0456 27.1625 20.0446C27.1625 20.0436 27.1625 20.0426 27.1625 20.0416C27.1625 20.0406 27.1625 20.0396 27.1625 20.0386C27.1625 20.0377 27.1625 20.0367 27.1625 20.0357C27.1625 20.0347 27.1625 20.0337 27.1625 20.0327C27.1625 20.0318 27.1625 20.0308 27.1625 20.0298C27.1625 20.0288 27.1625 20.0278 27.1625 20.0269C27.1625 20.0259 27.1625 20.0249 27.1625 20.024C27.1625 20.023 27.1625 20.022 27.1625 20.0211C27.1625 20.0201 27.1625 20.0192 27.1625 20.0182C27.1625 20.0172 27.1625 20.0163 27.1625 20.0153C27.1625 20.0144 27.1625 20.0134 27.1625 20.0125C27.1625 20.0115 27.1625 20.0106 27.1625 20.0097C27.1625 20.0087 27.1625 20.0078 27.1625 20.0068C27.1625 20.0059 27.1625 20.005 27.1625 20.004C27.1625 20.0031 27.1625 20.0022 27.1625 20.0012C27.1625 20.0003 27.1625 19.9994 27.1625 19.9985C27.1625 19.9975 27.1625 19.9966 27.1625 19.9957C27.1625 19.9948 27.1625 19.9939 27.1625 19.9929C27.1625 19.992 27.1625 19.9911 27.1625 19.9902C27.1625 19.9893 27.1625 19.9884 27.1625 19.9875C27.1625 19.9866 27.1625 19.9857 27.1625 19.9848C27.1625 19.9839 27.1625 19.983 27.1625 19.9821C27.1625 19.9812 27.1625 19.9803 27.1625 19.9794C27.1625 19.9785 27.1625 19.9776 27.1625 19.9768C27.1625 19.9759 27.1625 19.975 27.1625 19.9741C27.1625 19.9732 27.1625 19.9723 27.1625 19.9715C27.1625 19.9706 27.1625 19.9697 27.1625 19.9688C27.1625 19.968 27.1625 19.9671 27.1625 19.9662C27.1625 19.9654 27.1625 19.9645 27.1625 19.9636C27.1625 19.9628 27.1625 19.9619 27.1625 19.9611C27.1625 19.9602 27.1625 19.9594 27.1625 19.9585C27.1625 19.9577 27.1625 19.9568 27.1625 19.956C27.1625 19.9551 27.1625 19.9543 27.1625 19.9534C27.1625 19.9526 27.1625 19.9517 27.1625 19.9509C27.1625 19.9501 27.1625 19.9492 27.1625 19.9484C27.1625 19.9476 27.1625 19.9467 27.1625 19.9459C27.1625 19.9451 27.1625 19.9443 27.1625 19.9434C27.1625 19.9426 27.1625 19.9418 27.1625 19.941C27.1625 19.9402 27.1625 19.9394 27.1625 19.9385C27.1625 19.9377 27.1625 19.9369 27.1625 19.9361C27.1625 19.9353 27.1625 19.9345 27.1625 19.9337C27.1625 19.9329 27.1625 19.9321 27.1625 19.9313C27.1625 19.9305 27.1625 19.9297 27.1625 19.9289C27.1625 19.9281 27.1625 19.9273 27.1625 19.9265C27.1625 19.9257 27.1625 19.925 27.1625 19.9242C27.1625 19.9234 27.1625 19.9226 27.1625 19.9218C27.1625 19.9211 27.1625 19.9203 27.1625 19.9195C27.1625 19.9187 27.1625 19.918 27.1625 19.9172C27.1625 19.9164 27.1625 19.9157 27.1625 19.9149C27.1625 19.9141 27.1625 19.9134 27.1625 19.9126C27.1625 19.9119 27.1625 19.9111 27.1625 19.9104C27.1625 19.9096 27.1625 19.9089 27.1625 19.9081C27.1625 19.9074 27.1625 19.9066 27.1625 19.9059C27.1625 19.9051 27.1625 19.9044 27.1625 19.9036C27.1625 19.9029 27.1625 19.9022 27.1625 19.9014C27.1625 19.9007 27.1625 19.9 27.1625 19.8992C27.1625 19.8985 27.1625 19.8978 27.1625 19.8971C27.1625 19.8963 27.1625 19.8956 27.1625 19.8949C27.1625 19.8942 27.1625 19.8935 27.1625 19.8928C27.1625 19.892 27.1625 19.8913 27.1625 19.8906C27.1625 19.8899 27.1625 19.8892 27.1625 19.8885C27.1625 19.8878 27.1625 19.8871 27.1625 19.8864C27.1625 19.8857 27.1625 19.885 27.1625 19.8843C27.1625 19.8836 27.1625 19.8829 27.1625 19.8823C27.1625 19.8816 27.1625 19.8809 27.1625 19.8802C27.1625 19.8795 27.1625 19.8788 27.1625 19.8782C27.1625 19.8775 27.1625 19.8768 27.1625 19.8761C27.1625 19.8755 27.1625 19.8748 27.1625 19.8741C27.1625 19.8735 27.1625 19.8728 27.1625 19.8721C27.1625 19.8715 27.1625 19.8708 27.1625 19.8702C27.1625 19.8695 27.1625 19.8688 27.1625 19.8682C27.1625 19.8675 27.1625 19.8669 27.1625 19.8662C27.1625 19.8656 27.1625 19.8649 27.1625 19.8643C27.1625 19.8637 27.1625 19.863 27.1625 19.8624C27.1625 19.8618 27.1625 19.8611 27.1625 19.8605C27.1625 19.8599 27.1625 19.8592 27.1625 19.8586C27.1625 19.858 27.1625 19.8574 27.1625 19.8567C27.1625 19.8561 27.1625 19.8555 27.1625 19.8549C27.1625 19.8543 27.1625 19.8536 27.1625 19.853C27.1625 19.8524 27.1625 19.8518 27.1625 19.8512C27.1625 19.8506 27.1625 19.85 27.1625 19.8494C27.1625 19.8488 27.1625 19.8482 27.1625 19.8476C27.1625 19.847 27.1625 19.8464 27.1625 19.8458C27.1625 19.8452 27.1625 19.8447 27.1625 19.8441C27.1625 19.8435 27.1625 19.8429 27.1625 19.8423C27.1625 19.8417 27.1625 19.8412 27.1625 19.8406C27.1625 19.84 27.1625 19.8394 27.1625 19.8389C27.1625 19.8383 27.1625 19.8377 27.1625 19.8372C27.1625 19.8366 27.1625 19.8361 27.1625 19.8355C27.1625 19.8349 27.1625 19.8344 27.1625 19.8338C27.1625 19.8333 27.1625 19.8327 27.1625 19.8322C27.1625 19.8316 27.1625 19.8311 27.1625 19.8305C27.1625 19.83 27.1625 19.8295 27.1625 19.8289C27.1625 19.8284 27.1625 19.8278 27.1625 19.8273C27.1625 19.8268 27.1625 19.8262 27.1625 19.8257C27.1625 19.8252 27.1625 19.8247 27.1625 19.8241C27.1625 19.8236 27.1625 19.8231 27.1625 19.8226C27.1625 19.8221 27.1625 19.8216 27.1625 19.821C27.1625 19.8205 27.1625 19.82 27.1625 19.8195C27.1625 19.819 27.1625 19.8185 27.1625 19.818C27.1625 19.8175 27.1625 19.817 27.1625 19.8165C27.1625 19.816 27.1625 19.8155 27.1625 19.815C27.1625 19.8146 27.1625 19.8141 27.1625 19.8136C27.1625 19.8131 27.1625 19.8126 27.1625 19.8121C27.1625 19.8117 27.1625 19.8112 27.1625 19.8107C27.1625 19.8102 27.1625 19.8098 27.1625 19.8093C27.1625 19.8088 27.1625 19.8084 27.1625 19.8079C27.1625 19.8074 27.1625 19.807 27.1625 19.8065C27.1625 19.8061 27.1625 19.8056 27.1625 19.8051C27.1625 19.8047 27.1625 19.8042 27.1625 19.8038C27.1625 19.8034 27.1625 19.8029 27.1625 19.8025C27.1625 19.802 27.1625 19.8016 27.1625 19.8011C27.1625 19.8007 27.1625 19.8003 27.1625 19.7998C27.1625 19.7994 27.1625 19.799 27.1625 19.7986C27.1625 19.7981 27.1625 19.7977 27.1625 19.7973C27.1625 19.7969 27.1625 19.7965 27.1625 19.796C27.1625 19.7956 27.1625 19.7952 27.1625 19.7948C27.1625 19.7944 27.1625 19.794 27.1625 19.7936C27.1625 19.7932 27.1625 19.7928 27.1625 19.7924C27.1625 19.792 27.1625 19.7916 27.1625 19.7912C27.1625 19.7908 27.1625 19.7904 27.1625 19.79C27.1625 19.7896 27.1625 19.7893 27.1625 19.7889C27.1625 19.7885 27.1625 19.7881 27.1625 19.7877C27.1625 19.7874 27.1625 19.787 27.1625 19.7866C27.1625 19.7863 27.1625 19.7859 27.1625 19.7855C27.1625 19.7852 27.1625 19.7848 27.1625 19.7844C27.1625 19.7841 27.1625 19.7837 27.1625 19.7834C27.1625 19.783 27.1625 19.7827 27.1625 19.7823C27.1625 19.782 27.1625 19.7816 27.1625 19.7813C27.1625 19.7809 27.1625 19.7806 27.1625 19.7802C27.1625 19.7799 27.1625 19.7796 27.1625 19.7792C27.1625 19.7789 27.1625 19.7786 27.1625 19.7782C27.1625 19.7779 27.1625 19.7776 27.1625 19.7773C27.1625 19.777 27.1625 19.7766 27.1625 19.7763C27.1625 19.776 27.1625 19.7757 27.1625 19.7754C27.1625 19.7751 27.1625 19.7748 27.1625 19.7745C27.1625 19.7742 27.1625 19.7739 27.1625 19.7736C27.1625 19.7733 27.1625 19.773 27.1625 19.7727C27.1625 19.7724 27.1625 19.7721 27.1625 19.7718C27.1625 19.7715 27.1625 19.7712 27.1625 19.7709C27.1625 19.7707 27.1625 19.7704 27.1625 19.7701C27.1625 19.7698 27.1625 19.7696 27.1625 19.7693C27.1625 19.769 27.1625 19.7687 27.1625 19.7685C27.1625 19.7682 27.1625 19.768 27.1625 19.7677C27.1625 19.7674 27.1625 19.7672 27.1625 19.7669C27.1625 19.7667 27.1625 19.7664 27.1625 19.7662C27.1625 19.7659 27.1625 19.7657 27.1625 19.7654C27.1625 19.7652 27.1625 19.7649 27.1625 19.7647C27.1625 19.7645 27.1625 19.7642 27.1625 19.764C27.1625 19.7638 27.1625 19.7635 27.1625 19.7633C27.1625 19.7631 27.1625 19.7629 27.1625 19.7626C27.1625 19.7624 27.1625 19.7622 27.1625 19.762C27.1625 19.7618 27.1625 19.7616 27.1625 19.7614C27.1625 19.7612 27.1625 19.7609 27.1625 19.7607C27.1625 19.7605 27.1625 19.7603 27.1625 19.7601C27.1625 19.7599 27.1625 19.7597 27.1625 19.7596C27.1625 19.7594 27.1625 19.7592 27.1625 19.759C27.1625 19.7588 27.1625 19.7586 27.1625 19.7584C27.1625 19.7583 27.1625 19.7581 27.1625 19.7579C27.1625 19.7577 27.1625 19.7576 27.1625 19.7574C27.1625 19.7572 27.1625 19.7571 27.1625 19.7569C27.1625 19.7567 27.1625 19.7566 27.1625 19.7564C27.1625 19.7563 27.1625 19.7561 27.1625 19.7559C27.1625 19.7558 27.1625 19.7556 27.1625 19.7555C27.1625 19.7554 27.1625 19.7552 27.1625 19.7551C27.1625 19.7549 27.1625 19.7548 27.1625 19.7547C27.1625 19.7545 27.1625 19.7544 27.1625 19.7543C27.1625 19.7541 27.1625 19.754 27.1625 19.7539C27.1625 19.7538 27.1625 19.7536 27.1625 19.7535C27.1625 19.7534 27.1625 19.7533 27.1625 19.7532C27.1625 19.7531 27.1625 19.753 27.1625 19.7529C27.1625 19.7528 27.1625 19.7527 27.1625 19.7526C27.1625 19.7525 27.1625 19.7524 27.1625 19.7523C27.1625 19.7522 27.1625 19.7521 27.1625 19.752C27.1625 19.7519 27.1625 19.7518 27.1625 19.7517C27.1625 19.7516 27.1625 19.7516 27.1625 19.7515C27.1625 19.7514 27.1625 19.7513 27.1625 19.7513C27.1625 19.7512 27.1625 19.7511 27.1625 19.7511C27.1625 19.751 27.1625 19.7509 27.1625 19.7509C27.1625 19.7508 27.1625 19.7508 27.1625 19.7507C27.1625 19.7507 27.1625 19.7506 27.1625 19.7506C27.1625 19.7505 27.1625 19.7505 27.1625 19.7504C27.1625 19.7504 27.1625 19.7504 27.1625 19.7503C27.1625 19.7503 27.1625 19.7503 27.1625 19.7502C27.1625 19.7502 27.1625 19.7502 27.1625 19.7501C27.1625 19.7501 27.1625 19.7501 27.1625 19.7501C27.1625 19.7501 27.1625 19.75 27.1625 19.75C27.1625 19.75 27.1625 19.75 27.1625 19.75C27.1625 19.75 27.1625 19.75 26.3125 19.75ZM6.5375 21.625V19.75H4.8375V21.625H6.5375ZM22.5625 16.85C24.1641 16.85 25.4625 18.1484 25.4625 19.75H27.1625C27.1625 17.2095 25.103 15.15 22.5625 15.15V16.85ZM9.4375 15.15C6.89699 15.15 4.8375 17.2095 4.8375 19.75H6.5375C6.5375 18.1484 7.83587 16.85 9.4375 16.85V15.15ZM25.375 22.475H27.25V20.775H25.375V22.475ZM30.15 25.375V27.25H31.85V25.375H30.15ZM27.25 30.15H25.375V31.85H27.25V30.15ZM22.475 27.25V25.375H20.775V27.25H22.475ZM25.375 30.15C23.7734 30.15 22.475 28.8516 22.475 27.25H20.775C20.775 29.7905 22.8345 31.85 25.375 31.85V30.15ZM30.15 27.25C30.15 28.8516 28.8516 30.15 27.25 30.15V31.85C29.7905 31.85 31.85 29.7905 31.85 27.25H30.15ZM27.25 22.475C28.8516 22.475 30.15 23.7734 30.15 25.375H31.85C31.85 22.8345 29.7905 20.775 27.25 20.775V22.475ZM25.375 20.775C22.8345 20.775 20.775 22.8345 20.775 25.375H22.475C22.475 23.7734 23.7734 22.475 25.375 22.475V20.775ZM15.0625 1.85H16.9375V0.15H15.0625V1.85ZM19.8375 4.75V6.625H21.5375V4.75H19.8375ZM16.9375 9.525H15.0625V11.225H16.9375V9.525ZM12.1625 6.625V4.75H10.4625V6.625H12.1625ZM15.0625 9.525C13.4609 9.525 12.1625 8.22663 12.1625 6.625H10.4625C10.4625 9.16551 12.522 11.225 15.0625 11.225V9.525ZM19.8375 6.625C19.8375 8.22663 18.5391 9.525 16.9375 9.525V11.225C19.478 11.225 21.5375 9.16551 21.5375 6.625H19.8375ZM16.9375 1.85C18.5391 1.85 19.8375 3.14837 19.8375 4.75H21.5375C21.5375 2.20949 19.478 0.15 16.9375 0.15V1.85ZM15.0625 0.15C12.522 0.15 10.4625 2.20949 10.4625 4.75H12.1625C12.1625 3.14837 13.4609 1.85 15.0625 1.85V0.15ZM4.75 22.475H6.625V20.775H4.75V22.475ZM9.525 25.375V27.25H11.225V25.375H9.525ZM6.625 30.15H4.75V31.85H6.625V30.15ZM1.85 27.25V25.375H0.15V27.25H1.85ZM4.75 30.15C3.14837 30.15 1.85 28.8516 1.85 27.25H0.15C0.15 29.7905 2.20949 31.85 4.75 31.85V30.15ZM9.525 27.25C9.525 28.8516 8.22663 30.15 6.625 30.15V31.85C9.16551 31.85 11.225 29.7905 11.225 27.25H9.525ZM6.625 22.475C8.22663 22.475 9.525 23.7734 9.525 25.375H11.225C11.225 22.8345 9.16551 20.775 6.625 20.775V22.475ZM4.75 20.775C2.20949 20.775 0.15 22.8345 0.15 25.375H1.85C1.85 23.7734 3.14837 22.475 4.75 22.475V20.775ZM15.15 10.375V16H16.85V10.375H15.15ZM26.3125 19.75C27.1625 19.75 27.1625 19.75 27.1625 19.75C26.3125 19.75 25.4625 19.75 25.4625 19.75H27.1625C27.1625 19.75 26.3125 19.75 25.4625 19.75C25.4625 19.75 25.4625 19.75 26.3125 19.75Z" fill="currentColor"/>
</svg>
