<svg viewBox="0 0 24 24" fill="none" xmlns="http://www.w3.org/2000/svg">
    <path d="M12.5 9.75C12.5 9.47386 12.2761 9.25 12 9.25C11.7239 9.25 11.5 9.47386 11.5 9.75H12.5ZM11.5 12C11.5 12.2761 11.7239 12.5 12 12.5C12.2761 12.5 12.5 12.2761 12.5 12H11.5ZM9.375 12.5H14.625V11.5H9.375V12.5ZM16.125 13.5C15.625 13.5 15.625 13.5 15.625 13.5C15.625 13.5 15.625 13.5 15.625 13.5C15.625 13.5 15.625 13.5 15.625 13.5C15.625 13.5 15.625 13.5 15.625 13.5001C15.625 13.5001 15.625 13.5001 15.625 13.5001C15.625 13.5001 15.625 13.5001 15.625 13.5001C15.625 13.5001 15.625 13.5002 15.625 13.5002C15.625 13.5002 15.625 13.5002 15.625 13.5002C15.625 13.5002 15.625 13.5003 15.625 13.5003C15.625 13.5003 15.625 13.5003 15.625 13.5004C15.625 13.5004 15.625 13.5004 15.625 13.5004C15.625 13.5005 15.625 13.5005 15.625 13.5005C15.625 13.5005 15.625 13.5006 15.625 13.5006C15.625 13.5006 15.625 13.5007 15.625 13.5007C15.625 13.5007 15.625 13.5008 15.625 13.5008C15.625 13.5008 15.625 13.5009 15.625 13.5009C15.625 13.5009 15.625 13.501 15.625 13.501C15.625 13.5011 15.625 13.5011 15.625 13.5011C15.625 13.5012 15.625 13.5012 15.625 13.5013C15.625 13.5013 15.625 13.5014 15.625 13.5014C15.625 13.5015 15.625 13.5015 15.625 13.5016C15.625 13.5016 15.625 13.5017 15.625 13.5017C15.625 13.5018 15.625 13.5018 15.625 13.5019C15.625 13.5019 15.625 13.502 15.625 13.502C15.625 13.5021 15.625 13.5021 15.625 13.5022C15.625 13.5023 15.625 13.5023 15.625 13.5024C15.625 13.5024 15.625 13.5025 15.625 13.5026C15.625 13.5026 15.625 13.5027 15.625 13.5028C15.625 13.5028 15.625 13.5029 15.625 13.503C15.625 13.503 15.625 13.5031 15.625 13.5032C15.625 13.5032 15.625 13.5033 15.625 13.5034C15.625 13.5034 15.625 13.5035 15.625 13.5036C15.625 13.5037 15.625 13.5037 15.625 13.5038C15.625 13.5039 15.625 13.504 15.625 13.5041C15.625 13.5041 15.625 13.5042 15.625 13.5043C15.625 13.5044 15.625 13.5045 15.625 13.5045C15.625 13.5046 15.625 13.5047 15.625 13.5048C15.625 13.5049 15.625 13.505 15.625 13.5051C15.625 13.5051 15.625 13.5052 15.625 13.5053C15.625 13.5054 15.625 13.5055 15.625 13.5056C15.625 13.5057 15.625 13.5058 15.625 13.5059C15.625 13.506 15.625 13.5061 15.625 13.5062C15.625 13.5063 15.625 13.5064 15.625 13.5065C15.625 13.5066 15.625 13.5067 15.625 13.5068C15.625 13.5069 15.625 13.507 15.625 13.5071C15.625 13.5072 15.625 13.5073 15.625 13.5074C15.625 13.5075 15.625 13.5076 15.625 13.5077C15.625 13.5078 15.625 13.5079 15.625 13.508C15.625 13.5082 15.625 13.5083 15.625 13.5084C15.625 13.5085 15.625 13.5086 15.625 13.5087C15.625 13.5088 15.625 13.5089 15.625 13.5091C15.625 13.5092 15.625 13.5093 15.625 13.5094C15.625 13.5095 15.625 13.5097 15.625 13.5098C15.625 13.5099 15.625 13.51 15.625 13.5102C15.625 13.5103 15.625 13.5104 15.625 13.5105C15.625 13.5107 15.625 13.5108 15.625 13.5109C15.625 13.511 15.625 13.5112 15.625 13.5113C15.625 13.5114 15.625 13.5116 15.625 13.5117C15.625 13.5118 15.625 13.512 15.625 13.5121C15.625 13.5122 15.625 13.5124 15.625 13.5125C15.625 13.5126 15.625 13.5128 15.625 13.5129C15.625 13.5131 15.625 13.5132 15.625 13.5133C15.625 13.5135 15.625 13.5136 15.625 13.5138C15.625 13.5139 15.625 13.5141 15.625 13.5142C15.625 13.5144 15.625 13.5145 15.625 13.5146C15.625 13.5148 15.625 13.5149 15.625 13.5151C15.625 13.5152 15.625 13.5154 15.625 13.5156C15.625 13.5157 15.625 13.5159 15.625 13.516C15.625 13.5162 15.625 13.5163 15.625 13.5165C15.625 13.5166 15.625 13.5168 15.625 13.517C15.625 13.5171 15.625 13.5173 15.625 13.5174C15.625 13.5176 15.625 13.5178 15.625 13.5179C15.625 13.5181 15.625 13.5183 15.625 13.5184C15.625 13.5186 15.625 13.5188 15.625 13.5189C15.625 13.5191 15.625 13.5193 15.625 13.5194C15.625 13.5196 15.625 13.5198 15.625 13.5199C15.625 13.5201 15.625 13.5203 15.625 13.5205C15.625 13.5206 15.625 13.5208 15.625 13.521C15.625 13.5212 15.625 13.5213 15.625 13.5215C15.625 13.5217 15.625 13.5219 15.625 13.5221C15.625 13.5222 15.625 13.5224 15.625 13.5226C15.625 13.5228 15.625 13.523 15.625 13.5232C15.625 13.5233 15.625 13.5235 15.625 13.5237C15.625 13.5239 15.625 13.5241 15.625 13.5243C15.625 13.5245 15.625 13.5247 15.625 13.5249C15.625 13.525 15.625 13.5252 15.625 13.5254C15.625 13.5256 15.625 13.5258 15.625 13.526C15.625 13.5262 15.625 13.5264 15.625 13.5266C15.625 13.5268 15.625 13.527 15.625 13.5272C15.625 13.5274 15.625 13.5276 15.625 13.5278C15.625 13.528 15.625 13.5282 15.625 13.5284C15.625 13.5286 15.625 13.5288 15.625 13.529C15.625 13.5292 15.625 13.5294 15.625 13.5297C15.625 13.5299 15.625 13.5301 15.625 13.5303C15.625 13.5305 15.625 13.5307 15.625 13.5309C15.625 13.5311 15.625 13.5314 15.625 13.5316C15.625 13.5318 15.625 13.532 15.625 13.5322C15.625 13.5324 15.625 13.5326 15.625 13.5329C15.625 13.5331 15.625 13.5333 15.625 13.5335C15.625 13.5338 15.625 13.534 15.625 13.5342C15.625 13.5344 15.625 13.5346 15.625 13.5349C15.625 13.5351 15.625 13.5353 15.625 13.5355C15.625 13.5358 15.625 13.536 15.625 13.5362C15.625 13.5365 15.625 13.5367 15.625 13.5369C15.625 13.5372 15.625 13.5374 15.625 13.5376C15.625 13.5379 15.625 13.5381 15.625 13.5383C15.625 13.5386 15.625 13.5388 15.625 13.539C15.625 13.5393 15.625 13.5395 15.625 13.5398C15.625 13.54 15.625 13.5402 15.625 13.5405C15.625 13.5407 15.625 13.541 15.625 13.5412C15.625 13.5415 15.625 13.5417 15.625 13.5419C15.625 13.5422 15.625 13.5424 15.625 13.5427C15.625 13.5429 15.625 13.5432 15.625 13.5434C15.625 13.5437 15.625 13.5439 15.625 13.5442C15.625 13.5444 15.625 13.5447 15.625 13.545C15.625 13.5452 15.625 13.5455 15.625 13.5457C15.625 13.546 15.625 13.5462 15.625 13.5465C15.625 13.5468 15.625 13.547 15.625 13.5473C15.625 13.5475 15.625 13.5478 15.625 13.5481C15.625 13.5483 15.625 13.5486 15.625 13.5489C15.625 13.5491 15.625 13.5494 15.625 13.5497C15.625 13.5499 15.625 13.5502 15.625 13.5505C15.625 13.5507 15.625 13.551 15.625 13.5513C15.625 13.5515 15.625 13.5518 15.625 13.5521C15.625 13.5524 15.625 13.5526 15.625 13.5529C15.625 13.5532 15.625 13.5535 15.625 13.5537C15.625 13.554 15.625 13.5543 15.625 13.5546C15.625 13.5548 15.625 13.5551 15.625 13.5554C15.625 13.5557 15.625 13.556 15.625 13.5563C15.625 13.5565 15.625 13.5568 15.625 13.5571C15.625 13.5574 15.625 13.5577 15.625 13.558C15.625 13.5583 15.625 13.5585 15.625 13.5588C15.625 13.5591 15.625 13.5594 15.625 13.5597C15.625 13.56 15.625 13.5603 15.625 13.5606C15.625 13.5609 15.625 13.5612 15.625 13.5615C15.625 13.5618 15.625 13.562 15.625 13.5623C15.625 13.5626 15.625 13.5629 15.625 13.5632C15.625 13.5635 15.625 13.5638 15.625 13.5641C15.625 13.5644 15.625 13.5647 15.625 13.565C15.625 13.5654 15.625 13.5657 15.625 13.566C15.625 13.5663 15.625 13.5666 15.625 13.5669C15.625 13.5672 15.625 13.5675 15.625 13.5678C15.625 13.5681 15.625 13.5684 15.625 13.5687C15.625 13.569 15.625 13.5694 15.625 13.5697C15.625 13.57 15.625 13.5703 15.625 13.5706C15.625 13.5709 15.625 13.5712 15.625 13.5716C15.625 13.5719 15.625 13.5722 15.625 13.5725C15.625 13.5728 15.625 13.5732 15.625 13.5735C15.625 13.5738 15.625 13.5741 15.625 13.5744C15.625 13.5748 15.625 13.5751 15.625 13.5754C15.625 13.5757 15.625 13.5761 15.625 13.5764C15.625 13.5767 15.625 13.577 15.625 13.5774C15.625 13.5777 15.625 13.578 15.625 13.5784C15.625 13.5787 15.625 13.579 15.625 13.5794C15.625 13.5797 15.625 13.58 15.625 13.5804C15.625 13.5807 15.625 13.581 15.625 13.5814C15.625 13.5817 15.625 13.582 15.625 13.5824C15.625 13.5827 15.625 13.5831 15.625 13.5834C15.625 13.5837 15.625 13.5841 15.625 13.5844C15.625 13.5848 15.625 13.5851 15.625 13.5855C15.625 13.5858 15.625 13.5862 15.625 13.5865C15.625 13.5868 15.625 13.5872 15.625 13.5875C15.625 13.5879 15.625 13.5882 15.625 13.5886C15.625 13.5889 15.625 13.5893 15.625 13.5896C15.625 13.59 15.625 13.5903 15.625 13.5907C15.625 13.5911 15.625 13.5914 15.625 13.5918C15.625 13.5921 15.625 13.5925 15.625 13.5928C15.625 13.5932 15.625 13.5936 15.625 13.5939C15.625 13.5943 15.625 13.5946 15.625 13.595C15.625 13.5954 15.625 13.5957 15.625 13.5961C15.625 13.5964 15.625 13.5968 15.625 13.5972C15.625 13.5975 15.625 13.5979 15.625 13.5983C15.625 13.5986 15.625 13.599 15.625 13.5994C15.625 13.5998 15.625 13.6001 15.625 13.6005C15.625 13.6009 15.625 13.6012 15.625 13.6016C15.625 13.602 15.625 13.6024 15.625 13.6027C15.625 13.6031 15.625 13.6035 15.625 13.6039C15.625 13.6042 15.625 13.6046 15.625 13.605C15.625 13.6054 15.625 13.6058 15.625 13.6061C15.625 13.6065 15.625 13.6069 15.625 13.6073C15.625 13.6077 15.625 13.608 15.625 13.6084C15.625 13.6088 15.625 13.6092 15.625 13.6096C15.625 13.61 15.625 13.6104 15.625 13.6108C15.625 13.6111 15.625 13.6115 15.625 13.6119C15.625 13.6123 15.625 13.6127 15.625 13.6131C15.625 13.6135 15.625 13.6139 15.625 13.6143C15.625 13.6147 15.625 13.6151 15.625 13.6155C15.625 13.6159 15.625 13.6162 15.625 13.6166C15.625 13.617 15.625 13.6174 15.625 13.6178C15.625 13.6182 15.625 13.6186 15.625 13.619C15.625 13.6194 15.625 13.6198 15.625 13.6203C15.625 13.6207 15.625 13.6211 15.625 13.6215C15.625 13.6219 15.625 13.6223 15.625 13.6227C15.625 13.6231 15.625 13.6235 15.625 13.6239C15.625 13.6243 15.625 13.6247 15.625 13.6251C15.625 13.6255 15.625 13.626 15.625 13.6264C15.625 13.6268 15.625 13.6272 15.625 13.6276C15.625 13.628 15.625 13.6284 15.625 13.6289C15.625 13.6293 15.625 13.6297 15.625 13.6301C15.625 13.6305 15.625 13.6309 15.625 13.6314C15.625 13.6318 15.625 13.6322 15.625 13.6326C15.625 13.633 15.625 13.6335 15.625 13.6339C15.625 13.6343 15.625 13.6347 15.625 13.6352C15.625 13.6356 15.625 13.636 15.625 13.6364C15.625 13.6369 15.625 13.6373 15.625 13.6377C15.625 13.6382 15.625 13.6386 15.625 13.639C15.625 13.6394 15.625 13.6399 15.625 13.6403C15.625 13.6407 15.625 13.6412 15.625 13.6416C15.625 13.642 15.625 13.6425 15.625 13.6429C15.625 13.6434 15.625 13.6438 15.625 13.6442C15.625 13.6447 15.625 13.6451 15.625 13.6455C15.625 13.646 15.625 13.6464 15.625 13.6469C15.625 13.6473 15.625 13.6478 15.625 13.6482C15.625 13.6486 15.625 13.6491 15.625 13.6495C15.625 13.65 15.625 13.6504 15.625 13.6509C15.625 13.6513 15.625 13.6518 15.625 13.6522C15.625 13.6527 15.625 13.6531 15.625 13.6536C15.625 13.654 15.625 13.6545 15.625 13.6549C15.625 13.6554 15.625 13.6558 15.625 13.6563C15.625 13.6567 15.625 13.6572 15.625 13.6576C15.625 13.6581 15.625 13.6585 15.625 13.659C15.625 13.6595 15.625 13.6599 15.625 13.6604C15.625 13.6608 15.625 13.6613 15.625 13.6618C15.625 13.6622 15.625 13.6627 15.625 13.6631C15.625 13.6636 15.625 13.6641 15.625 13.6645C15.625 13.665 15.625 13.6655 15.625 13.6659C15.625 13.6664 15.625 13.6669 15.625 13.6673C15.625 13.6678 15.625 13.6683 15.625 13.6687C15.625 13.6692 15.625 13.6697 15.625 13.6702C15.625 13.6706 15.625 13.6711 15.625 13.6716C15.625 13.672 15.625 13.6725 15.625 13.673C15.625 13.6735 15.625 13.6739 15.625 13.6744C15.625 13.6749 15.625 13.6754 15.625 13.6759C15.625 13.6763 15.625 13.6768 15.625 13.6773C15.625 13.6778 15.625 13.6783 15.625 13.6787C15.625 13.6792 15.625 13.6797 15.625 13.6802C15.625 13.6807 15.625 13.6812 15.625 13.6816C15.625 13.6821 15.625 13.6826 15.625 13.6831C15.625 13.6836 15.625 13.6841 15.625 13.6846C15.625 13.6851 15.625 13.6855 15.625 13.686C15.625 13.6865 15.625 13.687 15.625 13.6875C15.625 13.688 15.625 13.6885 15.625 13.689C15.625 13.6895 15.625 13.69 15.625 13.6905C15.625 13.691 15.625 13.6915 15.625 13.692C15.625 13.6925 15.625 13.693 15.625 13.6935C15.625 13.694 15.625 13.6945 15.625 13.695C15.625 13.6955 15.625 13.696 15.625 13.6965C15.625 13.697 15.625 13.6975 15.625 13.698C15.625 13.6985 15.625 13.699 15.625 13.6995C15.625 13.7 15.625 13.7005 15.625 13.701C15.625 13.7015 15.625 13.702 15.625 13.7025C15.625 13.7031 15.625 13.7036 15.625 13.7041C15.625 13.7046 15.625 13.7051 15.625 13.7056C15.625 13.7061 15.625 13.7066 15.625 13.7072C15.625 13.7077 15.625 13.7082 15.625 13.7087C15.625 13.7092 15.625 13.7097 15.625 13.7102C15.625 13.7108 15.625 13.7113 15.625 13.7118C15.625 13.7123 15.625 13.7128 15.625 13.7134C15.625 13.7139 15.625 13.7144 15.625 13.7149C15.625 13.7155 15.625 13.716 15.625 13.7165C15.625 13.717 15.625 13.7176 15.625 13.7181C15.625 13.7186 15.625 13.7191 15.625 13.7197C15.625 13.7202 15.625 13.7207 15.625 13.7212C15.625 13.7218 15.625 13.7223 15.625 13.7228C15.625 13.7234 15.625 13.7239 15.625 13.7244C15.625 13.725 15.625 13.7255 15.625 13.726C15.625 13.7266 15.625 13.7271 15.625 13.7276C15.625 13.7282 15.625 13.7287 15.625 13.7293C15.625 13.7298 15.625 13.7303 15.625 13.7309C15.625 13.7314 15.625 13.7319 15.625 13.7325C15.625 13.733 15.625 13.7336 15.625 13.7341C15.625 13.7347 15.625 13.7352 15.625 13.7357C15.625 13.7363 15.625 13.7368 15.625 13.7374C15.625 13.7379 15.625 13.7385 15.625 13.739C15.625 13.7396 15.625 13.7401 15.625 13.7407C15.625 13.7412 15.625 13.7418 15.625 13.7423C15.625 13.7429 15.625 13.7434 15.625 13.744C15.625 13.7445 15.625 13.7451 15.625 13.7456C15.625 13.7462 15.625 13.7467 15.625 13.7473C15.625 13.7479 15.625 13.7484 15.625 13.749C15.625 13.7495 15.625 13.7501 15.625 13.7506C15.625 13.7512 15.625 13.7518 15.625 13.7523C15.625 13.7529 15.625 13.7534 15.625 13.754C15.625 13.7546 15.625 13.7551 15.625 13.7557C15.625 13.7563 15.625 13.7568 15.625 13.7574C15.625 13.758 15.625 13.7585 15.625 13.7591C15.625 13.7597 15.625 13.7602 15.625 13.7608C15.625 13.7614 15.625 13.7619 15.625 13.7625C15.625 13.7631 15.625 13.7636 15.625 13.7642C15.625 13.7648 15.625 13.7654 15.625 13.7659C15.625 13.7665 15.625 13.7671 15.625 13.7676C15.625 13.7682 15.625 13.7688 15.625 13.7694C15.625 13.77 15.625 13.7705 15.625 13.7711C15.625 13.7717 15.625 13.7723 15.625 13.7728C15.625 13.7734 15.625 13.774 15.625 13.7746C15.625 13.7752 15.625 13.7757 15.625 13.7763C15.625 13.7769 15.625 13.7775 15.625 13.7781C15.625 13.7787 15.625 13.7793 15.625 13.7798C15.625 13.7804 15.625 13.781 15.625 13.7816C15.625 13.7822 15.625 13.7828 15.625 13.7834C15.625 13.784 15.625 13.7845 15.625 13.7851C15.625 13.7857 15.625 13.7863 15.625 13.7869C15.625 13.7875 15.625 13.7881 15.625 13.7887C15.625 13.7893 15.625 13.7899 15.625 13.7905C15.625 13.7911 15.625 13.7917 15.625 13.7923C15.625 13.7929 15.625 13.7934 15.625 13.794C15.625 13.7946 15.625 13.7952 15.625 13.7958C15.625 13.7964 15.625 13.797 15.625 13.7976C15.625 13.7982 15.625 13.7989 15.625 13.7995C15.625 13.8001 15.625 13.8007 15.625 13.8013C15.625 13.8019 15.625 13.8025 15.625 13.8031C15.625 13.8037 15.625 13.8043 15.625 13.8049C15.625 13.8055 15.625 13.8061 15.625 13.8067C15.625 13.8073 15.625 13.8079 15.625 13.8086C15.625 13.8092 15.625 13.8098 15.625 13.8104C15.625 13.811 15.625 13.8116 15.625 13.8122C15.625 13.8128 15.625 13.8135 15.625 13.8141C15.625 13.8147 15.625 13.8153 15.625 13.8159C15.625 13.8165 15.625 13.8172 15.625 13.8178C15.625 13.8184 15.625 13.819 15.625 13.8196C15.625 13.8202 15.625 13.8209 15.625 13.8215C15.625 13.8221 15.625 13.8227 15.625 13.8234C15.625 13.824 15.625 13.8246 15.625 13.8252C15.625 13.8258 15.625 13.8265 15.625 13.8271C15.625 13.8277 15.625 13.8283 15.625 13.829C15.625 13.8296 15.625 13.8302 15.625 13.8309C15.625 13.8315 15.625 13.8321 15.625 13.8327C15.625 13.8334 15.625 13.834 15.625 13.8346C15.625 13.8353 15.625 13.8359 15.625 13.8365C15.625 13.8372 15.625 13.8378 15.625 13.8384C15.625 13.8391 15.625 13.8397 15.625 13.8403C15.625 13.841 15.625 13.8416 15.625 13.8423C15.625 13.8429 15.625 13.8435 15.625 13.8442C15.625 13.8448 15.625 13.8454 15.625 13.8461C15.625 13.8467 15.625 13.8474 15.625 13.848C15.625 13.8487 15.625 13.8493 15.625 13.8499C15.625 13.8506 15.625 13.8512 15.625 13.8519C15.625 13.8525 15.625 13.8532 15.625 13.8538C15.625 13.8545 15.625 13.8551 15.625 13.8557C15.625 13.8564 15.625 13.857 15.625 13.8577C15.625 13.8583 15.625 13.859 15.625 13.8596C15.625 13.8603 15.625 13.8609 15.625 13.8616C15.625 13.8622 15.625 13.8629 15.625 13.8636C15.625 13.8642 15.625 13.8649 15.625 13.8655C15.625 13.8662 15.625 13.8668 15.625 13.8675C15.625 13.8681 15.625 13.8688 15.625 13.8695C15.625 13.8701 15.625 13.8708 15.625 13.8714C15.625 13.8721 15.625 13.8727 15.625 13.8734C15.625 13.8741 15.625 13.8747 15.625 13.8754C15.625 13.8761 15.625 13.8767 15.625 13.8774C15.625 13.878 15.625 13.8787 15.625 13.8794C15.625 13.88 15.625 13.8807 15.625 13.8814C15.625 13.882 15.625 13.8827 15.625 13.8834C15.625 13.884 15.625 13.8847 15.625 13.8854C15.625 13.886 15.625 13.8867 15.625 13.8874C15.625 13.8881 15.625 13.8887 15.625 13.8894C15.625 13.8901 15.625 13.8907 15.625 13.8914C15.625 13.8921 15.625 13.8928 15.625 13.8934C15.625 13.8941 15.625 13.8948 15.625 13.8955C15.625 13.8961 15.625 13.8968 15.625 13.8975C15.625 13.8982 15.625 13.8989 15.625 13.8995C15.625 13.9002 15.625 13.9009 15.625 13.9016C15.625 13.9023 15.625 13.9029 15.625 13.9036C15.625 13.9043 15.625 13.905 15.625 13.9057C15.625 13.9063 15.625 13.907 15.625 13.9077C15.625 13.9084 15.625 13.9091 15.625 13.9098C15.625 13.9105 15.625 13.9111 15.625 13.9118C15.625 13.9125 15.625 13.9132 15.625 13.9139C15.625 13.9146 15.625 13.9153 15.625 13.916C15.625 13.9166 15.625 13.9173 15.625 13.918C15.625 13.9187 15.625 13.9194 15.625 13.9201C15.625 13.9208 15.625 13.9215 15.625 13.9222C15.625 13.9229 15.625 13.9236 15.625 13.9243C15.625 13.925 15.625 13.9257 15.625 13.9264C15.625 13.9271 15.625 13.9278 15.625 13.9285C15.625 13.9292 15.625 13.9298 15.625 13.9305C15.625 13.9312 15.625 13.9319 15.625 13.9326C15.625 13.9334 15.625 13.9341 15.625 13.9348C15.625 13.9355 15.625 13.9362 15.625 13.9369C15.625 13.9376 15.625 13.9383 15.625 13.939C15.625 13.9397 15.625 13.9404 15.625 13.9411C15.625 13.9418 15.625 13.9425 15.625 13.9432C15.625 13.9439 15.625 13.9446 15.625 13.9453C15.625 13.946 15.625 13.9468 15.625 13.9475C15.625 13.9482 15.625 13.9489 15.625 13.9496C15.625 13.9503 15.625 13.951 15.625 13.9517C15.625 13.9524 15.625 13.9532 15.625 13.9539C15.625 13.9546 15.625 13.9553 15.625 13.956C15.625 13.9567 15.625 13.9575 15.625 13.9582C15.625 13.9589 15.625 13.9596 15.625 13.9603C15.625 13.961 15.625 13.9618 15.625 13.9625C15.625 13.9632 15.625 13.9639 15.625 13.9646C15.625 13.9654 15.625 13.9661 15.625 13.9668C15.625 13.9675 15.625 13.9682 15.625 13.969C15.625 13.9697 15.625 13.9704 15.625 13.9711C15.625 13.9719 15.625 13.9726 15.625 13.9733C15.625 13.974 15.625 13.9748 15.625 13.9755C15.625 13.9762 15.625 13.977 15.625 13.9777C15.625 13.9784 15.625 13.9791 15.625 13.9799C15.625 13.9806 15.625 13.9813 15.625 13.9821C15.625 13.9828 15.625 13.9835 15.625 13.9843C15.625 13.985 15.625 13.9857 15.625 13.9865C15.625 13.9872 15.625 13.9879 15.625 13.9887C15.625 13.9894 15.625 13.9901 15.625 13.9909C15.625 13.9916 15.625 13.9923 15.625 13.9931C15.625 13.9938 15.625 13.9946 15.625 13.9953C15.625 13.996 15.625 13.9968 15.625 13.9975C15.625 13.9982 15.625 13.999 15.625 13.9997C15.625 14.0005 15.625 14.0012 15.625 14.002C15.625 14.0027 15.625 14.0034 15.625 14.0042C15.625 14.0049 15.625 14.0057 15.625 14.0064C15.625 14.0072 15.625 14.0079 15.625 14.0087C15.625 14.0094 15.625 14.0101 15.625 14.0109C15.625 14.0116 15.625 14.0124 15.625 14.0131C15.625 14.0139 15.625 14.0146 15.625 14.0154C15.625 14.0161 15.625 14.0169 15.625 14.0176C15.625 14.0184 15.625 14.0191 15.625 14.0199C15.625 14.0207 15.625 14.0214 15.625 14.0222C15.625 14.0229 15.625 14.0237 15.625 14.0244C15.625 14.0252 15.625 14.0259 15.625 14.0267C15.625 14.0274 15.625 14.0282 15.625 14.029C15.625 14.0297 15.625 14.0305 15.625 14.0312C15.625 14.032 15.625 14.0328 15.625 14.0335C15.625 14.0343 15.625 14.035 15.625 14.0358C15.625 14.0366 15.625 14.0373 15.625 14.0381C15.625 14.0388 15.625 14.0396 15.625 14.0404C15.625 14.0411 15.625 14.0419 15.625 14.0427C15.625 14.0434 15.625 14.0442 15.625 14.045C15.625 14.0457 15.625 14.0465 15.625 14.0473C15.625 14.048 15.625 14.0488 15.625 14.0496C15.625 14.0503 15.625 14.0511 15.625 14.0519C15.625 14.0526 15.625 14.0534 15.625 14.0542C15.625 14.0549 15.625 14.0557 15.625 14.0565C15.625 14.0573 15.625 14.058 15.625 14.0588C15.625 14.0596 15.625 14.0604 15.625 14.0611C15.625 14.0619 15.625 14.0627 15.625 14.0635C15.625 14.0642 15.625 14.065 15.625 14.0658C15.625 14.0666 15.625 14.0673 15.625 14.0681C15.625 14.0689 15.625 14.0697 15.625 14.0705C15.625 14.0712 15.625 14.072 15.625 14.0728C15.625 14.0736 15.625 14.0744 15.625 14.0751C15.625 14.0759 15.625 14.0767 15.625 14.0775C15.625 14.0783 15.625 14.079 15.625 14.0798C15.625 14.0806 15.625 14.0814 15.625 14.0822C15.625 14.083 15.625 14.0838 15.625 14.0845C15.625 14.0853 15.625 14.0861 15.625 14.0869C15.625 14.0877 15.625 14.0885 15.625 14.0893C15.625 14.0901 15.625 14.0908 15.625 14.0916C15.625 14.0924 15.625 14.0932 15.625 14.094C15.625 14.0948 15.625 14.0956 15.625 14.0964C15.625 14.0972 15.625 14.098 15.625 14.0988C15.625 14.0996 15.625 14.1003 15.625 14.1011C15.625 14.1019 15.625 14.1027 15.625 14.1035C15.625 14.1043 15.625 14.1051 15.625 14.1059C15.625 14.1067 15.625 14.1075 15.625 14.1083C15.625 14.1091 15.625 14.1099 15.625 14.1107C15.625 14.1115 15.625 14.1123 15.625 14.1131C15.625 14.1139 15.625 14.1147 15.625 14.1155C15.625 14.1163 15.625 14.1171 15.625 14.1179C15.625 14.1187 15.625 14.1195 15.625 14.1203C15.625 14.1211 15.625 14.1219 15.625 14.1227C15.625 14.1235 15.625 14.1243 15.625 14.1251C15.625 14.1259 15.625 14.1267 15.625 14.1276C15.625 14.1284 15.625 14.1292 15.625 14.13C15.625 14.1308 15.625 14.1316 15.625 14.1324C15.625 14.1332 15.625 14.134 15.625 14.1348C15.625 14.1356 15.625 14.1365 15.625 14.1373C15.625 14.1381 15.625 14.1389 15.625 14.1397C15.625 14.1405 15.625 14.1413 15.625 14.1421C15.625 14.143 15.625 14.1438 15.625 14.1446C15.625 14.1454 15.625 14.1462 15.625 14.147C15.625 14.1478 15.625 14.1487 15.625 14.1495C15.625 14.1503 15.625 14.1511 15.625 14.1519C15.625 14.1527 15.625 14.1536 15.625 14.1544C15.625 14.1552 15.625 14.156 15.625 14.1568C15.625 14.1577 15.625 14.1585 15.625 14.1593C15.625 14.1601 15.625 14.1609 15.625 14.1618C15.625 14.1626 15.625 14.1634 15.625 14.1642C15.625 14.1651 15.625 14.1659 15.625 14.1667C15.625 14.1675 15.625 14.1684 15.625 14.1692C15.625 14.17 15.625 14.1708 15.625 14.1717C15.625 14.1725 15.625 14.1733 15.625 14.1741C15.625 14.175 15.625 14.1758 15.625 14.1766C15.625 14.1774 15.625 14.1783 15.625 14.1791C15.625 14.1799 15.625 14.1808 15.625 14.1816C15.625 14.1824 15.625 14.1833 15.625 14.1841C15.625 14.1849 15.625 14.1858 15.625 14.1866C15.625 14.1874 15.625 14.1883 15.625 14.1891C15.625 14.1899 15.625 14.1908 15.625 14.1916C15.625 14.1924 15.625 14.1933 15.625 14.1941C15.625 14.1949 15.625 14.1958 15.625 14.1966C15.625 14.1974 15.625 14.1983 15.625 14.1991C15.625 14.2 15.625 14.2008 15.625 14.2016C15.625 14.2025 15.625 14.2033 15.625 14.2041C15.625 14.205 15.625 14.2058 15.625 14.2067C15.625 14.2075 15.625 14.2084 15.625 14.2092C15.625 14.21 15.625 14.2109 15.625 14.2117C15.625 14.2126 15.625 14.2134 15.625 14.2143C15.625 14.2151 15.625 14.2159 15.625 14.2168C15.625 14.2176 15.625 14.2185 15.625 14.2193C15.625 14.2202 15.625 14.221 15.625 14.2219C15.625 14.2227 15.625 14.2236 15.625 14.2244C15.625 14.2253 15.625 14.2261 15.625 14.227C15.625 14.2278 15.625 14.2287 15.625 14.2295C15.625 14.2304 15.625 14.2312 15.625 14.2321C15.625 14.2329 15.625 14.2338 15.625 14.2346C15.625 14.2355 15.625 14.2363 15.625 14.2372C15.625 14.238 15.625 14.2389 15.625 14.2397C15.625 14.2406 15.625 14.2414 15.625 14.2423C15.625 14.2431 15.625 14.244 15.625 14.2449C15.625 14.2457 15.625 14.2466 15.625 14.2474C15.625 14.2483 15.625 14.2491 15.625 14.25H16.625C16.625 14.2491 16.625 14.2483 16.625 14.2474C16.625 14.2466 16.625 14.2457 16.625 14.2449C16.625 14.244 16.625 14.2431 16.625 14.2423C16.625 14.2414 16.625 14.2406 16.625 14.2397C16.625 14.2389 16.625 14.238 16.625 14.2372C16.625 14.2363 16.625 14.2355 16.625 14.2346C16.625 14.2338 16.625 14.2329 16.625 14.2321C16.625 14.2312 16.625 14.2304 16.625 14.2295C16.625 14.2287 16.625 14.2278 16.625 14.227C16.625 14.2261 16.625 14.2253 16.625 14.2244C16.625 14.2236 16.625 14.2227 16.625 14.2219C16.625 14.221 16.625 14.2202 16.625 14.2193C16.625 14.2185 16.625 14.2176 16.625 14.2168C16.625 14.2159 16.625 14.2151 16.625 14.2143C16.625 14.2134 16.625 14.2126 16.625 14.2117C16.625 14.2109 16.625 14.21 16.625 14.2092C16.625 14.2084 16.625 14.2075 16.625 14.2067C16.625 14.2058 16.625 14.205 16.625 14.2041C16.625 14.2033 16.625 14.2025 16.625 14.2016C16.625 14.2008 16.625 14.2 16.625 14.1991C16.625 14.1983 16.625 14.1974 16.625 14.1966C16.625 14.1958 16.625 14.1949 16.625 14.1941C16.625 14.1933 16.625 14.1924 16.625 14.1916C16.625 14.1908 16.625 14.1899 16.625 14.1891C16.625 14.1883 16.625 14.1874 16.625 14.1866C16.625 14.1858 16.625 14.1849 16.625 14.1841C16.625 14.1833 16.625 14.1824 16.625 14.1816C16.625 14.1808 16.625 14.1799 16.625 14.1791C16.625 14.1783 16.625 14.1774 16.625 14.1766C16.625 14.1758 16.625 14.175 16.625 14.1741C16.625 14.1733 16.625 14.1725 16.625 14.1717C16.625 14.1708 16.625 14.17 16.625 14.1692C16.625 14.1684 16.625 14.1675 16.625 14.1667C16.625 14.1659 16.625 14.1651 16.625 14.1642C16.625 14.1634 16.625 14.1626 16.625 14.1618C16.625 14.1609 16.625 14.1601 16.625 14.1593C16.625 14.1585 16.625 14.1577 16.625 14.1568C16.625 14.156 16.625 14.1552 16.625 14.1544C16.625 14.1536 16.625 14.1527 16.625 14.1519C16.625 14.1511 16.625 14.1503 16.625 14.1495C16.625 14.1487 16.625 14.1478 16.625 14.147C16.625 14.1462 16.625 14.1454 16.625 14.1446C16.625 14.1438 16.625 14.143 16.625 14.1421C16.625 14.1413 16.625 14.1405 16.625 14.1397C16.625 14.1389 16.625 14.1381 16.625 14.1373C16.625 14.1365 16.625 14.1356 16.625 14.1348C16.625 14.134 16.625 14.1332 16.625 14.1324C16.625 14.1316 16.625 14.1308 16.625 14.13C16.625 14.1292 16.625 14.1284 16.625 14.1276C16.625 14.1267 16.625 14.1259 16.625 14.1251C16.625 14.1243 16.625 14.1235 16.625 14.1227C16.625 14.1219 16.625 14.1211 16.625 14.1203C16.625 14.1195 16.625 14.1187 16.625 14.1179C16.625 14.1171 16.625 14.1163 16.625 14.1155C16.625 14.1147 16.625 14.1139 16.625 14.1131C16.625 14.1123 16.625 14.1115 16.625 14.1107C16.625 14.1099 16.625 14.1091 16.625 14.1083C16.625 14.1075 16.625 14.1067 16.625 14.1059C16.625 14.1051 16.625 14.1043 16.625 14.1035C16.625 14.1027 16.625 14.1019 16.625 14.1011C16.625 14.1003 16.625 14.0996 16.625 14.0988C16.625 14.098 16.625 14.0972 16.625 14.0964C16.625 14.0956 16.625 14.0948 16.625 14.094C16.625 14.0932 16.625 14.0924 16.625 14.0916C16.625 14.0908 16.625 14.0901 16.625 14.0893C16.625 14.0885 16.625 14.0877 16.625 14.0869C16.625 14.0861 16.625 14.0853 16.625 14.0845C16.625 14.0838 16.625 14.083 16.625 14.0822C16.625 14.0814 16.625 14.0806 16.625 14.0798C16.625 14.079 16.625 14.0783 16.625 14.0775C16.625 14.0767 16.625 14.0759 16.625 14.0751C16.625 14.0744 16.625 14.0736 16.625 14.0728C16.625 14.072 16.625 14.0712 16.625 14.0705C16.625 14.0697 16.625 14.0689 16.625 14.0681C16.625 14.0673 16.625 14.0666 16.625 14.0658C16.625 14.065 16.625 14.0642 16.625 14.0635C16.625 14.0627 16.625 14.0619 16.625 14.0611C16.625 14.0604 16.625 14.0596 16.625 14.0588C16.625 14.058 16.625 14.0573 16.625 14.0565C16.625 14.0557 16.625 14.0549 16.625 14.0542C16.625 14.0534 16.625 14.0526 16.625 14.0519C16.625 14.0511 16.625 14.0503 16.625 14.0496C16.625 14.0488 16.625 14.048 16.625 14.0473C16.625 14.0465 16.625 14.0457 16.625 14.045C16.625 14.0442 16.625 14.0434 16.625 14.0427C16.625 14.0419 16.625 14.0411 16.625 14.0404C16.625 14.0396 16.625 14.0388 16.625 14.0381C16.625 14.0373 16.625 14.0366 16.625 14.0358C16.625 14.035 16.625 14.0343 16.625 14.0335C16.625 14.0328 16.625 14.032 16.625 14.0312C16.625 14.0305 16.625 14.0297 16.625 14.029C16.625 14.0282 16.625 14.0274 16.625 14.0267C16.625 14.0259 16.625 14.0252 16.625 14.0244C16.625 14.0237 16.625 14.0229 16.625 14.0222C16.625 14.0214 16.625 14.0207 16.625 14.0199C16.625 14.0191 16.625 14.0184 16.625 14.0176C16.625 14.0169 16.625 14.0161 16.625 14.0154C16.625 14.0146 16.625 14.0139 16.625 14.0131C16.625 14.0124 16.625 14.0116 16.625 14.0109C16.625 14.0101 16.625 14.0094 16.625 14.0087C16.625 14.0079 16.625 14.0072 16.625 14.0064C16.625 14.0057 16.625 14.0049 16.625 14.0042C16.625 14.0034 16.625 14.0027 16.625 14.002C16.625 14.0012 16.625 14.0005 16.625 13.9997C16.625 13.999 16.625 13.9982 16.625 13.9975C16.625 13.9968 16.625 13.996 16.625 13.9953C16.625 13.9946 16.625 13.9938 16.625 13.9931C16.625 13.9923 16.625 13.9916 16.625 13.9909C16.625 13.9901 16.625 13.9894 16.625 13.9887C16.625 13.9879 16.625 13.9872 16.625 13.9865C16.625 13.9857 16.625 13.985 16.625 13.9843C16.625 13.9835 16.625 13.9828 16.625 13.9821C16.625 13.9813 16.625 13.9806 16.625 13.9799C16.625 13.9791 16.625 13.9784 16.625 13.9777C16.625 13.977 16.625 13.9762 16.625 13.9755C16.625 13.9748 16.625 13.974 16.625 13.9733C16.625 13.9726 16.625 13.9719 16.625 13.9711C16.625 13.9704 16.625 13.9697 16.625 13.969C16.625 13.9682 16.625 13.9675 16.625 13.9668C16.625 13.9661 16.625 13.9654 16.625 13.9646C16.625 13.9639 16.625 13.9632 16.625 13.9625C16.625 13.9618 16.625 13.961 16.625 13.9603C16.625 13.9596 16.625 13.9589 16.625 13.9582C16.625 13.9575 16.625 13.9567 16.625 13.956C16.625 13.9553 16.625 13.9546 16.625 13.9539C16.625 13.9532 16.625 13.9524 16.625 13.9517C16.625 13.951 16.625 13.9503 16.625 13.9496C16.625 13.9489 16.625 13.9482 16.625 13.9475C16.625 13.9468 16.625 13.946 16.625 13.9453C16.625 13.9446 16.625 13.9439 16.625 13.9432C16.625 13.9425 16.625 13.9418 16.625 13.9411C16.625 13.9404 16.625 13.9397 16.625 13.939C16.625 13.9383 16.625 13.9376 16.625 13.9369C16.625 13.9362 16.625 13.9355 16.625 13.9348C16.625 13.9341 16.625 13.9334 16.625 13.9326C16.625 13.9319 16.625 13.9312 16.625 13.9305C16.625 13.9298 16.625 13.9292 16.625 13.9285C16.625 13.9278 16.625 13.9271 16.625 13.9264C16.625 13.9257 16.625 13.925 16.625 13.9243C16.625 13.9236 16.625 13.9229 16.625 13.9222C16.625 13.9215 16.625 13.9208 16.625 13.9201C16.625 13.9194 16.625 13.9187 16.625 13.918C16.625 13.9173 16.625 13.9166 16.625 13.916C16.625 13.9153 16.625 13.9146 16.625 13.9139C16.625 13.9132 16.625 13.9125 16.625 13.9118C16.625 13.9111 16.625 13.9105 16.625 13.9098C16.625 13.9091 16.625 13.9084 16.625 13.9077C16.625 13.907 16.625 13.9063 16.625 13.9057C16.625 13.905 16.625 13.9043 16.625 13.9036C16.625 13.9029 16.625 13.9023 16.625 13.9016C16.625 13.9009 16.625 13.9002 16.625 13.8995C16.625 13.8989 16.625 13.8982 16.625 13.8975C16.625 13.8968 16.625 13.8961 16.625 13.8955C16.625 13.8948 16.625 13.8941 16.625 13.8934C16.625 13.8928 16.625 13.8921 16.625 13.8914C16.625 13.8907 16.625 13.8901 16.625 13.8894C16.625 13.8887 16.625 13.8881 16.625 13.8874C16.625 13.8867 16.625 13.886 16.625 13.8854C16.625 13.8847 16.625 13.884 16.625 13.8834C16.625 13.8827 16.625 13.882 16.625 13.8814C16.625 13.8807 16.625 13.88 16.625 13.8794C16.625 13.8787 16.625 13.878 16.625 13.8774C16.625 13.8767 16.625 13.8761 16.625 13.8754C16.625 13.8747 16.625 13.8741 16.625 13.8734C16.625 13.8727 16.625 13.8721 16.625 13.8714C16.625 13.8708 16.625 13.8701 16.625 13.8695C16.625 13.8688 16.625 13.8681 16.625 13.8675C16.625 13.8668 16.625 13.8662 16.625 13.8655C16.625 13.8649 16.625 13.8642 16.625 13.8636C16.625 13.8629 16.625 13.8622 16.625 13.8616C16.625 13.8609 16.625 13.8603 16.625 13.8596C16.625 13.859 16.625 13.8583 16.625 13.8577C16.625 13.857 16.625 13.8564 16.625 13.8557C16.625 13.8551 16.625 13.8545 16.625 13.8538C16.625 13.8532 16.625 13.8525 16.625 13.8519C16.625 13.8512 16.625 13.8506 16.625 13.8499C16.625 13.8493 16.625 13.8487 16.625 13.848C16.625 13.8474 16.625 13.8467 16.625 13.8461C16.625 13.8454 16.625 13.8448 16.625 13.8442C16.625 13.8435 16.625 13.8429 16.625 13.8423C16.625 13.8416 16.625 13.841 16.625 13.8403C16.625 13.8397 16.625 13.8391 16.625 13.8384C16.625 13.8378 16.625 13.8372 16.625 13.8365C16.625 13.8359 16.625 13.8353 16.625 13.8346C16.625 13.834 16.625 13.8334 16.625 13.8327C16.625 13.8321 16.625 13.8315 16.625 13.8309C16.625 13.8302 16.625 13.8296 16.625 13.829C16.625 13.8283 16.625 13.8277 16.625 13.8271C16.625 13.8265 16.625 13.8258 16.625 13.8252C16.625 13.8246 16.625 13.824 16.625 13.8234C16.625 13.8227 16.625 13.8221 16.625 13.8215C16.625 13.8209 16.625 13.8202 16.625 13.8196C16.625 13.819 16.625 13.8184 16.625 13.8178C16.625 13.8172 16.625 13.8165 16.625 13.8159C16.625 13.8153 16.625 13.8147 16.625 13.8141C16.625 13.8135 16.625 13.8128 16.625 13.8122C16.625 13.8116 16.625 13.811 16.625 13.8104C16.625 13.8098 16.625 13.8092 16.625 13.8086C16.625 13.8079 16.625 13.8073 16.625 13.8067C16.625 13.8061 16.625 13.8055 16.625 13.8049C16.625 13.8043 16.625 13.8037 16.625 13.8031C16.625 13.8025 16.625 13.8019 16.625 13.8013C16.625 13.8007 16.625 13.8001 16.625 13.7995C16.625 13.7989 16.625 13.7982 16.625 13.7976C16.625 13.797 16.625 13.7964 16.625 13.7958C16.625 13.7952 16.625 13.7946 16.625 13.794C16.625 13.7934 16.625 13.7929 16.625 13.7923C16.625 13.7917 16.625 13.7911 16.625 13.7905C16.625 13.7899 16.625 13.7893 16.625 13.7887C16.625 13.7881 16.625 13.7875 16.625 13.7869C16.625 13.7863 16.625 13.7857 16.625 13.7851C16.625 13.7845 16.625 13.784 16.625 13.7834C16.625 13.7828 16.625 13.7822 16.625 13.7816C16.625 13.781 16.625 13.7804 16.625 13.7798C16.625 13.7793 16.625 13.7787 16.625 13.7781C16.625 13.7775 16.625 13.7769 16.625 13.7763C16.625 13.7757 16.625 13.7752 16.625 13.7746C16.625 13.774 16.625 13.7734 16.625 13.7728C16.625 13.7723 16.625 13.7717 16.625 13.7711C16.625 13.7705 16.625 13.77 16.625 13.7694C16.625 13.7688 16.625 13.7682 16.625 13.7676C16.625 13.7671 16.625 13.7665 16.625 13.7659C16.625 13.7654 16.625 13.7648 16.625 13.7642C16.625 13.7636 16.625 13.7631 16.625 13.7625C16.625 13.7619 16.625 13.7614 16.625 13.7608C16.625 13.7602 16.625 13.7597 16.625 13.7591C16.625 13.7585 16.625 13.758 16.625 13.7574C16.625 13.7568 16.625 13.7563 16.625 13.7557C16.625 13.7551 16.625 13.7546 16.625 13.754C16.625 13.7534 16.625 13.7529 16.625 13.7523C16.625 13.7518 16.625 13.7512 16.625 13.7506C16.625 13.7501 16.625 13.7495 16.625 13.749C16.625 13.7484 16.625 13.7479 16.625 13.7473C16.625 13.7467 16.625 13.7462 16.625 13.7456C16.625 13.7451 16.625 13.7445 16.625 13.744C16.625 13.7434 16.625 13.7429 16.625 13.7423C16.625 13.7418 16.625 13.7412 16.625 13.7407C16.625 13.7401 16.625 13.7396 16.625 13.739C16.625 13.7385 16.625 13.7379 16.625 13.7374C16.625 13.7368 16.625 13.7363 16.625 13.7357C16.625 13.7352 16.625 13.7347 16.625 13.7341C16.625 13.7336 16.625 13.733 16.625 13.7325C16.625 13.7319 16.625 13.7314 16.625 13.7309C16.625 13.7303 16.625 13.7298 16.625 13.7293C16.625 13.7287 16.625 13.7282 16.625 13.7276C16.625 13.7271 16.625 13.7266 16.625 13.726C16.625 13.7255 16.625 13.725 16.625 13.7244C16.625 13.7239 16.625 13.7234 16.625 13.7228C16.625 13.7223 16.625 13.7218 16.625 13.7212C16.625 13.7207 16.625 13.7202 16.625 13.7197C16.625 13.7191 16.625 13.7186 16.625 13.7181C16.625 13.7176 16.625 13.717 16.625 13.7165C16.625 13.716 16.625 13.7155 16.625 13.7149C16.625 13.7144 16.625 13.7139 16.625 13.7134C16.625 13.7128 16.625 13.7123 16.625 13.7118C16.625 13.7113 16.625 13.7108 16.625 13.7102C16.625 13.7097 16.625 13.7092 16.625 13.7087C16.625 13.7082 16.625 13.7077 16.625 13.7072C16.625 13.7066 16.625 13.7061 16.625 13.7056C16.625 13.7051 16.625 13.7046 16.625 13.7041C16.625 13.7036 16.625 13.7031 16.625 13.7025C16.625 13.702 16.625 13.7015 16.625 13.701C16.625 13.7005 16.625 13.7 16.625 13.6995C16.625 13.699 16.625 13.6985 16.625 13.698C16.625 13.6975 16.625 13.697 16.625 13.6965C16.625 13.696 16.625 13.6955 16.625 13.695C16.625 13.6945 16.625 13.694 16.625 13.6935C16.625 13.693 16.625 13.6925 16.625 13.692C16.625 13.6915 16.625 13.691 16.625 13.6905C16.625 13.69 16.625 13.6895 16.625 13.689C16.625 13.6885 16.625 13.688 16.625 13.6875C16.625 13.687 16.625 13.6865 16.625 13.686C16.625 13.6855 16.625 13.6851 16.625 13.6846C16.625 13.6841 16.625 13.6836 16.625 13.6831C16.625 13.6826 16.625 13.6821 16.625 13.6816C16.625 13.6812 16.625 13.6807 16.625 13.6802C16.625 13.6797 16.625 13.6792 16.625 13.6787C16.625 13.6783 16.625 13.6778 16.625 13.6773C16.625 13.6768 16.625 13.6763 16.625 13.6759C16.625 13.6754 16.625 13.6749 16.625 13.6744C16.625 13.6739 16.625 13.6735 16.625 13.673C16.625 13.6725 16.625 13.672 16.625 13.6716C16.625 13.6711 16.625 13.6706 16.625 13.6702C16.625 13.6697 16.625 13.6692 16.625 13.6687C16.625 13.6683 16.625 13.6678 16.625 13.6673C16.625 13.6669 16.625 13.6664 16.625 13.6659C16.625 13.6655 16.625 13.665 16.625 13.6645C16.625 13.6641 16.625 13.6636 16.625 13.6631C16.625 13.6627 16.625 13.6622 16.625 13.6618C16.625 13.6613 16.625 13.6608 16.625 13.6604C16.625 13.6599 16.625 13.6595 16.625 13.659C16.625 13.6585 16.625 13.6581 16.625 13.6576C16.625 13.6572 16.625 13.6567 16.625 13.6563C16.625 13.6558 16.625 13.6554 16.625 13.6549C16.625 13.6545 16.625 13.654 16.625 13.6536C16.625 13.6531 16.625 13.6527 16.625 13.6522C16.625 13.6518 16.625 13.6513 16.625 13.6509C16.625 13.6504 16.625 13.65 16.625 13.6495C16.625 13.6491 16.625 13.6486 16.625 13.6482C16.625 13.6478 16.625 13.6473 16.625 13.6469C16.625 13.6464 16.625 13.646 16.625 13.6455C16.625 13.6451 16.625 13.6447 16.625 13.6442C16.625 13.6438 16.625 13.6434 16.625 13.6429C16.625 13.6425 16.625 13.642 16.625 13.6416C16.625 13.6412 16.625 13.6407 16.625 13.6403C16.625 13.6399 16.625 13.6394 16.625 13.639C16.625 13.6386 16.625 13.6382 16.625 13.6377C16.625 13.6373 16.625 13.6369 16.625 13.6364C16.625 13.636 16.625 13.6356 16.625 13.6352C16.625 13.6347 16.625 13.6343 16.625 13.6339C16.625 13.6335 16.625 13.633 16.625 13.6326C16.625 13.6322 16.625 13.6318 16.625 13.6314C16.625 13.6309 16.625 13.6305 16.625 13.6301C16.625 13.6297 16.625 13.6293 16.625 13.6289C16.625 13.6284 16.625 13.628 16.625 13.6276C16.625 13.6272 16.625 13.6268 16.625 13.6264C16.625 13.626 16.625 13.6255 16.625 13.6251C16.625 13.6247 16.625 13.6243 16.625 13.6239C16.625 13.6235 16.625 13.6231 16.625 13.6227C16.625 13.6223 16.625 13.6219 16.625 13.6215C16.625 13.6211 16.625 13.6207 16.625 13.6203C16.625 13.6198 16.625 13.6194 16.625 13.619C16.625 13.6186 16.625 13.6182 16.625 13.6178C16.625 13.6174 16.625 13.617 16.625 13.6166C16.625 13.6162 16.625 13.6159 16.625 13.6155C16.625 13.6151 16.625 13.6147 16.625 13.6143C16.625 13.6139 16.625 13.6135 16.625 13.6131C16.625 13.6127 16.625 13.6123 16.625 13.6119C16.625 13.6115 16.625 13.6111 16.625 13.6108C16.625 13.6104 16.625 13.61 16.625 13.6096C16.625 13.6092 16.625 13.6088 16.625 13.6084C16.625 13.608 16.625 13.6077 16.625 13.6073C16.625 13.6069 16.625 13.6065 16.625 13.6061C16.625 13.6058 16.625 13.6054 16.625 13.605C16.625 13.6046 16.625 13.6042 16.625 13.6039C16.625 13.6035 16.625 13.6031 16.625 13.6027C16.625 13.6024 16.625 13.602 16.625 13.6016C16.625 13.6012 16.625 13.6009 16.625 13.6005C16.625 13.6001 16.625 13.5998 16.625 13.5994C16.625 13.599 16.625 13.5986 16.625 13.5983C16.625 13.5979 16.625 13.5975 16.625 13.5972C16.625 13.5968 16.625 13.5964 16.625 13.5961C16.625 13.5957 16.625 13.5954 16.625 13.595C16.625 13.5946 16.625 13.5943 16.625 13.5939C16.625 13.5936 16.625 13.5932 16.625 13.5928C16.625 13.5925 16.625 13.5921 16.625 13.5918C16.625 13.5914 16.625 13.5911 16.625 13.5907C16.625 13.5903 16.625 13.59 16.625 13.5896C16.625 13.5893 16.625 13.5889 16.625 13.5886C16.625 13.5882 16.625 13.5879 16.625 13.5875C16.625 13.5872 16.625 13.5868 16.625 13.5865C16.625 13.5862 16.625 13.5858 16.625 13.5855C16.625 13.5851 16.625 13.5848 16.625 13.5844C16.625 13.5841 16.625 13.5837 16.625 13.5834C16.625 13.5831 16.625 13.5827 16.625 13.5824C16.625 13.582 16.625 13.5817 16.625 13.5814C16.625 13.581 16.625 13.5807 16.625 13.5804C16.625 13.58 16.625 13.5797 16.625 13.5794C16.625 13.579 16.625 13.5787 16.625 13.5784C16.625 13.578 16.625 13.5777 16.625 13.5774C16.625 13.577 16.625 13.5767 16.625 13.5764C16.625 13.5761 16.625 13.5757 16.625 13.5754C16.625 13.5751 16.625 13.5748 16.625 13.5744C16.625 13.5741 16.625 13.5738 16.625 13.5735C16.625 13.5732 16.625 13.5728 16.625 13.5725C16.625 13.5722 16.625 13.5719 16.625 13.5716C16.625 13.5712 16.625 13.5709 16.625 13.5706C16.625 13.5703 16.625 13.57 16.625 13.5697C16.625 13.5694 16.625 13.569 16.625 13.5687C16.625 13.5684 16.625 13.5681 16.625 13.5678C16.625 13.5675 16.625 13.5672 16.625 13.5669C16.625 13.5666 16.625 13.5663 16.625 13.566C16.625 13.5657 16.625 13.5654 16.625 13.565C16.625 13.5647 16.625 13.5644 16.625 13.5641C16.625 13.5638 16.625 13.5635 16.625 13.5632C16.625 13.5629 16.625 13.5626 16.625 13.5623C16.625 13.562 16.625 13.5618 16.625 13.5615C16.625 13.5612 16.625 13.5609 16.625 13.5606C16.625 13.5603 16.625 13.56 16.625 13.5597C16.625 13.5594 16.625 13.5591 16.625 13.5588C16.625 13.5585 16.625 13.5583 16.625 13.558C16.625 13.5577 16.625 13.5574 16.625 13.5571C16.625 13.5568 16.625 13.5565 16.625 13.5563C16.625 13.556 16.625 13.5557 16.625 13.5554C16.625 13.5551 16.625 13.5548 16.625 13.5546C16.625 13.5543 16.625 13.554 16.625 13.5537C16.625 13.5535 16.625 13.5532 16.625 13.5529C16.625 13.5526 16.625 13.5524 16.625 13.5521C16.625 13.5518 16.625 13.5515 16.625 13.5513C16.625 13.551 16.625 13.5507 16.625 13.5505C16.625 13.5502 16.625 13.5499 16.625 13.5497C16.625 13.5494 16.625 13.5491 16.625 13.5489C16.625 13.5486 16.625 13.5483 16.625 13.5481C16.625 13.5478 16.625 13.5475 16.625 13.5473C16.625 13.547 16.625 13.5468 16.625 13.5465C16.625 13.5462 16.625 13.546 16.625 13.5457C16.625 13.5455 16.625 13.5452 16.625 13.545C16.625 13.5447 16.625 13.5444 16.625 13.5442C16.625 13.5439 16.625 13.5437 16.625 13.5434C16.625 13.5432 16.625 13.5429 16.625 13.5427C16.625 13.5424 16.625 13.5422 16.625 13.5419C16.625 13.5417 16.625 13.5415 16.625 13.5412C16.625 13.541 16.625 13.5407 16.625 13.5405C16.625 13.5402 16.625 13.54 16.625 13.5398C16.625 13.5395 16.625 13.5393 16.625 13.539C16.625 13.5388 16.625 13.5386 16.625 13.5383C16.625 13.5381 16.625 13.5379 16.625 13.5376C16.625 13.5374 16.625 13.5372 16.625 13.5369C16.625 13.5367 16.625 13.5365 16.625 13.5362C16.625 13.536 16.625 13.5358 16.625 13.5355C16.625 13.5353 16.625 13.5351 16.625 13.5349C16.625 13.5346 16.625 13.5344 16.625 13.5342C16.625 13.534 16.625 13.5338 16.625 13.5335C16.625 13.5333 16.625 13.5331 16.625 13.5329C16.625 13.5326 16.625 13.5324 16.625 13.5322C16.625 13.532 16.625 13.5318 16.625 13.5316C16.625 13.5314 16.625 13.5311 16.625 13.5309C16.625 13.5307 16.625 13.5305 16.625 13.5303C16.625 13.5301 16.625 13.5299 16.625 13.5297C16.625 13.5294 16.625 13.5292 16.625 13.529C16.625 13.5288 16.625 13.5286 16.625 13.5284C16.625 13.5282 16.625 13.528 16.625 13.5278C16.625 13.5276 16.625 13.5274 16.625 13.5272C16.625 13.527 16.625 13.5268 16.625 13.5266C16.625 13.5264 16.625 13.5262 16.625 13.526C16.625 13.5258 16.625 13.5256 16.625 13.5254C16.625 13.5252 16.625 13.525 16.625 13.5249C16.625 13.5247 16.625 13.5245 16.625 13.5243C16.625 13.5241 16.625 13.5239 16.625 13.5237C16.625 13.5235 16.625 13.5233 16.625 13.5232C16.625 13.523 16.625 13.5228 16.625 13.5226C16.625 13.5224 16.625 13.5222 16.625 13.5221C16.625 13.5219 16.625 13.5217 16.625 13.5215C16.625 13.5213 16.625 13.5212 16.625 13.521C16.625 13.5208 16.625 13.5206 16.625 13.5205C16.625 13.5203 16.625 13.5201 16.625 13.5199C16.625 13.5198 16.625 13.5196 16.625 13.5194C16.625 13.5193 16.625 13.5191 16.625 13.5189C16.625 13.5188 16.625 13.5186 16.625 13.5184C16.625 13.5183 16.625 13.5181 16.625 13.5179C16.625 13.5178 16.625 13.5176 16.625 13.5174C16.625 13.5173 16.625 13.5171 16.625 13.517C16.625 13.5168 16.625 13.5166 16.625 13.5165C16.625 13.5163 16.625 13.5162 16.625 13.516C16.625 13.5159 16.625 13.5157 16.625 13.5156C16.625 13.5154 16.625 13.5152 16.625 13.5151C16.625 13.5149 16.625 13.5148 16.625 13.5146C16.625 13.5145 16.625 13.5144 16.625 13.5142C16.625 13.5141 16.625 13.5139 16.625 13.5138C16.625 13.5136 16.625 13.5135 16.625 13.5133C16.625 13.5132 16.625 13.5131 16.625 13.5129C16.625 13.5128 16.625 13.5126 16.625 13.5125C16.625 13.5124 16.625 13.5122 16.625 13.5121C16.625 13.512 16.625 13.5118 16.625 13.5117C16.625 13.5116 16.625 13.5114 16.625 13.5113C16.625 13.5112 16.625 13.511 16.625 13.5109C16.625 13.5108 16.625 13.5107 16.625 13.5105C16.625 13.5104 16.625 13.5103 16.625 13.5102C16.625 13.51 16.625 13.5099 16.625 13.5098C16.625 13.5097 16.625 13.5095 16.625 13.5094C16.625 13.5093 16.625 13.5092 16.625 13.5091C16.625 13.5089 16.625 13.5088 16.625 13.5087C16.625 13.5086 16.625 13.5085 16.625 13.5084C16.625 13.5083 16.625 13.5082 16.625 13.508C16.625 13.5079 16.625 13.5078 16.625 13.5077C16.625 13.5076 16.625 13.5075 16.625 13.5074C16.625 13.5073 16.625 13.5072 16.625 13.5071C16.625 13.507 16.625 13.5069 16.625 13.5068C16.625 13.5067 16.625 13.5066 16.625 13.5065C16.625 13.5064 16.625 13.5063 16.625 13.5062C16.625 13.5061 16.625 13.506 16.625 13.5059C16.625 13.5058 16.625 13.5057 16.625 13.5056C16.625 13.5055 16.625 13.5054 16.625 13.5053C16.625 13.5052 16.625 13.5051 16.625 13.5051C16.625 13.505 16.625 13.5049 16.625 13.5048C16.625 13.5047 16.625 13.5046 16.625 13.5045C16.625 13.5045 16.625 13.5044 16.625 13.5043C16.625 13.5042 16.625 13.5041 16.625 13.5041C16.625 13.504 16.625 13.5039 16.625 13.5038C16.625 13.5037 16.625 13.5037 16.625 13.5036C16.625 13.5035 16.625 13.5034 16.625 13.5034C16.625 13.5033 16.625 13.5032 16.625 13.5032C16.625 13.5031 16.625 13.503 16.625 13.503C16.625 13.5029 16.625 13.5028 16.625 13.5028C16.625 13.5027 16.625 13.5026 16.625 13.5026C16.625 13.5025 16.625 13.5024 16.625 13.5024C16.625 13.5023 16.625 13.5023 16.625 13.5022C16.625 13.5021 16.625 13.5021 16.625 13.502C16.625 13.502 16.625 13.5019 16.625 13.5019C16.625 13.5018 16.625 13.5018 16.625 13.5017C16.625 13.5017 16.625 13.5016 16.625 13.5016C16.625 13.5015 16.625 13.5015 16.625 13.5014C16.625 13.5014 16.625 13.5013 16.625 13.5013C16.625 13.5012 16.625 13.5012 16.625 13.5011C16.625 13.5011 16.625 13.5011 16.625 13.501C16.625 13.501 16.625 13.5009 16.625 13.5009C16.625 13.5009 16.625 13.5008 16.625 13.5008C16.625 13.5008 16.625 13.5007 16.625 13.5007C16.625 13.5007 16.625 13.5006 16.625 13.5006C16.625 13.5006 16.625 13.5005 16.625 13.5005C16.625 13.5005 16.625 13.5005 16.625 13.5004C16.625 13.5004 16.625 13.5004 16.625 13.5004C16.625 13.5003 16.625 13.5003 16.625 13.5003C16.625 13.5003 16.625 13.5002 16.625 13.5002C16.625 13.5002 16.625 13.5002 16.625 13.5002C16.625 13.5002 16.625 13.5001 16.625 13.5001C16.625 13.5001 16.625 13.5001 16.625 13.5001C16.625 13.5001 16.625 13.5001 16.625 13.5001C16.625 13.5 16.625 13.5 16.625 13.5C16.625 13.5 16.625 13.5 16.625 13.5C16.625 13.5 16.625 13.5 16.625 13.5C16.625 13.5 16.625 13.5 16.125 13.5ZM8.375 14.25V13.5H7.375V14.25H8.375ZM14.625 12.5C15.1773 12.5 15.625 12.9477 15.625 13.5H16.625C16.625 12.3954 15.7296 11.5 14.625 11.5V12.5ZM9.375 11.5C8.27043 11.5 7.375 12.3954 7.375 13.5H8.375C8.375 12.9477 8.82272 12.5 9.375 12.5V11.5ZM15.75 14.75H16.5V13.75H15.75V14.75ZM17.5 15.75V16.5H18.5V15.75H17.5ZM16.5 17.5H15.75V18.5H16.5V17.5ZM14.75 16.5V15.75H13.75V16.5H14.75ZM15.75 17.5C15.1977 17.5 14.75 17.0523 14.75 16.5H13.75C13.75 17.6046 14.6454 18.5 15.75 18.5V17.5ZM17.5 16.5C17.5 17.0523 17.0523 17.5 16.5 17.5V18.5C17.6046 18.5 18.5 17.6046 18.5 16.5H17.5ZM16.5 14.75C17.0523 14.75 17.5 15.1977 17.5 15.75H18.5C18.5 14.6454 17.6046 13.75 16.5 13.75V14.75ZM15.75 13.75C14.6454 13.75 13.75 14.6454 13.75 15.75H14.75C14.75 15.1977 15.1977 14.75 15.75 14.75V13.75ZM11.625 6.5H12.375V5.5H11.625V6.5ZM13.375 7.5V8.25H14.375V7.5H13.375ZM12.375 9.25H11.625V10.25H12.375V9.25ZM10.625 8.25V7.5H9.625V8.25H10.625ZM11.625 9.25C11.0727 9.25 10.625 8.80228 10.625 8.25H9.625C9.625 9.35457 10.5204 10.25 11.625 10.25V9.25ZM13.375 8.25C13.375 8.80228 12.9273 9.25 12.375 9.25V10.25C13.4796 10.25 14.375 9.35457 14.375 8.25H13.375ZM12.375 6.5C12.9273 6.5 13.375 6.94772 13.375 7.5H14.375C14.375 6.39543 13.4796 5.5 12.375 5.5V6.5ZM11.625 5.5C10.5204 5.5 9.625 6.39543 9.625 7.5H10.625C10.625 6.94772 11.0727 6.5 11.625 6.5V5.5ZM7.5 14.75H8.25V13.75H7.5V14.75ZM9.25 15.75V16.5H10.25V15.75H9.25ZM8.25 17.5H7.5V18.5H8.25V17.5ZM6.5 16.5V15.75H5.5V16.5H6.5ZM7.5 17.5C6.94772 17.5 6.5 17.0523 6.5 16.5H5.5C5.5 17.6046 6.39543 18.5 7.5 18.5V17.5ZM9.25 16.5C9.25 17.0523 8.80228 17.5 8.25 17.5V18.5C9.35457 18.5 10.25 17.6046 10.25 16.5H9.25ZM8.25 14.75C8.80228 14.75 9.25 15.1977 9.25 15.75H10.25C10.25 14.6454 9.35457 13.75 8.25 13.75V14.75ZM7.5 13.75C6.39543 13.75 5.5 14.6454 5.5 15.75H6.5C6.5 15.1977 6.94772 14.75 7.5 14.75V13.75ZM11.5 9.75V12H12.5V9.75H11.5ZM16.125 13.5C16.625 13.5 16.625 13.5 16.625 13.5C16.125 13.5 15.625 13.5 15.625 13.5H16.625C16.625 13.5 16.125 13.5 15.625 13.5C15.625 13.5 15.625 13.5 16.125 13.5Z" fill="currentColor"/>
</svg>
