<svg viewBox="0 0 32 32" fill="none" xmlns="http://www.w3.org/2000/svg">
    <path d="M12.498 9.12134C13.8788 9.12134 14.998 8.00205 14.998 6.62134C14.998 5.24063 13.8788 4.12134 12.498 4.12134C11.1173 4.12134 9.99805 5.24063 9.99805 6.62134C9.99805 8.00205 11.1173 9.12134 12.498 9.12134Z" fill="currentColor"/>
    <path d="M24.2473 19.8721C25.3519 19.8721 26.2473 18.9766 26.2473 17.8721C26.2473 16.7675 25.3519 15.8721 24.2473 15.8721C23.1427 15.8721 22.2473 16.7675 22.2473 17.8721C22.2473 18.9766 23.1427 19.8721 24.2473 19.8721Z" fill="currentColor"/>
    <path d="M15.122 13.2414C14.3436 12.3578 13.3322 11.711 12.2035 11.3751C11.0748 11.0391 9.87437 11.0274 8.73938 11.3414C6.48871 11.9548 4.89404 14.2814 4.31271 16.3148L4.05804 17.2054C4.00376 17.3949 3.98733 17.5932 4.00968 17.789C4.03204 17.9848 4.09274 18.1743 4.18832 18.3466C4.2839 18.519 4.4125 18.6708 4.56676 18.7934C4.72102 18.9161 4.89792 19.0072 5.08738 19.0614C5.27683 19.1157 5.47512 19.1322 5.67092 19.1098C5.86673 19.0875 6.05621 19.0267 6.22856 18.9312C6.4009 18.8356 6.55274 18.707 6.67538 18.5527C6.79803 18.3985 6.8891 18.2216 6.94338 18.0321C7.05004 17.6521 7.63538 14.8668 9.52738 14.2508C9.56683 14.2377 9.60894 14.2347 9.64986 14.242C9.69079 14.2493 9.72923 14.2667 9.76169 14.2927C9.79416 14.3187 9.81961 14.3524 9.83574 14.3907C9.85187 14.429 9.85816 14.4707 9.85404 14.5121L9.54738 17.5654L5.78471 24.2361C5.66275 24.395 5.57384 24.5766 5.52321 24.7704C5.47258 24.9641 5.46126 25.166 5.48992 25.3642C5.51857 25.5624 5.58663 25.7529 5.69006 25.9244C5.7935 26.0958 5.93023 26.2449 6.09218 26.3627C6.25413 26.4805 6.43803 26.5646 6.63304 26.6102C6.82804 26.6558 7.0302 26.6619 7.22758 26.6281C7.42497 26.5943 7.61359 26.5213 7.78233 26.4135C7.95106 26.3056 8.09649 26.1651 8.21004 26.0001L11.078 20.5574L11.878 21.5228C11.9525 21.6128 11.993 21.726 11.9927 21.8428V25.1188C11.9927 25.5166 12.1507 25.8981 12.4321 26.1794C12.7134 26.4607 13.0949 26.6188 13.4927 26.6188C13.8905 26.6188 14.2721 26.4607 14.5534 26.1794C14.8347 25.8981 14.9927 25.5166 14.9927 25.1188V21.8454C14.9927 21.0281 14.706 20.2348 14.182 19.6054L12.5514 17.6454L12.746 15.8361C12.7513 15.7854 12.7719 15.7375 12.8052 15.6988C12.8385 15.6602 12.8828 15.6327 12.9323 15.62C12.9817 15.6074 13.0338 15.6102 13.0815 15.6281C13.1293 15.646 13.1704 15.6781 13.1994 15.7201L14.7647 17.9774C14.8764 18.1406 15.0193 18.28 15.1851 18.3878C15.3509 18.4955 15.5363 18.5694 15.7308 18.6052C15.9252 18.641 16.1248 18.638 16.3181 18.5964C16.5114 18.5548 16.6946 18.4754 16.8571 18.3627C17.0196 18.2501 17.1582 18.1064 17.2649 17.94C17.3717 17.7735 17.4445 17.5876 17.4792 17.393C17.5138 17.1983 17.5097 16.9987 17.4669 16.8057C17.4242 16.6126 17.3437 16.4299 17.23 16.2681C15.1007 13.1988 15.2087 13.3414 15.122 13.2414ZM27.2327 22.7081C27.1893 22.4467 27.0438 22.2132 26.8283 22.0589C26.6128 21.9047 26.3449 21.8423 26.0834 21.8854C25.11 22.0401 24.5834 21.5401 23.6367 20.5548C22.4487 19.3108 21.382 18.3721 19.5727 18.3721C19.3075 18.3721 19.0531 18.4775 18.8656 18.665C18.6781 18.8525 18.5727 19.1069 18.5727 19.3721C18.5727 19.6373 18.6781 19.8917 18.8656 20.0792C19.0531 20.2668 19.3075 20.3721 19.5727 20.3721C20.2087 20.3814 20.8194 20.6254 21.2887 21.0574L19.3074 26.5361C19.2584 26.6605 19.2348 26.7935 19.2381 26.9271C19.2413 27.0608 19.2714 27.1924 19.3264 27.3143C19.3814 27.4361 19.4603 27.5457 19.5584 27.6366C19.6566 27.7274 19.7719 27.7976 19.8976 27.8431C20.0234 27.8886 20.1569 27.9084 20.2904 27.9013C20.424 27.8943 20.5547 27.8605 20.675 27.8021C20.7952 27.7436 20.9025 27.6616 20.9905 27.561C21.0785 27.4604 21.1455 27.3431 21.1874 27.2161L21.9527 25.1028L22.1954 25.2174C22.3622 25.3 22.5025 25.4278 22.6003 25.5862C22.6982 25.7446 22.7496 25.9273 22.7487 26.1134V26.8761C22.7487 27.1413 22.8541 27.3957 23.0416 27.5832C23.2291 27.7708 23.4835 27.8761 23.7487 27.8761C24.0139 27.8761 24.2683 27.7708 24.4558 27.5832C24.6434 27.3957 24.7487 27.1413 24.7487 26.8761V26.1134C24.7494 25.5521 24.5922 25.002 24.2951 24.5257C23.9981 24.0495 23.5731 23.6664 23.0687 23.4201L22.6354 23.2201L22.854 22.6148C23.2988 23.0993 23.8559 23.467 24.4762 23.6855C25.0966 23.9041 25.7611 23.9668 26.4114 23.8681C26.5418 23.8465 26.6666 23.7993 26.7786 23.7291C26.8906 23.659 26.9876 23.5673 27.064 23.4594C27.1404 23.3516 27.1946 23.2296 27.2236 23.1007C27.2525 22.9717 27.2556 22.8383 27.2327 22.7081ZM20.3927 13.8108C20.3927 14.076 20.4981 14.3303 20.6856 14.5179C20.8731 14.7054 21.1275 14.8108 21.3927 14.8108C21.6579 14.8108 21.9123 14.7054 22.0998 14.5179C22.2874 14.3303 22.3927 14.076 22.3927 13.8108V12.1241H24.7927C24.8894 12.1242 24.9841 12.0963 25.0653 12.0436C25.1464 11.991 25.2106 11.916 25.2499 11.8277C25.2893 11.7393 25.3022 11.6414 25.2871 11.5459C25.272 11.4504 25.2294 11.3613 25.1647 11.2894L22.662 8.01611H23.49C23.5814 8.01612 23.671 7.99112 23.7491 7.94382C23.8272 7.89652 23.8909 7.82873 23.9332 7.7478C23.9755 7.66687 23.9949 7.5759 23.9891 7.48475C23.9834 7.39361 23.9528 7.30577 23.9007 7.23078L21.8034 4.21478C21.7573 4.14849 21.6959 4.09434 21.6244 4.05694C21.5529 4.01953 21.4734 4 21.3927 4C21.312 4 21.2325 4.01953 21.161 4.05694C21.0895 4.09434 21.0281 4.14849 20.982 4.21478L18.8887 7.23611C18.8366 7.3111 18.806 7.39894 18.8003 7.49009C18.7946 7.58123 18.8139 7.67221 18.8562 7.75314C18.8985 7.83407 18.9622 7.90186 19.0403 7.94916C19.1185 7.99646 19.2081 8.02146 19.2994 8.02144H20.126L17.622 11.2881C17.557 11.3598 17.5141 11.4489 17.4987 11.5446C17.4833 11.6402 17.496 11.7382 17.5352 11.8268C17.5745 11.9153 17.6386 11.9906 17.7198 12.0433C17.8011 12.0961 17.8959 12.1242 17.9927 12.1241H20.3927V13.8108Z" fill="currentColor"/>
</svg>
