<svg viewBox="0 0 24 24" fill="none" xmlns="http://www.w3.org/2000/svg">
<path d="M8.49805 5.12134C9.87876 5.12134 10.998 4.00205 10.998 2.62134C10.998 1.24063 9.87876 0.121338 8.49805 0.121338C7.11734 0.121338 5.99805 1.24063 5.99805 2.62134C5.99805 4.00205 7.11734 5.12134 8.49805 5.12134Z" fill="currentColor"/>
<path d="M20.2473 15.8721C21.3519 15.8721 22.2473 14.9766 22.2473 13.8721C22.2473 12.7675 21.3519 11.8721 20.2473 11.8721C19.1427 11.8721 18.2473 12.7675 18.2473 13.8721C18.2473 14.9766 19.1427 15.8721 20.2473 15.8721Z" fill="currentColor"/>
<path d="M11.122 9.24144C10.3436 8.35782 9.33219 7.71105 8.2035 7.37506C7.07482 7.03907 5.87437 7.02742 4.73938 7.34144C2.48871 7.95478 0.894044 10.2814 0.31271 12.3148L0.0580438 13.2054C0.00376405 13.3949 -0.0126685 13.5932 0.00968441 13.789C0.0320373 13.9848 0.0927378 14.1743 0.18832 14.3466C0.283903 14.519 0.412495 14.6708 0.566756 14.7934C0.721016 14.9161 0.897923 15.0072 1.08738 15.0614C1.27683 15.1157 1.47512 15.1322 1.67092 15.1098C1.86673 15.0875 2.05621 15.0267 2.22856 14.9312C2.4009 14.8356 2.55274 14.707 2.67538 14.5527C2.79803 14.3985 2.8891 14.2216 2.94338 14.0321C3.05004 13.6521 3.63538 10.8668 5.52738 10.2508C5.56683 10.2377 5.60894 10.2347 5.64986 10.242C5.69079 10.2493 5.72923 10.2667 5.76169 10.2927C5.79416 10.3187 5.81961 10.3524 5.83574 10.3907C5.85187 10.429 5.85816 10.4707 5.85404 10.5121L5.54738 13.5654L1.78471 20.2361C1.66275 20.395 1.57384 20.5766 1.52321 20.7704C1.47258 20.9641 1.46126 21.166 1.48992 21.3642C1.51857 21.5624 1.58663 21.7529 1.69006 21.9244C1.7935 22.0958 1.93023 22.2449 2.09218 22.3627C2.25413 22.4805 2.43803 22.5646 2.63304 22.6102C2.82804 22.6558 3.0302 22.6619 3.22758 22.6281C3.42497 22.5943 3.61359 22.5213 3.78233 22.4135C3.95106 22.3056 4.09649 22.1651 4.21004 22.0001L7.07804 16.5574L7.87804 17.5228C7.95246 17.6128 7.99303 17.726 7.99271 17.8428V21.1188C7.99271 21.5166 8.15075 21.8981 8.43205 22.1794C8.71336 22.4607 9.09489 22.6188 9.49271 22.6188C9.89054 22.6188 10.2721 22.4607 10.5534 22.1794C10.8347 21.8981 10.9927 21.5166 10.9927 21.1188V17.8454C10.9927 17.0281 10.706 16.2348 10.182 15.6054L8.55138 13.6454L8.74604 11.8361C8.75126 11.7854 8.7719 11.7375 8.8052 11.6988C8.8385 11.6602 8.88285 11.6327 8.93226 11.62C8.98168 11.6074 9.03378 11.6102 9.08154 11.6281C9.12931 11.646 9.17043 11.6781 9.19938 11.7201L10.7647 13.9774C10.8764 14.1406 11.0193 14.28 11.1851 14.3878C11.3509 14.4955 11.5363 14.5694 11.7308 14.6052C11.9252 14.641 12.1248 14.638 12.3181 14.5964C12.5114 14.5548 12.6946 14.4754 12.8571 14.3627C13.0196 14.2501 13.1582 14.1064 13.2649 13.94C13.3717 13.7735 13.4445 13.5876 13.4792 13.393C13.5138 13.1983 13.5097 12.9987 13.4669 12.8057C13.4242 12.6126 13.3437 12.4299 13.23 12.2681C11.1007 9.19878 11.2087 9.34144 11.122 9.24144ZM23.2327 18.7081C23.1893 18.4467 23.0438 18.2132 22.8283 18.0589C22.6128 17.9047 22.3449 17.8423 22.0834 17.8854C21.11 18.0401 20.5834 17.5401 19.6367 16.5548C18.4487 15.3108 17.382 14.3721 15.5727 14.3721C15.3075 14.3721 15.0531 14.4775 14.8656 14.665C14.6781 14.8525 14.5727 15.1069 14.5727 15.3721C14.5727 15.6373 14.6781 15.8917 14.8656 16.0792C15.0531 16.2668 15.3075 16.3721 15.5727 16.3721C16.2087 16.3814 16.8194 16.6254 17.2887 17.0574L15.3074 22.5361C15.2584 22.6605 15.2348 22.7935 15.2381 22.9271C15.2413 23.0608 15.2714 23.1924 15.3264 23.3143C15.3814 23.4361 15.4603 23.5457 15.5584 23.6366C15.6566 23.7274 15.7719 23.7976 15.8976 23.8431C16.0234 23.8886 16.1569 23.9084 16.2904 23.9013C16.424 23.8943 16.5547 23.8605 16.675 23.8021C16.7952 23.7436 16.9025 23.6616 16.9905 23.561C17.0785 23.4604 17.1455 23.3431 17.1874 23.2161L17.9527 21.1028L18.1954 21.2174C18.3622 21.3 18.5025 21.4278 18.6003 21.5862C18.6982 21.7446 18.7496 21.9273 18.7487 22.1134V22.8761C18.7487 23.1413 18.8541 23.3957 19.0416 23.5832C19.2291 23.7708 19.4835 23.8761 19.7487 23.8761C20.0139 23.8761 20.2683 23.7708 20.4558 23.5832C20.6434 23.3957 20.7487 23.1413 20.7487 22.8761V22.1134C20.7494 21.5521 20.5922 21.002 20.2951 20.5257C19.9981 20.0495 19.5731 19.6664 19.0687 19.4201L18.6354 19.2201L18.854 18.6148C19.2988 19.0993 19.8559 19.467 20.4762 19.6855C21.0966 19.9041 21.7611 19.9668 22.4114 19.8681C22.5418 19.8465 22.6666 19.7993 22.7786 19.7291C22.8906 19.659 22.9876 19.5673 23.064 19.4594C23.1404 19.3516 23.1946 19.2296 23.2236 19.1007C23.2525 18.9717 23.2556 18.8383 23.2327 18.7081ZM16.3927 9.81078C16.3927 10.076 16.4981 10.3303 16.6856 10.5179C16.8731 10.7054 17.1275 10.8108 17.3927 10.8108C17.6579 10.8108 17.9123 10.7054 18.0998 10.5179C18.2874 10.3303 18.3927 10.076 18.3927 9.81078V8.12411H20.7927C20.8894 8.12421 20.9841 8.09626 21.0653 8.04364C21.1464 7.99102 21.2106 7.91599 21.2499 7.82765C21.2893 7.73931 21.3022 7.64145 21.2871 7.54592C21.272 7.45039 21.2294 7.3613 21.1647 7.28944L18.662 4.01611H19.49C19.5814 4.01612 19.671 3.99112 19.7491 3.94382C19.8272 3.89652 19.8909 3.82873 19.9332 3.7478C19.9755 3.66687 19.9949 3.5759 19.9891 3.48475C19.9834 3.39361 19.9528 3.30577 19.9007 3.23078L17.8034 0.214776C17.7573 0.148492 17.6959 0.0943364 17.6244 0.0569356C17.5529 0.0195348 17.4734 0 17.3927 0C17.312 0 17.2325 0.0195348 17.161 0.0569356C17.0895 0.0943364 17.0281 0.148492 16.982 0.214776L14.8887 3.23611C14.8366 3.3111 14.806 3.39894 14.8003 3.49009C14.7946 3.58123 14.8139 3.67221 14.8562 3.75314C14.8985 3.83407 14.9622 3.90186 15.0403 3.94916C15.1185 3.99646 15.2081 4.02146 15.2994 4.02144H16.126L13.622 7.28811C13.557 7.35984 13.5141 7.44893 13.4987 7.54456C13.4833 7.64018 13.496 7.73823 13.5352 7.82677C13.5745 7.91532 13.6386 7.99056 13.7198 8.04334C13.8011 8.09613 13.8959 8.12418 13.9927 8.12411H16.3927V9.81078Z" fill="currentColor"/>
</svg>
