<svg viewBox="0 0 24 24" fill="none" xmlns="http://www.w3.org/2000/svg">
<path d="M13 8.5H11.7493C11.6831 8.50035 11.6197 8.52692 11.5729 8.57389C11.5262 8.62086 11.5 8.68442 11.5 8.75067V11.2507C11.5 11.388 11.612 11.5 11.7507 11.5H13C13.3978 11.5 13.7794 11.342 14.0607 11.0607C14.342 10.7794 14.5 10.3978 14.5 10C14.5 9.60218 14.342 9.22064 14.0607 8.93934C13.7794 8.65804 13.3978 8.5 13 8.5Z" fill="currentColor"/>
<path d="M12 0C9.62663 0 7.30655 0.703788 5.33316 2.02236C3.35977 3.34094 1.8217 5.21509 0.913451 7.4078C0.00519943 9.60051 -0.232441 12.0133 0.230582 14.3411C0.693605 16.6689 1.83649 18.8071 3.51472 20.4853C5.19295 22.1635 7.33115 23.3064 9.65892 23.7694C11.9867 24.2324 14.3995 23.9948 16.5922 23.0866C18.7849 22.1783 20.6591 20.6402 21.9776 18.6668C23.2962 16.6935 24 14.3734 24 12C23.9965 8.81849 22.7311 5.76829 20.4814 3.51862C18.2317 1.26894 15.1815 0.00352914 12 0ZM13 14.5H11.7493C11.7165 14.5 11.684 14.5065 11.6536 14.5191C11.6233 14.5317 11.5957 14.5502 11.5726 14.5735C11.5494 14.5968 11.5311 14.6244 11.5186 14.6548C11.5061 14.6852 11.4998 14.7178 11.5 14.7507V18C11.5 18.3978 11.342 18.7794 11.0607 19.0607C10.7794 19.342 10.3978 19.5 10 19.5C9.60218 19.5 9.22065 19.342 8.93935 19.0607C8.65804 18.7794 8.50001 18.3978 8.50001 18V8C8.50001 6.61867 9.62001 5.5 11 5.5H13C14.1935 5.5 15.3381 5.97411 16.182 6.81802C17.0259 7.66193 17.5 8.80653 17.5 10C17.5 11.1935 17.0259 12.3381 16.182 13.182C15.3381 14.0259 14.1935 14.5 13 14.5Z" fill="currentColor"/>
</svg>
