<svg viewBox="0 0 32 32" fill="none" xmlns="http://www.w3.org/2000/svg">
    <path d="M17 12.5H15.7493C15.6831 12.5004 15.6197 12.5269 15.5729 12.5739C15.5262 12.6209 15.5 12.6844 15.5 12.7507V15.2507C15.5 15.388 15.612 15.5 15.7507 15.5H17C17.3978 15.5 17.7794 15.342 18.0607 15.0607C18.342 14.7794 18.5 14.3978 18.5 14C18.5 13.6022 18.342 13.2206 18.0607 12.9393C17.7794 12.658 17.3978 12.5 17 12.5Z" fill="currentColor"/>
    <path d="M16 4C13.6266 4 11.3066 4.70379 9.33316 6.02236C7.35977 7.34094 5.8217 9.21509 4.91345 11.4078C4.0052 13.6005 3.76756 16.0133 4.23058 18.3411C4.6936 20.6689 5.83649 22.8071 7.51472 24.4853C9.19295 26.1635 11.3311 27.3064 13.6589 27.7694C15.9867 28.2324 18.3995 27.9948 20.5922 27.0866C22.7849 26.1783 24.6591 24.6402 25.9776 22.6668C27.2962 20.6935 28 18.3734 28 16C27.9965 12.8185 26.7311 9.76829 24.4814 7.51862C22.2317 5.26894 19.1815 4.00353 16 4ZM17 18.5H15.7493C15.7165 18.5 15.684 18.5065 15.6536 18.5191C15.6233 18.5317 15.5957 18.5502 15.5726 18.5735C15.5494 18.5968 15.5311 18.6244 15.5186 18.6548C15.5061 18.6852 15.4998 18.7178 15.5 18.7507V22C15.5 22.3978 15.342 22.7794 15.0607 23.0607C14.7794 23.342 14.3978 23.5 14 23.5C13.6022 23.5 13.2206 23.342 12.9393 23.0607C12.658 22.7794 12.5 22.3978 12.5 22V12C12.5 10.6187 13.62 9.5 15 9.5H17C18.1935 9.5 19.3381 9.97411 20.182 10.818C21.0259 11.6619 21.5 12.8065 21.5 14C21.5 15.1935 21.0259 16.3381 20.182 17.182C19.3381 18.0259 18.1935 18.5 17 18.5Z" fill="currentColor"/>
</svg>
