<svg viewBox="0 0 14 14" fill="none" xmlns="http://www.w3.org/2000/svg">
<path fill-rule="evenodd" clip-rule="evenodd" d="M0 2.15385C0 0.96431 0.96431 0 2.15385 0H11.8462C13.0357 0 14 0.96431 14 2.15385V8.71411C14 8.71572 14 8.71734 14 8.71895V11.8462C14 13.0357 13.0357 14 11.8462 14H2.15385C0.96431 14 0 13.0357 0 11.8462V2.15385ZM12.9231 7.41656V2.15385C12.9231 1.55908 12.4409 1.07692 11.8462 1.07692H2.15385C1.55908 1.07692 1.07692 1.55908 1.07692 2.15385V10.2169L2.48352 8.81029C3.13057 8.16323 4.17965 8.16323 4.8267 8.81029C5.05319 9.03677 5.4204 9.03677 5.64689 8.81029L8.45884 5.99833C9.29997 5.1572 10.6637 5.1572 11.5048 5.99833L12.9231 7.41656ZM1.07692 11.7399L3.24502 9.57179C3.47151 9.3453 3.83871 9.3453 4.0652 9.57179C4.71225 10.2188 5.76133 10.2188 6.40838 9.57179L9.22034 6.75983C9.64091 6.33926 10.3228 6.33926 10.7433 6.75983L12.9231 8.93956V11.8462C12.9231 12.4409 12.4409 12.9231 11.8462 12.9231H2.15385C1.55908 12.9231 1.07692 12.4409 1.07692 11.8462V11.7399ZM3.94933 3.04095C4.15299 2.95659 4.37128 2.91317 4.59173 2.91317C4.81218 2.91317 5.03047 2.95659 5.23414 3.04095C5.43781 3.12531 5.62287 3.24896 5.77875 3.40485C5.93463 3.56073 6.05828 3.74578 6.14264 3.94945C6.22701 4.15312 6.27043 4.37141 6.27043 4.59186C6.27043 4.81231 6.22701 5.0306 6.14264 5.23427C6.05828 5.43794 5.93463 5.62299 5.77875 5.77887C5.62287 5.93476 5.43781 6.05841 5.23414 6.14277C5.03047 6.22713 4.81218 6.27055 4.59173 6.27055C4.37128 6.27055 4.15299 6.22713 3.94933 6.14277C3.74566 6.05841 3.5606 5.93476 3.40472 5.77887C3.24884 5.62299 3.12519 5.43794 3.04082 5.23427C2.95646 5.0306 2.91304 4.81231 2.91304 4.59186C2.91304 4.37141 2.95646 4.15312 3.04082 3.94945C3.12519 3.74578 3.24884 3.56073 3.40472 3.40485C3.5606 3.24896 3.74566 3.12531 3.94933 3.04095ZM4.59173 3.99009C4.51271 3.99009 4.43446 4.00566 4.36145 4.0359C4.28844 4.06614 4.2221 4.11047 4.16622 4.16635C4.11034 4.22222 4.06601 4.28856 4.03577 4.36157C4.00553 4.43458 3.98996 4.51284 3.98996 4.59186C3.98996 4.67089 4.00553 4.74914 4.03577 4.82215C4.06601 4.89516 4.11034 4.9615 4.16622 5.01738C4.2221 5.07326 4.28844 5.11758 4.36145 5.14782C4.43446 5.17806 4.51271 5.19363 4.59173 5.19363C4.67076 5.19363 4.74901 5.17806 4.82202 5.14782C4.89503 5.11758 4.96137 5.07326 5.01725 5.01738C5.07313 4.96149 5.11745 4.89516 5.1477 4.82215C5.17794 4.74914 5.1935 4.67089 5.1935 4.59186C5.1935 4.51284 5.17794 4.43458 5.1477 4.36157C5.11745 4.28856 5.07313 4.22222 5.01725 4.16635C4.96137 4.11047 4.89503 4.06614 4.82202 4.0359C4.74901 4.00566 4.67076 3.99009 4.59173 3.99009Z" fill="currentColor"/>
</svg>
