<svg viewBox="0 0 12 12" fill="none" xmlns="http://www.w3.org/2000/svg">
    <path d="M1.03613 2.01807C1.03613 1.46578 1.48385 1.01807 2.03613 1.01807H10.0001C10.5524 1.01807 11.0001 1.46578 11.0001 2.01807V9.98204C11.0001 10.5343 10.5524 10.982 10.0001 10.982H2.03613C1.48385 10.982 1.03613 10.5343 1.03613 9.98204V2.01807Z" stroke="currentColor" stroke-width="0.8" stroke-linecap="round" stroke-linejoin="round"/>
    <path d="M-nan -nanL3.28198 4.1433C3.28198 4.25875 3.30472 4.37307 3.3489 4.47974C3.39308 4.5864 3.45784 4.68332 3.53948 4.76495C3.62111 4.84659 3.71803 4.91134 3.82469 4.95553C3.93135 4.99971 4.04567 5.02245 4.16113 5.02245C4.27658 5.02245 4.3909 4.99971 4.49756 4.95553C4.60422 4.91134 4.70114 4.84659 4.78277 4.76495C4.86441 4.68332 4.92917 4.5864 4.97335 4.47974C5.01753 4.37307 5.04027 4.25875 5.04027 4.1433C5.04027 4.02785 5.01753 3.91353 4.97335 3.80687C4.92917 3.70021 4.86441 3.60329 4.78277 3.52166C4.70114 3.44002 4.60422 3.37526 4.49756 3.33108C4.3909 3.2869 4.27658 3.26416 4.16113 3.26416C4.04567 3.26416 3.93135 3.2869 3.82469 3.33108C3.71803 3.37526 3.62111 3.44002 3.53948 3.52166C3.45784 3.60329 3.39308 3.70021 3.3489 3.80687C3.30472 3.91353 3.28198 4.02785 3.28198 4.1433L-nan -nanL-nan -nanZ" stroke="currentColor" stroke-width="0.8" stroke-linecap="round" stroke-linejoin="round"/>
    <path d="M10.7172 7.60639C10.8734 7.7626 11.1266 7.7626 11.2828 7.60639C11.4391 7.45018 11.4391 7.19692 11.2828 7.04071L10.7172 7.60639ZM9.02418 5.34773L8.74134 5.63057L9.02418 5.34773ZM5.26829 7.6894L5.55114 7.97225L5.26829 7.6894ZM1.28284 9.80152L3.11211 7.97225L2.54643 7.40656L0.717157 9.23583L1.28284 9.80152ZM5.55114 7.97225L7.89281 5.63057L7.32712 5.06489L4.98545 7.40656L5.55114 7.97225ZM8.74134 5.63057L10.7172 7.60639L11.2828 7.04071L9.30702 5.06489L8.74134 5.63057ZM7.89281 5.63057C8.12712 5.39626 8.50702 5.39626 8.74134 5.63057L9.30702 5.06489C8.76029 4.51815 7.87386 4.51816 7.32712 5.06489L7.89281 5.63057ZM3.76594 7.97225C4.25891 8.46522 5.05817 8.46522 5.55114 7.97225L4.98545 7.40656C4.8049 7.58711 4.51217 7.58711 4.33162 7.40656L3.76594 7.97225ZM3.11211 7.97225C3.29266 7.7917 3.58539 7.7917 3.76594 7.97225L4.33162 7.40656C3.83865 6.91359 3.03939 6.91359 2.54643 7.40656L3.11211 7.97225Z" fill="currentColor"/>
</svg>
