<svg viewBox="0 0 12 12" fill="none" xmlns="http://www.w3.org/2000/svg">
    <path fill-rule="evenodd" clip-rule="evenodd" d="M1 0C0.447715 0 0 0.447715 0 1V11C0 11.5523 0.447715 12 1 12H11C11.5523 12 12 11.5523 12 11V1C12 0.447715 11.5523 0 11 0H1ZM1.99976 3.49976C1.99976 3.69674 2.03855 3.89179 2.11394 4.07378C2.18932 4.25577 2.29981 4.42113 2.4391 4.56042C2.57838 4.6997 2.74374 4.81019 2.92573 4.88557C3.10772 4.96096 3.30277 4.99976 3.49976 4.99976C3.69674 4.99976 3.89179 4.96096 4.07378 4.88557C4.25577 4.81019 4.42113 4.6997 4.56042 4.56042C4.6997 4.42113 4.81019 4.25577 4.88557 4.07378C4.96096 3.89179 4.99976 3.69674 4.99976 3.49976C4.99976 3.30277 4.96096 3.10772 4.88557 2.92573C4.81019 2.74374 4.6997 2.57838 4.56042 2.4391C4.42113 2.29981 4.25577 2.18932 4.07378 2.11394C3.89179 2.03855 3.69674 1.99976 3.49976 1.99976C3.30277 1.99976 3.10772 2.03855 2.92573 2.11394C2.74374 2.18932 2.57838 2.29981 2.4391 2.4391C2.29981 2.57838 2.18932 2.74374 2.11394 2.92573C2.03855 3.10772 1.99976 3.30277 1.99976 3.49976ZM1.96997 8.27067C1.80523 8.45418 1.71411 8.69209 1.71411 8.93869V10.1138C1.71411 10.2087 1.78319 10.2856 1.86839 10.2856H10.1313C10.2165 10.2856 10.2855 10.2087 10.2855 10.1138V6.44755C10.2855 6.20095 10.1944 5.96304 10.0297 5.77953L8.88944 4.50936C8.61265 4.20104 8.1607 4.21296 7.89732 4.53553L4.93467 8.16407L3.80714 7.1762C3.53421 6.93708 3.14391 6.96297 2.89838 7.23647L1.96997 8.27067Z" fill="currentColor"/>
</svg>
