<svg viewBox="0 0 12 12" fill="none" xmlns="http://www.w3.org/2000/svg">
    <path d="M6.71436 1V5.28572H11.0001C11.0001 4.14908 10.5485 3.05899 9.74482 2.25526C8.94109 1.45153 7.851 1 6.71436 1V1Z" stroke="currentColor" stroke-width="0.8" stroke-linecap="round" stroke-linejoin="round"/>
    <path d="M5.28572 2.42871C4.43809 2.42871 3.60949 2.68006 2.9047 3.15099C2.19992 3.62191 1.65061 4.29124 1.32623 5.07436C1.00186 5.85747 0.916985 6.71918 1.08235 7.55053C1.24772 8.38188 1.65589 9.14552 2.25526 9.74489C2.85463 10.3443 3.61827 10.7524 4.44962 10.9178C5.28097 11.0832 6.14268 10.9983 6.9258 10.6739C7.70891 10.3495 8.37825 9.80023 8.84917 9.09545C9.32009 8.39067 9.57144 7.56207 9.57144 6.71443H5.28572V2.42871Z" stroke="currentColor" stroke-width="0.8" stroke-linecap="round" stroke-linejoin="round"/>
</svg>
