<svg viewBox="0 0 8 12" xmlns="http://www.w3.org/2000/svg" xmlns:svg="http://www.w3.org/2000/svg">
 <g class="layer">
  <path d="m4,0c-1.06,0 -2.08,0.42 -2.83,1.17c-0.75,0.75 -1.17,1.77 -1.17,2.83c0,1.75 2.5,6.01 3.57,7.76c0.05,0.07 0.11,0.13 0.19,0.18c0.07,0.04 0.15,0.06 0.24,0.06c0.09,0 0.17,-0.02 0.24,-0.06c0.08,-0.04 0.14,-0.11 0.19,-0.18c1.07,-1.75 3.57,-6 3.57,-7.76c0,-1.06 -0.42,-2.08 -1.17,-2.83c-0.75,-0.75 -1.77,-1.17 -2.83,-1.17l0,0zm0,5.75c-0.35,0 -0.68,-0.1 -0.97,-0.29c-0.29,-0.2 -0.51,-0.47 -0.65,-0.79c-0.13,-0.32 -0.16,-0.67 -0.1,-1.01c0.07,-0.34 0.24,-0.65 0.48,-0.9c0.25,-0.24 0.56,-0.41 0.9,-0.48c0.34,-0.06 0.69,-0.03 1.01,0.1c0.32,0.14 0.59,0.36 0.79,0.65c0.19,0.29 0.29,0.62 0.29,0.97c0,0.46 -0.18,0.91 -0.51,1.24c-0.33,0.33 -0.78,0.51 -1.24,0.51z" fill="currentColor" id="svg_1"/>
  <circle cx="4" cy="4" fill="currentColor" id="svg_2" r="1.48" stroke="currentColor"/>
 </g>
</svg>