<svg viewBox="0 0 8 12" fill="none" xmlns="http://www.w3.org/2000/svg">
    <path d="M4 0C2.9395 0.00119105 1.92277 0.423001 1.17289 1.17289C0.423001 1.92277 0.00119105 2.9395 0 4C0 5.755 2.5 10.0125 3.574 11.762C3.61876 11.8348 3.68142 11.8948 3.75599 11.9365C3.83057 11.9782 3.91457 12 4 12C4.08555 12.0004 4.16976 11.9786 4.24441 11.9369C4.31906 11.8951 4.38162 11.8346 4.426 11.7615C5.5 10.013 8 5.757 8 4C7.99881 2.9395 7.577 1.92277 6.82711 1.17289C6.07722 0.423001 5.0605 0.00119105 4 0V0ZM4 5.75C3.65388 5.75 3.31554 5.64736 3.02775 5.45507C2.73996 5.26278 2.51566 4.98946 2.38321 4.66969C2.25076 4.34992 2.2161 3.99806 2.28362 3.65859C2.35115 3.31912 2.51782 3.0073 2.76256 2.76256C3.0073 2.51782 3.31912 2.35115 3.65859 2.28362C3.99806 2.2161 4.34992 2.25076 4.66969 2.38321C4.98946 2.51566 5.26278 2.73996 5.45507 3.02775C5.64736 3.31554 5.75 3.65388 5.75 4C5.75 4.46413 5.56562 4.90925 5.23743 5.23743C4.90925 5.56562 4.46413 5.75 4 5.75Z" fill="currentColor"/>
</svg>
