<svg viewBox="0 0 24 24" fill="none" xmlns="http://www.w3.org/2000/svg">
<path d="M9.78933 0L11.368 1.89467H17.052V0H9.78933ZM9.78933 4.42133H11.368C11.3841 5.16442 11.6906 5.87165 12.2218 6.39149C12.753 6.91133 13.4667 7.20244 14.21 7.20244C14.9533 7.20244 15.667 6.91133 16.1982 6.39149C16.7294 5.87165 17.0359 5.16442 17.052 4.42133V2.84267H11.368L9.78933 4.42133ZM8.21067 19.56L17.9893 8.84267H8.21067L0 18.632L2.05333 20.6853L8.21067 15.1573V19.56ZM8.21067 21.4747H19.5787V24H8.21067V21.4747Z" fill="currentColor"/>
<path d="M19.6427 8.90527L9.32666 20.2106H19.58V14.5266L20.8427 15.7919V21.7893H23.684V12.9479L19.6427 8.90527Z" fill="currentColor"/>
</svg>
