<svg viewBox="0 0 32 32" fill="none" xmlns="http://www.w3.org/2000/svg">
    <path d="M13.7893 4L15.368 5.89467H21.052V4H13.7893ZM13.7893 8.42133H15.368C15.3841 9.16442 15.6906 9.87165 16.2218 10.3915C16.753 10.9113 17.4667 11.2024 18.21 11.2024C18.9533 11.2024 19.667 10.9113 20.1982 10.3915C20.7294 9.87165 21.0359 9.16442 21.052 8.42133V6.84267H15.368L13.7893 8.42133ZM12.2107 23.56L21.9893 12.8427H12.2107L4 22.632L6.05333 24.6853L12.2107 19.1573V23.56ZM12.2107 25.4747H23.5787V28H12.2107V25.4747Z" fill="currentColor"/>
    <path d="M23.6427 12.9053L13.3267 24.2106H23.58V18.5266L24.8427 19.7919V25.7893H27.684V16.9479L23.6427 12.9053Z" fill="currentColor"/>
</svg>
