<svg viewBox="0 0 24 20" fill="none" xmlns="http://www.w3.org/2000/svg">
<path d="M13.76 14.9869C13.76 16.0269 12.8533 16.8802 11.76 16.7469C10.88 16.6402 10.24 15.8402 10.24 14.9336V14.4802C6.82667 14.2936 3.38667 13.5469 0 12.2402V17.1736C0 18.2936 0.906667 19.2002 2.02667 19.2002H21.9467C23.0667 19.2002 23.9733 18.2936 23.9733 17.1736V12.2402C20.5867 13.5469 17.1467 14.2936 13.7333 14.4802V14.9869H13.76Z" fill="currentColor"/>
<path d="M16.1333 3.36V2.53333C16.1333 2.20065 16.0678 1.87123 15.9405 1.56387C15.8132 1.25651 15.6266 0.977238 15.3913 0.741996C15.1561 0.506754 14.8768 0.32015 14.5695 0.192839C14.2621 0.0655266 13.9327 0 13.6 0L10.4 0C9.72812 0 9.08376 0.266904 8.60866 0.741996C8.13357 1.21709 7.86667 1.86145 7.86667 2.53333V3.36H1.28C0.940523 3.36 0.61495 3.49486 0.374903 3.7349C0.134857 3.97495 0 4.30052 0 4.64L0 11.3867C3.41333 12.72 6.82667 13.4933 10.24 13.68V13.4933C10.24 12.5867 10.88 11.7867 11.76 11.68C12.8267 11.5467 13.76 12.3733 13.76 13.44V13.68C17.1733 13.4933 20.5867 12.72 24 11.3867V4.64C24 4.47191 23.9669 4.30546 23.9026 4.15017C23.8382 3.99487 23.744 3.85376 23.6251 3.7349C23.5062 3.61604 23.3651 3.52176 23.2098 3.45743C23.0545 3.39311 22.8881 3.36 22.72 3.36H16.1333ZM9.2 2.50667C9.2 1.84 9.73333 1.30667 10.4 1.30667H13.6C14.2667 1.30667 14.8 1.84 14.8 2.50667V3.33333H9.2V2.50667Z" fill="currentColor"/>
<path d="M13.0934 14.9867V13.44C13.0934 12.8267 12.6134 12.3467 12.0001 12.3467C11.3867 12.3467 10.9067 12.8267 10.9067 13.44V14.9867C10.9067 15.6 11.3867 16.08 12.0001 16.08C12.6134 16.08 13.0934 15.6 13.0934 14.9867Z" fill="currentColor"/>
</svg>
