<svg viewBox="0 0 32 32" fill="none" xmlns="http://www.w3.org/2000/svg">
    <path d="M17.76 20.9869C17.76 22.0269 16.8533 22.8802 15.76 22.7469C14.88 22.6402 14.24 21.8402 14.24 20.9336V20.4802C10.8267 20.2936 7.38667 19.5469 4 18.2402V23.1736C4 24.2936 4.90667 25.2002 6.02667 25.2002H25.9467C27.0667 25.2002 27.9733 24.2936 27.9733 23.1736V18.2402C24.5867 19.5469 21.1467 20.2936 17.7333 20.4802V20.9869H17.76Z" fill="currentColor"/>
    <path d="M20.1333 9.36V8.53333C20.1333 8.20065 20.0678 7.87123 19.9405 7.56387C19.8132 7.25651 19.6266 6.97724 19.3913 6.742C19.1561 6.50675 18.8768 6.32015 18.5695 6.19284C18.2621 6.06553 17.9327 6 17.6 6H14.4C13.7281 6 13.0838 6.2669 12.6087 6.742C12.1336 7.21709 11.8667 7.86145 11.8667 8.53333V9.36H5.28C4.94052 9.36 4.61495 9.49486 4.3749 9.7349C4.13486 9.97495 4 10.3005 4 10.64V17.3867C7.41333 18.72 10.8267 19.4933 14.24 19.68V19.4933C14.24 18.5867 14.88 17.7867 15.76 17.68C16.8267 17.5467 17.76 18.3733 17.76 19.44V19.68C21.1733 19.4933 24.5867 18.72 28 17.3867V10.64C28 10.4719 27.9669 10.3055 27.9026 10.1502C27.8382 9.99487 27.744 9.85376 27.6251 9.7349C27.5062 9.61604 27.3651 9.52176 27.2098 9.45743C27.0545 9.39311 26.8881 9.36 26.72 9.36H20.1333ZM13.2 8.50667C13.2 7.84 13.7333 7.30667 14.4 7.30667H17.6C18.2667 7.30667 18.8 7.84 18.8 8.50667V9.33333H13.2V8.50667Z" fill="currentColor"/>
    <path d="M17.0934 20.9867V19.44C17.0934 18.8267 16.6134 18.3467 16.0001 18.3467C15.3867 18.3467 14.9067 18.8267 14.9067 19.44V20.9867C14.9067 21.6 15.3867 22.08 16.0001 22.08C16.6134 22.08 17.0934 21.6 17.0934 20.9867Z" fill="currentColor"/>
</svg>
