<svg viewBox="0 0 19 24" fill="none" xmlns="http://www.w3.org/2000/svg">
<path d="M18.4265 4.52948C18.4638 4.39071 18.4734 4.24596 18.4547 4.10349C18.436 3.96102 18.3894 3.82363 18.3176 3.69918C18.2458 3.57472 18.1501 3.46565 18.0361 3.37819C17.9221 3.29073 17.792 3.22661 17.6532 3.18948L5.88917 0.0374758C5.75041 0.000177783 5.60566 -0.00940161 5.46319 0.00928543C5.32072 0.0279725 5.18333 0.0745594 5.05888 0.146382C4.93442 0.218205 4.82535 0.313855 4.73789 0.427863C4.65043 0.541871 4.58631 0.672 4.54917 0.810809L3.78784 3.65348H13.2732C13.7563 3.65453 14.2192 3.8469 14.5608 4.18849C14.9024 4.53008 15.0948 4.99307 15.0958 5.47614V16.9601L18.4265 4.52948Z" fill="currentColor"/>
<path d="M14.3667 5.4748C14.3667 5.18483 14.2515 4.90674 14.0464 4.7017C13.8414 4.49666 13.5633 4.38147 13.2733 4.38147H1.09333C0.803363 4.38147 0.52527 4.49666 0.32023 4.7017C0.11519 4.90674 0 5.18483 0 5.4748L0 22.9068C0 23.5108 0.489333 24.0001 1.09333 24.0001H13.2733C13.5633 24.0001 13.8414 23.8849 14.0464 23.6799C14.2515 23.4749 14.3667 23.1968 14.3667 22.9068V5.4748ZM12 19.6801C12 19.8251 11.9424 19.9642 11.8399 20.0667C11.7374 20.1692 11.5983 20.2268 11.4533 20.2268H3.288C3.14302 20.2268 3.00397 20.1692 2.90145 20.0667C2.79893 19.9642 2.74133 19.8251 2.74133 19.6801C2.74133 19.5352 2.79893 19.3961 2.90145 19.2936C3.00397 19.1911 3.14302 19.1335 3.288 19.1335H11.4533C11.5983 19.1335 11.7374 19.1911 11.8399 19.2936C11.9424 19.3961 12 19.5352 12 19.6801ZM7.164 8.19614H7.20267C7.7024 8.19739 8.19698 8.29706 8.65819 8.48946C9.1194 8.68186 9.5382 8.96322 9.89067 9.31747C10.608 10.0361 11.0067 10.9895 11.0107 12.0055V12.0295C11.0082 13.04 10.6067 14.0087 9.89351 14.7246C9.18032 15.4406 8.2132 15.8458 7.20267 15.8521H7.18267C6.68171 15.8533 6.18546 15.7555 5.72237 15.5644C5.25927 15.3734 4.83844 15.0928 4.484 14.7388C4.12779 14.3863 3.84476 13.9669 3.65118 13.5047C3.4576 13.0425 3.35728 12.5466 3.356 12.0455V12.0188C3.35844 11.0081 3.75991 10.0393 4.47307 9.32316C5.18622 8.60701 6.15335 8.20281 7.164 8.19614Z" fill="currentColor"/>
</svg>
