<svg viewBox="0 0 32 32" fill="none" xmlns="http://www.w3.org/2000/svg">
    <path d="M25.4265 8.52948C25.4638 8.39071 25.4734 8.24596 25.4547 8.10349C25.436 7.96102 25.3894 7.82363 25.3176 7.69918C25.2458 7.57472 25.1501 7.46565 25.0361 7.37819C24.9221 7.29073 24.792 7.22661 24.6532 7.18948L12.8892 4.03748C12.7504 4.00018 12.6057 3.9906 12.4632 4.00929C12.3207 4.02797 12.1833 4.07456 12.0589 4.14638C11.9344 4.21821 11.8254 4.31386 11.7379 4.42786C11.6504 4.54187 11.5863 4.672 11.5492 4.81081L10.7878 7.65348H20.2732C20.7563 7.65453 21.2192 7.8469 21.5608 8.18849C21.9024 8.53008 22.0948 8.99307 22.0958 9.47614V20.9601L25.4265 8.52948Z" fill="currentColor"/>
    <path d="M21.3667 9.4748C21.3667 9.18483 21.2515 8.90674 21.0464 8.7017C20.8414 8.49666 20.5633 8.38147 20.2733 8.38147H8.09333C7.80336 8.38147 7.52527 8.49666 7.32023 8.7017C7.11519 8.90674 7 9.18483 7 9.4748V26.9068C7 27.5108 7.48933 28.0001 8.09333 28.0001H20.2733C20.5633 28.0001 20.8414 27.8849 21.0464 27.6799C21.2515 27.4749 21.3667 27.1968 21.3667 26.9068V9.4748ZM19 23.6801C19 23.8251 18.9424 23.9642 18.8399 24.0667C18.7374 24.1692 18.5983 24.2268 18.4533 24.2268H10.288C10.143 24.2268 10.004 24.1692 9.90145 24.0667C9.79893 23.9642 9.74133 23.8251 9.74133 23.6801C9.74133 23.5352 9.79893 23.3961 9.90145 23.2936C10.004 23.1911 10.143 23.1335 10.288 23.1335H18.4533C18.5983 23.1335 18.7374 23.1911 18.8399 23.2936C18.9424 23.3961 19 23.5352 19 23.6801ZM14.164 12.1961H14.2027C14.7024 12.1974 15.197 12.2971 15.6582 12.4895C16.1194 12.6819 16.5382 12.9632 16.8907 13.3175C17.608 14.0361 18.0067 14.9895 18.0107 16.0055V16.0295C18.0082 17.04 17.6067 18.0087 16.8935 18.7246C16.1803 19.4406 15.2132 19.8458 14.2027 19.8521H14.1827C13.6817 19.8533 13.1855 19.7555 12.7224 19.5644C12.2593 19.3734 11.8384 19.0928 11.484 18.7388C11.1278 18.3863 10.8448 17.9669 10.6512 17.5047C10.4576 17.0425 10.3573 16.5466 10.356 16.0455V16.0188C10.3584 15.0081 10.7599 14.0393 11.4731 13.3232C12.1862 12.607 13.1533 12.2028 14.164 12.1961Z" fill="currentColor"/>
</svg>
