<svg viewBox="0 0 11 12" fill="none" xmlns="http://www.w3.org/2000/svg">
    <path d="M4.33338 11H2.00001C1.44772 11 1 10.5523 1 10" stroke="currentColor" stroke-width="0.8" stroke-linecap="round" stroke-linejoin="round"/>
    <path d="M9.00011 4.66672V1.33334C9.00011 1.14924 8.85087 1 8.66677 1H2.33335C1.59696 1 1 1.59696 1 2.33335V10.0001C1 9.44783 1.44772 9.00011 2.00001 9.00011H4.33338" stroke="currentColor" stroke-width="0.8" stroke-linecap="round" stroke-linejoin="round"/>
    <path fill-rule="evenodd" clip-rule="evenodd" d="M7.97785 5.85767L8.66142 7.33324H9.99477C10.1325 7.32784 10.2589 7.40951 10.3105 7.53736C10.3621 7.66522 10.3279 7.81171 10.225 7.90347L9.06942 9.0426L9.71121 10.5164C9.7686 10.6547 9.73151 10.8141 9.61898 10.9129C9.50646 11.0116 9.34352 11.0277 9.21387 10.9528L7.66229 10.0813L6.11116 10.9528C5.98151 11.0277 5.81857 11.0116 5.70604 10.9129C5.59351 10.8141 5.55642 10.6547 5.61382 10.5164L6.25516 9.04393L5.09959 7.90481C4.99534 7.81368 4.95996 7.66668 5.01135 7.5381C5.06274 7.40953 5.1897 7.3274 5.32804 7.33324H6.66139L7.34762 5.85633C7.40919 5.73914 7.53076 5.66586 7.66314 5.66614C7.79552 5.66642 7.91678 5.74022 7.97785 5.85767Z" stroke="currentColor" stroke-width="0.8" stroke-linecap="round" stroke-linejoin="round"/>
</svg>
