<svg viewBox="0 0 32 32" fill="none" xmlns="http://www.w3.org/2000/svg">
    <path d="M7.75733 16.7347C7.84211 16.7348 7.92549 16.7132 7.99966 16.6722C8.07383 16.6311 8.13635 16.5719 8.18133 16.5001L9.18933 14.8934C9.33481 14.643 9.54602 14.4372 9.80009 14.2983C10.0542 14.1594 10.3414 14.0927 10.6307 14.1054C11.2107 14.1307 11.7347 14.4601 12.0093 14.9721L12.9253 16.6121C12.9479 16.6534 12.9816 16.6875 13.0227 16.7104C13.0638 16.7334 13.1106 16.7442 13.1576 16.7417C13.2046 16.7392 13.2499 16.7234 13.2883 16.6963C13.3267 16.6691 13.3567 16.6315 13.3747 16.5881L14.9747 12.7587C15.1058 12.4232 15.3423 12.1394 15.6487 11.9499C15.955 11.7604 16.3146 11.6755 16.6733 11.7081C17.3907 11.8081 17.968 12.3441 18.1213 13.0507L19.4507 18.6094C19.4632 18.6603 19.4914 18.706 19.5313 18.7401C19.5711 18.7742 19.6207 18.7949 19.673 18.7993C19.7252 18.8037 19.7776 18.7916 19.8226 18.7647C19.8676 18.7378 19.9031 18.6975 19.924 18.6494L20.2813 17.7934C20.4026 17.4862 20.612 17.2218 20.8831 17.0335C21.1543 16.8451 21.4752 16.7411 21.8053 16.7347H25.6C25.804 16.7347 25.9867 16.6121 26.064 16.4241C26.6533 15.0547 26.9707 13.5841 27 12.0947C27 7.48139 24.324 5.21072 21.672 5.00805C20.5239 4.95383 19.3867 5.25218 18.4131 5.86305C17.4394 6.47391 16.676 7.36805 16.2253 8.42539C16.2048 8.46762 16.1727 8.50323 16.1329 8.52813C16.093 8.55304 16.047 8.56624 16 8.56624C15.953 8.56624 15.907 8.55304 15.8671 8.52813C15.8273 8.50323 15.7953 8.46762 15.7747 8.42539C15.3259 7.36653 14.563 6.47092 13.5889 5.85955C12.6149 5.24817 11.4766 4.95049 10.328 5.00672C7.676 5.20939 5 7.48005 5 12.0947C5.02933 13.5841 5.34667 15.0547 5.936 16.4241C5.97358 16.5159 6.03765 16.5945 6.12004 16.6498C6.20243 16.7051 6.29942 16.7347 6.39867 16.7347H7.75733Z" fill="currentColor"/>
    <path d="M22.3907 18.7347C22.2921 18.7346 22.1957 18.7637 22.1136 18.8183C22.0316 18.8729 21.9674 18.9505 21.9293 19.0414L21.0667 21.1C20.9462 21.4075 20.7372 21.6724 20.4661 21.861C20.1951 22.0497 19.8742 22.1538 19.544 22.16C19.4853 22.16 19.4253 22.156 19.3667 22.1494C19.0173 22.101 18.6912 21.9463 18.4327 21.7064C18.1742 21.4664 17.9956 21.1528 17.9213 20.808L16.592 15.2494C16.5802 15.1975 16.5522 15.1508 16.5119 15.116C16.4717 15.0812 16.4214 15.0602 16.3684 15.056C16.3154 15.0518 16.2624 15.0647 16.2172 15.0928C16.1721 15.1209 16.1371 15.1626 16.1173 15.212L14.7467 18.4894C14.6326 18.7787 14.4402 19.0305 14.191 19.2165C13.9419 19.4026 13.6458 19.5155 13.336 19.5427C13.0218 19.5642 12.7082 19.4939 12.4333 19.3402C12.1584 19.1866 11.9342 18.9562 11.788 18.6774L10.764 16.8427C10.7431 16.8044 10.7125 16.7723 10.6754 16.7496C10.6382 16.7268 10.5957 16.7142 10.5521 16.713C10.5085 16.7117 10.4654 16.722 10.427 16.7426C10.3886 16.7633 10.3563 16.7937 10.3333 16.8307L9.63332 17.9427C9.48878 18.1815 9.28568 18.3794 9.04326 18.5178C8.80083 18.6562 8.52711 18.7304 8.24799 18.7334H7.96799C7.87832 18.7337 7.79038 18.7581 7.71338 18.8041C7.63639 18.85 7.57318 18.9159 7.53037 18.9947C7.48757 19.0735 7.46674 19.1623 7.47007 19.2519C7.47341 19.3416 7.50078 19.4286 7.54932 19.504C9.62839 22.6795 12.3145 25.4127 15.4533 27.5467C15.6204 27.6401 15.8086 27.6892 16 27.6892C16.1914 27.6892 16.3796 27.6401 16.5467 27.5467C19.684 25.4128 22.3687 22.68 24.4467 19.5054C24.4956 19.4298 24.5233 19.3425 24.5267 19.2526C24.5302 19.1627 24.5093 19.0735 24.4663 18.9944C24.4233 18.9154 24.3598 18.8494 24.2824 18.8034C24.205 18.7575 24.1167 18.7333 24.0267 18.7334L22.3907 18.7347Z" fill="currentColor"/>
</svg>
