<svg viewBox="0 0 22 23" fill="none" xmlns="http://www.w3.org/2000/svg">
<path d="M2.75733 11.7347C2.84211 11.7348 2.92549 11.7132 2.99966 11.6722C3.07383 11.6311 3.13635 11.5719 3.18133 11.5001L4.18933 9.89339C4.33481 9.64303 4.54602 9.43725 4.80009 9.29834C5.05415 9.15944 5.34139 9.09271 5.63067 9.10539C6.21067 9.13072 6.73467 9.46005 7.00933 9.97205L7.92533 11.6121C7.94786 11.6534 7.98162 11.6875 8.02272 11.7104C8.06381 11.7334 8.11057 11.7442 8.15757 11.7417C8.20457 11.7392 8.2499 11.7234 8.28832 11.6963C8.32674 11.6691 8.35668 11.6315 8.37467 11.5881L9.97467 7.75872C10.1058 7.42322 10.3423 7.13938 10.6487 6.9499C10.955 6.76041 11.3146 6.67554 11.6733 6.70805C12.3907 6.80805 12.968 7.34405 13.1213 8.05072L14.4507 13.6094C14.4632 13.6603 14.4914 13.706 14.5313 13.7401C14.5711 13.7742 14.6207 13.7949 14.673 13.7993C14.7252 13.8037 14.7776 13.7916 14.8226 13.7647C14.8676 13.7378 14.9031 13.6975 14.924 13.6494L15.2813 12.7934C15.4026 12.4862 15.612 12.2218 15.8831 12.0335C16.1543 11.8451 16.4752 11.7411 16.8053 11.7347H20.6C20.804 11.7347 20.9867 11.6121 21.064 11.4241C21.6533 10.0547 21.9707 8.58405 22 7.09472C22 2.48139 19.324 0.21072 16.672 0.0080536C15.5239 -0.046171 14.3867 0.25218 13.4131 0.863047C12.4394 1.47391 11.676 2.36805 11.2253 3.42539C11.2048 3.46762 11.1727 3.50323 11.1329 3.52813C11.093 3.55304 11.047 3.56624 11 3.56624C10.953 3.56624 10.907 3.55304 10.8671 3.52813C10.8273 3.50323 10.7953 3.46762 10.7747 3.42539C10.3259 2.36653 9.56298 1.47092 8.58893 0.859548C7.61488 0.248173 6.47665 -0.0495075 5.328 0.00672025C2.676 0.209387 0 2.48005 0 7.09472C0.0293333 8.58405 0.346667 10.0547 0.936 11.4241C0.97358 11.5159 1.03765 11.5945 1.12004 11.6498C1.20243 11.7051 1.29942 11.7347 1.39867 11.7347H2.75733Z" fill="currentColor"/>
<path d="M17.3907 13.7347C17.2921 13.7346 17.1957 13.7637 17.1136 13.8183C17.0316 13.8729 16.9674 13.9505 16.9293 14.0414L16.0667 16.1C15.9462 16.4075 15.7372 16.6724 15.4661 16.861C15.1951 17.0497 14.8742 17.1538 14.544 17.16C14.4853 17.16 14.4253 17.156 14.3667 17.1494C14.0173 17.101 13.6912 16.9463 13.4327 16.7064C13.1742 16.4664 12.9956 16.1528 12.9213 15.808L11.592 10.2494C11.5802 10.1975 11.5522 10.1508 11.5119 10.116C11.4717 10.0812 11.4214 10.0602 11.3684 10.056C11.3154 10.0518 11.2624 10.0647 11.2172 10.0928C11.1721 10.1209 11.1371 10.1626 11.1173 10.212L9.74666 13.4894C9.63262 13.7787 9.44022 14.0305 9.19105 14.2165C8.94187 14.4026 8.64578 14.5155 8.33599 14.5427C8.02183 14.5642 7.70819 14.4939 7.43332 14.3402C7.15845 14.1866 6.93423 13.9562 6.78799 13.6774L5.76399 11.8427C5.7431 11.8044 5.71254 11.7723 5.67536 11.7496C5.63818 11.7268 5.59568 11.7142 5.55211 11.713C5.50853 11.7117 5.46539 11.722 5.42701 11.7426C5.38862 11.7633 5.35632 11.7937 5.33332 11.8307L4.63332 12.9427C4.48878 13.1815 4.28568 13.3794 4.04326 13.5178C3.80083 13.6562 3.52711 13.7304 3.24799 13.7334H2.96799C2.87832 13.7337 2.79038 13.7581 2.71338 13.8041C2.63639 13.85 2.57318 13.9159 2.53037 13.9947C2.48757 14.0735 2.46674 14.1623 2.47007 14.2519C2.47341 14.3416 2.50078 14.4286 2.54932 14.504C4.62839 17.6795 7.31452 20.4127 10.4533 22.5467C10.6204 22.6401 10.8086 22.6892 11 22.6892C11.1914 22.6892 11.3796 22.6401 11.5467 22.5467C14.684 20.4128 17.3687 17.68 19.4467 14.5054C19.4956 14.4298 19.5233 14.3425 19.5267 14.2526C19.5302 14.1627 19.5093 14.0735 19.4663 13.9944C19.4233 13.9154 19.3598 13.8494 19.2824 13.8034C19.205 13.7575 19.1167 13.7333 19.0267 13.7334L17.3907 13.7347Z" fill="currentColor"/>
</svg>
