<svg width="24" height="24" viewBox="0 0 24 24" fill="none" xmlns="http://www.w3.org/2000/svg">
<path d="M23.8929 9.5767C23.7497 9.17992 23.5018 8.82926 23.1755 8.56183C22.8493 8.29441 22.4568 8.12019 22.0396 8.0576L16.5861 7.22209L14.0643 2.25464C13.8746 1.87745 13.5838 1.56039 13.2243 1.33885C12.8649 1.11731 12.451 1 12.0288 1C11.6065 1 11.1926 1.11731 10.8332 1.33885C10.4737 1.56039 10.1829 1.87745 9.99316 2.25464L7.47145 7.22209L1.95712 8.01202C1.54032 8.07076 1.14794 8.2438 0.82349 8.51194C0.499038 8.78008 0.255197 9.13285 0.119011 9.53112C-0.0185517 9.93544 -0.0372862 10.3707 0.0650282 10.7854C0.167343 11.2 0.386414 11.5766 0.696269 11.8705L4.73707 15.7594L3.79523 21.213C3.72052 21.6311 3.76658 22.0618 3.92802 22.4547C4.08946 22.8475 4.35958 23.1861 4.70669 23.4309C5.04754 23.681 5.45162 23.8306 5.87314 23.8628C6.29466 23.895 6.71678 23.8085 7.09168 23.6132L12.0288 21.0307L16.9658 23.6132C17.343 23.8095 17.7675 23.8964 18.1914 23.864C18.6154 23.8317 19.0218 23.6813 19.3647 23.43C19.7077 23.1787 19.9735 22.8365 20.1321 22.442C20.2907 22.0476 20.3358 21.6166 20.2623 21.1978L19.3204 15.7594L23.3005 11.9009C23.607 11.6079 23.8251 11.2347 23.9299 10.8237C24.0346 10.4128 24.0218 9.98071 23.8929 9.5767Z" fill="currentColor"/>
</svg>
