<svg viewBox="0 0 24 24" fill="none" xmlns="http://www.w3.org/2000/svg">
<path d="M15.4182 15.7373V13.7639L12.6929 18.5706L15.4182 23.3773V21.3599H18.8955C18.8955 21.3599 19.3022 21.4666 19.6889 20.7599L22.8862 15.2439C22.8862 15.2439 22.4355 15.7373 21.7702 15.7373H15.4182Z" fill="currentColor"/>
<path d="M19.4635 15.1214L16.4195 9.84935L21.3195 7.02002L23.6595 11.0707C23.6595 11.0707 24.3168 12.4174 23.6595 13.764C22.9928 15.124 21.9208 15.1214 21.9208 15.1214H19.4635ZM6.70746 11.908L8.41813 12.8947L5.61413 8.13335L0.0887945 8.09335L1.83546 9.10002L0.102128 12.1134C0.102128 12.1134 -0.195206 12.412 0.224794 13.1L3.40746 18.624C3.40746 18.624 3.20479 17.988 3.53679 17.4107L6.70746 11.908Z" fill="currentColor"/>
<path d="M5.22211 15.72L11.3101 15.7147L11.3154 21.3733L6.63811 21.3787C5.78345 21.3787 5.03278 21.016 4.30478 20.0333C3.74078 19.2707 3.72078 18.3267 3.99545 17.8493L5.22211 15.72ZM14.4074 6.21867L12.6981 7.20667L18.2234 7.16133L21.0221 2.396L19.2754 3.40533L17.5368 0.396C17.5368 0.396 17.4248 -0.0106667 16.6181 0.00933333L10.2448 0C10.2448 0 10.8968 0.142667 11.2301 0.72L14.4074 6.21867Z" fill="currentColor"/>
<path d="M11.8502 3.02537L8.80892 8.2987L3.90625 5.47203L6.24225 1.4187C6.24225 1.4187 7.08225 0.176032 8.57558 0.072032C10.0863 -0.0333013 10.6209 0.897365 10.6209 0.897365L11.8502 3.02537Z" fill="currentColor"/>
</svg>
