<svg viewBox="0 0 32 32" fill="none" xmlns="http://www.w3.org/2000/svg">
    <path d="M19.4182 19.7373V17.7639L16.6929 22.5706L19.4182 27.3773V25.3599H22.8955C22.8955 25.3599 23.3022 25.4666 23.6889 24.7599L26.8862 19.2439C26.8862 19.2439 26.4355 19.7373 25.7702 19.7373H19.4182Z" fill="currentColor"/>
    <path d="M23.4635 19.1214L20.4195 13.8494L25.3195 11.02L27.6595 15.0707C27.6595 15.0707 28.3168 16.4174 27.6595 17.764C26.9928 19.124 25.9208 19.1214 25.9208 19.1214H23.4635ZM10.7075 15.908L12.4181 16.8947L9.61413 12.1334L4.08879 12.0934L5.83546 13.1L4.10213 16.1134C4.10213 16.1134 3.80479 16.412 4.22479 17.1L7.40746 22.624C7.40746 22.624 7.20479 21.988 7.53679 21.4107L10.7075 15.908Z" fill="currentColor"/>
    <path d="M9.22211 19.72L15.3101 19.7147L15.3154 25.3733L10.6381 25.3787C9.78345 25.3787 9.03278 25.016 8.30478 24.0333C7.74078 23.2707 7.72078 22.3267 7.99545 21.8493L9.22211 19.72ZM18.4074 10.2187L16.6981 11.2067L22.2234 11.1613L25.0221 6.396L23.2754 7.40533L21.5368 4.396C21.5368 4.396 21.4248 3.98933 20.6181 4.00933L14.2448 4C14.2448 4 14.8968 4.14267 15.2301 4.72L18.4074 10.2187Z" fill="currentColor"/>
    <path d="M15.8502 7.02537L12.8089 12.2987L7.90625 9.47203L10.2423 5.4187C10.2423 5.4187 11.0823 4.17603 12.5756 4.07203C14.0863 3.9667 14.6209 4.89737 14.6209 4.89737L15.8502 7.02537Z" fill="currentColor"/>
</svg>
