<svg viewBox="0 0 12 12" fill="none" xmlns="http://www.w3.org/2000/svg">
    <path d="M8.74993 4.62507C9.2914 4.62525 9.82743 4.73301 10.3269 4.94207C10.3459 4.94997 10.3666 4.95306 10.3871 4.95106C10.4075 4.94906 10.4272 4.94204 10.4443 4.93061C10.4614 4.91919 10.4755 4.90371 10.4852 4.88556C10.4949 4.86741 10.4999 4.84715 10.4999 4.82657V0.875102C10.4999 0.859399 10.4953 0.844043 10.4866 0.830971C10.4779 0.8179 10.4655 0.807699 10.451 0.801656C10.4365 0.795612 10.4206 0.793996 10.4051 0.797012C10.3897 0.800028 10.3756 0.807541 10.3644 0.818603L6.09995 5.08207C5.87433 5.30715 5.56865 5.43356 5.24996 5.43356C4.93126 5.43356 4.62558 5.30715 4.39996 5.08207L0.135499 0.818603C0.124523 0.807637 0.110543 0.80017 0.095326 0.797144C0.0801086 0.794118 0.0643358 0.79567 0.0499997 0.801603C0.0352923 0.80748 0.0226754 0.817616 0.013767 0.830711C0.00485863 0.843807 6.47667e-05 0.859264 1.43033e-07 0.875102V6.12506C-6.55843e-05 6.23998 0.0225219 6.35379 0.0664711 6.45998C0.11042 6.56617 0.174869 6.66265 0.256133 6.74392C0.337397 6.82518 0.433881 6.88963 0.54007 6.93358C0.646259 6.97753 0.760069 7.00012 0.874993 7.00005H4.93996C4.96336 6.99998 4.98628 6.9934 5.00615 6.98103C5.02602 6.96867 5.04206 6.95102 5.05246 6.93005C5.39183 6.23874 5.91812 5.65635 6.57165 5.24894C7.22519 4.84153 7.97981 4.62541 8.74993 4.62507Z" fill="currentColor"/>
    <path d="M4.86329 4.61796C4.96625 4.71979 5.10522 4.7769 5.25004 4.7769C5.39485 4.7769 5.53382 4.71979 5.63678 4.61796L9.87425 0.380497C9.90296 0.351725 9.9231 0.31553 9.93242 0.275961C9.94173 0.236393 9.93984 0.195013 9.92697 0.156455C9.9141 0.117897 9.89076 0.0836812 9.85954 0.0576389C9.82833 0.0315966 9.79049 0.0147552 9.75025 0.00899996C9.70868 0.00299569 9.66674 -1.20441e-05 9.62475 3.62448e-08H0.874822C0.833161 3.57037e-05 0.791556 0.00304331 0.750323 0.00899996C0.710102 0.0147732 0.672273 0.0315976 0.641049 0.0575996C0.609824 0.0836016 0.586431 0.117761 0.573472 0.156272C0.560514 0.194784 0.558501 0.236137 0.567655 0.275725C0.57681 0.315314 0.596774 0.351584 0.625324 0.380497L4.86329 4.61796Z" fill="currentColor"/>
    <path d="M5.927 11.4264L6.41149 10.9419C6.42318 10.93 6.43714 10.9205 6.45255 10.914C6.46797 10.9075 6.48452 10.9041 6.50124 10.9041C6.51796 10.9041 6.53452 10.9075 6.54993 10.914C6.56534 10.9205 6.5793 10.93 6.59099 10.9419C6.95016 11.3263 7.40283 11.611 7.90484 11.7682C8.40684 11.9254 8.94103 11.9498 9.45527 11.839C9.96952 11.7282 10.4463 11.486 10.839 11.1359C11.2317 10.7859 11.5269 10.3401 11.6959 9.84194C11.7389 9.71642 11.7303 9.57898 11.6719 9.45985C11.6135 9.34072 11.5102 9.24966 11.3847 9.20669C11.2592 9.16373 11.1217 9.17238 11.0026 9.23075C10.8835 9.28912 10.7924 9.39243 10.7495 9.51794C10.6348 9.8561 10.4336 10.1584 10.1659 10.3947C9.89824 10.6309 9.57335 10.7931 9.22357 10.8649C8.8738 10.9366 8.51132 10.9156 8.17219 10.8039C7.83305 10.6922 7.52908 10.4936 7.29049 10.2279C7.26886 10.2042 7.2572 10.173 7.25795 10.1409C7.25869 10.1088 7.27178 10.0782 7.29448 10.0554L8.15548 9.19444C8.19036 9.15945 8.21409 9.11491 8.22368 9.06644C8.23326 9.01797 8.22827 8.96775 8.20933 8.92212C8.19039 8.87648 8.15836 8.83748 8.11727 8.81004C8.07618 8.78261 8.02789 8.76795 7.97848 8.76794H5.75C5.68369 8.76794 5.62011 8.79428 5.57322 8.84117C5.52634 8.88805 5.5 8.95164 5.5 9.01794V11.2499C5.50596 11.2978 5.52304 11.3436 5.54986 11.3837C5.57669 11.4238 5.61252 11.4571 5.6545 11.4809C5.658 11.4809 5.6615 11.4809 5.6655 11.4809C5.70978 11.4975 5.75785 11.5012 5.80414 11.4915C5.85042 11.4819 5.89302 11.4593 5.927 11.4264Z" fill="currentColor"/>
    <path d="M11.0607 6.36344C11.049 6.37532 11.0351 6.38476 11.0197 6.3912C11.0044 6.39765 10.9879 6.40096 10.9712 6.40096C10.9546 6.40096 10.9381 6.39765 10.9227 6.3912C10.9073 6.38476 10.8934 6.37532 10.8817 6.36344C10.5206 5.98248 10.0672 5.70119 9.56544 5.54678C9.06371 5.39238 8.53062 5.37008 8.01775 5.48206C7.50488 5.59404 7.02959 5.83649 6.63788 6.18597C6.24616 6.53544 5.95128 6.98011 5.78176 7.47693C5.76052 7.53908 5.75173 7.6048 5.75589 7.67035C5.76004 7.73589 5.77707 7.79998 5.806 7.85894C5.83492 7.91791 5.87518 7.9706 5.92447 8.01401C5.97376 8.05741 6.03111 8.09069 6.09326 8.11193C6.15541 8.13317 6.22113 8.14196 6.28667 8.1378C6.35222 8.13364 6.4163 8.11662 6.47527 8.08769C6.53423 8.05877 6.58692 8.01851 6.63033 7.96922C6.67374 7.91993 6.70701 7.86258 6.72825 7.80043C6.84237 7.46326 7.04248 7.16169 7.30881 6.92552C7.57514 6.68935 7.89848 6.52676 8.24688 6.45379C8.59528 6.38083 8.95669 6.40003 9.2954 6.50949C9.63412 6.61895 9.93841 6.81488 10.1782 7.07794C10.2002 7.1016 10.2121 7.13287 10.2114 7.16514C10.2108 7.19742 10.1976 7.22818 10.1747 7.25093L9.34473 8.08093C9.30968 8.11589 9.2858 8.16048 9.27611 8.20903C9.26643 8.25758 9.27138 8.30792 9.29034 8.35366C9.3093 8.39939 9.34141 8.43847 9.38261 8.46593C9.4238 8.4934 9.47222 8.50801 9.52173 8.50792H11.7502C11.8165 8.50792 11.8801 8.48158 11.927 8.4347C11.9739 8.38782 12.0002 8.32423 12.0002 8.25793V6.02745C12.0002 5.97798 11.9855 5.92962 11.958 5.8885C11.9305 5.84738 11.8914 5.81534 11.8457 5.79645C11.7992 5.78432 11.7505 5.78287 11.7033 5.79223C11.6561 5.80158 11.6116 5.82148 11.5732 5.85045L11.0607 6.36344Z" fill="currentColor"/>
</svg>
