<svg viewBox="0 0 32 32" fill="none" xmlns="http://www.w3.org/2000/svg">
    <path d="M19.7507 4C19.5516 4 19.3606 4.07909 19.2199 4.21987C19.0791 4.36064 19 4.55158 19 4.75067V27C19 27.2652 19.1054 27.5196 19.2929 27.7071C19.4804 27.8946 19.7348 28 20 28C20.2652 28 20.5196 27.8946 20.7071 27.7071C20.8946 27.5196 21 27.2652 21 27V19C21 18.724 21.224 18.5 21.5013 18.5H23.2507C23.4152 18.5011 23.5783 18.4694 23.7305 18.407C23.8827 18.3445 24.021 18.2524 24.1374 18.1361C24.2537 18.0197 24.3458 17.8814 24.4083 17.7292C24.4708 17.577 24.5024 17.4139 24.5013 17.2493V17.2427C24.436 10.056 22.0827 4 19.7507 4ZM15.0013 4C14.7361 4 14.4818 4.10536 14.2942 4.29289C14.1067 4.48043 14.0013 4.73478 14.0013 5V10C14.0013 10.524 13.796 11.0267 13.4293 11.4C13.3945 11.4354 13.35 11.4596 13.3013 11.4697C13.2527 11.4797 13.2022 11.4751 13.1562 11.4564C13.1102 11.4377 13.0708 11.4057 13.043 11.3646C13.0152 11.3234 13.0002 11.275 13 11.2253V5C13 4.73478 12.8946 4.48043 12.7071 4.29289C12.5196 4.10536 12.2652 4 12 4C11.7348 4 11.4804 4.10536 11.2929 4.29289C11.1054 4.48043 11 4.73478 11 5V11.2227C10.9995 11.272 10.9845 11.3202 10.9567 11.361C10.929 11.4019 10.8898 11.4336 10.8441 11.4523C10.7983 11.4709 10.7481 11.4757 10.6997 11.4659C10.6513 11.4561 10.6069 11.4323 10.572 11.3973C10.2055 11.0246 10.0001 10.5228 10 10V5C10 4.73478 9.89464 4.48043 9.70711 4.29289C9.51957 4.10536 9.26522 4 9 4C8.73478 4 8.48043 4.10536 8.29289 4.29289C8.10536 4.48043 8 4.73478 8 5V10C8.0012 10.827 8.2581 11.6334 8.7355 12.3086C9.2129 12.9839 9.88743 13.4951 10.6667 13.772C10.8667 13.8427 11 14.032 11 14.2427V27C11 27.1313 11.0259 27.2614 11.0761 27.3827C11.1264 27.504 11.2 27.6143 11.2929 27.7071C11.3858 27.8 11.496 27.8736 11.6173 27.9239C11.7386 27.9741 11.8687 28 12 28C12.1313 28 12.2614 27.9741 12.3827 27.9239C12.504 27.8736 12.6142 27.8 12.7071 27.7071C12.8 27.6143 12.8736 27.504 12.9239 27.3827C12.9741 27.2614 13 27.1313 13 27V14.2427C13 14.032 13.1333 13.8427 13.3333 13.772C14.1126 13.4951 14.7871 12.9839 15.2645 12.3086C15.7419 11.6334 15.9988 10.827 16 10V5C16 4.73478 15.8946 4.48043 15.7071 4.29289C15.5196 4.10536 15.2652 4 15 4H15.0013Z" fill="currentColor"/>
</svg>
