<svg viewBox="0 0 17 24" fill="none" xmlns="http://www.w3.org/2000/svg">
<path d="M11.7507 0C11.5516 0 11.3606 0.0790879 11.2199 0.219865C11.0791 0.360642 11 0.551578 11 0.750667V23C11 23.2652 11.1054 23.5196 11.2929 23.7071C11.4804 23.8946 11.7348 24 12 24C12.2652 24 12.5196 23.8946 12.7071 23.7071C12.8946 23.5196 13 23.2652 13 23V15C13 14.724 13.224 14.5 13.5013 14.5H15.2507C15.4152 14.5011 15.5783 14.4694 15.7305 14.407C15.8827 14.3445 16.021 14.2524 16.1374 14.1361C16.2537 14.0197 16.3458 13.8814 16.4083 13.7292C16.4708 13.577 16.5024 13.4139 16.5013 13.2493V13.2427C16.436 6.056 14.0827 0 11.7507 0ZM7.00133 0C6.73612 0 6.48176 0.105357 6.29423 0.292893C6.10669 0.48043 6.00133 0.734784 6.00133 1V6C6.00133 6.524 5.796 7.02667 5.42933 7.4C5.39451 7.43539 5.34996 7.45964 5.30133 7.46968C5.25271 7.47971 5.20219 7.47508 5.1562 7.45637C5.11021 7.43766 5.07081 7.40571 5.043 7.36458C5.01519 7.32345 5.00023 7.27498 5 7.22533V1C5 0.734784 4.89464 0.48043 4.70711 0.292893C4.51957 0.105357 4.26522 0 4 0C3.73478 0 3.48043 0.105357 3.29289 0.292893C3.10536 0.48043 3 0.734784 3 1V7.22267C2.99951 7.27204 2.98445 7.32017 2.95671 7.36102C2.92896 7.40187 2.88978 7.43361 2.84406 7.45227C2.79834 7.47092 2.74813 7.47566 2.69973 7.46589C2.65133 7.45612 2.6069 7.43227 2.572 7.39733C2.20548 7.02458 2.00006 6.52276 2 6V1C2 0.734784 1.89464 0.48043 1.70711 0.292893C1.51957 0.105357 1.26522 0 1 0C0.734784 0 0.48043 0.105357 0.292893 0.292893C0.105357 0.48043 0 0.734784 0 1V6C0.00120285 6.82699 0.258105 7.63337 0.735501 8.30865C1.2129 8.98392 1.88743 9.49506 2.66667 9.772C2.86667 9.84267 3 10.032 3 10.2427V23C3 23.1313 3.02587 23.2614 3.07612 23.3827C3.12638 23.504 3.20003 23.6143 3.29289 23.7071C3.38575 23.8 3.49599 23.8736 3.61732 23.9239C3.73864 23.9741 3.86868 24 4 24C4.13132 24 4.26136 23.9741 4.38268 23.9239C4.50401 23.8736 4.61425 23.8 4.70711 23.7071C4.79997 23.6143 4.87362 23.504 4.92388 23.3827C4.97413 23.2614 5 23.1313 5 23V10.2427C5 10.032 5.13333 9.84267 5.33333 9.772C6.11257 9.49506 6.7871 8.98392 7.2645 8.30865C7.7419 7.63337 7.9988 6.82699 8 6V1C8 0.734784 7.89464 0.48043 7.70711 0.292893C7.51957 0.105357 7.26522 0 7 0L7.00133 0Z" fill="currentColor"/>
</svg>
