<svg viewBox="0 0 10 12" fill="none" xmlns="http://www.w3.org/2000/svg">
    <path d="M4.3573 3.85714L5.78587 2.42857L4.3573 1" stroke="currentColor" stroke-width="0.8" stroke-linecap="round" stroke-linejoin="round"/>
    <path d="M8.98522 6.35712C8.99475 6.47474 8.99998 6.59521 8.99998 6.71426C9.0004 7.07568 8.95496 7.4357 8.86475 7.78569" stroke="currentColor" stroke-width="0.8" stroke-linecap="round" stroke-linejoin="round"/>
    <path d="M7.99719 3.95953C8.22989 4.23609 8.42654 4.54107 8.58243 4.86715" stroke="currentColor" stroke-width="0.8" stroke-linecap="round" stroke-linejoin="round"/>
    <path d="M7.98672 9.48187C7.91053 9.57203 7.82989 9.65965 7.74481 9.74473C7.48949 10.0005 7.20276 10.223 6.89148 10.4066" stroke="currentColor" stroke-width="0.8" stroke-linecap="round" stroke-linejoin="round"/>
    <path d="M5.07144 10.9852C4.95382 10.9947 4.83335 10.9999 4.7143 10.9999C3.57766 10.9999 2.48757 10.5484 1.68384 9.74469C0.880118 8.94097 0.428589 7.85088 0.428589 6.71424C0.428589 5.5776 0.880118 4.48751 1.68384 3.68378C2.48757 2.88006 3.57766 2.42853 4.7143 2.42853H5.78573" stroke="currentColor" stroke-width="0.8" stroke-linecap="round" stroke-linejoin="round"/>
</svg>
