<svg viewBox="0 0 24 24" fill="none" xmlns="http://www.w3.org/2000/svg">
    <path d="M12 24C18.6274 24 24 18.6274 24 12C24 5.37258 18.6274 0 12 0C5.37258 0 0 5.37258 0 12C0 18.6274 5.37258 24 12 24Z" fill="#272B35"/>
    <path d="M9.66577 14.3328L14.3306 9.66797" stroke="white" stroke-linecap="round" stroke-linejoin="round"/>
    <path d="M10.1033 12.0099C9.82381 11.9938 9.54412 12.0369 9.2825 12.1364C9.02089 12.236 8.78326 12.3897 8.58518 12.5874L7.58556 13.5871C7.21063 13.962 7 14.4705 7 15.0007C7 15.2633 7.05171 15.5232 7.15218 15.7658C7.25265 16.0084 7.39992 16.2288 7.58556 16.4144C7.77121 16.6001 7.99161 16.7473 8.23416 16.8478C8.47672 16.9483 8.7367 17 8.99924 17C9.52947 17 10.038 16.7893 10.4129 16.4144L11.4125 15.4148C11.6103 15.2167 11.764 14.9791 11.8635 14.7175C11.9631 14.4558 12.0062 14.1762 11.9901 13.8967" stroke="white" stroke-linecap="round" stroke-linejoin="round"/>
    <path d="M13.8926 11.9901C14.1721 12.0062 14.4518 11.963 14.7134 11.8635C14.975 11.764 15.2126 11.6103 15.4107 11.4125L16.4103 10.4129C16.7852 10.038 16.9959 9.52947 16.9959 8.99924C16.9959 8.46901 16.7852 7.96049 16.4103 7.58556C16.0354 7.21063 15.5269 7 14.9966 7C14.4664 7 13.9579 7.21063 13.583 7.58556L12.5834 8.58518C12.386 8.7835 12.2328 9.02122 12.1337 9.28282C12.0345 9.54441 11.9917 9.82398 12.008 10.1033" stroke="white" stroke-linecap="round" stroke-linejoin="round"/>
</svg>
