<svg xmlns="http://www.w3.org/2000/svg" viewBox="0 0 19.82 24">
    <path d="M19.55 8.13 11.86.45a1.31 1.31 0 0 0-.7-.38 1.33 1.33 0 0 0-.81.08 1.39 1.39 0 0 0-.62.51 1.36 1.36 0 0 0-.23.76v3.91a.2.2 0 0 1 0 .13.31.31 0 0 1-.11.09C4.55 7.13 1.24 10.08.31 13.64c-.85 3.32.45 6.91 3.66 10.13a.93.93 0 0 0 .65.27.88.88 0 0 0 .66-.28.92.92 0 0 0 0-1.29 5 5 0 0 1-1.57-5c.64-2.1 2.72-3.9 5.56-4.82h.21l.1.19v3.29a1.42 1.42 0 0 0 .23.77 1.32 1.32 0 0 0 .62.5 1.4 1.4 0 0 0 .53.11h.27a1.3 1.3 0 0 0 .71-.38l7.68-7.68a.93.93 0 0 0 .27-.65 1 1 0 0 0-.34-.67Zm-8.61 8v-3.26a1.62 1.62 0 0 0-.19-.74 1.67 1.67 0 0 0-1.24-.9 1.67 1.67 0 0 0-.77.06c-3.29 1.07-5.72 3.23-6.49 5.78A5.81 5.81 0 0 0 2 18.54 7.17 7.17 0 0 1 1.63 14c.79-3.08 3.76-5.66 8.13-7.09a1.63 1.63 0 0 0 .83-.6 1.66 1.66 0 0 0 .32-1V1.52l7.24 7.25Z" fill="currentColor"/>
</svg>