<svg viewBox="0 0 12 14" fill="none" xmlns="http://www.w3.org/2000/svg">
    <path d="M6.38976 0.829799L6.3894 0.829947C6.34382 0.848789 6.30482 0.880696 6.27733 0.921652C6.24988 0.962554 6.23512 1.01065 6.2349 1.05991C6.2349 1.05998 6.2349 1.06004 6.2349 1.06011L6.23031 3.17903C6.23031 3.17929 6.23031 3.17954 6.23031 3.17979C6.23022 3.31137 6.18858 3.43956 6.11132 3.54607L5.70659 3.25249L6.11132 3.54608C6.03397 3.65271 5.92487 3.73216 5.79964 3.77305C3.25565 4.60399 1.64721 6.09545 1.20132 7.81704L6.38976 0.829799ZM6.38976 0.829799C6.43545 0.810873 6.48572 0.805923 6.53422 0.815572C6.58272 0.825223 6.62727 0.849039 6.66224 0.884009L6.66228 0.88405L10.8324 5.05421L6.66475 9.2219L6.66459 9.22206C6.62963 9.25705 6.58508 9.28089 6.53657 9.29055C6.48806 9.30021 6.43778 9.29526 6.39208 9.27634C6.34638 9.25741 6.30732 9.22536 6.27985 9.18423C6.25238 9.1431 6.23772 9.09475 6.23773 9.04528L6.23773 9.04512M6.38976 0.829799L6.23773 9.04512M6.23773 9.04512V7.27857C6.23808 7.18021 6.21519 7.08315 6.1709 6.99529C6.12621 6.90663 6.06103 6.82989 5.98074 6.77146C5.90047 6.71303 5.80742 6.67458 5.7093 6.65931C5.61209 6.64418 5.5127 6.65222 5.41921 6.68278C3.80604 7.20384 2.48923 8.27246 2.07765 9.63142C1.72779 10.7819 2.12077 11.8989 3.05497 12.8331C1.38869 11.1668 0.79448 9.38855 1.20131 7.81708L6.23773 9.04512Z" stroke="#2B2B2B"/>
</svg>
