<svg viewBox="0 0 10 12" fill="none" xmlns="http://www.w3.org/2000/svg">
    <path fill-rule="evenodd" clip-rule="evenodd" d="M9.88084 1.27406C9.95975 1.40414 10.0011 1.55516 9.99998 1.7091V5.69341C10.002 6.98622 9.62928 8.24944 8.93076 9.31721C8.23224 10.385 7.24058 11.2074 6.08599 11.6764L5.5525 11.8924C5.197 12.0359 4.803 12.0359 4.4475 11.8924L3.91401 11.6764C2.75942 11.2074 1.76776 10.385 1.06924 9.31721C0.370725 8.24944 -0.00199528 6.98622 2.26186e-05 5.69341V1.7091C-0.00110919 1.55516 0.0402494 1.40414 0.119159 1.27406C0.198068 1.14399 0.311192 1.04037 0.445021 0.97557C1.88008 0.317773 3.43264 -0.0145824 5 0.000490698C6.56736 -0.0145824 8.11992 0.317773 9.55498 0.97557C9.68881 1.04037 9.80193 1.14399 9.88084 1.27406ZM4.83838 7.02487C4.67465 7.02487 4.5268 7.09711 4.42448 7.2102C4.32336 7.32196 4.2725 7.46569 4.2725 7.6082C4.2725 7.71517 4.30104 7.82253 4.35815 7.917C4.41543 8.01173 4.50082 8.09202 4.6084 8.14127C4.71667 8.19084 4.83854 8.20463 4.95662 8.17867C5.07422 8.15282 5.1762 8.09028 5.25227 8.0062C5.32798 7.92253 5.37571 7.82052 5.39474 7.71482C5.41375 7.60916 5.40426 7.49928 5.36618 7.39767C5.32805 7.29592 5.26115 7.20268 5.16815 7.134C5.07455 7.06488 4.95975 7.02487 4.83838 7.02487ZM5.23824 4.125C5.23824 3.90409 5.05915 3.725 4.83824 3.725C4.61733 3.725 4.43824 3.90409 4.43824 4.125V6.32491C4.43824 6.54582 4.61733 6.72491 4.83824 6.72491C5.05915 6.72491 5.23824 6.54582 5.23824 6.32491V4.125Z" fill="currentColor"/>
</svg>
