<svg viewBox="0 0 10 12" fill="none" xmlns="http://www.w3.org/2000/svg">
    <path d="M1.00001 2.41058V5.79444C1.00002 6.86402 1.29922 7.90848 1.85817 8.79016C2.41712 9.67184 3.20957 10.3493 4.13108 10.7334L4.55816 10.9111C4.84256 11.0296 5.15744 11.0296 5.44184 10.9111L5.86892 10.7334C6.79043 10.3493 7.58288 9.67184 8.14183 8.79016C8.70078 7.90848 8.99998 6.86402 8.99999 5.79444V2.41058C9.00077 2.28324 8.96758 2.15837 8.90441 2.05099C8.84123 1.9436 8.75076 1.85828 8.64388 1.80527C7.4951 1.26209 6.25339 0.98782 5 1.00041C3.74661 0.98782 2.5049 1.26209 1.35612 1.80527C1.24923 1.85828 1.15877 1.9436 1.09559 2.05099C1.03242 2.15837 0.999227 2.28324 1.00001 2.41058V2.41058Z" stroke="currentColor" stroke-width="0.8" stroke-linecap="round" stroke-linejoin="round"/>
    <path d="M5.00004 6.66687C5.03046 6.66687 5.06021 6.67664 5.08551 6.69496C5.11081 6.71327 5.13053 6.7393 5.14217 6.76975C5.15382 6.80021 5.15686 6.83371 5.15093 6.86604C5.14499 6.89837 5.13034 6.92807 5.10882 6.95138C5.08731 6.97468 5.05989 6.99056 5.03005 6.99699C5.00021 7.00342 4.96927 7.00012 4.94116 6.9875C4.91305 6.97489 4.88902 6.95353 4.87212 6.92612C4.85521 6.89871 4.84619 6.86649 4.84619 6.83353C4.84619 6.78933 4.8624 6.74694 4.89125 6.71568C4.9201 6.68443 4.95923 6.66687 5.00004 6.66687" stroke="currentColor" stroke-width="0.8" stroke-linecap="round" stroke-linejoin="round"/>
    <path d="M5 5.66691V3.66699" stroke="currentColor" stroke-width="0.8" stroke-linecap="round" stroke-linejoin="round"/>
</svg>
