<svg viewBox="0 0 32 32" fill="none" xmlns="http://www.w3.org/2000/svg">
    <g clip-path="url(#clip0_9458_379450)">
        <path d="M25.5 13.5C25.2348 13.5 24.9804 13.6054 24.7929 13.7929C24.6054 13.9804 24.5 14.2348 24.5 14.5V25.5C24.5 25.6326 24.4473 25.7598 24.3536 25.8536C24.2598 25.9473 24.1326 26 24 26H8C7.86739 26 7.74021 25.9473 7.64645 25.8536C7.55268 25.7598 7.5 25.6326 7.5 25.5V14.5C7.5 14.2348 7.39464 13.9804 7.20711 13.7929C7.01957 13.6054 6.76522 13.5 6.5 13.5C6.23478 13.5 5.98043 13.6054 5.79289 13.7929C5.60536 13.9804 5.5 14.2348 5.5 14.5V26C5.5 26.5304 5.71071 27.0391 6.08579 27.4142C6.46086 27.7893 6.96957 28 7.5 28H24.5C25.0304 28 25.5391 27.7893 25.9142 27.4142C26.2893 27.0391 26.5 26.5304 26.5 26V14.5C26.5 14.2348 26.3946 13.9804 26.2071 13.7929C26.0196 13.6054 25.7652 13.5 25.5 13.5Z" fill="currentColor"/>
        <path d="M15.0075 12.8053C15.0809 12.7609 15.1417 12.6983 15.184 12.6236C15.2263 12.5489 15.2486 12.4645 15.2488 12.3787V4.5C15.2488 4.36762 15.1963 4.24065 15.1028 4.14692C15.0093 4.05319 14.8825 4.00035 14.7501 4H11.4248C11.3135 4.00024 11.2054 4.03761 11.1178 4.1062C11.0301 4.17479 10.9678 4.27068 10.9408 4.37867L10.0261 8.032C9.98613 8.192 9.96613 8.35467 9.96613 8.51867V11.984C9.96613 12.132 10.0328 12.2733 10.1461 12.368C10.8097 12.9385 11.635 13.2874 12.5065 13.366C13.3781 13.4447 14.2525 13.2478 15.0075 12.8053ZM8.1808 12.0493C8.26585 12.0089 8.33775 11.9453 8.38823 11.8658C8.43871 11.7863 8.46571 11.6942 8.46613 11.6V8.088L9.3328 4.62134C9.35122 4.5477 9.35263 4.47084 9.33694 4.39659C9.32124 4.32233 9.28884 4.25262 9.24219 4.19274C9.19555 4.13286 9.13589 4.08439 9.06773 4.05099C8.99957 4.0176 8.9247 4.00016 8.8488 4H6.73147C6.53783 4.0002 6.34808 4.05432 6.18346 4.15629C6.01885 4.25826 5.88589 4.40405 5.79947 4.57734L4.1048 7.964C4.03574 8.10231 3.99968 8.25474 3.99947 8.40934V9.216C3.98693 9.71867 4.10095 10.2164 4.33103 10.6635C4.56111 11.1106 4.89988 11.4927 5.3162 11.7747C5.73252 12.0567 6.21304 12.2295 6.71359 12.2772C7.21414 12.325 7.71867 12.2462 8.1808 12.048V12.0493ZM27.8928 7.96267L26.1995 4.576C26.1129 4.40297 25.9798 4.25745 25.8152 4.15572C25.6506 4.05399 25.461 4.00008 25.2675 4H23.1501C23.0742 4.00016 22.9994 4.0176 22.9312 4.05099C22.863 4.08439 22.8034 4.13286 22.7567 4.19274C22.7101 4.25262 22.6777 4.32233 22.662 4.39659C22.6463 4.47084 22.6477 4.5477 22.6661 4.62134L23.5328 8.088V11.6C23.5328 11.7933 23.6448 11.9693 23.8195 12.052C24.2817 12.25 24.7864 12.3286 25.287 12.2805C25.7876 12.2325 26.268 12.0594 26.6842 11.7772C27.1005 11.4949 27.439 11.1125 27.6688 10.6653C27.8987 10.218 28.0124 9.72006 27.9995 9.21734V8.41067C27.9995 8.25504 27.963 8.10158 27.8928 7.96267ZM21.8528 12.3693C21.9091 12.3224 21.9544 12.2637 21.9855 12.1974C22.0166 12.131 22.0328 12.0586 22.0328 11.9853V8.51867C22.0328 8.35467 22.0128 8.192 21.9728 8.03334L21.0581 4.38C21.0313 4.27154 20.969 4.17519 20.881 4.10632C20.793 4.03744 20.6845 4.00001 20.5728 4H17.2515C17.1857 3.99983 17.1205 4.01263 17.0597 4.03768C16.9989 4.06273 16.9436 4.09953 16.8971 4.14598C16.8505 4.19242 16.8135 4.2476 16.7883 4.30835C16.7631 4.3691 16.7501 4.43423 16.7501 4.5V12.376C16.7501 12.5507 16.8435 12.7133 16.9928 12.804C17.7473 13.2472 18.6213 13.4436 19.4929 13.3659C20.3644 13.2882 21.1899 12.9403 21.8541 12.3707L21.8528 12.3693ZM14.7368 17.0867C14.2567 16.9443 13.7482 16.9273 13.2597 17.0373C12.7712 17.1472 12.319 17.3804 11.9461 17.7147C11.1088 18.58 11.0328 20.12 11.7461 21.8347C12.2461 23.052 13.2635 24.4813 14.4701 24.5C14.9034 24.4957 15.3229 24.347 15.6621 24.0773C15.7494 24.0105 15.8562 23.9743 15.9661 23.9743C16.076 23.9743 16.1829 24.0105 16.2701 24.0773C16.6115 24.348 17.0328 24.4973 17.4701 24.5013C18.6635 24.4827 19.6768 23.0533 20.1808 21.8347C20.8901 20.1213 20.8141 18.5813 19.9808 17.716C19.7163 17.4582 19.3992 17.2608 19.0512 17.1372C18.7032 17.0136 18.3326 16.9668 17.9648 17C17.9123 17.0014 17.8606 16.9862 17.8172 16.9566C17.7738 16.927 17.7407 16.8846 17.7228 16.8352C17.7048 16.7858 17.7028 16.732 17.717 16.6815C17.7313 16.6309 17.761 16.5861 17.8021 16.5533C18.0115 16.3893 18.2581 16.2787 18.5181 16.2307C18.6469 16.2049 18.7694 16.1541 18.8785 16.081C18.9876 16.0079 19.0813 15.9141 19.1542 15.8048C19.227 15.6956 19.2777 15.573 19.3032 15.4442C19.3287 15.3154 19.3285 15.1828 19.3028 15.054C19.2771 14.9252 19.2262 14.8028 19.1531 14.6936C19.0801 14.5845 18.9862 14.4908 18.877 14.418C18.7677 14.3451 18.6452 14.2945 18.5163 14.269C18.3875 14.2435 18.2549 14.2436 18.1261 14.2693C16.8021 14.536 15.7221 15.4893 15.2941 16.7693C15.2532 16.8792 15.1749 16.9711 15.073 17.0291C14.9712 17.0871 14.8522 17.1075 14.7368 17.0867Z" fill="currentColor"/>
    </g>
    <defs>
        <clipPath id="clip0_9458_379450">
            <rect width="24" height="24" fill="white" transform="translate(4 4)"/>
        </clipPath>
    </defs>
</svg>
