<svg viewBox="0 0 24 24" fill="none" xmlns="http://www.w3.org/2000/svg">
<g clip-path="url(#clip0_9458_379829)">
<path d="M21.5 9.5C21.2348 9.5 20.9804 9.60536 20.7929 9.79289C20.6054 9.98043 20.5 10.2348 20.5 10.5V21.5C20.5 21.6326 20.4473 21.7598 20.3536 21.8536C20.2598 21.9473 20.1326 22 20 22H4C3.86739 22 3.74021 21.9473 3.64645 21.8536C3.55268 21.7598 3.5 21.6326 3.5 21.5V10.5C3.5 10.2348 3.39464 9.98043 3.20711 9.79289C3.01957 9.60536 2.76522 9.5 2.5 9.5C2.23478 9.5 1.98043 9.60536 1.79289 9.79289C1.60536 9.98043 1.5 10.2348 1.5 10.5V22C1.5 22.5304 1.71071 23.0391 2.08579 23.4142C2.46086 23.7893 2.96957 24 3.5 24H20.5C21.0304 24 21.5391 23.7893 21.9142 23.4142C22.2893 23.0391 22.5 22.5304 22.5 22V10.5C22.5 10.2348 22.3946 9.98043 22.2071 9.79289C22.0196 9.60536 21.7652 9.5 21.5 9.5Z" fill="currentColor"/>
<path d="M11.0075 8.80534C11.0809 8.76092 11.1417 8.69833 11.184 8.62361C11.2263 8.54888 11.2486 8.46452 11.2488 8.37867V0.500002C11.2488 0.367624 11.1963 0.240649 11.1028 0.146919C11.0093 0.053189 10.8825 0.000354785 10.7501 1.77794e-06H7.4248C7.31349 0.000236685 7.20543 0.0376108 7.11776 0.106202C7.03009 0.174794 6.96781 0.27068 6.9408 0.378668L6.02613 4.032C5.98613 4.192 5.96613 4.35467 5.96613 4.51867V7.984C5.96613 8.132 6.0328 8.27334 6.14613 8.368C6.80975 8.93845 7.63498 9.28738 8.50654 9.36602C9.3781 9.44467 10.2525 9.24778 11.0075 8.80534ZM4.1808 8.04934C4.26585 8.00891 4.33775 7.94529 4.38823 7.86579C4.43871 7.7863 4.46571 7.69417 4.46613 7.6V4.088L5.3328 0.621335C5.35122 0.547703 5.35263 0.470845 5.33694 0.396585C5.32124 0.322326 5.28884 0.252615 5.24219 0.192737C5.19555 0.13286 5.13589 0.0843869 5.06773 0.0509933C4.99957 0.0175997 4.9247 0.000161865 4.8488 1.77794e-06H2.73147C2.53783 0.000200446 2.34808 0.0543168 2.18346 0.156287C2.01885 0.258257 1.88589 0.404052 1.79947 0.577335L0.104801 3.964C0.0357395 4.10231 -0.000315577 4.25474 -0.000532462 4.40934V5.216C-0.0130666 5.71867 0.100947 6.21643 0.331028 6.66352C0.56111 7.11062 0.89988 7.49271 1.3162 7.77468C1.73252 8.05666 2.21304 8.22946 2.71359 8.27722C3.21414 8.32498 3.71867 8.24616 4.1808 8.048V8.04934ZM23.8928 3.96267L22.1995 0.576002C22.1129 0.402968 21.9798 0.257446 21.8152 0.15572C21.6506 0.0539937 21.461 7.66376e-05 21.2675 1.77794e-06H19.1501C19.0742 0.000161865 18.9994 0.0175997 18.9312 0.0509933C18.863 0.0843869 18.8034 0.13286 18.7567 0.192737C18.7101 0.252615 18.6777 0.322326 18.662 0.396585C18.6463 0.470845 18.6477 0.547703 18.6661 0.621335L19.5328 4.088V7.6C19.5328 7.79334 19.6448 7.96934 19.8195 8.052C20.2817 8.24997 20.7864 8.32855 21.287 8.28052C21.7876 8.2325 22.268 8.0594 22.6842 7.77715C23.1005 7.4949 23.439 7.11255 23.6688 6.66525C23.8987 6.21795 24.0124 5.72006 23.9995 5.21734V4.41067C23.9995 4.25504 23.963 4.10158 23.8928 3.96267ZM17.8528 8.36934C17.9091 8.32243 17.9544 8.26372 17.9855 8.19736C18.0166 8.13101 18.0328 8.05862 18.0328 7.98534V4.51867C18.0328 4.35467 18.0128 4.192 17.9728 4.03334L17.0581 0.380002C17.0313 0.271545 16.969 0.175193 16.881 0.106318C16.793 0.0374428 16.6845 1.36454e-05 16.5728 1.77794e-06H13.2515C13.1857 -0.000173617 13.1205 0.0126298 13.0597 0.0376786C12.9989 0.0627275 12.9436 0.0995294 12.8971 0.145976C12.8505 0.192423 12.8135 0.247602 12.7883 0.308352C12.7631 0.369101 12.7501 0.434229 12.7501 0.500002V8.376C12.7501 8.55067 12.8435 8.71334 12.9928 8.804C13.7473 9.24716 14.6213 9.44362 15.4929 9.36593C16.3644 9.28824 17.1899 8.94029 17.8541 8.37067L17.8528 8.36934ZM10.7368 13.0867C10.2567 12.9443 9.7482 12.9273 9.25969 13.0373C8.77118 13.1472 8.31896 13.3804 7.94613 13.7147C7.1088 14.58 7.0328 16.12 7.74613 17.8347C8.24613 19.052 9.26347 20.4813 10.4701 20.5C10.9034 20.4957 11.3229 20.347 11.6621 20.0773C11.7494 20.0105 11.8562 19.9743 11.9661 19.9743C12.076 19.9743 12.1829 20.0105 12.2701 20.0773C12.6115 20.348 13.0328 20.4973 13.4701 20.5013C14.6635 20.4827 15.6768 19.0533 16.1808 17.8347C16.8901 16.1213 16.8141 14.5813 15.9808 13.716C15.7163 13.4582 15.3992 13.2608 15.0512 13.1372C14.7032 13.0136 14.3326 12.9668 13.9648 13C13.9123 13.0014 13.8606 12.9862 13.8172 12.9566C13.7738 12.927 13.7407 12.8846 13.7228 12.8352C13.7048 12.7858 13.7028 12.732 13.717 12.6815C13.7313 12.6309 13.761 12.5861 13.8021 12.5533C14.0115 12.3893 14.2581 12.2787 14.5181 12.2307C14.6469 12.2049 14.7694 12.1541 14.8785 12.081C14.9876 12.0079 15.0813 11.9141 15.1542 11.8048C15.227 11.6956 15.2777 11.573 15.3032 11.4442C15.3287 11.3154 15.3285 11.1828 15.3028 11.054C15.2771 10.9252 15.2262 10.8028 15.1531 10.6936C15.0801 10.5845 14.9862 10.4908 14.877 10.418C14.7677 10.3451 14.6452 10.2945 14.5163 10.269C14.3875 10.2435 14.2549 10.2436 14.1261 10.2693C12.8021 10.536 11.7221 11.4893 11.2941 12.7693C11.2532 12.8792 11.1749 12.9711 11.073 13.0291C10.9712 13.0871 10.8522 13.1075 10.7368 13.0867Z" fill="currentColor"/>
</g>
</svg>
