<svg width="24" height="23" viewBox="0 0 24 23" fill="none" xmlns="http://www.w3.org/2000/svg">
<path d="M11.59 14.443C12.061 13.5061 12.8618 12.7765 13.8384 12.3944C14.8149 12.0122 15.8982 12.0046 16.88 12.373C16.9444 12.3976 17.0156 12.3976 17.08 12.373C17.1393 12.3349 17.1849 12.2788 17.21 12.213L17.87 9.69299C17.8879 9.61924 17.8891 9.54243 17.8735 9.46816C17.858 9.39389 17.826 9.32403 17.78 9.26367C17.7341 9.20331 17.6752 9.15397 17.6077 9.11925C17.5402 9.08453 17.4658 9.06531 17.39 9.06299H2.38999C2.31584 9.06297 2.24262 9.07945 2.17562 9.11123C2.10862 9.14301 2.04953 9.18929 2.00263 9.24672C1.95572 9.30415 1.92218 9.3713 1.90443 9.4433C1.88668 9.51529 1.88516 9.59033 1.89999 9.66299L3.17999 15.663C3.30284 16.0937 3.56673 16.4708 3.92937 16.7337C4.29201 16.9966 4.73241 17.1302 5.17999 17.113H10.97C11.0063 17.1127 11.0421 17.1045 11.0749 17.0889C11.1077 17.0734 11.1368 17.0509 11.16 17.023C11.182 16.9968 11.1986 16.9666 11.2089 16.934C11.2192 16.9014 11.223 16.867 11.22 16.833C11.1075 16.0173 11.2361 15.1865 11.59 14.443ZM10.5 11.713V14.103C10.5 14.2356 10.4473 14.3628 10.3535 14.4565C10.2598 14.5503 10.1326 14.603 9.99999 14.603C9.86819 14.6004 9.74249 14.5469 9.64927 14.4537C9.55606 14.3605 9.50255 14.2348 9.49999 14.103V11.713C9.49999 11.5804 9.55267 11.4532 9.64644 11.3594C9.74021 11.2657 9.86739 11.213 9.99999 11.213C10.1326 11.213 10.2598 11.2657 10.3535 11.3594C10.4473 11.4532 10.5 11.5804 10.5 11.713ZM6.62999 14.713H6.53999C6.42187 14.7121 6.30785 14.6695 6.21816 14.5926C6.12847 14.5157 6.06889 14.4096 6.04999 14.293L5.63999 11.913C5.61953 11.782 5.65089 11.6482 5.72743 11.5399C5.80397 11.4316 5.91967 11.3574 6.04999 11.333C6.11503 11.3215 6.18169 11.323 6.24614 11.3375C6.31058 11.3519 6.37152 11.379 6.42545 11.4171C6.47938 11.4552 6.52522 11.5036 6.56032 11.5596C6.59543 11.6155 6.61911 11.6779 6.62999 11.743L7.03999 14.123C7.05602 14.1908 7.058 14.2611 7.0458 14.3297C7.0336 14.3982 7.00749 14.4636 6.96908 14.5217C6.93067 14.5797 6.88076 14.6294 6.82244 14.6674C6.76413 14.7055 6.69863 14.7312 6.62999 14.743V14.713Z" fill="currentColor"/>
<path d="M19.75 6.26282C19.75 5.88263 19.5997 5.51787 19.3318 5.2481C19.0639 4.97833 18.7002 4.82546 18.32 4.82282H17.18C17.135 4.82294 17.0909 4.81093 17.0521 4.78805C17.0134 4.76517 16.9816 4.73227 16.96 4.69282L14.85 0.632816C14.7987 0.502922 14.7208 0.385207 14.6213 0.287254C14.5217 0.189302 14.4028 0.113282 14.2721 0.0640915C14.1414 0.0149011 14.0018 -0.00636922 13.8624 0.00165035C13.723 0.00966991 13.5868 0.0468016 13.4626 0.110654C13.3384 0.174506 13.229 0.263663 13.1413 0.372383C13.0537 0.481103 12.9898 0.606975 12.9537 0.741892C12.9177 0.876809 12.9103 1.01778 12.9321 1.15573C12.9538 1.29367 13.0042 1.42553 13.08 1.54282L14.59 4.44282C14.6101 4.47961 14.6207 4.52088 14.6207 4.56282C14.6207 4.60476 14.6101 4.64602 14.59 4.68282C14.5671 4.72041 14.5347 4.7513 14.4961 4.77237C14.4575 4.79344 14.414 4.80394 14.37 4.80282H5.37C5.3271 4.80552 5.28435 4.79559 5.24703 4.77426C5.20971 4.75294 5.17945 4.72115 5.16 4.68282C5.13791 4.64669 5.12621 4.60516 5.12621 4.56282C5.12621 4.52047 5.13791 4.47894 5.16 4.44282L6.69 1.54282C6.80602 1.30884 6.8259 1.03877 6.7454 0.790333C6.6649 0.541894 6.49041 0.334804 6.25922 0.213333C6.02803 0.0918627 5.7585 0.0656511 5.50824 0.140302C5.25798 0.214953 5.04686 0.384542 4.92 0.612816L2.8 4.69282C2.7793 4.73301 2.74766 4.76653 2.70874 4.78953C2.66982 4.81253 2.62519 4.82407 2.58 4.82282H1.44C1.05809 4.82282 0.691819 4.97453 0.421766 5.24458C0.151714 5.51463 0 5.8809 0 6.26282C0 6.64473 0.151714 7.011 0.421766 7.28105C0.691819 7.5511 1.05809 7.70282 1.44 7.70282H18.33C18.5178 7.70151 18.7035 7.66322 18.8765 7.59015C19.0495 7.51707 19.2064 7.41063 19.3382 7.27692C19.4701 7.1432 19.5743 6.98482 19.645 6.81082C19.7156 6.63682 19.7513 6.45061 19.75 6.26282Z" fill="currentColor"/>
<path d="M13.44 18.2726L17.89 22.9126C17.9395 22.9569 18.0036 22.9814 18.07 22.9814C18.1364 22.9814 18.2005 22.9569 18.25 22.9126L22.75 18.2726C23.1346 17.8853 23.3947 17.3919 23.497 16.8558C23.5994 16.3196 23.5392 15.7651 23.3244 15.2634C23.1095 14.7616 22.7496 14.3355 22.291 14.0396C21.8323 13.7437 21.2957 13.5915 20.75 13.6026C20.3911 13.5999 20.0353 13.6694 19.7038 13.8068C19.3723 13.9442 19.0717 14.1468 18.82 14.4026L18.24 14.9826C18.1905 15.0269 18.1264 15.0514 18.06 15.0514C17.9936 15.0514 17.9295 15.0269 17.88 14.9826L17.3 14.4026C17.0482 14.1468 16.7477 13.9442 16.4161 13.8068C16.0846 13.6694 15.7289 13.5999 15.37 13.6026C14.8294 13.6036 14.3011 13.7645 13.8518 14.065C13.4024 14.3655 13.0519 14.7922 12.8445 15.2915C12.6371 15.7907 12.5821 16.3401 12.6862 16.8706C12.7904 17.4011 13.0492 17.8889 13.43 18.2726H13.44Z" fill="currentColor"/>
</svg>
