<svg xmlns="http://www.w3.org/2000/svg" fill="none" viewBox="0 0 14 14"><path fill="currentColor" fill-rule="evenodd" d="M13.421.013a.574.574 0 0 0-.104.037c-.026.013-1.06 1.036-2.297 2.272L8.77 4.57l-.003-1.465-.004-1.465-.036-.071a.519.519 0 0 0-.262-.233.473.473 0 0 0-.577.23l-.032.06-.008 2.045a94.814 94.814 0 0 0 .005 2.119c.007.04.022.092.034.115.052.1.178.207.28.237.026.008.923.013 2.1.013 2.317 0 2.13.01 2.272-.12a.413.413 0 0 0 .15-.341.413.413 0 0 0-.15-.341c-.14-.128-.03-.12-1.663-.12H9.432l2.233-2.235c1.229-1.23 2.25-2.263 2.271-2.296a.466.466 0 0 0-.515-.689ZM1.698 7.85a.465.465 0 0 0-.133.876l.074.04 1.461.007 1.462.007-2.224 2.224C1.114 12.227.094 13.26.069 13.296a.466.466 0 0 0 .19.659c.127.066.32.059.441-.015.034-.021 1.067-1.043 2.296-2.271L5.23 9.436l.004 1.464.004 1.465.04.076c.085.16.233.25.414.25.18 0 .317-.081.414-.244l.04-.067.007-2.053c.007-2.096.006-2.142-.048-2.246a.587.587 0 0 0-.227-.204l-.075-.034-2.015-.002c-1.108 0-2.049.003-2.09.01Z" clip-rule="evenodd"/></svg>