<svg viewBox="0 0 16 24" fill="none" xmlns="http://www.w3.org/2000/svg">
<path d="M13 0H3C2.60592 -3.89213e-08 2.21571 0.0776414 1.85164 0.228489C1.48758 0.379336 1.1568 0.600434 0.878208 0.879151C0.599615 1.15787 0.378665 1.48874 0.227979 1.85287C0.0772932 2.217 -0.000174849 2.60726 2.96324e-07 3.00133V20.9347C2.96324e-07 21.7303 0.316071 22.4934 0.87868 23.056C1.44129 23.6186 2.20435 23.9347 3 23.9347H13C13.7956 23.9347 14.5587 23.6186 15.1213 23.056C15.6839 22.4934 16 21.7303 16 20.9347V3C16 2.20435 15.6839 1.44129 15.1213 0.87868C14.5587 0.316071 13.7956 0 13 0ZM8 22.4333C7.73478 22.4333 7.48043 22.328 7.29289 22.1404C7.10536 21.9529 7 21.6986 7 21.4333C7 21.1681 7.10536 20.9138 7.29289 20.7262C7.48043 20.5387 7.73478 20.4333 8 20.4333C8.26522 20.4333 8.51957 20.5387 8.70711 20.7262C8.89464 20.9138 9 21.1681 9 21.4333C9 21.6986 8.89464 21.9529 8.70711 22.1404C8.51957 22.328 8.26522 22.4333 8 22.4333ZM14 17.9347C14 18.1999 13.8946 18.4542 13.7071 18.6418C13.5196 18.8293 13.2652 18.9347 13 18.9347H3C2.73478 18.9347 2.48043 18.8293 2.29289 18.6418C2.10536 18.4542 2 18.1999 2 17.9347V3.5C2 3.23478 2.10536 2.98043 2.29289 2.79289C2.48043 2.60536 2.73478 2.5 3 2.5H13C13.2652 2.5 13.5196 2.60536 13.7071 2.79289C13.8946 2.98043 14 3.23478 14 3.5V17.9347Z" fill="currentColor"/>
</svg>
