<svg viewBox="0 0 32 32" fill="none" xmlns="http://www.w3.org/2000/svg">
    <path d="M21 4H11C10.6059 4 10.2157 4.07764 9.85164 4.22849C9.48758 4.37934 9.1568 4.60043 8.87821 4.87915C8.59962 5.15787 8.37866 5.48874 8.22798 5.85287C8.07729 6.217 7.99983 6.60726 8 7.00133V24.9347C8 25.7303 8.31607 26.4934 8.87868 27.056C9.44129 27.6186 10.2044 27.9347 11 27.9347H21C21.7956 27.9347 22.5587 27.6186 23.1213 27.056C23.6839 26.4934 24 25.7303 24 24.9347V7C24 6.20435 23.6839 5.44129 23.1213 4.87868C22.5587 4.31607 21.7956 4 21 4ZM16 26.4333C15.7348 26.4333 15.4804 26.328 15.2929 26.1404C15.1054 25.9529 15 25.6986 15 25.4333C15 25.1681 15.1054 24.9138 15.2929 24.7262C15.4804 24.5387 15.7348 24.4333 16 24.4333C16.2652 24.4333 16.5196 24.5387 16.7071 24.7262C16.8946 24.9138 17 25.1681 17 25.4333C17 25.6986 16.8946 25.9529 16.7071 26.1404C16.5196 26.328 16.2652 26.4333 16 26.4333ZM22 21.9347C22 22.1999 21.8946 22.4542 21.7071 22.6418C21.5196 22.8293 21.2652 22.9347 21 22.9347H11C10.7348 22.9347 10.4804 22.8293 10.2929 22.6418C10.1054 22.4542 10 22.1999 10 21.9347V7.5C10 7.23478 10.1054 6.98043 10.2929 6.79289C10.4804 6.60536 10.7348 6.5 11 6.5H21C21.2652 6.5 21.5196 6.60536 21.7071 6.79289C21.8946 6.98043 22 7.23478 22 7.5V21.9347Z" fill="currentColor"/>
</svg>
