<svg viewBox="0 0 32 32" fill="none" xmlns="http://www.w3.org/2000/svg">
    <path d="M26.1181 15.6293V18.4827H23.6488C23.7882 18.2791 23.8694 18.0413 23.8838 17.795C23.8981 17.5487 23.8451 17.3031 23.7303 17.0847C23.6155 16.8662 23.4434 16.6832 23.2324 16.5553C23.0214 16.4274 22.7795 16.3594 22.5328 16.3587H21.3168C20.3381 16.3587 19.3915 16.7507 18.6941 17.436V15.6293C18.6941 15.5091 18.7419 15.3938 18.8269 15.3088C18.9119 15.2238 19.0272 15.176 19.1475 15.176H25.6648C25.785 15.176 25.9003 15.2238 25.9854 15.3088C26.0704 15.3938 26.1181 15.5091 26.1181 15.6293ZM27.6488 12.976H25.8621V5.54933H27.6488C27.8115 5.54933 27.9448 5.68267 27.9448 5.84533V12.68C27.9448 12.844 27.8115 12.976 27.6488 12.976ZM19.4168 4C19.7235 4.016 19.9755 4.3 19.9755 4.63467L19.9728 8.72267C19.9728 8.88667 20.1061 9.01867 20.2688 9.01867C20.3474 9.01867 20.4229 8.98752 20.4786 8.93205C20.5343 8.87658 20.5658 8.80129 20.5661 8.72267V4.81333C20.5688 4.65774 20.6331 4.50957 20.745 4.40143C20.8569 4.29328 21.0072 4.23401 21.1628 4.23667C21.3184 4.23932 21.4666 4.30367 21.5747 4.41557C21.6829 4.52747 21.7421 4.67774 21.7395 4.83333V8.724C21.7445 8.7989 21.7778 8.86909 21.8326 8.92035C21.8875 8.97162 21.9597 9.00014 22.0348 9.00014C22.1099 9.00014 22.1821 8.97162 22.237 8.92035C22.2918 8.86909 22.3251 8.7989 22.3301 8.724V5.08133C22.3301 4.92574 22.3919 4.77652 22.502 4.6665C22.612 4.55648 22.7612 4.49467 22.9168 4.49467C23.0724 4.49467 23.2216 4.55648 23.3316 4.6665C23.4417 4.77652 23.5035 4.92574 23.5035 5.08133V8.724C23.5035 8.80268 23.5347 8.87814 23.5904 8.93377C23.646 8.98941 23.7215 9.02067 23.8001 9.02067C23.8788 9.02067 23.9543 8.98941 24.0099 8.93377C24.0655 8.87814 24.0968 8.80268 24.0968 8.724V5.328C24.0968 5.008 24.3541 4.74 24.7141 4.748C25.0208 4.764 25.2715 5.048 25.2715 5.38V14.584H19.3648L17.6675 12.9813C17.3549 12.6857 17.1058 12.3296 16.9352 11.9347C16.7647 11.5397 16.6763 11.1142 16.6755 10.684V9.468C16.6746 9.26467 16.7545 9.06931 16.8977 8.92491C17.0408 8.78051 17.2355 8.69888 17.4388 8.698C17.6421 8.69712 17.8375 8.77704 17.9819 8.92019C18.1263 9.06335 18.2079 9.258 18.2088 9.46133L18.2075 11.324C18.2075 11.4025 18.2387 11.4778 18.2942 11.5333C18.3497 11.5888 18.425 11.62 18.5035 11.62C18.582 11.62 18.6573 11.5888 18.7128 11.5333C18.7683 11.4778 18.7995 11.4025 18.7995 11.324L18.8008 4.584C18.8008 4.25467 19.0741 3.984 19.4168 4.00133V4ZM15.6275 5.55067H18.2101L18.2088 8.352C18.0052 8.21263 17.7674 8.1314 17.5211 8.11704C17.2748 8.10268 17.0292 8.15574 16.8108 8.2705C16.5924 8.38527 16.4094 8.5574 16.2814 8.7684C16.1535 8.97939 16.0855 9.22126 16.0848 9.468V10.684C16.0848 11.516 16.3688 12.3227 16.8728 12.9747H15.6275C15.5078 12.974 15.3933 12.9258 15.3091 12.8409C15.2249 12.7559 15.1778 12.641 15.1781 12.5213V6.004C15.1781 5.75333 15.3795 5.55067 15.6275 5.55067ZM6.44347 4H13.2755C13.4395 4 13.5715 4.132 13.5715 4.29467V5.80533H6.14747V4.296C6.14747 4.13333 6.27947 4.00133 6.44347 4.00133V4ZM4.0008 12.2533C4.0168 11.9453 4.30214 11.6947 4.63547 11.6947L8.7248 11.696C8.80331 11.6958 8.87853 11.6645 8.93391 11.6088C8.9893 11.5532 9.02031 11.4778 9.02014 11.3993C9.01996 11.3208 8.98861 11.2456 8.93297 11.1902C8.87733 11.1348 8.80197 11.1038 8.72347 11.104H4.81814C4.66254 11.1019 4.51417 11.038 4.40564 10.9265C4.29712 10.815 4.23735 10.6649 4.23947 10.5093C4.24159 10.3537 4.30544 10.2054 4.41696 10.0968C4.52848 9.98832 4.67854 9.92854 4.83414 9.93067H8.72614C8.80104 9.92563 8.87122 9.89233 8.92249 9.8375C8.97376 9.78266 9.00228 9.7104 9.00228 9.63533C9.00228 9.56027 8.97376 9.488 8.92249 9.43317C8.87122 9.37834 8.80104 9.34504 8.72614 9.34H5.0808C4.9259 9.33894 4.77771 9.27667 4.66855 9.16676C4.55939 9.05685 4.49813 8.90824 4.49814 8.75333C4.49813 8.59843 4.55939 8.44981 4.66855 8.33991C4.77771 8.23 4.9259 8.16772 5.0808 8.16667H8.7248C8.76385 8.16658 8.8025 8.1588 8.83854 8.14378C8.87458 8.12876 8.90731 8.10678 8.93486 8.07911C8.9624 8.05144 8.98423 8.01861 8.99909 7.9825C9.01395 7.94639 9.02156 7.90771 9.02147 7.86867C9.02138 7.82962 9.01361 7.79097 8.99858 7.75493C8.98356 7.71889 8.96158 7.68616 8.93391 7.65862C8.90624 7.63107 8.87341 7.60924 8.83731 7.59438C8.8012 7.57952 8.76252 7.57191 8.72347 7.572H5.3288C5.24974 7.57139 5.17161 7.55476 5.09915 7.52313C5.02668 7.49149 4.96138 7.4455 4.90717 7.38794C4.85297 7.33037 4.81099 7.26242 4.78377 7.18818C4.75656 7.11394 4.74466 7.03496 4.7488 6.956C4.76614 6.64933 5.0488 6.39867 5.3808 6.39867H14.5848V12.304C13.3888 13.3653 12.6835 14.9947 10.6848 14.9947H9.4688C9.36847 14.9943 9.2692 14.9742 9.17664 14.9355C9.08408 14.8968 9.00005 14.8402 8.92935 14.769C8.85866 14.6978 8.80268 14.6134 8.76461 14.5206C8.72653 14.4277 8.70712 14.3283 8.70747 14.228C8.70747 13.8093 9.04347 13.468 9.45947 13.4627L11.3261 13.464C11.4046 13.464 11.4799 13.4328 11.5354 13.3773C11.591 13.3218 11.6221 13.2465 11.6221 13.168C11.6221 13.0895 11.591 13.0142 11.5354 12.9587C11.4799 12.9032 11.4046 12.872 11.3261 12.872L4.58347 12.8693C4.50418 12.8691 4.42576 12.8527 4.35299 12.8212C4.28021 12.7898 4.21458 12.7438 4.16009 12.6862C4.10561 12.6286 4.06339 12.5605 4.03601 12.4861C4.00863 12.4117 3.99665 12.3325 4.0008 12.2533ZM6.14747 16.32V13.46H8.3528C8.2118 13.6633 8.12917 13.9014 8.11389 14.1483C8.09861 14.3953 8.15126 14.6417 8.26612 14.8609C8.38099 15.08 8.55369 15.2635 8.76547 15.3915C8.97726 15.5194 9.22004 15.5869 9.46747 15.5867L9.4688 15.588H10.6848C12.5341 15.588 13.5048 14.2907 13.5715 14.2413V16.3213C13.5704 16.4407 13.5221 16.5549 13.4372 16.6388C13.3523 16.7228 13.2376 16.7697 13.1181 16.7693H6.6008C6.48116 16.7697 6.36625 16.7226 6.28127 16.6384C6.19629 16.5541 6.14818 16.4396 6.14747 16.32ZM4.3528 18.9667H6.40214V26.392H4.3528C4.2743 26.392 4.19901 26.3608 4.1435 26.3053C4.08799 26.2498 4.0568 26.1745 4.0568 26.096V19.2627C4.0568 19.1 4.19014 18.9667 4.3528 18.9667ZM12.8488 27.944C12.5421 27.9267 12.2901 27.6427 12.2901 27.308L12.2928 23.22C12.2928 23.1413 12.2615 23.0659 12.2059 23.0102C12.1503 22.9546 12.0748 22.9233 11.9961 22.9233C11.9175 22.9233 11.842 22.9546 11.7864 23.0102C11.7307 23.0659 11.6995 23.1413 11.6995 23.22V27.1267C11.6975 27.2823 11.6339 27.4307 11.5225 27.5394C11.4111 27.648 11.2611 27.7079 11.1055 27.706C10.9499 27.7041 10.8014 27.6404 10.6928 27.529C10.5841 27.4176 10.5242 27.2676 10.5261 27.112V23.2187C10.5211 23.1438 10.4878 23.0736 10.433 23.0223C10.3781 22.971 10.3059 22.9425 10.2308 22.9425C10.1557 22.9425 10.0835 22.971 10.0286 23.0223C9.97381 23.0736 9.94051 23.1438 9.93547 23.2187V26.8627C9.93547 27.0183 9.87366 27.1675 9.76364 27.2775C9.65362 27.3875 9.5044 27.4493 9.3488 27.4493C9.19321 27.4493 9.04399 27.3875 8.93397 27.2775C8.82395 27.1675 8.76214 27.0183 8.76214 26.8627V23.22C8.76214 23.1413 8.73088 23.0659 8.67525 23.0102C8.61961 22.9546 8.54415 22.9233 8.46547 22.9233C8.38679 22.9233 8.31133 22.9546 8.2557 23.0102C8.20006 23.0659 8.1688 23.1413 8.1688 23.22V26.616C8.1688 26.9413 7.90214 27.2067 7.5528 27.196C7.2448 27.18 6.99414 26.896 6.99414 26.564V17.36H12.8995L14.5995 18.964C15.2301 19.5587 15.5915 20.396 15.5915 21.2613V22.4773C15.5921 22.578 15.5729 22.6778 15.5349 22.7711C15.4969 22.8643 15.441 22.9492 15.3702 23.0208C15.2995 23.0924 15.2153 23.1494 15.1225 23.1885C15.0297 23.2276 14.9302 23.2481 14.8295 23.2487C14.7288 23.2493 14.629 23.2301 14.5357 23.1921C14.4425 23.1541 14.3576 23.0982 14.286 23.0274C14.2144 22.9567 14.1574 22.8725 14.1183 22.7797C14.0792 22.6869 14.0588 22.5873 14.0581 22.4867L14.0595 20.6213C14.0622 20.5809 14.0566 20.5403 14.043 20.5021C14.0293 20.4639 14.008 20.4289 13.9803 20.3993C13.9527 20.3697 13.9192 20.3461 13.882 20.33C13.8448 20.3138 13.8047 20.3055 13.7641 20.3055C13.7236 20.3055 13.6835 20.3138 13.6463 20.33C13.6091 20.3461 13.5756 20.3697 13.5479 20.3993C13.5202 20.4289 13.4989 20.4639 13.4853 20.5021C13.4717 20.5403 13.4661 20.5809 13.4688 20.6213L13.4648 27.3613C13.4649 27.4408 13.4488 27.5194 13.4175 27.5925C13.3862 27.6655 13.3403 27.7314 13.2826 27.786C13.2249 27.8407 13.1567 27.883 13.0821 27.9104C13.0075 27.9378 12.9281 27.9484 12.8488 27.944ZM16.3755 26.392H14.0568L14.0581 23.592C14.2618 23.7317 14.4996 23.8133 14.7462 23.8278C14.9927 23.8424 15.2385 23.7894 15.4572 23.6746C15.6758 23.5598 15.859 23.3875 15.987 23.1763C16.115 22.9651 16.1829 22.723 16.1835 22.476V21.26C16.1801 20.429 15.9016 19.6226 15.3915 18.9667H16.3755C16.495 18.9677 16.6093 19.0159 16.6934 19.1009C16.7776 19.1858 16.8248 19.3005 16.8248 19.42V25.9387C16.8248 26.0582 16.7776 26.1729 16.6934 26.2578C16.6093 26.3427 16.495 26.3909 16.3755 26.392ZM18.6941 27.6453V26.1373H26.1181V27.6453C26.1183 27.6841 26.1108 27.7226 26.0961 27.7585C26.0814 27.7944 26.0597 27.8271 26.0323 27.8546C26.0049 27.8821 25.9724 27.9039 25.9365 27.9188C25.9007 27.9337 25.8623 27.9413 25.8235 27.9413H18.9901C18.9116 27.9413 18.8363 27.9101 18.7808 27.8546C18.7253 27.7991 18.6941 27.7238 18.6941 27.6453ZM26.6208 25.5453H17.4168V19.6387C18.6128 18.5787 19.3181 16.948 21.3168 16.948H22.5328C22.7361 16.9471 22.9315 17.027 23.0759 17.1702C23.2203 17.3133 23.3019 17.508 23.3028 17.7113C23.3037 17.9147 23.2238 18.11 23.0806 18.2544C22.9375 18.3988 22.7428 18.4804 22.5395 18.4813L20.6768 18.48C20.5983 18.48 20.523 18.5112 20.4675 18.5667C20.412 18.6222 20.3808 18.6975 20.3808 18.776C20.3808 18.8545 20.412 18.9298 20.4675 18.9853C20.523 19.0408 20.5983 19.072 20.6768 19.072L27.4168 19.0747C27.7501 19.0747 28.0168 19.3533 27.9995 19.6907C27.9835 19.9973 27.6981 20.248 27.3648 20.248H23.2755C23.2366 20.2481 23.1981 20.2558 23.1622 20.2708C23.1264 20.2857 23.0938 20.3076 23.0664 20.3352C23.0389 20.3627 23.0172 20.3954 23.0024 20.4313C22.9876 20.4673 22.98 20.5058 22.9801 20.5447C22.9802 20.5835 22.988 20.622 23.0029 20.6579C23.0179 20.6938 23.0398 20.7264 23.0673 20.7538C23.0949 20.7812 23.1275 20.8029 23.1635 20.8177C23.1994 20.8325 23.2379 20.8401 23.2768 20.84H27.1835C27.3391 20.8421 27.4874 20.906 27.596 21.0175C27.7045 21.129 27.7643 21.2791 27.7621 21.4347C27.76 21.5903 27.6962 21.7386 27.5847 21.8472C27.4731 21.9557 27.3231 22.0155 27.1675 22.0133H23.2768C23.2019 22.0184 23.1317 22.0517 23.0805 22.1065C23.0292 22.1613 23.0007 22.2336 23.0007 22.3087C23.0007 22.3837 23.0292 22.456 23.0805 22.5108C23.1317 22.5657 23.2019 22.599 23.2768 22.604H26.9195C27.0744 22.6051 27.2226 22.6673 27.3317 22.7772C27.4409 22.8871 27.5021 23.0358 27.5021 23.1907C27.5021 23.3456 27.4409 23.4942 27.3317 23.6041C27.2226 23.714 27.0744 23.7763 26.9195 23.7773H23.2768C23.2277 23.7773 23.1794 23.7895 23.1362 23.8127C23.093 23.836 23.0563 23.8696 23.0293 23.9106C23.0023 23.9516 22.986 23.9987 22.9817 24.0476C22.9774 24.0964 22.9854 24.1456 23.0048 24.1907C23.027 24.2445 23.0648 24.2904 23.1132 24.3227C23.1616 24.355 23.2186 24.3722 23.2768 24.372H26.6715C27.0048 24.372 27.2688 24.6507 27.2528 24.988C27.2355 25.2947 26.9528 25.5453 26.6208 25.5453Z" fill="currentColor"/>
</svg>
