<svg viewBox="0 0 24 24" fill="none" xmlns="http://www.w3.org/2000/svg">
<path d="M22.1181 11.6293V14.4827H19.6488C19.7882 14.2791 19.8694 14.0413 19.8838 13.795C19.8981 13.5487 19.8451 13.3031 19.7303 13.0847C19.6155 12.8662 19.4434 12.6832 19.2324 12.5553C19.0214 12.4274 18.7795 12.3594 18.5328 12.3587H17.3168C16.3381 12.3587 15.3915 12.7507 14.6941 13.436V11.6293C14.6941 11.5091 14.7419 11.3938 14.8269 11.3088C14.9119 11.2238 15.0272 11.176 15.1475 11.176H21.6648C21.785 11.176 21.9003 11.2238 21.9854 11.3088C22.0704 11.3938 22.1181 11.5091 22.1181 11.6293ZM23.6488 8.976H21.8621V1.54933H23.6488C23.8115 1.54933 23.9448 1.68267 23.9448 1.84533V8.68C23.9448 8.844 23.8115 8.976 23.6488 8.976ZM15.4168 0C15.7235 0.016 15.9755 0.3 15.9755 0.634667L15.9728 4.72267C15.9728 4.88667 16.1061 5.01867 16.2688 5.01867C16.3474 5.01867 16.4229 4.98752 16.4786 4.93205C16.5343 4.87658 16.5658 4.80129 16.5661 4.72267V0.813333C16.5688 0.65774 16.6331 0.509572 16.745 0.401426C16.8569 0.29328 17.0072 0.234014 17.1628 0.236667C17.3184 0.239319 17.4666 0.303672 17.5747 0.415568C17.6829 0.527465 17.7421 0.67774 17.7395 0.833333V4.724C17.7445 4.7989 17.7778 4.86909 17.8326 4.92035C17.8875 4.97162 17.9597 5.00014 18.0348 5.00014C18.1099 5.00014 18.1821 4.97162 18.237 4.92035C18.2918 4.86909 18.3251 4.7989 18.3301 4.724V1.08133C18.3301 0.92574 18.3919 0.776519 18.502 0.666497C18.612 0.556476 18.7612 0.494667 18.9168 0.494667C19.0724 0.494667 19.2216 0.556476 19.3316 0.666497C19.4417 0.776519 19.5035 0.92574 19.5035 1.08133V4.724C19.5035 4.80268 19.5347 4.87814 19.5904 4.93377C19.646 4.98941 19.7215 5.02067 19.8001 5.02067C19.8788 5.02067 19.9543 4.98941 20.0099 4.93377C20.0655 4.87814 20.0968 4.80268 20.0968 4.724V1.328C20.0968 1.008 20.3541 0.74 20.7141 0.748C21.0208 0.764 21.2715 1.048 21.2715 1.38V10.584H15.3648L13.6675 8.98133C13.3549 8.68573 13.1058 8.32962 12.9352 7.93467C12.7647 7.53972 12.6763 7.1142 12.6755 6.684V5.468C12.6746 5.26467 12.7545 5.06931 12.8977 4.92491C13.0408 4.78051 13.2355 4.69888 13.4388 4.698C13.6421 4.69712 13.8375 4.77704 13.9819 4.92019C14.1263 5.06335 14.2079 5.258 14.2088 5.46133L14.2075 7.324C14.2075 7.4025 14.2387 7.47779 14.2942 7.5333C14.3497 7.58881 14.425 7.62 14.5035 7.62C14.582 7.62 14.6573 7.58881 14.7128 7.5333C14.7683 7.47779 14.7995 7.4025 14.7995 7.324L14.8008 0.584C14.8008 0.254667 15.0741 -0.016 15.4168 0.00133333V0ZM11.6275 1.55067H14.2101L14.2088 4.352C14.0052 4.21263 13.7674 4.1314 13.5211 4.11704C13.2748 4.10268 13.0292 4.15574 12.8108 4.2705C12.5924 4.38527 12.4094 4.5574 12.2814 4.7684C12.1535 4.97939 12.0855 5.22126 12.0848 5.468V6.684C12.0848 7.516 12.3688 8.32267 12.8728 8.97467H11.6275C11.5078 8.97396 11.3933 8.92585 11.3091 8.84087C11.2249 8.75589 11.1778 8.64098 11.1781 8.52133V2.004C11.1781 1.75333 11.3795 1.55067 11.6275 1.55067ZM2.44347 0H9.27547C9.43947 0 9.57147 0.132 9.57147 0.294667V1.80533H2.14747V0.296C2.14747 0.133333 2.27947 0.00133333 2.44347 0.00133333V0ZM0.000804084 8.25333C0.0168041 7.94533 0.302137 7.69467 0.635471 7.69467L4.7248 7.696C4.80331 7.69582 4.87853 7.66447 4.93391 7.60883C4.9893 7.5532 5.02031 7.47784 5.02014 7.39933C5.01996 7.32083 4.98861 7.24561 4.93297 7.19023C4.87733 7.13484 4.80197 7.10382 4.72347 7.104H0.818137C0.662544 7.10188 0.514166 7.03803 0.405645 6.92651C0.297124 6.81499 0.237349 6.66493 0.239471 6.50933C0.241592 6.35374 0.305437 6.20536 0.416958 6.09684C0.52848 5.98832 0.678544 5.92854 0.834137 5.93067H4.72614C4.80104 5.92563 4.87122 5.89233 4.92249 5.8375C4.97376 5.78266 5.00228 5.7104 5.00228 5.63533C5.00228 5.56027 4.97376 5.488 4.92249 5.43317C4.87122 5.37834 4.80104 5.34504 4.72614 5.34H1.0808C0.925905 5.33894 0.777709 5.27667 0.668552 5.16676C0.559394 5.05685 0.498134 4.90824 0.498137 4.75333C0.498134 4.59843 0.559394 4.44981 0.668552 4.33991C0.777709 4.23 0.925905 4.16772 1.0808 4.16667H4.7248C4.76385 4.16658 4.8025 4.1588 4.83854 4.14378C4.87458 4.12876 4.90731 4.10678 4.93486 4.07911C4.9624 4.05144 4.98423 4.01861 4.99909 3.9825C5.01395 3.94639 5.02156 3.90771 5.02147 3.86867C5.02138 3.82962 5.01361 3.79097 4.99858 3.75493C4.98356 3.71889 4.96158 3.68616 4.93391 3.65862C4.90624 3.63107 4.87341 3.60924 4.83731 3.59438C4.8012 3.57952 4.76252 3.57191 4.72347 3.572H1.3288C1.24974 3.57139 1.17161 3.55476 1.09915 3.52313C1.02668 3.49149 0.961377 3.4455 0.907174 3.38794C0.852971 3.33037 0.810993 3.26242 0.783774 3.18818C0.756555 3.11394 0.744659 3.03496 0.748804 2.956C0.766137 2.64933 1.0488 2.39867 1.3808 2.39867H10.5848V8.304C9.3888 9.36533 8.68347 10.9947 6.6848 10.9947H5.4688C5.36847 10.9943 5.2692 10.9742 5.17664 10.9355C5.08408 10.8968 5.00005 10.8402 4.92935 10.769C4.85866 10.6978 4.80268 10.6134 4.76461 10.5206C4.72653 10.4277 4.70712 10.3283 4.70747 10.228C4.70747 9.80933 5.04347 9.468 5.45947 9.46267L7.32614 9.464C7.40464 9.464 7.47993 9.43281 7.53544 9.3773C7.59095 9.32179 7.62214 9.2465 7.62214 9.168C7.62214 9.0895 7.59095 9.01421 7.53544 8.9587C7.47993 8.90319 7.40464 8.872 7.32614 8.872L0.583471 8.86933C0.504178 8.86908 0.425764 8.85272 0.352986 8.82125C0.280207 8.78977 0.214583 8.74384 0.160095 8.68623C0.105607 8.62863 0.0633905 8.56055 0.0360085 8.48614C0.00862644 8.41172 -0.00335061 8.33252 0.000804084 8.25333ZM2.14747 12.32V9.46H4.3528C4.2118 9.66332 4.12917 9.90138 4.11389 10.1483C4.09861 10.3953 4.15126 10.6417 4.26612 10.8609C4.38099 11.08 4.55369 11.2635 4.76547 11.3915C4.97726 11.5194 5.22004 11.5869 5.46747 11.5867L5.4688 11.588H6.6848C8.53414 11.588 9.5048 10.2907 9.57147 10.2413V12.3213C9.57041 12.4407 9.52215 12.5549 9.4372 12.6388C9.35226 12.7228 9.23756 12.7697 9.11814 12.7693H2.6008C2.48116 12.7697 2.36625 12.7226 2.28127 12.6384C2.19629 12.5541 2.14818 12.4396 2.14747 12.32ZM0.352804 14.9667H2.40214V22.392H0.352804C0.2743 22.392 0.199011 22.3608 0.1435 22.3053C0.0879897 22.2498 0.0568041 22.1745 0.0568041 22.096V15.2627C0.0568041 15.1 0.190137 14.9667 0.352804 14.9667ZM8.8488 23.944C8.54214 23.9267 8.29014 23.6427 8.29014 23.308L8.2928 19.22C8.2928 19.1413 8.26155 19.0659 8.20591 19.0102C8.15028 18.9546 8.07482 18.9233 7.99614 18.9233C7.91746 18.9233 7.842 18.9546 7.78636 19.0102C7.73073 19.0659 7.69947 19.1413 7.69947 19.22V23.1267C7.69753 23.2823 7.63385 23.4307 7.52245 23.5394C7.41106 23.648 7.26106 23.7079 7.10547 23.706C6.94988 23.7041 6.80143 23.6404 6.69278 23.529C6.58414 23.4176 6.52419 23.2676 6.52614 23.112V19.2187C6.5211 19.1438 6.4878 19.0736 6.43297 19.0223C6.37813 18.971 6.30587 18.9425 6.2308 18.9425C6.15574 18.9425 6.08347 18.971 6.02864 19.0223C5.97381 19.0736 5.94051 19.1438 5.93547 19.2187V22.8627C5.93547 23.0183 5.87366 23.1675 5.76364 23.2775C5.65362 23.3875 5.5044 23.4493 5.3488 23.4493C5.19321 23.4493 5.04399 23.3875 4.93397 23.2775C4.82395 23.1675 4.76214 23.0183 4.76214 22.8627V19.22C4.76214 19.1413 4.73088 19.0659 4.67525 19.0102C4.61961 18.9546 4.54415 18.9233 4.46547 18.9233C4.38679 18.9233 4.31133 18.9546 4.2557 19.0102C4.20006 19.0659 4.1688 19.1413 4.1688 19.22V22.616C4.1688 22.9413 3.90214 23.2067 3.5528 23.196C3.2448 23.18 2.99414 22.896 2.99414 22.564V13.36H8.89947L10.5995 14.964C11.2301 15.5587 11.5915 16.396 11.5915 17.2613V18.4773C11.5921 18.578 11.5729 18.6778 11.5349 18.7711C11.4969 18.8643 11.441 18.9492 11.3702 19.0208C11.2995 19.0924 11.2153 19.1494 11.1225 19.1885C11.0297 19.2276 10.9302 19.2481 10.8295 19.2487C10.7288 19.2493 10.629 19.2301 10.5357 19.1921C10.4425 19.1541 10.3576 19.0982 10.286 19.0274C10.2144 18.9567 10.1574 18.8725 10.1183 18.7797C10.0792 18.6869 10.0588 18.5873 10.0581 18.4867L10.0595 16.6213C10.0622 16.5809 10.0566 16.5403 10.043 16.5021C10.0293 16.4639 10.008 16.4289 9.98035 16.3993C9.95266 16.3697 9.91918 16.3461 9.88199 16.33C9.84479 16.3138 9.80468 16.3055 9.76414 16.3055C9.72359 16.3055 9.68348 16.3138 9.64629 16.33C9.6091 16.3461 9.57562 16.3697 9.54793 16.3993C9.52024 16.4289 9.49893 16.4639 9.48532 16.5021C9.4717 16.5403 9.46608 16.5809 9.4688 16.6213L9.4648 23.3613C9.46492 23.4408 9.44883 23.5194 9.4175 23.5925C9.38617 23.6655 9.34027 23.7314 9.2826 23.786C9.22494 23.8407 9.15672 23.883 9.08213 23.9104C9.00754 23.9378 8.92815 23.9484 8.8488 23.944ZM12.3755 22.392H10.0568L10.0581 19.592C10.2618 19.7317 10.4996 19.8133 10.7462 19.8278C10.9927 19.8424 11.2385 19.7894 11.4572 19.6746C11.6758 19.5598 11.859 19.3875 11.987 19.1763C12.115 18.9651 12.1829 18.723 12.1835 18.476V17.26C12.1801 16.429 11.9016 15.6226 11.3915 14.9667H12.3755C12.495 14.9677 12.6093 15.0159 12.6934 15.1009C12.7776 15.1858 12.8248 15.3005 12.8248 15.42V21.9387C12.8248 22.0582 12.7776 22.1729 12.6934 22.2578C12.6093 22.3427 12.495 22.3909 12.3755 22.392ZM14.6941 23.6453V22.1373H22.1181V23.6453C22.1183 23.6841 22.1108 23.7226 22.0961 23.7585C22.0814 23.7944 22.0597 23.8271 22.0323 23.8546C22.0049 23.8821 21.9724 23.9039 21.9365 23.9188C21.9007 23.9337 21.8623 23.9413 21.8235 23.9413H14.9901C14.9116 23.9413 14.8363 23.9101 14.7808 23.8546C14.7253 23.7991 14.6941 23.7238 14.6941 23.6453ZM22.6208 21.5453H13.4168V15.6387C14.6128 14.5787 15.3181 12.948 17.3168 12.948H18.5328C18.7361 12.9471 18.9315 13.027 19.0759 13.1702C19.2203 13.3133 19.3019 13.508 19.3028 13.7113C19.3037 13.9147 19.2238 14.11 19.0806 14.2544C18.9375 14.3988 18.7428 14.4804 18.5395 14.4813L16.6768 14.48C16.5983 14.48 16.523 14.5112 16.4675 14.5667C16.412 14.6222 16.3808 14.6975 16.3808 14.776C16.3808 14.8545 16.412 14.9298 16.4675 14.9853C16.523 15.0408 16.5983 15.072 16.6768 15.072L23.4168 15.0747C23.7501 15.0747 24.0168 15.3533 23.9995 15.6907C23.9835 15.9973 23.6981 16.248 23.3648 16.248H19.2755C19.2366 16.2481 19.1981 16.2558 19.1622 16.2708C19.1264 16.2857 19.0938 16.3076 19.0664 16.3352C19.0389 16.3627 19.0172 16.3954 19.0024 16.4313C18.9876 16.4673 18.98 16.5058 18.9801 16.5447C18.9802 16.5835 18.988 16.622 19.0029 16.6579C19.0179 16.6938 19.0398 16.7264 19.0673 16.7538C19.0949 16.7812 19.1275 16.8029 19.1635 16.8177C19.1994 16.8325 19.2379 16.8401 19.2768 16.84H23.1835C23.3391 16.8421 23.4874 16.906 23.596 17.0175C23.7045 17.129 23.7643 17.2791 23.7621 17.4347C23.76 17.5903 23.6962 17.7386 23.5847 17.8472C23.4731 17.9557 23.3231 18.0155 23.1675 18.0133H19.2768C19.2019 18.0184 19.1317 18.0517 19.0805 18.1065C19.0292 18.1613 19.0007 18.2336 19.0007 18.3087C19.0007 18.3837 19.0292 18.456 19.0805 18.5108C19.1317 18.5657 19.2019 18.599 19.2768 18.604H22.9195C23.0744 18.6051 23.2226 18.6673 23.3317 18.7772C23.4409 18.8871 23.5021 19.0358 23.5021 19.1907C23.5021 19.3456 23.4409 19.4942 23.3317 19.6041C23.2226 19.714 23.0744 19.7763 22.9195 19.7773H19.2768C19.2277 19.7773 19.1794 19.7895 19.1362 19.8127C19.093 19.836 19.0563 19.8696 19.0293 19.9106C19.0023 19.9516 18.986 19.9987 18.9817 20.0476C18.9774 20.0964 18.9854 20.1456 19.0048 20.1907C19.027 20.2445 19.0648 20.2904 19.1132 20.3227C19.1616 20.355 19.2186 20.3722 19.2768 20.372H22.6715C23.0048 20.372 23.2688 20.6507 23.2528 20.988C23.2355 21.2947 22.9528 21.5453 22.6208 21.5453Z" fill="currentColor"/>
</svg>
