<svg viewBox="0 0 23 20" fill="none" xmlns="http://www.w3.org/2000/svg">
<path d="M16.3627 5.45333C17.8685 5.45333 19.0893 4.23256 19.0893 2.72667C19.0893 1.22077 17.8685 0 16.3627 0C14.8568 0 13.636 1.22077 13.636 2.72667C13.636 4.23256 14.8568 5.45333 16.3627 5.45333Z" fill="currentColor"/>
<path d="M2.18133 11.4532C3.38605 11.4532 4.36267 10.4766 4.36267 9.27191C4.36267 8.06719 3.38605 7.09058 2.18133 7.09058C0.976616 7.09058 0 8.06719 0 9.27191C0 10.4766 0.976616 11.4532 2.18133 11.4532Z" fill="currentColor"/>
<path d="M21.7506 12.7307C21.9183 12.5964 22.0579 12.4303 22.1613 12.242C22.2648 12.0537 22.3302 11.8468 22.3537 11.6332C22.3772 11.4196 22.3585 11.2035 22.2984 10.9972C22.2384 10.7909 22.1384 10.5984 22.004 10.4307L20.1506 8.11474C19.896 7.79441 19.5722 7.53588 19.2034 7.35853C18.8346 7.18119 18.4305 7.08964 18.0213 7.09074H11.92L11.2813 5.81341C11.0846 5.43006 10.7446 5.13979 10.3351 5.00563C9.92565 4.87148 9.47979 4.90428 9.09437 5.0969C8.70894 5.28953 8.41507 5.62643 8.27657 6.03444C8.13806 6.44245 8.16611 6.88863 8.35463 7.27608L9.14396 8.85341C9.3686 9.30772 9.71598 9.69003 10.1468 9.95702C10.5775 10.224 11.0745 10.365 11.5813 10.3641H12.8266C12.8679 10.3641 12.9086 10.3735 12.9457 10.3916C12.9828 10.4096 13.0153 10.4359 13.0408 10.4684C13.0662 10.5009 13.0839 10.5388 13.0926 10.5792C13.1012 10.6195 13.1005 10.6613 13.0906 10.7014L12.8173 11.7934C12.8025 11.8521 12.7688 11.9042 12.7212 11.9416C12.6737 11.979 12.6151 11.9995 12.5546 12.0001H10.556C10.0108 11.998 9.47762 12.1605 9.02615 12.4661C8.57469 12.7718 8.22588 13.2065 8.02529 13.7134L7.20796 15.7547C7.04671 16.1577 7.05213 16.6082 7.22304 17.0072C7.39395 17.4061 7.71634 17.7208 8.11929 17.8821C8.52224 18.0433 8.97275 18.0379 9.3717 17.867C9.77065 17.6961 10.0854 17.3737 10.2466 16.9707L10.9266 15.2734H12.1266C12.1706 15.7987 12.3666 16.3001 12.692 16.7161L14.536 19.0214C14.6691 19.1922 14.8349 19.3349 15.0236 19.4412C15.2123 19.5475 15.4203 19.6152 15.6354 19.6405C15.8505 19.6657 16.0685 19.648 16.2767 19.5884C16.4849 19.5288 16.6792 19.4284 16.8484 19.2931C17.0175 19.1578 17.158 18.9902 17.2619 18.8001C17.3658 18.6101 17.4309 18.4013 17.4534 18.1859C17.4759 17.9705 17.4555 17.7527 17.3932 17.5453C17.3309 17.3378 17.2281 17.1448 17.0906 16.9774L15.416 14.8827L16.4426 10.7761C16.4723 10.6581 16.5405 10.5534 16.6363 10.4785C16.7322 10.4037 16.8503 10.3629 16.972 10.3627H17.7546L19.4453 12.4774C19.5797 12.6459 19.7461 12.7861 19.9349 12.89C20.1236 12.994 20.3311 13.0596 20.5453 13.0832C20.7595 13.1067 20.9763 13.0877 21.1831 13.0272C21.39 12.9667 21.5828 12.866 21.7506 12.7307Z" fill="currentColor"/>
</svg>
