<svg viewBox="0 0 32 32" fill="none" xmlns="http://www.w3.org/2000/svg">
    <path d="M21.3627 11.4533C22.8685 11.4533 24.0893 10.2326 24.0893 8.72667C24.0893 7.22077 22.8685 6 21.3627 6C19.8568 6 18.636 7.22077 18.636 8.72667C18.636 10.2326 19.8568 11.4533 21.3627 11.4533Z" fill="currentColor"/>
    <path d="M7.18133 17.4532C8.38605 17.4532 9.36267 16.4766 9.36267 15.2719C9.36267 14.0672 8.38605 13.0906 7.18133 13.0906C5.97662 13.0906 5 14.0672 5 15.2719C5 16.4766 5.97662 17.4532 7.18133 17.4532Z" fill="currentColor"/>
    <path d="M26.7506 18.7307C26.9183 18.5964 27.0579 18.4303 27.1613 18.242C27.2648 18.0537 27.3302 17.8468 27.3537 17.6332C27.3772 17.4196 27.3585 17.2035 27.2984 16.9972C27.2384 16.7909 27.1384 16.5984 27.004 16.4307L25.1506 14.1147C24.896 13.7944 24.5722 13.5359 24.2034 13.3585C23.8346 13.1812 23.4305 13.0896 23.0213 13.0907H16.92L16.2813 11.8134C16.0846 11.4301 15.7446 11.1398 15.3351 11.0056C14.9256 10.8715 14.4798 10.9043 14.0944 11.0969C13.7089 11.2895 13.4151 11.6264 13.2766 12.0344C13.1381 12.4424 13.1661 12.8886 13.3546 13.2761L14.144 14.8534C14.3686 15.3077 14.716 15.69 15.1468 15.957C15.5775 16.224 16.0745 16.365 16.5813 16.3641H17.8266C17.8679 16.3641 17.9086 16.3735 17.9457 16.3916C17.9828 16.4096 18.0153 16.4359 18.0408 16.4684C18.0662 16.5009 18.0839 16.5388 18.0926 16.5792C18.1012 16.6195 18.1005 16.6613 18.0906 16.7014L17.8173 17.7934C17.8025 17.8521 17.7688 17.9042 17.7212 17.9416C17.6737 17.979 17.6151 17.9995 17.5546 18.0001H15.556C15.0108 17.998 14.4776 18.1605 14.0262 18.4661C13.5747 18.7718 13.2259 19.2065 13.0253 19.7134L12.208 21.7547C12.0467 22.1577 12.0521 22.6082 12.223 23.0072C12.3939 23.4061 12.7163 23.7208 13.1193 23.8821C13.5222 24.0433 13.9727 24.0379 14.3717 23.867C14.7707 23.6961 15.0854 23.3737 15.2466 22.9707L15.9266 21.2734H17.1266C17.1706 21.7987 17.3666 22.3001 17.692 22.7161L19.536 25.0214C19.6691 25.1922 19.8349 25.3349 20.0236 25.4412C20.2123 25.5475 20.4203 25.6152 20.6354 25.6405C20.8505 25.6657 21.0685 25.648 21.2767 25.5884C21.4849 25.5288 21.6792 25.4284 21.8484 25.2931C22.0175 25.1578 22.158 24.9902 22.2619 24.8001C22.3658 24.6101 22.4309 24.4013 22.4534 24.1859C22.4759 23.9705 22.4555 23.7527 22.3932 23.5453C22.3309 23.3378 22.2281 23.1448 22.0906 22.9774L20.416 20.8827L21.4426 16.7761C21.4723 16.6581 21.5405 16.5534 21.6363 16.4785C21.7322 16.4037 21.8503 16.3629 21.972 16.3627H22.7546L24.4453 18.4774C24.5797 18.6459 24.7461 18.7861 24.9349 18.89C25.1236 18.994 25.3311 19.0596 25.5453 19.0832C25.7595 19.1067 25.9763 19.0877 26.1831 19.0272C26.39 18.9667 26.5828 18.866 26.7506 18.7307Z" fill="currentColor"/>
</svg>
