<svg viewBox="0 0 14 14" fill="none" xmlns="http://www.w3.org/2000/svg">
<path d="M2.53141 4.49095L2.22288 6.70779C2.22023 6.82154 2.24121 6.9346 2.28448 7.03982C2.32775 7.14505 2.39238 7.24016 2.47427 7.31914L7.90211 12.747C7.98129 12.8271 8.0756 12.8908 8.17956 12.9342C8.28352 12.9776 8.39507 13 8.50774 13C8.62041 13 8.73196 12.9776 8.83592 12.9342C8.93989 12.8908 9.03419 12.8271 9.11337 12.747L12.7472 9.11318C12.8273 9.034 12.891 8.9397 12.9344 8.83573C12.9778 8.73177 13.0002 8.62022 13.0002 8.50755C13.0002 8.39488 12.9778 8.28333 12.9344 8.17937C12.891 8.07541 12.8273 7.9811 12.7472 7.90192L7.25077 2.42837C7.16837 2.34626 7.07022 2.28167 6.96221 2.23846C6.85421 2.19526 6.73858 2.17435 6.62228 2.17698L4.42829 2.49694" stroke="currentColor" stroke-linecap="round" stroke-linejoin="round"/>
<path d="M4.96543 5.82221C5.43875 5.82221 5.82245 5.4385 5.82245 4.96518C5.82245 4.49186 5.43875 4.10815 4.96543 4.10815C4.4921 4.10815 4.1084 4.49186 4.1084 4.96518C4.1084 5.4385 4.4921 5.82221 4.96543 5.82221Z" stroke="currentColor" stroke-linecap="round" stroke-linejoin="round"/>
<path d="M4.35955 4.35955L1 1" stroke="currentColor" stroke-linecap="round" stroke-linejoin="round"/>
<path d="M6.58105 6.58003L7.43306 5.73203" stroke="currentColor" stroke-linecap="round" stroke-linejoin="round"/>
<path d="M7.43262 7.43199L8.28062 6.57999" stroke="currentColor" stroke-linecap="round" stroke-linejoin="round"/>
<path d="M8.28027 8.28001L9.12827 7.43201" stroke="currentColor" stroke-linecap="round" stroke-linejoin="round"/>
<path d="M5.73145 7.43201L7.43145 9.12801" stroke="currentColor" stroke-linecap="round" stroke-linejoin="round"/>
</svg>
