<svg viewBox="0 0 32 29" fill="none" xmlns="http://www.w3.org/2000/svg">
    <path d="M0 15.6667C0 16.5507 0.351189 17.3986 0.976311 18.0237C1.60143 18.6488 2.44928 19 3.33333 19H11.748C11.8006 19.0001 11.8525 19.0127 11.8993 19.0367C11.9462 19.0607 11.9867 19.0954 12.0175 19.1381C12.0483 19.1808 12.0686 19.2301 12.0767 19.2821C12.0848 19.3341 12.0804 19.3873 12.064 19.4373C11.328 21.3029 11.089 23.3277 11.3707 25.3133C12.1547 28.1133 13.816 28.9133 15.1147 28.7333C15.7534 28.625 16.3309 28.2878 16.7391 27.7848C17.1474 27.2818 17.3587 26.6474 17.3333 26C17.3333 22.3387 20.172 18.3387 22.712 16.5853C22.8009 16.524 22.8736 16.4419 22.9238 16.3462C22.9739 16.2505 23.0001 16.144 23 16.036V2.548C23 2.39314 22.9462 2.24311 22.8476 2.12365C22.7491 2.00419 22.612 1.92276 22.46 1.89333C21.984 1.80267 21.552 1.71333 21.144 1.62667C19.3498 1.19988 17.5109 0.989051 15.6667 0.998667H7C4.38933 1 4 2.46133 4 3.33333C3.99843 3.79559 4.10385 4.25193 4.308 4.66667C3.60453 5.02423 3.07019 5.64447 2.82064 6.3931C2.5711 7.14174 2.62643 7.95853 2.97467 8.66667C2.61746 8.84816 2.30023 9.09936 2.04169 9.40545C1.78315 9.71155 1.58855 10.0663 1.46937 10.4489C1.35018 10.8314 1.30883 11.2339 1.34776 11.6327C1.38668 12.0315 1.50509 12.4184 1.696 12.7707C1.18245 13.0603 0.754894 13.4809 0.456948 13.9897C0.159002 14.4984 0.00132552 15.0771 0 15.6667H0Z" fill="currentColor"/>
    <path d="M25 16C25 16.3536 25.1405 16.6928 25.3905 16.9428C25.6406 17.1929 25.9797 17.3333 26.3333 17.3333H30.6667C31.0203 17.3333 31.3594 17.1929 31.6095 16.9428C31.8595 16.6928 32 16.3536 32 16V1.33333C32 0.979712 31.8595 0.640573 31.6095 0.390524C31.3594 0.140476 31.0203 0 30.6667 0H26.3333C25.9797 0 25.6406 0.140476 25.3905 0.390524C25.1405 0.640573 25 0.979712 25 1.33333V16ZM27 3.66667C27 3.46889 27.0586 3.27555 27.1685 3.1111C27.2784 2.94665 27.4346 2.81847 27.6173 2.74279C27.8 2.6671 28.0011 2.6473 28.1951 2.68588C28.3891 2.72447 28.5673 2.81971 28.7071 2.95956C28.847 3.09941 28.9422 3.2776 28.9808 3.47158C29.0194 3.66556 28.9996 3.86662 28.9239 4.04935C28.8482 4.23208 28.72 4.38825 28.5556 4.49814C28.3911 4.60802 28.1978 4.66667 28 4.66667C27.7348 4.66667 27.4804 4.56131 27.2929 4.37377C27.1054 4.18624 27 3.93188 27 3.66667Z" fill="currentColor"/>
</svg>
