<svg viewBox="0 0 32 32" fill="none" xmlns="http://www.w3.org/2000/svg">
    <path d="M26.6242 25.2573L23.9109 23.6253C23.8817 23.6077 23.8566 23.5841 23.8372 23.556C23.8179 23.5279 23.8048 23.496 23.7987 23.4625C23.7927 23.4289 23.7938 23.3944 23.8021 23.3614C23.8104 23.3283 23.8257 23.2974 23.8469 23.2707C24.0802 22.9773 24.2082 22.6147 24.2096 22.24V16.42L23.7296 10.72C23.7296 9.95618 23.4261 9.22364 22.886 8.68353C22.3459 8.14343 21.6134 7.84 20.8496 7.84H19.1696C19.1059 7.84 19.0449 7.81471 18.9999 7.76971C18.9548 7.7247 18.9296 7.66365 18.9296 7.6V6.16C18.9296 6.02667 19.0362 5.92 19.1696 5.92H20.3696C20.6242 5.92 20.8683 5.81886 21.0484 5.63882C21.2284 5.45879 21.3296 5.21461 21.3296 4.96C21.3296 4.70539 21.2284 4.46121 21.0484 4.28118C20.8683 4.10114 20.6242 4 20.3696 4H11.7296C11.6035 4 11.4787 4.02483 11.3622 4.07308C11.2457 4.12132 11.1399 4.19203 11.0507 4.28118C10.9616 4.37032 10.8909 4.47615 10.8426 4.59262C10.7944 4.7091 10.7696 4.83393 10.7696 4.96C10.7696 5.08607 10.7944 5.2109 10.8426 5.32738C10.8909 5.44385 10.9616 5.54968 11.0507 5.63882C11.1399 5.72797 11.2457 5.79868 11.3622 5.84692C11.4787 5.89517 11.6035 5.92 11.7296 5.92H12.9296C13.0629 5.92 13.1696 6.02667 13.1696 6.16V7.6C13.1696 7.73333 13.0629 7.84 12.9296 7.84H11.2496C10.4982 7.83562 9.77516 8.12669 9.23641 8.65048C8.69767 9.17426 8.38634 9.88879 8.36956 10.64L7.88956 16.42V22.24C7.88956 22.616 8.01756 22.98 8.25223 23.2733C8.27366 23.3001 8.28911 23.3311 8.29755 23.3643C8.30599 23.3975 8.30722 23.4322 8.30116 23.4659C8.29509 23.4996 8.28188 23.5316 8.2624 23.5598C8.24292 23.588 8.21763 23.6117 8.18823 23.6293L5.47489 25.2613C5.36529 25.3255 5.26952 25.4108 5.19312 25.5123C5.11672 25.6137 5.06121 25.7293 5.02981 25.8524C4.9984 25.9755 4.99173 26.1035 5.01018 26.2292C5.02863 26.3549 5.07183 26.4756 5.13728 26.5844C5.20273 26.6933 5.28912 26.7881 5.39146 26.8633C5.4938 26.9385 5.61005 26.9927 5.73347 27.0226C5.85689 27.0526 5.98503 27.0578 6.11047 27.0379C6.23591 27.018 6.35615 26.9734 6.46423 26.9067L11.3776 23.9587C11.4151 23.9363 11.4579 23.9243 11.5016 23.924H20.5989C20.6416 23.924 20.6842 23.9373 20.7216 23.9587L25.6349 26.9053C25.7429 26.9758 25.8641 27.0238 25.9911 27.0465C26.1181 27.0691 26.2484 27.0659 26.3741 27.0371C26.4999 27.0082 26.6185 26.9543 26.723 26.8786C26.8274 26.8029 26.9155 26.7069 26.982 26.5963C27.0486 26.4858 27.0921 26.363 27.1101 26.2352C27.1281 26.1075 27.1202 25.9774 27.0868 25.8528C27.0534 25.7282 26.9952 25.6116 26.9157 25.51C26.8363 25.4084 26.7371 25.3238 26.6242 25.2613V25.2573ZM15.0909 6.16C15.0909 6.02667 15.1976 5.92 15.3309 5.92H16.7709C16.9029 5.92 17.0109 6.02667 17.0109 6.16V7.6C17.0109 7.73333 16.9029 7.84 16.7709 7.84H15.3309C15.2672 7.84 15.2062 7.81471 15.1612 7.76971C15.1162 7.7247 15.0909 7.66365 15.0909 7.6V6.16ZM11.7309 21.28C11.349 21.28 10.9827 21.1283 10.7127 20.8582C10.4426 20.5882 10.2909 20.2219 10.2909 19.84C10.2909 19.4581 10.4426 19.0918 10.7127 18.8218C10.9827 18.5517 11.349 18.4 11.7309 18.4C12.1128 18.4 12.4791 18.5517 12.7491 18.8218C13.0192 19.0918 13.1709 19.4581 13.1709 19.84C13.1709 20.2219 13.0192 20.5882 12.7491 20.8582C12.4791 21.1283 12.1128 21.28 11.7309 21.28ZM20.3709 21.28C19.989 21.28 19.6227 21.1283 19.3527 20.8582C19.0826 20.5882 18.9309 20.2219 18.9309 19.84C18.9309 19.4581 19.0826 19.0918 19.3527 18.8218C19.6227 18.5517 19.989 18.4 20.3709 18.4C20.7528 18.4 21.1191 18.5517 21.3891 18.8218C21.6592 19.0918 21.8109 19.4581 21.8109 19.84C21.8109 20.2219 21.6592 20.5882 21.3891 20.8582C21.1191 21.1283 20.7528 21.28 20.3709 21.28ZM22.1216 15.4427C22.0991 15.467 22.0719 15.4864 22.0416 15.4997C22.0114 15.513 21.9786 15.5199 21.9456 15.52H10.1536C10.1204 15.5201 10.0876 15.5133 10.0572 15.5001C10.0268 15.4869 9.99945 15.4675 9.9769 15.4432C9.95435 15.4189 9.93708 15.3902 9.92618 15.3589C9.91528 15.3276 9.91098 15.2944 9.91356 15.2613L10.2896 10.72C10.2896 10.4654 10.3907 10.2212 10.5707 10.0412C10.7508 9.86114 10.995 9.76 11.2496 9.76H20.8496C20.9815 9.76337 21.1114 9.79317 21.2316 9.84764C21.3518 9.90211 21.4599 9.98014 21.5494 10.0771C21.6389 10.1741 21.708 10.288 21.7527 10.4122C21.7974 10.5364 21.8167 10.6682 21.8096 10.8L22.1816 15.2613C22.1882 15.328 22.1669 15.3947 22.1216 15.4427Z" fill="currentColor"/>
</svg>
