<svg viewBox="0 0 23 24" fill="none" xmlns="http://www.w3.org/2000/svg">
<path d="M21.6242 21.2573L18.9109 19.6253C18.8817 19.6077 18.8566 19.5841 18.8372 19.556C18.8179 19.5279 18.8048 19.496 18.7987 19.4625C18.7927 19.4289 18.7938 19.3944 18.8021 19.3614C18.8104 19.3283 18.8257 19.2974 18.8469 19.2707C19.0802 18.9773 19.2082 18.6147 19.2096 18.24V12.42L18.7296 6.72C18.7296 5.95618 18.4261 5.22364 17.886 4.68353C17.3459 4.14343 16.6134 3.84 15.8496 3.84H14.1696C14.1059 3.84 14.0449 3.81471 13.9999 3.76971C13.9548 3.7247 13.9296 3.66365 13.9296 3.6V2.16C13.9296 2.02667 14.0362 1.92 14.1696 1.92H15.3696C15.6242 1.92 15.8683 1.81886 16.0484 1.63882C16.2284 1.45879 16.3296 1.21461 16.3296 0.96C16.3296 0.705392 16.2284 0.461212 16.0484 0.281178C15.8683 0.101143 15.6242 3.79395e-09 15.3696 0L6.72956 0C6.60349 -1.87857e-09 6.47866 0.0248311 6.36218 0.0730757C6.24571 0.12132 6.13988 0.192033 6.05074 0.281177C5.96159 0.370322 5.89088 0.476151 5.84264 0.592624C5.79439 0.709096 5.76956 0.833931 5.76956 0.96C5.76956 1.08607 5.79439 1.2109 5.84264 1.32738C5.89088 1.44385 5.96159 1.54968 6.05074 1.63882C6.13988 1.72797 6.24571 1.79868 6.36218 1.84692C6.47866 1.89517 6.60349 1.92 6.72956 1.92H7.92956C8.06289 1.92 8.16956 2.02667 8.16956 2.16V3.6C8.16956 3.73333 8.06289 3.84 7.92956 3.84H6.24956C5.49818 3.83562 4.77516 4.12669 4.23641 4.65048C3.69767 5.17426 3.38634 5.88879 3.36956 6.64L2.88956 12.42V18.24C2.88956 18.616 3.01756 18.98 3.25223 19.2733C3.27366 19.3001 3.28911 19.3311 3.29755 19.3643C3.30599 19.3975 3.30722 19.4322 3.30116 19.4659C3.29509 19.4996 3.28188 19.5316 3.2624 19.5598C3.24292 19.588 3.21763 19.6117 3.18823 19.6293L0.474894 21.2613C0.365295 21.3255 0.26952 21.4108 0.193118 21.5123C0.116717 21.6137 0.0612072 21.7293 0.0298052 21.8524C-0.00159686 21.9755 -0.008267 22.1035 0.0101812 22.2292C0.0286294 22.3549 0.0718291 22.4756 0.137278 22.5844C0.202726 22.6933 0.289123 22.7881 0.391462 22.8633C0.493801 22.9385 0.610049 22.9927 0.73347 23.0226C0.856891 23.0526 0.985032 23.0578 1.11047 23.0379C1.23591 23.018 1.35615 22.9734 1.46423 22.9067L6.37756 19.9587C6.41507 19.9363 6.45788 19.9243 6.50156 19.924H15.5989C15.6416 19.924 15.6842 19.9373 15.7216 19.9587L20.6349 22.9053C20.7429 22.9758 20.8641 23.0238 20.9911 23.0465C21.1181 23.0691 21.2484 23.0659 21.3741 23.0371C21.4999 23.0082 21.6185 22.9543 21.723 22.8786C21.8274 22.8029 21.9155 22.7069 21.982 22.5963C22.0486 22.4858 22.0921 22.363 22.1101 22.2352C22.1281 22.1075 22.1202 21.9774 22.0868 21.8528C22.0534 21.7282 21.9952 21.6116 21.9157 21.51C21.8363 21.4084 21.7371 21.3238 21.6242 21.2613V21.2573ZM10.0909 2.16C10.0909 2.02667 10.1976 1.92 10.3309 1.92H11.7709C11.9029 1.92 12.0109 2.02667 12.0109 2.16V3.6C12.0109 3.73333 11.9029 3.84 11.7709 3.84H10.3309C10.2672 3.84 10.2062 3.81471 10.1612 3.76971C10.1162 3.7247 10.0909 3.66365 10.0909 3.6V2.16ZM6.73089 17.28C6.34898 17.28 5.98271 17.1283 5.71266 16.8582C5.44261 16.5882 5.29089 16.2219 5.29089 15.84C5.29089 15.4581 5.44261 15.0918 5.71266 14.8218C5.98271 14.5517 6.34898 14.4 6.73089 14.4C7.11281 14.4 7.47907 14.5517 7.74913 14.8218C8.01918 15.0918 8.17089 15.4581 8.17089 15.84C8.17089 16.2219 8.01918 16.5882 7.74913 16.8582C7.47907 17.1283 7.11281 17.28 6.73089 17.28ZM15.3709 17.28C14.989 17.28 14.6227 17.1283 14.3527 16.8582C14.0826 16.5882 13.9309 16.2219 13.9309 15.84C13.9309 15.4581 14.0826 15.0918 14.3527 14.8218C14.6227 14.5517 14.989 14.4 15.3709 14.4C15.7528 14.4 16.1191 14.5517 16.3891 14.8218C16.6592 15.0918 16.8109 15.4581 16.8109 15.84C16.8109 16.2219 16.6592 16.5882 16.3891 16.8582C16.1191 17.1283 15.7528 17.28 15.3709 17.28ZM17.1216 11.4427C17.0991 11.467 17.0719 11.4864 17.0416 11.4997C17.0114 11.513 16.9786 11.5199 16.9456 11.52H5.15356C5.12041 11.5201 5.0876 11.5133 5.05719 11.5001C5.02679 11.4869 4.99945 11.4675 4.9769 11.4432C4.95435 11.4189 4.93708 11.3902 4.92618 11.3589C4.91528 11.3276 4.91098 11.2944 4.91356 11.2613L5.28956 6.72C5.28956 6.46539 5.3907 6.22121 5.57074 6.04118C5.75077 5.86114 5.99495 5.76 6.24956 5.76H15.8496C15.9815 5.76337 16.1114 5.79317 16.2316 5.84764C16.3518 5.90211 16.4599 5.98014 16.5494 6.07711C16.6389 6.17408 16.708 6.28802 16.7527 6.41219C16.7974 6.53636 16.8167 6.66823 16.8096 6.8L17.1816 11.2613C17.1882 11.328 17.1669 11.3947 17.1216 11.4427Z" fill="currentColor"/>
</svg>
