<svg viewBox="0 0 32 32" fill="none" xmlns="http://www.w3.org/2000/svg">
    <path d="M23.452 11.5H8.54667C8.47701 11.4997 8.40806 11.514 8.34424 11.5419C8.28042 11.5698 8.22314 11.6108 8.17607 11.6621C8.12899 11.7134 8.09317 11.774 8.07088 11.84C8.0486 11.906 8.04035 11.976 8.04667 12.0453L9.33467 26.1813C9.37992 26.6784 9.60936 27.1405 9.97794 27.477C10.3465 27.8135 10.8276 28.0001 11.3267 28H20.6733C21.1724 28.0001 21.6535 27.8135 22.0221 27.477C22.3906 27.1405 22.6201 26.6784 22.6653 26.1813L23.9493 12.0453C23.9556 11.9762 23.9475 11.9065 23.9253 11.8407C23.9032 11.7749 23.8676 11.7144 23.8208 11.6631C23.774 11.6118 23.7171 11.5708 23.6536 11.5427C23.5901 11.5146 23.5214 11.5001 23.452 11.5ZM14.252 24.5C14.252 24.6989 14.173 24.8897 14.0323 25.0303C13.8917 25.171 13.7009 25.25 13.502 25.25C13.3031 25.25 13.1123 25.171 12.9717 25.0303C12.831 24.8897 12.752 24.6989 12.752 24.5V15.5C12.7602 15.3066 12.8427 15.1238 12.9825 14.9898C13.1223 14.8558 13.3084 14.781 13.502 14.781C13.6956 14.781 13.8817 14.8558 14.0215 14.9898C14.1613 15.1238 14.2438 15.3066 14.252 15.5V24.5ZM19.252 24.5C19.252 24.6989 19.173 24.8897 19.0323 25.0303C18.8917 25.171 18.7009 25.25 18.502 25.25C18.3031 25.25 18.1123 25.171 17.9717 25.0303C17.831 24.8897 17.752 24.6989 17.752 24.5V15.5C17.7602 15.3066 17.8427 15.1238 17.9825 14.9898C18.1223 14.8558 18.3084 14.781 18.502 14.781C18.6956 14.781 18.8817 14.8558 19.0215 14.9898C19.1613 15.1238 19.2438 15.3066 19.252 15.5V24.5ZM26 8H21.2493C21.2165 8 21.1839 7.99351 21.1536 7.98089C21.1233 7.96828 21.0957 7.9498 21.0726 7.9265C21.0494 7.90321 21.031 7.87556 21.0186 7.84516C21.0061 7.81475 20.9998 7.78219 21 7.74933V6.5C21 5.11867 19.88 4 18.5 4H13.5C12.1187 4 11 5.12 11 6.5V7.75067C10.9996 7.81692 10.9731 7.88033 10.9261 7.92705C10.8791 7.97377 10.8156 8 10.7493 8H6C5.73478 8 5.48043 8.10536 5.29289 8.29289C5.10536 8.48043 5 8.73478 5 9C5 9.26522 5.10536 9.51957 5.29289 9.70711C5.48043 9.89464 5.73478 10 6 10H26C26.2652 10 26.5196 9.89464 26.7071 9.70711C26.8946 9.51957 27 9.26522 27 9C27 8.73478 26.8946 8.48043 26.7071 8.29289C26.5196 8.10536 26.2652 8 26 8ZM13 7.74933V6.5C13 6.224 13.224 6 13.5 6H18.5C18.776 6 19 6.224 19 6.5V7.75067C19 7.78352 18.9935 7.81605 18.9809 7.84639C18.9683 7.87673 18.9498 7.90427 18.9265 7.92745C18.9032 7.95062 18.8756 7.96895 18.8452 7.9814C18.8148 7.99386 18.7822 8.00018 18.7493 8H13.252C13.219 8.00018 13.1862 7.99382 13.1557 7.9813C13.1251 7.96878 13.0973 7.95035 13.0739 7.92705C13.0505 7.90376 13.0319 7.87607 13.0192 7.84557C13.0065 7.81507 13 7.78236 13 7.74933Z" fill="currentColor"/>
</svg>
