<svg viewBox="0 0 22 24" fill="none" xmlns="http://www.w3.org/2000/svg">
<path d="M18.452 7.5H3.54667C3.47701 7.49971 3.40806 7.51398 3.34424 7.5419C3.28042 7.56981 3.22314 7.61075 3.17607 7.66209C3.12899 7.71344 3.09317 7.77405 3.07088 7.84004C3.0486 7.90604 3.04035 7.97596 3.04667 8.04533L4.33467 22.1813C4.37992 22.6784 4.60936 23.1405 4.97794 23.477C5.34651 23.8135 5.82758 24.0001 6.32667 24H15.6733C16.1724 24.0001 16.6535 23.8135 17.0221 23.477C17.3906 23.1405 17.6201 22.6784 17.6653 22.1813L18.9493 8.04533C18.9556 7.97619 18.9475 7.90649 18.9253 7.84068C18.9032 7.77486 18.8676 7.71438 18.8208 7.66308C18.774 7.61178 18.7171 7.57078 18.6536 7.54271C18.5901 7.51463 18.5214 7.50008 18.452 7.5ZM9.252 20.5C9.252 20.6989 9.17298 20.8897 9.03233 21.0303C8.89168 21.171 8.70091 21.25 8.502 21.25C8.30309 21.25 8.11232 21.171 7.97167 21.0303C7.83102 20.8897 7.752 20.6989 7.752 20.5V11.5C7.76016 11.3066 7.84274 11.1238 7.9825 10.9898C8.12226 10.8558 8.30839 10.781 8.502 10.781C8.69561 10.781 8.88174 10.8558 9.0215 10.9898C9.16126 11.1238 9.24384 11.3066 9.252 11.5V20.5ZM14.252 20.5C14.252 20.6989 14.173 20.8897 14.0323 21.0303C13.8917 21.171 13.7009 21.25 13.502 21.25C13.3031 21.25 13.1123 21.171 12.9717 21.0303C12.831 20.8897 12.752 20.6989 12.752 20.5V11.5C12.7602 11.3066 12.8427 11.1238 12.9825 10.9898C13.1223 10.8558 13.3084 10.781 13.502 10.781C13.6956 10.781 13.8817 10.8558 14.0215 10.9898C14.1613 11.1238 14.2438 11.3066 14.252 11.5V20.5ZM21 4H16.2493C16.2165 4 16.1839 3.99351 16.1536 3.98089C16.1233 3.96828 16.0957 3.9498 16.0726 3.9265C16.0494 3.90321 16.031 3.87556 16.0186 3.84516C16.0061 3.81475 15.9998 3.78219 16 3.74933V2.5C16 1.11867 14.88 0 13.5 0H8.5C7.11867 0 6 1.12 6 2.5V3.75067C5.99965 3.81692 5.97308 3.88033 5.92611 3.92705C5.87914 3.97377 5.81558 4 5.74933 4H1C0.734784 4 0.48043 4.10536 0.292893 4.29289C0.105357 4.48043 0 4.73478 0 5C0 5.26522 0.105357 5.51957 0.292893 5.70711C0.48043 5.89464 0.734784 6 1 6H21C21.2652 6 21.5196 5.89464 21.7071 5.70711C21.8946 5.51957 22 5.26522 22 5C22 4.73478 21.8946 4.48043 21.7071 4.29289C21.5196 4.10536 21.2652 4 21 4ZM8 3.74933V2.5C8 2.224 8.224 2 8.5 2H13.5C13.776 2 14 2.224 14 2.5V3.75067C14 3.78352 13.9935 3.81605 13.9809 3.84639C13.9683 3.87673 13.9498 3.90427 13.9265 3.92745C13.9032 3.95062 13.8756 3.96895 13.8452 3.9814C13.8148 3.99386 13.7822 4.00018 13.7493 4H8.252C8.21897 4.00018 8.18623 3.99382 8.15566 3.9813C8.1251 3.96878 8.09731 3.95035 8.07389 3.92705C8.05047 3.90376 8.03189 3.87607 8.01921 3.84557C8.00653 3.81507 8 3.78236 8 3.74933Z" fill="currentColor"/>
</svg>
