<svg viewBox="0 0 32 32" fill="none" xmlns="http://www.w3.org/2000/svg">
    <path d="M9.58934 19.4747H15.0147C15.0734 19.1801 15.2322 18.9149 15.464 18.724L15.6387 18.6C15.964 18.324 16.3893 18.1747 16.8387 18.1747C17.164 18.1747 17.464 18.2493 17.764 18.4L18.1893 18.6493L19.464 17.5L17.564 15.6747C17.4137 15.5274 17.3012 15.346 17.2359 15.1459C17.1707 14.9458 17.1547 14.7329 17.1893 14.5253C17.264 14.0987 17.5387 13.7493 17.9133 13.5493C18.2555 13.3815 18.6322 13.2961 19.0133 13.3C19.4133 13.3 19.7893 13.4 20.164 13.5747L22.5893 14.7747L23.5387 13.924V10.824C23.5366 10.48 23.3989 10.1507 23.1555 9.90756C22.9121 9.66443 22.5827 9.52708 22.2387 9.52533H18.4387V8.52533C18.4387 7.67467 17.7387 7 16.9147 7H14.9387C14.0893 7 13.4147 7.7 13.4147 8.524V9.5H9.588C9.24399 9.5021 8.91469 9.63978 8.67156 9.88316C8.42843 10.1265 8.29108 10.456 8.28934 10.8V18.148C8.28335 18.3215 8.3127 18.4944 8.37558 18.6563C8.43847 18.8181 8.53359 18.9655 8.65517 19.0894C8.77674 19.2133 8.92224 19.3113 9.08283 19.3773C9.24341 19.4433 9.41574 19.4773 9.58934 19.4747ZM14.6893 8.524C14.6893 8.4 14.7893 8.3 14.9133 8.3H16.8907C17.016 8.3 17.1147 8.4 17.1147 8.52533V9.49867H14.6907V8.52533L14.6893 8.524Z" fill="currentColor"/>
    <path d="M27.1386 13.3C26.271 13.3226 25.4392 13.6502 24.7893 14.2254L22.7386 16.0254L19.6893 14.5254C19.4823 14.4265 19.2559 14.3752 19.0266 14.3752C18.7973 14.3752 18.5709 14.4265 18.3639 14.5254C18.1893 14.6 18.1639 14.824 18.3146 14.9494L21.0146 17.5747L18.3146 19.9494L17.2386 19.3494C17.0899 19.2691 16.9211 19.2336 16.7527 19.2471C16.5843 19.2606 16.4233 19.3225 16.2893 19.4254L16.1133 19.5494C15.9893 19.6494 15.9893 19.8494 16.1133 19.9254L17.5893 21.0747C17.8133 21.2494 17.9893 21.4747 18.1133 21.7254L18.9399 23.4C19.0146 23.5494 19.1893 23.5747 19.3133 23.4747L19.4893 23.3494C19.7639 23.1254 19.8639 22.7747 19.7639 22.4494L19.4386 21.2747L22.3146 19.124L24.3146 22.324C24.4146 22.4747 24.6386 22.5 24.7386 22.3507C25.0146 21.9747 25.1133 21.5 25.0146 21.0494L24.1639 17.7747L26.3386 16.1494C27.0267 15.6302 27.5127 14.8877 27.7133 14.0494C27.7367 13.9613 27.7396 13.8691 27.7219 13.7797C27.7041 13.6903 27.666 13.6062 27.6107 13.5339C27.5553 13.4615 27.4841 13.4028 27.4025 13.3623C27.3209 13.3217 27.231 13.3004 27.1399 13.3H27.1386ZM15.4639 21.7494L15.4386 21.7747C14.7893 22.1747 14.1146 22.5494 13.4146 22.8494C12.7221 23.1461 12.0016 23.3725 11.2639 23.5254C10.5326 23.6787 9.78238 23.7205 9.03859 23.6494C8.31459 23.5747 7.58926 23.4 6.93859 23.0747C6.31326 22.7494 5.73859 22.2747 5.38926 21.6494C5.02348 21.0313 4.84946 20.3185 4.88926 19.6014C4.95043 18.8496 5.16315 18.1181 5.51459 17.4507C5.88066 16.7615 6.33419 16.1224 6.86393 15.5494C6.91195 15.4988 6.93872 15.4318 6.93872 15.362C6.93872 15.2923 6.91195 15.2253 6.86393 15.1747C6.81338 15.1267 6.74632 15.0999 6.67659 15.0999C6.60687 15.0999 6.53981 15.1267 6.48926 15.1747C5.87721 15.7495 5.34733 16.4059 4.91459 17.1254C4.44719 17.8584 4.1476 18.6857 4.03726 19.548C3.91872 20.4512 4.08464 21.3689 4.51193 22.1734C4.93859 22.9987 5.61193 23.648 6.38793 24.1227C7.16259 24.5987 8.03726 24.8734 8.88793 25.0227C9.75784 25.144 10.6397 25.1529 11.5119 25.0494C12.3879 24.948 13.2133 24.7227 14.0373 24.4494C14.8626 24.1734 15.6373 23.7987 16.3879 23.3987C16.4119 23.3987 16.4119 23.3734 16.4373 23.3734C16.8626 23.0987 17.0133 22.548 16.7373 22.1227C16.4626 21.6227 15.9133 21.4734 15.4639 21.7494Z" fill="currentColor"/>
</svg>
