<svg viewBox="0 0 24 19" fill="none" xmlns="http://www.w3.org/2000/svg">
<path d="M5.58934 12.4747H11.0147C11.0734 12.1801 11.2322 11.9149 11.464 11.724L11.6387 11.6C11.964 11.324 12.3893 11.1747 12.8387 11.1747C13.164 11.1747 13.464 11.2493 13.764 11.4L14.1893 11.6493L15.464 10.5L13.564 8.67467C13.4137 8.52736 13.3012 8.34597 13.2359 8.14588C13.1707 7.94579 13.1547 7.73292 13.1893 7.52533C13.264 7.09867 13.5387 6.74933 13.9133 6.54933C14.2555 6.38145 14.6322 6.29606 15.0133 6.3C15.4133 6.3 15.7893 6.4 16.164 6.57467L18.5893 7.77467L19.5387 6.924V3.824C19.5366 3.47999 19.3989 3.15069 19.1555 2.90756C18.9121 2.66443 18.5827 2.52708 18.2387 2.52533H14.4387V1.52533C14.4387 0.674667 13.7387 0 12.9147 0H10.9387C10.0893 0 9.41467 0.7 9.41467 1.524V2.5H5.588C5.24399 2.5021 4.91469 2.63978 4.67156 2.88316C4.42843 3.12654 4.29108 3.45599 4.28934 3.8V11.148C4.28335 11.3215 4.3127 11.4944 4.37558 11.6563C4.43847 11.8181 4.53359 11.9655 4.65517 12.0894C4.77674 12.2133 4.92224 12.3113 5.08283 12.3773C5.24341 12.4433 5.41574 12.4773 5.58934 12.4747ZM10.6893 1.524C10.6893 1.4 10.7893 1.3 10.9133 1.3H12.8907C13.016 1.3 13.1147 1.4 13.1147 1.52533V2.49867H10.6907V1.52533L10.6893 1.524Z" fill="currentColor"/>
<path d="M23.1386 6.30005C22.271 6.32257 21.4392 6.65021 20.7893 7.22538L18.7386 9.02538L15.6893 7.52538C15.4823 7.42653 15.2559 7.37523 15.0266 7.37523C14.7973 7.37523 14.5709 7.42653 14.3639 7.52538C14.1893 7.60005 14.1639 7.82405 14.3146 7.94938L17.0146 10.5747L14.3146 12.9494L13.2386 12.3494C13.0899 12.2691 12.9211 12.2336 12.7527 12.2471C12.5843 12.2606 12.4233 12.3225 12.2893 12.4254L12.1133 12.5494C11.9893 12.6494 11.9893 12.8494 12.1133 12.9254L13.5893 14.0747C13.8133 14.2494 13.9893 14.4747 14.1133 14.7254L14.9399 16.4C15.0146 16.5494 15.1893 16.5747 15.3133 16.4747L15.4893 16.3494C15.7639 16.1254 15.8639 15.7747 15.7639 15.4494L15.4386 14.2747L18.3146 12.124L20.3146 15.324C20.4146 15.4747 20.6386 15.5 20.7386 15.3507C21.0146 14.9747 21.1133 14.5 21.0146 14.0494L20.1639 10.7747L22.3386 9.14938C23.0267 8.63016 23.5127 7.88772 23.7133 7.04938C23.7367 6.96133 23.7396 6.86908 23.7219 6.77971C23.7041 6.69034 23.666 6.60624 23.6107 6.53388C23.5553 6.46151 23.4841 6.4028 23.4025 6.36227C23.3209 6.32173 23.231 6.30045 23.1399 6.30005H23.1386ZM11.4639 14.7494L11.4386 14.7747C10.7893 15.1747 10.1146 15.5494 9.41459 15.8494C8.72211 16.1461 8.00162 16.3725 7.26393 16.5254C6.53264 16.6787 5.78238 16.7205 5.03859 16.6494C4.31459 16.5747 3.58926 16.4 2.93859 16.0747C2.31326 15.7494 1.73859 15.2747 1.38926 14.6494C1.02348 14.0313 0.84946 13.3185 0.889261 12.6014C0.950429 11.8496 1.16315 11.1181 1.51459 10.4507C1.88066 9.7615 2.33419 9.12244 2.86393 8.54938C2.91195 8.49883 2.93872 8.43177 2.93872 8.36205C2.93872 8.29233 2.91195 8.22527 2.86393 8.17472C2.81338 8.1267 2.74632 8.09992 2.67659 8.09992C2.60687 8.09992 2.53981 8.1267 2.48926 8.17472C1.87721 8.74947 1.34733 9.40587 0.914594 10.1254C0.447192 10.8584 0.147601 11.6857 0.0372611 12.548C-0.0812803 13.4512 0.0846363 14.3689 0.511928 15.1734C0.938594 15.9987 1.61193 16.648 2.38793 17.1227C3.16259 17.5987 4.03726 17.8734 4.88793 18.0227C5.75784 18.144 6.63973 18.1529 7.51193 18.0494C8.38793 17.948 9.21326 17.7227 10.0373 17.4494C10.8626 17.1734 11.6373 16.7987 12.3879 16.3987C12.4119 16.3987 12.4119 16.3734 12.4373 16.3734C12.8626 16.0987 13.0133 15.548 12.7373 15.1227C12.4626 14.6227 11.9133 14.4734 11.4639 14.7494Z" fill="currentColor"/>
</svg>