<svg viewBox="0 0 32 32" fill="none" xmlns="http://www.w3.org/2000/svg">
    <path d="M20.2688 17.7147C20.2291 17.6587 20.2055 17.5928 20.2008 17.5243C20.1961 17.4558 20.2104 17.3873 20.2421 17.3264C20.2738 17.2654 20.3217 17.2144 20.3805 17.179C20.4393 17.1435 20.5068 17.125 20.5755 17.1254C20.7802 17.1253 20.9812 17.0703 21.1574 16.966C21.3336 16.8618 21.4785 16.7121 21.577 16.5326C21.6755 16.3531 21.724 16.1505 21.7174 15.9458C21.7108 15.7412 21.6494 15.5421 21.5395 15.3694L18.8101 11.0787C18.7895 11.0465 18.7755 11.0104 18.769 10.9727C18.7626 10.9349 18.7637 10.8963 18.7724 10.859C18.7811 10.8217 18.7972 10.7866 18.8197 10.7556C18.8422 10.7246 18.8707 10.6985 18.9035 10.6787C19.033 10.6019 19.146 10.5003 19.2362 10.3797C19.3263 10.2591 19.3917 10.1219 19.4286 9.97596C19.4655 9.83 19.4733 9.67819 19.4513 9.52924C19.4294 9.38029 19.3782 9.23715 19.3008 9.10803L16.3928 4.2587C16.3382 4.17895 16.265 4.11371 16.1795 4.06864C16.094 4.02356 15.9988 4 15.9021 4C15.8055 4 15.7103 4.02356 15.6248 4.06864C15.5393 4.11371 15.4661 4.17895 15.4115 4.2587L12.5035 9.10803C12.4258 9.23712 12.3744 9.3803 12.3522 9.52934C12.3301 9.67837 12.3376 9.83031 12.3744 9.97642C12.4112 10.1225 12.4766 10.2599 12.5667 10.3807C12.6568 10.5014 12.7699 10.6032 12.8995 10.68C12.9322 10.6997 12.9606 10.7257 12.9831 10.7565C13.0057 10.7873 13.0218 10.8223 13.0306 10.8595C13.0394 10.8966 13.0408 10.9351 13.0345 10.9728C13.0282 11.0104 13.0145 11.0464 12.9941 11.0787L10.2635 15.3707C10.1539 15.5435 10.0927 15.7426 10.0863 15.9471C10.0799 16.1517 10.1286 16.3542 10.2273 16.5335C10.3259 16.7128 10.4709 16.8623 10.6471 16.9664C10.8232 17.0705 11.0242 17.1254 11.2288 17.1254C11.2975 17.125 11.3649 17.1435 11.4237 17.179C11.4826 17.2144 11.5304 17.2654 11.5621 17.3264C11.5938 17.3873 11.6081 17.4558 11.6034 17.5243C11.5987 17.5928 11.5752 17.6587 11.5355 17.7147L9.20613 21.0427C9.08644 21.2139 9.01598 21.4147 9.00241 21.6232C8.98885 21.8316 9.0327 22.0399 9.12919 22.2252C9.22569 22.4104 9.37114 22.5657 9.54973 22.6742C9.72832 22.7826 9.93321 22.8399 10.1421 22.84H14.1875C14.5035 22.84 14.7595 23.096 14.7595 23.4107V26.84C14.7595 27.1431 14.8799 27.4337 15.0941 27.648C15.3084 27.8623 15.5991 27.9827 15.9021 27.9827C16.2052 27.9827 16.4958 27.8623 16.7101 27.648C16.9244 27.4337 17.0448 27.1431 17.0448 26.84V23.4094C17.0448 23.0947 17.3008 22.8387 17.6168 22.8387H21.6608C21.8698 22.8388 22.0749 22.7817 22.2537 22.6733C22.4325 22.565 22.5781 22.4098 22.6748 22.2244C22.7714 22.0391 22.8154 21.8308 22.8019 21.6222C22.7884 21.4136 22.7179 21.2127 22.5981 21.0414L20.2688 17.7147Z" fill="currentColor"/>
</svg>
