<svg viewBox="0 0 14 24" fill="none" xmlns="http://www.w3.org/2000/svg">
<path d="M11.2688 13.7147C11.2291 13.6587 11.2055 13.5928 11.2008 13.5243C11.1961 13.4558 11.2104 13.3873 11.2421 13.3264C11.2738 13.2654 11.3217 13.2144 11.3805 13.179C11.4393 13.1435 11.5068 13.125 11.5755 13.1254C11.7802 13.1253 11.9812 13.0703 12.1574 12.966C12.3336 12.8618 12.4785 12.7121 12.577 12.5326C12.6755 12.3531 12.724 12.1505 12.7174 11.9458C12.7108 11.7412 12.6494 11.5421 12.5395 11.3694L9.81013 7.0787C9.78949 7.04645 9.77552 7.0104 9.76904 6.97267C9.76256 6.93494 9.7637 6.89629 9.7724 6.859C9.7811 6.82172 9.79718 6.78656 9.81969 6.75559C9.8422 6.72462 9.87069 6.69848 9.90347 6.6787C10.033 6.60193 10.146 6.50033 10.2362 6.37973C10.3263 6.25913 10.3917 6.12191 10.4286 5.97596C10.4655 5.83 10.4733 5.67819 10.4513 5.52924C10.4294 5.38029 10.3782 5.23715 10.3008 5.10803L7.3928 0.258698C7.33819 0.17895 7.26497 0.113713 7.17948 0.0686355C7.09398 0.0235584 6.99878 0 6.90213 0C6.80548 0 6.71028 0.0235584 6.62479 0.0686355C6.53929 0.113713 6.46607 0.17895 6.41146 0.258698L3.50347 5.10803C3.42577 5.23712 3.37437 5.3803 3.35222 5.52934C3.33007 5.67837 3.33762 5.83031 3.37443 5.97642C3.41123 6.12252 3.47657 6.2599 3.56668 6.38066C3.65678 6.50141 3.76988 6.60316 3.89947 6.68003C3.93217 6.6997 3.96062 6.72571 3.98314 6.75652C4.00566 6.78733 4.02181 6.82233 4.03063 6.85946C4.03944 6.89659 4.04076 6.93511 4.03449 6.97276C4.02822 7.01041 4.0145 7.04642 3.99413 7.0787L1.26347 11.3707C1.15386 11.5435 1.09268 11.7426 1.08631 11.9471C1.07994 12.1517 1.12862 12.3542 1.22726 12.5335C1.32591 12.7128 1.47089 12.8623 1.64707 12.9664C1.82325 13.0705 2.02415 13.1254 2.2288 13.1254C2.29747 13.125 2.36493 13.1435 2.42374 13.179C2.48255 13.2144 2.53044 13.2654 2.56215 13.3264C2.59385 13.3873 2.60813 13.4558 2.60342 13.5243C2.59872 13.5928 2.5752 13.6587 2.53547 13.7147L0.206132 17.0427C0.0864367 17.2139 0.0159762 17.4147 0.0024115 17.6232C-0.0111532 17.8316 0.032697 18.0399 0.129194 18.2252C0.225691 18.4104 0.371142 18.5657 0.549732 18.6742C0.728321 18.7826 0.933214 18.8399 1.14213 18.84H5.18747C5.50347 18.84 5.75947 19.096 5.75947 19.4107V22.84C5.75947 23.1431 5.87985 23.4337 6.09414 23.648C6.30844 23.8623 6.59908 23.9827 6.90213 23.9827C7.20519 23.9827 7.49583 23.8623 7.71012 23.648C7.92441 23.4337 8.0448 23.1431 8.0448 22.84V19.4094C8.0448 19.0947 8.3008 18.8387 8.6168 18.8387H12.6608C12.8698 18.8388 13.0749 18.7817 13.2537 18.6733C13.4325 18.565 13.5781 18.4098 13.6748 18.2244C13.7714 18.0391 13.8154 17.8308 13.8019 17.6222C13.7884 17.4136 13.7179 17.2127 13.5981 17.0414L11.2688 13.7147Z" fill="currentColor"/>
</svg>
