<svg viewBox="0 0 24 24" fill="none" xmlns="http://www.w3.org/2000/svg">
    <g clip-path="url(#clip0_2913:34123)">
        <path d="M12.0167 24C5.38912 24 0 18.6444 0 12.0167C0 5.38912 5.38912 0 12.0167 0C18.6444 0 24.0335 5.38912 24.0335 12.0167C24 18.6444 18.6444 24 12.0167 24Z" fill="#29A9E1"/>
        <path d="M5.62341 16.0334C6.79496 16.7698 8.16735 17.205 9.64015 17.205C14.5272 17.205 17.272 13.0878 17.1046 9.4058C17.6067 9.0376 18.0753 8.56898 18.41 8.03342C17.9414 8.23425 17.4393 8.36814 16.9038 8.43509C17.4393 8.10036 17.8745 7.59827 18.0418 6.99576C17.5397 7.29701 16.9707 7.53132 16.3682 7.63174C15.8996 7.12965 15.1966 6.79492 14.4602 6.79492C12.7531 6.79492 11.5146 8.36814 11.9163 10.0083C9.74057 9.90789 7.79915 8.87024 6.49371 7.26354C5.79078 8.43509 6.12551 9.97484 7.29705 10.7782C6.86191 10.7782 6.46023 10.6443 6.09203 10.4435C6.05856 11.6485 6.92885 12.7866 8.20082 13.0543C7.83262 13.1548 7.43095 13.1882 7.02927 13.0878C7.364 14.1255 8.33471 14.8953 9.47279 14.8953C8.40166 15.7991 6.9958 16.2008 5.62341 16.0334Z" fill="white"/>
    </g>
</svg>
