<svg viewBox="0 0 24 22" fill="none" xmlns="http://www.w3.org/2000/svg">
<path d="M7.60715 0L15.2143 6.36451L14.1343 7.61365L12.5129 6.25666V14.2266L14.1787 13.1072L18.2516 10.37L22.3231 13.1072L23.9889 14.2266L24 14.2334L23.9903 14.2485L23.0602 15.5863L22.3245 15.0922V22H2.69998V6.25529L1.07999 7.61365L0 6.36451L7.60715 0ZM7.60715 15.8389C6.27312 15.8389 5.18758 16.9051 5.18758 18.2171V20.3604H10.0253V18.2171C10.0253 16.9065 8.94118 15.8389 7.60715 15.8389ZM20.6698 16.0546H15.832V20.3604H20.6698V16.0546ZM12.5129 14.2485V17.0867H14.1787V15.0922L13.443 15.5863L12.5129 14.2485ZM7.60437 6.41092C7.0282 6.41092 6.47562 6.63602 6.0682 7.03669C5.66078 7.43737 5.43189 7.9808 5.43189 8.54744C5.43189 9.11408 5.66078 9.65751 6.0682 10.0582C6.47562 10.4589 7.0282 10.684 7.60437 10.684C8.18055 10.684 8.73313 10.4589 9.14055 10.0582C9.54797 9.65751 9.77685 9.11408 9.77685 8.54744C9.77685 7.9808 9.54797 7.43737 9.14055 7.03669C8.73313 6.63602 8.18055 6.41092 7.60437 6.41092Z" fill="currentColor"/>
</svg>
