<svg viewBox="0 0 32 32" fill="none" xmlns="http://www.w3.org/2000/svg">
    <path d="M11.6071 5L19.2143 11.3645L18.1343 12.6137L16.5129 11.2567V19.2266L18.1787 18.1072L22.2516 15.37L26.3231 18.1072L27.9889 19.2266L28 19.2334L27.9903 19.2485L27.0602 20.5863L26.3245 20.0922V27H6.69998V11.2553L5.07999 12.6137L4 11.3645L11.6071 5ZM11.6071 20.8389C10.2731 20.8389 9.18758 21.9051 9.18758 23.2171V25.3604H14.0253V23.2171C14.0253 21.9065 12.9412 20.8389 11.6071 20.8389ZM24.6698 21.0546H19.832V25.3604H24.6698V21.0546ZM16.5129 19.2485V22.0867H18.1787V20.0922L17.443 20.5863L16.5129 19.2485ZM11.6044 11.4109C11.0282 11.4109 10.4756 11.636 10.0682 12.0367C9.66078 12.4374 9.43189 12.9808 9.43189 13.5474C9.43189 14.1141 9.66078 14.6575 10.0682 15.0582C10.4756 15.4589 11.0282 15.684 11.6044 15.684C12.1806 15.684 12.7331 15.4589 13.1405 15.0582C13.548 14.6575 13.7769 14.1141 13.7769 13.5474C13.7769 12.9808 13.548 12.4374 13.1405 12.0367C12.7331 11.636 12.1806 11.4109 11.6044 11.4109Z" fill="currentColor"/>
</svg>
