<svg viewBox="0 0 14 14" fill="none" xmlns="http://www.w3.org/2000/svg">
<path d="M13.9936 3.79504C13.929 5.15082 12.9767 7.02309 11.1367 9.39569C9.2322 11.8651 7.61818 13.1079 6.31082 13.1079C5.48767 13.1079 4.80978 12.3494 4.24487 10.8483C3.87365 9.46026 3.48628 8.08834 3.11506 6.70028C2.69541 5.19924 2.24349 4.44065 1.75928 4.44065C1.66244 4.44065 1.29122 4.66662 0.661748 5.1024L0 4.24697C0.694029 3.63364 1.37192 3.03645 2.04981 2.42313C2.9698 1.63226 3.66383 1.21261 4.13189 1.16419C5.21329 1.06735 5.89118 1.8098 6.14942 3.39154C6.4238 5.11854 6.61749 6.18379 6.71433 6.60344C7.02099 8.02378 7.37607 8.75009 7.7473 8.75009C8.03782 8.75009 8.47361 8.28202 9.0708 7.36203C9.65184 6.44204 9.97465 5.73187 10.0069 5.24766C10.0876 4.45679 9.78096 4.05329 9.0708 4.05329C8.73185 4.05329 8.39291 4.13399 8.03782 4.27925C8.73185 2.01962 10.0392 0.938227 11.976 1.00279C13.3964 1.03507 14.0743 1.9712 13.9936 3.79504Z" fill="currentColor"/>
</svg>
