<svg viewBox="0 0 20 19" fill="none" xmlns="http://www.w3.org/2000/svg">
<path d="M6.27423 9.15289L4.89404 7.69603C4.33189 7.10116 3.96344 6.34975 3.83735 5.54107C3.71126 4.73238 3.83348 3.90447 4.18785 3.16671C4.43773 2.61608 4.81901 2.13524 5.29819 1.76643C5.77737 1.39761 6.33978 1.15211 6.93603 1.05149C7.53227 0.950866 8.1441 0.998199 8.71778 1.18933C9.29145 1.38046 9.80942 1.70954 10.2262 2.14767L11.2667 3.23035L12.3072 2.14767C12.7239 1.70971 13.2419 1.38078 13.8154 1.18975C14.389 0.998714 15.0008 0.951431 15.5969 1.05205C16.193 1.15266 16.7553 1.3981 17.2344 1.76681C17.7136 2.13552 18.0948 2.61623 18.3447 3.16671C18.6991 3.90447 18.8213 4.73238 18.6952 5.54107C18.5691 6.34975 18.2007 7.10116 17.6385 7.69603L11.2667 14.2243L9.67256 12.5903" stroke="currentColor" stroke-width="1.5" stroke-linecap="round" stroke-linejoin="round"/>
<path d="M6.66664 11.9236L7.94945 10.9613C8.08034 10.8632 8.22989 10.7927 8.38894 10.7543C8.54799 10.7159 8.7132 10.7104 8.87447 10.738C9.03575 10.7656 9.18969 10.8259 9.32688 10.915C9.46407 11.0042 9.58164 11.1204 9.67238 11.2565C9.80403 11.4541 9.87427 11.6862 9.87427 11.9236C9.87427 12.161 9.80403 12.3931 9.67238 12.5907L8.41105 14.4823C8.02345 15.0634 7.46865 15.5131 6.82 15.772L4.94141 16.5243V18.2495" stroke="currentColor" stroke-width="1.5" stroke-linecap="round" stroke-linejoin="round"/>
<path d="M5.71737 8.56445C0.674316 10.726 1.49016 15.3634 1.49016 18.2495" stroke="currentColor" stroke-width="1.5" stroke-linecap="round" stroke-linejoin="round"/>
</svg>
