<svg viewBox="0 0 24 24" fill="none" xmlns="http://www.w3.org/2000/svg">
<path d="M21.1039 17.8786C20.932 17.8786 20.7632 17.9247 20.6152 18.0122C20.4672 18.0997 20.3454 18.2253 20.2626 18.376C19.1679 20.3706 19.1679 20.9213 19.1679 21.1026C19.1611 21.3612 19.2062 21.6186 19.3005 21.8595C19.3947 22.1004 19.5363 22.32 19.7168 22.5053C19.8973 22.6906 20.1131 22.8379 20.3515 22.9384C20.5898 23.039 20.8459 23.0908 21.1046 23.0908C21.3633 23.0908 21.6193 23.039 21.8577 22.9384C22.096 22.8379 22.3118 22.6906 22.4923 22.5053C22.6728 22.32 22.8144 22.1004 22.9087 21.8595C23.0029 21.6186 23.048 21.3612 23.0412 21.1026C23.0412 20.9213 23.0412 20.3693 21.9439 18.376C21.8612 18.2255 21.7396 18.1 21.5918 18.0126C21.4441 17.9251 21.2756 17.8788 21.1039 17.8786ZM14.8799 6.71997C14.7526 6.71997 14.6305 6.77054 14.5405 6.86056C14.4505 6.95058 14.3999 7.07267 14.3999 7.19997V12C14.3999 12.2653 14.6146 12.48 14.8799 12.48H16.7999C17.5946 12.48 18.2399 13.1253 18.2399 13.92V15.36C18.2399 15.8906 18.6692 16.32 19.1999 16.32H22.0799C22.3345 16.32 22.5787 16.2188 22.7587 16.0388C22.9388 15.8588 23.0399 15.6146 23.0399 15.36V13.92C23.0399 7.4213 17.3332 6.71997 14.8799 6.71997Z" fill="currentColor"/>
<path d="M3.17333 6.71997H0.666667C0.298477 6.71997 0 7.01845 0 7.38664V11.8133C0 12.1815 0.298477 12.48 0.666667 12.48H3.17333C3.54152 12.48 3.84 12.1815 3.84 11.8133V7.38664C3.84 7.01845 3.54152 6.71997 3.17333 6.71997Z" fill="currentColor"/>
<path d="M11.2866 3.936C11.2158 3.91764 11.1531 3.87621 11.1084 3.81827C11.0638 3.76033 11.0397 3.68916 11.04 3.616V3.6C11.04 3.4727 11.0905 3.35061 11.1805 3.26059C11.2706 3.17057 11.3926 3.12 11.52 3.12H16.08C16.3346 3.12 16.5787 3.01886 16.7588 2.83882C16.9388 2.65879 17.04 2.41461 17.04 2.16C17.04 1.90539 16.9388 1.66121 16.7588 1.48118C16.5787 1.30114 16.3346 1.2 16.08 1.2H11.28C11.2163 1.2 11.1553 1.17471 11.1102 1.12971C11.0652 1.0847 11.04 1.02365 11.04 0.96C11.04 0.705392 10.9388 0.461212 10.7588 0.281177C10.5787 0.101143 10.3346 0 10.08 0L8.15995 0C7.90534 0 7.66116 0.101143 7.48113 0.281177C7.30109 0.461212 7.19995 0.705392 7.19995 0.96C7.19995 1.02365 7.17467 1.0847 7.12966 1.12971C7.08465 1.17471 7.0236 1.2 6.95995 1.2H2.15995C1.90534 1.2 1.66116 1.30114 1.48113 1.48118C1.30109 1.66121 1.19995 1.90539 1.19995 2.16C1.19995 2.41461 1.30109 2.65879 1.48113 2.83882C1.66116 3.01886 1.90534 3.12 2.15995 3.12H6.71995C6.78299 3.12 6.8454 3.13242 6.90364 3.15654C6.96188 3.18066 7.01479 3.21602 7.05936 3.26059C7.10393 3.30516 7.13929 3.35808 7.16341 3.41631C7.18754 3.47455 7.19995 3.53697 7.19995 3.6C7.19995 3.75733 7.09328 3.896 6.94128 3.936C6.32786 4.09994 5.78561 4.46156 5.39849 4.96486C5.01138 5.46816 4.801 6.08505 4.79995 6.72V12.48C4.79995 13.2438 5.10338 13.9764 5.64348 14.5165C6.18359 15.0566 6.91613 15.36 7.67995 15.36H10.56C11.3238 15.36 12.0563 15.0566 12.5964 14.5165C13.1365 13.9764 13.44 13.2438 13.44 12.48V6.72C13.4384 6.08341 13.2264 5.4652 12.8369 4.96165C12.4475 4.45811 11.9024 4.0975 11.2866 3.936Z" fill="currentColor"/>
</svg>
