<svg viewBox="0 0 32 32" fill="none" xmlns="http://www.w3.org/2000/svg">
    <path d="M25.1039 21.8786C24.932 21.8786 24.7632 21.9247 24.6152 22.0122C24.4672 22.0997 24.3454 22.2253 24.2626 22.376C23.1679 24.3706 23.1679 24.9213 23.1679 25.1026C23.1611 25.3612 23.2062 25.6186 23.3005 25.8595C23.3947 26.1004 23.5363 26.32 23.7168 26.5053C23.8973 26.6906 24.1131 26.8379 24.3515 26.9384C24.5898 27.039 24.8459 27.0908 25.1046 27.0908C25.3633 27.0908 25.6193 27.039 25.8577 26.9384C26.096 26.8379 26.3118 26.6906 26.4923 26.5053C26.6728 26.32 26.8144 26.1004 26.9087 25.8595C27.0029 25.6186 27.048 25.3612 27.0412 25.1026C27.0412 24.9213 27.0412 24.3693 25.9439 22.376C25.8612 22.2255 25.7396 22.1 25.5918 22.0126C25.4441 21.9251 25.2756 21.8788 25.1039 21.8786ZM18.8799 10.72C18.7526 10.72 18.6305 10.7705 18.5405 10.8606C18.4505 10.9506 18.3999 11.0727 18.3999 11.2V16C18.3999 16.2653 18.6146 16.48 18.8799 16.48H20.7999C21.5946 16.48 22.2399 17.1253 22.2399 17.92V19.36C22.2399 19.8906 22.6692 20.32 23.1999 20.32H26.0799C26.3345 20.32 26.5787 20.2188 26.7587 20.0388C26.9388 19.8588 27.0399 19.6146 27.0399 19.36V17.92C27.0399 11.4213 21.3332 10.72 18.8799 10.72Z" fill="currentColor"/>
    <path d="M7.17333 10.72H4.66667C4.29848 10.72 4 11.0184 4 11.3866V15.8133C4 16.1815 4.29848 16.48 4.66667 16.48H7.17333C7.54152 16.48 7.84 16.1815 7.84 15.8133V11.3866C7.84 11.0184 7.54152 10.72 7.17333 10.72Z" fill="currentColor"/>
    <path d="M15.2866 7.936C15.2158 7.91764 15.1531 7.87621 15.1084 7.81827C15.0638 7.76033 15.0397 7.68916 15.04 7.616V7.6C15.04 7.4727 15.0905 7.35061 15.1805 7.26059C15.2706 7.17057 15.3926 7.12 15.52 7.12H20.08C20.3346 7.12 20.5787 7.01886 20.7588 6.83882C20.9388 6.65879 21.04 6.41461 21.04 6.16C21.04 5.90539 20.9388 5.66121 20.7588 5.48118C20.5787 5.30114 20.3346 5.2 20.08 5.2H15.28C15.2163 5.2 15.1553 5.17471 15.1102 5.12971C15.0652 5.0847 15.04 5.02365 15.04 4.96C15.04 4.70539 14.9388 4.46121 14.7588 4.28118C14.5787 4.10114 14.3346 4 14.08 4H12.16C11.9053 4 11.6612 4.10114 11.4811 4.28118C11.3011 4.46121 11.2 4.70539 11.2 4.96C11.2 5.02365 11.1747 5.0847 11.1297 5.12971C11.0846 5.17471 11.0236 5.2 10.96 5.2H6.15995C5.90534 5.2 5.66116 5.30114 5.48113 5.48118C5.30109 5.66121 5.19995 5.90539 5.19995 6.16C5.19995 6.41461 5.30109 6.65879 5.48113 6.83882C5.66116 7.01886 5.90534 7.12 6.15995 7.12H10.72C10.783 7.12 10.8454 7.13242 10.9036 7.15654C10.9619 7.18066 11.0148 7.21602 11.0594 7.26059C11.1039 7.30516 11.1393 7.35808 11.1634 7.41631C11.1875 7.47455 11.2 7.53697 11.2 7.6C11.2 7.75733 11.0933 7.896 10.9413 7.936C10.3279 8.09994 9.78561 8.46156 9.39849 8.96486C9.01138 9.46816 8.801 10.085 8.79995 10.72V16.48C8.79995 17.2438 9.10338 17.9764 9.64348 18.5165C10.1836 19.0566 10.9161 19.36 11.68 19.36H14.56C15.3238 19.36 16.0563 19.0566 16.5964 18.5165C17.1365 17.9764 17.44 17.2438 17.44 16.48V10.72C17.4384 10.0834 17.2264 9.4652 16.8369 8.96165C16.4475 8.45811 15.9024 8.0975 15.2866 7.936Z" fill="currentColor"/>
</svg>
