<svg viewBox="0 0 24 24" fill="none" xmlns="http://www.w3.org/2000/svg">
    <path d="M12 24C18.6274 24 24 18.6274 24 12C24 5.37258 18.6274 0 12 0C5.37258 0 0 5.37258 0 12C0 18.6274 5.37258 24 12 24Z" fill="#272B35"/>
    <path d="M11.8862 5.17548C8.07581 5.23235 5.0616 8.36031 5.11847 12.1707C5.17534 15.9812 8.3033 18.9954 12.1137 18.9385C15.9242 18.8816 18.9384 15.7537 18.8815 11.9433C18.8246 8.07595 15.6967 5.06174 11.8862 5.17548ZM9.95259 6.31292C9.55449 6.88164 9.15638 7.5641 8.87202 8.41719H7.10899C7.84833 7.45036 8.81515 6.71102 9.95259 6.31292ZM6.65401 9.21339H8.70141C8.53079 9.95273 8.41705 10.7489 8.41705 11.602H5.97155C6.02842 10.7489 6.25591 9.89586 6.65401 9.21339ZM5.97155 12.3982H8.41705C8.41705 13.2513 8.53079 14.0475 8.70141 14.7869H6.65401C6.25591 14.1044 6.02842 13.2513 5.97155 12.3982ZM7.16586 15.6399H8.92889C9.21325 16.493 9.55449 17.1755 10.0095 17.7442C8.81515 17.2892 7.84833 16.5499 7.16586 15.6399ZM11.6019 17.9717C10.6919 17.6873 10.0663 16.493 9.78198 15.5831H11.6019V17.9717ZM11.6019 14.8437H9.49761C9.327 14.1044 9.21325 13.3082 9.15638 12.4551H11.545V14.8437H11.6019ZM11.6019 11.602H9.21325C9.21325 10.7489 9.327 9.95273 9.55449 9.21339H11.6588V11.602H11.6019ZM11.6019 8.41719H9.78198C10.1232 7.50723 10.6919 6.36979 11.6019 6.02856V8.41719ZM18.0284 11.602H15.5829C15.5829 10.7489 15.4692 9.95273 15.2986 9.21339H17.346C17.7441 9.89586 17.9715 10.7489 18.0284 11.602ZM16.891 8.41719H15.1279C14.8436 7.5641 14.5024 6.88164 14.0474 6.31292C15.1848 6.71102 16.1516 7.45036 16.891 8.41719ZM12.3981 6.02856C13.308 6.31292 13.9336 7.50723 14.218 8.41719H12.3981V6.02856ZM12.3981 9.21339H14.5024C14.673 9.95273 14.7867 10.7489 14.8436 11.602H12.455V9.21339H12.3981ZM12.3981 12.3982H14.7867C14.7867 13.2513 14.673 14.0475 14.4455 14.7869H12.3412V12.3982H12.3981ZM12.3981 17.9717V15.5831H14.218C13.9336 16.5499 13.308 17.6873 12.3981 17.9717ZM14.0474 17.6873C14.4455 17.1186 14.8436 16.4361 15.1279 15.5831H16.891C16.1516 16.5499 15.1848 17.2892 14.0474 17.6873ZM17.346 14.8437H15.2986C15.4692 14.1044 15.5829 13.3082 15.5829 12.4551H18.0284C17.9715 13.2513 17.7441 14.1044 17.346 14.8437Z" fill="#F9FBFC"/>
</svg>
