<svg viewBox="0 0 32 32" fill="none" xmlns="http://www.w3.org/2000/svg">
    <path d="M25.6833 20.2832C25.4505 20.1565 25.1768 20.1275 24.9225 20.2025C24.6683 20.2775 24.4542 20.4504 24.3273 20.6832C24.0648 21.1543 23.7637 21.6029 23.4273 22.0245C23.4179 22.0367 23.4057 22.0465 23.3919 22.0532C23.378 22.0599 23.3627 22.0633 23.3473 22.0632H21.3127C21.2961 22.0634 21.2797 22.0594 21.2651 22.0517C21.2504 22.044 21.2379 22.0328 21.2286 22.019C21.2193 22.0053 21.2136 21.9894 21.212 21.9729C21.2104 21.9564 21.2129 21.9398 21.2193 21.9245C21.2767 21.7872 21.3353 21.6498 21.3887 21.5045C21.4797 21.2552 21.468 20.9799 21.3561 20.7393C21.2442 20.4986 21.0413 20.3122 20.792 20.2212C20.5427 20.1301 20.2674 20.1418 20.0268 20.2537C19.7861 20.3656 19.5997 20.5685 19.5087 20.8178C19.3579 21.225 19.1825 21.6227 18.9833 22.0085C18.9748 22.0247 18.9619 22.0383 18.9462 22.0477C18.9304 22.0571 18.9124 22.062 18.894 22.0618H12.4247C12.4067 22.0619 12.389 22.0571 12.3735 22.0479C12.358 22.0388 12.3453 22.0256 12.3367 22.0098C12.1216 21.6171 11.931 21.2114 11.766 20.7952C11.6675 20.551 11.4766 20.3556 11.2348 20.2513C10.9931 20.147 10.7199 20.1422 10.4747 20.2381C10.2294 20.3339 10.0319 20.5226 9.92493 20.7632C9.81797 21.0038 9.81021 21.2769 9.90334 21.5232C9.95667 21.6605 10.014 21.7912 10.0727 21.9232C10.0796 21.9385 10.0826 21.9553 10.0813 21.9721C10.0801 21.9888 10.0746 22.005 10.0654 22.0191C10.0563 22.0332 10.0437 22.0447 10.0289 22.0526C10.0141 22.0606 9.99748 22.0647 9.98067 22.0645H7.85667C7.84148 22.0645 7.8265 22.061 7.81287 22.0543C7.79924 22.0476 7.78732 22.0378 7.778 22.0258C7.44184 21.6046 7.14083 21.1564 6.878 20.6858C6.81514 20.5705 6.73019 20.4688 6.62799 20.3863C6.52579 20.3038 6.40835 20.2423 6.28237 20.2052C6.1564 20.1681 6.02435 20.1562 5.89377 20.1702C5.76319 20.1841 5.63664 20.2237 5.52134 20.2865C5.40604 20.3494 5.30425 20.4343 5.22178 20.5365C5.13931 20.6387 5.07778 20.7562 5.04069 20.8821C5.00361 21.0081 4.99171 21.1402 5.00566 21.2707C5.01961 21.4013 5.05914 21.5279 5.122 21.6432C6.14828 23.5267 7.66321 25.0989 9.50744 26.1942C11.3517 27.2896 13.457 27.8677 15.602 27.8677C17.747 27.8677 19.8523 27.2896 21.6966 26.1942C23.5408 25.0989 25.0557 23.5267 26.082 21.6432C26.1455 21.5278 26.1855 21.4011 26.1999 21.2703C26.2143 21.1394 26.2027 21.007 26.1657 20.8807C26.1288 20.7543 26.0673 20.6365 25.9848 20.534C25.9022 20.4314 25.7989 20.3462 25.6833 20.2832ZM20.946 24.0632C20.9671 24.0638 20.9875 24.0711 21.0043 24.084C21.021 24.0969 21.0332 24.1148 21.0391 24.1351C21.045 24.1554 21.0444 24.1771 21.0372 24.1969C21.0301 24.2168 21.0168 24.234 20.9993 24.2458C20.582 24.5218 20.142 24.7658 19.686 24.9738C19.6656 24.9831 19.6427 24.9852 19.6209 24.9799C19.5992 24.9746 19.5798 24.9621 19.566 24.9445C19.5524 24.927 19.545 24.9054 19.545 24.8832C19.545 24.861 19.5524 24.8394 19.566 24.8218C19.7393 24.5978 19.9087 24.3605 20.0753 24.1072C20.0845 24.0937 20.0968 24.0826 20.1112 24.0749C20.1256 24.0672 20.1417 24.0632 20.158 24.0632H20.9447H20.946ZM17.3767 24.0632C17.396 24.0634 17.4149 24.0693 17.431 24.08C17.447 24.0908 17.4597 24.106 17.4673 24.1238C17.4749 24.1416 17.4772 24.1612 17.4739 24.1802C17.4706 24.1993 17.4618 24.217 17.4487 24.2312C16.9334 24.7957 16.3425 25.2861 15.6927 25.6885C15.6767 25.6986 15.6582 25.7039 15.6393 25.7039C15.6205 25.7039 15.602 25.6986 15.586 25.6885C14.9716 25.2692 14.407 24.7812 13.9033 24.2338C13.89 24.2195 13.8812 24.2016 13.878 24.1822C13.8748 24.1629 13.8773 24.1431 13.8853 24.1252C13.8932 24.1073 13.9062 24.0922 13.9227 24.0816C13.9392 24.0711 13.9584 24.0656 13.978 24.0658L17.3767 24.0632ZM11.8567 24.9072C11.8703 24.9245 11.8779 24.9458 11.8782 24.9679C11.8785 24.99 11.8714 25.0115 11.8582 25.0292C11.8449 25.0468 11.8262 25.0596 11.805 25.0655C11.7837 25.0714 11.7611 25.0701 11.7407 25.0618C11.2071 24.8348 10.6941 24.5622 10.2073 24.2472C10.1887 24.2352 10.1746 24.2174 10.1671 24.1966C10.1597 24.1758 10.1594 24.153 10.1662 24.132C10.1731 24.111 10.1867 24.0928 10.205 24.0803C10.2233 24.0679 10.2452 24.0618 10.2673 24.0632H11.1873C11.222 24.0632 11.2527 24.0792 11.2713 24.1058C11.462 24.3925 11.6593 24.6592 11.858 24.9058L11.8567 24.9072ZM5.52334 11.5832C5.75621 11.7099 6.02987 11.7389 6.28414 11.6639C6.53842 11.5889 6.7525 11.416 6.87934 11.1832C7.142 10.7125 7.44334 10.2632 7.77934 9.84185C7.78851 9.83002 7.80022 9.82041 7.81361 9.81372C7.82699 9.80703 7.84171 9.80343 7.85667 9.80318H9.98067C9.99748 9.80302 10.0141 9.8071 10.0289 9.81504C10.0437 9.82299 10.0563 9.83453 10.0654 9.84862C10.0746 9.86271 10.0801 9.87888 10.0813 9.89564C10.0826 9.9124 10.0796 9.92921 10.0727 9.94451C10.0137 10.0748 9.95771 10.2064 9.90467 10.3392C9.85218 10.4623 9.82493 10.5946 9.82453 10.7285C9.82413 10.8623 9.8506 10.9948 9.90236 11.1182C9.95411 11.2416 10.0301 11.3534 10.1258 11.4469C10.2216 11.5404 10.3351 11.6137 10.4597 11.6625C10.5843 11.7113 10.7174 11.7346 10.8512 11.7311C10.985 11.7275 11.1166 11.6971 11.2385 11.6417C11.3603 11.5863 11.4697 11.5071 11.5603 11.4086C11.651 11.3101 11.7209 11.1945 11.766 11.0685C11.9318 10.6526 12.1233 10.2474 12.3393 9.85518C12.348 9.83984 12.3606 9.82708 12.3759 9.81818C12.3911 9.80928 12.4084 9.80457 12.426 9.80451H18.782C18.8193 9.80451 18.8527 9.82318 18.87 9.85518C19.086 10.2485 19.2767 10.6525 19.442 11.0685C19.4871 11.1945 19.557 11.3101 19.6477 11.4086C19.7383 11.5071 19.8477 11.5863 19.9695 11.6417C20.0914 11.6971 20.2231 11.7275 20.3568 11.7311C20.4906 11.7346 20.6237 11.7113 20.7483 11.6625C20.8729 11.6137 20.9864 11.5404 21.0822 11.4469C21.1779 11.3534 21.2539 11.2416 21.3057 11.1182C21.3574 10.9948 21.3839 10.8623 21.3835 10.7285C21.3831 10.5946 21.3558 10.4623 21.3033 10.3392C21.2505 10.2063 21.1945 10.0747 21.1353 9.94451C21.1284 9.92921 21.1254 9.9124 21.1267 9.89564C21.1279 9.87888 21.1334 9.86271 21.1426 9.84862C21.1518 9.83453 21.1643 9.82299 21.1791 9.81504C21.194 9.8071 21.2105 9.80302 21.2273 9.80318H23.3487C23.3807 9.80318 23.4087 9.81651 23.4287 9.84185C23.7647 10.2632 24.066 10.7125 24.3287 11.1832C24.4558 11.416 24.6702 11.5889 24.9248 11.6636C25.1793 11.7384 25.4531 11.709 25.686 11.5818C25.9189 11.4547 26.0917 11.2403 26.1665 10.9857C26.2412 10.7312 26.2118 10.4574 26.0847 10.2245C25.0584 8.34096 23.5435 6.76882 21.6992 5.67345C19.855 4.57809 17.7497 4 15.6047 4C13.4597 4 11.3543 4.57809 9.5101 5.67345C7.66588 6.76882 6.15094 8.34096 5.12467 10.2245C5.06121 10.3398 5.02115 10.4666 5.00678 10.5974C4.99241 10.7283 5.00401 10.8607 5.04093 10.987C5.07784 11.1134 5.13934 11.2312 5.2219 11.3337C5.30445 11.4363 5.40644 11.5215 5.522 11.5845L5.52334 11.5832ZM10.262 7.80451C10.2405 7.80431 10.2196 7.79719 10.2025 7.78419C10.1854 7.77119 10.1729 7.75301 10.1669 7.73236C10.1609 7.7117 10.1617 7.68966 10.1692 7.66951C10.1768 7.64936 10.1906 7.63218 10.2087 7.62051C10.694 7.30449 11.2062 7.03188 11.7393 6.80585C11.7597 6.7975 11.7822 6.79609 11.8034 6.80183C11.8246 6.80757 11.8433 6.82014 11.8567 6.83759C11.8701 6.85505 11.8773 6.87641 11.8773 6.89839C11.8773 6.92037 11.87 6.94173 11.8567 6.95918C11.6567 7.20851 11.4607 7.47518 11.266 7.75918C11.257 7.77252 11.2449 7.78348 11.2307 7.79114C11.2166 7.7988 11.2008 7.80293 11.1847 7.80318L10.262 7.80451ZM13.9873 7.80451C13.9679 7.80451 13.9488 7.79884 13.9326 7.78818C13.9163 7.77753 13.9035 7.76235 13.8957 7.74452C13.8879 7.72668 13.8855 7.70697 13.8887 7.68778C13.892 7.6686 13.9008 7.65078 13.914 7.63651C14.4055 7.10177 14.9541 6.62246 15.55 6.20718C15.5667 6.19571 15.5864 6.18957 15.6067 6.18957C15.6269 6.18957 15.6467 6.19571 15.6633 6.20718C16.262 6.62051 16.8113 7.09918 17.3033 7.63385C17.3166 7.6482 17.3255 7.66614 17.3287 7.68545C17.3319 7.70475 17.3294 7.72458 17.3214 7.74247C17.3135 7.76036 17.3004 7.77552 17.2839 7.78607C17.2675 7.79663 17.2482 7.80211 17.2287 7.80185L13.9873 7.80451ZM19.35 6.96051C19.3364 6.94297 19.329 6.92139 19.329 6.89918C19.329 6.87697 19.3364 6.85539 19.35 6.83785C19.3635 6.81977 19.3827 6.80677 19.4044 6.80096C19.4262 6.79515 19.4493 6.79687 19.47 6.80585C20.002 7.03251 20.514 7.30585 20.9993 7.62051C21.0175 7.63224 21.0314 7.64955 21.0389 7.66982C21.0464 7.6901 21.0471 7.71227 21.0409 7.73299C21.0348 7.75372 21.0221 7.77189 21.0047 7.78478C20.9874 7.79768 20.9663 7.8046 20.9447 7.80451H20.0247C20.0081 7.8047 19.9918 7.80078 19.9771 7.7931C19.9625 7.78542 19.9499 7.77422 19.9407 7.76051C19.754 7.48647 19.5569 7.21962 19.35 6.96051ZM13.13 13.1565C13.015 13.1565 12.9012 13.1792 12.795 13.2232C12.6888 13.2673 12.5923 13.3318 12.511 13.4132C12.4298 13.4945 12.3654 13.5911 12.3215 13.6974C12.2777 13.8037 12.2552 13.9175 12.2553 14.0325V15.3112C12.2553 16.1685 12.442 17.0165 12.8033 17.7938L13.4273 19.1512C13.4978 19.3038 13.6107 19.4328 13.7526 19.5229C13.8945 19.613 14.0593 19.6603 14.2273 19.6592H14.2767C14.4521 19.6492 14.6205 19.5867 14.7598 19.4796C14.8992 19.3726 15.0031 19.2261 15.058 19.0592L15.2247 18.5512C15.2311 18.5309 15.2438 18.5132 15.2609 18.5007C15.2781 18.4881 15.2988 18.4814 15.32 18.4814C15.3412 18.4814 15.3619 18.4881 15.3791 18.5007C15.3962 18.5132 15.4089 18.5309 15.4153 18.5512L15.582 19.0605C15.6366 19.2278 15.7403 19.3748 15.8798 19.4822C16.0192 19.5896 16.1878 19.6525 16.3635 19.6626C16.5392 19.6727 16.7138 19.6295 16.8646 19.5387C17.0154 19.448 17.1353 19.3138 17.2087 19.1538L17.8327 17.7938C18.1943 17.0166 18.3817 16.1698 18.382 15.3125V14.0338C18.382 13.8019 18.2899 13.5794 18.1258 13.4154C17.9618 13.2513 17.7393 13.1592 17.5073 13.1592C17.2754 13.1592 17.0529 13.2513 16.8889 13.4154C16.7248 13.5794 16.6327 13.8019 16.6327 14.0338V15.3138C16.6327 15.5138 16.618 15.7138 16.5887 15.9138C16.5852 15.936 16.5743 15.9563 16.5579 15.9715C16.5414 15.9868 16.5203 15.996 16.498 15.9978C16.4762 15.999 16.4546 15.993 16.4366 15.9807C16.4185 15.9684 16.405 15.9505 16.398 15.9298L16.1553 15.1898C16.0977 15.015 15.9864 14.8629 15.8372 14.755C15.6881 14.6472 15.5087 14.5891 15.3247 14.5891C15.1406 14.5891 14.9612 14.6472 14.8121 14.755C14.663 14.8629 14.5516 15.015 14.494 15.1898L14.25 15.9298C14.2433 15.9508 14.2298 15.9689 14.2118 15.9815C14.1937 15.994 14.172 16.0002 14.15 15.9992C14.1277 15.997 14.1068 15.9874 14.0906 15.972C14.0744 15.9565 14.0639 15.936 14.0607 15.9138C14.0314 15.7152 14.0167 15.5147 14.0167 15.3138V14.0338C14.017 13.9177 13.9943 13.8027 13.9497 13.6955C13.9052 13.5883 13.8397 13.491 13.7572 13.4093C13.6747 13.3277 13.5767 13.2633 13.469 13.2199C13.3613 13.1765 13.2461 13.1549 13.13 13.1565ZM19.9767 13.1565C19.8617 13.1565 19.7478 13.1792 19.6416 13.2232C19.5354 13.2673 19.439 13.3318 19.3577 13.4132C19.2765 13.4945 19.2121 13.5911 19.1682 13.6974C19.1243 13.8037 19.1018 13.9175 19.102 14.0325V15.3112C19.1047 16.1858 19.3153 17.0485 19.7193 17.8258L20.41 19.1832C20.4881 19.3341 20.6084 19.459 20.7562 19.5427C20.9041 19.6264 21.073 19.6654 21.2426 19.6548C21.4122 19.6442 21.575 19.5845 21.7112 19.483C21.8475 19.3815 21.9513 19.2426 22.01 19.0832L22.31 18.2698C22.317 18.2505 22.3298 18.2339 22.3466 18.2221C22.3634 18.2103 22.3835 18.204 22.404 18.204C22.4245 18.204 22.4446 18.2103 22.4614 18.2221C22.4782 18.2339 22.491 18.2505 22.498 18.2698L22.798 19.0832C22.918 19.4098 23.2193 19.6352 23.5673 19.6565H23.6207C23.782 19.6564 23.9402 19.6117 24.0778 19.5275C24.2154 19.4433 24.3271 19.3228 24.4007 19.1792L25.0927 17.8218C25.4953 17.0445 25.706 16.1818 25.7087 15.3072V14.0338C25.7087 13.8017 25.6164 13.579 25.4523 13.4149C25.2881 13.2507 25.0655 13.1585 24.8333 13.1585C24.6012 13.1585 24.3785 13.2507 24.2144 13.4149C24.0502 13.579 23.958 13.8017 23.958 14.0338V15.3138C23.958 15.6365 23.9153 15.9605 23.8287 16.2738C23.8231 16.2942 23.8111 16.3123 23.7946 16.3255C23.7781 16.3386 23.7578 16.3462 23.7367 16.3472C23.715 16.3484 23.6936 16.3426 23.6755 16.3305C23.6575 16.3185 23.6439 16.301 23.6367 16.2805L23.2287 15.1605C23.1667 14.9924 23.0547 14.8473 22.9077 14.7448C22.7607 14.6423 22.5859 14.5873 22.4067 14.5873C22.2275 14.5873 22.0526 14.6423 21.9056 14.7448C21.7586 14.8473 21.6466 14.9924 21.5847 15.1605L21.1767 16.2805C21.1695 16.3005 21.156 16.3177 21.1384 16.3296C21.1207 16.3415 21.0997 16.3474 21.0784 16.3465C21.0571 16.3456 21.0367 16.338 21.0201 16.3247C21.0035 16.3113 20.9915 16.2931 20.986 16.2725C20.9002 15.9597 20.8567 15.6369 20.8567 15.3125V14.0338C20.857 13.9183 20.8345 13.8038 20.7904 13.6971C20.7462 13.5903 20.6814 13.4933 20.5996 13.4117C20.5177 13.3302 20.4206 13.2656 20.3136 13.2218C20.2067 13.178 20.0922 13.1558 19.9767 13.1565ZM6.19534 13.1565C6.08036 13.1565 5.96651 13.1792 5.86031 13.2232C5.7541 13.2673 5.65762 13.3318 5.57638 13.4132C5.49514 13.4945 5.43074 13.5911 5.38687 13.6974C5.34299 13.8037 5.32049 13.9175 5.32067 14.0325V15.3112C5.32067 16.1685 5.50734 17.0152 5.86867 17.7938L6.494 19.1512C6.56756 19.3107 6.68746 19.4444 6.83808 19.5349C6.9887 19.6253 7.16307 19.6683 7.33847 19.6582C7.51386 19.6481 7.68216 19.5855 7.82144 19.4784C7.96072 19.3713 8.06453 19.2248 8.11934 19.0578L8.28734 18.5485C8.29375 18.5283 8.30645 18.5106 8.32359 18.498C8.34073 18.4855 8.36142 18.4787 8.38267 18.4787C8.40392 18.4787 8.42461 18.4855 8.44175 18.498C8.45889 18.5106 8.47159 18.5283 8.478 18.5485L8.64467 19.0592C8.69957 19.2261 8.80347 19.3726 8.94283 19.4796C9.0822 19.5867 9.25057 19.6492 9.426 19.6592H9.47667C9.818 19.6592 10.1273 19.4592 10.27 19.1498L10.894 17.7938C11.2567 17.0152 11.4433 16.1672 11.4447 15.3098V14.0338C11.4447 13.8017 11.3524 13.579 11.1883 13.4149C11.0241 13.2507 10.8015 13.1585 10.5693 13.1585C10.3372 13.1585 10.1145 13.2507 9.95038 13.4149C9.78623 13.579 9.694 13.8017 9.694 14.0338V15.3138C9.694 15.5138 9.68067 15.7138 9.65 15.9138C9.64655 15.9358 9.6359 15.9559 9.61972 15.9711C9.60355 15.9864 9.58277 15.9957 9.56067 15.9978C9.5387 15.9989 9.51699 15.9927 9.49891 15.9801C9.48083 15.9676 9.46739 15.9495 9.46067 15.9285L9.218 15.1885C9.16067 15.0132 9.04941 14.8605 8.9001 14.7523C8.7508 14.644 8.57109 14.5857 8.38667 14.5857C8.20225 14.5857 8.02254 14.644 7.87324 14.7523C7.72393 14.8605 7.61267 15.0132 7.55534 15.1885L7.31267 15.9285C7.30586 15.9503 7.2918 15.9691 7.27282 15.9818C7.25384 15.9945 7.23109 16.0003 7.20835 15.9983C7.18561 15.9963 7.16424 15.9865 7.14781 15.9707C7.13137 15.9548 7.12085 15.9338 7.118 15.9112C7.08866 15.7125 7.07396 15.512 7.074 15.3112V14.0338C7.07436 13.9184 7.05186 13.8041 7.00781 13.6974C6.96376 13.5907 6.89903 13.4938 6.81735 13.4122C6.73567 13.3307 6.63866 13.2661 6.5319 13.2222C6.42515 13.1783 6.31076 13.156 6.19534 13.1565Z" fill="currentColor"/>
</svg>
