<svg viewBox="0 0 22 24" fill="none" xmlns="http://www.w3.org/2000/svg">
<path d="M20.6833 16.2832C20.4505 16.1565 20.1768 16.1275 19.9225 16.2025C19.6683 16.2775 19.4542 16.4504 19.3273 16.6832C19.0648 17.1543 18.7637 17.6029 18.4273 18.0245C18.4179 18.0367 18.4057 18.0465 18.3919 18.0532C18.378 18.0599 18.3627 18.0633 18.3473 18.0632H16.3127C16.2961 18.0634 16.2797 18.0594 16.2651 18.0517C16.2504 18.044 16.2379 18.0328 16.2286 18.019C16.2193 18.0053 16.2136 17.9894 16.212 17.9729C16.2104 17.9564 16.2129 17.9398 16.2193 17.9245C16.2767 17.7872 16.3353 17.6498 16.3887 17.5045C16.4797 17.2552 16.468 16.9799 16.3561 16.7393C16.2442 16.4986 16.0413 16.3122 15.792 16.2212C15.5427 16.1301 15.2674 16.1418 15.0268 16.2537C14.7861 16.3656 14.5997 16.5685 14.5087 16.8178C14.3579 17.225 14.1825 17.6227 13.9833 18.0085C13.9748 18.0247 13.9619 18.0383 13.9462 18.0477C13.9304 18.0571 13.9124 18.062 13.894 18.0618H7.42467C7.40668 18.0619 7.38901 18.0571 7.37352 18.0479C7.35804 18.0388 7.3453 18.0256 7.33667 18.0098C7.12162 17.6171 6.93103 17.2114 6.766 16.7952C6.66745 16.551 6.47658 16.3556 6.23481 16.2513C5.99305 16.147 5.71991 16.1422 5.47467 16.2381C5.22944 16.3339 5.0319 16.5226 4.92493 16.7632C4.81797 17.0038 4.81021 17.2769 4.90334 17.5232C4.95667 17.6605 5.014 17.7912 5.07267 17.9232C5.07962 17.9385 5.0826 17.9553 5.08133 17.9721C5.08006 17.9888 5.07459 18.005 5.06542 18.0191C5.05625 18.0332 5.04368 18.0447 5.02887 18.0526C5.01405 18.0606 4.99748 18.0647 4.98067 18.0645H2.85667C2.84148 18.0645 2.8265 18.061 2.81287 18.0543C2.79924 18.0476 2.78732 18.0378 2.778 18.0258C2.44184 17.6046 2.14083 17.1564 1.878 16.6858C1.81514 16.5705 1.73019 16.4688 1.62799 16.3863C1.52579 16.3038 1.40835 16.2423 1.28237 16.2052C1.1564 16.1681 1.02435 16.1562 0.893769 16.1702C0.76319 16.1841 0.636637 16.2237 0.521336 16.2865C0.406036 16.3494 0.304245 16.4343 0.221777 16.5365C0.139308 16.6387 0.0777763 16.7562 0.0406948 16.8821C0.00361323 17.0081 -0.00829197 17.1402 0.00565891 17.2707C0.0196098 17.4013 0.0591436 17.5279 0.122003 17.6432C1.14828 19.5267 2.66321 21.0989 4.50744 22.1942C6.35166 23.2896 8.45701 23.8677 10.602 23.8677C12.747 23.8677 14.8523 23.2896 16.6966 22.1942C18.5408 21.0989 20.0557 19.5267 21.082 17.6432C21.1455 17.5278 21.1855 17.4011 21.1999 17.2703C21.2143 17.1394 21.2027 17.007 21.1657 16.8807C21.1288 16.7543 21.0673 16.6365 20.9848 16.534C20.9022 16.4314 20.7989 16.3462 20.6833 16.2832ZM15.946 20.0632C15.9671 20.0638 15.9875 20.0711 16.0043 20.084C16.021 20.0969 16.0332 20.1148 16.0391 20.1351C16.045 20.1554 16.0444 20.1771 16.0372 20.1969C16.0301 20.2168 16.0168 20.234 15.9993 20.2458C15.582 20.5218 15.142 20.7658 14.686 20.9738C14.6656 20.9831 14.6427 20.9852 14.6209 20.9799C14.5992 20.9746 14.5798 20.9621 14.566 20.9445C14.5524 20.927 14.545 20.9054 14.545 20.8832C14.545 20.861 14.5524 20.8394 14.566 20.8218C14.7393 20.5978 14.9087 20.3605 15.0753 20.1072C15.0845 20.0937 15.0968 20.0826 15.1112 20.0749C15.1256 20.0672 15.1417 20.0632 15.158 20.0632H15.9447H15.946ZM12.3767 20.0632C12.396 20.0634 12.4149 20.0693 12.431 20.08C12.447 20.0908 12.4597 20.106 12.4673 20.1238C12.4749 20.1416 12.4772 20.1612 12.4739 20.1802C12.4706 20.1993 12.4618 20.217 12.4487 20.2312C11.9334 20.7957 11.3425 21.2861 10.6927 21.6885C10.6767 21.6986 10.6582 21.7039 10.6393 21.7039C10.6205 21.7039 10.602 21.6986 10.586 21.6885C9.97159 21.2692 9.40704 20.7812 8.90334 20.2338C8.89002 20.2195 8.88122 20.2016 8.87801 20.1822C8.87479 20.1629 8.87732 20.1431 8.88527 20.1252C8.89322 20.1073 8.90624 20.0922 8.92273 20.0816C8.93921 20.0711 8.95843 20.0656 8.978 20.0658L12.3767 20.0632ZM6.85667 20.9072C6.87034 20.9245 6.8779 20.9458 6.87818 20.9679C6.87845 20.99 6.87142 21.0115 6.85819 21.0292C6.84495 21.0468 6.82625 21.0596 6.80499 21.0655C6.78374 21.0714 6.76112 21.0701 6.74067 21.0618C6.20714 20.8348 5.69413 20.5622 5.20734 20.2472C5.18871 20.2352 5.17457 20.2174 5.16713 20.1966C5.15969 20.1758 5.15938 20.153 5.16624 20.132C5.1731 20.111 5.18675 20.0928 5.20504 20.0803C5.22334 20.0679 5.24525 20.0618 5.26734 20.0632H6.18734C6.222 20.0632 6.25267 20.0792 6.27134 20.1058C6.462 20.3925 6.65934 20.6592 6.858 20.9058L6.85667 20.9072ZM0.523336 7.58318C0.756214 7.70987 1.02987 7.7389 1.28414 7.66389C1.53842 7.58888 1.7525 7.41598 1.87934 7.18318C2.142 6.71251 2.44334 6.26318 2.77934 5.84185C2.78851 5.83002 2.80022 5.82041 2.81361 5.81372C2.82699 5.80703 2.84171 5.80343 2.85667 5.80318H4.98067C4.99748 5.80302 5.01405 5.8071 5.02887 5.81504C5.04368 5.82299 5.05625 5.83453 5.06542 5.84862C5.07459 5.86271 5.08006 5.87888 5.08133 5.89564C5.0826 5.9124 5.07962 5.92921 5.07267 5.94451C5.01373 6.0748 4.95771 6.20638 4.90467 6.33918C4.85218 6.46227 4.82493 6.59464 4.82453 6.72846C4.82413 6.86227 4.8506 6.99481 4.90236 7.11821C4.95411 7.24161 5.03011 7.35337 5.12585 7.44686C5.22158 7.54036 5.33511 7.61369 5.4597 7.66251C5.58429 7.71133 5.71742 7.73464 5.85118 7.73107C5.98495 7.72751 6.11664 7.69713 6.23846 7.64174C6.36027 7.58635 6.46973 7.50707 6.56035 7.40861C6.65096 7.31015 6.7209 7.1945 6.766 7.06851C6.93184 6.6526 7.12332 6.24738 7.33934 5.85518C7.34803 5.83984 7.36063 5.82708 7.37585 5.81818C7.39107 5.80928 7.40837 5.80457 7.426 5.80451H13.782C13.8193 5.80451 13.8527 5.82318 13.87 5.85518C14.086 6.24851 14.2767 6.65251 14.442 7.06851C14.4871 7.1945 14.557 7.31015 14.6477 7.40861C14.7383 7.50707 14.8477 7.58635 14.9695 7.64174C15.0914 7.69713 15.2231 7.72751 15.3568 7.73107C15.4906 7.73464 15.6237 7.71133 15.7483 7.66251C15.8729 7.61369 15.9864 7.54036 16.0822 7.44686C16.1779 7.35337 16.2539 7.24161 16.3057 7.11821C16.3574 6.99481 16.3839 6.86227 16.3835 6.72846C16.3831 6.59464 16.3558 6.46227 16.3033 6.33918C16.2505 6.20631 16.1945 6.07471 16.1353 5.94451C16.1284 5.92921 16.1254 5.9124 16.1267 5.89564C16.1279 5.87888 16.1334 5.86271 16.1426 5.84862C16.1518 5.83453 16.1643 5.82299 16.1791 5.81504C16.194 5.8071 16.2105 5.80302 16.2273 5.80318H18.3487C18.3807 5.80318 18.4087 5.81651 18.4287 5.84185C18.7647 6.26318 19.066 6.71251 19.3287 7.18318C19.4558 7.41604 19.6702 7.58886 19.9248 7.66362C20.1793 7.73839 20.4531 7.70897 20.686 7.58185C20.9189 7.45472 21.0917 7.24029 21.1665 6.98574C21.2412 6.7312 21.2118 6.45737 21.0847 6.22451C20.0584 4.34096 18.5435 2.76882 16.6992 1.67345C14.855 0.578088 12.7497 0 10.6047 0C8.45968 0 6.35433 0.578088 4.5101 1.67345C2.66588 2.76882 1.15094 4.34096 0.12467 6.22451C0.0612112 6.33984 0.0211474 6.46657 0.00677678 6.59742C-0.00759389 6.72827 0.00401126 6.86067 0.0409265 6.98702C0.0778418 7.11337 0.139341 7.2312 0.221895 7.33373C0.30445 7.43626 0.406436 7.52148 0.522003 7.58451L0.523336 7.58318ZM5.262 3.80451C5.2405 3.80431 5.21962 3.79719 5.20249 3.78419C5.18535 3.77119 5.17286 3.75301 5.16688 3.73236C5.16089 3.7117 5.16172 3.68966 5.16925 3.66951C5.17678 3.64936 5.1906 3.63218 5.20867 3.62051C5.69395 3.30449 6.20616 3.03188 6.73934 2.80585C6.75967 2.7975 6.78218 2.79609 6.8034 2.80183C6.82461 2.80757 6.84335 2.82014 6.8567 2.83759C6.87006 2.85505 6.87729 2.87641 6.87729 2.89839C6.87728 2.92037 6.87004 2.94173 6.85667 2.95918C6.65667 3.20851 6.46067 3.47518 6.266 3.75918C6.25699 3.77252 6.24489 3.78348 6.23073 3.79114C6.21657 3.7988 6.20077 3.80293 6.18467 3.80318L5.262 3.80451ZM8.98734 3.80451C8.96788 3.80451 8.94884 3.79884 8.93256 3.78818C8.91628 3.77753 8.90346 3.76235 8.89568 3.74452C8.88789 3.72668 8.88548 3.70697 8.88873 3.68778C8.89199 3.6686 8.90077 3.65078 8.914 3.63651C9.40551 3.10177 9.95412 2.62246 10.55 2.20718C10.5667 2.19571 10.5864 2.18957 10.6067 2.18957C10.6269 2.18957 10.6467 2.19571 10.6633 2.20718C11.262 2.62051 11.8113 3.09918 12.3033 3.63385C12.3166 3.6482 12.3255 3.66614 12.3287 3.68545C12.3319 3.70475 12.3294 3.72458 12.3214 3.74247C12.3135 3.76036 12.3004 3.77552 12.2839 3.78607C12.2675 3.79663 12.2482 3.80211 12.2287 3.80185L8.98734 3.80451ZM14.35 2.96051C14.3364 2.94297 14.329 2.92139 14.329 2.89918C14.329 2.87697 14.3364 2.85539 14.35 2.83785C14.3635 2.81977 14.3827 2.80677 14.4044 2.80096C14.4262 2.79515 14.4493 2.79687 14.47 2.80585C15.002 3.03251 15.514 3.30585 15.9993 3.62051C16.0175 3.63224 16.0314 3.64955 16.0389 3.66982C16.0464 3.6901 16.0471 3.71227 16.0409 3.73299C16.0348 3.75372 16.0221 3.77189 16.0047 3.78478C15.9874 3.79768 15.9663 3.8046 15.9447 3.80451H15.0247C15.0081 3.8047 14.9918 3.80078 14.9771 3.7931C14.9625 3.78542 14.9499 3.77422 14.9407 3.76051C14.754 3.48647 14.5569 3.21962 14.35 2.96051ZM8.13 9.15651C8.01503 9.15651 7.90118 9.17918 7.79497 9.22322C7.68877 9.26726 7.59229 9.33181 7.51105 9.41317C7.42981 9.49453 7.36541 9.59111 7.32153 9.69738C7.27766 9.80365 7.25516 9.91754 7.25534 10.0325V11.3112C7.25534 12.1685 7.442 13.0165 7.80334 13.7938L8.42734 15.1512C8.49779 15.3038 8.6107 15.4328 8.75258 15.5229C8.89445 15.613 9.05928 15.6603 9.22734 15.6592H9.27667C9.4521 15.6492 9.62047 15.5867 9.75984 15.4796C9.89921 15.3726 10.0031 15.2261 10.058 15.0592L10.2247 14.5512C10.2311 14.5309 10.2438 14.5132 10.2609 14.5007C10.2781 14.4881 10.2988 14.4814 10.32 14.4814C10.3412 14.4814 10.3619 14.4881 10.3791 14.5007C10.3962 14.5132 10.4089 14.5309 10.4153 14.5512L10.582 15.0605C10.6366 15.2278 10.7403 15.3748 10.8798 15.4822C11.0192 15.5896 11.1878 15.6525 11.3635 15.6626C11.5392 15.6727 11.7138 15.6295 11.8646 15.5387C12.0154 15.448 12.1353 15.3138 12.2087 15.1538L12.8327 13.7938C13.1943 13.0166 13.3817 12.1698 13.382 11.3125V10.0338C13.382 9.80187 13.2899 9.57939 13.1258 9.41536C12.9618 9.25133 12.7393 9.15918 12.5073 9.15918C12.2754 9.15918 12.0529 9.25133 11.8889 9.41536C11.7248 9.57939 11.6327 9.80187 11.6327 10.0338V11.3138C11.6327 11.5138 11.618 11.7138 11.5887 11.9138C11.5852 11.936 11.5743 11.9563 11.5579 11.9715C11.5414 11.9868 11.5203 11.996 11.498 11.9978C11.4762 11.999 11.4546 11.993 11.4366 11.9807C11.4185 11.9684 11.405 11.9505 11.398 11.9298L11.1553 11.1898C11.0977 11.015 10.9864 10.8629 10.8372 10.755C10.6881 10.6472 10.5087 10.5891 10.3247 10.5891C10.1406 10.5891 9.96125 10.6472 9.8121 10.755C9.66296 10.8629 9.55165 11.015 9.494 11.1898L9.25 11.9298C9.24328 11.9508 9.22984 11.9689 9.21176 11.9815C9.19368 11.994 9.17198 12.0002 9.15 11.9992C9.12771 11.997 9.10678 11.9874 9.09058 11.972C9.07438 11.9565 9.06385 11.936 9.06067 11.9138C9.03139 11.7152 9.01669 11.5147 9.01667 11.3138V10.0338C9.01703 9.91774 8.99428 9.80273 8.94973 9.69551C8.90519 9.58829 8.83974 9.49101 8.75721 9.40935C8.67468 9.32769 8.57671 9.26327 8.46903 9.21986C8.36135 9.17645 8.2461 9.15492 8.13 9.15651ZM14.9767 9.15651C14.8617 9.15651 14.7478 9.17918 14.6416 9.22322C14.5354 9.26726 14.439 9.33181 14.3577 9.41317C14.2765 9.49453 14.2121 9.59111 14.1682 9.69738C14.1243 9.80365 14.1018 9.91754 14.102 10.0325V11.3112C14.1047 12.1858 14.3153 13.0485 14.7193 13.8258L15.41 15.1832C15.4881 15.3341 15.6084 15.459 15.7562 15.5427C15.9041 15.6264 16.073 15.6654 16.2426 15.6548C16.4122 15.6442 16.575 15.5845 16.7112 15.483C16.8475 15.3815 16.9513 15.2426 17.01 15.0832L17.31 14.2698C17.317 14.2505 17.3298 14.2339 17.3466 14.2221C17.3634 14.2103 17.3835 14.204 17.404 14.204C17.4245 14.204 17.4446 14.2103 17.4614 14.2221C17.4782 14.2339 17.491 14.2505 17.498 14.2698L17.798 15.0832C17.918 15.4098 18.2193 15.6352 18.5673 15.6565H18.6207C18.782 15.6564 18.9402 15.6117 19.0778 15.5275C19.2154 15.4433 19.3271 15.3228 19.4007 15.1792L20.0927 13.8218C20.4953 13.0445 20.706 12.1818 20.7087 11.3072V10.0338C20.7087 9.80169 20.6164 9.57905 20.4523 9.41489C20.2881 9.25073 20.0655 9.15851 19.8333 9.15851C19.6012 9.15851 19.3785 9.25073 19.2144 9.41489C19.0502 9.57905 18.958 9.80169 18.958 10.0338V11.3138C18.958 11.6365 18.9153 11.9605 18.8287 12.2738C18.8231 12.2942 18.8111 12.3123 18.7946 12.3255C18.7781 12.3386 18.7578 12.3462 18.7367 12.3472C18.715 12.3484 18.6936 12.3426 18.6755 12.3305C18.6575 12.3185 18.6439 12.301 18.6367 12.2805L18.2287 11.1605C18.1667 10.9924 18.0547 10.8473 17.9077 10.7448C17.7607 10.6423 17.5859 10.5873 17.4067 10.5873C17.2275 10.5873 17.0526 10.6423 16.9056 10.7448C16.7586 10.8473 16.6466 10.9924 16.5847 11.1605L16.1767 12.2805C16.1695 12.3005 16.156 12.3177 16.1384 12.3296C16.1207 12.3415 16.0997 12.3474 16.0784 12.3465C16.0571 12.3456 16.0367 12.338 16.0201 12.3247C16.0035 12.3113 15.9915 12.2931 15.986 12.2725C15.9002 11.9597 15.8567 11.6369 15.8567 11.3125V10.0338C15.857 9.91831 15.8345 9.80385 15.7904 9.69707C15.7462 9.59029 15.6814 9.49331 15.5996 9.41174C15.5177 9.33017 15.4206 9.26561 15.3136 9.22181C15.2067 9.178 15.0922 9.15581 14.9767 9.15651ZM1.19534 9.15651C1.08036 9.15651 0.966514 9.17918 0.860308 9.22322C0.754101 9.26726 0.657619 9.33181 0.576382 9.41317C0.495144 9.49453 0.430744 9.59111 0.386867 9.69738C0.342989 9.80365 0.320494 9.91754 0.32067 10.0325V11.3112C0.32067 12.1685 0.507336 13.0152 0.86867 13.7938L1.494 15.1512C1.56756 15.3107 1.68746 15.4444 1.83808 15.5349C1.9887 15.6253 2.16307 15.6683 2.33847 15.6582C2.51386 15.6481 2.68216 15.5855 2.82144 15.4784C2.96072 15.3713 3.06453 15.2248 3.11934 15.0578L3.28734 14.5485C3.29375 14.5283 3.30645 14.5106 3.32359 14.498C3.34073 14.4855 3.36142 14.4787 3.38267 14.4787C3.40392 14.4787 3.42461 14.4855 3.44175 14.498C3.45889 14.5106 3.47159 14.5283 3.478 14.5485L3.64467 15.0592C3.69957 15.2261 3.80347 15.3726 3.94283 15.4796C4.0822 15.5867 4.25057 15.6492 4.426 15.6592H4.47667C4.818 15.6592 5.12734 15.4592 5.27 15.1498L5.894 13.7938C6.25667 13.0152 6.44334 12.1672 6.44467 11.3098V10.0338C6.44467 9.80169 6.35245 9.57905 6.18829 9.41489C6.02413 9.25073 5.80149 9.15851 5.56934 9.15851C5.33718 9.15851 5.11454 9.25073 4.95038 9.41489C4.78623 9.57905 4.694 9.80169 4.694 10.0338V11.3138C4.694 11.5138 4.68067 11.7138 4.65 11.9138C4.64655 11.9358 4.6359 11.9559 4.61972 11.9711C4.60355 11.9864 4.58277 11.9957 4.56067 11.9978C4.5387 11.9989 4.51699 11.9927 4.49891 11.9801C4.48083 11.9676 4.46739 11.9495 4.46067 11.9285L4.218 11.1885C4.16067 11.0132 4.04941 10.8605 3.9001 10.7523C3.7508 10.644 3.57109 10.5857 3.38667 10.5857C3.20225 10.5857 3.02254 10.644 2.87324 10.7523C2.72393 10.8605 2.61267 11.0132 2.55534 11.1885L2.31267 11.9285C2.30586 11.9503 2.2918 11.9691 2.27282 11.9818C2.25384 11.9945 2.23109 12.0003 2.20835 11.9983C2.18561 11.9963 2.16424 11.9865 2.14781 11.9707C2.13137 11.9548 2.12085 11.9338 2.118 11.9112C2.08866 11.7125 2.07396 11.512 2.074 11.3112V10.0338C2.07436 9.91842 2.05186 9.80407 2.00781 9.69738C1.96376 9.59069 1.89903 9.49377 1.81735 9.41222C1.73567 9.33066 1.63866 9.26608 1.5319 9.22219C1.42515 9.17831 1.31076 9.15598 1.19534 9.15651Z" fill="currentColor"/>
</svg>
