<svg viewBox="0 0 24 24" fill="none" xmlns="http://www.w3.org/2000/svg">
    <g clip-path="url(#clip0_10184_143)">
        <path d="M10.7199 0.0881189C6.50356 0.528119 2.7362 3.30396 1.02356 7.23212C-0.0801198 9.76812 -0.2638 12.6881 0.51988 15.3763C1.48788 18.7281 3.99188 21.56 7.23188 22.9763C9.76788 24.08 12.6879 24.2636 15.3762 23.48C19.3999 22.32 22.568 19.0163 23.608 14.912C25.2317 8.48012 21.2479 1.90364 14.7999 0.368119C13.3836 0.0321189 12.1362 -0.0560411 10.7199 0.0881189ZM10.8799 7.52012C11.9036 8.88012 12.7679 10.0001 12.7999 10.0001C12.8319 10.0001 13.8962 8.88012 15.1519 7.52012L17.4479 5.04012H18.7519L18.4719 5.33644C18.3119 5.5038 17.2719 6.63196 16.1599 7.84012C15.0479 9.04812 13.9599 10.2238 13.7436 10.4401L13.3599 10.8481L16.3599 14.8401C18.0079 17.0401 19.3599 18.8638 19.3599 18.8964C19.3599 18.9364 18.3762 18.9601 17.1836 18.9601L14.9999 18.9521L12.9679 16.2321C11.5679 14.3521 10.9119 13.5436 10.8479 13.5921C10.7999 13.6321 9.66356 14.8564 8.31988 16.3121L5.87988 18.9601H5.26356C4.91988 18.9601 4.63988 18.9438 4.63988 18.9201C4.63988 18.8964 5.91188 17.5038 7.46356 15.8321C9.00804 14.1601 10.288 12.7601 10.3036 12.7364C10.3119 12.7038 9.03988 10.9681 7.47988 8.88012C5.91988 6.80012 4.63988 5.08012 4.63988 5.0638C4.63988 5.04828 5.62356 5.04012 6.83188 5.04012H9.02356L10.8799 7.52012Z" fill="currentColor"/>
        <path d="M6.6164 6.112C6.64824 6.168 8.66376 8.872 11.0801 12.1037L15.4801 17.9918L16.4638 18C17.0719 18 17.4401 17.968 17.4238 17.92C17.4164 17.88 15.4082 15.1763 12.9764 11.92L8.54376 6H7.55208C6.7284 6 6.56008 6.01632 6.6164 6.112Z" fill="currentColor"/>
    </g>
    <defs>
    <clipPath id="clip0_10184_143">
        <rect width="24" height="24" fill="currentColor"/>
    </clipPath>
    </defs>
</svg>
