<svg viewBox="0 0 24 24" fill="none" xmlns="http://www.w3.org/2000/svg">
    <path d="M24 12C24 5.3649 18.6351 0 12 0C5.3649 0 0 5.3649 0 12C0 18.6351 5.3649 24 12 24C18.6351 24 24 18.6351 24 12Z" fill="#AFAFAF"/>
    <path d="M24 12C24 5.3649 18.6351 0 12 0C5.3649 0 0 5.3649 0 12C0 18.6351 5.3649 24 12 24C18.6351 24 24 18.6351 24 12Z" fill="#D40C18"/>
    <path d="M15.0752 16.429H8.94148C7.3036 16.429 5.96655 15.0919 5.96655 13.4541V10.546C5.96655 8.90809 7.3036 7.57104 8.94148 7.57104H15.0752C16.7131 7.57104 18.0501 8.90809 18.0501 10.546V13.4541C18.0334 15.1087 16.7131 16.429 15.0752 16.429Z" fill="white"/>
    <path d="M14.4567 12.0334L10.4289 14.2061C10.2952 14.273 10.1281 14.1894 10.1281 14.0223V9.64343C10.1281 9.49301 10.2952 9.39273 10.4289 9.45958L14.4567 11.649C14.5904 11.7493 14.5904 11.9498 14.4567 12.0334Z" fill="#DB0C0B"/>
</svg>
