<svg viewBox="0 0 14 14" fill="none" xmlns="http://www.w3.org/2000/svg">
<path fill-rule="evenodd" clip-rule="evenodd" d="M12.4698 2.29257C13.0722 2.45355 13.5465 2.92797 13.7075 3.5303C14 4.62211 14 6.90004 14 6.90004C14 6.90004 14 9.17803 13.7075 10.2698C13.5465 10.8721 13.0722 11.3465 12.4698 11.5075C11.378 11.8001 7.00003 11.8001 7.00003 11.8001C7.00003 11.8001 2.6221 11.8001 1.53028 11.5075C0.927964 11.3465 0.453539 10.8721 0.29256 10.2698C0 9.17803 0 6.90004 0 6.90004C0 6.90004 0 4.62211 0.29256 3.5303C0.453539 2.92797 0.927964 2.45355 1.53028 2.29257C2.6221 2 7.00003 2 7.00003 2C7.00003 2 11.378 2 12.4698 2.29257ZM5.60003 4.80002V9.00009L9.23724 6.9001L5.60003 4.80002Z" fill="currentColor"/>
</svg>
