<svg viewBox="0 0 90 97" fill="none" xmlns="http://www.w3.org/2000/svg">
    <path d="M44.6138 97C69.2533 97 89.2276 77.0257 89.2276 52.3862C89.2276 27.7467 69.2533 7.7724 44.6138 7.7724C19.9743 7.7724 0 27.7467 0 52.3862C0 77.0257 19.9743 97 44.6138 97Z" fill="primary.lighter"/>
    <path d="M65.8054 86.8303C65.8054 85.1572 56.2301 83.8043 44.4175 83.8043C32.6049 83.8043 23.0296 85.1606 23.0296 86.8303C23.0296 88.4999 32.6049 89.8562 44.4175 89.8562C56.2301 89.8562 65.8054 88.5022 65.8054 86.8303Z" fill="primary.light"/>
    <path d="M59.3018 13.5275H29.5221C26.7502 13.5275 24.5031 15.7746 24.5031 18.5465V80.678C24.5031 83.4499 26.7502 85.697 29.5221 85.697H59.3018C62.0738 85.697 64.3209 83.4499 64.3209 80.678V18.5465C64.3209 15.7746 62.0738 13.5275 59.3018 13.5275Z" fill="white" stroke="primary.darker"/>
    <path d="M59.3018 13.5275H29.5221C26.7502 13.5275 24.5031 15.7746 24.5031 18.5465V80.678C24.5031 83.4499 26.7502 85.697 29.5221 85.697H59.3018C62.0738 85.697 64.3209 83.4499 64.3209 80.678V18.5465C64.3209 15.7746 62.0738 13.5275 59.3018 13.5275Z" stroke="primary.darker" stroke-linecap="round" stroke-linejoin="round"/>
    <path d="M60.5878 24.1041H28.2361V74.4988H60.5878V24.1041Z" fill="primary.light" stroke="primary.darker"/>
    <path d="M60.5878 24.1041H28.2361V74.4988H60.5878V24.1041Z" stroke="primary.darker" stroke-linecap="round" stroke-linejoin="round"/>
    <path d="M44.4121 83.2085C46.1301 83.2085 47.5228 81.8158 47.5228 80.0979C47.5228 78.3799 46.1301 76.9872 44.4121 76.9872C42.6941 76.9872 41.3014 78.3799 41.3014 80.0979C41.3014 81.8158 42.6941 83.2085 44.4121 83.2085Z" fill="white" stroke="primary.darker" stroke-linecap="round" stroke-linejoin="round"/>
    <path d="M42.5461 18.8163H51.8782" stroke="primary.darker" stroke-linecap="round" stroke-linejoin="round"/>
    <path d="M38.3129 18.8163C38.3129 19.2276 37.9795 19.561 37.5682 19.561C37.1569 19.561 36.8235 19.2276 36.8235 18.8163C36.8235 18.405 37.1569 18.0716 37.5682 18.0716C37.9795 18.0716 38.3129 18.405 38.3129 18.8163Z" fill="primary.darker" stroke="primary.darker"/>
    <path d="M53.5154 60.0062C53.5287 58.8023 53.3031 57.6077 52.8516 56.4916C52.4002 55.3755 51.7318 54.3601 50.8851 53.504C50.0385 52.648 49.0306 51.9684 47.9195 51.5046C46.8085 51.0408 45.6165 50.802 44.4125 50.802C43.2086 50.802 42.0166 51.0408 40.9055 51.5046C39.7945 51.9684 38.7865 52.648 37.9399 53.504C37.0933 54.3601 36.4249 55.3755 35.9734 56.4916C35.5219 57.6077 35.2963 58.8023 35.3096 60.0062V61.3256C35.3096 61.5233 35.3486 61.7191 35.4243 61.9017C35.4999 62.0843 35.6109 62.2502 35.7507 62.3899C35.8905 62.5297 36.0565 62.6405 36.2392 62.716C36.4219 62.7916 36.6177 62.8304 36.8153 62.8302H52.0097C52.2074 62.8304 52.4031 62.7916 52.5858 62.716C52.7685 62.6405 52.9345 62.5297 53.0743 62.3899C53.2142 62.2502 53.3251 62.0843 53.4008 61.9017C53.4765 61.7191 53.5154 61.5233 53.5154 61.3256V60.0062Z" fill="white" stroke="primary.darker" stroke-miterlimit="10"/>
    <path d="M38.4482 43.4332C38.4482 45.0158 39.0768 46.5336 40.1959 47.6526C41.3149 48.7716 42.8327 49.4003 44.4152 49.4003C45.9978 49.4003 47.5156 48.7716 48.6346 47.6526C49.7537 46.5336 50.3823 45.0158 50.3823 43.4332V41.5505C50.3932 40.7604 50.2469 39.976 49.952 39.2429C49.6571 38.5098 49.2195 37.8426 48.6646 37.2801C48.1097 36.7175 47.4485 36.2709 46.7195 35.966C45.9905 35.6611 45.2082 35.5041 44.418 35.5041C43.6279 35.5041 42.8455 35.6611 42.1166 35.966C41.3876 36.2709 40.7264 36.7175 40.1715 37.2801C39.6166 37.8426 39.179 38.5098 38.8841 39.2429C38.5892 39.976 38.4429 40.7604 38.4537 41.5505L38.4482 43.4332Z" fill="white" stroke="primary.darker" stroke-miterlimit="10"/>
    <path d="M64.3888 31.4489C72.797 31.4489 79.6132 24.6327 79.6132 16.2245C79.6132 7.81622 72.797 1 64.3888 1C55.9805 1 49.1643 7.81622 49.1643 16.2245C49.1643 24.6327 55.9805 31.4489 64.3888 31.4489Z" fill="primary.light" stroke="primary.darker"/>
    <path d="M64.3888 31.4489C72.797 31.4489 79.6132 24.6327 79.6132 16.2245C79.6132 7.81622 72.797 1 64.3888 1C55.9805 1 49.1643 7.81622 49.1643 16.2245C49.1643 24.6327 55.9805 31.4489 64.3888 31.4489Z" stroke="primary.darker" stroke-linecap="round" stroke-linejoin="round"/>
    <path d="M66.9261 23.8368V18.7619H72.001C72.6739 18.7619 73.3193 18.4946 73.7952 18.0188C74.271 17.5429 74.5384 16.8975 74.5384 16.2245C74.5384 15.5516 74.271 14.9062 73.7952 14.4303C73.3193 13.9545 72.6739 13.6871 72.001 13.6871H66.9261V8.6123C66.9261 7.93934 66.6588 7.29394 66.183 6.81808C65.7071 6.34222 65.0617 6.07489 64.3887 6.07489C63.7158 6.07489 63.0704 6.34222 62.5945 6.81808C62.1187 7.29394 61.8513 7.93934 61.8513 8.6123V13.6871H56.7765C56.1035 13.6871 55.4581 13.9545 54.9823 14.4303C54.5064 14.9062 54.2391 15.5516 54.2391 16.2245C54.2391 16.8975 54.5064 17.5429 54.9823 18.0188C55.4581 18.4946 56.1035 18.7619 56.7765 18.7619H61.8513V23.8368C61.8513 24.5097 62.1187 25.1551 62.5945 25.631C63.0704 26.1068 63.7158 26.3742 64.3887 26.3742C65.0617 26.3742 65.7071 26.1068 66.183 25.631C66.6588 25.1551 66.9261 24.5097 66.9261 23.8368Z" fill="white" stroke="primary.darker" stroke-linecap="round" stroke-linejoin="round"/>
</svg>
