<svg viewBox="0 0 90 97" fill="none" xmlns="http://www.w3.org/2000/svg">
<path d="M45 93.4791C69.8528 93.4791 90 73.3319 90 48.4791C90 23.6263 69.8528 3.47911 45 3.47911C20.1472 3.47911 0 23.6263 0 48.4791C0 73.3319 20.1472 93.4791 45 93.4791Z" fill="#E0EFFF"/>
<path d="M76.4687 67.2935C82.5508 67.2935 87.4813 62.363 87.4813 56.2809C87.4813 50.1988 82.5508 45.2682 76.4687 45.2682C70.3866 45.2682 65.4561 50.1988 65.4561 56.2809C65.4561 62.363 70.3866 67.2935 76.4687 67.2935Z" fill="#C2DFFF"/>
<path d="M63.6019 83.5206C63.6118 83.7028 63.5856 83.8852 63.525 84.0574C63.4643 84.2295 63.3704 84.388 63.2484 84.5238C63.1265 84.6596 62.979 84.7701 62.8144 84.8489C62.6498 84.9277 62.4713 84.9733 62.289 84.9831L13.5124 87.5098C13.1437 87.524 12.7842 87.3932 12.5108 87.1455C12.2374 86.8978 12.072 86.5528 12.0499 86.1846L11.8958 83.2371C11.8773 82.8802 11.7225 82.5441 11.4633 82.2981C11.2041 82.0521 10.8603 81.915 10.503 81.9152H8.15513C7.78552 81.914 7.43138 81.7667 7.17003 81.5053C6.90867 81.2439 6.76132 80.8898 6.76013 80.5202V45.6407C6.76132 45.2711 6.90867 44.917 7.17003 44.6556C7.43138 44.3942 7.78552 44.2469 8.15513 44.2457H56.988C57.3576 44.2469 57.7118 44.3942 57.9731 44.6556C58.2345 44.917 58.3818 45.2711 58.383 45.6407V47.4688L60.336 47.3709C60.7038 47.3513 61.0644 47.4784 61.3386 47.7243C61.6128 47.9703 61.7782 48.3149 61.7985 48.6827L63.6019 83.5206Z" fill="#C2DFFF"/>
<path d="M60.5259 42.3475L11.3851 44.8867C10.7187 44.9212 10.2064 45.4893 10.2408 46.1557L12.0601 81.3629C12.0945 82.0293 12.6626 82.5416 13.3291 82.5072L62.4699 79.9679C63.1363 79.9335 63.6486 79.3654 63.6142 78.699L61.7949 43.4918C61.7605 42.8254 61.1923 42.3131 60.5259 42.3475Z" fill="white" stroke="#001B38" stroke-miterlimit="10"/>
<g opacity="0.15">
<path d="M34.7208 31.7615L23.5439 34.1049C23.401 34.1349 23.2535 34.1363 23.11 34.1092C22.9665 34.0821 22.8297 34.027 22.7076 33.9469C22.5854 33.8669 22.4802 33.7635 22.3981 33.6427C22.3159 33.522 22.2584 33.3862 22.2288 33.2432V33.2432C22.1938 33.0776 22.1219 32.922 22.0184 32.7881C21.915 32.6541 21.7826 32.5453 21.6312 32.4696C21.4798 32.3939 21.3133 32.3533 21.1441 32.3509C20.9749 32.3485 20.8073 32.3843 20.6538 32.4557C20.3548 32.5965 20.0121 32.6129 19.701 32.5013C19.3899 32.3898 19.1358 32.1593 18.9944 31.8605L15.3753 24.2105C15.2972 24.0458 15.2524 23.8672 15.2434 23.6851C15.2344 23.503 15.2614 23.3209 15.3228 23.1492C15.3843 22.9775 15.4789 22.8197 15.6014 22.6846C15.724 22.5496 15.8719 22.44 16.0368 22.3622L26.7153 17.321L28.7684 21.6973L33.112 20.7973L35.362 28.148L35.5949 30.5769C35.6193 30.8471 35.5438 31.1169 35.3827 31.3351C35.2216 31.5534 34.9861 31.7051 34.7208 31.7615V31.7615Z" fill="#001B38"/>
</g>
<path d="M88.6498 64.3406C88.1776 64.8128 87.5372 65.0781 86.8694 65.0781C86.2017 65.0781 85.5613 64.8128 85.0891 64.3406L79.9479 59.1994L83.5096 55.6388L88.6498 60.78C88.8838 61.0136 89.0695 61.2912 89.1962 61.5966C89.3229 61.9021 89.3881 62.2296 89.3881 62.5603C89.3881 62.891 89.3229 63.2185 89.1962 63.524C89.0695 63.8295 88.8838 64.107 88.6498 64.3406V64.3406Z" fill="white" stroke="#001B38" stroke-linecap="round" stroke-linejoin="round"/>
<path d="M76.4687 63.2713C82.5508 63.2713 87.4813 58.3407 87.4813 52.2586C87.4813 46.1765 82.5508 41.246 76.4687 41.246C70.3866 41.246 65.4561 46.1765 65.4561 52.2586C65.4561 58.3407 70.3866 63.2713 76.4687 63.2713Z" fill="white" stroke="#001B38" stroke-miterlimit="10"/>
<path d="M76.4684 60.8223C81.1985 60.8223 85.0331 56.9878 85.0331 52.2576C85.0331 47.5275 81.1985 43.693 76.4684 43.693C71.7383 43.693 67.9038 47.5275 67.9038 52.2576C67.9038 56.9878 71.7383 60.8223 76.4684 60.8223Z" fill="#C2DFFF"/>
<path d="M76.4684 60.8223C81.1985 60.8223 85.0331 56.9878 85.0331 52.2576C85.0331 47.5275 81.1985 43.693 76.4684 43.693C71.7383 43.693 67.9038 47.5275 67.9038 52.2576C67.9038 56.9878 71.7383 60.8223 76.4684 60.8223Z" stroke="#001B38" stroke-miterlimit="10"/>
<path d="M57.1748 39.2419H7.96838C7.30108 39.2419 6.76013 39.7828 6.76013 40.4501V75.7042C6.76013 76.3715 7.30108 76.9125 7.96838 76.9125H57.1748C57.842 76.9125 58.383 76.3715 58.383 75.7042V40.4501C58.383 39.7828 57.842 39.2419 57.1748 39.2419Z" fill="white" stroke="#001B38" stroke-miterlimit="10"/>
<path d="M53.4726 57.1775C53.4727 57.3771 53.4611 57.5766 53.4377 57.7749C53.2258 60.0592 52.1249 62.1689 50.3723 63.6494C48.6197 65.1299 46.3557 65.8626 44.068 65.6897C41.7803 65.5169 39.6521 64.4523 38.1419 62.7253C36.6317 60.9982 35.8603 58.7471 35.994 56.4568C36.1277 54.1665 37.1558 52.0204 38.8567 50.4808C40.5576 48.9413 42.7953 48.1315 45.0875 48.226C47.3798 48.3206 49.5432 49.3118 51.1116 50.9861C52.68 52.6605 53.5279 54.8839 53.4726 57.1775V57.1775Z" fill="#C2DFFF" stroke="#001B38" stroke-miterlimit="10"/>
<path d="M53.4724 57.1775C53.4725 57.3772 53.4608 57.5766 53.4375 57.7749H44.5162V48.2214C46.8914 48.222 49.169 49.1658 50.8485 50.8452C52.528 52.5247 53.4718 54.8024 53.4724 57.1775V57.1775Z" fill="white" stroke="#001B38" stroke-linejoin="round"/>
<path d="M12.3412 43.4269V72.7264" stroke="#001B38" stroke-linecap="round" stroke-linejoin="round"/>
<path d="M25.5959 44.9584H12.3412V49.1445H25.5959V44.9584Z" fill="#C2DFFF" stroke="#001B38" stroke-linecap="round" stroke-linejoin="round"/>
<path d="M24.2009 51.9338H12.3412V56.1199H24.2009V51.9338Z" fill="#C2DFFF" stroke="#001B38" stroke-linecap="round" stroke-linejoin="round"/>
<path d="M15.1312 59.4721H12.3412V63.6582H15.1312V59.4721Z" fill="#C2DFFF" stroke="#001B38" stroke-linecap="round" stroke-linejoin="round"/>
<path d="M15.1312 66.4475H12.3412V70.6336H15.1312V66.4475Z" fill="#C2DFFF" stroke="#001B38" stroke-linecap="round" stroke-linejoin="round"/>
<path d="M21.4102 61.5656H28.3863" stroke="#001B38" stroke-linecap="round" stroke-linejoin="round"/>
<path d="M21.4102 65.7497H28.3863" stroke="#001B38" stroke-linecap="round" stroke-linejoin="round"/>
<path d="M21.4102 69.9357H24.2002" stroke="#001B38" stroke-linecap="round" stroke-linejoin="round"/>
<path d="M31.9363 17.5161L21.3807 19.7032C20.731 19.8379 20.3134 20.4738 20.448 21.1235L22.2128 29.6411C22.3475 30.2909 22.9833 30.7085 23.6331 30.5738L34.1887 28.3867C34.8384 28.2521 35.256 27.6162 35.1214 26.9665L33.3566 18.4489C33.2219 17.7991 32.586 17.3815 31.9363 17.5161Z" fill="#C2DFFF" stroke="#001B38" stroke-linecap="round" stroke-linejoin="round"/>
<path d="M25.6253 14.3222L15.8749 18.9192C15.2747 19.2022 15.0175 19.9181 15.3005 20.5183L19.0099 28.3863C19.2928 28.9865 20.0088 29.2436 20.609 28.9607L30.3595 24.3637C30.9597 24.0807 31.2168 23.3648 30.9339 22.7646L27.2244 14.8966C26.9415 14.2964 26.2255 14.0393 25.6253 14.3222Z" fill="white" stroke="#001B38" stroke-linecap="round" stroke-linejoin="round"/>
<path d="M18.7778 21.3864L25.6808 18.1317" stroke="#001B38" stroke-linecap="round" stroke-linejoin="round"/>
<path d="M20.2567 24.5228L24.6498 22.4517" stroke="#001B38" stroke-linecap="round" stroke-linejoin="round"/>
<path d="M49.1152 7.34601L45.716 32.948C45.5132 34.4754 46.587 35.8781 48.1145 36.0809L68.1292 38.7383C69.6567 38.9411 71.0594 37.8672 71.2622 36.3398L74.6614 10.7378C74.8642 9.21034 73.7903 7.80768 72.2628 7.60488L52.2481 4.94749C50.7206 4.74469 49.318 5.81854 49.1152 7.34601Z" fill="#C2DFFF"/>
<path d="M49.1157 3.76573L45.7165 29.3677C45.5136 30.8952 46.5875 32.2978 48.115 32.5006L68.1297 35.158C69.6572 35.3608 71.0598 34.287 71.2626 32.7595L74.6618 7.15753C74.8647 5.63006 73.7908 4.2274 72.2633 4.02459L52.2486 1.36721C50.7211 1.16441 49.3185 2.23826 49.1157 3.76573Z" fill="white" stroke="#001B38" stroke-linecap="round" stroke-linejoin="round"/>
<path d="M73.6505 14.7712L48.1051 11.3793L49.1176 3.76644C49.215 3.03311 49.5997 2.36849 50.187 1.91871C50.7743 1.46893 51.5162 1.27082 52.2496 1.36794L72.2645 4.02631C72.6276 4.0744 72.9778 4.19357 73.2949 4.37701C73.612 4.56045 73.8898 4.80457 74.1126 5.09542C74.3353 5.38627 74.4986 5.71815 74.593 6.07211C74.6874 6.42607 74.7112 6.79516 74.663 7.15831L73.6505 14.7712Z" fill="#C2DFFF"/>
<path d="M73.6505 14.7712L48.1051 11.3793L49.1176 3.76644C49.215 3.03311 49.5997 2.36849 50.187 1.91871C50.7743 1.46893 51.5162 1.27082 52.2496 1.36794L72.2645 4.02631C72.6276 4.0744 72.9778 4.19357 73.2949 4.37701C73.612 4.56045 73.8898 4.80457 74.1126 5.09542C74.3353 5.38627 74.4986 5.71815 74.593 6.07211C74.6874 6.42607 74.7112 6.79516 74.663 7.15831L73.6505 14.7712Z" stroke="#001B38" stroke-linecap="round" stroke-linejoin="round"/>
<path d="M52.4891 15.2378C51.6073 15.1204 50.7974 15.7397 50.68 16.6211C50.5626 17.5025 51.1822 18.3123 52.0639 18.4297L53.6593 18.6422C54.541 18.7596 55.351 18.1403 55.4684 17.2589C55.5858 16.3775 54.9662 15.5678 54.0845 15.4503L52.4891 15.2378Z" fill="white" stroke="#001B38" stroke-linecap="round" stroke-linejoin="round"/>
<path d="M59.6564 16.162C58.7744 16.0449 57.9645 16.6647 57.8475 17.5464C57.7304 18.4281 58.3505 19.2377 59.2325 19.3549L60.8284 19.5667C61.7103 19.6838 62.5202 19.064 62.6373 18.1823C62.7544 17.3007 62.1343 16.491 61.2523 16.3739L59.6564 16.162Z" fill="white" stroke="#001B38" stroke-linecap="round" stroke-linejoin="round"/>
<path d="M66.8409 17.1166C65.9589 16.9995 65.149 17.6193 65.0319 18.501C64.9148 19.3827 65.5349 20.1924 66.4169 20.3095L68.0128 20.5214C68.8948 20.6385 69.7047 20.0186 69.8217 19.137C69.9388 18.2553 69.3187 17.4456 68.4367 17.3285L66.8409 17.1166Z" fill="#C2DFFF" stroke="#001B38" stroke-linecap="round" stroke-linejoin="round"/>
<path d="M51.7295 20.7964C50.8475 20.6793 50.0376 21.2992 49.9206 22.1808C49.8035 23.0625 50.4236 23.8722 51.3056 23.9893L52.9015 24.2012C53.7835 24.3183 54.5934 23.6985 54.7104 22.8168C54.8275 21.9351 54.2074 21.1254 53.3254 21.0083L51.7295 20.7964Z" fill="white" stroke="#001B38" stroke-linecap="round" stroke-linejoin="round"/>
<path d="M58.914 21.7511C58.032 21.634 57.2221 22.2538 57.105 23.1355C56.988 24.0171 57.6081 24.8268 58.4901 24.9439L60.0859 25.1558C60.9679 25.2729 61.7778 24.6531 61.8949 23.7714C62.0119 22.8897 61.3918 22.08 60.5098 21.9629L58.914 21.7511Z" fill="white" stroke="#001B38" stroke-linecap="round" stroke-linejoin="round"/>
<path d="M66.0983 22.7038C65.2163 22.5867 64.4064 23.2065 64.2894 24.0882C64.1723 24.9699 64.7924 25.7796 65.6744 25.8967L67.2702 26.1086C68.1522 26.2257 68.9621 25.6059 69.0792 24.7242C69.1963 23.8425 68.5762 23.0328 67.6942 22.9157L66.0983 22.7038Z" fill="#C2DFFF" stroke="#001B38" stroke-linecap="round" stroke-linejoin="round"/>
<path d="M50.987 26.3846C50.105 26.2675 49.2951 26.8873 49.178 27.769C49.061 28.6507 49.6811 29.4603 50.5631 29.5774L52.1589 29.7893C53.0409 29.9064 53.8508 29.2866 53.9679 28.4049C54.0849 27.5232 53.4648 26.7136 52.5828 26.5965L50.987 26.3846Z" fill="white" stroke="#001B38" stroke-linecap="round" stroke-linejoin="round"/>
<path d="M58.1717 27.3373C57.2897 27.2202 56.4798 27.84 56.3627 28.7217C56.2457 29.6034 56.8658 30.4131 57.7477 30.5302L59.3436 30.7421C60.2256 30.8592 61.0355 30.2394 61.1526 29.3577C61.2696 28.476 60.6495 27.6663 59.7675 27.5492L58.1717 27.3373Z" fill="white" stroke="#001B38" stroke-linecap="round" stroke-linejoin="round"/>
<path d="M65.3561 28.292C64.4741 28.1748 63.6642 28.7947 63.5472 29.6763C63.4301 30.558 64.0502 31.3677 64.9322 31.4848L66.5281 31.6967C67.4101 31.8138 68.2199 31.194 68.337 30.3123C68.4541 29.4306 67.834 28.6209 66.952 28.5038L65.3561 28.292Z" fill="#C2DFFF" stroke="#001B38" stroke-miterlimit="10"/>
<path d="M53.0502 4.72326L52.5203 8.71461L70.0826 11.0464L70.6126 7.05504L53.0502 4.72326Z" fill="white" stroke="#001B38" stroke-linecap="round" stroke-linejoin="round"/>
<path d="M32.1078 81.5843L22.9109 60.9709C22.6303 60.3416 22.6111 59.6267 22.8577 58.9833C23.1042 58.3399 23.5962 57.8208 24.2255 57.5402C24.8547 57.2596 25.5697 57.2404 26.2131 57.487C26.8564 57.7335 27.3755 58.2255 27.6561 58.8548L32.8829 70.5694C32.7439 70.2578 32.6676 69.9219 32.6584 69.5808C32.6492 69.2398 32.7072 68.9002 32.8293 68.5816C32.9513 68.263 33.1349 67.9715 33.3695 67.7239C33.6042 67.4762 33.8853 67.2772 34.1969 67.1381C34.8262 66.8574 35.5412 66.8381 36.1847 67.0845C36.8281 67.3309 37.3474 67.8229 37.6281 68.4521L38.158 69.639C38.019 69.3274 37.9427 68.9915 37.9335 68.6505C37.9243 68.3094 37.9824 67.9699 38.1044 67.6513C38.2264 67.3326 38.41 67.0412 38.6446 66.7935C38.8793 66.5458 39.1604 66.3468 39.472 66.2078C39.7836 66.0687 40.1195 65.9925 40.4606 65.9833C40.8016 65.9741 41.1412 66.0321 41.4598 66.1541C41.7784 66.2761 42.0699 66.4597 42.3176 66.6944C42.5652 66.929 42.7643 67.2102 42.9033 67.5218L43.4331 68.7086C43.1524 68.0794 43.1331 67.3644 43.3795 66.7209C43.6259 66.0774 44.1179 65.5582 44.7472 65.2774C45.3764 64.9966 46.0914 64.9773 46.7349 65.2238C47.3784 65.4702 47.8976 65.9621 48.1784 66.5914L52.0158 75.192C54.7417 81.3041 52.8472 83.4338 54.4064 86.928L55.861 90.1905L42.2182 96.2768C39.1683 89.4401 32.8041 94.6365 27.9869 83.8388C26.1678 79.7606 26.7865 77.5568 29.725 76.2461" fill="white"/>
<path d="M32.1078 81.5843L22.9109 60.9709C22.6303 60.3416 22.6111 59.6267 22.8577 58.9833C23.1042 58.3399 23.5962 57.8208 24.2255 57.5402C24.8547 57.2596 25.5697 57.2404 26.2131 57.487C26.8564 57.7335 27.3755 58.2255 27.6561 58.8548L32.8829 70.5694C32.7439 70.2578 32.6676 69.9219 32.6584 69.5808C32.6492 69.2398 32.7072 68.9002 32.8293 68.5816C32.9513 68.263 33.1349 67.9715 33.3695 67.7239C33.6042 67.4762 33.8853 67.2772 34.1969 67.1381C34.8262 66.8574 35.5412 66.8381 36.1847 67.0845C36.8281 67.3309 37.3474 67.8229 37.6281 68.4521L38.158 69.639C38.019 69.3274 37.9427 68.9915 37.9335 68.6505C37.9243 68.3094 37.9824 67.9699 38.1044 67.6513C38.2264 67.3326 38.41 67.0412 38.6446 66.7935C38.8793 66.5458 39.1604 66.3468 39.472 66.2078C39.7836 66.0687 40.1195 65.9925 40.4606 65.9833C40.8016 65.9741 41.1412 66.0321 41.4598 66.1541C41.7784 66.2761 42.0699 66.4597 42.3176 66.6944C42.5652 66.929 42.7643 67.2102 42.9033 67.5218L43.4331 68.7086C43.1524 68.0794 43.1331 67.3644 43.3795 66.7209C43.6259 66.0774 44.1179 65.5582 44.7472 65.2774C45.3764 64.9966 46.0914 64.9773 46.7349 65.2238C47.3784 65.4702 47.8976 65.9621 48.1784 66.5914L52.0158 75.192C54.7417 81.3041 52.8472 83.4338 54.4064 86.928L55.861 90.1905L42.2182 96.2768C39.1683 89.4401 32.8041 94.6365 27.9869 83.8388C26.1678 79.7606 26.7865 77.5568 29.725 76.2461" stroke="#001B38" stroke-linecap="round" stroke-linejoin="round"/>
<path d="M39.3043 72.2091L38.158 69.6385" stroke="#001B38" stroke-linecap="round" stroke-linejoin="round"/>
<path d="M34.4714 74.1295L32.6185 69.9771" stroke="#001B38" stroke-linecap="round" stroke-linejoin="round"/>
<path d="M44.0494 70.0924L42.9031 67.5217" stroke="#001B38" stroke-linecap="round" stroke-linejoin="round"/>
<path d="M32.1078 81.5843L22.9109 60.9709C22.6303 60.3416 22.6111 59.6267 22.8577 58.9833C23.1042 58.3399 23.5962 57.8208 24.2255 57.5402C24.8547 57.2596 25.5697 57.2404 26.2131 57.487C26.8564 57.7335 27.3755 58.2255 27.6561 58.8548L32.8829 70.5694C32.7439 70.2578 32.6676 69.9219 32.6584 69.5808C32.6492 69.2398 32.7072 68.9002 32.8293 68.5816C32.9513 68.263 33.1349 67.9715 33.3695 67.7239C33.6042 67.4762 33.8853 67.2772 34.1969 67.1381C34.8262 66.8574 35.5412 66.8381 36.1847 67.0845C36.8281 67.3309 37.3474 67.8229 37.6281 68.4521L38.158 69.639C38.019 69.3274 37.9427 68.9915 37.9335 68.6505C37.9243 68.3094 37.9824 67.9699 38.1044 67.6513C38.2264 67.3326 38.41 67.0412 38.6446 66.7935C38.8793 66.5458 39.1604 66.3468 39.472 66.2078C39.7836 66.0687 40.1195 65.9925 40.4606 65.9833C40.8016 65.9741 41.1412 66.0321 41.4598 66.1541C41.7784 66.2761 42.0699 66.4597 42.3176 66.6944C42.5652 66.929 42.7643 67.2102 42.9033 67.5218L43.4331 68.7086C43.1524 68.0794 43.1331 67.3644 43.3795 66.7209C43.6259 66.0774 44.1179 65.5582 44.7472 65.2774C45.3764 64.9966 46.0914 64.9773 46.7349 65.2238C47.3784 65.4702 47.8976 65.9621 48.1784 66.5914L52.0158 75.192C54.7417 81.3041 52.8472 83.4338 54.4064 86.928L55.861 90.1905L42.2182 96.2768C39.1683 89.4401 32.8041 94.6365 27.9869 83.8388C26.1678 79.7606 26.7865 77.5568 29.725 76.2461" stroke="#001B38" stroke-linecap="round" stroke-linejoin="round"/>
</svg>
