<svg viewBox="0 0 94 95" fill="none" xmlns="http://www.w3.org/2000/svg">
<path d="M46.9666 95.0001C72.9059 95.0001 93.9339 73.9721 93.9339 48.0328C93.9339 22.0935 72.9059 1.06549 46.9666 1.06549C21.0273 1.06549 -0.000732422 22.0935 -0.000732422 48.0328C-0.000732422 73.9721 21.0273 95.0001 46.9666 95.0001Z" fill="primary.150"/>
<path d="M45.7594 88.3751C52.9965 88.3751 58.8633 87.4951 58.8633 86.4096C58.8633 85.324 52.9965 84.444 45.7594 84.444C38.5223 84.444 32.6555 85.324 32.6555 86.4096C32.6555 87.4951 38.5223 88.3751 45.7594 88.3751Z" fill="primary.200"/>
<path d="M41.5963 2.49929L27.2805 56.4992C27.061 57.3272 27.5543 58.1764 28.3824 58.396L68.1326 68.9341C68.9607 69.1536 69.8099 68.6603 70.0294 67.8322L84.3452 13.8323C84.5647 13.0043 84.0714 12.1551 83.2434 11.9356L43.4931 1.39746C42.6651 1.17794 41.8158 1.67125 41.5963 2.49929Z" fill="primary.200" stroke="primary.800" stroke-linecap="round" stroke-linejoin="round"/>
<path d="M49.2842 6.37769L9.91016 18.2444C9.08996 18.4916 8.62544 19.3569 8.87264 20.1771L24.9933 73.6659C25.2405 74.4861 26.1058 74.9507 26.926 74.7035L66.3001 62.8367C67.1203 62.5895 67.5848 61.7242 67.3376 60.904L51.2169 7.41522C50.9697 6.59501 50.1044 6.1305 49.2842 6.37769Z" fill="primary.200" stroke="primary.800" stroke-linecap="round" stroke-linejoin="round"/>
<path d="M26.3844 18.2703L22.9311 74.0287C22.8781 74.8837 23.5283 75.6198 24.3833 75.6727L65.4281 78.2148C66.2831 78.2677 67.0192 77.6175 67.0721 76.7625L70.5254 21.0041C70.5784 20.1491 69.9282 19.413 69.0732 19.3601L28.0284 16.818C27.1734 16.7651 26.4374 17.4153 26.3844 18.2703Z" fill="white" stroke="primary.800" stroke-linecap="round" stroke-linejoin="round"/>
<path d="M47.4401 49.4765C54.1864 49.8837 59.9855 44.7449 60.3928 37.9985C60.8 31.2522 55.6612 25.453 48.9148 25.0458C42.1685 24.6385 36.3693 29.7774 35.9621 36.5238C35.5548 43.2701 40.6937 49.0692 47.4401 49.4765Z" fill="primary.150" stroke="primary.800" stroke-linecap="round" stroke-linejoin="round"/>
<path d="M44.2619 36.7421C44.2191 37.2646 44.281 37.7904 44.4441 38.2887C44.6072 38.7869 44.8681 39.2476 45.2116 39.6436C45.555 40.0397 45.9741 40.3632 46.4443 40.5952C46.9144 40.8271 47.4261 40.9629 47.9494 40.9945C48.4727 41.0261 48.9971 40.9529 49.4917 40.7791C49.9863 40.6054 50.4413 40.3347 50.8299 39.9828C51.2185 39.6309 51.533 39.205 51.7548 38.73C51.9766 38.255 52.1014 37.7404 52.1217 37.2166L52.2404 35.2507C52.2804 34.2217 51.9157 33.2179 51.2245 32.4546C50.5333 31.6912 49.5706 31.229 48.5427 31.1669C47.5147 31.1049 46.5034 31.4479 45.7254 32.1226C44.9474 32.7973 44.4646 33.7499 44.3805 34.7763L44.2619 36.7421Z" fill="white" stroke="primary.800" stroke-linecap="round" stroke-linejoin="round"/>
<path d="M55.7943 46.8404C53.4308 48.7194 50.456 49.6582 47.442 49.4763C44.4281 49.2944 41.5878 48.0045 39.4674 45.8548C40.2356 44.2852 41.4508 42.9778 42.9602 42.0972C44.4697 41.2165 46.2059 40.8021 47.9503 40.9059C49.6947 41.0098 51.3695 41.6273 52.7638 42.6808C54.1581 43.7342 55.2096 45.1766 55.7861 46.8263" fill="primary.200"/>
<path d="M55.7943 46.8404C53.4308 48.7194 50.456 49.6582 47.442 49.4763C44.4281 49.2944 41.5878 48.0045 39.4674 45.8548C40.2356 44.2852 41.4508 42.9778 42.9602 42.0972C44.4697 41.2165 46.2059 40.8021 47.9503 40.9059C49.6947 41.0098 51.3695 41.6273 52.7638 42.6808C54.1581 43.7342 55.2096 45.1766 55.7861 46.8263" stroke="primary.800" stroke-linecap="round" stroke-linejoin="round"/>
<path d="M62.1224 69.7586L61.873 69.7412L61.9369 68.8268C61.9786 68.2315 61.782 67.6441 61.3905 67.1937C60.999 66.7433 60.4447 66.4669 59.8494 66.4253C59.2541 66.3837 58.6667 66.5802 58.2163 66.9717C57.7659 67.3632 57.4895 67.9176 57.4479 68.5129L57.384 69.4273L57.1346 69.4099C56.9582 69.3975 56.7841 69.4558 56.6507 69.5718C56.5173 69.6878 56.4354 69.852 56.423 70.0284L56.1789 73.5199C56.1665 73.6963 56.2248 73.8703 56.3408 74.0038C56.4568 74.1372 56.621 74.2191 56.7974 74.2314L61.7852 74.5802C61.9616 74.5925 62.1357 74.5343 62.2691 74.4183C62.4026 74.3023 62.4845 74.138 62.4968 73.9617L62.7409 70.4702C62.7533 70.2938 62.695 70.1198 62.579 69.9863C62.463 69.8529 62.2988 69.771 62.1224 69.7586ZM58.8239 71.5329C58.8316 71.416 58.8699 71.3032 58.935 71.2058C59.0001 71.1084 59.0898 71.0299 59.1949 70.9782C59.3 70.9265 59.4169 70.9034 59.5338 70.9112C59.6507 70.919 59.7634 70.9576 59.8607 71.0228C59.958 71.0881 60.0363 71.1779 60.0879 71.2831C60.1394 71.3883 60.1623 71.5052 60.1543 71.6221C60.1462 71.739 60.1075 71.8517 60.0421 71.9489C59.9766 72.046 59.8867 72.1242 59.7814 72.1756L59.7285 72.9327C59.7223 73.0209 59.6814 73.103 59.6147 73.161C59.5479 73.219 59.4609 73.2482 59.3727 73.242C59.2845 73.2358 59.2024 73.1949 59.1444 73.1282C59.0864 73.0614 59.0573 72.9744 59.0634 72.8862L59.1164 72.1291C59.0196 72.0641 58.9417 71.9748 58.8904 71.8701C58.839 71.7655 58.8161 71.6492 58.8239 71.5329ZM58.2792 68.571C58.3054 68.1962 58.4795 67.8471 58.763 67.6006C59.0466 67.3542 59.4164 67.2304 59.7913 67.2566C60.1661 67.2828 60.5151 67.4568 60.7616 67.7404C61.0081 68.024 61.1319 68.3938 61.1056 68.7686L61.0533 69.5168C61.0502 69.5609 61.0298 69.602 60.9964 69.631C60.9631 69.66 60.9195 69.6745 60.8754 69.6715L58.3815 69.4971C58.3374 69.494 58.2964 69.4735 58.2674 69.4401C58.2384 69.4068 58.2238 69.3633 58.2269 69.3192L58.2792 68.571Z" fill="primary.800"/>
<path d="M31.3877 55.3939L63.372 57.6304M31.0389 60.3817L63.0233 62.6182M30.6901 65.3695L46.6823 66.4878" stroke="primary.800" stroke-linecap="round"/>
</svg>
