<svg viewBox="0 0 97 93" fill="none" xmlns="http://www.w3.org/2000/svg">
    <path d="M50.5416 92.9171C76.2 92.9171 97.0002 72.1169 97.0002 46.4586C97.0002 20.8002 76.2 0 50.5416 0C24.8833 0 4.08307 20.8002 4.08307 46.4586C4.08307 72.1169 24.8833 92.9171 50.5416 92.9171Z" fill="#E0EFFF"/>
    <path d="M87.4945 39.127C87.4946 39.4506 87.431 39.771 87.3072 40.07C87.1835 40.3689 87.002 40.6405 86.7733 40.8693C86.5445 41.0981 86.2728 41.2795 85.9739 41.4033C85.6749 41.527 85.3545 41.5907 85.031 41.5905H35.7652C35.4416 41.5907 35.1212 41.527 34.8223 41.4033C34.5233 41.2795 34.2517 41.0981 34.0229 40.8693C33.7941 40.6405 33.6127 40.3689 33.4889 40.07C33.3652 39.771 33.3015 39.4506 33.3017 39.127V12.0312C33.3015 11.7077 33.3652 11.3873 33.4889 11.0883C33.6127 10.7894 33.7941 10.5178 34.0229 10.289C34.2517 10.0602 34.5233 9.87873 34.8223 9.75499C35.1212 9.63124 35.4416 9.56763 35.7652 9.56778H85.031C85.3545 9.56763 85.6749 9.63124 85.9739 9.75499C86.2728 9.87873 86.5445 10.0602 86.7733 10.289C87.002 10.5178 87.1835 10.7894 87.3072 11.0883C87.431 11.3873 87.4946 11.7077 87.4945 12.0312V24.3428L95.526 33.3778C95.684 33.5552 95.7873 33.7746 95.8234 34.0094C95.8596 34.2442 95.827 34.4845 95.7296 34.7012C95.6323 34.9179 95.4743 35.1018 95.2747 35.2307C95.0751 35.3597 94.8425 35.4281 94.6049 35.4278H87.4945V39.127Z" fill="white" stroke="#003670" stroke-linecap="round" stroke-linejoin="round"/>
    <path d="M80.1044 18.1896H61.6301" stroke="#003670" stroke-linecap="round" stroke-linejoin="round"/>
    <path d="M80.1044 24.3477H61.6301" stroke="#003670" stroke-linecap="round" stroke-linejoin="round"/>
    <path d="M71.894 30.5059H61.6301" stroke="#003670" stroke-linecap="round" stroke-linejoin="round"/>
    <path d="M10.4174 82.0373C10.4174 82.7756 10.7103 83.4837 11.2318 84.0063C11.7533 84.5289 12.4609 84.8233 13.1991 84.8248H68.8333C69.5726 84.8248 70.2816 84.5311 70.8043 84.0084C71.3271 83.4856 71.6208 82.7766 71.6208 82.0373V51.4374C71.6193 50.6991 71.3249 49.9916 70.8023 49.4701C70.2797 48.9486 69.5716 48.6557 68.8333 48.6557H13.1991C12.4619 48.6572 11.7552 48.9508 11.2339 49.4721C10.7125 49.9935 10.419 50.7001 10.4174 51.4374V65.3471L1.34872 75.5494C1.17121 75.7505 1.05552 75.9987 1.01555 76.2639C0.975586 76.5292 1.01304 76.8004 1.12341 77.045C1.23378 77.2895 1.41238 77.497 1.63777 77.6425C1.86315 77.788 2.12575 77.8654 2.39404 77.8653H10.4232L10.4174 82.0373Z" fill="white" stroke="#003670" stroke-linecap="round" stroke-linejoin="round"/>
    <path d="M25.6788 78.394C30.9696 78.394 35.2586 74.105 35.2586 68.8143C35.2586 63.5235 30.9696 59.2345 25.6788 59.2345C20.3881 59.2345 16.0991 63.5235 16.0991 68.8143C16.0991 74.105 20.3881 78.394 25.6788 78.394Z" fill="#FAE5E7" stroke="#003670" stroke-linecap="round" stroke-linejoin="round"/>
    <path d="M22.596 68.595C22.596 69.4126 22.9208 70.1966 23.4989 70.7747C24.0769 71.3528 24.861 71.6776 25.6785 71.6776C26.4961 71.6776 27.2801 71.3528 27.8582 70.7747C28.4363 70.1966 28.7611 69.4126 28.7611 68.595V67.0503C28.7611 66.2327 28.4363 65.4487 27.8582 64.8706C27.2801 64.2925 26.4961 63.9678 25.6785 63.9678C24.861 63.9678 24.0769 64.2925 23.4989 64.8706C22.9208 65.4487 22.596 66.2327 22.596 67.0503V68.595Z" fill="white"/>
    <path d="M22.596 68.595C22.596 69.4126 22.9208 70.1966 23.4989 70.7747C24.0769 71.3528 24.861 71.6776 25.6785 71.6776C26.4961 71.6776 27.2801 71.3528 27.8582 70.7747C28.4363 70.1966 28.7611 69.4126 28.7611 68.595V67.0503C28.7611 66.2327 28.4363 65.4487 27.8582 64.8706C27.2801 64.2925 26.4961 63.9678 25.6785 63.9678C24.861 63.9678 24.0769 64.2925 23.4989 64.8706C22.9208 65.4487 22.596 66.2327 22.596 67.0503V68.595Z" stroke="#003670" stroke-linecap="round" stroke-linejoin="round"/>
    <path d="M19.278 75.9416C21.0363 77.5202 23.3159 78.3935 25.6788 78.3935C28.0418 78.3935 30.3214 77.5202 32.0797 75.9416C31.5532 74.6778 30.6645 73.5981 29.5254 72.8387C28.3863 72.0792 27.0479 71.6739 25.6788 71.6739C24.3098 71.6739 22.9714 72.0792 21.8323 72.8387C20.6932 73.5981 19.8044 74.6778 19.278 75.9416Z" fill="white" stroke="#003670" stroke-linecap="round" stroke-linejoin="round"/>
    <path d="M22.6216 66.6523C22.7022 66.0305 22.9706 65.4481 23.3909 64.9829C23.8112 64.5177 24.3635 64.1917 24.9739 64.0486C25.5843 63.9055 26.2239 63.9519 26.8072 64.1818C27.3905 64.4117 27.8898 64.8141 28.2384 65.3352C27.5089 66.0423 26.6012 66.5382 25.6121 66.7702C24.6229 67.0021 23.5894 66.9614 22.6216 66.6523Z" fill="white" stroke="#003670" stroke-linecap="round" stroke-linejoin="round"/>
    <path d="M64.6624 61.5937H43.799" stroke="#003670" stroke-linecap="round" stroke-linejoin="round"/>
    <path d="M64.6623 68.5488H43.799" stroke="#003670" stroke-linecap="round" stroke-linejoin="round"/>
    <path d="M55.3904 75.5028H43.799" stroke="#003670" stroke-linecap="round" stroke-linejoin="round"/>
    <path d="M46.8818 34.8855C52.1725 34.8855 56.4615 30.5965 56.4615 25.3057C56.4615 20.015 52.1725 15.726 46.8818 15.726C41.591 15.726 37.302 20.015 37.302 25.3057C37.302 30.5965 41.591 34.8855 46.8818 34.8855Z" fill="#E4F9E9" stroke="#003670" stroke-linecap="round" stroke-linejoin="round"/>
    <path d="M43.799 25.0876C43.799 25.9051 44.1238 26.6892 44.7019 27.2673C45.2799 27.8453 46.064 28.1701 46.8815 28.1701C47.6991 28.1701 48.4831 27.8453 49.0612 27.2673C49.6393 26.6892 49.9641 25.9051 49.9641 25.0876V23.5428C49.9641 22.7253 49.6393 21.9413 49.0612 21.3632C48.4831 20.7851 47.6991 20.4603 46.8815 20.4603C46.064 20.4603 45.2799 20.7851 44.7019 21.3632C44.1238 21.9413 43.799 22.7253 43.799 23.5428V25.0876Z" fill="white"/>
    <path d="M43.799 25.0876C43.799 25.9051 44.1238 26.6892 44.7019 27.2673C45.2799 27.8453 46.064 28.1701 46.8815 28.1701C47.6991 28.1701 48.4831 27.8453 49.0612 27.2673C49.6393 26.6892 49.9641 25.9051 49.9641 25.0876V23.5428C49.9641 22.7253 49.6393 21.9413 49.0612 21.3632C48.4831 20.7851 47.6991 20.4603 46.8815 20.4603C46.064 20.4603 45.2799 20.7851 44.7019 21.3632C44.1238 21.9413 43.799 22.7253 43.799 23.5428V25.0876Z" stroke="#003670" stroke-linecap="round" stroke-linejoin="round"/>
    <path d="M40.481 32.4347C42.2393 34.0133 44.5189 34.8865 46.8818 34.8865C49.2448 34.8865 51.5244 34.0133 53.2827 32.4347C52.7562 31.1709 51.8675 30.0912 50.7284 29.3317C49.5893 28.5723 48.2509 28.167 46.8818 28.167C45.5128 28.167 44.1744 28.5723 43.0353 29.3317C41.8962 30.0912 41.0074 31.1709 40.481 32.4347Z" fill="white" stroke="#003670" stroke-linecap="round" stroke-linejoin="round"/>
    <path d="M43.8246 23.1443C43.9052 22.5225 44.1736 21.9402 44.5939 21.4749C45.0142 21.0097 45.5665 20.6838 46.1769 20.5406C46.7873 20.3975 47.4269 20.444 48.0102 20.6738C48.5935 20.9037 49.0928 21.3061 49.4414 21.8272C48.7119 22.5343 47.8042 23.0302 46.8151 23.2622C45.8259 23.4941 44.7924 23.4534 43.8246 23.1443Z" fill="white" stroke="#003670" stroke-linecap="round" stroke-linejoin="round"/>
</svg>
