<svg viewBox="0 0 96 97" fill="none" xmlns="http://www.w3.org/2000/svg">
    <path d="M48 96.5C74.5097 96.5 96 75.0097 96 48.5C96 21.9903 74.5097 0.5 48 0.5C21.4903 0.5 0 21.9903 0 48.5C0 75.0097 21.4903 96.5 48 96.5Z" fill="primary.150"/>
    <path d="M48.7497 87.7478C53.306 87.7478 56.9997 87.2441 56.9997 86.6228C56.9997 86.0015 53.306 85.4978 48.7497 85.4978C44.1933 85.4978 40.4997 86.0015 40.4997 86.6228C40.4997 87.2441 44.1933 87.7478 48.7497 87.7478Z" fill="primary.200"/>
    <path d="M11.9026 17.7946L21.7426 15.1126C23.3066 14.6868 24.9448 14.6077 26.5426 14.881L46.549 18.3106C47.7914 18.5242 49.0613 18.5242 50.3038 18.3106L70.3101 14.881C71.9079 14.6077 73.5461 14.6867 75.1101 15.1126L84.9501 17.7946C85.8321 18.0354 86.6105 18.5595 87.1654 19.2861C87.7202 20.0127 88.0209 20.9016 88.021 21.8158V74.7286C88.0212 75.1568 87.9225 75.5793 87.7326 75.963C87.5427 76.3468 87.2667 76.6815 86.9261 76.941C86.5855 77.2005 86.1896 77.3778 85.7692 77.459C85.3488 77.5403 84.9153 77.5233 84.5025 77.4095L75.1053 74.8462C73.5413 74.4203 71.9031 74.3413 70.3054 74.6146L50.2954 78.0442C49.0529 78.2578 47.783 78.2578 46.5406 78.0442L26.5342 74.6146C24.9364 74.3413 23.2982 74.4204 21.7342 74.8462L12.3382 77.4095C11.9259 77.5218 11.4934 77.5376 11.0741 77.4556C10.6548 77.3736 10.26 77.1961 9.92045 76.9367C9.5809 76.6774 9.30572 76.3433 9.11628 75.9603C8.92684 75.5774 8.82825 75.1559 8.82816 74.7286V21.8158C8.82866 20.9012 9.12989 20.012 9.68543 19.2854C10.241 18.5588 11.02 18.035 11.9026 17.7946Z" fill="primary.200"/>
    <path d="M72.7279 74.4695C73.5312 74.5088 74.3278 74.6351 75.1039 74.8463L84.5023 77.4095C84.9145 77.5218 85.347 77.5376 85.7664 77.4556C86.1857 77.3737 86.5804 77.1961 86.92 76.9368C87.2595 76.6775 87.5347 76.3433 87.7241 75.9604C87.9136 75.5774 88.0122 75.1559 88.0123 74.7287V46.4159L72.7279 42.2483V74.4695Z" fill="primary.200"/>
    <path d="M28.2741 37.4062V15.1798L26.5341 14.881C24.9363 14.608 23.2982 14.6871 21.7341 15.1126L11.9013 17.7946C11.0194 18.0356 10.2412 18.5597 9.68632 19.2863C9.13147 20.0129 8.83076 20.9016 8.83047 21.8158V40.8586L24.1113 36.691L28.2741 37.4062Z" fill="primary.200"/>
    <path d="M32.4427 43.6761V56.8761L48.4183 59.6121L68.5603 56.1597V42.9597L48.4183 46.4157L32.4427 43.6761Z" fill="primary.200"/>
    <path d="M57.447 39.3117V17.0853L53.2794 17.7993V40.0257L48.4182 40.8585L32.4426 38.1201V15.8937L28.275 15.1797V37.4061L24.1074 36.6861L8.82663 40.8585V46.4157L24.1074 42.2481L28.275 42.9621V74.9133L32.4426 75.6273V61.0413L48.4182 63.7797L68.5602 60.3273V74.9133L70.3014 74.6145C71.1024 74.477 71.9162 74.4283 72.7278 74.4693V42.2481L88.0086 46.4157V40.8585L72.7278 36.6909L57.447 39.3117ZM68.5602 56.1597L48.4182 59.6121L32.4426 56.8737V43.6737L48.4182 46.4157L68.5602 42.9621V56.1597Z" fill="white" stroke="primary.800" stroke-linecap="round" stroke-linejoin="round"/>
    <path d="M72.7279 14.7346V74.4682" stroke="primary.800" stroke-linecap="round" stroke-linejoin="round"/>
    <path d="M48.4181 78.2039V18.4703" stroke="primary.800" stroke-linecap="round" stroke-linejoin="round"/>
    <path d="M24.1073 14.7346V74.4682" stroke="primary.800" stroke-linecap="round" stroke-linejoin="round"/>
    <path d="M11.9026 17.7946L21.7426 15.1126C23.3066 14.6868 24.9448 14.6077 26.5426 14.881L46.549 18.3106C47.7914 18.5242 49.0613 18.5242 50.3038 18.3106L70.3101 14.881C71.9079 14.6077 73.5461 14.6867 75.1101 15.1126L84.9502 17.7946C85.8321 18.0354 86.6105 18.5595 87.1654 19.2861C87.7202 20.0127 88.0209 20.9016 88.021 21.8158V74.7286C88.0212 75.1568 87.9225 75.5793 87.7326 75.963C87.5427 76.3468 87.2667 76.6815 86.9261 76.941C86.5855 77.2005 86.1896 77.3778 85.7692 77.459C85.3488 77.5403 84.9153 77.5233 84.5026 77.4094L75.1054 74.8462C73.5413 74.4203 71.9031 74.3413 70.3054 74.6146L50.2954 78.0442C49.0529 78.2578 47.783 78.2578 46.5406 78.0442L26.5342 74.6146C24.9364 74.3413 23.2982 74.4204 21.7342 74.8462L12.3382 77.4094C11.9259 77.5218 11.4934 77.5376 11.0741 77.4556C10.6548 77.3736 10.26 77.1961 9.92045 76.9367C9.5809 76.6774 9.30572 76.3433 9.11628 75.9603C8.92684 75.5774 8.82825 75.1559 8.82816 74.7286V21.8158C8.82866 20.9012 9.12989 20.012 9.68543 19.2854C10.241 18.5588 11.02 18.035 11.9026 17.7946V17.7946Z" stroke="primary.800" stroke-linecap="round" stroke-linejoin="round"/>
    <path d="M84.536 65.1693C84.536 67.0893 81.0632 71.4201 81.0632 71.4201C81.0632 71.4201 77.5904 67.0869 77.5904 65.1693C77.5904 64.2483 77.9562 63.365 78.6075 62.7137C79.2588 62.0624 80.1421 61.6965 81.0632 61.6965C81.9842 61.6965 82.8675 62.0624 83.5188 62.7137C84.1701 63.365 84.536 64.2483 84.536 65.1693Z" fill="white" stroke="primary.800" stroke-linecap="round" stroke-linejoin="round"/>
    <path d="M40.8887 58.2201C40.8887 60.1401 37.4159 64.4709 37.4159 64.4709C37.4159 64.4709 33.9431 60.1401 33.9431 58.2201C33.9431 57.2991 34.3089 56.4158 34.9602 55.7645C35.6115 55.1132 36.4948 54.7473 37.4159 54.7473C38.3369 54.7473 39.2202 55.1132 39.8715 55.7645C40.5228 56.4158 40.8887 57.2991 40.8887 58.2201Z" fill="white" stroke="primary.800" stroke-linecap="round" stroke-linejoin="round"/>
    <path d="M19.9422 29.0515C19.9422 30.9691 16.4622 35.2999 16.4622 35.2999C16.4622 35.2999 12.9894 30.9667 12.9894 29.0491C12.9894 28.1281 13.3553 27.2447 14.0065 26.5935C14.6578 25.9422 15.5411 25.5763 16.4622 25.5763C17.3832 25.5763 18.2665 25.9422 18.9178 26.5935C19.5691 27.2447 19.935 28.1281 19.935 29.0491L19.9422 29.0515Z" fill="white" stroke="primary.800" stroke-linecap="round" stroke-linejoin="round"/>
    <path d="M69.9502 20.7165C69.9502 24.9357 62.3098 35.3001 62.3098 35.3001C62.3098 35.3001 54.6694 24.9333 54.6694 20.7141C54.6694 18.6878 55.4744 16.7444 56.9072 15.3116C58.3401 13.8787 60.2834 13.0737 62.3098 13.0737C64.3362 13.0737 66.2795 13.8787 67.7124 15.3116C69.1452 16.7444 69.9502 18.6878 69.9502 20.7141V20.7165Z" fill="white" stroke="primary.800" stroke-linecap="round" stroke-linejoin="round"/>
    <path d="M62.3101 24.1895C64.228 24.1895 65.7829 22.6347 65.7829 20.7167C65.7829 18.7987 64.228 17.2439 62.3101 17.2439C60.3921 17.2439 58.8372 18.7987 58.8372 20.7167C58.8372 22.6347 60.3921 24.1895 62.3101 24.1895Z" fill="primary.200" stroke="primary.800" stroke-linecap="round" stroke-linejoin="round"/>
</svg>
