<svg viewBox="0 0 94 95" fill="none" xmlns="http://www.w3.org/2000/svg">
    <path d="M46.9666 95.0001C72.9059 95.0001 93.9339 73.9721 93.9339 48.0328C93.9339 22.0935 72.9059 1.06549 46.9666 1.06549C21.0273 1.06549 -0.000732422 22.0935 -0.000732422 48.0328C-0.000732422 73.9721 21.0273 95.0001 46.9666 95.0001Z" fill="primary.150"/>
    <path d="M45.7595 88.3751C52.9965 88.3751 58.8633 87.4951 58.8633 86.4096C58.8633 85.324 52.9965 84.444 45.7595 84.444C38.5224 84.444 32.6556 85.324 32.6556 86.4096C32.6556 87.4951 38.5224 88.3751 45.7595 88.3751Z" fill="primary.200"/>
    <path d="M41.5963 2.49929L27.2805 56.4992C27.061 57.3272 27.5543 58.1764 28.3824 58.396L68.1326 68.9341C68.9607 69.1536 69.8099 68.6603 70.0294 67.8322L84.3452 13.8323C84.5647 13.0043 84.0714 12.1551 83.2434 11.9356L43.4931 1.39746C42.6651 1.17794 41.8158 1.67125 41.5963 2.49929Z" fill="white" stroke="primary.800" stroke-linecap="round" stroke-linejoin="round"/>
    <path d="M49.2843 6.37769L9.91022 18.2444C9.09002 18.4916 8.6255 19.3569 8.8727 20.1771L24.9934 73.6659C25.2406 74.4861 26.1059 74.9507 26.9261 74.7035L66.3002 62.8367C67.1204 62.5895 67.5849 61.7242 67.3377 60.904L51.217 7.41522C50.9698 6.59501 50.1045 6.1305 49.2843 6.37769Z" fill="white" stroke="primary.800" stroke-linecap="round" stroke-linejoin="round"/>
    <path d="M26.3844 18.2703L22.9311 74.0287C22.8781 74.8837 23.5283 75.6198 24.3833 75.6727L65.4281 78.2148C66.2831 78.2677 67.0192 77.6175 67.0721 76.7625L70.5254 21.0041C70.5784 20.1491 69.9282 19.413 69.0732 19.3601L28.0284 16.818C27.1734 16.7651 26.4374 17.4153 26.3844 18.2703Z" fill="primary.200" stroke="primary.800" stroke-linecap="round" stroke-linejoin="round"/>
    <path d="M58.3981 57.6778L34.1418 56.2136C31.7777 56.0709 29.7456 57.8717 29.6029 60.2358C29.4602 62.5999 31.261 64.632 33.625 64.7747L57.8813 66.2389C60.2454 66.3817 62.2776 64.5809 62.4203 62.2168C62.563 59.8527 60.7622 57.8205 58.3981 57.6778Z" fill="white" stroke="primary.800" stroke-linecap="round" stroke-linejoin="round"/>
    <path d="M36.0779 59.37L36.0049 59.83L35.9893 59.3662C35.9849 59.2359 35.9706 59.0923 35.9587 58.972C35.9566 58.9511 35.9546 58.931 35.9527 58.9117C35.9404 58.7847 35.9341 58.6982 35.9346 58.6417C35.9428 58.6128 35.9597 58.587 35.9832 58.5679C36.0115 58.545 36.0474 58.5335 36.0838 58.5357C36.1201 58.5379 36.1543 58.5536 36.1797 58.5798C36.2008 58.6015 36.2145 58.6292 36.2191 58.6589C36.2128 58.7154 36.1962 58.8009 36.1689 58.9251C36.1644 58.9454 36.1596 58.9668 36.1547 58.9889C36.1287 59.1056 36.0979 59.2438 36.0779 59.37ZM35.1832 59.7781L35.9222 60.3512L35.9214 60.3561L35.9124 60.3489L35.9138 60.3876L35.1506 59.9198C35.0403 59.8522 34.9171 59.7931 34.8195 59.7463C34.8127 59.7431 34.806 59.7399 34.7995 59.7368C34.688 59.6832 34.6036 59.6416 34.534 59.5978C34.4796 59.5637 34.4534 59.5397 34.442 59.5273L34.4426 59.5173L34.4423 59.4984C34.442 59.4746 34.4463 59.4509 34.4551 59.4288C34.4639 59.4067 34.477 59.3865 34.4936 59.3694C34.5102 59.3524 34.53 59.3387 34.5518 59.3293C34.5644 59.3239 34.5776 59.32 34.591 59.3175C34.6085 59.3252 34.6495 59.3462 34.7235 59.4022C34.7812 59.4458 34.8431 59.4979 34.9221 59.5644L34.9265 59.5681C35.0012 59.6311 35.0883 59.7045 35.1832 59.7781ZM35.906 60.4531L35.916 60.4469L35.9161 60.4488L35.1114 60.9353C35.0049 60.9997 34.9071 61.0652 34.8234 61.1214L34.8164 61.1261C34.7323 61.1827 34.6663 61.227 34.6047 61.2641C34.5312 61.3084 34.4892 61.326 34.4694 61.333C34.4342 61.3204 34.4032 61.2976 34.3805 61.2672C34.3501 61.2267 34.337 61.1758 34.344 61.1256L34.3467 61.1062L34.3473 61.0959C34.36 61.0852 34.3884 61.0651 34.445 61.0388C34.5183 61.0047 34.6066 60.9742 34.7223 60.9363C34.7319 60.9332 34.7418 60.9299 34.7519 60.9266C34.8517 60.8941 34.9761 60.8535 35.0884 60.8047L35.9066 60.4494L35.906 60.4531ZM35.8641 61.4398L35.9355 60.9799L35.9525 61.4468C35.9572 61.575 35.9712 61.7161 35.9829 61.8352C35.9852 61.8576 35.9873 61.8793 35.9893 61.8999C36.0012 62.0234 36.0074 62.1092 36.0071 62.1664C35.9984 62.194 35.9817 62.2186 35.9588 62.2369C35.9304 62.2595 35.8947 62.2708 35.8584 62.2686C35.8222 62.2664 35.7881 62.2509 35.7626 62.225C35.7421 62.2041 35.7284 62.1777 35.7231 62.1493C35.7298 62.0929 35.7463 62.0088 35.7731 61.8872C35.7773 61.8684 35.7817 61.8487 35.7862 61.8283C35.8126 61.7103 35.8441 61.5692 35.8641 61.4398ZM37.3186 59.5559C37.397 59.5093 37.4386 59.4946 37.4566 59.4899C37.4986 59.5018 37.5361 59.5266 37.5635 59.5613C37.597 59.6035 37.6129 59.6571 37.6079 59.7108L37.6072 59.7182C37.5944 59.7291 37.5655 59.7496 37.5075 59.7767C37.4329 59.8116 37.3432 59.8428 37.2251 59.8822C37.2167 59.885 37.2082 59.8879 37.1994 59.8908C37.0964 59.925 36.9683 59.9677 36.8513 60.0194L36.028 60.3836L36.0284 60.3809L36.0235 60.3838L36.0234 60.3799L36.8364 59.8725C36.9316 59.8131 37.0201 59.753 37.096 59.7014C37.1012 59.6979 37.1064 59.6943 37.1116 59.6909C37.1946 59.6345 37.2593 59.5911 37.3186 59.5559ZM36.7666 61.0398L36.1604 60.5495L36.8091 60.9129C36.9121 60.9706 37.0274 61.0231 37.1215 61.0659C37.1344 61.0718 37.1469 61.0775 37.1589 61.083C37.2696 61.1336 37.3542 61.1743 37.4226 61.2166C37.4761 61.2497 37.5017 61.2731 37.5126 61.2849L37.5125 61.2865L37.5122 61.2953C37.5108 61.3518 37.4879 61.4056 37.448 61.4457C37.417 61.477 37.3775 61.4981 37.3348 61.5067C37.3167 61.4982 37.2786 61.4768 37.2127 61.4244C37.1572 61.3801 37.0981 61.3275 37.0213 61.259C36.9481 61.1937 36.8617 61.1166 36.7666 61.0398Z" fill="#4550E5" stroke="primary.800"/>
    <path d="M42.7759 59.7755L42.7046 60.234L42.6875 59.7685C42.6828 59.6409 42.6688 59.4999 42.6571 59.381C42.6548 59.3584 42.6527 59.3367 42.6507 59.316C42.6385 59.1894 42.6323 59.1025 42.6328 59.0457C42.641 59.0168 42.6579 58.9909 42.6815 58.9718C42.7098 58.9489 42.7456 58.9374 42.782 58.9396C42.8184 58.9418 42.8526 58.9575 42.8779 58.9837C42.899 59.0054 42.9127 59.0331 42.9173 59.0628C42.911 59.1189 42.8944 59.2041 42.8668 59.3286C42.8627 59.3475 42.8583 59.3673 42.8537 59.3878C42.8273 59.5058 42.7959 59.6466 42.7759 59.7755ZM41.8814 60.182L42.6233 60.7573L42.6227 60.761L42.6142 60.7541L42.6156 60.7941L41.848 60.3236C41.7377 60.2561 41.6145 60.197 41.5169 60.1502C41.5101 60.1469 41.5034 60.1438 41.4969 60.1406C41.3854 60.0871 41.3009 60.0454 41.2313 60.0017C41.1769 59.9675 41.1508 59.9436 41.1394 59.9312L41.14 59.9212L41.1397 59.9023C41.1394 59.8785 41.1437 59.8548 41.1525 59.8327C41.1613 59.8105 41.1744 59.7903 41.191 59.7733C41.2077 59.7562 41.2275 59.7426 41.2494 59.7332C41.2621 59.7277 41.2753 59.7238 41.2888 59.7214C41.3062 59.729 41.3472 59.7501 41.4216 59.8062C41.4793 59.8499 41.5414 59.9019 41.6204 59.9685L41.6252 59.9726C41.6999 60.0354 41.7868 60.1087 41.8814 60.182ZM42.6079 60.8562L42.6174 60.8502L42.6174 60.8508L41.8096 61.3392C41.7033 61.4035 41.6054 61.469 41.5217 61.5252L41.5153 61.5295C41.4309 61.5862 41.3646 61.6307 41.3027 61.668C41.2293 61.7122 41.1873 61.7298 41.1674 61.7368C41.1321 61.7242 41.101 61.7014 41.0782 61.6709C41.0477 61.6302 41.0345 61.5792 41.0415 61.5288L41.0441 61.5098L41.0447 61.4998C41.0574 61.4891 41.0858 61.469 41.1424 61.4427C41.2157 61.4085 41.304 61.3781 41.4197 61.3402C41.4293 61.337 41.4392 61.3338 41.4493 61.3305C41.5491 61.2979 41.6735 61.2573 41.7858 61.2085L42.6087 60.8512L42.6079 60.8562ZM42.5621 61.8453L42.6352 61.384L42.6507 61.8491C42.655 61.9799 42.6693 62.1238 42.6813 62.2441C42.6834 62.2649 42.6854 62.285 42.6872 62.3042C42.6993 62.4281 42.7055 62.5135 42.7054 62.5703C42.6966 62.598 42.6799 62.6225 42.657 62.6408C42.6286 62.6634 42.5929 62.6747 42.5567 62.6725C42.5204 62.6704 42.4863 62.6548 42.4609 62.6289C42.4404 62.6081 42.4267 62.5816 42.4213 62.5531C42.428 62.4964 42.4444 62.412 42.4711 62.2908C42.4756 62.2705 42.4803 62.2493 42.4852 62.2273C42.5112 62.1105 42.5421 61.972 42.5621 61.8453ZM44.0154 59.9591C44.0942 59.9121 44.1355 59.8978 44.1533 59.8934C44.1959 59.9052 44.2339 59.9302 44.2617 59.9651C44.2952 60.0074 44.3111 60.061 44.3061 60.1147L44.3054 60.1219C44.2926 60.1328 44.2636 60.1534 44.2055 60.1805C44.1308 60.2154 44.0409 60.2467 43.9227 60.2861C43.9144 60.2888 43.9059 60.2917 43.8972 60.2946C43.7941 60.3288 43.6658 60.3715 43.5486 60.4233L42.73 60.7854L42.7305 60.7825L42.7249 60.7858L42.7248 60.783L43.5351 60.2761C43.6311 60.2161 43.7201 60.1553 43.796 60.1034C43.8007 60.1002 43.8053 60.097 43.8099 60.0939C43.8926 60.0374 43.9566 59.9942 44.0154 59.9591ZM43.4653 61.444L42.8649 60.9573L43.5065 61.3168C43.6096 61.3745 43.7251 61.427 43.8193 61.4699C43.8321 61.4757 43.8446 61.4814 43.8565 61.4869C43.9673 61.5375 44.0521 61.5783 44.1206 61.6206C44.1742 61.6537 44.1998 61.6771 44.2108 61.689L44.2107 61.6904L44.2105 61.6992C44.2091 61.7557 44.186 61.8096 44.1462 61.8496C44.115 61.881 44.0753 61.9021 44.0324 61.9106C44.0144 61.9022 43.9763 61.8809 43.9104 61.8283C43.8549 61.7842 43.796 61.7316 43.7194 61.6632L43.7189 61.6628C43.646 61.5976 43.5599 61.5207 43.4653 61.444Z" fill="#4550E5" stroke="primary.800"/>
    <path d="M49.4735 60.1774L49.4005 60.6374L49.3849 60.1736C49.3805 60.0433 49.3662 59.8997 49.3543 59.7794C49.3522 59.7586 49.3502 59.7384 49.3483 59.7191C49.336 59.5922 49.3297 59.5056 49.3302 59.4491C49.3383 59.4202 49.3552 59.3944 49.3788 59.3753C49.4071 59.3524 49.443 59.3409 49.4793 59.3431C49.5157 59.3453 49.5499 59.361 49.5753 59.3872C49.5964 59.409 49.6101 59.4367 49.6147 59.4664C49.6083 59.5228 49.5918 59.6083 49.5644 59.7325C49.5599 59.7529 49.5552 59.7742 49.5503 59.7963C49.5243 59.913 49.4935 60.0512 49.4735 60.1774ZM48.5788 60.5856L49.3177 61.1586L49.317 61.1636L49.308 61.1563L49.3094 61.195L48.5461 60.7272C48.4359 60.6596 48.3127 60.6006 48.2151 60.5538C48.2083 60.5505 48.2016 60.5473 48.1951 60.5442C48.0835 60.4906 47.9991 60.449 47.9295 60.4053C47.8751 60.3711 47.8489 60.3471 47.8376 60.3347L47.8382 60.3248L47.8379 60.3058C47.8375 60.282 47.8419 60.2584 47.8507 60.2362C47.8595 60.2141 47.8725 60.1939 47.8891 60.1768C47.9057 60.1598 47.9255 60.1462 47.9474 60.1367C47.96 60.1313 47.9731 60.1274 47.9865 60.125C48.0041 60.1326 48.045 60.1537 48.1191 60.2097C48.1767 60.2533 48.2387 60.3053 48.3177 60.3719L48.3221 60.3756C48.3968 60.4385 48.4839 60.512 48.5788 60.5856ZM49.3016 61.2605L49.3116 61.2543L49.3116 61.2562L48.5069 61.7427C48.4005 61.8071 48.3027 61.8726 48.219 61.9289L48.212 61.9335C48.1278 61.9901 48.0618 62.0344 48.0002 62.0716C47.9268 62.1159 47.8848 62.1335 47.865 62.1404C47.8298 62.1278 47.7988 62.1051 47.776 62.0747C47.7457 62.0341 47.7326 61.9832 47.7396 61.933L47.7423 61.9137L47.7429 61.9034C47.7556 61.8927 47.784 61.8726 47.8406 61.8462C47.9139 61.8121 48.0022 61.7817 48.1179 61.7437C48.1275 61.7406 48.1374 61.7374 48.1475 61.7341C48.2473 61.7015 48.3717 61.6609 48.484 61.6121L49.3022 61.2568L49.3016 61.2605ZM49.2597 62.2473L49.331 61.7874L49.3481 62.2542C49.3528 62.3824 49.3667 62.5236 49.3785 62.6427C49.3807 62.6651 49.3829 62.6867 49.3848 62.7073C49.3968 62.8309 49.4029 62.9167 49.4027 62.9738C49.394 63.0014 49.3772 63.026 49.3543 63.0443C49.326 63.0669 49.2902 63.0783 49.254 63.0761C49.2178 63.0739 49.1836 63.0583 49.1582 63.0325C49.1377 63.0116 49.124 62.9852 49.1187 62.9567C49.1254 62.9003 49.1418 62.8162 49.1687 62.6947C49.1728 62.6758 49.1772 62.6561 49.1818 62.6358C49.2081 62.5177 49.2396 62.3767 49.2597 62.2473ZM50.7142 60.3633C50.7926 60.3168 50.8342 60.302 50.8522 60.2973C50.8942 60.3092 50.9317 60.3341 50.9591 60.3687C50.9926 60.411 51.0085 60.4645 51.0034 60.5182L51.0027 60.5256C50.9899 60.5365 50.961 60.557 50.9031 60.5841C50.8285 60.619 50.7388 60.6503 50.6207 60.6897C50.6123 60.6925 50.6037 60.6953 50.595 60.6982C50.492 60.7325 50.3638 60.7751 50.2468 60.8269L49.4235 61.191L49.4239 61.1883L49.4191 61.1913L49.4189 61.1873L50.232 60.6799C50.3271 60.6206 50.4156 60.5604 50.4915 60.5089C50.4968 60.5053 50.502 60.5018 50.5071 60.4983C50.5902 60.4419 50.6549 60.3985 50.7142 60.3633ZM50.1622 61.8472L49.556 61.3569L50.2047 61.7203C50.3077 61.778 50.423 61.8305 50.5171 61.8733C50.53 61.8792 50.5425 61.8849 50.5545 61.8904C50.6652 61.941 50.7498 61.9818 50.8182 62.024C50.8717 62.0571 50.8972 62.0805 50.9081 62.0924L50.908 62.094L50.9078 62.1027C50.9064 62.1592 50.8834 62.213 50.8436 62.2531C50.8126 62.2844 50.7731 62.3055 50.7304 62.3141C50.7122 62.3056 50.6741 62.2842 50.6083 62.2318C50.5528 62.1875 50.4937 62.1349 50.4169 62.0665C50.3437 62.0012 50.2572 61.9241 50.1622 61.8472Z" fill="#4550E5" stroke="primary.800"/>
    <path d="M56.1715 60.5839L56.1002 61.0424L56.0831 60.5769C56.0784 60.4493 56.0645 60.3083 56.0527 60.1894C56.0505 60.1668 56.0483 60.1451 56.0463 60.1244C56.0341 59.9978 56.028 59.9109 56.0285 59.8541C56.0366 59.8252 56.0535 59.7993 56.0771 59.7802C56.1054 59.7573 56.1413 59.7458 56.1776 59.748C56.214 59.7502 56.2482 59.7659 56.2736 59.7921C56.2947 59.8139 56.3083 59.8415 56.3129 59.8712C56.3066 59.9273 56.29 60.0125 56.2625 60.137C56.2583 60.156 56.2539 60.1757 56.2493 60.1962C56.223 60.3142 56.1915 60.455 56.1715 60.5839ZM55.2771 60.9904L56.0189 61.5657L56.0184 61.5694L56.0099 61.5625L56.0112 61.6026L55.2436 61.132C55.1333 61.0645 55.0102 61.0054 54.9125 60.9586C54.9057 60.9554 54.899 60.9522 54.8925 60.949C54.781 60.8955 54.6966 60.8538 54.627 60.8101C54.5726 60.776 54.5464 60.752 54.535 60.7396L54.5356 60.7296L54.5354 60.7107C54.535 60.6869 54.5393 60.6632 54.5481 60.6411C54.5569 60.6189 54.57 60.5987 54.5867 60.5817C54.6033 60.5646 54.6231 60.551 54.645 60.5416C54.6577 60.5362 54.6709 60.5322 54.6844 60.5298C54.7019 60.5374 54.7429 60.5585 54.8172 60.6146C54.8749 60.6583 54.937 60.7103 55.016 60.7769L55.0209 60.781C55.0955 60.8438 55.1824 60.9171 55.2771 60.9904ZM56.0036 61.6646L56.0131 61.6587L56.0131 61.6592L55.2052 62.1476C55.0989 62.2119 55.0011 62.2774 54.9173 62.3336L54.9109 62.3379C54.8265 62.3946 54.7602 62.4391 54.6984 62.4764C54.6249 62.5206 54.5829 62.5382 54.5631 62.5453C54.5278 62.5326 54.4966 62.5098 54.4738 62.4793C54.4434 62.4386 54.4302 62.3876 54.4371 62.3372L54.4398 62.3182L54.4404 62.3082C54.453 62.2975 54.4815 62.2774 54.538 62.2511C54.6113 62.2169 54.6997 62.1865 54.8153 62.1486C54.8249 62.1454 54.8348 62.1422 54.8449 62.1389C54.9447 62.1063 55.0691 62.0657 55.1814 62.0169L56.0043 61.6596L56.0036 61.6646ZM55.9578 62.6537L56.0308 62.1924L56.0463 62.6575C56.0507 62.7884 56.065 62.9322 56.0769 63.0526C56.079 63.0733 56.081 63.0934 56.0829 63.1126C56.0949 63.2365 56.1012 63.3219 56.101 63.3788C56.0923 63.4064 56.0755 63.4309 56.0526 63.4492C56.0243 63.4718 55.9885 63.4831 55.9523 63.481C55.9161 63.4788 55.8819 63.4632 55.8565 63.4373C55.836 63.4165 55.8223 63.39 55.817 63.3616C55.8236 63.3048 55.8401 63.2204 55.8667 63.0992C55.8712 63.0789 55.8759 63.0577 55.8808 63.0357C55.9068 62.9189 55.9377 62.7804 55.9578 62.6537ZM57.4111 60.7675C57.4898 60.7206 57.5311 60.7062 57.5489 60.7019C57.5915 60.7136 57.6296 60.7386 57.6573 60.7735C57.6908 60.8158 57.7068 60.8694 57.7017 60.9232L57.7011 60.9303C57.6882 60.9412 57.6592 60.9618 57.6012 60.9889C57.5264 61.0238 57.4366 61.0551 57.3184 61.0945C57.3101 61.0972 57.3015 61.1001 57.2929 61.103C57.1898 61.1372 57.0614 61.1799 56.9443 61.2317L56.1256 61.5938L56.1261 61.5909L56.1206 61.5942L56.1205 61.5915L56.9308 61.0845C57.0268 61.0245 57.1157 60.9637 57.1916 60.9118C57.1963 60.9086 57.2009 60.9054 57.2055 60.9023C57.2882 60.8458 57.3522 60.8026 57.4111 60.7675ZM56.8609 62.2524L56.2606 61.7657L56.9022 62.1252C57.0052 62.1829 57.1207 62.2355 57.2149 62.2783C57.2277 62.2842 57.2402 62.2898 57.2522 62.2953C57.363 62.346 57.4477 62.3867 57.5162 62.429C57.5698 62.4621 57.5955 62.4856 57.6064 62.4975L57.6063 62.4988L57.6061 62.5076C57.6047 62.5641 57.5817 62.618 57.5418 62.6581C57.5106 62.6894 57.4709 62.7105 57.4281 62.719C57.41 62.7106 57.3719 62.6893 57.306 62.6367C57.2506 62.5926 57.1916 62.54 57.115 62.4716L57.1145 62.4712C57.0416 62.406 56.9555 62.3291 56.8609 62.2524Z" fill="#4550E5" stroke="primary.800"/>
    <path d="M47.4401 49.4765C54.1865 49.8837 59.9856 44.7449 60.3928 37.9985C60.8001 31.2522 55.6612 25.453 48.9149 25.0458C42.1685 24.6385 36.3694 29.7774 35.9621 36.5238C35.5549 43.2701 40.6938 49.0692 47.4401 49.4765Z" fill="white" stroke="primary.800" stroke-linecap="round" stroke-linejoin="round"/>
    <path d="M44.262 36.7421C44.2192 37.2646 44.2811 37.7904 44.4442 38.2887C44.6073 38.7869 44.8682 39.2476 45.2117 39.6436C45.5552 40.0397 45.9742 40.3632 46.4444 40.5952C46.9145 40.8271 47.4262 40.9629 47.9495 40.9945C48.4728 41.0261 48.9972 40.9529 49.4918 40.7791C49.9864 40.6054 50.4414 40.3347 50.83 39.9828C51.2186 39.6309 51.5331 39.205 51.7549 38.73C51.9767 38.255 52.1015 37.7404 52.1219 37.2166L52.2405 35.2507C52.2805 34.2217 51.9158 33.2179 51.2246 32.4546C50.5334 31.6912 49.5707 31.229 48.5428 31.1669C47.5149 31.1049 46.5035 31.4479 45.7255 32.1226C44.9475 32.7973 44.4647 33.7499 44.3806 34.7763L44.262 36.7421Z" fill="white" stroke="primary.800" stroke-linecap="round" stroke-linejoin="round"/>
    <path d="M55.7943 46.8404C53.4308 48.7194 50.456 49.6582 47.442 49.4763C44.4281 49.2944 41.5878 48.0045 39.4674 45.8548C40.2356 44.2852 41.4508 42.9778 42.9602 42.0972C44.4697 41.2165 46.2059 40.8021 47.9503 40.9059C49.6947 41.0098 51.3695 41.6273 52.7638 42.6808C54.1581 43.7342 55.2096 45.1766 55.7861 46.8263" fill="primary.150"/>
    <path d="M55.7943 46.8404C53.4308 48.7194 50.456 49.6582 47.442 49.4763C44.4281 49.2944 41.5878 48.0045 39.4674 45.8548C40.2356 44.2852 41.4508 42.9778 42.9602 42.0972C44.4697 41.2165 46.2059 40.8021 47.9503 40.9059C49.6947 41.0098 51.3695 41.6273 52.7638 42.6808C54.1581 43.7342 55.2096 45.1766 55.7861 46.8263" stroke="primary.800" stroke-linecap="round" stroke-linejoin="round"/>
    <path d="M44.4455 34.2712C44.5969 33.485 44.9842 32.7636 45.556 32.2032C46.1277 31.6428 46.8567 31.2699 47.6457 31.1344C48.4348 30.9988 49.2464 31.107 49.9724 31.4444C50.6984 31.7819 51.3044 32.3326 51.7094 33.0232C50.7248 33.8688 49.5292 34.4315 48.25 34.6512C46.9708 34.871 45.656 34.7397 44.4455 34.2712V34.2712Z" fill="white" stroke="primary.800" stroke-linecap="round" stroke-linejoin="round"/>
</svg>
