<svg viewBox="0 0 96 96" fill="none" xmlns="http://www.w3.org/2000/svg">
<path d="M0 48C0 60.7304 5.05713 72.9394 14.0589 81.9411C23.0606 90.9429 35.2696 96 48 96C60.7304 96 72.9394 90.9429 81.9411 81.9411C90.9429 72.9394 96 60.7304 96 48C96 35.2696 90.9429 23.0606 81.9411 14.0589C72.9394 5.05713 60.7304 0 48 0C35.2696 0 23.0606 5.05713 14.0589 14.0589C5.05713 23.0606 0 35.2696 0 48Z" fill="primary.150"/>
<path d="M37 89.5948C36.4477 89.5948 36 89.1471 36 88.5948V59.3968C35.998 59.0044 36.1492 58.6268 36.4216 58.3443C36.6939 58.0619 37.0658 57.897 37.458 57.8848H57.8736C58.266 57.8967 58.6382 58.0614 58.9108 58.3439C59.1834 58.6264 59.3349 59.0042 59.3328 59.3968V88.5948C59.3328 89.1471 58.8851 89.5948 58.3328 89.5948H37Z" fill="primary.200"/>
<path fill-rule="evenodd" clip-rule="evenodd" d="M37 59.3968V87.5948C37 88.1471 37.4477 88.5948 38 88.5948H57.3328C57.8851 88.5948 58.3328 88.1471 58.3328 87.5948V59.3915C58.3335 59.2598 58.2827 59.1331 58.1913 59.0383C58.1024 58.9462 57.982 58.8914 57.8544 58.8848H37.4777C37.3504 58.8916 37.2302 58.9464 37.1414 59.0384C37.0501 59.1332 36.9993 59.2599 37 59.3915L37 59.3968ZM37.458 57.8848C37.0658 57.897 36.6939 58.0619 36.4216 58.3443C36.1492 58.6268 35.998 59.0044 36 59.3968V88.5948C36 89.1471 36.4477 89.5948 37 89.5948H58.3328C58.8851 89.5948 59.3328 89.1471 59.3328 88.5948V59.3968C59.3349 59.0042 59.1834 58.6264 58.9108 58.3439C58.6382 58.0614 58.266 57.8967 57.8736 57.8848" fill="primary.800"/>
<path d="M69.5664 30.3836C69.2956 30.1126 68.974 29.8975 68.6201 29.7508C68.2661 29.6042 67.8868 29.5286 67.5036 29.5286C67.1205 29.5286 66.7411 29.6042 66.3871 29.7508C66.0332 29.8975 65.7116 30.1126 65.4408 30.3836C64.9308 30.8936 61.3284 34.9436 60.4704 34.8992C58.6308 34.7972 57.0444 31.52 57.504 28.1192L59.6472 10.1312C59.7082 9.75051 59.6931 9.36152 59.6028 8.98671C59.5125 8.61189 59.3488 8.2587 59.1212 7.94753C58.8936 7.63637 58.6065 7.37341 58.2766 7.17386C57.9468 6.97431 57.5806 6.84213 57.1993 6.78495C56.8181 6.72778 56.4292 6.74675 56.0554 6.84076C55.6815 6.93477 55.3299 7.10197 55.021 7.33268C54.7121 7.56339 54.452 7.85304 54.2558 8.18488C54.0595 8.51672 53.931 8.88417 53.8776 9.26599L51.666 26.15L52.146 7.02679C52.1761 6.64284 52.1298 6.25674 52.0098 5.89077C51.8899 5.52479 51.6987 5.18619 51.4472 4.8945C51.1957 4.6028 50.889 4.36379 50.5447 4.19124C50.2004 4.01869 49.8253 3.91603 49.4411 3.88918C49.0569 3.86233 48.6712 3.91181 48.3062 4.03478C47.9413 4.15775 47.6043 4.35177 47.3147 4.60565C47.0251 4.85952 46.7886 5.16823 46.6189 5.51396C46.4492 5.85969 46.3497 6.2356 46.326 6.61999L45.9852 26.1476L45.0912 8.80759C45.0675 8.4232 44.968 8.04729 44.7983 7.70156C44.6286 7.35583 44.3922 7.04712 44.1026 6.79325C43.813 6.53937 43.4759 6.34535 43.111 6.22238C42.746 6.09941 42.3603 6.04993 41.9761 6.07678C41.5919 6.10363 41.2169 6.2063 40.8726 6.37884C40.5282 6.55139 40.2215 6.7904 39.97 7.0821C39.7186 7.37379 39.5273 7.71239 39.4074 8.07837C39.2875 8.44434 39.2412 8.83044 39.2712 9.21439L39.5472 13.1612C39.1621 12.6507 38.6195 12.2813 38.0034 12.1101C37.3872 11.939 36.7319 11.9757 36.1387 12.2145C35.5455 12.4533 35.0475 12.881 34.7218 13.4313C34.3961 13.9816 34.2608 14.6239 34.3368 15.2588L36.3468 34.9892C36.5013 40.0374 37.3666 45.0386 38.9172 49.8452V54.5096H56.0328C56.0328 51.0296 59.1084 48.0296 69.5664 34.5092C70.1132 33.962 70.4204 33.22 70.4204 32.4464C70.4204 31.6728 70.1132 30.9308 69.5664 30.3836Z" fill="white"/>
<path fill-rule="evenodd" clip-rule="evenodd" d="M66.1479 31.0907C66.0768 31.1618 65.9331 31.3159 65.7257 31.5383C65.6045 31.6682 65.4617 31.8213 65.299 31.9948C64.8734 32.4484 64.34 33.0101 63.7929 33.5567C63.2499 34.0993 62.6755 34.6451 62.1704 35.0582C61.9198 35.2631 61.6625 35.4551 61.4187 35.5994C61.2966 35.6717 61.158 35.744 61.0102 35.7988C60.8721 35.8501 60.6627 35.9105 60.4187 35.8979L60.4151 35.8977C58.917 35.8146 57.8273 34.5134 57.214 33.1586C56.5667 31.7288 56.2595 29.8728 56.5119 27.9933L58.6566 9.99292L58.6598 9.97306C58.6999 9.72288 58.6899 9.46723 58.6306 9.2209C58.5713 8.97457 58.4637 8.74245 58.3141 8.53795C58.1645 8.33345 57.9758 8.16063 57.759 8.02949C57.5423 7.89834 57.3016 7.81147 57.051 7.7739C56.8005 7.73632 56.5449 7.74879 56.2992 7.81057C56.0535 7.87236 55.8224 7.98224 55.6194 8.13386C55.4164 8.28549 55.2455 8.47585 55.1165 8.69393C54.9882 8.9109 54.9039 9.15103 54.8685 9.40058L52.6575 26.2799L50.6663 26.1249L51.147 6.97521L51.1491 6.9488C51.1688 6.69647 51.1384 6.44272 51.0596 6.2022C50.9807 5.96169 50.8551 5.73915 50.6898 5.54745C50.5245 5.35574 50.3229 5.19866 50.0967 5.08526C49.8704 4.97186 49.6239 4.90439 49.3714 4.88675C49.1189 4.8691 48.8654 4.90162 48.6255 4.98244C48.3857 5.06325 48.1642 5.19076 47.9739 5.35761C47.7835 5.52446 47.6281 5.72735 47.5166 5.95456C47.408 6.17587 47.3431 6.416 47.3254 6.66178L46.9851 26.165L44.9865 26.1991L44.0928 8.86462C44.0768 8.61353 44.0115 8.36804 43.9006 8.14216C43.7891 7.91495 43.6337 7.71206 43.4434 7.54521C43.253 7.37837 43.0315 7.25086 42.7917 7.17004C42.5518 7.08922 42.2983 7.0567 42.0458 7.07435C41.7934 7.092 41.5469 7.15947 41.3206 7.27286C41.0943 7.38626 40.8927 7.54334 40.7274 7.73505C40.5622 7.92675 40.4365 8.14929 40.3577 8.3898C40.2788 8.63031 40.2484 8.88406 40.2682 9.1364L40.2688 9.14463L41.1072 26.1249L40.1527 26.1991L39.2712 14.8986L38.7489 13.7634C38.4962 13.4284 38.1401 13.186 37.7358 13.0737C37.3315 12.9614 36.9014 12.9854 36.5121 13.1422C36.1229 13.2989 35.7961 13.5795 35.5823 13.9406C35.3686 14.3017 35.2798 14.7232 35.3297 15.1399L35.3308 15.1486L37.3453 34.9232L37.3463 34.9586C37.4979 39.9129 38.3471 44.821 39.8689 49.5382L39.9172 49.6879V53.5096H55.1083C55.3703 51.7982 56.3203 50.1082 58.0672 47.6891C59.2952 45.9885 60.9843 43.8428 63.2259 40.9953C64.7947 39.0024 66.6341 36.6658 68.7754 33.8974L68.8142 33.8472L68.859 33.8024C69.2185 33.4426 69.4204 32.9549 69.4204 32.4464C69.4204 31.9379 69.2185 31.4501 68.859 31.0904L69.5664 30.3836C70.1132 30.9308 70.4204 31.6728 70.4204 32.4464C70.4204 33.22 70.1132 33.962 69.5664 34.5092C67.4047 37.3039 65.5585 39.6491 63.9896 41.6419C57.9684 49.2903 56.0328 51.7489 56.0328 54.5096H38.9172V49.8452C37.3666 45.0386 36.5013 40.0374 36.3468 34.9892L34.3368 15.2588C34.2608 14.6239 34.3961 13.9816 34.7218 13.4313C35.0475 12.881 35.5455 12.4533 36.1387 12.2145C36.7319 11.9757 37.3872 11.939 38.0034 12.1101C38.1694 12.1563 38.3302 12.2168 38.4839 12.2906C38.9006 12.4906 39.2659 12.7883 39.5472 13.1612L39.2712 9.21439C39.2412 8.83044 39.2875 8.44434 39.4074 8.07837C39.5273 7.71239 39.7186 7.37379 39.97 7.0821C40.2215 6.7904 40.5282 6.55139 40.8726 6.37884C41.2169 6.2063 41.5919 6.10363 41.9761 6.07678C42.3603 6.04993 42.746 6.09941 43.111 6.22238C43.4759 6.34535 43.813 6.53937 44.1026 6.79325C44.3922 7.04712 44.6286 7.35583 44.7983 7.70156C44.968 8.04729 45.0675 8.4232 45.0912 8.80759L45.9852 26.1476L46.326 6.61999C46.3497 6.2356 46.4492 5.85969 46.6189 5.51396C46.7886 5.16823 47.0251 4.85952 47.3147 4.60565C47.6043 4.35177 47.9413 4.15775 48.3062 4.03478C48.6712 3.91181 49.0569 3.86233 49.4411 3.88918C49.8253 3.91603 50.2004 4.01869 50.5447 4.19124C50.889 4.36379 51.1957 4.6028 51.4472 4.8945C51.6987 5.18619 51.8899 5.52479 52.0098 5.89077C52.1298 6.25674 52.1761 6.64284 52.146 7.02679L51.666 26.15L53.8776 9.26599C53.931 8.88417 54.0595 8.51672 54.2558 8.18488C54.452 7.85304 54.7121 7.56339 55.021 7.33268C55.3299 7.10197 55.6815 6.93477 56.0554 6.84076C56.4292 6.74675 56.8181 6.72778 57.1993 6.78495C57.5806 6.84213 57.9468 6.97431 58.2766 7.17386C58.6065 7.37341 58.8936 7.63637 59.1212 7.94753C59.3488 8.2587 59.5125 8.61189 59.6028 8.98671C59.6931 9.36152 59.7082 9.75051 59.6472 10.1312L57.504 28.1192C57.0444 31.52 58.6308 34.7972 60.4704 34.8992C61.1883 34.9363 63.8275 32.1071 64.969 30.8834C65.1918 30.6446 65.3575 30.4669 65.4408 30.3836C65.7116 30.1126 66.0332 29.8975 66.3871 29.7508C66.7411 29.6042 67.1205 29.5286 67.5036 29.5286C67.8868 29.5286 68.2661 29.6042 68.6201 29.7508C68.974 29.8975 69.2956 30.1126 69.5664 30.3836L68.859 31.0904C68.6811 30.9123 68.4698 30.771 68.2372 30.6746C68.0047 30.5783 67.7554 30.5286 67.5036 30.5286C67.2519 30.5286 67.0026 30.5783 66.77 30.6746C66.5375 30.771 66.3259 30.9126 66.1479 31.0907Z" fill="primary.800"/>
<path d="M39.5422 12.1611L40.7626 25.7967L39.5422 12.1611Z" fill="white"/>
<path d="M57.1454 57.88V55.0216C57.1471 54.6292 56.9956 54.2515 56.723 53.9691C56.4505 53.6867 56.0785 53.5218 55.6862 53.5096H39.2594C38.453 53.5096 37.4534 54.2164 37.4534 55.0216V57.88H57.1454Z" fill="white"/>
<path fill-rule="evenodd" clip-rule="evenodd" d="M37.7438 53.5715C38.166 53.2376 38.7239 53.0096 39.2594 53.0096H55.6862L55.7017 53.0099C56.2242 53.0261 56.7198 53.2457 57.0828 53.6219C57.4455 53.9977 57.6473 54.5002 57.6454 55.0225C57.6454 55.023 57.6454 55.0234 57.6454 55.0239L57.1454 55.0216H57.6454V55.0225V57.88C57.6454 58.1562 57.4215 58.38 57.1454 58.38H37.4534C37.1772 58.38 36.9534 58.1562 36.9534 57.88V55.0216C36.9534 54.4095 37.3261 53.9019 37.7438 53.5715ZM38.3641 54.3559C38.0804 54.5802 37.9534 54.8286 37.9534 55.0216V57.38H56.6454V55.0216L56.6454 55.0194C56.6465 54.7572 56.5453 54.505 56.3633 54.3163C56.1828 54.1293 55.9371 54.0195 55.6776 54.0096H39.2594C38.9885 54.0096 38.6434 54.135 38.3641 54.3559Z" fill="primary.800"/>
<path d="M73.1118 88.5947C72.5595 88.5947 72.1118 88.147 72.1118 87.5947V68.6555C72.1105 68.3964 72.2103 68.147 72.3902 67.9605C72.57 67.774 72.8156 67.6652 73.0745 67.6571H86.5546C86.8137 67.665 87.0595 67.7737 87.2395 67.9603C87.4195 68.1468 87.5195 68.3963 87.5181 68.6555V87.5947C87.5181 88.147 87.0704 88.5947 86.5181 88.5947H73.1118Z" fill="primary.200"/>
<path fill-rule="evenodd" clip-rule="evenodd" d="M72.7721 68.6555V86.9345C72.7721 87.4867 73.2198 87.9345 73.7721 87.9345H85.8578C86.4101 87.9345 86.8578 87.4867 86.8578 86.9345V68.652C86.8583 68.565 86.8248 68.4814 86.7644 68.4188C86.7057 68.358 86.6262 68.3218 86.542 68.3174H73.0875C73.0034 68.3219 72.9241 68.3581 72.8655 68.4189C72.8052 68.4814 72.7716 68.5651 72.7721 68.652L72.7721 68.6555ZM73.0745 67.6571C72.8156 67.6652 72.57 67.774 72.3902 67.9605C72.2103 68.147 72.1105 68.3964 72.1118 68.6555V87.5947C72.1118 88.147 72.5595 88.5947 73.1118 88.5947H86.5181C87.0704 88.5947 87.5181 88.147 87.5181 87.5947V68.6555C87.5195 68.3963 87.4195 68.1468 87.2395 67.9603C87.0595 67.7737 86.8137 67.665 86.5546 67.6571" fill="primary.800"/>
<path d="M72.7721 68.6555V86.9344C72.7721 87.4867 73.2198 87.9344 73.7721 87.9344H85.8578C86.4101 87.9344 86.8578 87.4867 86.8578 86.9345V68.652C86.8583 68.565 86.8248 68.4814 86.7644 68.4188C86.7057 68.358 86.6262 68.3218 86.542 68.3174H73.0875C73.0034 68.3219 72.9241 68.3581 72.8655 68.4189C72.8052 68.4814 72.7716 68.5651 72.7721 68.652L72.7721 68.6555ZM72.3902 67.9605C72.57 67.774 72.8156 67.6652 73.0745 67.6571H86.5546C86.8137 67.665 87.0595 67.7737 87.2395 67.9603C87.4195 68.1468 87.5195 68.3963 87.5181 68.6555V87.5947C87.5181 88.147 87.0704 88.5947 86.5181 88.5947H73.1118C72.5595 88.5947 72.1118 88.147 72.1118 87.5947V68.6555C72.1105 68.3964 72.2103 68.147 72.3902 67.9605Z" stroke="primary.800" stroke-width="0.2"/>
<path d="M94.2752 49.4985C94.0964 49.3196 93.8841 49.1776 93.6504 49.0808C93.4167 48.9839 93.1661 48.934 92.9132 48.934C92.6602 48.934 92.4097 48.9839 92.176 49.0808C91.9423 49.1776 91.7299 49.3196 91.5511 49.4985C91.2144 49.8353 88.8358 52.5094 88.2693 52.4801C87.0546 52.4128 86.0071 50.2489 86.3106 48.0034L87.7257 36.1262C87.766 35.8748 87.756 35.618 87.6964 35.3705C87.6368 35.123 87.5287 34.8898 87.3784 34.6844C87.2281 34.4789 87.0385 34.3053 86.8207 34.1735C86.6029 34.0418 86.3612 33.9545 86.1094 33.9167C85.8577 33.879 85.6009 33.8915 85.3541 33.9536C85.1072 34.0156 84.8751 34.126 84.6711 34.2784C84.4671 34.4307 84.2954 34.622 84.1658 34.8411C84.0362 35.0602 83.9514 35.3028 83.9161 35.5549L82.4558 46.7032L82.7728 34.0764C82.7926 33.8229 82.762 33.568 82.6829 33.3263C82.6037 33.0847 82.4774 32.8611 82.3114 32.6685C82.1453 32.4759 81.9428 32.3181 81.7154 32.2041C81.4881 32.0902 81.2404 32.0224 80.9868 32.0047C80.7331 31.987 80.4784 32.0196 80.2374 32.1008C79.9965 32.182 79.7739 32.3101 79.5827 32.4778C79.3915 32.6454 79.2354 32.8492 79.1233 33.0775C79.0113 33.3058 78.9455 33.554 78.9299 33.8078L78.7049 46.7016L78.1146 35.2522C78.099 34.9984 78.0332 34.7502 77.9212 34.5219C77.8092 34.2937 77.653 34.0898 77.4618 33.9222C77.2706 33.7546 77.0481 33.6265 76.8071 33.5453C76.5661 33.4641 76.3114 33.4314 76.0578 33.4491C75.8041 33.4669 75.5564 33.5346 75.3291 33.6486C75.1017 33.7625 74.8992 33.9203 74.7332 34.1129C74.5671 34.3055 74.4409 34.5291 74.3617 34.7707C74.2825 35.0124 74.2519 35.2673 74.2717 35.5208L74.454 38.1269C74.1997 37.7898 73.8415 37.5459 73.4346 37.4329C73.0278 37.3199 72.5951 37.3441 72.2034 37.5018C71.8117 37.6595 71.4829 37.9418 71.2678 38.3052C71.0528 38.6685 70.9634 39.0926 71.0136 39.5119L72.3408 52.5396C72.4428 55.8728 73.0141 59.175 74.038 62.3487V65.4286H85.3392C85.3392 63.1308 87.3699 61.1499 94.2752 52.2226C94.6362 51.8613 94.8391 51.3714 94.8391 50.8606C94.8391 50.3498 94.6362 49.8599 94.2752 49.4985Z" fill="white"/>
<path fill-rule="evenodd" clip-rule="evenodd" d="M92.018 49.9654C91.9711 50.0124 91.8762 50.1142 91.7392 50.261C91.6592 50.3467 91.5649 50.4479 91.4575 50.5624C91.1765 50.8619 90.8243 51.2328 90.4631 51.5937C90.1045 51.952 89.7252 52.3123 89.3917 52.5851C89.2262 52.7204 89.0564 52.8472 88.8954 52.9425C88.8148 52.9902 88.7232 53.0379 88.6256 53.0742C88.5345 53.108 88.3962 53.1479 88.2351 53.1395L88.2327 53.1394C87.2436 53.0846 86.524 52.2254 86.1191 51.3309C85.6917 50.3868 85.4889 49.1613 85.6555 47.9203L87.0716 36.0349L87.0737 36.0218C87.1002 35.8566 87.0936 35.6878 87.0545 35.5251C87.0153 35.3625 86.9442 35.2092 86.8455 35.0742C86.7467 34.9392 86.6221 34.8251 86.479 34.7385C86.3358 34.6519 86.1769 34.5945 86.0115 34.5697C85.846 34.5449 85.6773 34.5531 85.5151 34.5939C85.3528 34.6347 85.2003 34.7073 85.0662 34.8074C84.9322 34.9075 84.8193 35.0332 84.7342 35.1772C84.6494 35.3205 84.5938 35.479 84.5704 35.6438L83.1105 46.7889L81.7958 46.6866L82.1131 34.0423L82.1145 34.0249C82.1275 33.8583 82.1075 33.6908 82.0554 33.5319C82.0034 33.3731 81.9204 33.2262 81.8113 33.0996C81.7021 32.973 81.569 32.8693 81.4196 32.7944C81.2702 32.7196 81.1074 32.675 80.9407 32.6634C80.774 32.6517 80.6066 32.6732 80.4483 32.7265C80.2899 32.7799 80.1436 32.8641 80.018 32.9743C79.8923 33.0844 79.7897 33.2184 79.7161 33.3684C79.6443 33.5146 79.6015 33.6731 79.5898 33.8354L79.3651 46.7131L78.0455 46.7356L77.4554 35.2899C77.4448 35.1241 77.4017 34.962 77.3285 34.8129C77.2548 34.6628 77.1522 34.5289 77.0265 34.4187C76.9009 34.3085 76.7546 34.2244 76.5963 34.171C76.4379 34.1176 76.2705 34.0962 76.1038 34.1078C75.9371 34.1195 75.7743 34.164 75.6249 34.2389C75.4755 34.3138 75.3424 34.4175 75.2333 34.5441C75.1241 34.6706 75.0412 34.8176 74.9891 34.9764C74.9371 35.1352 74.917 35.3027 74.93 35.4693L74.9304 35.4748L75.484 46.6866L74.8538 46.7356L74.2717 39.2741L73.9268 38.5245C73.76 38.3033 73.5249 38.1432 73.2579 38.0691C72.991 37.9949 72.707 38.0108 72.45 38.1143C72.1929 38.2178 71.9772 38.403 71.836 38.6415C71.6949 38.8799 71.6363 39.1582 71.6692 39.4333L71.6699 39.4391L73.0001 52.4959L73.0008 52.5194C73.1009 55.7906 73.6616 59.0313 74.6664 62.146L74.6983 62.2449V64.7683H84.7288C84.9017 63.6383 85.529 62.5224 86.6824 60.9251C87.4933 59.8022 88.6086 58.3855 90.0886 56.5053C91.1245 55.1894 92.339 53.6466 93.7529 51.8186L93.7785 51.7855L93.8081 51.7559C94.0455 51.5184 94.1788 51.1964 94.1788 50.8606C94.1788 50.5248 94.0455 50.2028 93.8081 49.9653L94.2752 49.4985C94.6362 49.8599 94.8391 50.3498 94.8391 50.8606C94.8391 51.3714 94.6362 51.8613 94.2752 52.2226C92.8479 54.0679 91.6288 55.6164 90.5929 56.9322C86.6172 61.9824 85.3392 63.6057 85.3392 65.4286H74.038V62.3487C73.0141 59.175 72.4428 55.8728 72.3408 52.5396L71.0136 39.5119C70.9634 39.0926 71.0528 38.6685 71.2678 38.3052C71.4829 37.9418 71.8117 37.6595 72.2034 37.5018C72.5951 37.3441 73.0278 37.3199 73.4346 37.4329C73.5443 37.4633 73.6504 37.5033 73.7519 37.552C74.027 37.6841 74.2682 37.8806 74.454 38.1269L74.2717 35.5208C74.2519 35.2673 74.2825 35.0124 74.3617 34.7707C74.4409 34.5291 74.5671 34.3055 74.7332 34.1129C74.8992 33.9203 75.1017 33.7625 75.3291 33.6486C75.5564 33.5346 75.8041 33.4669 76.0578 33.4491C76.3114 33.4314 76.5661 33.4641 76.8071 33.5453C77.0481 33.6265 77.2706 33.7546 77.4618 33.9222C77.653 34.0898 77.8092 34.2937 77.9212 34.5219C78.0332 34.7502 78.099 34.9984 78.1146 35.2522L78.7049 46.7016L78.9299 33.8078C78.9455 33.554 79.0113 33.3058 79.1233 33.0775C79.2354 32.8492 79.3915 32.6454 79.5827 32.4778C79.7739 32.3101 79.9965 32.182 80.2374 32.1008C80.4784 32.0196 80.7331 31.987 80.9868 32.0047C81.2404 32.0224 81.4881 32.0902 81.7154 32.2041C81.9428 32.3181 82.1453 32.4759 82.3114 32.6685C82.4774 32.8611 82.6037 33.0847 82.6829 33.3263C82.762 33.568 82.7926 33.8229 82.7728 34.0764L82.4558 46.7032L83.9161 35.5549C83.9514 35.3028 84.0362 35.0602 84.1658 34.8411C84.2954 34.622 84.4671 34.4307 84.6711 34.2784C84.8751 34.126 85.1072 34.0156 85.3541 33.9536C85.6009 33.8915 85.8577 33.879 86.1094 33.9167C86.3612 33.9545 86.6029 34.0418 86.8207 34.1735C87.0385 34.3053 87.2281 34.4789 87.3784 34.6844C87.5287 34.8898 87.6368 35.123 87.6964 35.3705C87.756 35.618 87.766 35.8748 87.7257 36.1262L86.3106 48.0034C86.0071 50.2489 87.0546 52.4128 88.2693 52.4801C88.7433 52.5047 90.4859 50.6366 91.2396 49.8286C91.3867 49.6709 91.4961 49.5535 91.5511 49.4985C91.7299 49.3196 91.9423 49.1776 92.176 49.0808C92.4097 48.9839 92.6602 48.934 92.9132 48.934C93.1662 48.934 93.4167 48.9839 93.6504 49.0808C93.8841 49.1776 94.0964 49.3196 94.2752 49.4985L93.8081 49.9653C93.6906 49.8477 93.5511 49.7544 93.3975 49.6907C93.244 49.6271 93.0794 49.5943 92.9132 49.5943C92.7469 49.5943 92.5823 49.6271 92.4288 49.6907C92.2752 49.7544 92.1355 49.8478 92.018 49.9654Z" fill="primary.800"/>
<path d="M86.0739 67.654V65.7667C86.075 65.5075 85.975 65.2582 85.795 65.0717C85.615 64.8852 85.3694 64.7764 85.1104 64.7683H74.264C73.7316 64.7683 73.0715 65.235 73.0715 65.7667V67.654H86.0739Z" fill="white"/>
<path fill-rule="evenodd" clip-rule="evenodd" d="M73.2631 64.8092C73.5419 64.5888 73.9102 64.4382 74.2638 64.4382H85.1102L85.1204 64.4384C85.4655 64.4491 85.7927 64.5941 86.0324 64.8425C86.2719 65.0907 86.4051 65.4224 86.4038 65.7673C86.4038 65.7676 86.4038 65.7679 86.4038 65.7682L86.0737 65.7667H86.4038V65.7673V67.6541C86.4038 67.8364 86.256 67.9842 86.0737 67.9842H73.0714C72.889 67.9842 72.7412 67.8364 72.7412 67.6541V65.7667C72.7412 65.3625 72.9873 65.0273 73.2631 64.8092ZM73.6727 65.3271C73.4854 65.4753 73.4015 65.6393 73.4015 65.7667V67.3239H85.7435V65.7667L85.7435 65.7653C85.7443 65.5921 85.6775 65.4256 85.5573 65.301C85.4381 65.1776 85.2759 65.105 85.1045 65.0985H74.2638C74.085 65.0985 73.8571 65.1813 73.6727 65.3271Z" fill="primary.800"/>
<path d="M86.4038 65.7673C86.4051 65.4224 86.2719 65.0907 86.0324 64.8425C85.7927 64.5941 85.4655 64.4491 85.1204 64.4384L85.1102 64.4382H74.2638C73.9102 64.4382 73.5419 64.5888 73.2631 64.8092C72.9873 65.0273 72.7412 65.3625 72.7412 65.7667V67.6541C72.7412 67.8364 72.889 67.9842 73.0714 67.9842H86.0737C86.256 67.9842 86.4038 67.8364 86.4038 67.6541V65.7673ZM86.4038 65.7673C86.4038 65.7676 86.4038 65.7679 86.4038 65.7682L86.0737 65.7667H86.4038V65.7673ZM73.4015 65.7667C73.4015 65.6393 73.4854 65.4753 73.6727 65.3271C73.8571 65.1813 74.085 65.0985 74.2638 65.0985H85.1045C85.2759 65.105 85.4381 65.1776 85.5573 65.301C85.6775 65.4256 85.7443 65.5921 85.7435 65.7653L85.7435 65.7667V67.3239H73.4015V65.7667Z" stroke="primary.800" stroke-width="0.2" stroke-linecap="round" stroke-linejoin="round"/>
<path d="M11.1118 88.5947C10.5595 88.5947 10.1118 88.147 10.1118 87.5947V68.6555C10.1105 68.3964 10.2103 68.147 10.3902 67.9605C10.57 67.774 10.8156 67.6652 11.0745 67.6571H24.5546C24.8137 67.665 25.0595 67.7737 25.2395 67.9603C25.4195 68.1468 25.5195 68.3963 25.5181 68.6555V87.5947C25.5181 88.147 25.0704 88.5947 24.5181 88.5947H11.1118Z" fill="primary.200"/>
<path fill-rule="evenodd" clip-rule="evenodd" d="M10.7721 68.6555V86.9345C10.7721 87.4867 11.2198 87.9345 11.7721 87.9345H23.8578C24.4101 87.9345 24.8578 87.4867 24.8578 86.9345V68.652C24.8583 68.565 24.8248 68.4814 24.7644 68.4188C24.7057 68.358 24.6262 68.3218 24.542 68.3174H11.0875C11.0034 68.3219 10.9241 68.3581 10.8655 68.4189C10.8052 68.4814 10.7716 68.5651 10.7721 68.652L10.7721 68.6555ZM11.0745 67.6571C10.8156 67.6652 10.57 67.774 10.3902 67.9605C10.2103 68.147 10.1105 68.3964 10.1118 68.6555V87.5947C10.1118 88.147 10.5595 88.5947 11.1118 88.5947H24.5181C25.0704 88.5947 25.5181 88.147 25.5181 87.5947V68.6555C25.5195 68.3963 25.4195 68.1468 25.2395 67.9603C25.0595 67.7737 24.8137 67.665 24.5546 67.6571" fill="primary.800"/>
<path d="M10.7721 68.6555V86.9344C10.7721 87.4867 11.2198 87.9344 11.7721 87.9344H23.8578C24.4101 87.9344 24.8578 87.4867 24.8578 86.9345V68.652C24.8583 68.565 24.8248 68.4814 24.7644 68.4188C24.7057 68.358 24.6262 68.3218 24.542 68.3174H11.0875C11.0034 68.3219 10.9241 68.3581 10.8655 68.4189C10.8052 68.4814 10.7716 68.5651 10.7721 68.652L10.7721 68.6555ZM10.3902 67.9605C10.57 67.774 10.8156 67.6652 11.0745 67.6571H24.5546C24.8137 67.665 25.0595 67.7737 25.2395 67.9603C25.4195 68.1468 25.5195 68.3963 25.5181 68.6555V87.5947C25.5181 88.147 25.0704 88.5947 24.5181 88.5947H11.1118C10.5595 88.5947 10.1118 88.147 10.1118 87.5947V68.6555C10.1105 68.3964 10.2103 68.147 10.3902 67.9605Z" stroke="primary.800" stroke-width="0.2"/>
<path d="M32.2752 49.4985C32.0964 49.3196 31.8841 49.1776 31.6504 49.0808C31.4167 48.9839 31.1661 48.934 30.9132 48.934C30.6602 48.934 30.4097 48.9839 30.176 49.0808C29.9423 49.1776 29.7299 49.3196 29.5511 49.4985C29.2144 49.8353 26.8358 52.5094 26.2693 52.4801C25.0546 52.4128 24.0071 50.2489 24.3106 48.0034L25.7257 36.1262C25.766 35.8748 25.756 35.618 25.6964 35.3705C25.6368 35.123 25.5287 34.8898 25.3784 34.6844C25.2281 34.4789 25.0385 34.3053 24.8207 34.1735C24.6029 34.0418 24.3612 33.9545 24.1094 33.9167C23.8577 33.879 23.6009 33.8915 23.3541 33.9536C23.1072 34.0156 22.8751 34.126 22.6711 34.2784C22.4671 34.4307 22.2954 34.622 22.1658 34.8411C22.0362 35.0602 21.9514 35.3028 21.9161 35.5549L20.4558 46.7032L20.7728 34.0764C20.7926 33.8229 20.762 33.568 20.6829 33.3263C20.6037 33.0847 20.4774 32.8611 20.3114 32.6685C20.1453 32.4759 19.9428 32.3181 19.7154 32.2041C19.4881 32.0902 19.2404 32.0224 18.9868 32.0047C18.7331 31.987 18.4784 32.0196 18.2374 32.1008C17.9965 32.182 17.7739 32.3101 17.5827 32.4778C17.3915 32.6454 17.2354 32.8492 17.1233 33.0775C17.0113 33.3058 16.9455 33.554 16.9299 33.8078L16.7049 46.7016L16.1146 35.2522C16.099 34.9984 16.0332 34.7502 15.9212 34.5219C15.8092 34.2937 15.653 34.0898 15.4618 33.9222C15.2706 33.7546 15.0481 33.6265 14.8071 33.5453C14.5661 33.4641 14.3114 33.4314 14.0578 33.4491C13.8041 33.4669 13.5564 33.5346 13.3291 33.6486C13.1017 33.7625 12.8992 33.9203 12.7332 34.1129C12.5671 34.3055 12.4409 34.5291 12.3617 34.7707C12.2825 35.0124 12.2519 35.2673 12.2717 35.5208L12.454 38.1269C12.1997 37.7898 11.8415 37.5459 11.4346 37.4329C11.0278 37.3199 10.5951 37.3441 10.2034 37.5018C9.81169 37.6595 9.48288 37.9418 9.26782 38.3052C9.05275 38.6685 8.96342 39.0926 9.01363 39.5119L10.3408 52.5396C10.4428 55.8728 11.0141 59.175 12.038 62.3487V65.4286H23.3392C23.3392 63.1308 25.3699 61.1499 32.2752 52.2226C32.6362 51.8613 32.8391 51.3714 32.8391 50.8606C32.8391 50.3498 32.6362 49.8599 32.2752 49.4985Z" fill="white"/>
<path fill-rule="evenodd" clip-rule="evenodd" d="M30.018 49.9654C29.9711 50.0124 29.8762 50.1142 29.7392 50.261C29.6592 50.3467 29.5649 50.4479 29.4575 50.5624C29.1765 50.8619 28.8243 51.2328 28.4631 51.5937C28.1045 51.952 27.7252 52.3123 27.3917 52.5851C27.2262 52.7204 27.0564 52.8472 26.8954 52.9425C26.8148 52.9902 26.7232 53.0379 26.6256 53.0742C26.5345 53.108 26.3962 53.1479 26.2351 53.1395L26.2327 53.1394C25.2436 53.0846 24.524 52.2254 24.1191 51.3309C23.6917 50.3867 23.4889 49.1613 23.6555 47.9203L25.0716 36.0349L25.0737 36.0218C25.1002 35.8566 25.0936 35.6878 25.0545 35.5251C25.0153 35.3625 24.9442 35.2092 24.8455 35.0742C24.7467 34.9392 24.6221 34.8251 24.479 34.7385C24.3358 34.6519 24.1769 34.5945 24.0115 34.5697C23.846 34.5449 23.6773 34.5531 23.5151 34.5939C23.3528 34.6347 23.2003 34.7073 23.0662 34.8074C22.9322 34.9075 22.8193 35.0332 22.7342 35.1772C22.6494 35.3205 22.5938 35.479 22.5704 35.6438L21.1105 46.7889L19.7958 46.6866L20.1131 34.0423L20.1145 34.0249C20.1275 33.8583 20.1075 33.6908 20.0554 33.5319C20.0034 33.3731 19.9204 33.2262 19.8113 33.0996C19.7021 32.973 19.569 32.8693 19.4196 32.7944C19.2702 32.7196 19.1074 32.675 18.9407 32.6634C18.774 32.6517 18.6066 32.6732 18.4483 32.7265C18.2899 32.7799 18.1436 32.8641 18.018 32.9743C17.8923 33.0844 17.7897 33.2184 17.7161 33.3684C17.6443 33.5146 17.6015 33.6731 17.5898 33.8354L17.3651 46.7131L16.0455 46.7356L15.4554 35.2899C15.4448 35.1241 15.4017 34.962 15.3285 34.8129C15.2548 34.6628 15.1522 34.5289 15.0265 34.4187C14.9009 34.3085 14.7546 34.2244 14.5963 34.171C14.4379 34.1176 14.2705 34.0962 14.1038 34.1078C13.9371 34.1195 13.7743 34.164 13.6249 34.2389C13.4755 34.3138 13.3424 34.4175 13.2333 34.5441C13.1241 34.6706 13.0412 34.8176 12.9891 34.9764C12.9371 35.1352 12.917 35.3027 12.93 35.4693L12.9304 35.4748L13.484 46.6866L12.8538 46.7356L12.2717 39.2741L11.9268 38.5245C11.76 38.3033 11.5249 38.1432 11.2579 38.0691C10.991 37.9949 10.707 38.0108 10.45 38.1143C10.1929 38.2178 9.97716 38.403 9.83603 38.6415C9.6949 38.8799 9.63628 39.1582 9.66923 39.4333L9.66993 39.4391L11.0001 52.4959L11.0008 52.5194C11.1009 55.7906 11.6616 59.0313 12.6664 62.146L12.6983 62.2449V64.7683H22.7288C22.9017 63.6383 23.529 62.5224 24.6824 60.9251C25.4933 59.8022 26.6086 58.3855 28.0886 56.5053C29.1245 55.1894 30.339 53.6466 31.7529 51.8186L31.7785 51.7855L31.8081 51.7559C32.0455 51.5184 32.1788 51.1964 32.1788 50.8606C32.1788 50.5248 32.0455 50.2028 31.8081 49.9653L32.2752 49.4985C32.6362 49.8599 32.8391 50.3498 32.8391 50.8606C32.8391 51.3714 32.6362 51.8613 32.2752 52.2226C30.8479 54.0679 29.6288 55.6164 28.5929 56.9322C24.6172 61.9824 23.3392 63.6057 23.3392 65.4286H12.038V62.3487C11.0141 59.175 10.4428 55.8728 10.3408 52.5396L9.01363 39.5119C8.96342 39.0926 9.05275 38.6685 9.26782 38.3052C9.48288 37.9418 9.81169 37.6595 10.2034 37.5018C10.5951 37.3441 11.0278 37.3199 11.4346 37.4329C11.5443 37.4633 11.6504 37.5033 11.7519 37.552C12.027 37.6841 12.2682 37.8806 12.454 38.1269L12.2717 35.5208C12.2519 35.2673 12.2825 35.0124 12.3617 34.7707C12.4409 34.5291 12.5671 34.3055 12.7332 34.1129C12.8992 33.9203 13.1017 33.7625 13.3291 33.6486C13.5564 33.5346 13.8041 33.4669 14.0578 33.4491C14.3114 33.4314 14.5661 33.4641 14.8071 33.5453C15.0481 33.6265 15.2706 33.7546 15.4618 33.9222C15.653 34.0898 15.8092 34.2937 15.9212 34.5219C16.0332 34.7502 16.099 34.9984 16.1146 35.2522L16.7049 46.7016L16.9299 33.8078C16.9455 33.554 17.0113 33.3058 17.1233 33.0775C17.2354 32.8492 17.3915 32.6454 17.5827 32.4778C17.7739 32.3101 17.9965 32.182 18.2374 32.1008C18.4784 32.0196 18.7331 31.987 18.9868 32.0047C19.2404 32.0224 19.4881 32.0902 19.7154 32.2041C19.9428 32.3181 20.1453 32.4759 20.3114 32.6685C20.4774 32.8611 20.6037 33.0847 20.6829 33.3263C20.762 33.568 20.7926 33.8229 20.7728 34.0764L20.4558 46.7032L21.9161 35.5549C21.9514 35.3028 22.0362 35.0602 22.1658 34.8411C22.2954 34.622 22.4671 34.4307 22.6711 34.2784C22.8751 34.126 23.1072 34.0156 23.3541 33.9536C23.6009 33.8915 23.8577 33.879 24.1094 33.9167C24.3612 33.9545 24.6029 34.0418 24.8207 34.1735C25.0385 34.3053 25.2281 34.4789 25.3784 34.6844C25.5287 34.8898 25.6368 35.123 25.6964 35.3705C25.756 35.618 25.766 35.8748 25.7257 36.1262L24.3106 48.0034C24.0071 50.2489 25.0546 52.4128 26.2693 52.4801C26.7433 52.5047 28.4859 50.6366 29.2396 49.8286C29.3867 49.6709 29.4961 49.5535 29.5511 49.4985C29.7299 49.3196 29.9423 49.1776 30.176 49.0808C30.4097 48.9839 30.6602 48.934 30.9132 48.934C31.1662 48.934 31.4167 48.9839 31.6504 49.0808C31.8841 49.1776 32.0964 49.3196 32.2752 49.4985L31.8081 49.9653C31.6906 49.8477 31.5511 49.7544 31.3975 49.6907C31.244 49.6271 31.0794 49.5943 30.9132 49.5943C30.7469 49.5943 30.5823 49.6271 30.4288 49.6907C30.2752 49.7544 30.1355 49.8478 30.018 49.9654Z" fill="primary.800"/>
<path d="M12.4507 37.4666L13.2565 46.4699L12.4507 37.4666Z" fill="white"/>
<path d="M24.0739 67.654V65.7667C24.075 65.5075 23.975 65.2582 23.795 65.0717C23.615 64.8852 23.3694 64.7764 23.1104 64.7683H12.264C11.7316 64.7683 11.0715 65.235 11.0715 65.7667V67.654H24.0739Z" fill="white"/>
<path fill-rule="evenodd" clip-rule="evenodd" d="M11.2631 64.8092C11.5419 64.5888 11.9102 64.4382 12.2638 64.4382H23.1102L23.1204 64.4384C23.4655 64.4491 23.7927 64.5941 24.0324 64.8425C24.2719 65.0907 24.4051 65.4224 24.4038 65.7673C24.4038 65.7676 24.4038 65.7679 24.4038 65.7682L24.0737 65.7667H24.4038V65.7673V67.6541C24.4038 67.8364 24.256 67.9842 24.0737 67.9842H11.0714C10.889 67.9842 10.7412 67.8364 10.7412 67.6541V65.7667C10.7412 65.3625 10.9873 65.0273 11.2631 64.8092ZM11.6727 65.3271C11.4854 65.4753 11.4015 65.6393 11.4015 65.7667V67.3239H23.7435V65.7667L23.7435 65.7653C23.7443 65.5921 23.6775 65.4256 23.5573 65.301C23.4381 65.1776 23.2759 65.105 23.1045 65.0985H12.2638C12.085 65.0985 11.8571 65.1813 11.6727 65.3271Z" fill="primary.800"/>
<path d="M24.4038 65.7673C24.4051 65.4224 24.2719 65.0907 24.0324 64.8425C23.7927 64.5941 23.4655 64.4491 23.1204 64.4384L23.1102 64.4382H12.2638C11.9102 64.4382 11.5419 64.5888 11.2631 64.8092C10.9873 65.0273 10.7412 65.3625 10.7412 65.7667V67.6541C10.7412 67.8364 10.889 67.9842 11.0714 67.9842H24.0737C24.256 67.9842 24.4038 67.8364 24.4038 67.6541V65.7673ZM24.4038 65.7673C24.4038 65.7676 24.4038 65.7679 24.4038 65.7682L24.0737 65.7667H24.4038V65.7673ZM11.4015 65.7667C11.4015 65.6393 11.4854 65.4753 11.6727 65.3271C11.8571 65.1813 12.085 65.0985 12.2638 65.0985H23.1045C23.2759 65.105 23.4381 65.1776 23.5573 65.301C23.6775 65.4256 23.7443 65.5921 23.7435 65.7653L23.7435 65.7667V67.3239H11.4015V65.7667Z" stroke="primary.800" stroke-width="0.2" stroke-linecap="round" stroke-linejoin="round"/>
</svg>
