<svg viewBox="0 0 96 96" fill="none" xmlns="http://www.w3.org/2000/svg">
<path d="M0 48C0 60.7304 5.05713 72.9394 14.0589 81.9411C23.0606 90.9429 35.2696 96 48 96C60.7304 96 72.9394 90.9429 81.9411 81.9411C90.9429 72.9394 96 60.7304 96 48C96 35.2696 90.9429 23.0606 81.9411 14.0589C72.9394 5.05713 60.7304 0 48 0C35.2696 0 23.0606 5.05713 14.0589 14.0589C5.05713 23.0606 0 35.2696 0 48V48Z" fill="primary.150"/>
<path d="M33.5001 61.3968H33.5001L33.5001 61.3941C33.4988 61.1321 33.5998 60.88 33.7816 60.6914C33.9619 60.5045 34.2074 60.3946 34.4667 60.3848H54.8654C55.1249 60.3944 55.3707 60.5041 55.5512 60.6911C55.7332 60.8797 55.8343 61.132 55.8329 61.3941V61.3968V91.0948H33.5001V61.3968Z" fill="primary.200" stroke="primary.800"/>
<path d="M62.7944 31.7371L62.7945 31.737C63.0189 31.5124 63.2853 31.3343 63.5786 31.2127C63.8718 31.0912 64.1862 31.0286 64.5036 31.0286C64.8211 31.0286 65.1354 31.0912 65.4287 31.2127C65.7219 31.3343 65.9883 31.5124 66.2127 31.737L66.5664 31.3836L66.2127 31.737C66.6658 32.1905 66.9204 32.8053 66.9204 33.4464C66.9204 34.0874 66.6658 34.7023 66.2127 35.1558L66.1903 35.1782L66.1709 35.2033C64.0194 37.9848 62.1766 40.3257 60.6077 42.3186C58.3738 45.1562 56.6955 47.2883 55.4725 48.9818C53.5747 51.6099 52.6929 53.2838 52.5529 55.0096H36.4172V50.8452V50.7665L36.3931 50.6917C34.8569 45.9298 33.9996 40.9751 33.8466 35.9739L33.846 35.9561L33.8442 35.9385L31.8342 16.2081L31.8343 16.2081L31.8333 16.1993C31.7703 15.6735 31.8823 15.1416 32.1521 14.6859C32.4218 14.2302 32.8342 13.8761 33.3254 13.6783C33.8166 13.4805 34.3593 13.4502 34.8696 13.5919C35.3798 13.7336 35.8291 14.0395 36.148 14.4623L37.1636 15.8087L37.046 14.1263L36.77 10.1795L36.77 10.1795L36.7697 10.1754C36.7448 9.85722 36.7832 9.5373 36.8825 9.23405C36.9819 8.93081 37.1404 8.65024 37.3487 8.40854C37.5571 8.16684 37.8113 7.96879 38.0966 7.82582C38.3819 7.68285 38.6926 7.59778 39.011 7.57553C39.3293 7.55328 39.6489 7.59429 39.9513 7.69618C40.2537 7.79807 40.533 7.95884 40.773 8.1692C41.0129 8.37956 41.2089 8.63536 41.3495 8.92183C41.4897 9.2076 41.5721 9.51827 41.592 9.83598C41.5921 9.83675 41.5921 9.83752 41.5922 9.83829L42.4859 27.1733L43.4851 27.1563L43.8257 7.64022C43.8465 7.32535 43.9287 7.01756 44.0678 6.73423C44.2084 6.44776 44.4043 6.19196 44.6443 5.9816C44.8842 5.77124 45.1635 5.61047 45.4659 5.50858C45.7683 5.40669 46.0879 5.36568 46.4062 5.38793C46.7246 5.41018 47.0354 5.49525 47.3207 5.63822C47.606 5.78119 47.8601 5.97924 48.0685 6.22094C48.2769 6.46264 48.4353 6.74321 48.5347 7.04645C48.6341 7.3497 48.6724 7.66962 48.6475 7.98777L48.6465 8.00097L48.6462 8.01422L48.1662 27.1374L49.1618 27.2149L51.3728 10.3352C51.3729 10.3345 51.373 10.3338 51.3731 10.333C51.4175 10.0174 51.5239 9.71372 51.6862 9.43937C51.8488 9.16441 52.0643 8.92441 52.3202 8.73324C52.5762 8.54207 52.8675 8.40354 53.1773 8.32564C53.4871 8.24774 53.8093 8.23202 54.1252 8.27939C54.4411 8.32677 54.7445 8.4363 55.0178 8.60164C55.2912 8.76699 55.529 8.98488 55.7176 9.24271C55.9062 9.50054 56.0419 9.7932 56.1167 10.1038C56.1915 10.4143 56.204 10.7367 56.1535 11.0521L56.1519 11.062L56.1507 11.072L54.008 29.0561C53.7669 30.8461 54.0613 32.6089 54.6695 33.9524C55.2607 35.2583 56.2338 36.3314 57.4427 36.3984L57.4446 36.3985C57.5934 36.4062 57.7303 36.3694 57.8361 36.3301C57.9468 36.289 58.0576 36.2321 58.1641 36.1691C58.3768 36.0432 58.6119 35.8689 58.8538 35.6711C59.3396 35.2738 59.9001 34.7419 60.4395 34.203C60.981 33.662 61.5101 33.1048 61.9343 32.6526C62.0887 32.488 62.2273 32.3395 62.3471 32.2111C62.5625 31.9802 62.7172 31.8143 62.7944 31.7371Z" fill="white" stroke="primary.800"/>
<mask id="path-4-inside-1_8972_307576" fill="white">
<path d="M36.5424 14.1611L37.7628 27.7967Z"/>
</mask>
<path d="M36.5424 14.1611L37.7628 27.7967Z" fill="white"/>
<path d="M35.5463 14.2503L36.7667 27.8859L38.7588 27.7076L37.5384 14.072L35.5463 14.2503Z" fill="primary.800" mask="url(#path-4-inside-1_8972_307576)"/>
<path d="M33.0001 91.5948V61.3968C32.9981 61.0044 33.1493 60.6268 33.4217 60.3443C33.6941 60.0619 34.066 59.897 34.4581 59.8848H54.8737C55.2661 59.8967 55.6383 60.0614 55.911 60.3439C56.1836 60.6264 56.335 61.0042 56.3329 61.3968V91.5948" stroke="primary.800" stroke-linecap="round" stroke-linejoin="round"/>
<path d="M54.1453 59.88V57.0216C54.147 56.6291 53.9955 56.2514 53.7229 55.969C53.4504 55.6866 53.0783 55.5218 52.6861 55.5096H36.2592C35.4528 55.5096 34.4532 56.2164 34.4532 57.0216V59.88H54.1453Z" fill="white" stroke="primary.800" stroke-linecap="round" stroke-linejoin="round"/>
<path d="M36.5424 14.1611L37.7628 27.7967" stroke="primary.800" stroke-linecap="round" stroke-linejoin="round"/>
<path d="M66.5664 31.3836C66.2956 31.1125 65.974 30.8975 65.6201 30.7508C65.2661 30.6041 64.8868 30.5286 64.5036 30.5286C64.1205 30.5286 63.7411 30.6041 63.3871 30.7508C63.0332 30.8975 62.7116 31.1125 62.4408 31.3836C61.9308 31.8936 58.3284 35.9436 57.4704 35.8992C55.6308 35.7972 54.0444 32.52 54.504 29.1192L56.6472 11.1312C56.7082 10.7505 56.6931 10.3615 56.6028 9.98668C56.5125 9.61186 56.3488 9.25867 56.1212 8.9475C55.8936 8.63634 55.6065 8.37338 55.2766 8.17383C54.9468 7.97428 54.5806 7.8421 54.1993 7.78492C53.8181 7.72775 53.4292 7.74672 53.0554 7.84073C52.6815 7.93474 52.3299 8.10194 52.021 8.33265C51.7121 8.56336 51.452 8.85301 51.2558 9.18485C51.0595 9.51669 50.931 9.88414 50.8776 10.266L48.666 27.15L49.146 8.02676C49.1761 7.64281 49.1298 7.25671 49.0098 6.89074C48.8899 6.52476 48.6987 6.18616 48.4472 5.89447C48.1957 5.60277 47.889 5.36376 47.5447 5.19121C47.2004 5.01866 46.8253 4.916 46.4411 4.88915C46.0569 4.8623 45.6712 4.91178 45.3062 5.03475C44.9413 5.15772 44.6043 5.35174 44.3147 5.60562C44.0251 5.85949 43.7886 6.1682 43.6189 6.51393C43.4492 6.85966 43.3497 7.23557 43.326 7.61996L42.9852 27.1476L42.0912 9.80756C42.0675 9.42317 41.968 9.04726 41.7983 8.70153C41.6286 8.3558 41.3922 8.04709 41.1026 7.79322C40.813 7.53934 40.4759 7.34532 40.111 7.22235C39.746 7.09938 39.3603 7.0499 38.9761 7.07675C38.5919 7.1036 38.2169 7.20627 37.8726 7.37881C37.5282 7.55136 37.2215 7.79037 36.97 8.08207C36.7186 8.37376 36.5273 8.71236 36.4074 9.07834C36.2875 9.44431 36.2412 9.83041 36.2712 10.2144L36.5472 14.1612C36.1621 13.6506 35.6195 13.2812 35.0034 13.1101C34.3872 12.939 33.7319 12.9757 33.1387 13.2145C32.5455 13.4533 32.0475 13.8809 31.7218 14.4312C31.3961 14.9815 31.2608 15.6238 31.3368 16.2588L33.3468 35.9892C33.5013 41.0374 34.3666 46.0386 35.9172 50.8452V55.5096H53.0328C53.0328 52.0296 56.1084 49.0296 66.5664 35.5092C67.1132 34.9619 67.4204 34.22 67.4204 33.4464C67.4204 32.6728 67.1132 31.9308 66.5664 31.3836V31.3836Z" stroke="primary.800" stroke-linecap="round" stroke-linejoin="round"/>
<path d="M84.8309 75.5346V75.5352V89.1292H69.0573V75.5352C69.0573 75.3747 69.121 75.2207 69.2345 75.1072C69.348 74.9937 69.5019 74.93 69.6625 74.93H84.2269C84.3062 74.93 84.3848 74.9456 84.4581 74.976C84.5315 75.0064 84.5981 75.0509 84.6542 75.1071C84.7103 75.1633 84.7547 75.2299 84.7851 75.3033C84.8154 75.3767 84.8309 75.4553 84.8309 75.5346Z" fill="primary.200" stroke="primary.800"/>
<path d="M74.0281 36.1989C74.0128 35.9757 73.9538 35.7577 73.8544 35.5572C73.7545 35.3557 73.6159 35.1758 73.4464 35.028C73.2768 34.8801 73.0798 34.7672 72.8666 34.6957C72.6533 34.6241 72.428 34.5954 72.2037 34.6111C71.9793 34.6268 71.7602 34.6866 71.559 34.7872C71.3578 34.8877 71.1784 35.027 71.0311 35.197C70.8838 35.367 70.7716 35.5644 70.7007 35.7779C70.6299 35.9913 70.6019 36.2167 70.6183 36.441L70.6185 36.4427L70.8273 39.4307L70.9449 41.1138L69.9292 39.7666C69.7038 39.4675 69.386 39.2511 69.0252 39.1508C68.6644 39.0505 68.2806 39.072 67.9331 39.2118C67.5857 39.3517 67.2941 39.6022 67.1034 39.9245C66.9127 40.2468 66.8335 40.623 66.8781 40.9948L66.8792 41.0037L66.8791 41.0037L68.4019 55.9485L68.4045 55.9738V55.9992C68.4045 58.8564 68.9459 61.5127 69.4798 63.5191C69.7304 64.4607 69.9782 65.2554 70.1678 65.8631C70.18 65.9025 70.1921 65.941 70.2038 65.9788C70.2996 66.2861 70.381 66.5498 70.435 66.7511C70.4618 66.8514 70.485 66.9473 70.4995 67.0316C70.508 67.0809 70.524 67.1774 70.5141 67.2833V70.2832H82.344C82.4811 68.9776 83.1687 67.7031 84.5679 65.7659C85.4935 64.4845 86.7638 62.871 88.452 60.7268C89.6426 59.2146 91.041 57.4383 92.673 55.3285L92.6926 55.3031L92.7152 55.2805C92.8741 55.1219 93.0002 54.9335 93.0863 54.7262C93.1724 54.5189 93.2168 54.2966 93.217 54.0721C93.2172 53.8476 93.1731 53.6252 93.0873 53.4178C93.0016 53.2103 92.8758 53.0218 92.7171 52.8629C92.3969 52.5435 91.9631 52.3642 91.5109 52.3642C91.0585 52.3642 90.6246 52.5436 90.3044 52.8631L74.0281 36.1989ZM74.0281 36.1989L74.7059 49.3277L75.7052 49.3107L75.963 34.5338C75.9792 34.3133 76.0379 34.0981 76.1361 33.9C76.236 33.6985 76.3747 33.5186 76.5442 33.3708C76.7137 33.2229 76.9107 33.11 77.124 33.0385C77.3372 32.967 77.5625 32.9382 77.7869 32.9539C78.0113 32.9696 78.2303 33.0294 78.4315 33.13C78.6327 33.2305 78.8121 33.3698 78.9594 33.5398C79.1067 33.7098 79.219 33.9072 79.2898 34.1207C79.3606 34.3341 79.3886 34.5595 79.3722 34.7838L79.3713 34.7959L79.371 34.8079L79.011 49.2907L80.0066 49.3683L81.6862 36.5839C81.6863 36.5835 81.6863 36.583 81.6864 36.5826C81.7173 36.3589 81.7921 36.1436 81.9067 35.949C82.0215 35.754 82.1739 35.5838 82.355 35.4481C82.5361 35.3125 82.7423 35.2142 82.9617 35.1589C83.1811 35.1036 83.4093 35.0924 83.6331 35.1259C83.8568 35.1595 84.0717 35.2371 84.2652 35.3543C84.4587 35.4716 84.627 35.6261 84.7604 35.8088C84.8937 35.9916 84.9894 36.1991 85.042 36.4191C85.0946 36.6392 85.1029 36.8675 85.0666 37.0908L85.0648 37.1014L85.0636 37.1121L83.4428 50.7318C83.2575 52.1095 83.4835 53.4673 83.9538 54.5059C84.4071 55.5071 85.1725 56.3748 86.1585 56.43L86.1586 56.43C86.2951 56.4376 86.4169 56.4039 86.5046 56.3713C86.5974 56.3369 86.688 56.2901 86.7722 56.2402C86.9404 56.1405 87.1236 56.0043 87.3087 55.8528C87.6808 55.5483 88.1087 55.142 88.5184 54.7327C88.93 54.3215 89.3323 53.898 89.6544 53.5549C89.7733 53.4282 89.8793 53.3146 89.9705 53.2169C90.1319 53.0439 90.2468 52.9208 90.3041 52.8634L74.0281 36.1989Z" fill="white" stroke="primary.800"/>
<path d="M68.5573 89.6292V75.5352C68.5573 75.242 68.6737 74.9609 68.881 74.7537C69.0882 74.5464 69.3693 74.43 69.6625 74.43H84.2269C84.3719 74.43 84.5156 74.4586 84.6496 74.5141C84.7836 74.5697 84.9054 74.6511 85.0079 74.7537C85.1105 74.8564 85.1918 74.9782 85.2472 75.1123C85.3026 75.2464 85.331 75.3901 85.3309 75.5352V89.6292" stroke="primary.800" stroke-linecap="round" stroke-linejoin="round"/>
<path d="M84.6133 74.43V71.8884C84.6133 71.7432 84.5847 71.5995 84.5291 71.4654C84.4736 71.3314 84.3922 71.2095 84.2896 71.1069C84.1869 71.0043 84.0651 70.9228 83.931 70.8673C83.7969 70.8118 83.6532 70.7832 83.5081 70.7832H70.3921C70.099 70.7832 69.8178 70.8996 69.6106 71.1069C69.4033 71.3141 69.2869 71.5953 69.2869 71.8884V74.43H84.6133Z" fill="white" stroke="primary.800" stroke-linecap="round" stroke-linejoin="round"/>
<path d="M93.0709 52.5096C92.6569 52.0963 92.0958 51.8642 91.5109 51.8642C90.9259 51.8642 90.3648 52.0963 89.9509 52.5096C89.5633 52.8972 86.8309 55.9668 86.1865 55.9308C84.7921 55.8528 83.5909 53.3712 83.9389 50.7948L85.5601 37.1712C85.6071 36.8825 85.5963 36.5874 85.5283 36.303C85.4604 36.0185 85.3367 35.7504 85.1643 35.5142C84.9919 35.2779 84.7744 35.0782 84.5243 34.9267C84.2741 34.7752 83.9964 34.6748 83.7072 34.6314C83.418 34.5881 83.123 34.6025 82.8395 34.674C82.5559 34.7455 82.2893 34.8726 82.0553 35.0479C81.8212 35.2232 81.6243 35.4433 81.4759 35.6953C81.3275 35.9473 81.2306 36.2262 81.1909 36.516L79.5109 49.3032L79.8709 34.8204C79.8921 34.5304 79.8559 34.2391 79.7644 33.9632C79.6728 33.6873 79.5277 33.4321 79.3373 33.2124C79.147 32.9926 78.9151 32.8126 78.655 32.6827C78.395 32.5528 78.1118 32.4754 77.8218 32.4551C77.5318 32.4348 77.2406 32.472 76.965 32.5644C76.6893 32.6569 76.4347 32.8029 76.2156 32.994C75.9964 33.185 75.8172 33.4175 75.6881 33.678C75.559 33.9385 75.4826 34.2219 75.4633 34.512L75.2053 49.302L74.5273 36.1692C74.5079 35.8791 74.4315 35.5957 74.3024 35.3352C74.1733 35.0747 73.9941 34.8422 73.775 34.6512C73.5559 34.4601 73.3012 34.3141 73.0256 34.2216C72.7499 34.1292 72.4588 34.092 72.1688 34.1123C71.8787 34.1326 71.5956 34.21 71.3355 34.3399C71.0754 34.4698 70.8436 34.6498 70.6532 34.8696C70.4629 35.0893 70.3177 35.3445 70.2262 35.6204C70.1346 35.8963 70.0984 36.1876 70.1197 36.4776L70.3285 39.4656C70.0368 39.0787 69.6258 38.7988 69.1591 38.6691C68.6923 38.5394 68.1958 38.5671 67.7464 38.748C67.297 38.9289 66.9198 39.2529 66.6731 39.6698C66.4264 40.0868 66.3239 40.5734 66.3817 41.0544L67.9045 55.9992C67.9045 61.8336 70.1137 66.81 70.0141 67.2516V70.7832H82.8181C82.8181 68.1432 85.1485 65.874 93.0685 55.6344C93.2738 55.4294 93.4368 55.1859 93.5481 54.9179C93.6594 54.6499 93.7168 54.3626 93.717 54.0725C93.7172 53.7823 93.6603 53.4949 93.5494 53.2267C93.4385 52.9586 93.2759 52.7149 93.0709 52.5096Z" stroke="primary.800" stroke-linecap="round" stroke-linejoin="round"/>
<path d="M70.3308 39.4656L71.256 50.0292" stroke="primary.800" stroke-linecap="round" stroke-linejoin="round"/>
<path d="M7.3291 88.1356V75.2712C7.3291 75.1107 7.39286 74.9567 7.50636 74.8432C7.61986 74.7297 7.77379 74.666 7.9343 74.666H22.4984C22.6589 74.6662 22.8128 74.7301 22.9263 74.8436C23.0399 74.9572 23.1037 75.1111 23.1039 75.2717V88.1356H7.3291Z" fill="primary.200" stroke="primary.800"/>
<path d="M20.6196 70.0204C20.7569 68.7172 21.4442 67.4424 22.8427 65.505C23.773 64.2163 25.0515 62.592 26.7528 60.4306C27.9376 58.9254 29.3273 57.1598 30.9473 55.0656L30.9667 55.0405L30.9893 55.018C31.148 54.8592 31.274 54.6708 31.3599 54.4634C31.4458 54.256 31.4901 54.0337 31.4901 53.8092C31.4901 53.5847 31.4458 53.3624 31.3599 53.1549C31.274 52.9476 31.1481 52.7593 30.9895 52.6006C30.6693 52.2809 30.2352 52.1013 29.7827 52.1013C29.3304 52.1013 28.8965 52.2808 28.5763 52.6003C28.5762 52.6004 28.5761 52.6005 28.576 52.6006M20.6196 70.0204L28.576 52.6006M20.6196 70.0204H8.79434V67.0193C8.80424 66.9134 8.78829 66.8169 8.7798 66.7676C8.76527 66.6833 8.74212 66.5873 8.71523 66.4871C8.66125 66.2857 8.57985 66.0221 8.4841 65.7148C8.47233 65.677 8.46031 65.6385 8.44803 65.5991C8.2585 64.9914 8.01066 64.1967 7.76008 63.2551C7.22613 61.2487 6.68474 58.5924 6.68474 55.7352V55.7098L6.68217 55.6845L5.15937 40.7409L5.15945 40.7409L5.15838 40.732C5.11375 40.3601 5.19292 39.984 5.38364 39.6617C5.57437 39.3393 5.866 39.0889 6.21341 38.949C6.56083 38.8092 6.94465 38.7877 7.30549 38.888C7.66632 38.9883 7.98404 39.2047 8.20948 39.5037L9.22509 40.851L9.10753 39.1679L8.89873 36.1787L8.89773 36.1644L8.89591 36.1502C8.86642 35.9194 8.88436 35.685 8.94864 35.4614C9.01291 35.2378 9.12217 35.0296 9.26971 34.8497C9.41725 34.6698 9.59997 34.5219 9.80668 34.4151C10.0134 34.3083 10.2397 34.2448 10.4718 34.2285C10.7039 34.2123 10.9369 34.2436 11.1565 34.3205C11.3761 34.3974 11.5777 34.5184 11.7488 34.676C11.92 34.8335 12.0573 35.0244 12.1521 35.2369C12.2469 35.4493 12.2974 35.6789 12.3004 35.9116L12.3005 35.9213L12.301 35.9309L12.979 49.0649L13.9783 49.0479L14.236 34.2698C14.2522 34.0493 14.311 33.8341 14.4092 33.636C14.5091 33.4345 14.6477 33.2546 14.8173 33.1068C14.9868 32.9589 15.1838 32.846 15.3971 32.7745C15.6103 32.7029 15.8356 32.6742 16.0599 32.6899C16.2843 32.7056 16.5034 32.7654 16.7046 32.866C16.9058 32.9665 17.0852 33.1058 17.2325 33.2758C17.3798 33.4458 17.492 33.6432 17.5629 33.8567C17.6337 34.0701 17.6617 34.2955 17.6453 34.5198L17.6444 34.5319L17.6441 34.5439L17.2841 49.0279L18.2797 49.1055L19.9593 36.3199C19.9594 36.3195 19.9594 36.319 19.9595 36.3186C19.9904 36.0949 20.0652 35.8795 20.1798 35.685C20.2946 35.49 20.447 35.3198 20.6281 35.1841C20.8092 35.0485 21.0154 34.9502 21.2348 34.8949C21.4542 34.8395 21.6824 34.8283 21.9061 34.8619C22.1299 34.8955 22.3447 34.9731 22.5383 35.0903C22.7318 35.2076 22.9001 35.3621 23.0334 35.5448C23.1668 35.7276 23.2625 35.9351 23.3151 36.1551C23.3676 36.3752 23.376 36.6035 23.3396 36.8268L23.3379 36.8374L23.3367 36.848L21.7147 50.469C21.5294 51.8467 21.7554 53.2045 22.2257 54.243C22.6789 55.244 23.4446 56.1117 24.4308 56.166M20.6196 70.0204L24.4308 56.166M28.576 52.6006C28.519 52.6577 28.4047 52.7801 28.244 52.9522C28.1526 53.0501 28.0462 53.1642 27.9267 53.2915C27.6046 53.6344 27.2023 54.0578 26.7906 54.4689C26.3809 54.8781 25.9529 55.2844 25.5807 55.5889C25.3955 55.7404 25.2123 55.8766 25.0441 55.9762C24.9598 56.0261 24.8693 56.0729 24.7765 56.1073C24.6889 56.1398 24.5672 56.1735 24.4308 56.166M28.576 52.6006L24.4308 56.166" fill="white" stroke="primary.800"/>
<path d="M6.8291 88.6356V75.2712C6.8291 74.9781 6.94554 74.6969 7.15281 74.4897C7.36007 74.2824 7.64118 74.166 7.9343 74.166H22.4987C22.7917 74.1663 23.0727 74.2828 23.2798 74.49C23.487 74.6972 23.6036 74.9782 23.6039 75.2712V88.6356" stroke="primary.800" stroke-linecap="round" stroke-linejoin="round"/>
<path d="M22.8852 74.166V71.6244C22.8852 71.4793 22.8566 71.3357 22.8011 71.2016C22.7455 71.0676 22.6641 70.9459 22.5615 70.8433C22.4588 70.7408 22.337 70.6595 22.2029 70.6041C22.0688 70.5487 21.9251 70.5202 21.78 70.5204H8.66404C8.51896 70.5202 8.37527 70.5487 8.24119 70.6041C8.10711 70.6595 7.98526 70.7408 7.88262 70.8433C7.77997 70.9459 7.69855 71.0676 7.64299 71.2016C7.58743 71.3357 7.55884 71.4793 7.55884 71.6244V74.166H22.8852Z" fill="white" stroke="primary.800" stroke-linecap="round" stroke-linejoin="round"/>
<path d="M31.3427 52.2468C30.9288 51.8335 30.3677 51.6013 29.7827 51.6013C29.1978 51.6013 28.6367 51.8335 28.2227 52.2468C27.8363 52.6332 25.1027 55.7028 24.4583 55.6668C23.0639 55.59 21.8627 53.1084 22.2107 50.532L23.8331 36.9072C23.8801 36.6185 23.8693 36.3234 23.8014 36.039C23.7335 35.7545 23.6097 35.4864 23.4374 35.2502C23.265 35.0139 23.0475 34.8142 22.7973 34.6627C22.5472 34.5112 22.2695 34.4108 21.9803 34.3674C21.6911 34.3241 21.3961 34.3385 21.1125 34.41C20.829 34.4815 20.5624 34.6086 20.3283 34.7839C20.0943 34.9592 19.8973 35.1793 19.7489 35.4313C19.6006 35.6833 19.5037 35.9622 19.4639 36.252L17.7839 49.0404L18.1439 34.5564C18.1652 34.2664 18.129 33.9751 18.0374 33.6992C17.9459 33.4233 17.8008 33.1681 17.6104 32.9484C17.42 32.7286 17.1882 32.5486 16.9281 32.4187C16.668 32.2887 16.3849 32.2114 16.0948 32.1911C15.8048 32.1708 15.5137 32.208 15.238 32.3004C14.9624 32.3929 14.7077 32.5389 14.4886 32.7299C14.2695 32.921 14.0903 33.1535 13.9612 33.414C13.8321 33.6745 13.7557 33.9579 13.7363 34.248L13.4783 49.0392L12.8003 35.9052C12.7965 35.6045 12.7313 35.3077 12.6087 35.0331C12.4861 34.7584 12.3087 34.5117 12.0875 34.3081C11.8662 34.1044 11.6057 33.9481 11.3218 33.8486C11.038 33.7492 10.7369 33.7087 10.4369 33.7298C10.1369 33.7508 9.84432 33.8328 9.57715 33.9709C9.30997 34.109 9.07379 34.3001 8.88309 34.5327C8.69239 34.7652 8.55117 35.0342 8.46809 35.3233C8.38501 35.6123 8.36182 35.9153 8.39994 36.2136L8.60874 39.2028C8.31712 38.8159 7.90612 38.536 7.43936 38.4063C6.9726 38.2766 6.4761 38.3043 6.0267 38.4852C5.57729 38.6661 5.20005 38.9901 4.95334 39.407C4.70663 39.8239 4.60421 40.3106 4.66194 40.7916L6.18474 55.7352C6.18474 61.5696 8.39394 66.546 8.29434 66.9876V70.5204H21.0935C21.0935 67.8864 23.4227 65.61 31.3427 55.3716C31.548 55.1664 31.7108 54.9228 31.8218 54.6548C31.9329 54.3867 31.9901 54.0993 31.9901 53.8092C31.9901 53.519 31.9329 53.2316 31.8218 52.9636C31.7108 52.6955 31.548 52.4519 31.3427 52.2468Z" stroke="primary.800" stroke-linecap="round" stroke-linejoin="round"/>
<path d="M8.60278 39.2028L9.52798 49.7652" stroke="primary.800" stroke-linecap="round" stroke-linejoin="round"/>
</svg>
