<svg viewBox="0 0 96 89" fill="none" xmlns="http://www.w3.org/2000/svg">
    <path d="M43.6783 88.9592C67.8011 88.9592 87.3565 69.4038 87.3565 45.2809C87.3565 21.1581 67.8011 1.60266 43.6783 1.60266C19.5554 1.60266 0 21.1581 0 45.2809C0 69.4038 19.5554 88.9592 43.6783 88.9592Z" fill="primary.lighter"/>
    <path d="M50.798 80.3448C60.8494 80.3448 68.9977 79.367 68.9977 78.1608C68.9977 76.9547 60.8494 75.9769 50.798 75.9769C40.7466 75.9769 32.5984 76.9547 32.5984 78.1608C32.5984 79.367 40.7466 80.3448 50.798 80.3448Z" fill="primary.lighter"/>
    <path d="M19.6769 81.4366C23.8984 81.4366 27.3206 80.7033 27.3206 79.7987C27.3206 78.8941 23.8984 78.1608 19.6769 78.1608C15.4554 78.1608 12.0332 78.8941 12.0332 79.7987C12.0332 80.7033 15.4554 81.4366 19.6769 81.4366Z" fill="primary.lighter"/>
    <path d="M68.1814 4.78028L47.9468 18.5204C47.4479 18.8591 47.3181 19.5382 47.6569 20.0372L59.0586 36.8281C59.3974 37.327 60.0765 37.4569 60.5754 37.1181L80.81 23.378C81.3089 23.0392 81.4387 22.3601 81.1 21.8612L69.6982 5.07023C69.3595 4.57131 68.6804 4.4415 68.1814 4.78028Z" fill="white" stroke="primary.darker" stroke-linecap="round" stroke-linejoin="round"/>
    <path d="M67.4982 8.22519L51.4023 19.1634C50.9036 19.5023 50.774 20.1814 51.1129 20.6801L57.3719 29.8903C57.7108 30.3891 58.3898 30.5186 58.8886 30.1797L74.9845 19.2415C75.4833 18.9025 75.6128 18.2235 75.2739 17.7247L69.015 8.51456C68.676 8.01582 67.997 7.88626 67.4982 8.22519Z" fill="primary.light" stroke="primary.darker" stroke-width="0.999887" stroke-linecap="round" stroke-linejoin="round"/>
    <path d="M58.7254 18.8501C58.6238 18.9195 58.536 19.0073 58.4666 19.1089C58.1969 18.8167 57.8313 18.6311 57.4362 18.5859C57.0411 18.5408 56.643 18.639 56.3143 18.8628C55.9856 19.0865 55.7482 19.4209 55.6454 19.805C55.5426 20.1891 55.5812 20.5974 55.7542 20.9554C55.634 20.9823 55.5199 21.0316 55.4179 21.1007C55.1986 21.2495 55.0475 21.4794 54.9978 21.7397C54.948 21.9999 55.0037 22.2693 55.1525 22.4885C55.3014 22.7078 55.5312 22.8589 55.7915 22.9087C56.0518 22.9584 56.3212 22.9028 56.5404 22.7539L59.8468 20.5088C60.0661 20.36 60.2172 20.1301 60.267 19.8698C60.3167 19.6096 60.261 19.3402 60.1122 19.121C59.9633 18.9017 59.7335 18.7506 59.4732 18.7008C59.2129 18.6511 58.9435 18.7068 58.7243 18.8556L58.7254 18.8501Z" fill="white" stroke="primary.darker" stroke-linecap="round" stroke-linejoin="round"/>
    <path d="M64.6372 16.8419C65.7179 16.8419 66.594 15.9658 66.594 14.8851C66.594 13.8044 65.7179 12.9283 64.6372 12.9283C63.5565 12.9283 62.6804 13.8044 62.6804 14.8851C62.6804 15.9658 63.5565 16.8419 64.6372 16.8419Z" fill="white" stroke="primary.darker" stroke-linecap="round" stroke-linejoin="round"/>
    <path d="M75.2031 17.6238L68.8009 16.1333C68.593 16.0844 68.3742 16.1174 68.1899 16.2256C68.0057 16.3338 67.8702 16.5088 67.8116 16.7142L66.237 22.2035L61.5766 23.5138C61.4501 23.5493 61.3338 23.6144 61.2374 23.7036C61.141 23.7928 61.0671 23.9037 61.0218 24.027L58.6851 30.3462L75.0011 19.2705C75.2405 19.1077 75.4056 18.8565 75.4598 18.572C75.5141 18.2876 75.4532 17.9933 75.2904 17.7537L75.2031 17.6238Z" fill="white" stroke="primary.darker" stroke-linecap="round" stroke-linejoin="round"/>
    <path d="M59.634 33.5806C59.71 33.8801 59.6643 34.1976 59.507 34.4636C59.3496 34.7296 59.0934 34.9225 58.7943 35.0001L36.1482 40.8628C35.8486 40.9388 35.5312 40.8932 35.2652 40.7358C34.9992 40.5785 34.8063 40.3223 34.7287 40.0231L27.8428 13.4209L33.2862 5.36006L50.0095 1.03591C50.309 0.959918 50.6265 1.00558 50.8925 1.16292C51.1585 1.32027 51.3514 1.5765 51.429 1.87563L59.634 33.5806Z" fill="white" stroke="primary.darker" stroke-linecap="round" stroke-linejoin="round"/>
    <path d="M34.0659 23.4668L51.9904 18.8314" stroke="primary.darker" stroke-linecap="round" stroke-linejoin="round"/>
    <path d="M35.0561 27.2953L52.9806 22.6588" stroke="primary.darker" stroke-linecap="round" stroke-linejoin="round"/>
    <path d="M36.0456 31.1225L53.9712 26.4861" stroke="primary.darker" stroke-linecap="round" stroke-linejoin="round"/>
    <path d="M68.4625 73.2406C68.3976 74.1386 68.0224 74.9861 67.4013 75.638C66.7801 76.2898 65.9517 76.7054 65.0578 76.8135C55.57 77.9538 45.979 77.9406 36.4944 76.7742C35.6072 76.6636 34.7862 76.2475 34.1726 75.5972C33.559 74.947 33.1912 74.1032 33.1323 73.2111L30.279 32.6504C30.2667 32.474 30.2908 32.297 30.3498 32.1304C30.4089 31.9637 30.5015 31.811 30.622 31.6816C30.7426 31.5523 30.8884 31.4491 31.0505 31.3785C31.2126 31.3079 31.3874 31.2714 31.5642 31.2712H70.0317C70.2085 31.2714 70.3833 31.3079 70.5454 31.3785C70.7075 31.4491 70.8533 31.5523 70.9739 31.6816C71.0944 31.811 71.187 31.9637 71.246 32.1304C71.3051 32.297 71.3292 32.474 71.3169 32.6504L68.4625 73.2406Z" fill="primary.light"/>
    <path d="M68.4625 73.2406C68.3976 74.1386 68.0224 74.9861 67.4013 75.638C66.7801 76.2898 65.9517 76.7054 65.0578 76.8135C55.57 77.9538 45.979 77.9406 36.4944 76.7742C35.6072 76.6636 34.7862 76.2475 34.1726 75.5972C33.559 74.947 33.1912 74.1032 33.1323 73.2111L30.279 32.6504C30.2667 32.474 30.2908 32.297 30.3498 32.1304C30.4089 31.9637 30.5015 31.811 30.622 31.6816C30.7426 31.5523 30.8884 31.4491 31.0505 31.3785C31.2126 31.3079 31.3874 31.2714 31.5642 31.2712H70.0317C70.2085 31.2714 70.3833 31.3079 70.5454 31.3785C70.7075 31.4491 70.8533 31.5523 70.9738 31.6816C71.0944 31.811 71.187 31.9637 71.246 32.1304C71.3051 32.297 71.3292 32.474 71.3169 32.6504L68.4625 73.2406Z" stroke="primary.darker" stroke-linecap="round" stroke-linejoin="round"/>
    <path d="M51.1911 37.4407H50.4049C49.8019 37.4407 49.313 37.9296 49.313 38.5326V67.6649C49.313 68.268 49.8019 68.7569 50.4049 68.7569H51.1911C51.7942 68.7569 52.2831 68.268 52.2831 67.6649V38.5326C52.2831 37.9296 51.7942 37.4407 51.1911 37.4407Z" fill="white" stroke="primary.darker" stroke-linecap="round" stroke-linejoin="round"/>
    <path d="M61.3396 68.7252C61.3036 68.7252 61.2665 68.7252 61.2304 68.7252L60.4497 68.6411C60.1618 68.6122 59.8971 68.4701 59.7138 68.2461C59.5306 68.0221 59.4437 67.7345 59.4724 67.4465L62.3661 38.4573C62.3931 38.1883 62.519 37.9389 62.7193 37.7574C62.9196 37.5758 63.1801 37.475 63.4504 37.4745C63.4869 37.4746 63.5233 37.4768 63.5596 37.481L64.3414 37.5586C64.4846 37.5722 64.6236 37.614 64.7506 37.6816C64.8776 37.7492 64.9899 37.8411 65.0812 37.9522C65.1726 38.0633 65.241 38.1914 65.2827 38.329C65.3244 38.4666 65.3385 38.6112 65.3242 38.7543L62.425 67.7414C62.3983 68.0107 62.2724 68.2605 62.0718 68.4423C61.8713 68.6241 61.6103 68.7249 61.3396 68.7252Z" fill="white" stroke="primary.darker" stroke-linecap="round" stroke-linejoin="round"/>
    <path d="M40.2551 68.7252C39.985 68.7244 39.7248 68.6235 39.5247 68.442C39.3246 68.2605 39.1989 68.0112 39.1719 67.7424L36.2771 38.7543C36.2628 38.6112 36.2769 38.4666 36.3186 38.329C36.3603 38.1914 36.4288 38.0633 36.5201 37.9522C36.6114 37.8411 36.7238 37.7492 36.8507 37.6816C36.9777 37.614 37.1167 37.5722 37.2599 37.5586L38.0428 37.481C38.0791 37.4768 38.1155 37.4746 38.152 37.4745C38.4224 37.475 38.6829 37.5758 38.8832 37.7574C39.0835 37.9389 39.2093 38.1883 39.2363 38.4573L42.1268 67.4465C42.1409 67.5895 42.1267 67.7339 42.0849 67.8714C42.0432 68.009 41.9747 68.1369 41.8834 68.2478C41.7921 68.3588 41.6798 68.4507 41.5529 68.5182C41.426 68.5857 41.2871 68.6274 41.144 68.6411L40.3622 68.7197C40.3294 68.723 40.2923 68.7252 40.2551 68.7252Z" fill="white" stroke="primary.darker" stroke-linecap="round" stroke-linejoin="round"/>
    <path d="M33.6333 11.842L27.8459 13.422L33.2894 5.36121L34.4971 10.3842C34.5721 10.6919 34.5237 11.0167 34.3622 11.2891C34.2008 11.5615 33.9392 11.76 33.6333 11.842Z" fill="primary.lighter" stroke="primary.darker" stroke-linecap="round" stroke-linejoin="round"/>
    <path d="M94.6563 51.2026C94.6929 51.3413 94.7018 51.4858 94.6825 51.6279C94.6633 51.77 94.6162 51.9069 94.544 52.0308C94.4718 52.1547 94.3759 52.2632 94.2618 52.35C94.1476 52.4369 94.0175 52.5004 93.8789 52.537L81.9077 55.6916C81.7691 55.7282 81.6246 55.7371 81.4825 55.7178C81.3403 55.6985 81.2034 55.6515 81.0795 55.5793C80.9556 55.5071 80.8471 55.4112 80.7603 55.2971C80.6734 55.1829 80.6099 55.0528 80.5734 54.9141L77.2658 42.3796C77.2293 42.2409 77.2204 42.0964 77.2396 41.9543C77.2589 41.8122 77.306 41.6753 77.3782 41.5514C77.4504 41.4274 77.5463 41.319 77.6604 41.2321C77.7745 41.1453 77.9046 41.0818 78.0433 41.0452L90.0133 37.8807C90.152 37.8441 90.2965 37.8352 90.4386 37.8545C90.5807 37.8738 90.7177 37.9209 90.8416 37.9931C90.9655 38.0653 91.0739 38.1612 91.1608 38.2753C91.2476 38.3894 91.3112 38.5195 91.3477 38.6582L94.6563 51.2026Z" fill="white" stroke="primary.darker" stroke-linecap="round" stroke-linejoin="round"/>
    <path d="M89.4678 40.307L79.7026 42.8821L82.0068 51.6198L91.7719 49.0447L89.4678 40.307Z" fill="primary.light" stroke="primary.darker" stroke-linecap="round" stroke-linejoin="round"/>
    <path d="M7.73417 19.2531C7.49621 19.3752 7.30451 19.5715 7.18807 19.8122C7.07162 20.053 7.03679 20.3251 7.08882 20.5875L8.61101 28.2716C8.63961 28.4153 8.63899 28.5633 8.6092 28.7067C8.57941 28.8502 8.52105 28.9862 8.4376 29.1066C8.35416 29.227 8.24733 29.3294 8.12347 29.4077C7.99962 29.486 7.86128 29.5386 7.7167 29.5623C7.43574 29.6087 7.16242 29.6932 6.90428 29.8134C6.22098 30.1413 5.68266 30.7097 5.39241 31.4098C5.10215 32.1099 5.08038 32.8925 5.33125 33.6076C5.58213 34.3228 6.08801 34.9203 6.75202 35.2856C7.41603 35.651 8.19148 35.7585 8.92986 35.5877C9.7144 35.3766 10.3878 34.872 10.8107 34.1783C11.2337 33.4846 11.3738 32.6549 11.2022 31.8608L9.63526 23.9594C9.58851 23.719 9.62392 23.4699 9.73582 23.2521C9.84771 23.0342 10.0296 22.8603 10.2522 22.7583L16.8411 19.7401C16.9912 19.6709 17.155 19.6366 17.3203 19.64C17.4855 19.6433 17.6479 19.684 17.7951 19.7592C17.9423 19.8344 18.0705 19.942 18.17 20.0739C18.2696 20.2059 18.3379 20.3587 18.3698 20.5209L18.9999 23.7028C19.0285 23.8465 19.0279 23.9945 18.9981 24.138C18.9683 24.2814 18.9099 24.4174 18.8265 24.5379C18.743 24.6583 18.6362 24.7607 18.5124 24.839C18.3885 24.9173 18.2502 24.9698 18.1056 24.9935C17.6964 25.0592 17.3047 25.2068 16.9539 25.4276C16.6031 25.6483 16.3006 25.9376 16.0643 26.2781C15.8281 26.6186 15.663 27.0033 15.5791 27.4091C15.4951 27.815 15.4939 28.2336 15.5757 28.6399C15.6574 29.0462 15.8203 29.4318 16.0547 29.7736C16.2891 30.1154 16.59 30.4063 16.9396 30.629C17.2891 30.8517 17.68 31.0015 18.0888 31.0694C18.4976 31.1374 18.916 31.122 19.3187 31.0244C20.1055 30.8132 20.7809 30.3076 21.2051 29.6122C21.6293 28.9169 21.7699 28.085 21.5977 27.2888L19.1888 15.1408C19.1517 14.9539 19.0717 14.7781 18.9551 14.6273C18.8385 14.4766 18.6885 14.3549 18.517 14.2719C18.3454 14.189 18.1569 14.1469 17.9663 14.1491C17.7758 14.1513 17.5883 14.1978 17.4187 14.2847L7.73417 19.2531Z" fill="white"/>
    <path d="M7.73417 19.2531C7.49621 19.3752 7.30451 19.5715 7.18807 19.8122C7.07162 20.053 7.03679 20.3251 7.08882 20.5875L8.61101 28.2716C8.6396 28.4153 8.63899 28.5633 8.6092 28.7067C8.57941 28.8502 8.52105 28.9862 8.4376 29.1066C8.35416 29.227 8.24733 29.3294 8.12347 29.4077C7.99962 29.486 7.86128 29.5386 7.7167 29.5623C7.43574 29.6087 7.16242 29.6932 6.90428 29.8134C6.22098 30.1413 5.68266 30.7097 5.39241 31.4098C5.10215 32.1099 5.08038 32.8925 5.33125 33.6076C5.58213 34.3228 6.08801 34.9203 6.75202 35.2856C7.41603 35.651 8.19148 35.7585 8.92986 35.5877C9.7144 35.3766 10.3878 34.872 10.8107 34.1783C11.2337 33.4846 11.3738 32.6549 11.2022 31.8608L9.63526 23.9594C9.58851 23.719 9.62392 23.4699 9.73582 23.2521C9.84771 23.0342 10.0296 22.8603 10.2522 22.7583L16.8411 19.7401C16.9912 19.6709 17.155 19.6366 17.3203 19.64C17.4855 19.6433 17.6479 19.684 17.7951 19.7592C17.9423 19.8344 18.0705 19.942 18.17 20.0739C18.2696 20.2059 18.3379 20.3587 18.3698 20.5209L18.9999 23.7028C19.0285 23.8465 19.0279 23.9945 18.9981 24.138C18.9683 24.2814 18.9099 24.4174 18.8265 24.5379C18.743 24.6583 18.6362 24.7607 18.5124 24.839C18.3885 24.9173 18.2502 24.9698 18.1056 24.9935C17.6964 25.0592 17.3047 25.2068 16.9539 25.4276C16.6031 25.6483 16.3006 25.9376 16.0643 26.2781C15.8281 26.6186 15.663 27.0033 15.5791 27.4091C15.4951 27.815 15.4939 28.2336 15.5757 28.6399C15.6574 29.0462 15.8203 29.4318 16.0547 29.7736C16.2891 30.1154 16.59 30.4063 16.9396 30.629C17.2891 30.8517 17.68 31.0015 18.0888 31.0694C18.4976 31.1374 18.916 31.122 19.3187 31.0244C20.1055 30.8132 20.7809 30.3076 21.2051 29.6122C21.6293 28.9169 21.7699 28.085 21.5977 27.2888L19.1888 15.1408C19.1517 14.9539 19.0717 14.7781 18.9551 14.6273C18.8385 14.4766 18.6885 14.3549 18.517 14.2719C18.3454 14.189 18.1569 14.1469 17.9663 14.1491C17.7758 14.1513 17.5883 14.1978 17.4187 14.2847L7.73417 19.2531Z" stroke="primary.darker" stroke-linecap="round" stroke-linejoin="round"/>
    <path d="M12.6481 55.6467L12.4363 56.4035C12.2802 56.9613 12.3521 57.5582 12.6361 58.063C12.9201 58.5678 13.393 58.9391 13.9508 59.0952L16.8107 59.8956L18.2007 54.9326L15.3398 54.1322C14.782 53.9761 14.1851 54.048 13.6803 54.332C13.1755 54.616 12.8042 55.089 12.6481 55.6467Z" fill="primary.lighter" stroke="primary.darker" stroke-linecap="round" stroke-linejoin="round"/>
    <path d="M29.6151 38.0587L17.8034 80.2487L14.9577 79.4526C14.6951 79.3742 14.4636 79.2154 14.2959 78.9986C14.1282 78.7817 14.0328 78.5178 14.023 78.2438C13.1296 63.875 17.1189 49.6259 25.3433 37.8098C25.4941 37.5811 25.7128 37.4055 25.9686 37.3076C26.2244 37.2096 26.5045 37.1943 26.7694 37.2638L29.6151 38.0587Z" fill="primary.light"/>
    <path d="M29.6151 38.0587L17.8034 80.2487L14.9577 79.4526C14.6951 79.3742 14.4636 79.2154 14.2959 78.9986C14.1282 78.7817 14.0328 78.5178 14.023 78.2438C13.1296 63.875 17.1189 49.6259 25.3433 37.8098C25.4941 37.5811 25.7128 37.4055 25.9686 37.3076C26.2244 37.2096 26.5045 37.1943 26.7694 37.2638L29.6151 38.0587Z" stroke="primary.darker" stroke-linecap="round" stroke-linejoin="round"/>
    <path d="M29.8049 38.1111C29.943 38.1498 30.0721 38.2154 30.1849 38.304C30.2977 38.3926 30.3919 38.5026 30.4621 38.6276C30.5324 38.7526 30.5774 38.8903 30.5944 39.0327C30.6115 39.1751 30.6004 39.3194 30.5616 39.4575L19.3385 79.5411C19.2998 79.6792 19.2343 79.8083 19.1456 79.9211C19.057 80.0339 18.9471 80.1281 18.822 80.1983C18.697 80.2686 18.5594 80.3136 18.417 80.3306C18.2746 80.3477 18.1302 80.3365 17.9921 80.2978L15.3223 79.5498L27.134 37.3632L29.8049 38.1111Z" fill="primary.light" stroke="primary.darker" stroke-linecap="round" stroke-linejoin="round"/>
    <path d="M78.955 84.7737H61.3352C61.1534 84.7757 60.9739 84.7338 60.8118 84.6517C60.6496 84.5696 60.5097 84.4497 60.4037 84.302C54.9712 76.3689 55.3174 68.2371 57.2829 60.0409C57.3476 59.8086 57.488 59.6045 57.6818 59.4611C57.8757 59.3176 58.1119 59.2431 58.353 59.2492H75.8243C75.98 59.2426 76.1352 59.2712 76.2783 59.3329C76.4214 59.3947 76.5487 59.4879 76.6507 59.6057C76.7527 59.7234 76.8269 59.8627 76.8676 60.0132C76.9082 60.1636 76.9145 60.3212 76.8857 60.4744C75.2652 67.9892 76.3583 75.6155 79.9432 83.3454C80.0122 83.5049 80.0394 83.6794 80.0224 83.8523C80.0053 84.0252 79.9444 84.191 79.8456 84.3339C79.7467 84.4768 79.613 84.5922 79.4572 84.6691C79.3014 84.7461 79.1285 84.7821 78.955 84.7737Z" fill="white" stroke="primary.darker" stroke-linecap="round" stroke-linejoin="round"/>
    <path d="M60.3393 71.0928H72.5387" stroke="primary.darker" stroke-linecap="round" stroke-linejoin="round"/>
    <path d="M61.3623 75.8372H73.5627" stroke="primary.darker" stroke-linecap="round" stroke-linejoin="round"/>
    <path d="M62.8638 80.5818H75.0642" stroke="primary.darker" stroke-linecap="round" stroke-linejoin="round"/>
</svg>
