<svg viewBox="0 0 96 96" fill="none" xmlns="http://www.w3.org/2000/svg">
    <path d="M48 95.6923C74.3397 95.6923 95.6923 74.3397 95.6923 48C95.6923 21.6603 74.3397 0.307678 48 0.307678C21.6603 0.307678 0.307678 21.6603 0.307678 48C0.307678 74.3397 21.6603 95.6923 48 95.6923Z" fill="#E0EFFF"/>
    <path d="M22.0158 21.8543H22.0161L72.6116 21.8543L72.6118 21.8543C72.9154 21.8542 73.216 21.9139 73.4965 22.03C73.777 22.1461 74.0318 22.3163 74.2464 22.531C74.4611 22.7456 74.6313 23.0005 74.7474 23.2809L75.2094 23.0897L74.7474 23.2809C74.8635 23.5614 74.9232 23.862 74.9231 24.1656V24.1658V54.194C74.9231 54.8071 74.6796 55.395 74.2461 55.8285C73.8126 56.262 73.2247 56.5055 72.6116 56.5055H22.0161C21.403 56.5055 20.8151 56.262 20.3816 55.8285C19.9481 55.395 19.7046 54.8071 19.7046 54.194L19.7046 24.1658L19.7046 24.1656C19.7045 23.862 19.7642 23.5614 19.8803 23.2809C19.9964 23.0005 20.1666 22.7456 20.3813 22.531C20.5959 22.3163 20.8507 22.1461 21.1312 22.03C21.4117 21.9139 21.7123 21.8542 22.0158 21.8543Z" fill="white" stroke="#003670"/>
    <path d="M22.0161 21.3543H72.6116C72.9809 21.3542 73.3466 21.4268 73.6877 21.568C74.0289 21.7092 74.3389 21.9163 74.6 22.1774C74.8611 22.4385 75.0682 22.7485 75.2094 23.0897C75.3506 23.4309 75.4233 23.7965 75.4231 24.1658V54.194C75.4231 54.9397 75.1269 55.6548 74.5996 56.182C74.0724 56.7093 73.3573 57.0055 72.6116 57.0055H22.0161C21.2704 57.0055 20.5553 56.7093 20.028 56.182C19.5008 55.6548 19.2046 54.9397 19.2046 54.194V24.1658C19.2044 23.7965 19.277 23.4309 19.4183 23.0897C19.5595 22.7485 19.7666 22.4385 20.0277 22.1774C20.2888 21.9163 20.5988 21.7092 20.94 21.568C21.2811 21.4268 21.6468 21.3542 22.0161 21.3543V21.3543Z" stroke="#003670" stroke-linecap="round" stroke-linejoin="round"/>
    <path d="M21.2911 56.9101L42.0528 38.2242" stroke="#003670" stroke-linecap="round" stroke-linejoin="round"/>
    <path d="M73.3378 56.9101L52.5761 38.2242" stroke="#003670" stroke-linecap="round" stroke-linejoin="round"/>
    <path d="M72.6117 21.3543H22.0161C21.5022 21.3543 20.9981 21.4952 20.5587 21.7617C20.1193 22.0283 19.7615 22.4103 19.5242 22.8662L45.842 40.808C46.282 41.0881 46.7928 41.2369 47.3145 41.2369C47.8361 41.2369 48.3469 41.0881 48.787 40.808L75.1048 22.8662C74.8671 22.4104 74.509 22.0285 74.0694 21.762C73.6299 21.4954 73.1257 21.3544 72.6117 21.3543Z" fill="white" stroke="#003670" stroke-linecap="round" stroke-linejoin="round"/>
    <path d="M60.4298 74.5551C60.4298 73.5679 54.5577 72.7667 47.3144 72.7667C40.0712 72.7667 34.199 73.5679 34.199 74.5551C34.199 75.5424 40.0712 76.3436 47.3144 76.3436C54.5577 76.3436 60.4298 75.5424 60.4298 74.5551Z" fill="#C2DFFF"/>
    <path d="M90.1065 55.0598C91.7941 44.6599 84.7314 34.8611 74.3315 33.1736C63.9317 31.486 54.1329 38.5487 52.4453 48.9486C50.7577 59.3484 57.8204 69.1472 68.2203 70.8348C78.6201 72.5224 88.4189 65.4597 90.1065 55.0598Z" fill="#C2DFFF" stroke="#003670" stroke-linejoin="round"/>
    <path d="M73.4248 38.6206C80.8142 39.8185 85.8335 46.78 84.6356 54.1694C83.4377 61.5589 76.4763 66.5782 69.0868 65.3803C61.6973 64.1824 56.6781 57.221 57.876 49.8315C59.0738 42.442 66.0353 37.4228 73.4248 38.6206Z" fill="white" stroke="#003670"/>
    <path d="M71.2762 45.9802L71.3132 51.968H74.1223" stroke="#003670" stroke-linecap="round" stroke-linejoin="round"/>
    <path d="M71.2762 62.7583V60.9663" stroke="#003670" stroke-linecap="round" stroke-linejoin="round"/>
    <path d="M71.2762 41.2515V43.0436" stroke="#003670" stroke-linecap="round" stroke-linejoin="round"/>
    <path d="M78.8796 44.4005L77.6122 45.6679" stroke="#003670" stroke-linecap="round" stroke-linejoin="round"/>
    <path d="M82.0296 52.0049H80.2376" stroke="#003670" stroke-linecap="round" stroke-linejoin="round"/>
    <path d="M78.8796 59.6083L77.6122 58.3409" stroke="#003670" stroke-linecap="round" stroke-linejoin="round"/>
    <path d="M63.6729 59.6083L64.9391 58.3409" stroke="#003670" stroke-linecap="round" stroke-linejoin="round"/>
    <path d="M60.5228 52.0049H62.3149" stroke="#003670" stroke-linecap="round" stroke-linejoin="round"/>
    <path d="M63.6729 44.4005L64.9391 45.6679" stroke="#003670" stroke-linecap="round" stroke-linejoin="round"/>
</svg>
