<svg viewBox="12 12 100 102" fill="none" xmlns="http://www.w3.org/2000/svg">
<path d="M13.3965 64.8459C13.3965 77.8691 18.5699 90.3589 27.7787 99.5677C36.9875 108.776 49.4773 113.95 62.5005 113.95C75.5237 113.95 88.0135 108.776 97.2223 99.5677C106.431 90.3589 111.604 77.8691 111.604 64.8459C111.604 51.8228 106.431 39.333 97.2223 30.1242C88.0135 20.9154 75.5237 15.7419 62.5005 15.7419C49.4773 15.7419 36.9875 20.9154 27.7787 30.1242C18.5699 39.333 13.3965 51.8228 13.3965 64.8459Z" fill="primary.lighter"/>
<path d="M47.0479 101.165C47.0479 101.815 48.6948 102.438 51.6264 102.898C54.5581 103.358 58.5342 103.616 62.6801 103.616C66.826 103.616 70.8022 103.358 73.7338 102.898C76.6654 102.438 78.3124 101.815 78.3124 101.165C78.3124 100.514 76.6654 99.8909 73.7338 99.4312C70.8022 98.9714 66.826 98.7131 62.6801 98.7131C58.5342 98.7131 54.5581 98.9714 51.6264 99.4312C48.6948 99.8909 47.0479 100.514 47.0479 101.165Z" fill="primary.light"/>
<path d="M40.0919 74.4655C40.1254 74.6473 40.1944 74.8208 40.295 74.9759C40.3956 75.131 40.5258 75.2648 40.6781 75.3695C40.8304 75.4743 41.0019 75.548 41.1827 75.5865C41.3635 75.625 41.5502 75.6274 41.732 75.5937L81.9039 68.1765C82.0857 68.1431 82.2592 68.0743 82.4143 67.9738C82.5695 67.8734 82.7033 67.7433 82.8082 67.5911C82.9131 67.4389 82.987 67.2676 83.0256 67.0868C83.0642 66.9061 83.0668 66.7195 83.0333 66.5377L74.7446 21.5719L60.8027 11.9856L31.0199 17.484C30.8381 17.5174 30.6647 17.5863 30.5095 17.6867C30.3544 17.7872 30.2205 17.9172 30.1156 18.0694C30.0107 18.2216 29.9369 18.393 29.8982 18.5737C29.8596 18.7545 29.857 18.9411 29.8905 19.1229L40.0919 74.4655Z" fill="white" stroke="primary.darker" stroke-linecap="round" stroke-linejoin="round"/>
<path d="M74.7436 21.5719L64.3667 23.4882C63.9962 23.5553 63.6141 23.473 63.3041 23.2593C62.994 23.0456 62.7811 22.7179 62.7119 22.3478L60.8018 11.9856L74.7436 21.5719Z" fill="primary.light" stroke="primary.darker" stroke-width="0.4" stroke-linecap="round" stroke-linejoin="round"/>
<path d="M38.623 27.0543L53.5286 24.3032" stroke="primary.darker" stroke-linecap="round" stroke-linejoin="round"/>
<path d="M40.3652 36.5069L68.2023 31.3669" stroke="primary.darker" stroke-linecap="round" stroke-linejoin="round"/>
<path d="M42.1074 45.9593L69.9457 40.8193" stroke="primary.darker" stroke-linecap="round" stroke-linejoin="round"/>
<path d="M43.8506 55.4119L71.6876 50.272" stroke="primary.darker" stroke-linecap="round" stroke-linejoin="round"/>
<path d="M45.5918 64.8631L73.4289 59.7244" stroke="primary.darker" stroke-linecap="round" stroke-linejoin="round"/>
<path d="M41.2156 74.1953C41.1623 74.5651 41.258 74.941 41.4818 75.2403C41.7055 75.5396 42.039 75.7377 42.4088 75.7912L82.8398 81.6272C83.2093 81.6805 83.5849 81.5851 83.8841 81.3619C84.1833 81.1386 84.3817 80.8058 84.4357 80.4364L90.98 35.1834L80.8438 21.638L50.8694 17.3095C50.6864 17.283 50.4999 17.2927 50.3206 17.3382C50.1413 17.3838 49.9727 17.4642 49.8245 17.5749C49.6763 17.6856 49.5514 17.8244 49.4568 17.9834C49.3623 18.1424 49.3 18.3185 49.2736 18.5015L41.2156 74.1953Z" fill="white" stroke="primary.darker" stroke-linecap="round" stroke-linejoin="round"/>
<path d="M90.9799 35.1836L80.5354 33.6761C80.163 33.6211 79.8275 33.421 79.6021 33.1194C79.3767 32.8179 79.2797 32.4394 79.3324 32.0667L80.8411 21.6321L90.9799 35.1836Z" fill="primary.light" stroke="primary.darker" stroke-linecap="round" stroke-linejoin="round"/>
<path d="M55.0068 28.811L70.0093 30.9777" stroke="primary.darker" stroke-linecap="round" stroke-linejoin="round"/>
<path d="M53.6309 38.3237L81.6484 42.3687" stroke="primary.darker" stroke-linecap="round" stroke-linejoin="round"/>
<path d="M52.2549 47.8364L80.2724 51.8814" stroke="primary.darker" stroke-linecap="round" stroke-linejoin="round"/>
<path d="M50.8779 57.3491L78.8954 61.3941" stroke="primary.darker" stroke-linecap="round" stroke-linejoin="round"/>
<path d="M49.502 66.8618L77.5195 70.9068" stroke="primary.darker" stroke-linecap="round" stroke-linejoin="round"/>
<path d="M96.6277 82.748C96.6571 83.265 96.5843 83.7827 96.4134 84.2715C96.2426 84.7603 95.9771 85.2107 95.6321 85.5968C95.2871 85.983 94.8694 86.2974 94.4028 86.522C93.9363 86.7466 93.43 86.8771 92.913 86.9059L32.6047 90.3272C32.0879 90.3566 31.5704 90.2838 31.0818 90.1132C30.5931 89.9425 30.1428 89.6772 29.7567 89.3325C29.3706 88.9877 29.0562 88.5703 28.8314 88.104C28.6067 87.6377 28.476 87.1318 28.4468 86.615L26.0923 45.1135C26.033 44.0699 26.3906 43.0454 27.0865 42.2655C27.7825 41.4855 28.7597 41.0139 29.8033 40.9544L39.1159 40.4265C40.01 40.4262 40.8729 40.7548 41.5404 41.3497L46.9811 46.7818C47.649 47.3768 48.5124 47.7054 49.4069 47.705L90.556 45.3725C91.5998 45.3135 92.6242 45.6715 93.4041 46.3676C94.1841 47.0637 94.6556 48.0411 94.7151 49.0848L96.6277 82.748Z" fill="primary.light"/>
<path d="M96.6277 82.748C96.6571 83.265 96.5843 83.7827 96.4134 84.2715C96.2426 84.7603 95.9771 85.2107 95.6321 85.5968C95.2871 85.983 94.8694 86.2974 94.4028 86.522C93.9363 86.7466 93.43 86.8771 92.913 86.9059L32.6047 90.3272C32.0879 90.3566 31.5704 90.2838 31.0818 90.1132C30.5931 89.9425 30.1428 89.6772 29.7567 89.3325C29.3706 88.9877 29.0562 88.5703 28.8314 88.104C28.6067 87.6377 28.476 87.1318 28.4468 86.615L26.0923 45.1135C26.033 44.0699 26.3906 43.0454 27.0865 42.2655C27.7825 41.4855 28.7597 41.0139 29.8033 40.9544L39.1159 40.4265C40.01 40.4262 40.8729 40.7548 41.5404 41.3497L46.9811 46.7818C47.649 47.3768 48.5124 47.7054 49.4069 47.705L90.556 45.3725C91.5998 45.3135 92.6242 45.6715 93.4041 46.3676C94.1841 47.0637 94.6556 48.0411 94.7151 49.0848L96.6277 82.748Z" stroke="primary.darker" stroke-linecap="round" stroke-linejoin="round"/>
</svg>
