<svg viewBox="11 12 102 101" fill="none" xmlns="http://www.w3.org/2000/svg">
<path d="M13.3965 64.2163C13.3965 77.2395 18.5699 89.7293 27.7787 98.9381C36.9875 108.147 49.4773 113.32 62.5005 113.32C75.5237 113.32 88.0135 108.147 97.2223 98.9381C106.431 89.7293 111.604 77.2395 111.604 64.2163C111.604 51.1931 106.431 38.7033 97.2223 29.4945C88.0135 20.2857 75.5237 15.1123 62.5005 15.1123C49.4773 15.1123 36.9875 20.2857 27.7787 29.4945C18.5699 38.7033 13.3965 51.1931 13.3965 64.2163Z" fill="primary.lighter"/>
<path d="M92.8712 40.0473C93.0603 39.2278 93.476 38.4779 94.0707 37.8832C94.6654 37.2885 95.4153 36.8729 96.2348 36.6837L102.987 35.1259C103.11 35.0975 103.221 35.028 103.3 34.9287C103.379 34.8293 103.423 34.706 103.423 34.579C103.423 34.4519 103.379 34.3286 103.3 34.2293C103.221 34.1299 103.11 34.0604 102.987 34.0321L96.2348 32.4755C95.4152 32.2862 94.6652 31.8706 94.0703 31.2759C93.4754 30.6812 93.0595 29.9314 92.8699 29.1119L91.3121 22.3601C91.2833 22.2368 91.2136 22.1269 91.1145 22.0482C91.0153 21.9696 90.8924 21.9268 90.7658 21.9268C90.6392 21.9268 90.5164 21.9696 90.4172 22.0482C90.318 22.1269 90.2484 22.2368 90.2196 22.3601L88.6617 29.1119C88.4727 29.9314 88.0571 30.6814 87.4623 31.2761C86.8676 31.8708 86.1177 32.2864 85.2981 32.4755L78.5463 34.0321C78.4224 34.0604 78.3119 34.1299 78.2327 34.2293C78.1535 34.3286 78.1104 34.4519 78.1104 34.579C78.1104 34.706 78.1535 34.8293 78.2327 34.9287C78.3119 35.028 78.4224 35.0975 78.5463 35.1259L85.2981 36.6837C86.1177 36.8727 86.8676 37.2883 87.4623 37.8831C88.0571 38.4778 88.4727 39.2277 88.6617 40.0473L90.2196 46.7991C90.2484 46.9224 90.318 47.0323 90.4172 47.1109C90.5164 47.1896 90.6392 47.2324 90.7658 47.2324C90.8924 47.2324 91.0153 47.1896 91.1145 47.1109C91.2136 47.0323 91.2833 46.9224 91.3121 46.7991L92.8712 40.0473Z" fill="white" stroke="primary.darker" stroke-linecap="round" stroke-linejoin="round"/>
<path d="M34.2779 47.063C34.4039 46.5162 34.6811 46.0157 35.0779 45.6189C35.4747 45.2221 35.9751 44.9449 36.522 44.819L41.0273 43.7792C41.1093 43.7595 41.1823 43.7127 41.2344 43.6465C41.2866 43.5802 41.315 43.4983 41.315 43.414C41.315 43.3297 41.2866 43.2478 41.2344 43.1815C41.1823 43.1153 41.1093 43.0685 41.0273 43.0488L36.522 42.0102C35.9751 41.8843 35.4747 41.6071 35.0779 41.2103C34.6811 40.8135 34.4039 40.3131 34.2779 39.7662L33.2382 35.2633C33.2257 35.1756 33.1819 35.0952 33.1149 35.0371C33.0479 34.979 32.9622 34.947 32.8736 34.947C32.7849 34.947 32.6992 34.979 32.6322 35.0371C32.5652 35.0952 32.5215 35.1756 32.509 35.2633L31.4704 39.7662C31.344 40.313 31.0665 40.8133 30.6695 41.2101C30.2725 41.6069 29.7721 41.8841 29.2251 42.0102L24.7235 43.0488C24.6407 43.0675 24.5666 43.1139 24.5136 43.1802C24.4605 43.2466 24.4316 43.329 24.4316 43.414C24.4316 43.499 24.4605 43.5814 24.5136 43.6478C24.5666 43.7141 24.6407 43.7605 24.7235 43.7792L29.2251 44.8178C29.772 44.944 30.2724 45.2215 30.6692 45.6185C31.066 46.0155 31.3432 46.5161 31.4692 47.063L32.509 51.5671C32.5215 51.6549 32.5652 51.7352 32.6322 51.7933C32.6992 51.8514 32.7849 51.8834 32.8736 51.8834C32.9622 51.8834 33.0479 51.8514 33.1149 51.7933C33.1819 51.7352 33.2257 51.6549 33.2382 51.5671L34.2779 47.063Z" fill="white" stroke="primary.darker" stroke-linecap="round" stroke-linejoin="round"/>
<path d="M66.2471 25.256C66.3791 24.6844 66.669 24.1613 67.0838 23.7463C67.4985 23.3313 68.0215 23.0412 68.593 22.9088L73.3033 21.8224C73.3892 21.8022 73.4658 21.7535 73.5206 21.6843C73.5753 21.6152 73.6051 21.5295 73.6051 21.4412C73.6051 21.353 73.5753 21.2673 73.5206 21.1982C73.4658 21.129 73.3892 21.0803 73.3033 21.0601L68.593 19.9737C68.0214 19.8413 67.4983 19.5511 67.0834 19.1362C66.6684 18.7212 66.3782 18.1982 66.2459 17.6265L65.1594 12.9199C65.1402 12.8331 65.092 12.7554 65.0227 12.6998C64.9534 12.6441 64.8672 12.6138 64.7783 12.6138C64.6894 12.6138 64.6031 12.6441 64.5338 12.6998C64.4645 12.7554 64.4163 12.8331 64.3971 12.9199L63.3107 17.6265C63.1787 18.1984 62.8887 18.7216 62.4737 19.1366C62.0587 19.5516 61.5354 19.8417 60.9635 19.9737L56.2569 21.0601C56.171 21.0803 56.0944 21.129 56.0397 21.1982C55.9849 21.2673 55.9551 21.353 55.9551 21.4412C55.9551 21.5295 55.9849 21.6152 56.0397 21.6843C56.0944 21.7535 56.171 21.8022 56.2569 21.8224L60.9635 22.9088C61.5354 23.0407 62.0588 23.3307 62.4738 23.7457C62.8888 24.1607 63.1788 24.6841 63.3107 25.256L64.3971 29.9663C64.4173 30.0522 64.466 30.1288 64.5352 30.1835C64.6044 30.2383 64.69 30.2681 64.7783 30.2681C64.8665 30.2681 64.9522 30.2383 65.0214 30.1835C65.0905 30.1288 65.1392 30.0522 65.1594 29.9663L66.2471 25.256Z" fill="white" stroke="primary.darker" stroke-linecap="round" stroke-linejoin="round"/>
<path d="M36.6377 97.6769L42.114 96.7108C42.2728 96.6829 42.4246 96.624 42.5606 96.5375C42.6967 96.4509 42.8143 96.3384 42.9069 96.2064C42.9995 96.0744 43.0651 95.9255 43.1001 95.7681C43.1351 95.6107 43.1388 95.448 43.1109 95.2892L38.2311 67.6203C38.2033 67.4615 38.1444 67.3098 38.0578 67.1737C37.9713 67.0377 37.8588 66.92 37.7268 66.8275C37.5948 66.7349 37.4459 66.6692 37.2885 66.6342C37.1311 66.5993 36.9684 66.5956 36.8096 66.6235L31.332 67.5896L36.6377 97.6769Z" fill="white" stroke="primary.darker" stroke-linecap="round" stroke-linejoin="round"/>
<path d="M63.0586 58.5484C62.424 50.078 60.3763 32.0212 53.4269 33.2464C52.7684 33.3624 52.1392 33.6071 51.5752 33.9663C51.0113 34.3256 50.5237 34.7925 50.1402 35.3402C49.7567 35.888 49.4849 36.5059 49.3402 37.1587C49.1956 37.8116 49.181 38.4865 49.2972 39.145L49.5919 40.8157C51.7524 53.0733 48.6957 66.8261 38.4121 68.6393L42.9211 94.2716L44.2371 94.0408C50.6636 92.9065 54.4924 96.8274 66.0036 94.7982L85.5041 91.3609C86.6824 91.1485 87.7286 90.4778 88.4135 89.4957C89.0984 88.5136 89.3663 87.3001 89.1584 86.1209C88.9506 84.9417 88.284 83.893 87.3046 83.2042C86.3251 82.5155 85.1127 82.2429 83.9327 82.4461L86.1608 82.0533C87.3392 81.8408 88.3853 81.1701 89.0703 80.188C89.7552 79.2059 90.023 77.9924 89.8152 76.8133C89.6073 75.6341 88.9407 74.5853 87.9613 73.8966C86.9819 73.2078 85.7695 72.9352 84.5895 73.1384L86.8176 72.7456C87.9959 72.5332 89.0421 71.8625 89.727 70.8804C90.4119 69.8982 90.6798 68.6848 90.472 67.5056C90.2641 66.3264 89.5975 65.2777 88.6181 64.5889C87.6387 63.9002 86.4262 63.6276 85.2463 63.8308L87.4744 63.4379C88.6527 63.2255 89.6989 62.5548 90.3838 61.5727C91.0687 60.5906 91.3366 59.3771 91.1287 58.1979C90.9209 57.0188 90.2543 55.97 89.2749 55.2812C88.2954 54.5925 87.083 54.3199 85.903 54.5231L63.0586 58.5484Z" fill="white" stroke="primary.darker" stroke-linecap="round" stroke-linejoin="round"/>
<path d="M58.6016 59.334L63.059 58.5483" stroke="primary.darker" stroke-linecap="round" stroke-linejoin="round"/>
<path d="M83.9324 82.4436L81.7031 82.8364" stroke="primary.darker" stroke-linecap="round" stroke-linejoin="round"/>
<path d="M84.5897 73.136L82.3604 73.5288" stroke="primary.darker" stroke-linecap="round" stroke-linejoin="round"/>
<path d="M85.2459 63.8284L83.0166 64.2212" stroke="primary.darker" stroke-linecap="round" stroke-linejoin="round"/>
<path d="M16.2197 67.9567L29.7233 65.5739C29.8821 65.5459 30.0449 65.5493 30.2024 65.5842C30.3598 65.619 30.5089 65.6845 30.641 65.777C30.7731 65.8694 30.8857 65.987 30.9724 66.123C31.0591 66.259 31.1181 66.4107 31.1461 66.5695L36.8103 98.697C36.8666 99.0176 36.7934 99.3474 36.6067 99.6139C36.4201 99.8805 36.1352 100.062 35.8147 100.119L22.3111 102.5L16.2197 67.9567Z" fill="primary.light"/>
<path d="M16.2197 67.9567L29.7233 65.5739C29.8821 65.5459 30.0449 65.5493 30.2024 65.5842C30.3598 65.619 30.5089 65.6845 30.641 65.777C30.7731 65.8694 30.8857 65.987 30.9724 66.123C31.0591 66.259 31.1181 66.4107 31.1461 66.5695L36.8103 98.697C36.8666 99.0176 36.7934 99.3474 36.6067 99.6139C36.4201 99.8805 36.1352 100.062 35.8147 100.119L22.3111 102.5" stroke="primary.darker" stroke-linecap="round" stroke-linejoin="round"/>
</svg>
