<svg viewBox="0 0 86 96" fill="none" xmlns="http://www.w3.org/2000/svg">
    <path d="M43.3871 96C66.8387 96 85.8499 76.9887 85.8499 53.5371C85.8499 30.0855 66.8387 11.0742 43.3871 11.0742C19.9355 11.0742 0.924194 30.0855 0.924194 53.5371C0.924194 76.9887 19.9355 96 43.3871 96Z" fill="primary.lighter"/>
    <path d="M42.1121 87.3089C55.2698 87.3089 65.9362 86.1909 65.9362 84.8118C65.9362 83.4327 55.2698 82.3148 42.1121 82.3148C28.9544 82.3148 18.288 83.4327 18.288 84.8118C18.288 86.1909 28.9544 87.3089 42.1121 87.3089Z" fill="primary.light"/>
    <path d="M38.999 53.2562C40.1471 53.9504 41.4632 54.3173 42.8049 54.3173C44.1466 54.3173 45.4627 53.9504 46.6108 53.2562L76.8297 34.9963L47.5224 10.475C46.2066 9.36689 44.5425 8.75769 42.8223 8.75441C41.1021 8.75112 39.4357 9.35395 38.1157 10.4571L8.8045 34.9783L38.999 53.2562Z" fill="primary.lighter"/>
    <path d="M38.999 53.2566C40.1471 53.9507 41.4632 54.3176 42.8049 54.3176C44.1466 54.3176 45.4627 53.9507 46.6108 53.2566L76.8297 34.9966L47.5224 10.4754C46.1984 9.36625 44.5263 8.75842 42.7991 8.75842C41.072 8.75842 39.3999 9.36625 38.0759 10.4754L8.8045 34.9799L38.999 53.2566Z" stroke="primary.darker" stroke-linecap="round" stroke-linejoin="round"/>
    <path d="M66.7364 53.3958C66.7364 53.8834 66.5427 54.351 66.198 54.6958C65.8532 55.0406 65.3856 55.2343 64.898 55.2343H20.7521C20.513 55.2344 20.2764 55.1875 20.0555 55.0962C19.8346 55.0048 19.6339 54.8708 19.4649 54.7019C19.2958 54.5329 19.1617 54.3323 19.0702 54.1115C18.9787 53.8907 18.9316 53.6541 18.9316 53.4151V2.44688C18.9316 2.06314 19.084 1.69512 19.3554 1.42378C19.6267 1.15244 19.9947 1 20.3785 1H65.2895C65.4796 0.999832 65.6678 1.03714 65.8434 1.10979C66.0191 1.18245 66.1786 1.28902 66.313 1.4234C66.4474 1.55779 66.554 1.71736 66.6266 1.89298C66.6993 2.0686 66.7366 2.25683 66.7364 2.44688V53.3958Z" fill="white"/>
    <path d="M66.7367 12.0756V2.44688C66.7369 2.25683 66.6996 2.0686 66.6269 1.89298C66.5543 1.71736 66.4477 1.55779 66.3133 1.4234C66.1789 1.28902 66.0193 1.18245 65.8437 1.10979C65.6681 1.03714 65.4799 0.999832 65.2898 1H20.3826C19.9989 1 19.6309 1.15244 19.3595 1.42378C19.0882 1.69512 18.9357 2.06314 18.9357 2.44688V11.9062C18.9357 11.9508 18.9534 11.9935 18.985 12.0251C19.0165 12.0566 19.0593 12.0744 19.1039 12.0744L66.7367 12.0756Z" fill="primary.lighter"/>
    <path d="M18.9354 12.0758H66.7363" stroke="primary.darker" stroke-linecap="round" stroke-linejoin="round"/>
    <path d="M66.7364 53.3958C66.7364 53.8834 66.5427 54.351 66.198 54.6958C65.8532 55.0406 65.3856 55.2343 64.898 55.2343H20.7521C20.513 55.2344 20.2764 55.1875 20.0555 55.0962C19.8346 55.0048 19.6339 54.8708 19.4649 54.7019C19.2958 54.5329 19.1617 54.3323 19.0702 54.1115C18.9787 53.8907 18.9316 53.6541 18.9316 53.4151V2.44688C18.9316 2.06314 19.084 1.69512 19.3554 1.42378C19.6267 1.15244 19.9947 1 20.3785 1H65.2895C65.4796 0.999832 65.6678 1.03714 65.8434 1.10979C66.0191 1.18245 66.1786 1.28902 66.313 1.4234C66.4474 1.55779 66.554 1.71736 66.6266 1.89298C66.6993 2.0686 66.7366 2.25683 66.7364 2.44688V53.3958Z" stroke="primary.darker" stroke-linecap="round" stroke-linejoin="round"/>
    <path d="M24.2188 18.219H44.7601" stroke="primary.darker" stroke-linecap="round" stroke-linejoin="round"/>
    <path d="M24.2188 22.0702H60.1662" stroke="primary.darker" stroke-linecap="round" stroke-linejoin="round"/>
    <path d="M24.2188 25.9222H49.8955" stroke="primary.darker" stroke-linecap="round" stroke-linejoin="round"/>
    <path d="M8.80456 34.9775L38.9991 53.2555C40.1471 53.9499 41.4633 54.317 42.805 54.317C44.1467 54.317 45.4628 53.9499 46.6109 53.2555L76.8298 34.9955V70.8645C76.8281 72.8157 76.0517 74.6864 74.6713 76.0653C73.2909 77.4443 71.4194 78.2187 69.4683 78.2183H16.143C15.1773 78.2199 14.2209 78.0305 13.3287 77.6611C12.4365 77.2918 11.6261 76.7497 10.9442 76.066C10.2622 75.3824 9.72207 74.5707 9.35488 73.6776C8.9877 72.7845 8.80067 71.8276 8.80456 70.862V34.9775Z" fill="white"/>
    <path d="M8.80456 34.9775L38.9991 53.2555C40.1471 53.9499 41.4633 54.317 42.805 54.317C44.1467 54.317 45.4629 53.9499 46.6109 53.2555L76.8298 34.9955V70.8645C76.8281 72.8157 76.0517 74.6864 74.6713 76.0653C73.2909 77.4443 71.4194 78.2187 69.4683 78.2183H16.143C15.1773 78.2199 14.2209 78.0305 13.3287 77.6611C12.4365 77.2918 11.6261 76.7497 10.9442 76.066C10.2622 75.3824 9.72207 74.5707 9.35488 73.6776C8.9877 72.7845 8.80067 71.8276 8.80456 70.862V34.9775Z" stroke="primary.darker" stroke-linecap="round" stroke-linejoin="round"/>
    <path d="M74.8912 75.8359L48.9963 51.7974L47.8011 50.6945C46.4444 49.4273 44.6571 48.7224 42.8005 48.7224C40.944 48.7224 39.1567 49.4273 37.8 50.6945L36.6048 51.7974L10.7162 75.8282C10.7894 75.9078 10.8652 75.9861 10.9422 76.0631C12.3215 77.4425 14.1923 78.2174 16.143 78.2174H69.4683C70.488 78.2182 71.4967 78.0069 72.4302 77.5969C73.3638 77.1869 74.2019 76.5872 74.8912 75.8359Z" fill="white" stroke="primary.darker" stroke-linecap="round" stroke-linejoin="round"/>
    <rect x="29.3539" y="33.4104" width="26.9605" height="7.703" rx="1.5" fill="primary.light"/>
    <path d="M35.7734 37.2611L49.8956 37.2611" stroke="primary.darker" stroke-linecap="round" stroke-linejoin="round"/>
</svg>
