<svg viewBox="0 0 100 100" fill="none" xmlns="http://www.w3.org/2000/svg">
<path d="M0.787445 50C0.787445 63.1548 6.01315 75.7707 15.315 85.0725C24.6168 94.3743 37.2327 99.6 50.3874 99.6C63.5422 99.6 76.1581 94.3743 85.4599 85.0725C94.7617 75.7707 99.9874 63.1548 99.9874 50C99.9874 36.8453 94.7617 24.2293 85.4599 14.9275C76.1581 5.62572 63.5422 0.400024 50.3874 0.400024C37.2327 0.400024 24.6168 5.62572 15.315 14.9275C6.01315 24.2293 0.787445 36.8453 0.787445 50V50Z" fill="primary.150"/>
<path d="M94.2921 26.9026C91.974 22.5079 89.0106 18.4854 85.5005 14.9688C77.7143 14.1614 70.0127 12.6803 62.4824 10.542C40.4364 4.14238 27.1771 9.97782 19.9355 15.998C9.35833 24.802 4.06353 40.2661 5.77349 57.3719C6.23888 61.8971 6.12053 66.4635 5.42133 70.9585C7.5445 75.5003 10.3426 79.6948 13.7206 83.3995C16.7672 74.6981 17.8459 65.4293 16.8789 56.2608C15.536 42.8527 19.349 31.0095 27.0742 24.5801C34.5812 18.3329 45.4473 17.2145 59.37 21.2569C70.761 24.4477 82.476 26.3416 94.2921 26.9026Z" fill="primary.200"/>
<path d="M14.0787 82.0449C17.1252 73.3435 17.8459 65.4329 16.8789 56.2645C15.536 42.8526 19.349 31.0094 27.0742 24.58C34.5812 18.3329 45.4473 17.2144 59.37 21.2568C70.761 24.4472 82.476 26.3407 94.2921 26.9013" stroke="primary.800" stroke-linecap="round" stroke-linejoin="round"/>
<path d="M85.5005 14.9688C77.7143 14.1614 70.0127 12.6803 62.4824 10.542C40.4364 4.14238 27.1771 9.97782 19.9355 15.998C9.35833 24.802 4.06353 40.2661 5.77349 57.3719C6.23889 61.8971 6.12053 66.4635 5.42133 70.9585" stroke="primary.800" stroke-linecap="round" stroke-linejoin="round"/>
<path d="M93.6312 74.3041L82.2951 80.7521C81.7588 81.0577 81.17 81.26 80.5591 81.3485L34.0517 88.1921C33.0079 88.3456 31.9424 88.1623 31.01 87.6688L7.74756 75.3544C10.2651 79.5747 13.3932 83.3993 17.0302 86.7041L31.2381 93.9432C32.1554 94.411 33.1955 94.5817 34.2141 94.4317L82.62 87.3241C82.8149 87.294 83.0078 87.2526 83.1978 87.2001C87.3719 83.5147 90.8985 79.1556 93.6312 74.3041Z" fill="white"/>
<path d="M17.0302 86.704L31.2381 93.9431C32.1554 94.4109 33.1955 94.5816 34.2141 94.4317L82.62 87.324C82.8149 87.2939 83.0078 87.2525 83.1978 87.2" stroke="primary.800" stroke-linecap="round" stroke-linejoin="round"/>
<path d="M93.6312 74.3041L82.2951 80.7521C81.7588 81.0577 81.17 81.26 80.5591 81.3485L34.0517 88.1921C33.0079 88.3456 31.9424 88.1623 31.01 87.6688L7.74756 75.3544" stroke="primary.800" stroke-linecap="round" stroke-linejoin="round"/>
<path d="M35.8429 71.5623L56.0815 68.7525C56.3789 68.7112 56.6806 68.7897 56.92 68.9708C57.1595 69.1519 57.3173 69.4208 57.3586 69.7182L58.2927 76.4463C58.3339 76.7437 58.2554 77.0454 58.0743 77.2849C57.8932 77.5244 57.6244 77.6821 57.327 77.7234L37.0798 80.5344C36.7824 80.5757 36.4807 80.4971 36.2413 80.316C36.0018 80.1349 35.844 79.8661 35.8027 79.5687L34.869 72.8429C34.8486 72.6949 34.8576 72.5442 34.8956 72.3996C34.9335 72.2551 34.9996 72.1194 35.0901 72.0004C35.1806 71.8814 35.2936 71.7815 35.4228 71.7063C35.552 71.6311 35.6948 71.5822 35.8429 71.5623Z" fill="white" stroke="primary.800" stroke-linecap="round" stroke-linejoin="round"/>
<path d="M60.8554 36.1783L62.8042 25.4972L96.2675 31.6027L94.3187 42.2838L60.8554 36.1783Z" fill="white" stroke="primary.800" stroke-linecap="round" stroke-linejoin="round"/>
<path d="M39.4441 26.2092L55.6492 23.9594L56.7086 31.5904L40.5035 33.8402L39.4441 26.2092Z" fill="white" stroke="primary.800" stroke-linecap="round" stroke-linejoin="round"/>
<path d="M24.2594 50.287C24.0876 50.3063 23.9218 50.3612 23.7725 50.4484C23.6232 50.5355 23.4938 50.653 23.3926 50.7931C23.2913 50.9332 23.2205 51.0929 23.1847 51.262C23.1488 51.4311 23.1487 51.6058 23.1843 51.775L26.3687 66.6401C26.4355 66.952 26.6199 67.2262 26.8836 67.4056C27.1474 67.5851 27.4701 67.656 27.7847 67.6036L55.3313 63.0156C55.6226 62.967 55.9217 63.0241 56.1747 63.1764C56.4277 63.3287 56.618 63.5663 56.7115 63.8464L57.2992 65.6097C57.3889 65.8789 57.5681 66.1092 57.8071 66.2623C58.0461 66.4153 58.3303 66.4817 58.6124 66.4504L67.6731 65.4435C67.9765 65.4099 68.2568 65.2656 68.4605 65.0382C68.6641 64.8108 68.7767 64.5162 68.7767 64.2109V43.999C68.7766 43.7169 68.6804 43.4432 68.5039 43.2232C68.3274 43.0032 68.0811 42.8499 67.8057 42.7887L58.5876 40.7402C58.3122 40.679 58.066 40.5258 57.8894 40.3057C57.7129 40.0857 57.6167 39.8121 57.6167 39.53V38.29C57.6167 38.1083 57.5768 37.9289 57.4998 37.7644C57.4229 37.5998 57.3107 37.4542 57.1712 37.3378C57.0317 37.2214 56.8684 37.1371 56.6928 37.0908C56.5171 37.0445 56.3334 37.0373 56.1547 37.0698L45.1509 39.0712C44.8355 39.1286 44.5545 39.3059 44.367 39.566C44.1795 39.8261 44.1 40.1488 44.1453 40.4662L45.0356 46.6984C45.0591 46.8629 45.0492 47.0304 45.0067 47.1909C44.9641 47.3515 44.8898 47.5019 44.788 47.6331C44.6862 47.7644 44.5591 47.8739 44.4142 47.9551C44.2693 48.0363 44.1095 48.0876 43.9444 48.1058L24.2594 50.287Z" fill="white" stroke="primary.800" stroke-linecap="round" stroke-linejoin="round"/>
<path d="M66.7766 42.2382V62.2084L85.3766 62.0782L90.3366 44.7182L66.7766 42.2382Z" fill="white" stroke="primary.800" stroke-linecap="round" stroke-linejoin="round"/>
<path d="M65 60.5C65 61.9587 65.5794 63.3576 66.6109 64.3891C67.6423 65.4205 69.0413 66 70.5 66C71.9587 66 73.3576 65.4205 74.3891 64.3891C75.4205 63.3576 76 61.9587 76 60.5C76 59.0413 75.4205 57.6424 74.3891 56.6109C73.3576 55.5795 71.9587 55 70.5 55C69.0413 55 67.6423 55.5795 66.6109 56.6109C65.5794 57.6424 65 59.0413 65 60.5Z" fill="white" stroke="primary.800" stroke-linecap="round" stroke-linejoin="round"/>
<path d="M46.4678 77.435C46.4678 80.659 41.7037 86.554 39.9603 88.605C39.8825 88.6962 39.7858 88.7695 39.677 88.8198C39.5681 88.8701 39.4496 88.8961 39.3297 88.8961C39.2098 88.8961 39.0913 88.8701 38.9825 88.8198C38.8736 88.7695 38.7769 88.6962 38.6992 88.605C36.9545 86.5515 32.1917 80.6553 32.1917 77.435C32.1792 76.4897 32.3546 75.5514 32.7078 74.6744C33.0609 73.7975 33.5847 72.9994 34.2488 72.3265C34.9128 71.6536 35.7039 71.1194 36.5761 70.7547C37.4484 70.3901 38.3843 70.2023 39.3297 70.2023C40.2751 70.2023 41.2111 70.3901 42.0833 70.7547C42.9555 71.1194 43.7466 71.6536 44.4107 72.3265C45.0747 72.9994 45.5985 73.7975 45.9517 74.6744C46.3048 75.5514 46.4802 76.4897 46.4678 77.435Z" fill="primary.200" stroke="primary.800" stroke-linecap="round" stroke-linejoin="round"/>
<path d="M77.7262 48.1766C77.7262 51.4006 72.9621 57.2956 71.2174 59.3465C71.1398 59.4378 71.0432 59.5111 70.9345 59.5613C70.8257 59.6116 70.7073 59.6376 70.5875 59.6376C70.4677 59.6376 70.3493 59.6116 70.2405 59.5613C70.1318 59.5111 70.0352 59.4378 69.9576 59.3465C68.2129 57.2931 63.4501 51.3969 63.4501 48.1766C63.4376 47.2313 63.613 46.293 63.9662 45.416C64.3193 44.539 64.8431 43.741 65.5072 43.0681C66.1712 42.3952 66.9623 41.8609 67.8345 41.4963C68.7068 41.1316 69.6427 40.9438 70.5881 40.9438C71.5335 40.9438 72.4695 41.1316 73.3417 41.4963C74.2139 41.8609 75.005 42.3952 75.6691 43.0681C76.3331 43.741 76.8569 44.539 77.2101 45.416C77.5632 46.293 77.7386 47.2313 77.7262 48.1766Z" fill="primary.200" stroke="primary.800" stroke-linecap="round" stroke-linejoin="round"/>
<path d="M23.2197 28.6101L39.4248 26.3603L41.6042 42.0582L25.3991 44.308L23.2197 28.6101Z" fill="white" stroke="primary.800" stroke-linecap="round" stroke-linejoin="round"/>
<path d="M38.1082 24.4912C38.1082 27.7152 33.3441 33.6101 31.6007 35.6611C31.5229 35.7524 31.4263 35.8257 31.3174 35.876C31.2086 35.9262 31.0901 35.9523 30.9702 35.9523C30.8503 35.9523 30.7318 35.9262 30.6229 35.876C30.514 35.8257 30.4174 35.7524 30.3396 35.6611C28.5949 33.6077 23.8321 27.7115 23.8321 24.4912C23.8196 23.5459 23.9951 22.6075 24.3482 21.7306C24.7013 20.8536 25.2251 20.0555 25.8892 19.3827C26.5533 18.7098 27.3444 18.1755 28.2166 17.8109C29.0888 17.4462 30.0248 17.2584 30.9702 17.2584C31.9155 17.2584 32.8515 17.4462 33.7237 17.8109C34.596 18.1755 35.3871 18.7098 36.0511 19.3827C36.7152 20.0555 37.239 20.8536 37.5921 21.7306C37.9453 22.6075 38.1207 23.5459 38.1082 24.4912Z" fill="primary.200" stroke="primary.800" stroke-linecap="round" stroke-linejoin="round"/>
</svg>
