<svg  viewBox="11 12 102 101" fill="none" xmlns="http://www.w3.org/2000/svg">
<path d="M14.3398 63.6069C14.3398 76.6301 19.5133 89.1199 28.7221 98.3287C37.9309 107.537 50.4207 112.711 63.4438 112.711C76.467 112.711 88.9568 107.537 98.1656 98.3287C107.374 89.1199 112.548 76.6301 112.548 63.6069C112.548 50.5837 107.374 38.0939 98.1656 28.8852C88.9568 19.6764 76.467 14.5029 63.4438 14.5029C50.4207 14.5029 37.9309 19.6764 28.7221 28.8852C19.5133 38.0939 14.3398 50.5837 14.3398 63.6069Z" fill="primary.lighter"/>
<path d="M83.3043 97.3402L62.0619 105.375L37.9371 76.1617M83.3043 97.3402L99.2066 60.4644L90.967 35.3256M83.3043 97.3402L106.177 87.0321M83.3043 97.3402L66.7341 70.1059M14.9355 49.0121L32.9236 95.5222L37.9371 76.1617M14.9355 49.0121L38.1814 29.206M14.9355 49.0121L37.9371 76.1617M38.1814 29.206L61.221 16.4868L80.509 23.9752M38.1814 29.206L80.509 23.9752M80.509 23.9752L90.967 35.3256M80.509 23.9752L66.7341 70.1059M80.509 23.9752L62.0619 46.3629M90.967 35.3256L105.509 40.3182M38.4343 50.9996L62.0619 46.3629M62.0619 46.3629L66.7341 70.1059" stroke="primary.darker" stroke-linecap="round" stroke-linejoin="round"/>
<path d="M66.7027 69.9072L62.0612 105.375L32.9229 95.5223" stroke="primary.darker" stroke-linecap="round" stroke-linejoin="round"/>
<path d="M58.5771 46.3628C58.5771 47.2868 58.9442 48.173 59.5976 48.8263C60.2509 49.4797 61.1371 49.8468 62.0611 49.8468C62.9851 49.8468 63.8712 49.4797 64.5246 48.8263C65.178 48.173 65.545 47.2868 65.545 46.3628C65.545 45.4388 65.178 44.5527 64.5246 43.8993C63.8712 43.246 62.9851 42.8789 62.0611 42.8789C61.1371 42.8789 60.2509 43.246 59.5976 43.8993C58.9442 44.5527 58.5771 45.4388 58.5771 46.3628Z" fill="white" stroke="primary.darker" stroke-linecap="round" stroke-linejoin="round"/>
<path d="M66.7334 70.106L90.9662 35.3257L66.7334 70.106Z" fill="white"/>
<path d="M66.7334 70.106L90.9662 35.3257" stroke="primary.darker" stroke-linecap="round" stroke-linejoin="round"/>
<path d="M87.4824 35.3257C87.4824 36.2497 87.8495 37.1359 88.5028 37.7892C89.1562 38.4426 90.0424 38.8097 90.9664 38.8097C91.8903 38.8097 92.7765 38.4426 93.4299 37.7892C94.0832 37.1359 94.4503 36.2497 94.4503 35.3257C94.4503 34.4017 94.0832 33.5156 93.4299 32.8622C92.7765 32.2089 91.8903 31.8418 90.9664 31.8418C90.0424 31.8418 89.1562 32.2089 88.5028 32.8622C87.8495 33.5156 87.4824 34.4017 87.4824 35.3257Z" fill="white" stroke="primary.darker" stroke-linecap="round" stroke-linejoin="round"/>
<path d="M102.024 40.3184C102.024 40.7759 102.115 41.229 102.29 41.6516C102.465 42.0743 102.721 42.4584 103.045 42.7819C103.368 43.1054 103.752 43.362 104.175 43.5371C104.598 43.7122 105.051 43.8023 105.508 43.8023C105.966 43.8023 106.419 43.7122 106.842 43.5371C107.264 43.362 107.648 43.1054 107.972 42.7819C108.295 42.4584 108.552 42.0743 108.727 41.6516C108.902 41.229 108.992 40.7759 108.992 40.3184C108.992 39.8609 108.902 39.4079 108.727 38.9852C108.552 38.5625 108.295 38.1784 107.972 37.8549C107.648 37.5314 107.264 37.2748 106.842 37.0997C106.419 36.9246 105.966 36.8345 105.508 36.8345C105.051 36.8345 104.598 36.9246 104.175 37.0997C103.752 37.2748 103.368 37.5314 103.045 37.8549C102.721 38.1784 102.465 38.5625 102.29 38.9852C102.115 39.4079 102.024 39.8609 102.024 40.3184Z" fill="white" stroke="primary.darker" stroke-linecap="round" stroke-linejoin="round"/>
<path d="M102.692 87.0323C102.692 87.9563 103.059 88.8424 103.713 89.4958C104.366 90.1491 105.252 90.5162 106.176 90.5162C107.1 90.5162 107.986 90.1491 108.64 89.4958C109.293 88.8424 109.66 87.9563 109.66 87.0323C109.66 86.1083 109.293 85.2221 108.64 84.5688C107.986 83.9154 107.1 83.5483 106.176 83.5483C105.252 83.5483 104.366 83.9154 103.713 84.5688C103.059 85.2221 102.692 86.1083 102.692 87.0323Z" fill="white" stroke="primary.darker" stroke-linecap="round" stroke-linejoin="round"/>
<path d="M77.0244 23.9751C77.0244 24.8991 77.3915 25.7853 78.0448 26.4386C78.6982 27.092 79.5843 27.4591 80.5083 27.4591C81.4323 27.4591 82.3185 27.092 82.9718 26.4386C83.6252 25.7853 83.9923 24.8991 83.9923 23.9751C83.9923 23.0511 83.6252 22.165 82.9718 21.5116C82.3185 20.8583 81.4323 20.4912 80.5083 20.4912C79.5843 20.4912 78.6982 20.8583 78.0448 21.5116C77.3915 22.165 77.0244 23.0511 77.0244 23.9751Z" fill="white" stroke="primary.darker" stroke-linecap="round" stroke-linejoin="round"/>
<path d="M34.6836 29.2061C34.6836 30.1301 35.0506 31.0162 35.704 31.6696C36.3574 32.323 37.2435 32.69 38.1675 32.69C39.0915 32.69 39.9777 32.323 40.631 31.6696C41.2844 31.0162 41.6515 30.1301 41.6515 29.2061C41.6515 28.2821 41.2844 27.396 40.631 26.7426C39.9777 26.0892 39.0915 25.7222 38.1675 25.7222C37.2435 25.7222 36.3574 26.0892 35.704 26.7426C35.0506 27.396 34.6836 28.2821 34.6836 29.2061Z" fill="white" stroke="primary.darker" stroke-linecap="round" stroke-linejoin="round"/>
<path d="M11.4512 49.1568C11.4512 50.0808 11.8182 50.9669 12.4716 51.6203C13.125 52.2737 14.0111 52.6407 14.9351 52.6407C15.8591 52.6407 16.7452 52.2737 17.3986 51.6203C18.052 50.9669 18.419 50.0808 18.419 49.1568C18.419 48.2328 18.052 47.3466 17.3986 46.6933C16.7452 46.0399 15.8591 45.6729 14.9351 45.6729C14.0111 45.6729 13.125 46.0399 12.4716 46.6933C11.8182 47.3466 11.4512 48.2328 11.4512 49.1568Z" fill="white" stroke="primary.darker" stroke-linecap="round" stroke-linejoin="round"/>
<path d="M57.7363 16.4869C57.7363 17.4109 58.1034 18.297 58.7567 18.9504C59.4101 19.6037 60.2963 19.9708 61.2203 19.9708C62.1443 19.9708 63.0304 19.6037 63.6838 18.9504C64.3371 18.297 64.7042 17.4109 64.7042 16.4869C64.7042 15.5629 64.3371 14.6767 63.6838 14.0233C63.0304 13.37 62.1443 13.0029 61.2203 13.0029C60.2963 13.0029 59.4101 13.37 58.7567 14.0233C58.1034 14.6767 57.7363 15.5629 57.7363 16.4869Z" fill="white" stroke="primary.darker" stroke-linecap="round" stroke-linejoin="round"/>
<path d="M58.5771 105.22C58.5771 106.144 58.9442 107.03 59.5976 107.684C60.2509 108.337 61.1371 108.704 62.0611 108.704C62.9851 108.704 63.8712 108.337 64.5246 107.684C65.178 107.03 65.545 106.144 65.545 105.22C65.545 104.296 65.178 103.41 64.5246 102.757C63.8712 102.103 62.9851 101.736 62.0611 101.736C61.1371 101.736 60.2509 102.103 59.5976 102.757C58.9442 103.41 58.5771 104.296 58.5771 105.22Z" fill="white" stroke="primary.darker" stroke-linecap="round" stroke-linejoin="round"/>
<path d="M29.4395 95.522C29.4395 96.446 29.8065 97.3322 30.4599 97.9855C31.1132 98.6389 31.9994 99.0059 32.9234 99.0059C33.8474 99.0059 34.7335 98.6389 35.3869 97.9855C36.0403 97.3322 36.4073 96.446 36.4073 95.522C36.4073 94.598 36.0403 93.7119 35.3869 93.0585C34.7335 92.4051 33.8474 92.0381 32.9234 92.0381C31.9994 92.0381 31.1132 92.4051 30.4599 93.0585C29.8065 93.7119 29.4395 94.598 29.4395 95.522Z" fill="white" stroke="primary.darker" stroke-linecap="round" stroke-linejoin="round"/>
<path d="M34.4531 76.1617C34.4531 76.6192 34.5432 77.0722 34.7183 77.4949C34.8934 77.9176 35.15 78.3017 35.4735 78.6252C35.7971 78.9487 36.1811 79.2053 36.6038 79.3804C37.0265 79.5555 37.4795 79.6456 37.9371 79.6456C38.3946 79.6456 38.8476 79.5555 39.2703 79.3804C39.693 79.2053 40.0771 78.9487 40.4006 78.6252C40.7241 78.3017 40.9807 77.9176 41.1558 77.4949C41.3309 77.0722 41.421 76.6192 41.421 76.1617C41.421 75.7041 41.3309 75.2511 41.1558 74.8284C40.9807 74.4057 40.7241 74.0217 40.4006 73.6982C40.0771 73.3746 39.693 73.118 39.2703 72.9429C38.8476 72.7678 38.3946 72.6777 37.9371 72.6777C37.4795 72.6777 37.0265 72.7678 36.6038 72.9429C36.1811 73.118 35.7971 73.3746 35.4735 73.6982C35.15 74.0217 34.8934 74.4057 34.7183 74.8284C34.5432 75.2511 34.4531 75.7041 34.4531 76.1617Z" fill="white" stroke="primary.darker" stroke-linecap="round" stroke-linejoin="round"/>
<path d="M29.6064 48.6817C29.6064 51.0229 30.5365 53.2683 32.192 54.9238C33.8475 56.5793 36.0929 57.5093 38.4341 57.5093C40.7754 57.5093 43.0207 56.5793 44.6762 54.9238C46.3317 53.2683 47.2618 51.0229 47.2618 48.6817C47.2618 46.3404 46.3317 44.0951 44.6762 42.4396C43.0207 40.7841 40.7754 39.854 38.4341 39.854C36.0929 39.854 33.8475 40.7841 32.192 42.4396C30.5365 44.0951 29.6064 46.3404 29.6064 48.6817Z" fill="white" stroke="primary.darker" stroke-linecap="round" stroke-linejoin="round"/>
<path d="M44.3366 55.2457C42.7162 56.7009 40.6152 57.5058 38.4373 57.5058C36.2595 57.5058 34.1584 56.7009 32.5381 55.2457C33.0254 54.0851 33.8446 53.0943 34.8929 52.3976C35.9412 51.7008 37.1718 51.3291 38.4306 51.3291C39.6893 51.3291 40.92 51.7008 41.9683 52.3976C43.0165 53.0943 43.8357 54.0851 44.323 55.2457" fill="primary.light"/>
<path d="M44.3366 55.2457C42.7162 56.7009 40.6152 57.5058 38.4373 57.5058C36.2595 57.5058 34.1584 56.7009 32.5381 55.2457C33.0254 54.0851 33.8446 53.0943 34.8929 52.3976C35.9412 51.7008 37.1718 51.3291 38.4306 51.3291C39.6893 51.3291 40.92 51.7008 41.9683 52.3976C43.0165 53.0943 43.8357 54.0851 44.323 55.2457" stroke="primary.darker" stroke-linecap="round" stroke-linejoin="round"/>
<path d="M53.7627 70.1058C53.7627 73.5462 55.1294 76.8457 57.5621 79.2785C59.9949 81.7112 63.2943 83.0779 66.7347 83.0779C70.1751 83.0779 73.4746 81.7112 75.9074 79.2785C78.3401 76.8457 79.7068 73.5462 79.7068 70.1058C79.7068 66.6654 78.3401 63.3659 75.9074 60.9332C73.4746 58.5005 70.1751 57.1338 66.7347 57.1338C63.2943 57.1338 59.9949 58.5005 57.5621 60.9332C55.1294 63.3659 53.7627 66.6654 53.7627 70.1058Z" fill="white" stroke="primary.darker" stroke-linecap="round" stroke-linejoin="round"/>
<path d="M62.5615 69.8052C62.5615 70.9122 63.0013 71.9738 63.784 72.7565C64.5668 73.5393 65.6284 73.979 66.7354 73.979C67.8423 73.979 68.904 73.5393 69.6867 72.7565C70.4695 71.9738 70.9092 70.9122 70.9092 69.8052V67.7183C70.9092 66.6113 70.4695 65.5497 69.6867 64.7669C68.904 63.9842 67.8423 63.5444 66.7354 63.5444C65.6284 63.5444 64.5668 63.9842 63.784 64.7669C63.0013 65.5497 62.5615 66.6113 62.5615 67.7183V69.8052Z" fill="white" stroke="primary.darker" stroke-linecap="round" stroke-linejoin="round"/>
<path d="M75.405 79.7537C73.0241 81.8927 69.9364 83.076 66.7357 83.076C63.535 83.076 60.4473 81.8927 58.0664 79.7537C58.7789 78.0438 59.9813 76.5829 61.5221 75.5547C63.063 74.5266 64.8735 73.9772 66.7259 73.9756C68.5783 73.974 70.3898 74.5204 71.9324 75.5459C73.475 76.5714 74.6798 78.0303 75.3952 79.7389" fill="primary.light"/>
<path d="M75.405 79.7537C73.0241 81.8927 69.9364 83.076 66.7357 83.076C63.535 83.076 60.4473 81.8927 58.0664 79.7537C58.7789 78.0438 59.9813 76.5829 61.5221 75.5547C63.063 74.5266 64.8735 73.9772 66.7259 73.9756C68.5783 73.974 70.3898 74.5204 71.9324 75.5459C73.475 76.5714 74.6798 78.0303 75.3952 79.7389" stroke="primary.darker" stroke-linecap="round" stroke-linejoin="round"/>
<path d="M62.5957 67.1794C62.7043 66.3364 63.0677 65.5467 63.6373 64.9159C64.2069 64.285 64.9554 63.8431 65.783 63.6492C66.6105 63.4552 67.4774 63.5186 68.268 63.8307C69.0585 64.1428 69.735 64.6888 70.2068 65.3957C69.2186 66.3543 67.9886 67.0266 66.6481 67.3407C65.3076 67.6549 63.907 67.5991 62.5957 67.1794Z" fill="white" stroke="primary.darker" stroke-linecap="round" stroke-linejoin="round"/>
<path d="M90.3789 59.8286C90.3789 62.1699 91.309 64.4152 92.9645 66.0708C94.62 67.7263 96.8653 68.6563 99.2066 68.6563C101.548 68.6563 103.793 67.7263 105.449 66.0708C107.104 64.4152 108.034 62.1699 108.034 59.8286C108.034 57.4874 107.104 55.242 105.449 53.5865C103.793 51.931 101.548 51.001 99.2066 51.001C96.8653 51.001 94.62 51.931 92.9645 53.5865C91.309 55.242 90.3789 57.4874 90.3789 59.8286Z" fill="white" stroke="primary.darker" stroke-linecap="round" stroke-linejoin="round"/>
<path d="M96.3652 59.6233C96.3652 60.3767 96.6645 61.0992 97.1972 61.632C97.73 62.1647 98.4525 62.464 99.2059 62.464C99.9593 62.464 100.682 62.1647 101.215 61.632C101.747 61.0992 102.047 60.3767 102.047 59.6233V58.203C102.047 57.4496 101.747 56.727 101.215 56.1943C100.682 55.6616 99.9593 55.3623 99.2059 55.3623C98.4525 55.3623 97.73 55.6616 97.1972 56.1943C96.6645 56.727 96.3652 57.4496 96.3652 58.203V59.6233Z" fill="white" stroke="primary.darker" stroke-linecap="round" stroke-linejoin="round"/>
<path d="M105.107 66.3937C103.487 67.8495 101.386 68.6548 99.2075 68.6548C97.0292 68.6548 94.9279 67.8495 93.3076 66.3937C93.7927 65.2301 94.611 64.236 95.6597 63.5364C96.7084 62.8368 97.9405 62.463 99.2011 62.4619C100.462 62.4609 101.695 62.8327 102.744 63.5305C103.794 64.2284 104.614 65.2211 105.101 66.3839" fill="primary.light"/>
<path d="M105.107 66.3937C103.487 67.8495 101.386 68.6548 99.2075 68.6548C97.0292 68.6548 94.9279 67.8495 93.3076 66.3937C93.7927 65.2301 94.611 64.236 95.6597 63.5364C96.7084 62.8368 97.9405 62.463 99.2011 62.4619C100.462 62.4609 101.695 62.8327 102.744 63.5305C103.794 64.2284 104.614 65.2211 105.101 66.3839" stroke="primary.darker" stroke-linecap="round" stroke-linejoin="round"/>
<path d="M96.3887 57.8359C96.4633 57.2631 96.7108 56.7266 97.0982 56.298C97.4856 55.8695 97.9945 55.5693 98.5569 55.4373C99.1193 55.3054 99.7086 55.3482 100.246 55.5598C100.784 55.7714 101.244 56.1419 101.565 56.6218C100.893 57.2734 100.056 57.7305 99.1449 57.9443C98.2332 58.1581 97.2807 58.1206 96.3887 57.8359Z" fill="white" stroke="primary.darker" stroke-linecap="round" stroke-linejoin="round"/>
<path d="M74.4766 97.3096C74.4766 98.4689 74.7049 99.6168 75.1485 100.688C75.5922 101.759 76.2424 102.732 77.0621 103.552C77.8819 104.371 78.855 105.022 79.926 105.465C80.9971 105.909 82.145 106.137 83.3042 106.137C84.4635 106.137 85.6114 105.909 86.6824 105.465C87.7535 105.022 88.7266 104.371 89.5463 103.552C90.3661 102.732 91.0163 101.759 91.4599 100.688C91.9036 99.6168 92.1319 98.4689 92.1319 97.3096C92.1319 96.1503 91.9036 95.0024 91.4599 93.9314C91.0163 92.8604 90.3661 91.8872 89.5463 91.0675C88.7266 90.2478 87.7535 89.5975 86.6824 89.1539C85.6114 88.7103 84.4635 88.4819 83.3042 88.4819C82.145 88.4819 80.9971 88.7103 79.926 89.1539C78.855 89.5975 77.8819 90.2478 77.0621 91.0675C76.2424 91.8872 75.5922 92.8604 75.1485 93.9314C74.7049 95.0024 74.4766 96.1503 74.4766 97.3096Z" fill="white" stroke="primary.darker" stroke-linecap="round" stroke-linejoin="round"/>
<path d="M80.4629 97.107C80.4629 97.8603 80.7622 98.5829 81.2949 99.1156C81.8276 99.6483 82.5502 99.9476 83.3036 99.9476C84.0569 99.9476 84.7795 99.6483 85.3122 99.1156C85.8449 98.5829 86.1442 97.8603 86.1442 97.107V95.6854C86.1442 94.932 85.8449 94.2095 85.3122 93.6767C84.7795 93.144 84.0569 92.8447 83.3036 92.8447C82.5502 92.8447 81.8276 93.144 81.2949 93.6767C80.7622 94.2095 80.4629 94.932 80.4629 95.6854V97.107Z" fill="white" stroke="primary.darker" stroke-linecap="round" stroke-linejoin="round"/>
<path d="M89.205 103.876C87.5843 105.331 85.4831 106.136 83.3051 106.136C81.1271 106.136 79.0259 105.331 77.4053 103.876C77.8902 102.713 78.7085 101.718 79.7571 101.019C80.8056 100.319 82.0378 99.945 83.2984 99.9439C84.559 99.9427 85.7918 100.314 86.8417 101.012C87.8916 101.71 88.7117 102.702 89.1988 103.865" fill="primary.light"/>
<path d="M89.205 103.876C87.5843 105.331 85.4831 106.136 83.3051 106.136C81.1271 106.136 79.0259 105.331 77.4053 103.876C77.8902 102.713 78.7085 101.718 79.7571 101.019C80.8056 100.319 82.0378 99.945 83.2984 99.9439C84.559 99.9427 85.7918 100.314 86.8417 101.012C87.8916 101.71 88.7117 102.702 89.1988 103.865" stroke="primary.darker" stroke-linecap="round" stroke-linejoin="round"/>
<path d="M80.4863 95.3183C80.561 94.7455 80.8085 94.209 81.1959 93.7805C81.5833 93.3519 82.0921 93.0517 82.6546 92.9198C83.217 92.7879 83.8063 92.8306 84.3438 93.0422C84.8813 93.2538 85.3416 93.6243 85.6631 94.1042C84.9907 94.7559 84.1541 95.2129 83.2425 95.4267C82.3309 95.6405 81.3783 95.6031 80.4863 95.3183Z" fill="white" stroke="primary.darker" stroke-linecap="round" stroke-linejoin="round"/>
<path d="M65.318 47.5994L90.7575 57.2581M105.292 83.6614L101.29 68.4084M54.0142 72.6658L41.3417 75.4217M104.469 43.6441L102.023 51.459M44.5003 55.0951L55.9821 62.8474M38.3046 39.8545L38.2211 32.689M44.3125 42.0961L59.3003 19.394M29.747 50.2657L18.415 49.3057M38.3058 57.5086L38.0051 72.6792M102.975 85.6574L78.6583 75.2228" stroke="primary.darker" stroke-linecap="round" stroke-linejoin="round"/>
<path d="M35.5944 48.4768C35.5865 48.8547 35.6542 49.2304 35.7934 49.5819C35.9326 49.9333 36.1405 50.2534 36.405 50.5235C36.6695 50.7936 36.9852 51.0081 37.3337 51.1546C37.6822 51.3011 38.0564 51.3765 38.4344 51.3765C38.8124 51.3765 39.1866 51.3011 39.5351 51.1546C39.8836 51.0081 40.1993 50.7936 40.4638 50.5235C40.7283 50.2534 40.9363 49.9333 41.0755 49.5819C41.2147 49.2304 41.2823 48.8547 41.2745 48.4768V47.0565C41.2823 46.6785 41.2147 46.3028 41.0755 45.9514C40.9363 45.5999 40.7283 45.2798 40.4638 45.0097C40.1993 44.7397 39.8836 44.5251 39.5351 44.3787C39.1866 44.2322 38.8124 44.1567 38.4344 44.1567C38.0564 44.1567 37.6822 44.2322 37.3337 44.3787C36.9852 44.5251 36.6695 44.7397 36.405 45.0097C36.1405 45.2798 35.9326 45.5999 35.7934 45.9514C35.6542 46.3028 35.5865 46.6785 35.5944 47.0565V48.4768Z" fill="white" stroke="primary.darker" stroke-linecap="round" stroke-linejoin="round"/>
<path d="M35.6182 46.6896C35.6925 46.1167 35.9398 45.58 36.327 45.1514C36.7143 44.7227 37.2231 44.4223 37.7855 44.2904C38.348 44.1584 38.9373 44.2012 39.4748 44.4129C40.0123 44.6247 40.4724 44.9954 40.7937 45.4755C40.1217 46.1273 39.2854 46.5846 38.3739 46.7984C37.4624 47.0122 36.51 46.9746 35.6182 46.6896Z" fill="white" stroke="primary.darker" stroke-linecap="round" stroke-linejoin="round"/>
</svg>
