<svg viewBox="0 0 97 97" fill="none" xmlns="http://www.w3.org/2000/svg">
    <path d="M48.2902 96.3077C74.7903 96.3077 96.2728 74.8174 96.2728 48.3077C96.2728 21.798 74.7903 0.307678 48.2902 0.307678C21.7902 0.307678 0.307678 21.798 0.307678 48.3077C0.307678 74.8174 21.7902 96.3077 48.2902 96.3077Z" fill="primary.150"/>
    <path d="M44.3373 86.5958C54.076 86.5958 61.9709 85.7496 61.9709 84.7058C61.9709 83.662 54.076 82.8158 44.3373 82.8158C34.5985 82.8158 26.7037 83.662 26.7037 84.7058C26.7037 85.7496 34.5985 86.5958 44.3373 86.5958Z" fill="primary.200"/>
    <path d="M80.5486 68.4243C80.5486 68.9207 80.4508 69.4122 80.2609 69.8708C80.071 70.3294 79.7927 70.7461 79.4418 71.0971C79.091 71.4481 78.6744 71.7266 78.216 71.9165C77.7575 72.1065 77.2662 72.2043 76.7699 72.2043H11.5892C11.093 72.2043 10.6017 72.1065 10.1432 71.9165C9.68477 71.7266 9.26822 71.4481 8.91734 71.0971C8.56646 70.7461 8.28813 70.3294 8.09824 69.8708C7.90835 69.4122 7.81061 68.9207 7.81061 68.4243V23.0643H80.5486V68.4243Z" fill="primary.200"/>
    <path d="M80.5486 15.5044C80.5486 14.5019 80.1505 13.5404 79.4419 12.8316C78.7333 12.1227 77.7722 11.7244 76.77 11.7244H11.5893C10.5872 11.7244 9.62606 12.1227 8.91743 12.8316C8.2088 13.5404 7.8107 14.5019 7.8107 15.5044V23.0644H80.5486V15.5044Z" fill="white" stroke="primary.800" stroke-linecap="round" stroke-linejoin="round"/>
    <path d="M13.4782 19.2841C14.5217 19.2841 15.3676 18.438 15.3676 17.3942C15.3676 16.3503 14.5217 15.5042 13.4782 15.5042C12.4348 15.5042 11.5889 16.3503 11.5889 17.3942C11.5889 18.438 12.4348 19.2841 13.4782 19.2841Z" fill="primary.200" stroke="primary.800" stroke-linecap="round" stroke-linejoin="round"/>
    <path d="M21.0359 19.2841C22.0793 19.2841 22.9252 18.438 22.9252 17.3942C22.9252 16.3503 22.0793 15.5042 21.0359 15.5042C19.9924 15.5042 19.1465 16.3503 19.1465 17.3942C19.1465 18.438 19.9924 19.2841 21.0359 19.2841Z" fill="primary.200" stroke="primary.800" stroke-linecap="round" stroke-linejoin="round"/>
    <path d="M28.593 19.2841C29.6364 19.2841 30.4823 18.438 30.4823 17.3942C30.4823 16.3503 29.6364 15.5042 28.593 15.5042C27.5495 15.5042 26.7037 16.3503 26.7037 17.3942C26.7037 18.438 27.5495 19.2841 28.593 19.2841Z" fill="primary.200" stroke="primary.800" stroke-linecap="round" stroke-linejoin="round"/>
    <path d="M80.5486 68.4243C80.5486 68.9207 80.4508 69.4122 80.2609 69.8708C80.071 70.3294 79.7927 70.7461 79.4418 71.0971C79.0909 71.4481 78.6744 71.7266 78.216 71.9165C77.7575 72.1065 77.2662 72.2043 76.7699 72.2043H11.5892C11.093 72.2043 10.6017 72.1065 10.1432 71.9165C9.68477 71.7266 9.26822 71.4481 8.91734 71.0971C8.56646 70.7461 8.28813 70.3294 8.09824 69.8708C7.90835 69.4122 7.81061 68.9207 7.81061 68.4243V23.0643H80.5486V68.4243Z" stroke="primary.800" stroke-linecap="round" stroke-linejoin="round"/>
    <path d="M68.8985 72.2043H19.1465V31.8843C19.1469 31.5502 19.2797 31.2299 19.5158 30.9937C19.7519 30.7574 20.0721 30.6246 20.4061 30.6243H67.6389C67.9729 30.6246 68.2931 30.7574 68.5292 30.9937C68.7653 31.2299 68.8981 31.5502 68.8985 31.8843V72.2043Z" fill="white"/>
    <path d="M68.8985 72.2043H19.1465V31.8843C19.1469 31.5502 19.2797 31.2299 19.5158 30.9937C19.7519 30.7574 20.0721 30.6246 20.4061 30.6243H67.6389C67.9729 30.6246 68.2931 30.7574 68.5292 30.9937C68.7653 31.2299 68.8981 31.5502 68.8985 31.8843V72.2043Z" stroke="primary.800" stroke-linecap="round" stroke-linejoin="round"/>
    <path d="M38.6695 41.9643H61.0258" stroke="primary.800" stroke-linecap="round" stroke-linejoin="round"/>
    <path d="M27.3336 48.2642H61.0257" stroke="primary.800" stroke-linecap="round" stroke-linejoin="round"/>
    <path d="M27.3336 54.5642H61.0257" stroke="primary.800" stroke-linecap="round" stroke-linejoin="round"/>
    <path d="M27.3336 60.8643H61.0257" stroke="primary.800" stroke-linecap="round" stroke-linejoin="round"/>
    <path d="M84.3451 42.9259L57.0591 70.238L62.8067 75.9842L90.0926 48.6722L84.3451 42.9259Z" fill="white"/>
    <path d="M57.0646 70.2403C56.8846 70.3015 52.7581 80.3011 52.7581 80.3011L62.8117 75.9871L57.0646 70.2403Z" fill="primary.200"/>
    <path d="M57.0646 70.2403C56.8846 70.3015 52.7581 80.3011 52.7581 80.3011L62.8117 75.9871L57.0646 70.2403Z" stroke="primary.800" stroke-linecap="round" stroke-linejoin="round"/>
    <path d="M84.3451 42.9259L57.0591 70.238L62.8067 75.9842L90.0926 48.6722L84.3451 42.9259Z" stroke="primary.800" stroke-linecap="round" stroke-linejoin="round"/>
    <path d="M87.2153 40.0496L84.3436 42.9247L90.0926 48.6712L92.9643 45.796L87.2153 40.0496Z" fill="primary.200"/>
    <path d="M87.2153 40.0496L84.3436 42.9247L90.0926 48.6712L92.9643 45.796L87.2153 40.0496Z" stroke="primary.800" stroke-linecap="round" stroke-linejoin="round"/>
    <path d="M95.1183 43.6409C95.4955 43.2633 95.7946 42.8151 95.9987 42.3218C96.2027 41.8286 96.3077 41.3 96.3075 40.7662C96.3074 40.2324 96.2021 39.7038 95.9977 39.2107C95.7934 38.7176 95.4939 38.2696 95.1165 37.8922C94.739 37.5149 94.291 37.2156 93.7979 37.0115C93.3049 36.8074 92.7765 36.7024 92.2429 36.7026C91.7092 36.7027 91.1809 36.808 90.688 37.0125C90.195 37.2169 89.7472 37.5165 89.37 37.894L87.2108 40.0541L92.9603 45.8009L95.1183 43.6409Z" fill="white"/>
    <path d="M95.1183 43.6409C95.4955 43.2633 95.7946 42.8151 95.9987 42.3218C96.2027 41.8286 96.3077 41.3 96.3075 40.7662C96.3074 40.2324 96.2021 39.7038 95.9977 39.2107C95.7934 38.7176 95.4939 38.2696 95.1165 37.8922C94.739 37.5149 94.291 37.2156 93.7979 37.0115C93.3049 36.8074 92.7765 36.7024 92.2429 36.7026C91.7092 36.7027 91.1809 36.808 90.688 37.0125C90.195 37.2169 89.7472 37.5165 89.37 37.894L87.2108 40.0541L92.9603 45.8009L95.1183 43.6409Z" stroke="primary.800" stroke-linecap="round" stroke-linejoin="round"/>
    <path d="M52.7529 80.2982L51.3152 81.7358" stroke="primary.800" stroke-linecap="round" stroke-linejoin="round"/>
</svg>
