<svg  viewBox="0 0 90 97" fill="none" xmlns="http://www.w3.org/2000/svg">
<path d="M0 51.7591C0 86.5335 37.2727 108.268 67.091 90.8803C80.9296 82.8109 89.4545 67.8979 89.4545 51.7591C89.4545 16.9847 52.1819 -4.7493 22.3636 12.638C8.52498 20.7074 0 35.6202 0 51.7591Z" fill="primary.150"/>
<path d="M61.0795 42.7297C61.0795 43.8524 60.1783 44.7624 59.0667 44.7625H32.0738C30.9622 44.7625 30.0612 43.8524 30.0612 42.7297V10.2456C30.0612 9.12291 30.9622 8.21279 32.0738 8.21289H50.7408V13.4078H43.609L43.6627 19.1798H50.9711L50.9308 24.4255H46.8372V30.1738H54.9261V25.6192L61.0762 25.7028L61.0795 42.7297Z" fill="primary.200"/>
<path d="M43.6604 19.182L43.609 13.4089H50.743V8.21396H32.0738C30.9623 8.21396 30.0612 9.12408 30.0612 10.2468V35.6116L46.3295 19.182H43.6604Z" fill="white"/>
<path d="M61.6865 86.6858C61.5079 87.9751 60.4159 88.9344 59.1269 88.9343H30.1358C28.8466 88.9348 27.7543 87.9753 27.5763 86.6858L22.0122 46.4578H67.2505L61.6865 86.6858Z" fill="white"/>
<path d="M61.0795 42.7297C61.0795 43.8524 60.1783 44.7624 59.0667 44.7625H32.0738C30.9622 44.7625 30.0612 43.8524 30.0612 42.7297V10.2456C30.0612 9.12291 30.9622 8.21279 32.0738 8.21289H50.7408V13.4078H43.609L43.6627 19.1798H50.9711L50.9308 24.4255H46.8372V30.1738H54.9261V25.6192L61.0762 25.7028L61.0795 42.7297Z" stroke="primary.800" stroke-linecap="round" stroke-linejoin="round"/>
<path d="M61.6865 86.6858C61.5079 87.9751 60.4159 88.9344 59.1269 88.9343H30.1358C28.8466 88.9348 27.7543 87.9753 27.5763 86.6858L22.0122 46.4578H67.2505L61.6865 86.6858Z" stroke="primary.800" stroke-linecap="round" stroke-linejoin="round"/>
<path d="M61.4839 18.5635H66.2026V23.3292H61.4839V18.5635Z" fill="primary.200" stroke="primary.800" stroke-linecap="round" stroke-linejoin="round"/>
<path d="M54.7572 11.2957H59.4759V16.0615H54.7572V11.2957Z" fill="primary.200" stroke="primary.800" stroke-linecap="round" stroke-linejoin="round"/>
<path d="M67.1089 11.2957H71.8276V16.0615H67.1089V11.2957Z" fill="primary.200" stroke="primary.800" stroke-linecap="round" stroke-linejoin="round"/>
<path d="M76.0898 5.36018H79.9666V9.27558H76.0898V5.36018Z" fill="primary.200" stroke="primary.800" stroke-linecap="round" stroke-linejoin="round"/>
<path d="M64.3802 1H68.257V4.91531H64.3802V1Z" fill="primary.200" stroke="primary.800" stroke-linecap="round" stroke-linejoin="round"/>
<path d="M75.4963 17.3354H80.2151V22.1012H75.4963V17.3354Z" fill="primary.200" stroke="primary.800" stroke-linecap="round" stroke-linejoin="round"/>
<path d="M69.4581 26.1341H73.3349V30.0495H69.4581V26.1341Z" fill="primary.200" stroke="primary.800" stroke-linecap="round" stroke-linejoin="round"/>
<path d="M69.4683 44.0568C69.4683 42.7308 68.4039 41.6558 67.0911 41.6558H22.1725C20.3425 41.6559 19.1987 43.6567 20.1138 45.2573C20.5385 46.0001 21.3232 46.4577 22.1725 46.4577H67.0911C68.4039 46.4577 69.4683 45.3828 69.4683 44.0568Z" fill="white" stroke="primary.800" stroke-linecap="round" stroke-linejoin="round"/>
<path d="M32.8641 52.6544C32.026 52.7434 31.4174 53.495 31.5046 54.3332L33.8657 77.0214C33.9529 77.8596 34.703 78.467 35.541 78.378C36.3791 78.2891 36.9877 77.5374 36.9005 76.6992L34.5394 54.0111C34.4522 53.1729 33.7021 52.5655 32.8641 52.6544Z" stroke="primary.800"/>
<path d="M45.7531 52.3278C44.9104 52.3278 44.2273 53.0109 44.2273 53.8536V76.6671C44.2273 77.5098 44.9104 78.193 45.7531 78.193C46.5958 78.193 47.2789 77.5098 47.2789 76.6671V53.8536C47.2789 53.0109 46.5958 52.3278 45.7531 52.3278Z" stroke="primary.800"/>
<path d="M58.1089 52.6556C57.2709 52.5667 56.5208 53.1741 56.4336 54.0123L54.0725 76.7004C53.9853 77.5386 54.5939 78.2903 55.432 78.3792C56.2709 78.4683 57.0203 77.8585 57.1075 77.0212L57.1128 76.9703L57.1181 76.9194L57.1233 76.8687L57.1286 76.818L57.1339 76.7674L57.1391 76.7169L57.1444 76.6665L57.1496 76.6161L57.1549 76.5658L57.1601 76.5156L57.1653 76.4655L57.1705 76.4154L57.1757 76.3654L57.1809 76.3155L57.1861 76.2657L57.1913 76.2159L57.1964 76.1662L57.2016 76.1166L57.2068 76.067L57.2119 76.0175L57.2171 75.9681L57.2222 75.9188L57.2273 75.8695L57.2324 75.8203L57.2376 75.7712L57.2427 75.7222L57.2478 75.6732L57.2528 75.6243L57.2579 75.5754L57.263 75.5266L57.2681 75.4779L57.2731 75.4293L57.2782 75.3807L57.2832 75.3322L57.2883 75.2838L57.2933 75.2354L57.2983 75.1871L57.3034 75.1389L57.3084 75.0907L57.3134 75.0426L57.3184 74.9945L57.3234 74.9466L57.3284 74.8987L57.3333 74.8508L57.3383 74.803L57.3433 74.7553L57.3482 74.7077L57.3532 74.6601L57.3581 74.6125L57.3631 74.5651L57.368 74.5177L57.3729 74.4703L57.3779 74.4231L57.3828 74.3758L57.3877 74.3287L57.3926 74.2816L57.3975 74.2346L57.4024 74.1876L57.4072 74.1407L57.4121 74.0938L57.417 74.047L57.4218 74.0003L57.4267 73.9536L57.4316 73.907L57.4364 73.8605L57.4412 73.814L57.4461 73.7675L57.4509 73.7211L57.4557 73.6748L57.4605 73.6285L57.4653 73.5823L57.4701 73.5362L57.4749 73.4901L57.4797 73.444L57.4845 73.398L57.4893 73.3521L57.4941 73.3062L57.4988 73.2604L57.5036 73.2146L57.5084 73.1689L57.5131 73.1232L57.5179 73.0776L57.5226 73.032L57.5273 72.9865L57.5321 72.9411L57.5368 72.8957L57.5415 72.8503L57.5462 72.805L57.5509 72.7598L57.5556 72.7146L57.5603 72.6694L57.565 72.6243L57.5697 72.5793L57.5744 72.5343L57.5791 72.4893L57.5838 72.4444L57.5884 72.3996L57.5931 72.3548L57.5977 72.31L57.6024 72.2653L57.607 72.2207L57.6117 72.176L57.6163 72.1315L57.621 72.0869L57.6256 72.0425L57.6302 71.998L57.6348 71.9537L57.6394 71.9093L57.6441 71.865L57.6487 71.8208L57.6533 71.7766L57.6579 71.7324L57.6624 71.6883L57.667 71.6442L57.6716 71.6002L57.6762 71.5562L57.6808 71.5123L57.6853 71.4684L57.6899 71.4245L57.6945 71.3807L57.699 71.3369L57.7036 71.2932L57.7081 71.2495L57.7127 71.2058L57.7172 71.1622L57.7217 71.1186L57.7263 71.0751L57.7308 71.0316L57.7353 70.9881L57.7398 70.9447L57.7443 70.9013L57.7489 70.858L57.7534 70.8147L57.7579 70.7714L57.7624 70.7282L57.7669 70.685L57.7714 70.6418L57.7758 70.5987L57.7803 70.5556L57.7848 70.5125L57.7893 70.4695L57.7938 70.4265L57.7982 70.3836L57.8027 70.3407L57.8072 70.2978L57.8116 70.255L57.8161 70.2122L57.8205 70.1694L57.825 70.1266L57.8294 70.0839L57.8339 70.0412L57.8383 69.9986L57.8427 69.956L57.8472 69.9134L57.8516 69.8708L57.856 69.8283L57.8604 69.7858L57.8649 69.7433L57.8693 69.7009L57.8737 69.6585L57.8781 69.6161L57.8825 69.5738L57.8869 69.5315L57.8913 69.4892L57.8957 69.4469L57.9001 69.4047L57.9045 69.3625L57.9089 69.3203L57.9133 69.2781L57.9177 69.236L57.922 69.1939L57.9264 69.1518L57.9308 69.1098L57.9352 69.0677L57.9395 69.0257L57.9439 68.9838L57.9483 68.9418L57.9526 68.8999L57.957 68.858L57.9613 68.8161L57.9657 68.7743L57.9701 68.7324L57.9744 68.6906L57.9788 68.6488L57.9831 68.607L57.9874 68.5653L57.9918 68.5236L57.9961 68.4819L58.0005 68.4402L58.0048 68.3985L58.0091 68.3569L58.0135 68.3153L58.0178 68.2737L58.0221 68.2321L58.0265 68.1905L58.0308 68.149L58.0351 68.1074L58.0394 68.0659L58.0437 68.0244L58.0481 67.9829L58.0524 67.9415L58.0567 67.9L58.061 67.8586L58.0653 67.8172L58.0696 67.7758L58.0739 67.7344L58.0782 67.6931L58.0825 67.6517L58.0868 67.6104L58.0911 67.5691L58.0954 67.5278L58.0997 67.4865L58.104 67.4452L58.1083 67.4039L58.1126 67.3627L58.1169 67.3214L58.1212 67.2802L58.1255 67.239L58.1298 67.1978L58.134 67.1566L58.1383 67.1154L58.1426 67.0742L58.1469 67.0331L58.1512 66.9919L58.1555 66.9508L58.1597 66.9096L58.164 66.8685L58.1683 66.8274L58.1726 66.7863L58.1769 66.7452L58.1811 66.7041L58.1854 66.663L58.1897 66.6219L58.194 66.5809L58.1982 66.5398L58.2025 66.4988L58.2068 66.4577L58.2111 66.4167L58.2153 66.3756L58.2196 66.3346L58.2239 66.2936L58.2281 66.2525L58.2324 66.2115L58.2367 66.1705L58.2409 66.1295L58.2452 66.0885L58.2495 66.0475L58.2537 66.0065L58.258 65.9655L58.2623 65.9245L58.2665 65.8835L58.2708 65.8425L58.2751 65.8015L58.2793 65.7605L58.2836 65.7195L58.2879 65.6785L58.2921 65.6375L58.2964 65.5965L58.3007 65.5555L58.3049 65.5145L58.3092 65.4735L58.3135 65.4325L58.3177 65.3915L58.322 65.3505L58.3263 65.3095L58.3305 65.2685L58.3348 65.2275L58.3391 65.1865L58.3433 65.1455L58.3476 65.1045L58.3519 65.0635L58.3561 65.0224L58.3604 64.9814L58.3647 64.9404L58.369 64.8993L58.3732 64.8583L58.3775 64.8172L58.3818 64.7761L58.386 64.7351L58.3903 64.694L58.3946 64.6529L58.3989 64.6118L58.4032 64.5707L58.4074 64.5296L58.4117 64.4885L58.416 64.4474L58.4203 64.4062L58.4245 64.3651L58.4288 64.324L58.4331 64.2828L58.4374 64.2416L58.4417 64.2004L58.446 64.1592L58.4503 64.118L58.4546 64.0768L58.4588 64.0356L58.4631 63.9943L58.4674 63.9531L58.4717 63.9118L58.476 63.8705L58.4803 63.8293L58.4846 63.7879L58.4889 63.7466L58.4932 63.7053L58.4975 63.6639L58.5018 63.6226L58.5061 63.5812L58.5104 63.5398L58.5147 63.4984L58.5191 63.457L58.5234 63.4155L58.5277 63.3741L58.532 63.3326L58.5363 63.2911L58.5406 63.2496L58.545 63.2081L58.5493 63.1665L58.5536 63.1249L58.5579 63.0834L58.5623 63.0418L58.5666 63.0001L58.5709 62.9585L58.5753 62.9168L58.5796 62.8751L58.5839 62.8334L58.5883 62.7917L58.5926 62.75L58.597 62.7082L58.6013 62.6664L58.6057 62.6246L58.61 62.5828L58.6144 62.5409L58.6187 62.499L58.6231 62.4571L58.6275 62.4152L58.6318 62.3732L58.6362 62.3313L58.6406 62.2893L58.6449 62.2472L58.6493 62.2052L58.6537 62.1631L58.6581 62.121L58.6625 62.0789L58.6669 62.0367L58.6712 61.9946L58.6756 61.9523L58.68 61.9101L58.6844 61.8678L58.6888 61.8256L58.6932 61.7832L58.6976 61.7409L58.7021 61.6985L58.7065 61.6561L58.7109 61.6137L58.7153 61.5712L58.7197 61.5287L58.7241 61.4862L58.7286 61.4436L58.733 61.401L58.7374 61.3584L58.7419 61.3158L58.7463 61.2731L58.7508 61.2304L58.7552 61.1876L58.7597 61.1449L58.7641 61.1021L58.7686 61.0592L58.773 61.0163L58.7775 60.9734L58.782 60.9305L58.7865 60.8875L58.7909 60.8445L58.7954 60.8014L58.7999 60.7583L58.8044 60.7152L58.8089 60.672L58.8134 60.6289L58.8179 60.5856L58.8224 60.5424L58.8269 60.499L58.8314 60.4557L58.8359 60.4123L58.8404 60.3689L58.8449 60.3254L58.8495 60.2819L58.854 60.2384L58.8585 60.1948L58.8631 60.1512L58.8676 60.1076L58.8722 60.0639L58.8767 60.0201L58.8813 59.9763L58.8858 59.9325L58.8904 59.8887L58.895 59.8448L58.8995 59.8008L58.9041 59.7568L58.9087 59.7128L58.9133 59.6687L58.9179 59.6246L58.9225 59.5804L58.9271 59.5362L58.9317 59.492L58.9363 59.4477L58.9409 59.4034L58.9455 59.359L58.9501 59.3145L58.9548 59.2701L58.9594 59.2255L58.964 59.181L58.9687 59.1364L58.9733 59.0917L58.978 59.047L58.9826 59.0022L58.9873 58.9574L58.992 58.9126L58.9966 58.8677L59.0013 58.8227L59.006 58.7777L59.0107 58.7327L59.0154 58.6876L59.0201 58.6424L59.0248 58.5972L59.0295 58.552L59.0342 58.5067L59.0389 58.4613L59.0437 58.4159L59.0484 58.3705L59.0531 58.325L59.0579 58.2794L59.0626 58.2338L59.0674 58.1881L59.0721 58.1424L59.0769 58.0966L59.0817 58.0508L59.0864 58.0049L59.0912 57.959L59.096 57.913L59.1008 57.8669L59.1056 57.8208L59.1104 57.7747L59.1152 57.7285L59.12 57.6822L59.1248 57.6359L59.1297 57.5895L59.1345 57.5431L59.1393 57.4966L59.1442 57.45L59.149 57.4034L59.1539 57.3567L59.1588 57.31L59.1636 57.2632L59.1685 57.2163L59.1734 57.1694L59.1783 57.1224L59.1832 57.0754L59.1881 57.0283L59.193 56.9812L59.1979 56.934L59.2028 56.8867L59.2077 56.8393L59.2127 56.7919L59.2176 56.7445L59.2225 56.6969L59.2275 56.6494L59.2325 56.6017L59.2374 56.554L59.2424 56.5062L59.2474 56.4584L59.2524 56.4105L59.2574 56.3625L59.2624 56.3144L59.2674 56.2663L59.2724 56.2182L59.2774 56.1699L59.2824 56.1216L59.2875 56.0733L59.2925 56.0248L59.2975 55.9763L59.3026 55.9277L59.3077 55.8791L59.3127 55.8304L59.3178 55.7816L59.3229 55.7328L59.328 55.6838L59.3331 55.6349L59.3382 55.5858L59.3433 55.5367L59.3484 55.4875L59.3535 55.4382L59.3587 55.3889L59.3638 55.3395L59.369 55.29L59.3741 55.2404L59.3793 55.1908L59.3845 55.1411L59.3896 55.0914L59.3948 55.0415L59.4 54.9916L59.4052 54.9416L59.4104 54.8915L59.4156 54.8414L59.4209 54.7912L59.4261 54.7409L59.4313 54.6905L59.4366 54.6401L59.4419 54.5896L59.4471 54.539L59.4524 54.4883L59.4577 54.4376L59.463 54.3868L59.4683 54.3359C59.5554 53.4985 58.9479 52.7447 58.1089 52.6556Z" stroke="primary.800"/>
</svg>
