<svg viewBox="0 0 96 96" fill="none" xmlns="http://www.w3.org/2000/svg">
    <path d="M48 96C74.5097 96 96 74.5097 96 48C96 21.4903 74.5097 0 48 0C21.4903 0 0 21.4903 0 48C0 74.5097 21.4903 96 48 96Z" fill="#E0EFFF"/>
    <path d="M43.8541 19.3128C43.854 19.0361 43.7969 18.7624 43.6863 18.5087C43.5757 18.2551 43.414 18.0269 43.2113 17.8385C43.0087 17.6502 42.7693 17.5056 42.5083 17.4138C42.2472 17.322 41.9701 17.2851 41.6941 17.3052C34.0716 17.8413 26.9358 21.2475 21.7255 26.8371C16.5153 32.4267 13.618 39.7838 13.618 47.4252C13.618 55.0665 16.5153 62.4237 21.7255 68.0133C26.9358 73.6029 34.0716 77.0091 41.6941 77.5452C41.97 77.5651 42.2471 77.528 42.5081 77.4362C42.7691 77.3444 43.0083 77.1998 43.211 77.0114C43.4136 76.8231 43.5753 76.595 43.6859 76.3414C43.7966 76.0879 43.8538 75.8142 43.8541 75.5376V19.3128Z" fill="white"/>
    <path d="M78.6288 38.3664C78.9235 38.3658 79.2145 38.3006 79.4813 38.1754C79.7481 38.0503 79.9841 37.8681 80.1729 37.6418C80.3617 37.4155 80.4985 37.1506 80.5739 36.8657C80.6492 36.5808 80.6611 36.2828 80.6088 35.9928C79.4095 29.3997 76.0516 23.3926 71.0636 18.9174C66.0756 14.4421 59.741 11.7528 53.0568 11.2728C52.7809 11.2534 52.504 11.2909 52.2432 11.383C51.9823 11.4751 51.7432 11.6199 51.5407 11.8082C51.3381 11.9966 51.1765 12.2246 51.0657 12.478C50.955 12.7315 50.8975 13.005 50.8969 13.2816V36.3528C50.8972 36.8868 51.1094 37.3987 51.487 37.7763C51.8645 38.1538 52.3765 38.3661 52.9104 38.3664H78.6288Z" fill="#C2DFFF"/>
    <path d="M78.6288 38.3664C78.9235 38.3658 79.2145 38.3006 79.4813 38.1754C79.7481 38.0503 79.9841 37.8681 80.1729 37.6418C80.3617 37.4155 80.4985 37.1506 80.5739 36.8657C80.6492 36.5808 80.6611 36.2828 80.6088 35.9928C79.4095 29.3997 76.0516 23.3926 71.0636 18.9174C66.0756 14.4421 59.741 11.7528 53.0568 11.2728C52.7809 11.2534 52.504 11.2909 52.2432 11.383C51.9823 11.4751 51.7432 11.6199 51.5407 11.8082C51.3381 11.9966 51.1765 12.2246 51.0657 12.478C50.955 12.7315 50.8975 13.005 50.8969 13.2816V36.3528C50.8972 36.8868 51.1094 37.3987 51.487 37.7763C51.8645 38.1538 52.3765 38.3661 52.9104 38.3664H78.6288Z" stroke="#003670" stroke-linecap="round" stroke-linejoin="round"/>
    <path d="M82.0801 47.4096C82.0614 46.8889 81.8413 46.3958 81.4661 46.0342C81.0909 45.6727 80.5899 45.471 80.0689 45.4716H56.4145C56.0252 45.4713 55.6442 45.5839 55.3175 45.7957C54.9909 46.0075 54.7326 46.3094 54.574 46.6649C54.4154 47.0205 54.3633 47.4143 54.4239 47.7989C54.4846 48.1834 54.6554 48.5422 54.9157 48.8316L72.0145 67.8996C72.2073 68.1142 72.444 68.2848 72.7084 68.4002C72.9728 68.5155 73.2589 68.5727 73.5473 68.5681C73.8357 68.5634 74.1198 68.4969 74.3804 68.3731C74.6409 68.2493 74.8719 68.0711 75.0577 67.8504C79.6138 62.4291 82.1082 55.5724 82.1005 48.4908C82.1005 48.1284 82.0921 47.7672 82.0801 47.4096Z" fill="#C2DFFF" stroke="#003670" stroke-linecap="round" stroke-linejoin="round"/>
    <path d="M43.8541 19.3128C43.854 19.0361 43.7969 18.7624 43.6863 18.5087C43.5757 18.2551 43.414 18.0269 43.2113 17.8385C43.0087 17.6502 42.7693 17.5056 42.5083 17.4138C42.2472 17.322 41.9701 17.2851 41.6941 17.3052C34.0716 17.8413 26.9358 21.2475 21.7255 26.8371C16.5153 32.4267 13.618 39.7838 13.618 47.4252C13.618 55.0665 16.5153 62.4237 21.7255 68.0133C26.9358 73.6029 34.0716 77.0091 41.6941 77.5452C41.97 77.5651 42.2471 77.528 42.5081 77.4362C42.7691 77.3444 43.0083 77.1998 43.211 77.0114C43.4136 76.8231 43.5753 76.595 43.6859 76.3414C43.7966 76.0879 43.8538 75.8142 43.8541 75.5376V19.3128Z" stroke="#003670" stroke-linecap="round" stroke-linejoin="round"/>
    <path d="M53.4 56.3712C53.1274 56.0692 52.7697 55.8568 52.374 55.7622C51.9783 55.6676 51.5632 55.6951 51.1835 55.8412C50.8038 55.9873 50.4773 56.245 50.247 56.5804C50.0167 56.9158 49.8935 57.3132 49.8936 57.72V83.5836C49.8935 83.8604 49.9505 84.1343 50.0611 84.3881C50.1716 84.6419 50.3332 84.8701 50.5359 85.0587C50.7386 85.2472 50.978 85.3919 51.2391 85.4837C51.5003 85.5755 51.7775 85.6126 52.0536 85.5924C58.7355 85.118 65.0673 82.425 70.044 77.9412C70.4413 77.5849 70.6809 77.0854 70.7099 76.5525C70.7389 76.0196 70.5551 75.497 70.1988 75.0996L53.4 56.3712Z" fill="white" stroke="#003670" stroke-linecap="round" stroke-linejoin="round"/>
</svg>
