<svg viewBox="0 0 96 96" fill="none" xmlns="http://www.w3.org/2000/svg">
<path d="M48 96C74.5097 96 96 74.5097 96 48C96 21.4903 74.5097 0 48 0C21.4903 0 0 21.4903 0 48C0 74.5097 21.4903 96 48 96Z" fill="#E0EFFF"/>
<path d="M39.6091 79.1999V61.2989C39.6079 61.0663 39.6976 60.8425 39.859 60.675C40.0205 60.5076 40.2409 60.4098 40.4734 60.4026H52.5755C52.8081 60.4097 53.0288 60.5073 53.1904 60.6748C53.352 60.8422 53.4417 61.0662 53.4405 61.2989V79.1999H39.6091Z" fill="#C2DFFF"/>
<path d="M59.5066 43.5073C59.346 43.3466 59.1554 43.2192 58.9456 43.1322C58.7358 43.0452 58.5109 43.0005 58.2838 43.0005C58.0567 43.0005 57.8318 43.0452 57.6219 43.1322C57.4121 43.2192 57.2215 43.3466 57.061 43.5073C56.7587 43.8096 54.6232 46.2104 54.1146 46.1841C53.0241 46.1236 52.0837 44.1809 52.3562 42.165L53.6266 31.5019C53.6628 31.2763 53.6538 31.0457 53.6003 30.8235C53.5468 30.6013 53.4497 30.3919 53.3148 30.2075C53.1799 30.023 53.0097 29.8672 52.8142 29.7489C52.6186 29.6306 52.4016 29.5522 52.1755 29.5183C51.9495 29.4844 51.719 29.4957 51.4974 29.5514C51.2758 29.6071 51.0674 29.7063 50.8843 29.843C50.7012 29.9798 50.547 30.1515 50.4306 30.3482C50.3143 30.5449 50.2381 30.7627 50.2065 30.9891L48.8955 40.9977L49.18 29.6617C49.1978 29.4341 49.1704 29.2052 49.0993 28.9883C49.0282 28.7713 48.9148 28.5706 48.7658 28.3977C48.6167 28.2248 48.4349 28.0831 48.2308 27.9808C48.0267 27.8785 47.8043 27.8177 47.5766 27.8018C47.3488 27.7858 47.1202 27.8152 46.9038 27.8881C46.6875 27.961 46.4877 28.076 46.3161 28.2265C46.1444 28.377 46.0042 28.56 45.9036 28.7649C45.803 28.9698 45.744 29.1927 45.73 29.4205L45.528 40.9962L44.998 30.7173C44.984 30.4895 44.925 30.2666 44.8244 30.0617C44.7238 29.8567 44.5836 29.6737 44.412 29.5232C44.2403 29.3728 44.0405 29.2577 43.8242 29.1848C43.6078 29.112 43.3792 29.0826 43.1514 29.0985C42.9237 29.1145 42.7014 29.1753 42.4973 29.2776C42.2932 29.3799 42.1113 29.5216 41.9623 29.6945C41.8132 29.8674 41.6998 30.0681 41.6287 30.285C41.5576 30.502 41.5302 30.7309 41.548 30.9585L41.7116 33.2981C41.4833 32.9954 41.1617 32.7765 40.7965 32.675C40.4312 32.5736 40.0427 32.5953 39.6911 32.7369C39.3394 32.8785 39.0442 33.132 38.8512 33.4582C38.6581 33.7844 38.5779 34.1651 38.623 34.5415L39.8145 46.2374C39.906 49.2299 40.419 52.1945 41.3382 55.0438V57.8088H51.484C51.484 55.7459 53.3072 53.9676 59.5066 45.9529C59.8307 45.6285 60.0128 45.1887 60.0128 44.7301C60.0128 44.2715 59.8307 43.8317 59.5066 43.5073Z" fill="white"/>
<path d="M39.6091 79.1999V61.2989C39.6079 61.0663 39.6976 60.8425 39.859 60.675C40.0205 60.5076 40.2409 60.4098 40.4734 60.4026H52.5755C52.8081 60.4097 53.0288 60.5073 53.1904 60.6748C53.352 60.8422 53.4417 61.0662 53.4405 61.2989V79.1999" stroke="#003670" stroke-linecap="round" stroke-linejoin="round"/>
<path d="M52.1436 60.3997V58.7053C52.1446 58.4726 52.0548 58.2487 51.8933 58.0813C51.7317 57.9139 51.5112 57.8162 51.2786 57.809H41.541C41.063 57.809 40.4705 58.2279 40.4705 58.7053V60.3997H52.1436Z" fill="white" stroke="#003670" stroke-linecap="round" stroke-linejoin="round"/>
<path d="M41.7091 33.2983L42.4325 41.3813" stroke="#003670" stroke-linecap="round" stroke-linejoin="round"/>
<path d="M59.5066 43.5073C59.346 43.3466 59.1554 43.2192 58.9456 43.1322C58.7358 43.0452 58.5109 43.0005 58.2838 43.0005C58.0567 43.0005 57.8318 43.0452 57.6219 43.1322C57.4121 43.2192 57.2215 43.3466 57.061 43.5073C56.7587 43.8096 54.6232 46.2104 54.1146 46.1841C53.0241 46.1236 52.0837 44.1809 52.3562 42.165L53.6266 31.5019C53.6628 31.2763 53.6538 31.0457 53.6003 30.8235C53.5468 30.6013 53.4497 30.3919 53.3148 30.2075C53.1799 30.023 53.0097 29.8672 52.8142 29.7489C52.6186 29.6306 52.4016 29.5522 52.1755 29.5183C51.9495 29.4844 51.719 29.4957 51.4974 29.5514C51.2758 29.6071 51.0674 29.7063 50.8843 29.843C50.7012 29.9798 50.547 30.1515 50.4306 30.3482C50.3143 30.5449 50.2381 30.7627 50.2065 30.9891L48.8955 40.9977L49.18 29.6617C49.1978 29.4341 49.1704 29.2052 49.0993 28.9883C49.0282 28.7713 48.9148 28.5706 48.7658 28.3977C48.6167 28.2248 48.4349 28.0831 48.2308 27.9808C48.0267 27.8785 47.8043 27.8177 47.5766 27.8018C47.3488 27.7858 47.1202 27.8152 46.9038 27.8881C46.6875 27.961 46.4877 28.076 46.3161 28.2265C46.1444 28.377 46.0042 28.56 45.9036 28.7649C45.803 28.9698 45.744 29.1927 45.73 29.4205L45.528 40.9962L44.998 30.7173C44.984 30.4895 44.925 30.2666 44.8244 30.0617C44.7238 29.8567 44.5836 29.6737 44.412 29.5232C44.2403 29.3728 44.0405 29.2577 43.8242 29.1848C43.6078 29.112 43.3792 29.0826 43.1514 29.0985C42.9237 29.1145 42.7014 29.1753 42.4973 29.2776C42.2932 29.3799 42.1113 29.5216 41.9623 29.6945C41.8132 29.8674 41.6998 30.0681 41.6287 30.285C41.5576 30.502 41.5302 30.7309 41.548 30.9585L41.7116 33.2981C41.4833 32.9954 41.1617 32.7765 40.7965 32.675C40.4312 32.5736 40.0427 32.5953 39.6911 32.7369C39.3394 32.8785 39.0442 33.132 38.8512 33.4582C38.6581 33.7844 38.5779 34.1651 38.623 34.5415L39.8145 46.2374C39.906 49.2299 40.419 52.1945 41.3382 55.0438V57.8088H51.484C51.484 55.7459 53.3072 53.9676 59.5066 45.9529C59.8307 45.6285 60.0128 45.1887 60.0128 44.7301C60.0128 44.2715 59.8307 43.8317 59.5066 43.5073V43.5073Z" stroke="#003670" stroke-linecap="round" stroke-linejoin="round"/>
<path d="M60.6873 78.0346V69.6798C60.6873 69.5061 60.7563 69.3394 60.8791 69.2166C61.002 69.0937 61.1687 69.0247 61.3424 69.0247H69.976C70.062 69.0247 70.1471 69.0416 70.2266 69.0746C70.306 69.1075 70.3782 69.1558 70.439 69.2166C70.4998 69.2775 70.548 69.3497 70.5808 69.4292C70.6136 69.5087 70.6305 69.5938 70.6304 69.6798V78.0346H60.6873Z" fill="#C2DFFF"/>
<path d="M75.218 56.0305C74.9726 55.7855 74.64 55.6479 74.2932 55.6479C73.9465 55.6479 73.6139 55.7855 73.3685 56.0305C73.1387 56.2603 71.519 58.0799 71.137 58.0586C70.3104 58.0123 69.5984 56.5413 69.8047 55.014L70.7657 46.9381C70.7936 46.767 70.7872 46.5921 70.7469 46.4235C70.7066 46.2549 70.6333 46.0959 70.5311 45.9559C70.4289 45.8158 70.2999 45.6975 70.1517 45.6076C70.0034 45.5178 69.8388 45.4583 69.6673 45.4326C69.4959 45.4069 69.3211 45.4155 69.153 45.4579C68.9849 45.5003 68.8269 45.5756 68.6881 45.6795C68.5493 45.7834 68.4326 45.9139 68.3446 46.0633C68.2567 46.2126 68.1993 46.378 68.1757 46.5497L67.1798 54.1298L67.3932 45.5446C67.4058 45.3727 67.3844 45.2001 67.3301 45.0365C67.2758 44.8729 67.1898 44.7217 67.0769 44.5914C66.9641 44.4612 66.8266 44.3545 66.6725 44.2774C66.5183 44.2004 66.3505 44.1546 66.1785 44.1425C66.0066 44.1305 65.834 44.1525 65.6706 44.2073C65.5072 44.2622 65.3563 44.3487 65.2264 44.4619C65.0965 44.5752 64.9903 44.713 64.9137 44.8674C64.8372 45.0218 64.7919 45.1898 64.7805 45.3618L64.6275 54.1291L64.2256 46.3442C64.2141 46.1722 64.1688 46.0042 64.0923 45.8498C64.0158 45.6954 63.9095 45.5576 63.7797 45.4443C63.6498 45.331 63.4988 45.2445 63.3354 45.1897C63.172 45.1349 62.9994 45.1129 62.8275 45.1249C62.6556 45.1369 62.4877 45.1828 62.3336 45.2598C62.1794 45.3368 62.042 45.4435 61.9291 45.5738C61.8163 45.704 61.7303 45.8553 61.676 46.0189C61.6217 46.1824 61.6002 46.3551 61.6128 46.527L61.7366 48.2982C61.5637 48.0689 61.3201 47.903 61.0434 47.8261C60.7667 47.7492 60.4724 47.7656 60.206 47.8729C59.9396 47.9801 59.716 48.1722 59.5697 48.4193C59.4235 48.6665 59.3628 48.9549 59.397 49.2401L60.2997 58.0991C60.2997 61.5577 61.6093 64.5076 61.5502 64.7694V66.8629H69.1403C69.1403 65.2979 70.5217 63.9528 75.2166 57.8829C75.3383 57.7614 75.4349 57.617 75.5009 57.4582C75.5669 57.2993 75.6009 57.129 75.601 56.957C75.6011 56.785 75.5674 56.6146 75.5017 56.4557C75.4359 56.2967 75.3396 56.1522 75.218 56.0305Z" fill="white"/>
<path d="M60.6873 78.0346V69.6798C60.6873 69.5061 60.7563 69.3394 60.8791 69.2166C61.002 69.0937 61.1687 69.0247 61.3424 69.0247H69.976C70.062 69.0247 70.1471 69.0416 70.2266 69.0746C70.306 69.1075 70.3782 69.1558 70.439 69.2166C70.4998 69.2775 70.548 69.3497 70.5808 69.4292C70.6136 69.5087 70.6305 69.5938 70.6304 69.6798V78.0346" stroke="#003670" stroke-linecap="round" stroke-linejoin="round"/>
<path d="M70.2038 69.0247V67.518C70.2038 67.432 70.1869 67.3468 70.1539 67.2673C70.121 67.1878 70.0728 67.1156 70.0119 67.0548C69.9511 66.9939 69.8789 66.9457 69.7994 66.9128C69.7199 66.8798 69.6347 66.8629 69.5487 66.8629H61.7737C61.5999 66.8629 61.4333 66.9319 61.3104 67.0548C61.1876 67.1776 61.1185 67.3443 61.1185 67.518V69.0247H70.2038Z" fill="white" stroke="#003670" stroke-linecap="round" stroke-linejoin="round"/>
<path d="M75.218 56.0305C74.9726 55.7855 74.64 55.6479 74.2932 55.6479C73.9465 55.6479 73.6139 55.7855 73.3685 56.0305C73.1387 56.2603 71.519 58.0799 71.137 58.0586C70.3104 58.0123 69.5984 56.5413 69.8047 55.014L70.7657 46.9381C70.7936 46.767 70.7872 46.5921 70.7469 46.4235C70.7066 46.2549 70.6333 46.0959 70.5311 45.9559C70.4289 45.8158 70.2999 45.6975 70.1517 45.6076C70.0034 45.5178 69.8388 45.4583 69.6673 45.4326C69.4959 45.4069 69.3211 45.4155 69.153 45.4579C68.9849 45.5003 68.8269 45.5756 68.6881 45.6795C68.5493 45.7834 68.4326 45.9139 68.3446 46.0633C68.2567 46.2126 68.1992 46.378 68.1757 46.5497L67.1798 54.1298L67.3932 45.5446C67.4058 45.3727 67.3844 45.2001 67.3301 45.0365C67.2758 44.8729 67.1898 44.7217 67.0769 44.5914C66.9641 44.4612 66.8266 44.3545 66.6725 44.2774C66.5183 44.2004 66.3505 44.1546 66.1785 44.1425C66.0066 44.1305 65.834 44.1525 65.6706 44.2073C65.5072 44.2622 65.3563 44.3487 65.2264 44.4619C65.0965 44.5752 64.9903 44.713 64.9137 44.8674C64.8372 45.0218 64.7919 45.1898 64.7805 45.3618L64.6275 54.1291L64.2256 46.3442C64.2141 46.1722 64.1688 46.0042 64.0923 45.8498C64.0158 45.6954 63.9095 45.5576 63.7797 45.4443C63.6498 45.331 63.4988 45.2445 63.3354 45.1897C63.172 45.1349 62.9994 45.1129 62.8275 45.1249C62.6556 45.1369 62.4877 45.1828 62.3336 45.2598C62.1794 45.3368 62.042 45.4435 61.9291 45.5738C61.8163 45.704 61.7303 45.8553 61.676 46.0189C61.6217 46.1824 61.6002 46.3551 61.6128 46.527L61.7366 48.2982C61.5637 48.0689 61.3201 47.903 61.0434 47.8261C60.7667 47.7492 60.4724 47.7656 60.206 47.8729C59.9396 47.9801 59.716 48.1722 59.5697 48.4193C59.4235 48.6665 59.3628 48.9549 59.397 49.2401L60.2997 58.0991C60.2997 61.5577 61.6093 64.5076 61.5502 64.7694V66.8629H69.1403C69.1403 65.2979 70.5217 63.9528 75.2166 57.8829C75.3383 57.7614 75.4349 57.617 75.5009 57.4582C75.5669 57.2993 75.6009 57.129 75.601 56.957C75.6011 56.785 75.5674 56.6146 75.5017 56.4557C75.4359 56.2967 75.3395 56.1522 75.218 56.0305Z" stroke="#003670" stroke-linecap="round" stroke-linejoin="round"/>
<path d="M61.7385 48.298L62.287 54.56" stroke="#003670" stroke-linecap="round" stroke-linejoin="round"/>
<path d="M24.0941 77.4457V69.5234C24.0941 69.3497 24.1631 69.183 24.286 69.0602C24.4089 68.9373 24.5755 68.8683 24.7493 68.8683H33.3828C33.5565 68.8685 33.7231 68.9376 33.8459 69.0604C33.9687 69.1832 34.0378 69.3497 34.038 69.5234V77.4457H24.0941Z" fill="#C2DFFF"/>
<path d="M38.6257 55.8748C38.3803 55.6299 38.0477 55.4922 37.701 55.4922C37.3542 55.4922 37.0216 55.6299 36.7762 55.8748C36.5472 56.1039 34.9267 57.9235 34.5448 57.9022C33.7182 57.8566 33.0061 56.3856 33.2124 54.8583L34.1741 46.7817C34.202 46.6106 34.1956 46.4357 34.1553 46.2671C34.1151 46.0985 34.0417 45.9395 33.9395 45.7995C33.8374 45.6594 33.7084 45.5411 33.5601 45.4512C33.4119 45.3614 33.2472 45.3019 33.0758 45.2762C32.9043 45.2505 32.7295 45.2591 32.5614 45.3015C32.3933 45.3439 32.2353 45.4192 32.0965 45.5231C31.9578 45.627 31.841 45.7575 31.7531 45.9069C31.6651 46.0562 31.6077 46.2216 31.5841 46.3933L30.5883 53.9741L30.8017 45.3882C30.8143 45.2163 30.7928 45.0437 30.7385 44.8801C30.6843 44.7165 30.5982 44.5653 30.4854 44.435C30.3725 44.3048 30.2351 44.1981 30.0809 44.121C29.9268 44.044 29.7589 43.9982 29.587 43.9861C29.4151 43.9741 29.2425 43.9961 29.0791 44.0509C28.9157 44.1058 28.7647 44.1923 28.6348 44.3055C28.505 44.4188 28.3987 44.5566 28.3222 44.711C28.2457 44.8654 28.2004 45.0334 28.1889 45.2054L28.036 53.9734L27.6341 46.1878C27.6318 46.0095 27.5931 45.8336 27.5204 45.6708C27.4478 45.508 27.3426 45.3618 27.2115 45.241C27.0803 45.1203 26.9259 45.0276 26.7576 44.9687C26.5894 44.9097 26.4109 44.8858 26.233 44.8982C26.0552 44.9107 25.8818 44.9593 25.7234 45.0412C25.565 45.123 25.425 45.2363 25.312 45.3742C25.1989 45.512 25.1152 45.6715 25.066 45.8428C25.0167 46.0142 25.003 46.1938 25.0256 46.3706L25.1493 48.1425C24.9765 47.9132 24.7328 47.7473 24.4561 47.6704C24.1795 47.5935 23.8851 47.6099 23.6187 47.7172C23.3523 47.8244 23.1287 48.0165 22.9825 48.2636C22.8362 48.5108 22.7755 48.7992 22.8097 49.0844L23.7124 57.9427C23.7124 61.4013 25.022 64.3512 24.963 64.613V66.7072H32.5501C32.5501 65.1458 33.9309 63.7964 38.6257 57.7272C38.7474 57.6056 38.8439 57.4612 38.9097 57.3023C38.9756 57.1434 39.0095 56.973 39.0095 56.801C39.0095 56.629 38.9756 56.4587 38.9097 56.2998C38.8439 56.1408 38.7474 55.9965 38.6257 55.8748Z" fill="white"/>
<path d="M24.0941 77.4457V69.5234C24.0941 69.3497 24.1631 69.183 24.286 69.0602C24.4089 68.9373 24.5755 68.8683 24.7493 68.8683H33.3828C33.5565 68.8685 33.7231 68.9376 33.8459 69.0604C33.9687 69.1832 34.0378 69.3497 34.038 69.5234V77.4457" stroke="#003670" stroke-linecap="round" stroke-linejoin="round"/>
<path d="M33.613 68.8681V67.3615C33.613 67.2755 33.596 67.1903 33.5631 67.1109C33.5302 67.0314 33.4819 66.9593 33.4211 66.8985C33.3602 66.8377 33.288 66.7895 33.2085 66.7567C33.129 66.7238 33.0438 66.707 32.9578 66.7071H25.1829C25.0969 66.707 25.0117 66.7238 24.9322 66.7567C24.8527 66.7895 24.7805 66.8377 24.7196 66.8985C24.6588 66.9593 24.6105 67.0314 24.5776 67.1109C24.5447 67.1903 24.5277 67.2755 24.5277 67.3615V68.8681H33.613Z" fill="white" stroke="#003670" stroke-linecap="round" stroke-linejoin="round"/>
<path d="M38.6257 55.8748C38.3803 55.6299 38.0477 55.4922 37.701 55.4922C37.3542 55.4922 37.0216 55.6299 36.7762 55.8748C36.5472 56.1039 34.9267 57.9235 34.5448 57.9022C33.7182 57.8566 33.0061 56.3856 33.2124 54.8583L34.1741 46.7817C34.202 46.6106 34.1956 46.4357 34.1553 46.2671C34.1151 46.0985 34.0417 45.9395 33.9395 45.7995C33.8374 45.6594 33.7084 45.5411 33.5601 45.4512C33.4119 45.3614 33.2472 45.3019 33.0758 45.2762C32.9043 45.2505 32.7295 45.2591 32.5614 45.3015C32.3933 45.3439 32.2353 45.4192 32.0965 45.5231C31.9578 45.627 31.841 45.7575 31.7531 45.9069C31.6651 46.0562 31.6077 46.2216 31.5841 46.3933L30.5883 53.9741L30.8017 45.3882C30.8143 45.2163 30.7928 45.0437 30.7385 44.8801C30.6843 44.7165 30.5982 44.5653 30.4854 44.435C30.3725 44.3048 30.2351 44.1981 30.0809 44.121C29.9268 44.044 29.7589 43.9982 29.587 43.9861C29.4151 43.9741 29.2425 43.9961 29.0791 44.0509C28.9157 44.1058 28.7647 44.1923 28.6348 44.3055C28.505 44.4188 28.3987 44.5566 28.3222 44.711C28.2457 44.8654 28.2004 45.0334 28.1889 45.2054L28.036 53.9734L27.6341 46.1878C27.6318 46.0095 27.5931 45.8336 27.5204 45.6708C27.4478 45.508 27.3426 45.3618 27.2115 45.241C27.0803 45.1203 26.9259 45.0276 26.7576 44.9687C26.5894 44.9097 26.4109 44.8858 26.233 44.8982C26.0552 44.9107 25.8818 44.9593 25.7234 45.0412C25.565 45.123 25.425 45.2363 25.312 45.3742C25.1989 45.512 25.1152 45.6715 25.066 45.8428C25.0167 46.0142 25.003 46.1938 25.0256 46.3706L25.1493 48.1425C24.9765 47.9132 24.7328 47.7473 24.4561 47.6704C24.1795 47.5935 23.8851 47.6099 23.6187 47.7172C23.3523 47.8244 23.1287 48.0165 22.9825 48.2636C22.8362 48.5108 22.7755 48.7992 22.8097 49.0844L23.7124 57.9427C23.7124 61.4013 25.022 64.3512 24.963 64.613V66.7072H32.5501C32.5501 65.1458 33.9309 63.7964 38.6257 57.7272C38.7474 57.6056 38.8439 57.4612 38.9097 57.3023C38.9756 57.1434 39.0095 56.973 39.0095 56.801C39.0095 56.629 38.9756 56.4587 38.9097 56.2998C38.8439 56.1408 38.7474 55.9965 38.6257 55.8748Z" stroke="#003670" stroke-linecap="round" stroke-linejoin="round"/>
<path d="M25.1454 48.1422L25.6938 54.4035" stroke="#003670" stroke-linecap="round" stroke-linejoin="round"/>
<path d="M47.9993 7.02472C39.8951 7.02472 31.973 9.42787 25.2347 13.9303C18.4963 18.4327 13.2444 24.8321 10.1431 32.3194C7.0418 39.8066 6.23036 48.0454 7.81139 55.9938C9.39243 63.9422 13.2949 71.2433 19.0254 76.9738C24.7559 82.7042 32.057 86.6068 40.0054 88.1878C47.9538 89.7688 56.1926 88.9574 63.6798 85.8561C71.167 82.7548 77.5665 77.5029 82.0689 70.7645C86.5713 64.0262 88.9745 56.104 88.9745 47.9999C88.9746 42.6189 87.9149 37.2906 85.8557 32.3192C83.7966 27.3478 80.7784 22.8307 76.9735 19.0257C73.1685 15.2208 68.6514 12.2026 63.68 10.1434C58.7086 8.08431 53.3802 7.02456 47.9993 7.02472ZM16.6565 47.9999C16.657 42.1738 18.2813 36.4632 21.347 31.5089C24.4127 26.5547 28.7985 22.5529 34.0121 19.9526C39.2257 17.3524 45.0609 16.2567 50.8627 16.7885C56.6644 17.3203 62.2032 19.4585 66.8573 22.9631L67.0097 23.0831L23.0105 66.9203C18.8779 61.4794 16.6457 54.8323 16.6565 47.9999ZM79.3421 47.9999C79.3415 53.8601 77.6982 59.6028 74.5986 64.5762C71.499 69.5495 67.0673 73.5544 61.8065 76.1362C56.5457 78.718 50.6664 79.7733 44.8361 79.1824C39.0058 78.5915 33.4579 76.378 28.8221 72.7931L72.6641 28.6595C77.0008 34.1724 79.3533 40.9857 79.3421 47.9999Z" fill="white"/>
<path d="M47.9993 7.02472C39.8951 7.02472 31.973 9.42787 25.2347 13.9303C18.4963 18.4327 13.2444 24.8321 10.1431 32.3194C7.0418 39.8066 6.23036 48.0454 7.81139 55.9938C9.39243 63.9422 13.2949 71.2433 19.0254 76.9738C24.7559 82.7042 32.057 86.6068 40.0054 88.1878C47.9538 89.7688 56.1926 88.9574 63.6798 85.8561C71.167 82.7548 77.5665 77.5029 82.0689 70.7645C86.5713 64.0262 88.9745 56.104 88.9745 47.9999C88.9746 42.6189 87.9149 37.2906 85.8557 32.3192C83.7966 27.3478 80.7784 22.8307 76.9735 19.0257C73.1685 15.2208 68.6514 12.2026 63.68 10.1434C58.7086 8.08431 53.3802 7.02456 47.9993 7.02472V7.02472ZM16.6565 47.9999C16.657 42.1738 18.2813 36.4632 21.347 31.5089C24.4127 26.5547 28.7985 22.5529 34.0121 19.9526C39.2257 17.3524 45.0609 16.2567 50.8627 16.7885C56.6644 17.3203 62.2032 19.4585 66.8573 22.9631L67.0097 23.0831L23.0105 66.9203C18.8779 61.4794 16.6457 54.8323 16.6565 47.9999V47.9999ZM79.3421 47.9999C79.3415 53.8601 77.6982 59.6028 74.5986 64.5762C71.499 69.5495 67.0673 73.5544 61.8065 76.1362C56.5457 78.718 50.6664 79.7733 44.8361 79.1824C39.0058 78.5915 33.4579 76.378 28.8221 72.7931L72.6641 28.6595C77.0008 34.1724 79.3533 40.9857 79.3421 47.9999V47.9999Z" stroke="#003670" stroke-linecap="round" stroke-linejoin="round"/>
</svg>
