<svg viewBox="0 0 96 94" fill="none" xmlns="http://www.w3.org/2000/svg">
    <path d="M47.9809 94C73.9277 94 94.9618 72.9574 94.9618 47C94.9618 21.0426 73.9277 0 47.9809 0C22.0341 0 1 21.0426 1 47C1 72.9574 22.0341 94 47.9809 94Z" fill="primary.150"/>
    <path d="M50.7152 21.4271C50.7152 22.8864 49.5325 26.1917 48.0737 26.1917C46.6149 26.1917 45.431 22.8864 45.431 21.4271C45.431 20.7259 45.7095 20.0535 46.2051 19.5577C46.7007 19.0619 47.3728 18.7833 48.0737 18.7833C48.7746 18.7833 49.4468 19.0619 49.9424 19.5577C50.438 20.0535 50.7164 20.7259 50.7164 21.4271H50.7152Z" fill="white" stroke="primary.800" stroke-linecap="round" stroke-linejoin="round"/>
    <path d="M30.3949 30.3149C31.6587 31.0445 33.9279 33.7224 33.1985 34.9867C32.4691 36.251 29.0172 35.6235 27.7534 34.8927C27.4526 34.7191 27.189 34.4881 26.9775 34.2126C26.766 33.9372 26.6108 33.6227 26.5207 33.2873C26.4307 32.9518 26.4076 32.6019 26.4527 32.2575C26.4979 31.9131 26.6104 31.581 26.7838 31.2801C26.9573 30.9792 27.1883 30.7155 27.4636 30.5039C27.7389 30.2923 28.0532 30.137 28.3886 30.047C28.7239 29.9569 29.0736 29.9338 29.4179 29.9789C29.7621 30.0241 30.0941 30.1366 30.3949 30.3102V30.3149Z" fill="white" stroke="primary.800" stroke-linecap="round" stroke-linejoin="round"/>
    <path d="M27.9271 52.3603C29.1909 51.6307 32.6428 51.0032 33.3722 52.2675C34.1016 53.5318 31.8324 56.2085 30.5686 56.9381C30.2678 57.1116 29.9358 57.2242 29.5916 57.2694C29.2474 57.3145 28.8976 57.2914 28.5623 57.2013C28.2269 57.1113 27.9126 56.956 27.6373 56.7444C27.362 56.5328 27.131 56.2691 26.9575 55.9682C26.7841 55.6673 26.6716 55.3352 26.6264 54.9908C26.5813 54.6464 26.6044 54.2965 26.6944 53.961C26.7845 53.6256 26.9397 53.3111 27.1512 53.0357C27.3627 52.7602 27.6263 52.5291 27.9271 52.3556V52.3603Z" fill="white" stroke="primary.800" stroke-linecap="round" stroke-linejoin="round"/>
    <path d="M45.7789 65.5226C45.7789 64.0632 46.9616 60.7579 48.4216 60.7579C49.8815 60.7579 51.0631 64.0632 51.0631 65.5226C51.0631 66.2237 50.7846 66.8962 50.289 67.392C49.7934 67.8878 49.1213 68.1663 48.4204 68.1663C47.7195 68.1663 47.0473 67.8878 46.5517 67.392C46.0561 66.8962 45.7777 66.2237 45.7777 65.5226H45.7789Z" fill="white" stroke="primary.800" stroke-linecap="round" stroke-linejoin="round"/>
    <path d="M68.5665 34.5894C67.3039 35.319 63.852 35.9465 63.1214 34.6822C62.3909 33.4179 64.6612 30.7412 65.925 30.0116C66.2258 29.8381 66.5578 29.7255 66.902 29.6803C67.2462 29.6352 67.596 29.6583 67.9313 29.7484C68.2666 29.8384 68.5809 29.9937 68.8563 30.2053C69.1316 30.4169 69.3626 30.6806 69.5361 30.9815C69.7095 31.2824 69.822 31.6145 69.8671 31.9589C69.9123 32.3033 69.8892 32.6532 69.7992 32.9887C69.7091 33.3241 69.5539 33.6386 69.3424 33.914C69.1309 34.1895 68.8673 34.4206 68.5665 34.5941V34.5894Z" fill="white" stroke="primary.800" stroke-linecap="round" stroke-linejoin="round"/>
    <path d="M16.626 30.3218L19.6797 36.5105C19.8002 36.7563 19.9788 36.9688 20.2001 37.1298C20.4213 37.2908 20.6786 37.3952 20.9494 37.4341L27.778 38.4269C28.09 38.4716 28.3833 38.6028 28.6246 38.8056C28.8659 39.0084 29.0456 39.2747 29.1434 39.5745C29.2412 39.8742 29.2532 40.1953 29.1779 40.5015C29.1027 40.8077 28.9432 41.0867 28.7177 41.3069L23.7764 46.1244C23.5804 46.3154 23.4339 46.5513 23.3496 46.8117C23.2653 47.0722 23.2457 47.3492 23.2925 47.619L24.4577 54.4222C24.5109 54.7327 24.4763 55.052 24.3577 55.3439C24.239 55.6357 24.0411 55.8886 23.7863 56.0738C23.5315 56.259 23.23 56.3692 22.9159 56.3919C22.6018 56.4146 22.2876 56.349 22.0088 56.2023L15.9013 52.9899C15.6591 52.8626 15.3897 52.796 15.1161 52.796C14.8426 52.796 14.5731 52.8626 14.3309 52.9899L8.22343 56.2023C7.94466 56.349 7.63044 56.4146 7.31631 56.3919C7.00218 56.3692 6.70068 56.259 6.44589 56.0738C6.1911 55.8886 5.99319 55.6357 5.87455 55.3439C5.75591 55.052 5.72127 54.7327 5.77455 54.4222L6.94085 47.619C6.9871 47.3493 6.96724 47.0723 6.88295 46.812C6.79866 46.5517 6.65248 46.3157 6.45694 46.1244L1.51456 41.3069C1.28899 41.0867 1.12955 40.8077 1.0543 40.5015C0.979057 40.1953 0.991006 39.8742 1.0888 39.5745C1.18659 39.2747 1.36632 39.0084 1.60763 38.8056C1.84894 38.6028 2.14219 38.4716 2.45417 38.4269L9.28285 37.4341C9.55374 37.395 9.81104 37.2905 10.0325 37.1296C10.2539 36.9686 10.4328 36.7562 10.5537 36.5105L13.6074 30.3218C13.7477 30.0415 13.9631 29.8058 14.2297 29.6411C14.4963 29.4763 14.8034 29.3891 15.1167 29.3891C15.43 29.3891 15.7371 29.4763 16.0037 29.6411C16.2702 29.8058 16.4857 30.0415 16.626 30.3218Z" fill="primary.200" stroke="primary.800" stroke-linecap="round" stroke-linejoin="round"/>
    <path d="M82.3992 30.3218L85.4529 36.5105C85.5733 36.7563 85.752 36.9688 85.9732 37.1298C86.1945 37.2908 86.4518 37.3952 86.7226 37.4341L93.5512 38.4269C93.8632 38.4716 94.1565 38.6028 94.3978 38.8056C94.6391 39.0084 94.8188 39.2747 94.9166 39.5745C95.0144 39.8742 95.0264 40.1953 94.9511 40.5015C94.8759 40.8077 94.7164 41.0867 94.4909 41.3069L89.5496 46.1244C89.3536 46.3154 89.2071 46.5513 89.1228 46.8117C89.0384 47.0722 89.0189 47.3492 89.0657 47.619L90.2309 54.4222C90.2841 54.7327 90.2495 55.052 90.1309 55.3439C90.0122 55.6357 89.8143 55.8886 89.5595 56.0738C89.3047 56.259 89.0032 56.3692 88.6891 56.3919C88.375 56.4146 88.0608 56.349 87.782 56.2023L81.6745 52.9899C81.4323 52.8626 81.1629 52.796 80.8893 52.796C80.6157 52.796 80.3463 52.8626 80.1041 52.9899L73.9966 56.2023C73.7179 56.349 73.4036 56.4146 73.0895 56.3919C72.7754 56.3692 72.4739 56.259 72.2191 56.0738C71.9643 55.8886 71.7664 55.6357 71.6477 55.3439C71.5291 55.052 71.4945 54.7327 71.5477 54.4222L72.714 47.619C72.7603 47.3493 72.7404 47.0723 72.6561 46.812C72.5719 46.5517 72.4257 46.3157 72.2301 46.1244L67.2877 41.3069C67.0622 41.0867 66.9027 40.8077 66.8275 40.5015C66.7522 40.1953 66.7642 39.8742 66.862 39.5745C66.9598 39.2747 67.1395 39.0084 67.3808 38.8056C67.6221 38.6028 67.9154 38.4716 68.2274 38.4269L75.056 37.4341C75.3269 37.395 75.5842 37.2905 75.8057 37.1296C76.0271 36.9686 76.206 36.7562 76.3269 36.5105L79.3806 30.3218C79.5209 30.0415 79.7363 29.8058 80.0029 29.6411C80.2694 29.4763 80.5766 29.3891 80.8899 29.3891C81.2032 29.3891 81.5103 29.4763 81.7769 29.6411C82.0434 29.8058 82.2589 30.0415 82.3992 30.3218Z" fill="primary.200" stroke="primary.800" stroke-linecap="round" stroke-linejoin="round"/>
    <path d="M49.4938 30.3221L52.5476 36.5108C52.6683 36.7566 52.8471 36.9692 53.0686 37.1301C53.29 37.291 53.5474 37.3955 53.8184 37.4343L60.6471 38.4272C60.9588 38.4723 61.2517 38.6037 61.4928 38.8066C61.7338 39.0094 61.9133 39.2757 62.011 39.5752C62.1088 39.8748 62.1208 40.1957 62.0458 40.5017C61.9708 40.8078 61.8118 41.0868 61.5867 41.3071L56.6443 46.1246C56.4485 46.3158 56.3022 46.5518 56.2179 46.8122C56.1335 47.0725 56.1138 47.3495 56.1604 47.6192L57.3267 54.4225C57.38 54.733 57.3453 55.0523 57.2267 55.3442C57.108 55.636 56.9101 55.8889 56.6553 56.0741C56.4006 56.2593 56.0991 56.3695 55.7849 56.3922C55.4708 56.4149 55.1566 56.3492 54.8778 56.2026L48.7703 52.9902C48.5281 52.8629 48.2587 52.7963 47.9851 52.7963C47.7116 52.7963 47.4421 52.8629 47.2 52.9902L41.0924 56.2026C40.8138 56.3494 40.4995 56.4152 40.1854 56.3925C39.8713 56.3698 39.5698 56.2596 39.315 56.0744C39.0603 55.8891 38.8625 55.6362 38.744 55.3442C38.6255 55.0523 38.5912 54.733 38.6447 54.4225L39.8099 47.6192C39.8567 47.3495 39.8372 47.0725 39.7528 46.812C39.6685 46.5516 39.522 46.3157 39.326 46.1246L34.3836 41.3071C34.158 41.0869 33.9986 40.808 33.9233 40.5018C33.8481 40.1956 33.86 39.8745 33.9578 39.5748C34.0556 39.275 34.2353 39.0087 34.4766 38.8059C34.718 38.6031 35.0112 38.4719 35.3232 38.4272L42.1519 37.4343C42.4226 37.3953 42.6798 37.2908 42.901 37.1298C43.1222 36.9689 43.3009 36.7564 43.4215 36.5108L46.4753 30.3221C46.6152 30.0414 46.8306 29.8054 47.0972 29.6403C47.3638 29.4753 47.671 29.3879 47.9845 29.3879C48.298 29.3879 48.6053 29.4753 48.8719 29.6403C49.1385 29.8054 49.3539 30.0414 49.4938 30.3221Z" fill="white" stroke="primary.800" stroke-linecap="round" stroke-linejoin="round"/>
    <path d="M78.2462 87.2249C73.3425 79.5874 66.6712 86.9828 58.9253 74.9262C56.0007 70.373 56.3413 67.6188 59.6182 65.5097L48.6623 48.4546C48.2106 47.7519 48.0565 46.8984 48.2338 46.082C48.4111 45.2656 48.9053 44.5531 49.6078 44.1012C50.3102 43.6494 51.1633 43.4952 51.9794 43.6725C52.7955 43.8499 53.5077 44.3444 53.9594 45.0471L62.3619 58.1284C61.9102 57.4256 61.7561 56.5722 61.9334 55.7558C62.1107 54.9394 62.605 54.2269 63.3074 53.775C64.0098 53.3231 64.8629 53.1689 65.679 53.3463C66.4951 53.5237 67.2073 54.0181 67.659 54.7209L68.5094 56.0451C68.0577 55.3424 67.9035 54.4889 68.0809 53.6725C68.2582 52.8561 68.7524 52.1436 69.4549 51.6917C70.1573 51.2399 71.0104 51.0857 71.8265 51.263C72.6426 51.4404 73.3548 51.9349 73.8065 52.6376L74.6568 53.963C74.4332 53.615 74.2802 53.2264 74.2067 52.8193C74.1332 52.4122 74.1405 51.9947 74.2283 51.5904C74.3161 51.1862 74.4826 50.8032 74.7184 50.4633C74.9541 50.1234 75.2545 49.8334 75.6023 49.6096C75.9501 49.3859 76.3386 49.2329 76.7455 49.1593C77.1524 49.0858 77.5698 49.0931 77.9739 49.1809C78.378 49.2688 78.7608 49.4354 79.1006 49.6712C79.4403 49.9071 79.7303 50.2075 79.9539 50.5555L86.1225 60.1588C90.507 66.9832 88.6266 69.8819 91.133 73.7888L93.4727 77.4313" fill="white"/>
    <path d="M78.2462 87.2249C73.3425 79.5874 66.6712 86.9828 58.9253 74.9262C56.0007 70.373 56.3413 67.6188 59.6182 65.5097L48.6623 48.4546C48.2106 47.7519 48.0565 46.8984 48.2338 46.082C48.4111 45.2656 48.9053 44.5531 49.6078 44.1012C50.3102 43.6494 51.1633 43.4952 51.9794 43.6725C52.7955 43.8499 53.5077 44.3444 53.9594 45.0471L62.3619 58.1284C61.9102 57.4256 61.7561 56.5722 61.9334 55.7558C62.1107 54.9394 62.605 54.2269 63.3074 53.775C64.0098 53.3231 64.8629 53.1689 65.679 53.3463C66.4951 53.5237 67.2073 54.0181 67.659 54.7209L68.5094 56.0451C68.0577 55.3424 67.9035 54.4889 68.0809 53.6725C68.2582 52.8561 68.7524 52.1436 69.4549 51.6917C70.1573 51.2399 71.0104 51.0857 71.8265 51.263C72.6426 51.4404 73.3548 51.9349 73.8065 52.6376L74.6568 53.963C74.4332 53.615 74.2802 53.2264 74.2067 52.8193C74.1332 52.4122 74.1405 51.9947 74.2283 51.5904C74.3161 51.1862 74.4826 50.8032 74.7184 50.4633C74.9541 50.1234 75.2545 49.8334 75.6023 49.6096C75.9501 49.3859 76.3386 49.2329 76.7455 49.1593C77.1524 49.0858 77.5698 49.0931 77.9739 49.1809C78.378 49.2688 78.7608 49.4354 79.1006 49.6712C79.4403 49.9071 79.7303 50.2075 79.9539 50.5555L86.1225 60.1588C90.507 66.9832 88.6266 69.8819 91.133 73.7888L93.4727 77.4313" stroke="primary.800" stroke-linecap="round" stroke-linejoin="round"/>
    <path d="M63.4469 71.4705L59.6179 65.5098" stroke="primary.800" stroke-linecap="round" stroke-linejoin="round"/>
    <path d="M70.3548 58.9216L68.5093 56.0499" stroke="primary.800" stroke-linecap="round" stroke-linejoin="round"/>
    <path d="M64.9151 62.1048L62.3617 58.131" stroke="primary.800" stroke-linecap="round" stroke-linejoin="round"/>
    <path d="M75.6498 55.5157L74.6565 53.9699" stroke="primary.800" stroke-linecap="round" stroke-linejoin="round"/>
</svg>
