<svg viewBox="0 0 96 96" fill="none" xmlns="http://www.w3.org/2000/svg">
    <path d="M48 96C74.5097 96 96 74.5097 96 48C96 21.4903 74.5097 0 48 0C21.4903 0 0 21.4903 0 48C0 74.5097 21.4903 96 48 96Z"
          fill="primary.lighter"/>
    <path d="M35.8199 30.2806C35.8203 29.2796 36.0923 28.2974 36.6071 27.439L39.9671 21.8446C40.103 21.618 40.2952 21.4305 40.525 21.3003C40.7549 21.1701 41.0146 21.1017 41.2787 21.1018H54.8387C55.1029 21.1017 55.3626 21.1701 55.5925 21.3003C55.8223 21.4305 56.0145 21.618 56.1503 21.8446L59.5103 27.439C60.026 28.2972 60.2989 29.2794 60.2999 30.2806H35.8199Z"
          fill="primary.light" stroke="primary.darker" stroke-linecap="round" stroke-linejoin="round"/>
    <path d="M81.7164 66.1923C81.7164 64.5039 66.6492 63.1335 48.0612 63.1335C29.4732 63.1335 14.4036 64.5039 14.4036 66.1923C14.4036 67.8807 29.4732 69.2523 48.06 69.2523C66.6468 69.2523 81.7164 67.8831 81.7164 66.1923Z"
          fill="primary.light"/>
    <path d="M61.8239 44.0494C61.4192 44.0479 61.0316 43.886 60.7459 43.5992C60.4603 43.3124 60.2999 42.9242 60.2999 42.5194V30.2806C60.2999 29.8749 60.1387 29.4857 59.8518 29.1988C59.5649 28.9118 59.1757 28.7506 58.7699 28.7506H37.3463C36.9412 28.7516 36.5529 28.9132 36.2668 29.2C35.9806 29.4869 35.8199 29.8755 35.8199 30.2806V42.5206C35.8201 42.7215 35.7807 42.9204 35.7039 43.1061C35.6271 43.2917 35.5146 43.4604 35.3726 43.6024C35.2306 43.7445 35.062 43.8572 34.8764 43.9342C34.6909 44.0111 34.492 44.0506 34.2911 44.0506H15.9311C15.5253 44.0506 15.1362 44.2118 14.8492 44.4988C14.5623 44.7857 14.4011 45.1749 14.4011 45.5806V63.9406C14.4011 64.3464 14.5623 64.7356 14.8492 65.0225C15.1362 65.3094 15.5253 65.4706 15.9311 65.4706H80.1815C80.5873 65.4706 80.9765 65.3094 81.2634 65.0225C81.5503 64.7356 81.7115 64.3464 81.7115 63.9406V45.5806C81.7115 45.1749 81.5503 44.7857 81.2634 44.4988C80.9765 44.2118 80.5873 44.0506 80.1815 44.0506L61.8239 44.0494Z"
          fill="white"/>
    <path d="M14.4001 45.5797C14.4 45.3788 14.4394 45.1799 14.5162 44.9942C14.5929 44.8086 14.7055 44.6399 14.8475 44.4978C14.9895 44.3558 15.1581 44.243 15.3436 44.1661C15.5292 44.0892 15.7281 44.0497 15.9289 44.0497H34.2889C34.49 44.05 34.6892 44.0106 34.875 43.9339C35.0608 43.8571 35.2297 43.7444 35.3719 43.6023C35.5142 43.4602 35.627 43.2914 35.7039 43.1056C35.7808 42.9198 35.8203 42.7207 35.8201 42.5196V33.3409H24.2821C24.0615 33.341 23.8435 33.3888 23.643 33.4809C23.4425 33.5731 23.2643 33.7075 23.1205 33.8749L15.3949 42.8881C14.7529 43.6379 14.4001 44.5925 14.4001 45.5797V45.5797Z"
          fill="primary.light" stroke="primary.darker" stroke-linecap="round" stroke-linejoin="round"/>
    <path d="M81.7116 45.5797C81.7116 45.1739 81.5505 44.7847 81.2635 44.4978C80.9766 44.2108 80.5874 44.0497 80.1816 44.0497H61.824C61.4193 44.0481 61.0317 43.8862 60.7461 43.5994C60.4604 43.3126 60.3 42.9244 60.3 42.5196V33.3409H71.8357C72.0563 33.3411 72.2743 33.3889 72.4747 33.481C72.6752 33.5732 72.8534 33.7075 72.9972 33.8749L80.7217 42.8881C81.3624 43.6383 81.7135 44.593 81.7116 45.5797Z"
          fill="primary.light" stroke="primary.darker" stroke-linecap="round" stroke-linejoin="round"/>
    <path d="M61.8239 44.0494C61.4192 44.0479 61.0316 43.886 60.7459 43.5992C60.4603 43.3124 60.2999 42.9242 60.2999 42.5194V30.2806C60.2999 29.8749 60.1387 29.4857 59.8518 29.1988C59.5649 28.9118 59.1757 28.7506 58.7699 28.7506H37.3463C36.9412 28.7516 36.5529 28.9132 36.2668 29.2C35.9806 29.4869 35.8199 29.8755 35.8199 30.2806V42.5206C35.8201 42.7215 35.7807 42.9204 35.7039 43.1061C35.6271 43.2917 35.5146 43.4604 35.3726 43.6024C35.2306 43.7445 35.062 43.8572 34.8764 43.9342C34.6909 44.0111 34.492 44.0506 34.2911 44.0506H15.9311C15.5253 44.0506 15.1362 44.2118 14.8492 44.4988C14.5623 44.7857 14.4011 45.1749 14.4011 45.5806V63.9406C14.4011 64.3464 14.5623 64.7356 14.8492 65.0225C15.1362 65.3094 15.5253 65.4706 15.9311 65.4706H80.1815C80.5873 65.4706 80.9765 65.3094 81.2634 65.0225C81.5503 64.7356 81.7115 64.3464 81.7115 63.9406V45.5806C81.7115 45.1749 81.5503 44.7857 81.2634 44.4988C80.9765 44.2118 80.5873 44.0506 80.1815 44.0506L61.8239 44.0494Z"
          stroke="primary.darker" stroke-linecap="round" stroke-linejoin="round"/>
    <path d="M45.9742 36.9509L48.055 34.8701V46.3133" stroke="primary.darker" stroke-linecap="round" stroke-linejoin="round"/>
    <path d="M45.9742 46.3135H50.1358" stroke="primary.darker" stroke-linecap="round" stroke-linejoin="round"/>
    <path d="M22.0488 51.5148C22.0488 50.6873 22.3775 49.8937 22.9627 49.3086C23.5478 48.7235 24.3414 48.3948 25.1688 48.3948C25.9963 48.3948 26.7899 48.7235 27.375 49.3086C27.9601 49.8937 28.2888 50.6873 28.2888 51.5148C28.2888 53.5956 22.0488 59.8368 22.0488 59.8368H28.2888"
          stroke="primary.darker" stroke-linecap="round" stroke-linejoin="round"/>
    <path d="M66.7799 48.3948H73.0199L69.8999 52.5552C70.723 52.5549 71.5278 52.7988 72.2123 53.2559C72.8968 53.7131 73.4304 54.363 73.7456 55.1234C74.0607 55.8838 74.1433 56.7206 73.9829 57.5279C73.8224 58.3353 73.4262 59.0769 72.8442 59.659C72.2623 60.2412 71.5207 60.6376 70.7134 60.7983C69.9061 60.959 69.0693 60.8766 68.3088 60.5617C67.5483 60.2468 66.8983 59.7134 66.4409 59.029C65.9836 58.3446 65.7395 57.5399 65.7395 56.7168"
          stroke="primary.darker" stroke-linecap="round" stroke-linejoin="round"/>
</svg>
