<svg viewBox="0 0 92 97" fill="none" xmlns="http://www.w3.org/2000/svg">
    <path d="M45.7145 97.0001C70.9619 97.0001 91.429 76.5331 91.429 51.2856C91.429 26.0382 70.9619 5.57117 45.7145 5.57117C20.4671 5.57117 0 26.0382 0 51.2856C0 76.5331 20.4671 97.0001 45.7145 97.0001Z" fill="primary.150"/>
    <path d="M74.7435 25.3987C74.9088 24.6807 75.2728 24.0237 75.7938 23.5027C76.3147 22.9817 76.9718 22.6178 77.6898 22.4524L83.6041 21.081C83.7124 21.056 83.809 20.9951 83.8782 20.9081C83.9474 20.8211 83.9851 20.7133 83.9851 20.6021C83.9851 20.491 83.9474 20.3831 83.8782 20.2962C83.809 20.2092 83.7124 20.1483 83.6041 20.1233L77.6898 18.7598C76.9726 18.5943 76.3162 18.2309 75.7954 17.7109C75.2745 17.1908 74.9101 16.535 74.7435 15.8181L73.372 9.90723C73.347 9.79894 73.2861 9.70231 73.1991 9.63311C73.1122 9.56392 73.0043 9.52625 72.8932 9.52625C72.782 9.52625 72.6742 9.56392 72.5872 9.63311C72.5002 9.70231 72.4393 9.79894 72.4143 9.90723L71.0509 15.8181C70.8851 16.5362 70.5209 17.1933 69.9998 17.7145C69.4786 18.2356 68.8215 18.5998 68.1034 18.7656L62.1914 20.129C62.0831 20.154 61.9865 20.2149 61.9173 20.3019C61.8481 20.3889 61.8104 20.4967 61.8104 20.6078C61.8104 20.719 61.8481 20.8268 61.9173 20.9138C61.9865 21.0008 62.0831 21.0617 62.1914 21.0867L68.1034 22.4513C68.8215 22.617 69.4784 22.9812 69.9994 23.5023C70.5204 24.0235 70.8843 24.6806 71.0497 25.3987L72.4143 31.313C72.4393 31.4213 72.5002 31.518 72.5872 31.5872C72.6742 31.6563 72.782 31.694 72.8932 31.694C73.0043 31.694 73.1122 31.6563 73.1991 31.5872C73.2861 31.518 73.347 31.4213 73.372 31.313L74.7435 25.3987Z" fill="#FAFCFF" stroke="primary.800" stroke-linecap="round" stroke-linejoin="round"/>
    <path d="M13.215 26.4638C13.3461 25.8968 13.6339 25.3781 14.0455 24.9667C14.4571 24.5553 14.976 24.2678 15.543 24.1369L20.2128 23.0592C20.2981 23.0392 20.3741 22.9909 20.4285 22.9223C20.4829 22.8536 20.5125 22.7685 20.5125 22.6809C20.5125 22.5933 20.4829 22.5083 20.4285 22.4396C20.3741 22.3709 20.2981 22.3227 20.2128 22.3026L15.543 21.2249C14.976 21.0943 14.4572 20.8068 14.0457 20.3954C13.6343 19.9839 13.3468 19.4651 13.2162 18.8981L12.1384 14.2306C12.1184 14.1453 12.0702 14.0693 12.0015 14.0149C11.9328 13.9605 11.8478 13.9308 11.7602 13.9308C11.6725 13.9308 11.5875 13.9605 11.5188 14.0149C11.4502 14.0693 11.4019 14.1453 11.3819 14.2306L10.3053 18.8981C10.1745 19.4651 9.88695 19.984 9.47555 20.3956C9.06416 20.8072 8.54541 21.0949 7.97843 21.2261L3.31441 22.3026C3.22911 22.3227 3.15309 22.3709 3.09867 22.4396C3.04426 22.5083 3.01465 22.5933 3.01465 22.6809C3.01465 22.7685 3.04426 22.8536 3.09867 22.9223C3.15309 22.9909 3.22911 23.0392 3.31441 23.0592L7.983 24.1369C8.54989 24.2678 9.06861 24.5554 9.48001 24.9668C9.89141 25.3782 10.179 25.8969 10.3099 26.4638L11.3864 31.1347C11.4065 31.22 11.4547 31.296 11.5234 31.3504C11.5921 31.4048 11.6771 31.4344 11.7647 31.4344C11.8523 31.4344 11.9374 31.4048 12.0061 31.3504C12.0747 31.296 12.123 31.22 12.143 31.1347L13.215 26.4638Z" fill="white" stroke="primary.800" stroke-linecap="round" stroke-linejoin="round"/>
    <path d="M39.6975 11.0055C39.8021 10.553 40.0318 10.1389 40.3604 9.81053C40.6889 9.48217 41.1032 9.25273 41.5558 9.14838L45.2838 8.28781C45.352 8.272 45.4128 8.23357 45.4563 8.17878C45.4999 8.124 45.5236 8.05607 45.5236 7.98609C45.5236 7.91611 45.4999 7.84819 45.4563 7.7934C45.4128 7.73861 45.352 7.70018 45.2838 7.68438L41.5558 6.8238C41.1032 6.71945 40.6889 6.49001 40.3604 6.16165C40.0318 5.8333 39.8021 5.41922 39.6975 4.96665L38.8369 1.23978C38.8211 1.1716 38.7827 1.11079 38.7279 1.06724C38.6731 1.0237 38.6052 1 38.5352 1C38.4652 1 38.3973 1.0237 38.3425 1.06724C38.2877 1.11079 38.2493 1.1716 38.2335 1.23978L37.3718 4.96665C37.2671 5.41922 37.0375 5.8333 36.7089 6.16165C36.3803 6.49001 35.9661 6.71945 35.5135 6.8238L31.7878 7.68438C31.7196 7.70018 31.6588 7.73861 31.6152 7.7934C31.5717 7.84819 31.548 7.91611 31.548 7.98609C31.548 8.05607 31.5717 8.124 31.6152 8.17878C31.6588 8.23357 31.7196 8.272 31.7878 8.28781L35.5135 9.14838C35.9661 9.25273 36.3803 9.48217 36.7089 9.81053C37.0375 10.1389 37.2671 10.553 37.3718 11.0055L38.2312 14.7347C38.247 14.8029 38.2854 14.8637 38.3402 14.9072C38.395 14.9508 38.4629 14.9745 38.5329 14.9745C38.6029 14.9745 38.6708 14.9508 38.7256 14.9072C38.7804 14.8637 38.8188 14.8029 38.8346 14.7347L39.6975 11.0055Z" fill="white" stroke="primary.800" stroke-linecap="round" stroke-linejoin="round"/>
    <path d="M44.7911 80.2963C60.6919 80.2963 73.5821 67.4062 73.5821 51.5053C73.5821 35.6045 60.6919 22.7144 44.7911 22.7144C28.8903 22.7144 16.0001 35.6045 16.0001 51.5053C16.0001 67.4062 28.8903 80.2963 44.7911 80.2963Z" fill="white" stroke="primary.800" stroke-linecap="round" stroke-linejoin="round"/>
    <path d="M44.7928 73.0998C56.7188 73.0998 66.3867 63.4319 66.3867 51.5059C66.3867 39.5799 56.7188 29.9119 44.7928 29.9119C32.8668 29.9119 23.1989 39.5799 23.1989 51.5059C23.1989 63.4319 32.8668 73.0998 44.7928 73.0998Z" fill="primary.200" stroke="primary.800" stroke-miterlimit="10"/>
    <path d="M51.8091 42.6881L41.6305 52.8682L37.8122 49.0514C37.6452 48.8844 37.4469 48.7519 37.2287 48.6615C37.0105 48.5711 36.7766 48.5246 36.5404 48.5246C36.3042 48.5246 36.0703 48.5711 35.8521 48.6615C35.6339 48.7519 35.4356 48.8844 35.2686 49.0514L32.7236 51.595C32.3862 51.9325 32.1967 52.3903 32.1967 52.8675C32.1967 53.3448 32.3862 53.8025 32.7236 54.14L36.5404 57.9568L40.3572 61.7751C40.6948 62.1125 41.1525 62.302 41.6298 62.302C42.107 62.302 42.5647 62.1125 42.9023 61.7751L46.7191 57.9568L56.8992 47.7782C57.2366 47.4406 57.4261 46.9829 57.4261 46.5057C57.4261 46.0284 57.2366 45.5707 56.8992 45.2332L54.3542 42.6881C54.0166 42.3507 53.5589 42.1612 53.0816 42.1612C52.6044 42.1612 52.1467 42.3507 51.8091 42.6881Z" fill="white" stroke="primary.800" stroke-linecap="round" stroke-linejoin="round"/>
</svg>
