<svg viewBox="0 0 94 94" fill="none" xmlns="http://www.w3.org/2000/svg">
<path d="M47 94C72.9574 94 94 72.9574 94 47C94 21.0426 72.9574 0 47 0C21.0426 0 0 21.0426 0 47C0 72.9574 21.0426 94 47 94Z" fill="primary.150"/>
<path d="M46.9471 83.7645C53.7253 83.7645 59.22 82.9402 59.22 81.9233C59.22 80.9064 53.7253 80.0821 46.9471 80.0821C40.169 80.0821 34.6743 80.9064 34.6743 81.9233C34.6743 82.9402 40.169 83.7645 46.9471 83.7645Z" fill="primary.200"/>
<path d="M75.2587 16.9652C75.7048 17.4113 75.9554 18.0163 75.9554 18.6472V55.865C73.8198 63.6092 68.3578 68.7446 60.2137 71.8318H22.772C22.4596 71.8318 22.1503 71.7703 21.8617 71.6507C21.5731 71.5312 21.3109 71.356 21.09 71.1351C20.8691 70.9142 20.6939 70.652 20.5743 70.3633C20.4548 70.0747 20.3932 69.7654 20.3932 69.453V18.6472C20.3932 18.0163 20.6439 17.4113 21.09 16.9652C21.5361 16.5191 22.1411 16.2685 22.772 16.2685H73.5767C74.2075 16.2685 74.8126 16.5191 75.2587 16.9652Z" fill="white" stroke="primary.800"/>
<path d="M22.768 16.2685H32.0205V71.8318H22.768C22.4556 71.8318 22.1463 71.7703 21.8577 71.6507C21.5691 71.5312 21.3068 71.356 21.0859 71.1351C20.8651 70.9142 20.6898 70.652 20.5703 70.3633C20.4507 70.0747 20.3892 69.7654 20.3892 69.453V18.6472C20.3892 18.0163 20.6398 17.4113 21.0859 16.9652C21.532 16.5191 22.1371 16.2685 22.768 16.2685Z" fill="primary.200" stroke="primary.800"/>
<path d="M76.4554 18.6472C76.4554 17.8837 76.1521 17.1515 75.6122 16.6116C75.0724 16.0718 74.3401 15.7685 73.5767 15.7685H22.772C22.0085 15.7685 21.2763 16.0718 20.7364 16.6116C20.1965 17.1515 19.8932 17.8837 19.8932 18.6472V69.453C19.8932 69.8311 19.9677 70.2054 20.1124 70.5547C20.2571 70.904 20.4691 71.2213 20.7364 71.4886C21.0037 71.7559 21.3211 71.968 21.6704 72.1127C22.0196 72.2573 22.394 72.3318 22.772 72.3318H60.305C68.6322 69.1969 74.2734 63.9282 76.4554 55.9323V18.6472Z" stroke="primary.800" stroke-linecap="round" stroke-linejoin="round"/>
<path d="M60.3057 72.3318C60.3057 72.3318 64.907 67.5143 62.8719 57.4152C62.8378 57.2451 62.8401 57.0697 62.8787 56.9005C62.9173 56.7314 62.9912 56.5723 63.0956 56.4338C63.2001 56.2953 63.3326 56.1805 63.4846 56.0969C63.6366 56.0133 63.8046 55.9628 63.9775 55.9488C73.6995 55.1697 76.456 55.9323 76.456 55.9323C74.2741 63.9282 68.6329 69.1969 60.3057 72.3318Z" fill="primary.200" stroke="primary.800" stroke-linecap="round" stroke-linejoin="round"/>
<path d="M32.5205 15.7685V72.3318" stroke="primary.800" stroke-linecap="round" stroke-linejoin="round"/>
<path d="M20 59H63" stroke="primary.800" stroke-linecap="round" stroke-linejoin="round"/>
<path d="M20 65H63" stroke="primary.800" stroke-linecap="round" stroke-linejoin="round"/>
<path d="M20 23H76" stroke="primary.800" stroke-linecap="round" stroke-linejoin="round"/>
<path d="M20 29H76" stroke="primary.800" stroke-linecap="round" stroke-linejoin="round"/>
<path d="M20 35H76" stroke="primary.800" stroke-linecap="round" stroke-linejoin="round"/>
<path d="M20 41H76" stroke="primary.800" stroke-linecap="round" stroke-linejoin="round"/>
<path d="M20 47H76" stroke="primary.800" stroke-linecap="round" stroke-linejoin="round"/>
<path d="M20 53H76" stroke="primary.800" stroke-linecap="round" stroke-linejoin="round"/>
</svg>
