<svg viewBox="0 0 96 96" fill="none" xmlns="http://www.w3.org/2000/svg">
    <path d="M48 96C74.5097 96 96 74.5097 96 48C96 21.4903 74.5097 0 48 0C21.4903 0 0 21.4903 0 48C0 74.5097 21.4903 96 48 96Z" fill="#E0EFFF"/>
    <path d="M47.4003 79.8C51.0454 79.8 54.0003 79.3971 54.0003 78.9C54.0003 78.4029 51.0454 78 47.4003 78C43.7552 78 40.8003 78.4029 40.8003 78.9C40.8003 79.3971 43.7552 79.8 47.4003 79.8Z" fill="#C2DFFF"/>
    <path d="M6.49982 24.4998C6.49982 23.6713 7.17139 22.9998 7.99982 22.9998L87.9998 22.9998C88.8282 22.9998 89.4998 23.6713 89.4998 24.4998V44.4998C89.4998 45.3282 88.8282 45.9998 87.9998 45.9998H7.99982C7.17139 45.9998 6.49982 45.3282 6.49982 44.4998L6.49982 24.4998Z" fill="white" stroke="#003670"/>
    <path d="M20.8604 42.748C25.6234 42.748 29.4845 38.8869 29.4845 34.1239C29.4845 29.3609 25.6234 25.4998 20.8604 25.4998C16.0974 25.4998 12.2362 29.3609 12.2362 34.1239C12.2362 38.8869 16.0974 42.748 20.8604 42.748Z" fill="#C2DFFF" stroke="#003670" stroke-miterlimit="10"/>
    <path d="M15.8191 41.1218C17.2873 42.179 19.0507 42.7477 20.8599 42.7477C22.6691 42.7477 24.4325 42.179 25.9007 41.1218C25.5055 40.1063 24.8129 39.2338 23.9134 38.6186C23.0139 38.0035 21.9496 37.6743 20.8599 37.6743C19.7702 37.6743 18.7059 38.0035 17.8064 38.6186C16.9069 39.2338 16.2142 40.1063 15.8191 41.1218Z" fill="#E0EFFF" stroke="#003670" stroke-linecap="round" stroke-linejoin="round"/>
    <path d="M22.923 40.4199C22.9481 40.4313 22.9758 40.4358 23.0031 40.4328C23.0305 40.4298 23.0566 40.4196 23.0786 40.4031C23.1006 40.3866 23.1178 40.3644 23.1284 40.339C23.139 40.3136 23.1425 40.2858 23.1386 40.2585L22.8676 38.362C22.8271 38.1376 22.7401 37.924 22.6122 37.7351C22.4844 37.5462 22.3184 37.3862 22.1251 37.2651H19.5949C19.4015 37.3861 19.2355 37.5462 19.1077 37.7351C18.9798 37.924 18.8929 38.1375 18.8524 38.362L18.5814 40.2585C18.5775 40.2858 18.5811 40.3136 18.5916 40.339C18.6022 40.3644 18.6194 40.3866 18.6414 40.4031C18.6635 40.4196 18.6895 40.4298 18.7169 40.4328C18.7443 40.4358 18.7719 40.4313 18.797 40.4199L20.8598 39.482L22.923 40.4199Z" fill="white" stroke="#003670" stroke-linecap="round" stroke-linejoin="round"/>
    <path d="M19.6339 36.7395V38.4586C19.6339 38.5146 19.6477 38.5697 19.6742 38.6191C19.7006 38.6684 19.7388 38.7105 19.7854 38.7415L20.8598 39.4499L21.9341 38.7415C21.9807 38.7105 22.019 38.6685 22.0454 38.6191C22.0719 38.5697 22.0857 38.5146 22.0856 38.4586V36.7395H19.6339Z" fill="white" stroke="#003670" stroke-linecap="round" stroke-linejoin="round"/>
    <path d="M24.3915 32.8324V31.954C24.3815 31.027 24.0062 30.1413 23.3471 29.4893C22.6881 28.8374 21.7984 28.4717 20.8714 28.4717C19.9443 28.4717 19.0547 28.8374 18.3956 29.4893C17.7366 30.1413 17.3613 31.027 17.3513 31.954V32.8324C17.1646 32.8324 16.9856 32.9065 16.8536 33.0385C16.7216 33.1706 16.6474 33.3496 16.6474 33.5363C16.6474 33.723 16.7216 33.902 16.8536 34.034C16.9856 34.166 17.1646 34.2402 17.3513 34.2402C17.3661 34.2402 17.3796 34.2369 17.3944 34.2361C17.5186 35.0694 17.938 35.8304 18.5761 36.3805C19.2143 36.9307 20.0288 37.2333 20.8714 37.2333C21.7139 37.2333 22.5285 36.9307 23.1666 36.3805C23.8048 35.8304 24.2242 35.0694 24.3484 34.2361C24.3627 34.2361 24.3767 34.2402 24.3894 34.2402C24.5761 34.2402 24.7551 34.166 24.8871 34.034C25.0192 33.902 25.0933 33.723 25.0933 33.5363C25.0933 33.3496 25.0192 33.1706 24.8871 33.0385C24.7551 32.9065 24.5761 32.8324 24.3894 32.8324H24.3915Z" fill="white" stroke="#003670" stroke-linecap="round" stroke-linejoin="round"/>
    <path d="M19.8101 35.2261C20.0955 35.4982 20.4747 35.6499 20.869 35.6499C21.2633 35.6499 21.6425 35.4982 21.9279 35.2261" stroke="#003670" stroke-linecap="round" stroke-linejoin="round"/>
    <path d="M18.8477 34.7698C19.0906 34.7698 19.2876 34.5729 19.2876 34.33C19.2876 34.0871 19.0906 33.8901 18.8477 33.8901C18.6048 33.8901 18.4079 34.0871 18.4079 34.33C18.4079 34.5729 18.6048 34.7698 18.8477 34.7698Z" fill="#E0EFFF"/>
    <path d="M22.8956 34.7698C23.1386 34.7698 23.3355 34.5729 23.3355 34.33C23.3355 34.0871 23.1386 33.8901 22.8956 33.8901C22.6527 33.8901 22.4558 34.0871 22.4558 34.33C22.4558 34.5729 22.6527 34.7698 22.8956 34.7698Z" fill="#E0EFFF"/>
    <path d="M22.8084 33.1853C22.7644 33.0812 22.6907 32.9924 22.5965 32.93C22.5023 32.8675 22.3918 32.8342 22.2788 32.8342C22.1658 32.8342 22.0553 32.8675 21.9611 32.93C21.8669 32.9924 21.7932 33.0812 21.7492 33.1853" stroke="#003670" stroke-linecap="round" stroke-linejoin="round"/>
    <path d="M19.995 33.186C19.951 33.0819 19.8773 32.9931 19.7831 32.9307C19.6889 32.8683 19.5784 32.835 19.4654 32.835C19.3524 32.835 19.2419 32.8683 19.1477 32.9307C19.0536 32.9931 18.9799 33.0819 18.9359 33.186" stroke="#003670" stroke-linecap="round" stroke-linejoin="round"/>
    <path d="M21.0485 28.0814C20.0216 28.0815 19.0367 28.4895 18.3105 29.2157C17.5844 29.9419 17.1764 30.9267 17.1763 31.9537V32.8321H17.1878C17.446 32.8321 17.6975 32.7504 17.9063 32.5985C18.1151 32.4467 18.2705 32.2326 18.35 31.9869L18.6506 31.0592C18.6649 31.0153 18.6878 30.9746 18.7178 30.9394C18.7479 30.9043 18.7846 30.8755 18.8259 30.8546C18.8671 30.8337 18.9121 30.8211 18.9582 30.8176C19.0043 30.8141 19.0506 30.8197 19.0945 30.8342C19.7248 31.0577 20.3818 31.1968 21.0485 31.2481C21.8309 31.1726 22.6 30.995 23.3364 30.72L23.7618 31.9964C23.8428 32.2397 23.9983 32.4514 24.2063 32.6014C24.4143 32.7514 24.6643 32.8321 24.9208 32.8321V31.9537C24.9206 30.9267 24.5126 29.9419 23.7865 29.2157C23.0603 28.4895 22.0755 28.0815 21.0485 28.0814Z" fill="white" stroke="#003670" stroke-linecap="round" stroke-linejoin="round"/>
    <path d="M25.2723 32.8322C25.2723 32.8322 23.8641 33.1841 22.8082 31.424C22.8082 31.424 22.6321 32.3041 21.9282 32.3041C21.9282 32.3041 22.4563 31.2482 21.0481 31.2482C20.5395 31.2408 20.0542 31.0336 19.6972 30.6713C19.3401 30.309 19.14 29.8208 19.14 29.3121C19.14 28.8034 19.3401 28.3152 19.6972 27.9529C20.0542 27.5906 20.5395 27.3834 21.0481 27.376C21.0481 27.376 23.8641 27.376 25.0961 29.84C25.0961 29.8417 25.6242 30.8979 25.2723 32.8322Z" fill="white" stroke="#003670" stroke-linecap="round" stroke-linejoin="round"/>
    <path d="M6.49982 50.0002C6.49982 49.1718 7.17139 48.5002 7.99982 48.5002H87.9998C88.8282 48.5002 89.4998 49.1718 89.4998 50.0002V70.0002C89.4998 70.8287 88.8282 71.5002 87.9998 71.5002H7.99982C7.17139 71.5002 6.49982 70.8287 6.49982 70.0002L6.49982 50.0002Z" fill="white" stroke="#003670"/>
    <path d="M20.6248 68.2502C25.3883 68.2502 29.2498 64.3887 29.2498 59.6252C29.2498 54.8618 25.3883 51.0002 20.6248 51.0002C15.8614 51.0002 11.9998 54.8618 11.9998 59.6252C11.9998 64.3887 15.8614 68.2502 20.6248 68.2502Z" fill="#C2DFFF" stroke="#003670" stroke-miterlimit="10"/>
    <path d="M20.6242 63.4397C19.5713 63.4395 18.541 63.745 17.6582 64.319C16.7755 64.8929 16.0783 65.7108 15.6513 66.6733C17.1065 67.6995 18.8436 68.2504 20.6242 68.2504C22.4049 68.2504 24.142 67.6995 25.5972 66.6733C25.1702 65.7108 24.473 64.8929 23.5903 64.3189C22.7076 63.7449 21.6772 63.4395 20.6242 63.4397Z" fill="#E0EFFF" stroke="#003670" stroke-miterlimit="10"/>
    <path d="M21.8523 62.5162C21.0602 62.8114 20.1883 62.8114 19.3962 62.5162L19.3962 63.5788C19.0066 63.6685 18.6282 63.8014 18.268 63.9751L19.6829 64.8051C19.7254 64.8299 19.7621 64.8635 19.7905 64.9037L20.4514 65.8291C20.4711 65.8565 20.497 65.8789 20.5271 65.8944C20.5572 65.9098 20.5905 65.9179 20.6243 65.9179C20.6581 65.9179 20.6914 65.9098 20.7215 65.8944C20.7515 65.8789 20.7775 65.8565 20.7972 65.8291L21.458 64.905C21.4866 64.8647 21.5234 64.8311 21.566 64.8064L22.981 63.9763C22.6206 63.8027 22.2421 63.6698 21.8523 63.58L21.8523 62.5162Z" fill="white" stroke="#003670" stroke-linecap="round" stroke-linejoin="round"/>
    <path d="M18.7735 66.1103C18.8093 66.1281 18.8483 66.1387 18.8882 66.1414C18.928 66.1441 18.9681 66.139 19.006 66.1262C19.0439 66.1134 19.0788 66.0933 19.1089 66.0669C19.139 66.0406 19.1636 66.0086 19.1813 65.9727L19.7436 64.8486C19.7251 64.8314 19.7047 64.8162 19.6828 64.8034L18.2679 63.9734C17.8509 64.1741 17.4613 64.4272 17.1085 64.7266C17.55 65.3095 18.1197 65.7829 18.7735 66.1103Z" fill="white" stroke="#003670" stroke-linecap="round" stroke-linejoin="round"/>
    <path d="M22.4753 66.1103C22.4029 66.1462 22.3192 66.1518 22.2427 66.126C22.1661 66.1002 22.103 66.0451 22.067 65.9727L21.5052 64.8486C21.5237 64.8314 21.5441 64.8162 21.566 64.8034L22.9809 63.9734C23.3977 64.1741 23.7872 64.4272 24.1399 64.7266C23.6986 65.3095 23.129 65.7829 22.4753 66.1103Z" fill="white" stroke="#003670" stroke-linecap="round" stroke-linejoin="round"/>
    <path d="M22.2055 53.4364C22.2055 54.3096 21.4978 60.9886 20.6246 60.9886C19.7515 60.9886 19.0442 54.3087 19.0442 53.4364C19.0442 52.564 19.7515 51.6802 20.6246 51.6802C21.4978 51.6802 22.2055 52.5636 22.2055 53.4364Z" fill="white" stroke="#003670" stroke-miterlimit="10"/>
    <path d="M24.1375 58.347L24.1375 57.4689C24.1132 56.5536 23.7326 55.684 23.0767 55.0453C22.4208 54.4065 21.5414 54.0491 20.6259 54.0491C19.7103 54.0491 18.8309 54.4065 18.175 55.0453C17.5191 55.684 17.1385 56.5536 17.1143 57.4689L17.1143 58.347C17.0206 58.3447 16.9274 58.3612 16.8402 58.3955C16.7529 58.4298 16.6735 58.4812 16.6064 58.5466C16.5393 58.6121 16.486 58.6903 16.4497 58.7767C16.4133 58.863 16.3945 58.9558 16.3945 59.0495C16.3945 59.1432 16.4133 59.236 16.4497 59.3224C16.486 59.4087 16.5393 59.4869 16.6064 59.5524C16.6735 59.6179 16.7529 59.6692 16.8402 59.7035C16.9274 59.7378 17.0206 59.7543 17.1143 59.752C17.129 59.752 17.1426 59.7488 17.1553 59.7479C17.2779 60.5808 17.6959 61.3419 18.3331 61.8921C18.9702 62.4424 19.784 62.7451 20.6259 62.7451C21.4677 62.7451 22.2815 62.4424 22.9187 61.8921C23.5558 61.3419 23.9738 60.5808 24.0964 59.7479C24.1108 59.7479 24.1247 59.752 24.1375 59.752C24.3208 59.7476 24.4952 59.6716 24.6234 59.5404C24.7515 59.4091 24.8232 59.2329 24.8232 59.0495C24.8232 58.8661 24.7515 58.6899 24.6234 58.5586C24.4952 58.4274 24.3208 58.3514 24.1375 58.347Z" fill="white" stroke="#003670" stroke-linecap="round" stroke-linejoin="round"/>
    <path d="M18.6053 60.2796C18.8478 60.2796 19.0443 60.083 19.0443 59.8405C19.0443 59.5981 18.8478 59.4015 18.6053 59.4015C18.3628 59.4015 18.1662 59.5981 18.1662 59.8405C18.1662 60.083 18.3628 60.2796 18.6053 60.2796Z" fill="#E0EFFF"/>
    <path d="M22.644 60.2796C22.8865 60.2796 23.0831 60.083 23.0831 59.8405C23.0831 59.5981 22.8865 59.4015 22.644 59.4015C22.4016 59.4015 22.205 59.5981 22.205 59.8405C22.205 60.083 22.4016 60.2796 22.644 60.2796Z" fill="#E0EFFF"/>
    <path d="M21.6781 60.7323C21.395 61.0047 21.0173 61.1569 20.6244 61.1569C20.2315 61.1569 19.8539 61.0047 19.5707 60.7323" stroke="#003670" stroke-linecap="round" stroke-linejoin="round"/>
    <path d="M19.7465 58.6988C19.7032 58.5948 19.63 58.5059 19.5362 58.4434C19.4425 58.3809 19.3323 58.3475 19.2196 58.3475C19.1069 58.3475 18.9967 58.3809 18.903 58.4434C18.8092 58.5059 18.736 58.5948 18.6927 58.6988" stroke="#003670" stroke-linecap="round" stroke-linejoin="round"/>
    <path d="M22.557 58.6988C22.5136 58.5948 22.4404 58.5059 22.3467 58.4434C22.2529 58.3809 22.1427 58.3475 22.03 58.3475C21.9173 58.3475 21.8072 58.3809 21.7134 58.4434C21.6196 58.5059 21.5464 58.5948 21.5031 58.6988" stroke="#003670" stroke-linecap="round" stroke-linejoin="round"/>
    <path d="M17.1117 58.3469L17.1117 58.1715C17.1117 58.1715 17.1117 57.8203 17.6386 57.8203L20.0972 57.8203C20.19 57.8223 20.2823 57.8055 20.3684 57.7708C20.4545 57.7362 20.5328 57.6845 20.5984 57.6189C20.6641 57.5532 20.7158 57.475 20.7504 57.3888C20.785 57.3027 20.8019 57.2104 20.7999 57.1176C20.7999 56.4798 20.7999 55.2632 22.2452 55.0443C22.3043 55.0354 22.3646 55.0392 22.422 55.0555C22.4795 55.0718 22.5328 55.1001 22.5785 55.1386C22.6241 55.1772 22.661 55.225 22.6867 55.2789C22.7124 55.3328 22.7262 55.3916 22.7274 55.4513C22.743 56.3582 22.9167 58.3469 24.137 58.3469C24.281 58.347 24.4214 58.3916 24.5391 58.4746C24.6906 57.8784 24.7039 57.2554 24.5781 56.6533C24.4522 56.0511 24.1905 55.4856 23.8128 55C23.4352 54.5144 22.9516 54.1214 22.399 53.8511C21.8464 53.5808 21.2393 53.4403 20.6241 53.4403C20.0089 53.4403 19.4019 53.5808 18.8493 53.8511C18.2967 54.1214 17.8131 54.5144 17.4354 55C17.0578 55.4856 16.7961 56.0511 16.6702 56.6533C16.5443 57.2554 16.5577 57.8784 16.7092 58.4746C16.827 58.3915 16.9676 58.3469 17.1117 58.3469Z" fill="white" stroke="#003670" stroke-miterlimit="10"/>
    <path d="M17.4624 60.75C17.4739 61.5115 17.2731 62.0425 17.0238 62.0425C16.7815 62.0425 16.5847 61.4527 16.5847 60.7254C16.5847 59.998 16.7815 59.4082 17.0238 59.4082" stroke="#003670" stroke-linecap="round" stroke-linejoin="round"/>
    <path d="M23.7868 60.75C23.7749 61.5115 23.9757 62.0425 24.2254 62.0425C24.4678 62.0425 24.6645 61.4527 24.6645 60.7254C24.6645 59.998 24.4678 59.4082 24.2254 59.4082" stroke="#003670" stroke-linecap="round" stroke-linejoin="round"/>
</svg>
