<svg viewBox="12 12 100 100" fill="none" xmlns="http://www.w3.org/2000/svg">
<path d="M12.8965 62.9678C12.8965 75.991 18.0699 88.4808 27.2787 97.6895C36.4875 106.898 48.9773 112.072 62.0005 112.072C75.0237 112.072 87.5135 106.898 96.7223 97.6895C105.931 88.4808 111.104 75.991 111.104 62.9678C111.104 49.9446 105.931 37.4548 96.7223 28.246C87.5135 19.0372 75.0237 13.8638 62.0005 13.8638C48.9773 13.8638 36.4875 19.0372 27.2787 28.246C18.0699 37.4548 12.8965 49.9446 12.8965 62.9678Z" fill="primary.lighter"/>
<path d="M35.4814 88.1336C35.4814 88.3755 36.0212 88.6149 37.07 88.8383C38.1188 89.0617 39.656 89.2647 41.5939 89.4357C43.5318 89.6067 45.8324 89.7423 48.3643 89.8349C50.8963 89.9274 53.6101 89.975 56.3506 89.975C59.0912 89.975 61.805 89.9274 64.3369 89.8349C66.8689 89.7423 69.1695 89.6067 71.1074 89.4357C73.0453 89.2647 74.5825 89.0617 75.6313 88.8383C76.68 88.6149 77.2198 88.3755 77.2198 88.1336C77.2198 87.6453 75.0211 87.1769 71.1074 86.8316C67.1937 86.4862 61.8855 86.2922 56.3506 86.2922C50.8158 86.2922 45.5076 86.4862 41.5939 86.8316C37.6802 87.1769 35.4814 87.6453 35.4814 88.1336Z" fill="primary.light"/>
<path d="M76.7918 80.2143C76.7499 74.7768 74.5604 69.5763 70.7006 65.7462C66.8408 61.9161 61.6236 59.7668 56.186 59.7668C50.7483 59.7668 45.5311 61.9161 41.6713 65.7462C37.8115 69.5763 35.622 74.7768 35.5801 80.2143V86.6101H76.7918V80.2143Z" fill="white"/>
<path d="M42.6846 43.2661C42.6846 46.8475 44.1073 50.2821 46.6397 52.8146C49.1721 55.347 52.6068 56.7697 56.1882 56.7697C59.7696 56.7697 63.2042 55.347 65.7367 52.8146C68.2691 50.2821 69.6918 46.8475 69.6918 43.2661V39.0026C69.6918 35.4212 68.2691 31.9866 65.7367 29.4541C63.2042 26.9217 59.7696 25.499 56.1882 25.499C52.6068 25.499 49.1721 26.9217 46.6397 29.4541C44.1073 31.9866 42.6846 35.4212 42.6846 39.0026V43.2661Z" fill="white"/>
<path d="M42.6846 43.2661C42.6846 46.8475 44.1073 50.2821 46.6397 52.8146C49.1721 55.347 52.6068 56.7697 56.1882 56.7697C59.7696 56.7697 63.2042 55.347 65.7367 52.8146C68.2691 50.2821 69.6918 46.8475 69.6918 43.2661V39.0026C69.6918 35.4212 68.2691 31.9866 65.7367 29.4541C63.2042 26.9217 59.7696 25.499 56.1882 25.499C52.6068 25.499 49.1721 26.9217 46.6397 29.4541C44.1073 31.9866 42.6846 35.4212 42.6846 39.0026V43.2661Z" stroke="primary.darker" stroke-linecap="round" stroke-linejoin="round"/>
<path d="M76.7918 80.2143C76.7499 74.7768 74.5604 69.5763 70.7006 65.7462C66.8408 61.9161 61.6236 59.7668 56.186 59.7668C50.7483 59.7668 45.5311 61.9161 41.6713 65.7462C37.8115 69.5763 35.622 74.7768 35.5801 80.2143V86.6101H76.7918V80.2143Z" stroke="primary.darker" stroke-linecap="round" stroke-linejoin="round"/>
<path d="M77.4541 71.6751C83.7284 57.4203 97.9354 65.1775 97.6003 77.4326C97.1326 94.6963 77.4505 100.46 77.4505 100.46C77.4505 100.46 57.7733 94.6963 57.3055 77.4326C56.9729 65.1775 71.175 57.4203 77.4541 71.6751Z" fill="primary.light"/>
<path d="M77.4542 71.6751C83.7284 57.4203 97.9354 65.1775 97.6003 77.4326C97.1326 94.6963 77.4505 100.46 77.4505 100.46C77.4505 100.46 57.7733 94.6963 57.3055 77.4326C56.9729 65.1775 71.175 57.4203 77.4542 71.6751Z" stroke="primary.darker" stroke-linecap="round" stroke-linejoin="round"/>
</svg>
