<svg viewBox="0 0 96 96" fill="none" xmlns="http://www.w3.org/2000/svg">
    <path d="M48 96C74.5097 96 96 74.5097 96 48C96 21.4903 74.5097 0 48 0C21.4903 0 0 21.4903 0 48C0 74.5097 21.4903 96 48 96Z" fill="#E0EFFF"/>
    <path d="M47.4003 87.3004C51.0454 87.3004 54.0003 86.8974 54.0003 86.4004C54.0003 85.9033 51.0454 85.5004 47.4003 85.5004C43.7552 85.5004 40.8003 85.9033 40.8003 86.4004C40.8003 86.8974 43.7552 87.3004 47.4003 87.3004Z" fill="#C2DFFF"/>
    <path d="M0.8397 17.6178C0.695846 16.8019 1.2406 16.0239 2.05644 15.8801L44.8182 8.34004C45.634 8.19619 46.412 8.74094 46.5559 9.55678L49.7816 27.8508L4.06542 35.9117L0.8397 17.6178Z" fill="#C2DFFF" stroke="#003670"/>
    <path d="M57.7561 73.0745C57.8999 73.8903 57.3552 74.6683 56.5393 74.8122L13.7776 82.3522C12.9617 82.4961 12.1837 81.9513 12.0399 81.1355L4.01063 35.5993L49.7268 27.5383L57.7561 73.0745Z" fill="white" stroke="#003670"/>
    <path d="M20.5025 39.2711C25.3976 38.408 28.6661 33.7401 27.803 28.845C26.9398 23.95 22.2719 20.6815 17.3769 21.5446C12.4818 22.4077 9.21328 27.0756 10.0764 31.9707C10.9395 36.8657 15.6075 40.1343 20.5025 39.2711Z" fill="white" stroke="#003670" stroke-miterlimit="10"/>
    <path d="M19.6304 34.3277C18.5484 34.5183 17.5449 35.0189 16.7418 35.7687C15.9387 36.5185 15.3704 37.4852 15.106 38.5516C16.7874 39.3426 18.6723 39.5939 20.5021 39.2713C22.332 38.9486 24.0172 38.0677 25.3267 36.7495C24.7135 35.8378 23.8489 35.1236 22.8377 34.6937C21.8266 34.2638 20.7124 34.1367 19.6304 34.3277Z" fill="#E0EFFF" stroke="#003670" stroke-miterlimit="10"/>
    <path d="M20.7253 33.1562C19.9648 33.603 19.0688 33.761 18.2014 33.6012L18.3939 34.6931C18.0098 34.8559 17.645 35.0611 17.3063 35.3048L18.9107 35.9014C18.9589 35.9192 19.0027 35.9471 19.0392 35.9832L19.8859 36.8144C19.9112 36.839 19.9419 36.8573 19.9756 36.8678C20.0093 36.8782 20.045 36.8804 20.0797 36.8743C20.1145 36.8682 20.1472 36.8539 20.1753 36.8325C20.2034 36.8112 20.2261 36.7835 20.2413 36.7517L20.753 35.6823C20.775 35.6358 20.8068 35.5946 20.8461 35.5615L22.1497 34.4521C21.748 34.339 21.3349 34.271 20.9181 34.2493L20.7253 33.1562Z" fill="white" stroke="#003670" stroke-linecap="round" stroke-linejoin="round"/>
    <path d="M18.2125 37.4076C18.2525 37.4194 18.2945 37.4232 18.336 37.4188C18.3775 37.4143 18.4177 37.4017 18.4543 37.3817C18.4909 37.3617 18.5232 37.3347 18.5494 37.3022C18.5755 37.2697 18.595 37.2323 18.6067 37.1923L18.9808 35.9352C18.9586 35.9209 18.9349 35.909 18.9102 35.8998L17.3058 35.3032C16.9136 35.585 16.5591 35.9157 16.2508 36.2874C16.8101 36.8063 17.4813 37.1896 18.2125 37.4076Z" fill="white" stroke="#003670" stroke-linecap="round" stroke-linejoin="round"/>
    <path d="M22.0166 36.7369C21.9487 36.7868 21.8637 36.8078 21.7804 36.7952C21.697 36.7825 21.6221 36.7373 21.5721 36.6695L20.791 35.6161C20.807 35.595 20.8252 35.5757 20.8453 35.5586L22.1489 34.4493C22.6136 34.58 23.0598 34.7695 23.4765 35.0133C23.1285 35.6922 22.629 36.282 22.0166 36.7369Z" fill="white" stroke="#003670" stroke-linecap="round" stroke-linejoin="round"/>
    <path d="M19.4423 23.7615C19.6005 24.6588 20.0835 31.6505 19.1862 31.8087C18.2889 31.967 16.3518 25.2307 16.1937 24.3343C16.0356 23.4378 16.6023 22.4014 17.4996 22.2432C18.3969 22.085 19.2842 22.8646 19.4423 23.7615Z" fill="white" stroke="#003670" stroke-miterlimit="10"/>
    <path d="M22.3176 28.4576L22.1585 27.5552C21.9678 26.6191 21.4191 25.7945 20.6293 25.2569C19.8395 24.7193 18.8711 24.5114 17.9303 24.6773C16.9894 24.8432 16.1505 25.3698 15.5922 26.1451C15.0339 26.9203 14.8004 27.8829 14.9413 28.8278L15.1004 29.7302C15.0037 29.7449 14.9109 29.7787 14.8275 29.8297C14.7441 29.8808 14.6718 29.948 14.6147 30.0274C14.5576 30.1068 14.5171 30.1968 14.4953 30.2922C14.4736 30.3875 14.4711 30.4862 14.4881 30.5826C14.5051 30.6789 14.5412 30.7708 14.5942 30.8529C14.6472 30.9351 14.7162 31.0058 14.7969 31.0609C14.8777 31.116 14.9687 31.1544 15.0645 31.1739C15.1604 31.1933 15.2591 31.1934 15.355 31.1741C15.3702 31.1714 15.3835 31.1656 15.3965 31.1624C15.6733 31.9961 16.2408 32.7024 16.9953 33.1524C17.7497 33.6024 18.6408 33.7661 19.506 33.6136C20.3711 33.461 21.1525 33.0024 21.7075 32.3215C22.2626 31.6406 22.5543 30.7828 22.5293 29.9047C22.5441 29.9021 22.5592 29.9038 22.5722 29.9015C22.7599 29.8637 22.9253 29.754 23.0332 29.5959C23.1411 29.4378 23.1829 29.2438 23.1496 29.0553C23.1164 28.8668 23.0108 28.6988 22.8553 28.5871C22.6999 28.4754 22.5069 28.4289 22.3176 28.4576Z" fill="white" stroke="#003670" stroke-linecap="round" stroke-linejoin="round"/>
    <path d="M16.9825 31.4461C17.2317 31.4022 17.3981 31.1645 17.3542 30.9154C17.3102 30.6662 17.0726 30.4998 16.8234 30.5437C16.5742 30.5877 16.4079 30.8253 16.4518 31.0745C16.4957 31.3237 16.7334 31.49 16.9825 31.4461Z" fill="#E0EFFF"/>
    <path d="M21.1334 30.714C21.3826 30.6701 21.549 30.4325 21.505 30.1833C21.4611 29.9341 21.2235 29.7677 20.9743 29.8117C20.7251 29.8556 20.5587 30.0932 20.6027 30.3424C20.6466 30.5916 20.8842 30.758 21.1334 30.714Z" fill="#E0EFFF"/>
    <path d="M20.2228 31.3544C19.9812 31.6856 19.6207 31.9104 19.217 31.9816C18.8132 32.0528 18.3975 31.9649 18.0572 31.7362" stroke="#003670" stroke-linecap="round" stroke-linejoin="round"/>
    <path d="M17.8689 29.6148C17.8055 29.5158 17.7142 29.4377 17.6065 29.3905C17.4988 29.3432 17.3796 29.3289 17.2637 29.3493C17.1479 29.3698 17.0408 29.424 16.9557 29.5052C16.8707 29.5864 16.8116 29.691 16.7859 29.8058" stroke="#003670" stroke-linecap="round" stroke-linejoin="round"/>
    <path d="M20.7571 29.1057C20.6937 29.0066 20.6024 28.9286 20.4947 28.8813C20.387 28.8341 20.2678 28.8198 20.152 28.8402C20.0362 28.8606 19.929 28.9148 19.844 28.9961C19.7589 29.0773 19.6998 29.1819 19.6741 29.2966" stroke="#003670" stroke-linecap="round" stroke-linejoin="round"/>
    <path d="M15.0981 29.7301L15.0663 29.5499C15.0663 29.5499 15.0027 29.189 15.5442 29.0935L18.0706 28.648C18.1664 28.6332 18.2581 28.5992 18.3404 28.548C18.4226 28.4968 18.4937 28.4295 18.5492 28.3502C18.6048 28.2708 18.6437 28.181 18.6637 28.0862C18.6837 27.9914 18.6843 27.8936 18.6654 27.7986C18.5498 27.1431 18.3294 25.893 19.775 25.4061C19.8341 25.3863 19.8967 25.3793 19.9587 25.3856C20.0207 25.3919 20.0807 25.4113 20.1345 25.4427C20.1884 25.474 20.235 25.5164 20.2712 25.5672C20.3073 25.618 20.3322 25.6758 20.3442 25.737C20.5246 26.6661 21.0635 28.6782 22.3174 28.4571C22.4654 28.4311 22.6178 28.4515 22.7537 28.5155C22.8014 27.8754 22.7023 27.2328 22.4638 26.6368C22.2254 26.0408 21.8539 25.5071 21.3779 25.0765C20.9018 24.6459 20.3336 24.3297 19.7168 24.1521C19.0999 23.9744 18.4506 23.9401 17.8185 24.0515C17.1863 24.163 16.5879 24.4174 16.069 24.7953C15.5501 25.1732 15.1244 25.6646 14.8243 26.2321C14.5242 26.7996 14.3577 27.4281 14.3375 28.0697C14.3173 28.7113 14.4438 29.349 14.7076 29.9343C14.8135 29.8275 14.9499 29.7562 15.0981 29.7301Z" fill="white" stroke="#003670" stroke-miterlimit="10"/>
    <path d="M15.894 32.1362C16.0438 32.9166 15.9336 33.4987 15.6774 33.5439C15.4284 33.5878 15.1194 33.0174 14.9876 32.2699C14.8558 31.5225 14.9511 30.8807 15.2001 30.8368" stroke="#003670" stroke-linecap="round" stroke-linejoin="round"/>
    <path d="M22.3925 30.9905C22.5183 31.7751 22.8209 32.2845 23.0775 32.2392C23.3265 32.1953 23.4218 31.5536 23.29 30.8061C23.1582 30.0586 22.8492 29.4882 22.6001 29.5321" stroke="#003670" stroke-linecap="round" stroke-linejoin="round"/>
    <path d="M48.1664 9.55644C48.3102 8.7406 49.0882 8.19585 49.9041 8.3397L93.1645 15.9677C93.9804 16.1115 94.5251 16.8895 94.3813 17.7054L91.1165 36.221L44.9016 28.0721L48.1664 9.55644Z" fill="#C2DFFF" stroke="#003670"/>
    <path d="M83.0543 81.9436C82.9105 82.7594 82.1325 83.3042 81.3166 83.1603L38.0562 75.5323C37.2403 75.3885 36.6956 74.6105 36.8394 73.7946L44.9591 27.7459L91.174 35.8948L83.0543 81.9436Z" fill="white" stroke="#003670"/>
    <path d="M57.6426 41.1376C62.3332 41.9647 66.8062 38.8327 67.6333 34.1421C68.4604 29.4514 65.3283 24.9785 60.6377 24.1514C55.9471 23.3243 51.4741 26.4563 50.647 31.1469C49.8199 35.8376 52.952 40.3105 57.6426 41.1376Z" fill="white" stroke="#003670" stroke-miterlimit="10"/>
    <path d="M52.9602 38.6607C54.2226 39.9567 55.8604 40.823 57.6421 41.1372C59.4238 41.4513 61.2592 41.1974 62.8887 40.4113C62.6759 39.3426 62.1452 38.363 61.3663 37.601C60.5873 36.839 59.5963 36.3301 58.5231 36.1408C57.45 35.9516 56.3447 36.0909 55.3521 36.5406C54.3594 36.9902 53.5257 37.7292 52.9602 38.6607Z" fill="#E0EFFF" stroke="#003670" stroke-linecap="round" stroke-linejoin="round"/>
    <path d="M60.0782 39.203C60.1009 39.2185 60.1274 39.2277 60.1548 39.2295C60.1823 39.2314 60.2097 39.2258 60.2343 39.2134C60.2589 39.2009 60.2797 39.1821 60.2945 39.1589C60.3093 39.1357 60.3176 39.109 60.3185 39.0815L60.3809 37.1667C60.38 36.9386 60.3314 36.7132 60.2383 36.505C60.1452 36.2968 60.0096 36.1103 59.8402 35.9575L57.3485 35.5182C57.137 35.6037 56.9457 35.7325 56.787 35.8964C56.6283 36.0602 56.5056 36.2554 56.4268 36.4695L55.8305 38.2901C55.822 38.3163 55.8206 38.3443 55.8266 38.3711C55.8326 38.398 55.8457 38.4228 55.8645 38.4429C55.8834 38.4629 55.9073 38.4776 55.9337 38.4852C55.9601 38.4929 55.9882 38.4934 56.0148 38.4865L58.2092 37.921L60.0782 39.203Z" fill="white" stroke="#003670" stroke-linecap="round" stroke-linejoin="round"/>
    <path d="M57.4781 35.0076L57.1796 36.7005C57.1699 36.7557 57.1739 36.8124 57.1914 36.8656C57.2088 36.9188 57.2392 36.9668 57.2797 37.0055L58.2147 37.8897L59.3957 37.3786C59.447 37.3562 59.492 37.3214 59.5266 37.2774C59.5612 37.2334 59.5844 37.1814 59.594 37.1263L59.8926 35.4333L57.4781 35.0076Z" fill="white" stroke="#003670" stroke-linecap="round" stroke-linejoin="round"/>
    <path d="M62.8419 31.9855L62.9945 31.1204C63.1456 30.2058 62.9298 29.2684 62.394 28.5119C61.8581 27.7554 61.0455 27.2408 60.1326 27.0798C59.2196 26.9188 58.28 27.1245 57.5177 27.6521C56.7555 28.1797 56.2321 28.9867 56.0613 29.8979L55.9087 30.763C55.7249 30.7306 55.5357 30.7725 55.3828 30.8796C55.2298 30.9867 55.1257 31.1501 55.0933 31.334C55.0609 31.5178 55.1028 31.707 55.2099 31.8599C55.317 32.0129 55.4804 32.117 55.6643 32.1494C55.6788 32.152 55.6927 32.1511 55.7074 32.1528C55.685 32.9951 55.9659 33.8174 56.4988 34.4699C57.0318 35.1225 57.7814 35.562 58.6111 35.7083C59.4409 35.8546 60.2956 35.698 61.0196 35.2671C61.7436 34.8361 62.2887 34.1595 62.5557 33.3604C62.5699 33.3629 62.5829 33.3693 62.5955 33.3716C62.7793 33.404 62.9685 33.362 63.1214 33.255C63.2743 33.1479 63.3785 32.9844 63.4109 32.8006C63.4433 32.6167 63.4014 32.4275 63.2943 32.2746C63.1872 32.1217 63.0238 32.0176 62.8399 31.9852L62.8419 31.9855Z" fill="white" stroke="#003670" stroke-linecap="round" stroke-linejoin="round"/>
    <path d="M57.9144 33.5474C58.1483 33.8649 58.4953 34.0802 58.8837 34.1487C59.272 34.2171 59.6718 34.1335 60.0001 33.9151" stroke="#003670" stroke-linecap="round" stroke-linejoin="round"/>
    <path d="M57.0459 32.9308C57.2852 32.973 57.5133 32.8133 57.5555 32.5741C57.5976 32.3348 57.4379 32.1067 57.1987 32.0645C56.9595 32.0224 56.7313 32.1821 56.6892 32.4213C56.647 32.6605 56.8067 32.8887 57.0459 32.9308Z" fill="#E0EFFF"/>
    <path d="M61.0324 33.6338C61.2716 33.676 61.4997 33.5163 61.5419 33.2771C61.5841 33.0378 61.4243 32.8097 61.1851 32.7675C60.9459 32.7254 60.7178 32.8851 60.6756 33.1243C60.6334 33.3635 60.7931 33.5917 61.0324 33.6338Z" fill="#E0EFFF"/>
    <path d="M61.2216 32.0582C61.1963 31.9481 61.1392 31.8478 61.0572 31.77C60.9753 31.6921 60.8723 31.6401 60.761 31.6205C60.6497 31.6009 60.5351 31.6145 60.4315 31.6596C60.3279 31.7048 60.2399 31.7794 60.1785 31.8743" stroke="#003670" stroke-linecap="round" stroke-linejoin="round"/>
    <path d="M58.4508 31.5702C58.4256 31.46 58.3684 31.3598 58.2865 31.2819C58.2046 31.2041 58.1016 31.1521 57.9903 31.1325C57.879 31.1129 57.7644 31.1265 57.6608 31.1716C57.5572 31.2167 57.4692 31.2914 57.4078 31.3863" stroke="#003670" stroke-linecap="round" stroke-linejoin="round"/>
    <path d="M60.3748 26.7264C59.3634 26.5481 58.3226 26.7789 57.4814 27.368C56.6402 27.957 56.0674 28.856 55.8889 29.8674L55.7364 30.7325L55.7477 30.7345C56.002 30.7793 56.2639 30.7425 56.4959 30.6292C56.7279 30.5159 56.9181 30.332 57.039 30.1039L57.4962 29.2425C57.5179 29.2017 57.5475 29.1656 57.5832 29.1363C57.6189 29.1069 57.6601 29.0849 57.7043 29.0715C57.7486 29.058 57.795 29.0535 57.841 29.058C57.887 29.0626 57.9317 29.0761 57.9724 29.098C58.5543 29.4275 59.1772 29.6787 59.8249 29.845C60.6085 29.9064 61.3968 29.8651 62.1697 29.7221L62.367 31.053C62.4045 31.3067 62.5209 31.5422 62.6997 31.726C62.8785 31.9099 63.1107 32.0327 63.3632 32.0773L63.5158 31.2122C63.694 30.2008 63.4632 29.1601 62.8742 28.3188C62.2851 27.4776 61.3861 26.9048 60.3748 26.7264Z" fill="white" stroke="#003670" stroke-linecap="round" stroke-linejoin="round"/>
    <path d="M63.7094 32.1384C63.7094 32.1384 62.2615 32.2404 61.5273 30.3237C61.5273 30.3237 61.201 31.1598 60.5078 31.0376C60.5078 31.0376 61.2112 30.0895 59.8244 29.845C59.3248 29.7493 58.8829 29.461 58.5942 29.0422C58.3055 28.6234 58.1932 28.1078 58.2815 27.6069C58.3698 27.106 58.6517 26.6599 59.0663 26.3651C59.4808 26.0703 59.9947 25.9505 60.4968 26.0315C60.4968 26.0315 63.2701 26.5205 64.0555 29.1611C64.0552 29.1627 64.3919 30.2946 63.7094 32.1384Z" fill="white" stroke="#003670" stroke-linecap="round" stroke-linejoin="round"/>
</svg>
